<?xml version="1.0" encoding="us-ascii" standalone="no"?><svg xmlns="http://www.w3.org/2000/svg" xmlns:xlink="http://www.w3.org/1999/xlink" contentStyleType="text/css" height="577px" preserveAspectRatio="none" style="width:721px;height:577px;background:#FFFFFF;" version="1.1" viewBox="0 0 721 577" width="721px" zoomAndPan="magnify"><defs/><g><rect fill="#FFFFFF" height="382.4531" style="stroke:#181818;stroke-width:1.0;" width="10" x="74" y="93.6211"/><rect fill="#FFFFFF" height="185.7461" style="stroke:#181818;stroke-width:1.0;" width="10" x="367" y="116.9121"/><rect fill="#FFFFFF" height="31.291" style="stroke:#181818;stroke-width:1.0;" width="10" x="367" y="333.9492"/><rect fill="#FFFFFF" height="79.543" style="stroke:#181818;stroke-width:1.0;" width="10" x="367" y="396.5313"/><rect fill="#FFFFFF" height="79.543" style="stroke:#181818;stroke-width:1.0;" width="10" x="589" y="191.8242"/><line style="stroke:#181818;stroke-width:0.5;stroke-dasharray:5.0,5.0;" x1="79" x2="79" y1="83.6211" y2="494.0742"/><line style="stroke:#181818;stroke-width:0.5;stroke-dasharray:5.0,5.0;" x1="371.5" x2="371.5" y1="83.6211" y2="494.0742"/><line style="stroke:#181818;stroke-width:0.5;stroke-dasharray:5.0,5.0;" x1="593.5" x2="593.5" y1="156.7227" y2="494.0742"/><text fill="#000000" font-family="sans-serif" font-size="14" lengthAdjust="spacing" textLength="142" x="5" y="80.1074">Vehicle Fleet Manager</text><ellipse cx="79" cy="13.5" fill="#E3E3E3" rx="8" ry="8" style="stroke:#181818;stroke-width:0.5;"/><path d="M79,21.5 L79,48.5 M66,29.5 L92,29.5 M79,48.5 L66,63.5 M79,48.5 L92,63.5 " fill="none" style="stroke:#181818;stroke-width:0.5;"/><text fill="#000000" font-family="sans-serif" font-size="14" lengthAdjust="spacing" textLength="142" x="5" y="508.1816">Vehicle Fleet Manager</text><ellipse cx="79" cy="520.1953" fill="#E3E3E3" rx="8" ry="8" style="stroke:#181818;stroke-width:0.5;"/><path d="M79,528.1953 L79,555.1953 M66,536.1953 L92,536.1953 M79,555.1953 L66,570.1953 M79,555.1953 L92,570.1953 " fill="none" style="stroke:#181818;stroke-width:0.5;"/><rect fill="#E3E3E3" height="32.6211" rx="2.5" ry="2.5" style="stroke:#181818;stroke-width:0.5;" width="187" x="278.5" y="50"/><text fill="#000000" font-family="sans-serif" font-size="14" lengthAdjust="spacing" textLength="173" x="285.5" y="72.1074">:MaintenanceRegistrationUI</text><rect fill="#E3E3E3" height="32.6211" rx="2.5" ry="2.5" style="stroke:#181818;stroke-width:0.5;" width="187" x="278.5" y="493.0742"/><text fill="#000000" font-family="sans-serif" font-size="14" lengthAdjust="spacing" textLength="173" x="285.5" y="515.1816">:MaintenanceRegistrationUI</text><rect fill="#E3E3E3" height="32.6211" rx="2.5" ry="2.5" style="stroke:#181818;stroke-width:0.5;" width="237" x="475.5" y="493.0742"/><text fill="#000000" font-family="sans-serif" font-size="14" lengthAdjust="spacing" textLength="223" x="482.5" y="515.1816">:MaintenanceRegistrationController</text><rect fill="#FFFFFF" height="382.4531" style="stroke:#181818;stroke-width:1.0;" width="10" x="74" y="93.6211"/><rect fill="#FFFFFF" height="185.7461" style="stroke:#181818;stroke-width:1.0;" width="10" x="367" y="116.9121"/><rect fill="#FFFFFF" height="31.291" style="stroke:#181818;stroke-width:1.0;" width="10" x="367" y="333.9492"/><rect fill="#FFFFFF" height="79.543" style="stroke:#181818;stroke-width:1.0;" width="10" x="367" y="396.5313"/><rect fill="#FFFFFF" height="79.543" style="stroke:#181818;stroke-width:1.0;" width="10" x="589" y="191.8242"/><polygon fill="#181818" points="355,112.9121,365,116.9121,355,120.9121,359,116.9121" style="stroke:#181818;stroke-width:1.0;"/><line style="stroke:#181818;stroke-width:1.0;" x1="84" x2="361" y1="116.9121" y2="116.9121"/><text fill="#000000" font-family="sans-serif" font-size="13" font-weight="bold" lengthAdjust="spacing" textLength="7" x="91" y="111.6494">1</text><text fill="#000000" font-family="sans-serif" font-size="13" lengthAdjust="spacing" textLength="253" x="102" y="111.6494">Request to register vehicles check-up result</text><polygon fill="#181818" points="463.5,144.2031,473.5,148.2031,463.5,152.2031,467.5,148.2031" style="stroke:#181818;stroke-width:1.0;"/><line style="stroke:#181818;stroke-width:1.0;" x1="377" x2="469.5" y1="148.2031" y2="148.2031"/><text fill="#000000" font-family="sans-serif" font-size="13" font-weight="bold" lengthAdjust="spacing" textLength="7" x="384" y="142.9404">2</text><text fill="#000000" font-family="sans-serif" font-size="13" lengthAdjust="spacing" textLength="36" x="395" y="142.9404">create</text><rect fill="#E3E3E3" height="32.6211" rx="2.5" ry="2.5" style="stroke:#181818;stroke-width:0.5;" width="237" x="475.5" y="124.9121"/><text fill="#000000" font-family="sans-serif" font-size="14" lengthAdjust="spacing" textLength="223" x="482.5" y="147.0195">:MaintenanceRegistrationController</text><polygon fill="#181818" points="577,187.8242,587,191.8242,577,195.8242,581,191.8242" style="stroke:#181818;stroke-width:1.0;"/><line style="stroke:#181818;stroke-width:1.0;" x1="377" x2="583" y1="191.8242" y2="191.8242"/><text fill="#000000" font-family="sans-serif" font-size="13" font-weight="bold" lengthAdjust="spacing" textLength="7" x="384" y="186.5615">3</text><text fill="#000000" font-family="sans-serif" font-size="13" lengthAdjust="spacing" textLength="131" x="395" y="186.5615">getVehicleRepository()</text><rect fill="none" height="43.252" style="stroke:#000000;stroke-width:1.5;" width="243" x="472.5" y="199.8242"/><path d="M472.5,199.8242 L534.5,199.8242 L534.5,208.8242 L524.5,218.8242 L472.5,218.8242 L472.5,199.8242 " fill="#EEEEEE" style="stroke:#000000;stroke-width:2.0;"/><text fill="#000000" font-family="sans-serif" font-size="13" font-weight="bold" lengthAdjust="spacing" textLength="17" x="485.5" y="215.8525">ref</text><text fill="#000000" font-family="sans-serif" font-size="12" lengthAdjust="spacing" textLength="69" x="559.5" y="235.7734">Get Vehicles</text><polygon fill="#181818" points="388,267.3672,378,271.3672,388,275.3672,384,271.3672" style="stroke:#181818;stroke-width:1.0;"/><line style="stroke:#181818;stroke-width:1.0;stroke-dasharray:2.0,2.0;" x1="382" x2="593" y1="271.3672" y2="271.3672"/><text fill="#000000" font-family="sans-serif" font-size="13" font-weight="bold" lengthAdjust="spacing" textLength="7" x="394" y="266.1045">4</text><text fill="#000000" font-family="sans-serif" font-size="13" lengthAdjust="spacing" textLength="105" x="405" y="266.1045">VehicleRepository</text><polygon fill="#181818" points="95,298.6582,85,302.6582,95,306.6582,91,302.6582" style="stroke:#181818;stroke-width:1.0;"/><line style="stroke:#181818;stroke-width:1.0;stroke-dasharray:2.0,2.0;" x1="89" x2="371" y1="302.6582" y2="302.6582"/><text fill="#000000" font-family="sans-serif" font-size="13" font-weight="bold" lengthAdjust="spacing" textLength="7" x="101" y="297.3955">5</text><text fill="#000000" font-family="sans-serif" font-size="13" lengthAdjust="spacing" textLength="195" x="112" y="297.3955">Display vehicle selection interface</text><polygon fill="#181818" points="355,329.9492,365,333.9492,355,337.9492,359,333.9492" style="stroke:#181818;stroke-width:1.0;"/><line style="stroke:#181818;stroke-width:1.0;" x1="84" x2="361" y1="333.9492" y2="333.9492"/><text fill="#000000" font-family="sans-serif" font-size="13" font-weight="bold" lengthAdjust="spacing" textLength="7" x="91" y="328.6865">6</text><text fill="#000000" font-family="sans-serif" font-size="13" lengthAdjust="spacing" textLength="98" x="102" y="328.6865">Selects a vehicle</text><polygon fill="#181818" points="95,361.2402,85,365.2402,95,369.2402,91,365.2402" style="stroke:#181818;stroke-width:1.0;"/><line style="stroke:#181818;stroke-width:1.0;stroke-dasharray:2.0,2.0;" x1="89" x2="371" y1="365.2402" y2="365.2402"/><text fill="#000000" font-family="sans-serif" font-size="13" font-weight="bold" lengthAdjust="spacing" textLength="7" x="101" y="359.9775">7</text><text fill="#000000" font-family="sans-serif" font-size="13" lengthAdjust="spacing" textLength="129" x="112" y="359.9775">Confirms the selection</text><polygon fill="#181818" points="355,392.5313,365,396.5313,355,400.5313,359,396.5313" style="stroke:#181818;stroke-width:1.0;"/><line style="stroke:#181818;stroke-width:1.0;" x1="84" x2="361" y1="396.5313" y2="396.5313"/><text fill="#000000" font-family="sans-serif" font-size="13" font-weight="bold" lengthAdjust="spacing" textLength="7" x="91" y="391.2686">8</text><text fill="#000000" font-family="sans-serif" font-size="13" lengthAdjust="spacing" textLength="98" x="102" y="391.2686">Registers results</text><rect fill="none" height="43.252" style="stroke:#000000;stroke-width:1.5;" width="193" x="275.5" y="404.5313"/><path d="M275.5,404.5313 L337.5,404.5313 L337.5,413.5313 L327.5,423.5313 L275.5,423.5313 L275.5,404.5313 " fill="#EEEEEE" style="stroke:#000000;stroke-width:2.0;"/><text fill="#000000" font-family="sans-serif" font-size="13" font-weight="bold" lengthAdjust="spacing" textLength="17" x="288.5" y="420.5596">ref</text><text fill="#000000" font-family="sans-serif" font-size="12" lengthAdjust="spacing" textLength="91" x="326.5" y="440.4805">Set Maintenance</text><polygon fill="#181818" points="90,472.0742,80,476.0742,90,480.0742,86,476.0742" style="stroke:#181818;stroke-width:1.0;"/><line style="stroke:#181818;stroke-width:1.0;stroke-dasharray:2.0,2.0;" x1="84" x2="371" y1="476.0742" y2="476.0742"/><text fill="#000000" font-family="sans-serif" font-size="13" font-weight="bold" lengthAdjust="spacing" textLength="7" x="96" y="470.8115">9</text><text fill="#000000" font-family="sans-serif" font-size="13" lengthAdjust="spacing" textLength="197" x="107" y="470.8115">Confirmation of results registration</text><!--SRC=[ZL9DRy8m3BtdLrXSzY7n1pXCca2RaCQbZDrDwhOHQT8bBXl_Vkud5MCJFaMn_Txpi-F1k0e3bb1wvtKHV4d0eIOLnqo5-e0vRVba2G9fHfVRQK4iCFLVnkMGeOsa5DRiNLtkAIXrLvYK8FEUz_vReMOVOFP1XT62zcA963Re13_C02CyhpPAKDbeKw5Zc2qsQ1oJGwSfeTn43iZ6kzswhT-jRojVUiV1MzlJBD-JDzMeCKTaQbaLICW3va-22Wj8wBEcoC1UfcwGAC2n4nv15wGFyxgILAmjTzqZdgXgFveGB45i21yV1LK7aefhQKdcnBqr2LK-6Z7hTFzmBWwKWJ-AZbO_JE9LVEnRuvWWbvvxHt7TxDFcbdq-pFrBmLYRqXyWpH3IthYtW9M9bSNJu1L4id8qiWDeDXCorAGkq0Q_flPlsxO8E03zR_50BulEJ2WZS36XleKmwPSS-vsEFewkInTSnBQzt_7arCJvc-H2hxSzKl3PmDsVN7UyrzGhDVbexlS7]--></g></svg>