<?xml version="1.0" encoding="us-ascii" standalone="no"?><svg xmlns="http://www.w3.org/2000/svg" xmlns:xlink="http://www.w3.org/1999/xlink" contentStyleType="text/css" height="796px" preserveAspectRatio="none" style="width:1021px;height:796px;background:#FFFFFF;" version="1.1" viewBox="0 0 1021 796" width="1021px" zoomAndPan="magnify"><defs/><g><!--class MaintenanceRegistrationUI--><g id="elem_MaintenanceRegistrationUI"><rect codeLine="10" fill="#F1F1F1" height="48" id="MaintenanceRegistrationUI" rx="2.5" ry="2.5" style="stroke:#181818;stroke-width:0.5;" width="201" x="7" y="44"/><ellipse cx="22" cy="60" fill="#ADD1B2" rx="11" ry="11" style="stroke:#181818;stroke-width:1.0;"/><path d="M24.7656,55.875 Q24.9219,55.6563 25.1094,55.5469 Q25.2969,55.4375 25.5156,55.4375 Q25.8906,55.4375 26.125,55.7031 Q26.3594,55.9531 26.3594,56.5625 L26.3594,58.0156 Q26.3594,58.625 26.125,58.8906 Q25.8906,59.1563 25.5156,59.1563 Q25.1719,59.1563 24.9688,58.9531 Q24.7656,58.7656 24.6563,58.25 Q24.6094,57.8906 24.4219,57.7031 Q24.0938,57.3281 23.4844,57.1094 Q22.875,56.8906 22.25,56.8906 Q21.4844,56.8906 20.8438,57.2188 Q20.2188,57.5469 19.7188,58.2969 Q19.2344,59.0469 19.2344,60.0781 L19.2344,61.1719 Q19.2344,62.4063 20.125,63.2344 Q21.0156,64.0469 22.6094,64.0469 Q23.5469,64.0469 24.2031,63.7969 Q24.5938,63.6406 25.0156,63.2031 Q25.2813,62.9375 25.4219,62.8594 Q25.5781,62.7813 25.7813,62.7813 Q26.1094,62.7813 26.3594,63.0469 Q26.625,63.2969 26.625,63.6406 Q26.625,63.9844 26.2813,64.3906 Q25.7813,64.9688 24.9844,65.2969 Q23.9063,65.75 22.6094,65.75 Q21.0938,65.75 19.8906,65.125 Q18.9063,64.625 18.2188,63.5625 Q17.5313,62.4844 17.5313,61.2031 L17.5313,60.0469 Q17.5313,58.7188 18.1406,57.5781 Q18.7656,56.4219 19.8594,55.8125 Q20.9531,55.1875 22.1875,55.1875 Q22.9219,55.1875 23.5625,55.3594 Q24.2188,55.5156 24.7656,55.875 Z " fill="#000000"/><text fill="#000000" font-family="sans-serif" font-size="14" lengthAdjust="spacing" textLength="169" x="36" y="65.7969">MaintenanceRegistrationUI</text><line style="stroke:#181818;stroke-width:0.5;" x1="8" x2="207" y1="76" y2="76"/><line style="stroke:#181818;stroke-width:0.5;" x1="8" x2="207" y1="84" y2="84"/></g><!--class MaintenanceRegistrationController--><g id="elem_MaintenanceRegistrationController"><rect codeLine="14" fill="#F1F1F1" height="122.4844" id="MaintenanceRegistrationController" rx="2.5" ry="2.5" style="stroke:#181818;stroke-width:0.5;" width="486" x="243.5" y="7"/><ellipse cx="372.75" cy="23" fill="#ADD1B2" rx="11" ry="11" style="stroke:#181818;stroke-width:1.0;"/><path d="M375.5156,18.875 Q375.6719,18.6563 375.8594,18.5469 Q376.0469,18.4375 376.2656,18.4375 Q376.6406,18.4375 376.875,18.7031 Q377.1094,18.9531 377.1094,19.5625 L377.1094,21.0156 Q377.1094,21.625 376.875,21.8906 Q376.6406,22.1563 376.2656,22.1563 Q375.9219,22.1563 375.7188,21.9531 Q375.5156,21.7656 375.4063,21.25 Q375.3594,20.8906 375.1719,20.7031 Q374.8438,20.3281 374.2344,20.1094 Q373.625,19.8906 373,19.8906 Q372.2344,19.8906 371.5938,20.2188 Q370.9688,20.5469 370.4688,21.2969 Q369.9844,22.0469 369.9844,23.0781 L369.9844,24.1719 Q369.9844,25.4063 370.875,26.2344 Q371.7656,27.0469 373.3594,27.0469 Q374.2969,27.0469 374.9531,26.7969 Q375.3438,26.6406 375.7656,26.2031 Q376.0313,25.9375 376.1719,25.8594 Q376.3281,25.7813 376.5313,25.7813 Q376.8594,25.7813 377.1094,26.0469 Q377.375,26.2969 377.375,26.6406 Q377.375,26.9844 377.0313,27.3906 Q376.5313,27.9688 375.7344,28.2969 Q374.6563,28.75 373.3594,28.75 Q371.8438,28.75 370.6406,28.125 Q369.6563,27.625 368.9688,26.5625 Q368.2813,25.4844 368.2813,24.2031 L368.2813,23.0469 Q368.2813,21.7188 368.8906,20.5781 Q369.5156,19.4219 370.6094,18.8125 Q371.7031,18.1875 372.9375,18.1875 Q373.6719,18.1875 374.3125,18.3594 Q374.9688,18.5156 375.5156,18.875 Z " fill="#000000"/><text fill="#000000" font-family="sans-serif" font-size="14" lengthAdjust="spacing" textLength="219" x="393.25" y="28.7969">MaintenanceRegistrationController</text><line style="stroke:#181818;stroke-width:0.5;" x1="244.5" x2="728.5" y1="39" y2="39"/><text fill="#000000" font-family="sans-serif" font-size="14" lengthAdjust="spacing" textLength="239" x="249.5" y="58.1074">-vehicleRepository: VehicleRepository</text><line style="stroke:#181818;stroke-width:0.5;" x1="244.5" x2="728.5" y1="65.6211" y2="65.6211"/><text fill="#000000" font-family="sans-serif" font-size="14" lengthAdjust="spacing" textLength="470" x="249.5" y="84.7285">+MaintenanceRegistrationController(vehicleRepository: VehicleRepository,</text><text fill="#000000" font-family="sans-serif" font-size="14" lengthAdjust="spacing" textLength="328" x="249.5" y="103.3496">authenticationRepository: AuthenticationRepository)</text><text fill="#000000" font-family="sans-serif" font-size="14" lengthAdjust="spacing" textLength="274" x="249.5" y="121.9707">+getVehicleRepository(): VehicleRepository</text></g><g id="elem_GMN4"><path d="M765,54.5 L765,81.791 L1014,81.791 L1014,64.5 L1004,54.5 L765,54.5 " fill="#FEFFDD" style="stroke:#181818;stroke-width:0.5;"/><path d="M1004,54.5 L1004,64.5 L1014,64.5 L1004,54.5 " fill="#FEFFDD" style="stroke:#181818;stroke-width:1.0;"/><text fill="#000000" font-family="sans-serif" font-size="13" lengthAdjust="spacing" textLength="228" x="771" y="73.5283">- Vehicle is retrieved from selected data</text></g><!--class Repositories--><g id="elem_Repositories"><rect codeLine="24" fill="#F1F1F1" height="103.8633" id="Repositories" rx="2.5" ry="2.5" style="stroke:#181818;stroke-width:0.5;" width="194" x="228.5" y="208"/><ellipse cx="281.75" cy="224" fill="#ADD1B2" rx="11" ry="11" style="stroke:#181818;stroke-width:1.0;"/><path d="M284.5156,219.875 Q284.6719,219.6563 284.8594,219.5469 Q285.0469,219.4375 285.2656,219.4375 Q285.6406,219.4375 285.875,219.7031 Q286.1094,219.9531 286.1094,220.5625 L286.1094,222.0156 Q286.1094,222.625 285.875,222.8906 Q285.6406,223.1563 285.2656,223.1563 Q284.9219,223.1563 284.7188,222.9531 Q284.5156,222.7656 284.4063,222.25 Q284.3594,221.8906 284.1719,221.7031 Q283.8438,221.3281 283.2344,221.1094 Q282.625,220.8906 282,220.8906 Q281.2344,220.8906 280.5938,221.2188 Q279.9688,221.5469 279.4688,222.2969 Q278.9844,223.0469 278.9844,224.0781 L278.9844,225.1719 Q278.9844,226.4063 279.875,227.2344 Q280.7656,228.0469 282.3594,228.0469 Q283.2969,228.0469 283.9531,227.7969 Q284.3438,227.6406 284.7656,227.2031 Q285.0313,226.9375 285.1719,226.8594 Q285.3281,226.7813 285.5313,226.7813 Q285.8594,226.7813 286.1094,227.0469 Q286.375,227.2969 286.375,227.6406 Q286.375,227.9844 286.0313,228.3906 Q285.5313,228.9688 284.7344,229.2969 Q283.6563,229.75 282.3594,229.75 Q280.8438,229.75 279.6406,229.125 Q278.6563,228.625 277.9688,227.5625 Q277.2813,226.4844 277.2813,225.2031 L277.2813,224.0469 Q277.2813,222.7188 277.8906,221.5781 Q278.5156,220.4219 279.6094,219.8125 Q280.7031,219.1875 281.9375,219.1875 Q282.6719,219.1875 283.3125,219.3594 Q283.9688,219.5156 284.5156,219.875 Z " fill="#000000"/><text fill="#000000" font-family="sans-serif" font-size="14" lengthAdjust="spacing" textLength="79" x="302.25" y="229.7969">Repositories</text><line style="stroke:#181818;stroke-width:0.5;" x1="229.5" x2="421.5" y1="240" y2="240"/><line style="stroke:#181818;stroke-width:0.5;" x1="229.5" x2="421.5" y1="248" y2="248"/><text fill="#000000" font-family="sans-serif" font-size="14" lengthAdjust="spacing" textLength="94" x="234.5" y="267.1074">-Repositories()</text><text fill="#000000" font-family="sans-serif" font-size="14" lengthAdjust="spacing" textLength="182" x="234.5" y="285.7285">+getInstance() : Repositories</text><text fill="#000000" font-family="sans-serif" font-size="14" lengthAdjust="spacing" textLength="152" x="234.5" y="304.3496">+getVehicleRepository()</text></g><!--class VehicleRepository--><g id="elem_VehicleRepository"><rect codeLine="30" fill="#F1F1F1" height="85.2422" id="VehicleRepository" rx="2.5" ry="2.5" style="stroke:#181818;stroke-width:0.5;" width="195" x="351" y="373"/><ellipse cx="388.05" cy="389" fill="#ADD1B2" rx="11" ry="11" style="stroke:#181818;stroke-width:1.0;"/><path d="M390.8156,384.875 Q390.9719,384.6563 391.1594,384.5469 Q391.3469,384.4375 391.5656,384.4375 Q391.9406,384.4375 392.175,384.7031 Q392.4094,384.9531 392.4094,385.5625 L392.4094,387.0156 Q392.4094,387.625 392.175,387.8906 Q391.9406,388.1563 391.5656,388.1563 Q391.2219,388.1563 391.0188,387.9531 Q390.8156,387.7656 390.7063,387.25 Q390.6594,386.8906 390.4719,386.7031 Q390.1438,386.3281 389.5344,386.1094 Q388.925,385.8906 388.3,385.8906 Q387.5344,385.8906 386.8938,386.2188 Q386.2688,386.5469 385.7688,387.2969 Q385.2844,388.0469 385.2844,389.0781 L385.2844,390.1719 Q385.2844,391.4063 386.175,392.2344 Q387.0656,393.0469 388.6594,393.0469 Q389.5969,393.0469 390.2531,392.7969 Q390.6438,392.6406 391.0656,392.2031 Q391.3313,391.9375 391.4719,391.8594 Q391.6281,391.7813 391.8313,391.7813 Q392.1594,391.7813 392.4094,392.0469 Q392.675,392.2969 392.675,392.6406 Q392.675,392.9844 392.3313,393.3906 Q391.8313,393.9688 391.0344,394.2969 Q389.9563,394.75 388.6594,394.75 Q387.1438,394.75 385.9406,394.125 Q384.9563,393.625 384.2688,392.5625 Q383.5813,391.4844 383.5813,390.2031 L383.5813,389.0469 Q383.5813,387.7188 384.1906,386.5781 Q384.8156,385.4219 385.9094,384.8125 Q387.0031,384.1875 388.2375,384.1875 Q388.9719,384.1875 389.6125,384.3594 Q390.2688,384.5156 390.8156,384.875 Z " fill="#000000"/><text fill="#000000" font-family="sans-serif" font-size="14" lengthAdjust="spacing" textLength="114" x="406.95" y="394.7969">VehicleRepository</text><line style="stroke:#181818;stroke-width:0.5;" x1="352" x2="545" y1="405" y2="405"/><text fill="#000000" font-family="sans-serif" font-size="14" lengthAdjust="spacing" textLength="148" x="357" y="424.1074">-vehicles: List&lt;Vehicle&gt;</text><line style="stroke:#181818;stroke-width:0.5;" x1="352" x2="545" y1="431.6211" y2="431.6211"/><text fill="#000000" font-family="sans-serif" font-size="14" lengthAdjust="spacing" textLength="183" x="357" y="450.7285">+getVehicles(): List&lt;Vehicle&gt;</text></g><!--class Vehicle--><g id="elem_Vehicle"><rect codeLine="35" fill="#F1F1F1" height="252.832" id="Vehicle" rx="2.5" ry="2.5" style="stroke:#181818;stroke-width:0.5;" width="432" x="232.5" y="537"/><ellipse cx="421.25" cy="553" fill="#ADD1B2" rx="11" ry="11" style="stroke:#181818;stroke-width:1.0;"/><path d="M424.0156,548.875 Q424.1719,548.6563 424.3594,548.5469 Q424.5469,548.4375 424.7656,548.4375 Q425.1406,548.4375 425.375,548.7031 Q425.6094,548.9531 425.6094,549.5625 L425.6094,551.0156 Q425.6094,551.625 425.375,551.8906 Q425.1406,552.1563 424.7656,552.1563 Q424.4219,552.1563 424.2188,551.9531 Q424.0156,551.7656 423.9063,551.25 Q423.8594,550.8906 423.6719,550.7031 Q423.3438,550.3281 422.7344,550.1094 Q422.125,549.8906 421.5,549.8906 Q420.7344,549.8906 420.0938,550.2188 Q419.4688,550.5469 418.9688,551.2969 Q418.4844,552.0469 418.4844,553.0781 L418.4844,554.1719 Q418.4844,555.4063 419.375,556.2344 Q420.2656,557.0469 421.8594,557.0469 Q422.7969,557.0469 423.4531,556.7969 Q423.8438,556.6406 424.2656,556.2031 Q424.5313,555.9375 424.6719,555.8594 Q424.8281,555.7813 425.0313,555.7813 Q425.3594,555.7813 425.6094,556.0469 Q425.875,556.2969 425.875,556.6406 Q425.875,556.9844 425.5313,557.3906 Q425.0313,557.9688 424.2344,558.2969 Q423.1563,558.75 421.8594,558.75 Q420.3438,558.75 419.1406,558.125 Q418.1563,557.625 417.4688,556.5625 Q416.7813,555.4844 416.7813,554.2031 L416.7813,553.0469 Q416.7813,551.7188 417.3906,550.5781 Q418.0156,549.4219 419.1094,548.8125 Q420.2031,548.1875 421.4375,548.1875 Q422.1719,548.1875 422.8125,548.3594 Q423.4688,548.5156 424.0156,548.875 Z " fill="#000000"/><text fill="#000000" font-family="sans-serif" font-size="14" lengthAdjust="spacing" textLength="46" x="441.75" y="558.7969">Vehicle</text><line style="stroke:#181818;stroke-width:0.5;" x1="233.5" x2="663.5" y1="569" y2="569"/><text fill="#000000" font-family="sans-serif" font-size="14" lengthAdjust="spacing" textLength="178" x="238.5" y="588.1074">-checkUpFrequency: double</text><text fill="#000000" font-family="sans-serif" font-size="14" lengthAdjust="spacing" textLength="179" x="238.5" y="606.7285">-lastMaintenanceKm: double</text><text fill="#000000" font-family="sans-serif" font-size="14" lengthAdjust="spacing" textLength="131" x="238.5" y="625.3496">-maintenance: String</text><line style="stroke:#181818;stroke-width:0.5;" x1="233.5" x2="663.5" y1="632.8633" y2="632.8633"/><text fill="#000000" font-family="sans-serif" font-size="14" lengthAdjust="spacing" textLength="364" x="238.5" y="651.9707">+Vehicle(brand: String, model: String, tareWeight: double,</text><text fill="#000000" font-family="sans-serif" font-size="14" lengthAdjust="spacing" textLength="416" x="238.5" y="670.5918">grossWeight: double, currentKm: double, registerDate: LocalDate,</text><text fill="#000000" font-family="sans-serif" font-size="14" lengthAdjust="spacing" textLength="355" x="238.5" y="689.2129">acquisitionDate: LocalDate, checkUpFrequency: double)</text><text fill="#000000" font-family="sans-serif" font-size="14" lengthAdjust="spacing" textLength="244" x="238.5" y="707.834">+setMaintenance(maintenance: String)</text><text fill="#000000" font-family="sans-serif" font-size="14" lengthAdjust="spacing" textLength="217" x="238.5" y="726.4551">+getLastMaintenanceKm(): double</text><text fill="#000000" font-family="sans-serif" font-size="14" lengthAdjust="spacing" textLength="339" x="238.5" y="745.0762">+setLastMaintenanceKm(lastMaintenanceKm: double)</text><text fill="#000000" font-family="sans-serif" font-size="14" lengthAdjust="spacing" textLength="157" x="238.5" y="763.6973">+getCurrentKm(): double</text><text fill="#000000" font-family="sans-serif" font-size="14" lengthAdjust="spacing" textLength="214" x="238.5" y="782.3184">+getCheckUpFrequency(): double</text></g><!--link MaintenanceRegistrationController to GMN4--><g id="link_MaintenanceRegistrationController_GMN4"><path d="M729.58,68 C744.69,68 755.17,68 755.17,68 C755.17,68 758.78,68 764.83,68 " fill="none" id="MaintenanceRegistrationController-GMN4" style="stroke:#181818;stroke-width:1.0;stroke-dasharray:7.0,7.0;"/></g><!--link MaintenanceRegistrationUI to MaintenanceRegistrationController--><g id="link_MaintenanceRegistrationUI_MaintenanceRegistrationController"><path codeLine="47" d="M208.27,68 C223.28,68 233.83,68 233.83,68 C233.83,68 231.4,68 237.33,68 " fill="none" id="MaintenanceRegistrationUI-to-MaintenanceRegistrationController" style="stroke:#181818;stroke-width:1.0;stroke-dasharray:7.0,7.0;"/><polygon fill="#181818" points="243.33,68,234.33,64,238.33,68,234.33,72,243.33,68" style="stroke:#181818;stroke-width:1.0;"/></g><!--link MaintenanceRegistrationController to Repositories--><g id="link_MaintenanceRegistrationController_Repositories"><path codeLine="48" d="M435.56,129.12 C414.09,154.45 393.2484,179.042 372.6784,203.322 " fill="none" id="MaintenanceRegistrationController-to-Repositories" style="stroke:#181818;stroke-width:1.0;stroke-dasharray:7.0,7.0;"/><polygon fill="#181818" points="368.8,207.9,377.6696,203.6187,372.032,204.085,371.5657,198.4474,368.8,207.9" style="stroke:#181818;stroke-width:1.0;"/><text fill="#000000" font-family="sans-serif" font-size="13" lengthAdjust="spacing" textLength="67" x="407.5" y="174.0283">repositories</text></g><!--link Repositories to Repositories--><g id="link_Repositories_Repositories"><path codeLine="49" d="M422.78,245.17 C442.98,246.73 457.5,251.67 457.5,260 C457.5,268.33 448.9622,272.808 428.7622,274.368 " fill="none" id="Repositories-to-Repositories" style="stroke:#181818;stroke-width:1.0;"/><polygon fill="#181818" points="422.78,274.83,432.0613,278.1251,427.7652,274.445,431.4453,270.1489,422.78,274.83" style="stroke:#181818;stroke-width:1.0;"/><text fill="#000000" font-family="sans-serif" font-size="13" lengthAdjust="spacing" textLength="49" x="463.5" y="265.5283">instance</text></g><!--link Repositories to VehicleRepository--><g id="link_Repositories_VehicleRepository"><path codeLine="50" d="M366.46,312.11 C382.25,331.82 396.3382,349.3977 411.3382,368.1177 " fill="none" id="Repositories-to-VehicleRepository" style="stroke:#181818;stroke-width:1.0;"/><polygon fill="#181818" points="415.09,372.8,412.5838,363.2754,411.9635,368.8981,406.3407,368.2778,415.09,372.8" style="stroke:#181818;stroke-width:1.0;"/><text fill="#000000" font-family="sans-serif" font-size="13" lengthAdjust="spacing" textLength="7" x="402.2075" y="361.6722">1</text></g><!--link VehicleRepository to Vehicle--><g id="link_VehicleRepository_Vehicle"><path codeLine="51" d="M448.5,458.23 C448.5,480.23 448.5,502.51 448.5,530.97 " fill="none" id="VehicleRepository-to-Vehicle" style="stroke:#181818;stroke-width:1.0;"/><polygon fill="#181818" points="448.5,536.97,452.5,527.97,448.5,531.97,444.5,527.97,448.5,536.97" style="stroke:#181818;stroke-width:1.0;"/><text fill="#000000" font-family="sans-serif" font-size="13" lengthAdjust="spacing" textLength="39" x="449.5" y="503.0283">vehicle</text><text fill="#000000" font-family="sans-serif" font-size="13" lengthAdjust="spacing" textLength="7" x="440.9422" y="480.427">1</text><text fill="#000000" font-family="sans-serif" font-size="13" lengthAdjust="spacing" textLength="12" x="436.1344" y="525.7839">1*</text></g><!--link MaintenanceRegistrationController to VehicleRepository--><g id="link_MaintenanceRegistrationController_VehicleRepository"><path codeLine="52" d="M500.35,129.16 C509,166.73 518.5,208 518.5,208 C518.5,208 518.5,312 518.5,312 C518.5,312 499.7336,339.4751 480.3536,367.8551 " fill="none" id="MaintenanceRegistrationController-to-VehicleRepository" style="stroke:#181818;stroke-width:1.0;stroke-dasharray:7.0,7.0;"/><polygon fill="#181818" points="476.97,372.81,485.3487,367.6333,479.7897,368.6809,478.7421,363.1219,476.97,372.81" style="stroke:#181818;stroke-width:1.0;"/><text fill="#000000" font-family="sans-serif" font-size="13" lengthAdjust="spacing" textLength="101" x="519.5" y="265.5283">vehicleRepository</text></g><!--SRC=[ZLJ1Rjim3BtxAuXUugnfiLs3eK3HeK3GxBAWssKNHMPi8RBaIdI7RDY_ZtASMBQJ9Jb5Ua-Fv2FfYTygKmadIYYjiR9mjaGWLsFI8PMGMv7ZYdOQmQ4aON8T4tmXCljBcHmsGliOqSeWxIg4okfTE2IJ4w1rP9FebTJ2-qSYfzOruK9QirA_4JucoKJZXe0iE9KN19aAwIXhakO9V1NA41fX97x3N7bo8g2l2_YJ97-J_xEUh25djKR7RE3VtJiMIcecLTOhicutX-_3guPvUr4olKPh1Z-DgAb0Gqes0Z7zyGmotQUG8uq4q-cfZDa8OmbR3-tciY5xEmvIe3oF0NS7tp633OyCUDJS23vbWaI29eCGuM3uCRP2trhRkqlR4e1hM1XF8P5q2lCUgQESABDhxWZizzBFOSa5Vcvf3qFlVB2ipnXAjuAoGBbzhPuTljLe93Sei_MQzw91-G55jhwKVRZie3cis4gJxpDfOwHh9qnsW6Qyd1dgxaZ2uGyCxJl8Xj79dVL-U2rhvtXgkWHctBlGOtHV177qfPL2Xx_DzCctMh5ltFqHUgxWjdaUuuBJ4nLsWxeSkXDSZ_m9OcFEMKyxuQT3jKF1W0toZoZSulEVZlk7AnRayZVbddNYUURnTl5uzx2x4LUrUp7WCV7cqys99H_TDBmz_yFn0GktYt5b1MFPeq8K_1y0]--></g></svg>