<?xml version="1.0" encoding="us-ascii" standalone="no"?><svg xmlns="http://www.w3.org/2000/svg" xmlns:xlink="http://www.w3.org/1999/xlink" contentStyleType="text/css" height="442px" preserveAspectRatio="none" style="width:955px;height:442px;background:#FFFFFF;" version="1.1" viewBox="0 0 955 442" width="955px" zoomAndPan="magnify"><defs/><g><rect fill="#FFFFFF" height="314.9102" style="stroke:#181818;stroke-width:1.0;" width="10" x="205" y="71.9121"/><rect fill="#FFFFFF" height="219.0371" style="stroke:#181818;stroke-width:1.0;" width="10" x="347" y="129.4941"/><rect fill="#FFFFFF" height="31.291" style="stroke:#181818;stroke-width:1.0;" width="10" x="620" y="223.3672"/><rect fill="#FFFFFF" height="31.291" style="stroke:#181818;stroke-width:1.0;" width="10" x="747" y="160.7852"/><rect fill="#FFFFFF" height="31.291" style="stroke:#181818;stroke-width:1.0;" width="10" x="881" y="285.9492"/><rect fill="none" height="269.6191" style="stroke:#000000;stroke-width:1.5;" width="775" x="174.5" y="86.9121"/><line style="stroke:#181818;stroke-width:0.5;stroke-dasharray:5.0,5.0;" x1="209.5" x2="209.5" y1="38.6211" y2="404.8223"/><line style="stroke:#181818;stroke-width:0.5;stroke-dasharray:5.0,5.0;" x1="351.5" x2="351.5" y1="38.6211" y2="404.8223"/><line style="stroke:#181818;stroke-width:0.5;stroke-dasharray:5.0,5.0;" x1="465.5" x2="465.5" y1="38.6211" y2="404.8223"/><line style="stroke:#181818;stroke-width:0.5;stroke-dasharray:5.0,5.0;" x1="548.5" x2="548.5" y1="38.6211" y2="404.8223"/><line style="stroke:#181818;stroke-width:0.5;stroke-dasharray:5.0,5.0;" x1="624.5" x2="624.5" y1="38.6211" y2="404.8223"/><line style="stroke:#181818;stroke-width:0.5;stroke-dasharray:5.0,5.0;" x1="751.5" x2="751.5" y1="38.6211" y2="404.8223"/><line style="stroke:#181818;stroke-width:0.5;stroke-dasharray:5.0,5.0;" x1="885.5" x2="885.5" y1="38.6211" y2="404.8223"/><rect fill="#E3E3E3" height="32.6211" rx="2.5" ry="2.5" style="stroke:#181818;stroke-width:0.5;" width="51" x="184.5" y="5"/><text fill="#000000" font-family="sans-serif" font-size="14" lengthAdjust="spacing" textLength="37" x="191.5" y="27.1074">SkillUI</text><rect fill="#E3E3E3" height="32.6211" rx="2.5" ry="2.5" style="stroke:#181818;stroke-width:0.5;" width="51" x="184.5" y="403.8223"/><text fill="#000000" font-family="sans-serif" font-size="14" lengthAdjust="spacing" textLength="37" x="191.5" y="425.9297">SkillUI</text><rect fill="#E3E3E3" height="32.6211" rx="2.5" ry="2.5" style="stroke:#181818;stroke-width:0.5;" width="101" x="301.5" y="5"/><text fill="#000000" font-family="sans-serif" font-size="14" lengthAdjust="spacing" textLength="87" x="308.5" y="27.1074">SkillController</text><rect fill="#E3E3E3" height="32.6211" rx="2.5" ry="2.5" style="stroke:#181818;stroke-width:0.5;" width="101" x="301.5" y="403.8223"/><text fill="#000000" font-family="sans-serif" font-size="14" lengthAdjust="spacing" textLength="87" x="308.5" y="425.9297">SkillController</text><rect fill="#E3E3E3" height="32.6211" rx="2.5" ry="2.5" style="stroke:#181818;stroke-width:0.5;" width="107" x="412.5" y="5"/><text fill="#000000" font-family="sans-serif" font-size="14" lengthAdjust="spacing" textLength="93" x="419.5" y="27.1074">SkillRepository</text><rect fill="#E3E3E3" height="32.6211" rx="2.5" ry="2.5" style="stroke:#181818;stroke-width:0.5;" width="107" x="412.5" y="403.8223"/><text fill="#000000" font-family="sans-serif" font-size="14" lengthAdjust="spacing" textLength="93" x="419.5" y="425.9297">SkillRepository</text><rect fill="#E3E3E3" height="32.6211" rx="2.5" ry="2.5" style="stroke:#181818;stroke-width:0.5;" width="39" x="529.5" y="5"/><text fill="#000000" font-family="sans-serif" font-size="14" lengthAdjust="spacing" textLength="25" x="536.5" y="27.1074">Skill</text><rect fill="#E3E3E3" height="32.6211" rx="2.5" ry="2.5" style="stroke:#181818;stroke-width:0.5;" width="39" x="529.5" y="403.8223"/><text fill="#000000" font-family="sans-serif" font-size="14" lengthAdjust="spacing" textLength="25" x="536.5" y="425.9297">Skill</text><rect fill="#E3E3E3" height="32.6211" rx="2.5" ry="2.5" style="stroke:#181818;stroke-width:0.5;" width="93" x="578.5" y="5"/><text fill="#000000" font-family="sans-serif" font-size="14" lengthAdjust="spacing" textLength="79" x="585.5" y="27.1074">Repositories</text><rect fill="#E3E3E3" height="32.6211" rx="2.5" ry="2.5" style="stroke:#181818;stroke-width:0.5;" width="93" x="578.5" y="403.8223"/><text fill="#000000" font-family="sans-serif" font-size="14" lengthAdjust="spacing" textLength="79" x="585.5" y="425.9297">Repositories</text><rect fill="#E3E3E3" height="32.6211" rx="2.5" ry="2.5" style="stroke:#181818;stroke-width:0.5;" width="141" x="681.5" y="5"/><text fill="#000000" font-family="sans-serif" font-size="14" lengthAdjust="spacing" textLength="127" x="688.5" y="27.1074">RepositorySingleton</text><rect fill="#E3E3E3" height="32.6211" rx="2.5" ry="2.5" style="stroke:#181818;stroke-width:0.5;" width="141" x="681.5" y="403.8223"/><text fill="#000000" font-family="sans-serif" font-size="14" lengthAdjust="spacing" textLength="127" x="688.5" y="425.9297">RepositorySingleton</text><rect fill="#E3E3E3" height="32.6211" rx="2.5" ry="2.5" style="stroke:#181818;stroke-width:0.5;" width="107" x="832.5" y="5"/><text fill="#000000" font-family="sans-serif" font-size="14" lengthAdjust="spacing" textLength="93" x="839.5" y="27.1074">SkillRepository</text><rect fill="#E3E3E3" height="32.6211" rx="2.5" ry="2.5" style="stroke:#181818;stroke-width:0.5;" width="107" x="832.5" y="403.8223"/><text fill="#000000" font-family="sans-serif" font-size="14" lengthAdjust="spacing" textLength="93" x="839.5" y="425.9297">SkillRepository</text><rect fill="#FFFFFF" height="314.9102" style="stroke:#181818;stroke-width:1.0;" width="10" x="205" y="71.9121"/><rect fill="#FFFFFF" height="219.0371" style="stroke:#181818;stroke-width:1.0;" width="10" x="347" y="129.4941"/><rect fill="#FFFFFF" height="31.291" style="stroke:#181818;stroke-width:1.0;" width="10" x="620" y="223.3672"/><rect fill="#FFFFFF" height="31.291" style="stroke:#181818;stroke-width:1.0;" width="10" x="747" y="160.7852"/><rect fill="#FFFFFF" height="31.291" style="stroke:#181818;stroke-width:1.0;" width="10" x="881" y="285.9492"/><polygon fill="#181818" points="193,67.9121,203,71.9121,193,75.9121,197,71.9121" style="stroke:#181818;stroke-width:1.0;"/><line style="stroke:#181818;stroke-width:1.0;" x1="0" x2="199" y1="71.9121" y2="71.9121"/><text fill="#000000" font-family="sans-serif" font-size="13" lengthAdjust="spacing" textLength="155" x="7" y="66.6494">asks to register a new skill</text><path d="M174.5,86.9121 L366.5,86.9121 L366.5,96.2031 L356.5,106.2031 L174.5,106.2031 L174.5,86.9121 " fill="#EEEEEE" style="stroke:#000000;stroke-width:1.5;"/><rect fill="none" height="269.6191" style="stroke:#000000;stroke-width:1.5;" width="775" x="174.5" y="86.9121"/><text fill="#000000" font-family="sans-serif" font-size="13" font-weight="bold" lengthAdjust="spacing" textLength="147" x="189.5" y="101.9404">get the Skill Repository</text><polygon fill="#181818" points="335,125.4941,345,129.4941,335,133.4941,339,129.4941" style="stroke:#181818;stroke-width:1.0;"/><line style="stroke:#181818;stroke-width:1.0;" x1="215" x2="341" y1="129.4941" y2="129.4941"/><text fill="#000000" font-family="sans-serif" font-size="13" lengthAdjust="spacing" textLength="113" x="222" y="124.2314">getSkillRepository()</text><polygon fill="#181818" points="735,156.7852,745,160.7852,735,164.7852,739,160.7852" style="stroke:#181818;stroke-width:1.0;"/><line style="stroke:#181818;stroke-width:1.0;" x1="357" x2="741" y1="160.7852" y2="160.7852"/><text fill="#000000" font-family="sans-serif" font-size="13" lengthAdjust="spacing" textLength="75" x="364" y="155.5225">getInstance()</text><polygon fill="#181818" points="368,188.0762,358,192.0762,368,196.0762,364,192.0762" style="stroke:#181818;stroke-width:1.0;"/><line style="stroke:#181818;stroke-width:1.0;" x1="362" x2="751" y1="192.0762" y2="192.0762"/><text fill="#000000" font-family="sans-serif" font-size="13" lengthAdjust="spacing" textLength="67" x="374" y="186.8135">repositories</text><polygon fill="#181818" points="608,219.3672,618,223.3672,608,227.3672,612,223.3672" style="stroke:#181818;stroke-width:1.0;"/><line style="stroke:#181818;stroke-width:1.0;" x1="357" x2="614" y1="223.3672" y2="223.3672"/><text fill="#000000" font-family="sans-serif" font-size="13" lengthAdjust="spacing" textLength="113" x="364" y="218.1045">getSkillRepository()</text><polygon fill="#181818" points="368,250.6582,358,254.6582,368,258.6582,364,254.6582" style="stroke:#181818;stroke-width:1.0;"/><line style="stroke:#181818;stroke-width:1.0;" x1="362" x2="624" y1="254.6582" y2="254.6582"/><text fill="#000000" font-family="sans-serif" font-size="13" lengthAdjust="spacing" textLength="85" x="374" y="249.3955">skillRepository</text><polygon fill="#181818" points="869,281.9492,879,285.9492,869,289.9492,873,285.9492" style="stroke:#181818;stroke-width:1.0;"/><line style="stroke:#181818;stroke-width:1.0;" x1="357" x2="875" y1="285.9492" y2="285.9492"/><text fill="#000000" font-family="sans-serif" font-size="13" lengthAdjust="spacing" textLength="58" x="364" y="280.6865">getSkills()</text><polygon fill="#181818" points="368,313.2402,358,317.2402,368,321.2402,364,317.2402" style="stroke:#181818;stroke-width:1.0;"/><line style="stroke:#181818;stroke-width:1.0;" x1="362" x2="465" y1="317.2402" y2="317.2402"/><text fill="#000000" font-family="sans-serif" font-size="13" lengthAdjust="spacing" textLength="23" x="374" y="311.9775">skill</text><polygon fill="#181818" points="226,344.5313,216,348.5313,226,352.5313,222,348.5313" style="stroke:#181818;stroke-width:1.0;"/><line style="stroke:#181818;stroke-width:1.0;" x1="220" x2="351" y1="348.5313" y2="348.5313"/><text fill="#000000" font-family="sans-serif" font-size="13" lengthAdjust="spacing" textLength="85" x="232" y="343.2686">skillRepository</text><polygon fill="#181818" points="11,382.8223,1,386.8223,11,390.8223,7,386.8223" style="stroke:#181818;stroke-width:1.0;"/><line style="stroke:#181818;stroke-width:1.0;stroke-dasharray:2.0,2.0;" x1="5" x2="209" y1="386.8223" y2="386.8223"/><text fill="#000000" font-family="sans-serif" font-size="13" lengthAdjust="spacing" textLength="186" x="17" y="381.5596">requests data (name of the skill)</text><!--SRC=[bLJBRW8n3BpdAto40p-0gaeL9oGELHS-mDerIxGXsSQcYBzl4c0VOUaZHsSydh6TSADjYnwFS7JMbGVlZWJYJwIukscnRB2cGYw6m5CfQ6ip1F01AtVMjeOz6YQbGbXqgLkq0aMZZTcj0HbswyURbRFYdJ7a8sAr_TWyOZweTQp5-Kl4y3Zq2Ez0ewikGnD7nFlcRQkKMhm6MSiGQ1Z41NkrPebYmDBvHgEm5Fs5Gj41X5DxTsgX9W4vqAteG572n1Di1_ve2fOHdhcPpNieT3LI3_huu2IYGDWp53gEGfozygyjX-6KD28UaK-aJjUQgj5xyODcPlaL_R_OtLYSoU-T6XcwZd6AD97ralErUIRwEU5TPRwJlM0EEgTbPZdJ1JA9kVZdZIv-yfQf3plvzsQaNOmnijMr_CjYaIWyVPw8XQ52GPXP3F-6swVtaCZdQa0Jdetw1W00]--></g></svg>