<?xml version="1.0" encoding="us-ascii" standalone="no"?><svg xmlns="http://www.w3.org/2000/svg" xmlns:xlink="http://www.w3.org/1999/xlink" contentStyleType="text/css" height="811px" preserveAspectRatio="none" style="width:858px;height:811px;background:#FFFFFF;" version="1.1" viewBox="0 0 858 811" width="858px" zoomAndPan="magnify"><defs/><g><rect fill="#FFFFFF" height="626.1602" style="stroke:#181818;stroke-width:1.0;" width="10" x="60" y="93.6211"/><rect fill="#FFFFFF" height="373.4922" style="stroke:#181818;stroke-width:1.0;" width="10" x="300" y="116.9121"/><rect fill="#FFFFFF" height="189.0859" style="stroke:#181818;stroke-width:1.0;" width="10" x="300" y="521.6953"/><rect fill="#FFFFFF" height="267.2891" style="stroke:#181818;stroke-width:1.0;" width="10" x="453" y="191.8242"/><rect fill="#FFFFFF" height="31.291" style="stroke:#181818;stroke-width:1.0;" width="10" x="568" y="271.3672"/><rect fill="#FFFFFF" height="31.291" style="stroke:#181818;stroke-width:1.0;" width="10" x="675" y="333.9492"/><rect fill="#FFFFFF" height="31.291" style="stroke:#181818;stroke-width:1.0;" width="10" x="789" y="396.5313"/><rect fill="#FFFFFF" height="30" style="stroke:#181818;stroke-width:1.0;" width="10" x="789" y="601.2383"/><line style="stroke:#181818;stroke-width:0.5;stroke-dasharray:5.0,5.0;" x1="65" x2="65" y1="83.6211" y2="728.7813"/><line style="stroke:#181818;stroke-width:0.5;stroke-dasharray:5.0,5.0;" x1="304.5" x2="304.5" y1="83.6211" y2="728.7813"/><line style="stroke:#181818;stroke-width:0.5;stroke-dasharray:5.0,5.0;" x1="457.5" x2="457.5" y1="156.7227" y2="728.7813"/><line style="stroke:#181818;stroke-width:0.5;stroke-dasharray:5.0,5.0;" x1="572.5" x2="572.5" y1="83.6211" y2="728.7813"/><line style="stroke:#181818;stroke-width:0.5;stroke-dasharray:5.0,5.0;" x1="679.5" x2="679.5" y1="83.6211" y2="728.7813"/><line style="stroke:#181818;stroke-width:0.5;stroke-dasharray:5.0,5.0;" x1="793.5" x2="793.5" y1="83.6211" y2="728.7813"/><text fill="#000000" font-family="sans-serif" font-size="14" lengthAdjust="spacing" textLength="114" x="5" y="80.1074">Organization HRM</text><ellipse cx="65" cy="13.5" fill="#E3E3E3" rx="8" ry="8" style="stroke:#181818;stroke-width:0.5;"/><path d="M65,21.5 L65,48.5 M52,29.5 L78,29.5 M65,48.5 L52,63.5 M65,48.5 L78,63.5 " fill="none" style="stroke:#181818;stroke-width:0.5;"/><text fill="#000000" font-family="sans-serif" font-size="14" lengthAdjust="spacing" textLength="114" x="5" y="742.8887">Organization HRM</text><ellipse cx="65" cy="754.9023" fill="#E3E3E3" rx="8" ry="8" style="stroke:#181818;stroke-width:0.5;"/><path d="M65,762.9023 L65,789.9023 M52,770.9023 L78,770.9023 M65,789.9023 L52,804.9023 M65,789.9023 L78,804.9023 " fill="none" style="stroke:#181818;stroke-width:0.5;"/><rect fill="#E3E3E3" height="32.6211" rx="2.5" ry="2.5" style="stroke:#181818;stroke-width:0.5;" width="55" x="277.5" y="50"/><text fill="#000000" font-family="sans-serif" font-size="14" lengthAdjust="spacing" textLength="41" x="284.5" y="72.1074">:SkillUI</text><rect fill="#E3E3E3" height="32.6211" rx="2.5" ry="2.5" style="stroke:#181818;stroke-width:0.5;" width="55" x="277.5" y="727.7813"/><text fill="#000000" font-family="sans-serif" font-size="14" lengthAdjust="spacing" textLength="41" x="284.5" y="749.8887">:SkillUI</text><rect fill="#E3E3E3" height="32.6211" rx="2.5" ry="2.5" style="stroke:#181818;stroke-width:0.5;" width="105" x="405.5" y="727.7813"/><text fill="#000000" font-family="sans-serif" font-size="14" lengthAdjust="spacing" textLength="91" x="412.5" y="749.8887">:SkillController</text><rect fill="#E3E3E3" height="32.6211" rx="2.5" ry="2.5" style="stroke:#181818;stroke-width:0.5;" width="97" x="524.5" y="50"/><text fill="#000000" font-family="sans-serif" font-size="14" lengthAdjust="spacing" textLength="83" x="531.5" y="72.1074">:Repositories</text><rect fill="#E3E3E3" height="32.6211" rx="2.5" ry="2.5" style="stroke:#181818;stroke-width:0.5;" width="97" x="524.5" y="727.7813"/><text fill="#000000" font-family="sans-serif" font-size="14" lengthAdjust="spacing" textLength="83" x="531.5" y="749.8887">:Repositories</text><rect fill="#E3E3E3" height="51.2422" rx="2.5" ry="2.5" style="stroke:#181818;stroke-width:0.5;" width="97" x="631.5" y="31.3789"/><text fill="#000000" font-family="sans-serif" font-size="14" lengthAdjust="spacing" textLength="74" x="643" y="53.4863">repositories</text><text fill="#000000" font-family="sans-serif" font-size="14" lengthAdjust="spacing" textLength="83" x="638.5" y="72.1074">:Repositories</text><rect fill="#E3E3E3" height="51.2422" rx="2.5" ry="2.5" style="stroke:#181818;stroke-width:0.5;" width="97" x="631.5" y="727.7813"/><text fill="#000000" font-family="sans-serif" font-size="14" lengthAdjust="spacing" textLength="74" x="643" y="749.8887">repositories</text><text fill="#000000" font-family="sans-serif" font-size="14" lengthAdjust="spacing" textLength="83" x="638.5" y="768.5098">:Repositories</text><rect fill="#E3E3E3" height="51.2422" rx="2.5" ry="2.5" style="stroke:#181818;stroke-width:0.5;" width="111" x="738.5" y="31.3789"/><text fill="#000000" font-family="sans-serif" font-size="14" lengthAdjust="spacing" textLength="97" x="745.5" y="53.4863">SkillRepository:</text><text fill="#000000" font-family="sans-serif" font-size="14" lengthAdjust="spacing" textLength="93" x="747.5" y="72.1074">SkillRepository</text><rect fill="#E3E3E3" height="51.2422" rx="2.5" ry="2.5" style="stroke:#181818;stroke-width:0.5;" width="111" x="738.5" y="727.7813"/><text fill="#000000" font-family="sans-serif" font-size="14" lengthAdjust="spacing" textLength="97" x="745.5" y="749.8887">SkillRepository:</text><text fill="#000000" font-family="sans-serif" font-size="14" lengthAdjust="spacing" textLength="93" x="747.5" y="768.5098">SkillRepository</text><rect fill="#FFFFFF" height="626.1602" style="stroke:#181818;stroke-width:1.0;" width="10" x="60" y="93.6211"/><rect fill="#FFFFFF" height="373.4922" style="stroke:#181818;stroke-width:1.0;" width="10" x="300" y="116.9121"/><rect fill="#FFFFFF" height="189.0859" style="stroke:#181818;stroke-width:1.0;" width="10" x="300" y="521.6953"/><rect fill="#FFFFFF" height="267.2891" style="stroke:#181818;stroke-width:1.0;" width="10" x="453" y="191.8242"/><rect fill="#FFFFFF" height="31.291" style="stroke:#181818;stroke-width:1.0;" width="10" x="568" y="271.3672"/><rect fill="#FFFFFF" height="31.291" style="stroke:#181818;stroke-width:1.0;" width="10" x="675" y="333.9492"/><rect fill="#FFFFFF" height="31.291" style="stroke:#181818;stroke-width:1.0;" width="10" x="789" y="396.5313"/><rect fill="#FFFFFF" height="30" style="stroke:#181818;stroke-width:1.0;" width="10" x="789" y="601.2383"/><polygon fill="#181818" points="288,112.9121,298,116.9121,288,120.9121,292,116.9121" style="stroke:#181818;stroke-width:1.0;"/><line style="stroke:#181818;stroke-width:1.0;" x1="70" x2="294" y1="116.9121" y2="116.9121"/><text fill="#000000" font-family="sans-serif" font-size="13" font-weight="bold" lengthAdjust="spacing" textLength="7" x="77" y="111.6494">1</text><text fill="#000000" font-family="sans-serif" font-size="13" lengthAdjust="spacing" textLength="155" x="88" y="111.6494">asks to register a new skill</text><polygon fill="#181818" points="393.5,144.2031,403.5,148.2031,393.5,152.2031,397.5,148.2031" style="stroke:#181818;stroke-width:1.0;"/><line style="stroke:#181818;stroke-width:1.0;" x1="310" x2="399.5" y1="148.2031" y2="148.2031"/><text fill="#000000" font-family="sans-serif" font-size="13" font-weight="bold" lengthAdjust="spacing" textLength="7" x="317" y="142.9404">2</text><text fill="#000000" font-family="sans-serif" font-size="13" lengthAdjust="spacing" textLength="36" x="328" y="142.9404">create</text><rect fill="#E3E3E3" height="32.6211" rx="2.5" ry="2.5" style="stroke:#181818;stroke-width:0.5;" width="105" x="405.5" y="124.9121"/><text fill="#000000" font-family="sans-serif" font-size="14" lengthAdjust="spacing" textLength="91" x="412.5" y="147.0195">:SkillController</text><polygon fill="#181818" points="441,187.8242,451,191.8242,441,195.8242,445,191.8242" style="stroke:#181818;stroke-width:1.0;"/><line style="stroke:#181818;stroke-width:1.0;" x1="310" x2="447" y1="191.8242" y2="191.8242"/><text fill="#000000" font-family="sans-serif" font-size="13" font-weight="bold" lengthAdjust="spacing" textLength="7" x="317" y="186.5615">3</text><text fill="#000000" font-family="sans-serif" font-size="13" lengthAdjust="spacing" textLength="113" x="328" y="186.5615">getSkillRepository()</text><rect fill="none" height="43.252" style="stroke:#000000;stroke-width:1.5;" width="578" x="274.5" y="199.8242"/><path d="M274.5,199.8242 L336.5,199.8242 L336.5,208.8242 L326.5,218.8242 L274.5,218.8242 L274.5,199.8242 " fill="#EEEEEE" style="stroke:#000000;stroke-width:2.0;"/><text fill="#000000" font-family="sans-serif" font-size="13" font-weight="bold" lengthAdjust="spacing" textLength="17" x="287.5" y="215.8525">ref</text><text fill="#000000" font-family="sans-serif" font-size="12" lengthAdjust="spacing" textLength="102" x="512.5" y="235.7734">get SkillRepository</text><polygon fill="#181818" points="556,267.3672,566,271.3672,556,275.3672,560,271.3672" style="stroke:#181818;stroke-width:1.0;"/><line style="stroke:#181818;stroke-width:1.0;" x1="463" x2="562" y1="271.3672" y2="271.3672"/><text fill="#000000" font-family="sans-serif" font-size="13" font-weight="bold" lengthAdjust="spacing" textLength="7" x="470" y="266.1045">4</text><text fill="#000000" font-family="sans-serif" font-size="13" lengthAdjust="spacing" textLength="75" x="481" y="266.1045">getInstance()</text><polygon fill="#181818" points="474,298.6582,464,302.6582,474,306.6582,470,302.6582" style="stroke:#181818;stroke-width:1.0;"/><line style="stroke:#181818;stroke-width:1.0;" x1="468" x2="572" y1="302.6582" y2="302.6582"/><text fill="#000000" font-family="sans-serif" font-size="13" font-weight="bold" lengthAdjust="spacing" textLength="7" x="480" y="297.3955">5</text><text fill="#000000" font-family="sans-serif" font-size="13" lengthAdjust="spacing" textLength="67" x="491" y="297.3955">repositories</text><polygon fill="#181818" points="663,329.9492,673,333.9492,663,337.9492,667,333.9492" style="stroke:#181818;stroke-width:1.0;"/><line style="stroke:#181818;stroke-width:1.0;" x1="463" x2="669" y1="333.9492" y2="333.9492"/><text fill="#000000" font-family="sans-serif" font-size="13" font-weight="bold" lengthAdjust="spacing" textLength="7" x="470" y="328.6865">6</text><text fill="#000000" font-family="sans-serif" font-size="13" lengthAdjust="spacing" textLength="113" x="481" y="328.6865">getSkillRepository()</text><polygon fill="#181818" points="474,361.2402,464,365.2402,474,369.2402,470,365.2402" style="stroke:#181818;stroke-width:1.0;"/><line style="stroke:#181818;stroke-width:1.0;" x1="468" x2="679" y1="365.2402" y2="365.2402"/><text fill="#000000" font-family="sans-serif" font-size="13" font-weight="bold" lengthAdjust="spacing" textLength="7" x="480" y="359.9775">7</text><text fill="#000000" font-family="sans-serif" font-size="13" lengthAdjust="spacing" textLength="87" x="491" y="359.9775">SkillRepository</text><polygon fill="#181818" points="777,392.5313,787,396.5313,777,400.5313,781,396.5313" style="stroke:#181818;stroke-width:1.0;"/><line style="stroke:#181818;stroke-width:1.0;" x1="463" x2="783" y1="396.5313" y2="396.5313"/><text fill="#000000" font-family="sans-serif" font-size="13" font-weight="bold" lengthAdjust="spacing" textLength="7" x="470" y="391.2686">8</text><text fill="#000000" font-family="sans-serif" font-size="13" lengthAdjust="spacing" textLength="58" x="481" y="391.2686">getSkills()</text><polygon fill="#181818" points="474,423.8223,464,427.8223,474,431.8223,470,427.8223" style="stroke:#181818;stroke-width:1.0;"/><line style="stroke:#181818;stroke-width:1.0;" x1="468" x2="793" y1="427.8223" y2="427.8223"/><text fill="#000000" font-family="sans-serif" font-size="13" font-weight="bold" lengthAdjust="spacing" textLength="7" x="480" y="422.5596">9</text><text fill="#000000" font-family="sans-serif" font-size="13" lengthAdjust="spacing" textLength="23" x="491" y="422.5596">skill</text><polygon fill="#181818" points="321,455.1133,311,459.1133,321,463.1133,317,459.1133" style="stroke:#181818;stroke-width:1.0;"/><line style="stroke:#181818;stroke-width:1.0;" x1="315" x2="457" y1="459.1133" y2="459.1133"/><text fill="#000000" font-family="sans-serif" font-size="13" font-weight="bold" lengthAdjust="spacing" textLength="14" x="327" y="453.8506">10</text><text fill="#000000" font-family="sans-serif" font-size="13" lengthAdjust="spacing" textLength="87" x="345" y="453.8506">SkillRepository</text><polygon fill="#181818" points="81,486.4043,71,490.4043,81,494.4043,77,490.4043" style="stroke:#181818;stroke-width:1.0;"/><line style="stroke:#181818;stroke-width:1.0;stroke-dasharray:2.0,2.0;" x1="75" x2="304" y1="490.4043" y2="490.4043"/><text fill="#000000" font-family="sans-serif" font-size="13" font-weight="bold" lengthAdjust="spacing" textLength="14" x="87" y="485.1416">11</text><text fill="#000000" font-family="sans-serif" font-size="13" lengthAdjust="spacing" textLength="188" x="105" y="485.1416">requests data (name of the Skill)</text><polygon fill="#181818" points="288,517.6953,298,521.6953,288,525.6953,292,521.6953" style="stroke:#181818;stroke-width:1.0;"/><line style="stroke:#181818;stroke-width:1.0;" x1="70" x2="294" y1="521.6953" y2="521.6953"/><text fill="#000000" font-family="sans-serif" font-size="13" font-weight="bold" lengthAdjust="spacing" textLength="14" x="77" y="516.4326">12</text><text fill="#000000" font-family="sans-serif" font-size="13" lengthAdjust="spacing" textLength="122" x="95" y="516.4326">types requested data</text><rect fill="none" height="43.252" style="stroke:#000000;stroke-width:1.5;" width="239" x="274.5" y="529.6953"/><path d="M274.5,529.6953 L336.5,529.6953 L336.5,538.6953 L326.5,548.6953 L274.5,548.6953 L274.5,529.6953 " fill="#EEEEEE" style="stroke:#000000;stroke-width:2.0;"/><text fill="#000000" font-family="sans-serif" font-size="13" font-weight="bold" lengthAdjust="spacing" textLength="17" x="287.5" y="545.7236">ref</text><text fill="#000000" font-family="sans-serif" font-size="12" lengthAdjust="spacing" textLength="87" x="350.5" y="565.6445">skill registration</text><polygon fill="#181818" points="777,597.2383,787,601.2383,777,605.2383,781,601.2383" style="stroke:#181818;stroke-width:1.0;"/><line style="stroke:#181818;stroke-width:1.0;" x1="310" x2="783" y1="601.2383" y2="601.2383"/><text fill="#000000" font-family="sans-serif" font-size="13" font-weight="bold" lengthAdjust="spacing" textLength="14" x="317" y="595.9756">13</text><text fill="#000000" font-family="sans-serif" font-size="13" lengthAdjust="spacing" textLength="117" x="335" y="595.9756">addSkills (Skill skill)</text><rect fill="none" height="43.252" style="stroke:#000000;stroke-width:1.5;" width="578" x="274.5" y="639.2383"/><path d="M274.5,639.2383 L336.5,639.2383 L336.5,648.2383 L326.5,658.2383 L274.5,658.2383 L274.5,639.2383 " fill="#EEEEEE" style="stroke:#000000;stroke-width:2.0;"/><text fill="#000000" font-family="sans-serif" font-size="13" font-weight="bold" lengthAdjust="spacing" textLength="17" x="287.5" y="655.2666">ref</text><text fill="#000000" font-family="sans-serif" font-size="12" lengthAdjust="spacing" textLength="119" x="504" y="675.1875">add to SkillRepository</text><polygon fill="#181818" points="81,706.7813,71,710.7813,81,714.7813,77,710.7813" style="stroke:#181818;stroke-width:1.0;"/><line style="stroke:#181818;stroke-width:1.0;stroke-dasharray:2.0,2.0;" x1="75" x2="304" y1="710.7813" y2="710.7813"/><text fill="#000000" font-family="sans-serif" font-size="13" font-weight="bold" lengthAdjust="spacing" textLength="14" x="87" y="705.5186">14</text><text fill="#000000" font-family="sans-serif" font-size="13" lengthAdjust="spacing" textLength="158" x="105" y="705.5186">displays operation success</text><!--SRC=[xLLBSzem4BxhL-paKiWqcK0U1nywJKbc2eL9XaTwoKMn5z1WIwuaaz9VtvLusDWcoQMdeeiz-_ZqxKjh5aAcNFC44YLLEDSgGR0wGsPscfI72px3aLt521f3o-KiBXgOEO_Kgv0pcFBO86CyiqfcoGjgnZxDHOGmLSg-gD-CXrPfE7dGCox57sw5al1zE3W1RjoN4Q0LeKYvj70IZ1OYZYTThvrqwvGT9QrMSOpQ6tN6mtx9R8YfCe9k5MYypKwm6WaN257TTz45ZsTP1NZituxtFJoL73TubYM9zol967FP44jkqOVEm1twWxCl52q4vBCmO1NbV2QCHGqS9Bw2SJWRynq2fMSjsHm281YNZzDJWWerajK12zBFq9ReDPhbAtnolKZZ5DII24swdojXRV49ibw7CYA0VRgU1j6fASwQNLSQwhiGgxJgwhc7NOUPHrwiziOlme-3RucxflXW7dt_x85uvvnIRTOAfAe0MnObpm8XGppsQLJQiGXO1ih95RklmEbG5nJP-QP-BxYyoro3afUR25UcNnaQQo3YbaD3Sdgdr1JiV7DrimAqcuZYIDbLYcOBXf57gqvIjSbpLdHy2ZPJgVqRThYnrrDMVY20Hz6wBD3mtpLcithpeRmIW7iQtXgmjylzNW5hQX09ayPyPK2bk8uRJ1Q6Q4nzyhyIaIoXPZ7_VCiSzyfnhnptod6l7FVA_xHN7cDw9YU3Fb1GnhcrpjiNxQlpgyQ8MxXDDLpSGEiwkBmCsXVmytuq1gTliiQWEmQZCXsYkzrgyPAvUvkinvSSXfcq8i407bAKlRiVMm7SowNGIYOeBUiz3NA3cwkpRuBU9TGklqy3TeTJdiMMF48LqOW7q4bRxUiswzDUosZH1P1Qrb44xEhsEFuB]--></g></svg>