<?xml version="1.0" encoding="us-ascii" standalone="no"?><svg xmlns="http://www.w3.org/2000/svg" xmlns:xlink="http://www.w3.org/1999/xlink" contentStyleType="text/css" height="486px" preserveAspectRatio="none" style="width:1316px;height:486px;background:#FFFFFF;" version="1.1" viewBox="0 0 1316 486" width="1316px" zoomAndPan="magnify"><defs/><g><!--class Skill--><g id="elem_Skill"><rect codeLine="11" fill="#F1F1F1" height="122.4844" id="Skill" rx="2.5" ry="2.5" style="stroke:#181818;stroke-width:0.5;" width="201" x="767" y="357"/><ellipse cx="850.75" cy="373" fill="#ADD1B2" rx="11" ry="11" style="stroke:#181818;stroke-width:1.0;"/><path d="M853.5156,368.875 Q853.6719,368.6563 853.8594,368.5469 Q854.0469,368.4375 854.2656,368.4375 Q854.6406,368.4375 854.875,368.7031 Q855.1094,368.9531 855.1094,369.5625 L855.1094,371.0156 Q855.1094,371.625 854.875,371.8906 Q854.6406,372.1563 854.2656,372.1563 Q853.9219,372.1563 853.7188,371.9531 Q853.5156,371.7656 853.4063,371.25 Q853.3594,370.8906 853.1719,370.7031 Q852.8438,370.3281 852.2344,370.1094 Q851.625,369.8906 851,369.8906 Q850.2344,369.8906 849.5938,370.2188 Q848.9688,370.5469 848.4688,371.2969 Q847.9844,372.0469 847.9844,373.0781 L847.9844,374.1719 Q847.9844,375.4063 848.875,376.2344 Q849.7656,377.0469 851.3594,377.0469 Q852.2969,377.0469 852.9531,376.7969 Q853.3438,376.6406 853.7656,376.2031 Q854.0313,375.9375 854.1719,375.8594 Q854.3281,375.7813 854.5313,375.7813 Q854.8594,375.7813 855.1094,376.0469 Q855.375,376.2969 855.375,376.6406 Q855.375,376.9844 855.0313,377.3906 Q854.5313,377.9688 853.7344,378.2969 Q852.6563,378.75 851.3594,378.75 Q849.8438,378.75 848.6406,378.125 Q847.6563,377.625 846.9688,376.5625 Q846.2813,375.4844 846.2813,374.2031 L846.2813,373.0469 Q846.2813,371.7188 846.8906,370.5781 Q847.5156,369.4219 848.6094,368.8125 Q849.7031,368.1875 850.9375,368.1875 Q851.6719,368.1875 852.3125,368.3594 Q852.9688,368.5156 853.5156,368.875 Z " fill="#000000"/><text fill="#000000" font-family="sans-serif" font-size="14" lengthAdjust="spacing" textLength="25" x="871.25" y="378.7969">Skill</text><line style="stroke:#181818;stroke-width:0.5;" x1="768" x2="967" y1="389" y2="389"/><text fill="#000000" font-family="sans-serif" font-size="14" lengthAdjust="spacing" textLength="81" x="773" y="408.1074">-String name</text><line style="stroke:#181818;stroke-width:0.5;" x1="768" x2="967" y1="415.6211" y2="415.6211"/><text fill="#000000" font-family="sans-serif" font-size="14" lengthAdjust="spacing" textLength="154" x="773" y="434.7285">+Skill(skill_name: String)</text><text fill="#000000" font-family="sans-serif" font-size="14" lengthAdjust="spacing" textLength="189" x="773" y="453.3496">+getName:(skill_name: String)</text><text fill="#000000" font-family="sans-serif" font-size="14" lengthAdjust="spacing" textLength="112" x="773" y="471.9707">+toString(): String</text></g><!--class SkillsRepository--><g id="elem_SkillsRepository"><rect codeLine="19" fill="#F1F1F1" height="159.7266" id="SkillsRepository" rx="2.5" ry="2.5" style="stroke:#181818;stroke-width:0.5;" width="211" x="1098" y="62.5"/><ellipse cx="1149.25" cy="78.5" fill="#ADD1B2" rx="11" ry="11" style="stroke:#181818;stroke-width:1.0;"/><path d="M1152.0156,74.375 Q1152.1719,74.1563 1152.3594,74.0469 Q1152.5469,73.9375 1152.7656,73.9375 Q1153.1406,73.9375 1153.375,74.2031 Q1153.6094,74.4531 1153.6094,75.0625 L1153.6094,76.5156 Q1153.6094,77.125 1153.375,77.3906 Q1153.1406,77.6563 1152.7656,77.6563 Q1152.4219,77.6563 1152.2188,77.4531 Q1152.0156,77.2656 1151.9063,76.75 Q1151.8594,76.3906 1151.6719,76.2031 Q1151.3438,75.8281 1150.7344,75.6094 Q1150.125,75.3906 1149.5,75.3906 Q1148.7344,75.3906 1148.0938,75.7188 Q1147.4688,76.0469 1146.9688,76.7969 Q1146.4844,77.5469 1146.4844,78.5781 L1146.4844,79.6719 Q1146.4844,80.9063 1147.375,81.7344 Q1148.2656,82.5469 1149.8594,82.5469 Q1150.7969,82.5469 1151.4531,82.2969 Q1151.8438,82.1406 1152.2656,81.7031 Q1152.5313,81.4375 1152.6719,81.3594 Q1152.8281,81.2813 1153.0313,81.2813 Q1153.3594,81.2813 1153.6094,81.5469 Q1153.875,81.7969 1153.875,82.1406 Q1153.875,82.4844 1153.5313,82.8906 Q1153.0313,83.4688 1152.2344,83.7969 Q1151.1563,84.25 1149.8594,84.25 Q1148.3438,84.25 1147.1406,83.625 Q1146.1563,83.125 1145.4688,82.0625 Q1144.7813,80.9844 1144.7813,79.7031 L1144.7813,78.5469 Q1144.7813,77.2188 1145.3906,76.0781 Q1146.0156,74.9219 1147.1094,74.3125 Q1148.2031,73.6875 1149.4375,73.6875 Q1150.1719,73.6875 1150.8125,73.8594 Q1151.4688,74.0156 1152.0156,74.375 Z " fill="#000000"/><text fill="#000000" font-family="sans-serif" font-size="14" lengthAdjust="spacing" textLength="100" x="1169.75" y="84.2969">SkillsRepository</text><line style="stroke:#181818;stroke-width:0.5;" x1="1099" x2="1308" y1="94.5" y2="94.5"/><text fill="#000000" font-family="sans-serif" font-size="14" lengthAdjust="spacing" textLength="166" x="1104" y="113.6074">-instance: SkillsRepository</text><text fill="#000000" font-family="sans-serif" font-size="14" lengthAdjust="spacing" textLength="110" x="1104" y="132.2285">-skills: List&lt;Jobs&gt;</text><line style="stroke:#181818;stroke-width:0.5;" x1="1099" x2="1308" y1="139.7422" y2="139.7422"/><text fill="#000000" font-family="sans-serif" font-size="14" lengthAdjust="spacing" textLength="199" x="1104" y="158.8496">+getInstance(): SkillsRepository</text><text fill="#000000" font-family="sans-serif" font-size="14" lengthAdjust="spacing" textLength="118" x="1104" y="177.4707">+SkillsRepository()</text><text fill="#000000" font-family="sans-serif" font-size="14" lengthAdjust="spacing" textLength="157" x="1104" y="196.0918">+addSkill(skill: Skill): void</text><text fill="#000000" font-family="sans-serif" font-size="14" lengthAdjust="spacing" textLength="139" x="1104" y="214.7129">+getSkills(description)</text></g><!--class Repositories--><g id="elem_Repositories"><rect codeLine="31" fill="#F1F1F1" height="103.8633" id="Repositories" rx="2.5" ry="2.5" style="stroke:#181818;stroke-width:0.5;" width="194" x="789.5" y="90.5"/><ellipse cx="842.75" cy="106.5" fill="#ADD1B2" rx="11" ry="11" style="stroke:#181818;stroke-width:1.0;"/><path d="M845.5156,102.375 Q845.6719,102.1563 845.8594,102.0469 Q846.0469,101.9375 846.2656,101.9375 Q846.6406,101.9375 846.875,102.2031 Q847.1094,102.4531 847.1094,103.0625 L847.1094,104.5156 Q847.1094,105.125 846.875,105.3906 Q846.6406,105.6563 846.2656,105.6563 Q845.9219,105.6563 845.7188,105.4531 Q845.5156,105.2656 845.4063,104.75 Q845.3594,104.3906 845.1719,104.2031 Q844.8438,103.8281 844.2344,103.6094 Q843.625,103.3906 843,103.3906 Q842.2344,103.3906 841.5938,103.7188 Q840.9688,104.0469 840.4688,104.7969 Q839.9844,105.5469 839.9844,106.5781 L839.9844,107.6719 Q839.9844,108.9063 840.875,109.7344 Q841.7656,110.5469 843.3594,110.5469 Q844.2969,110.5469 844.9531,110.2969 Q845.3438,110.1406 845.7656,109.7031 Q846.0313,109.4375 846.1719,109.3594 Q846.3281,109.2813 846.5313,109.2813 Q846.8594,109.2813 847.1094,109.5469 Q847.375,109.7969 847.375,110.1406 Q847.375,110.4844 847.0313,110.8906 Q846.5313,111.4688 845.7344,111.7969 Q844.6563,112.25 843.3594,112.25 Q841.8438,112.25 840.6406,111.625 Q839.6563,111.125 838.9688,110.0625 Q838.2813,108.9844 838.2813,107.7031 L838.2813,106.5469 Q838.2813,105.2188 838.8906,104.0781 Q839.5156,102.9219 840.6094,102.3125 Q841.7031,101.6875 842.9375,101.6875 Q843.6719,101.6875 844.3125,101.8594 Q844.9688,102.0156 845.5156,102.375 Z " fill="#000000"/><text fill="#000000" font-family="sans-serif" font-size="14" lengthAdjust="spacing" textLength="79" x="863.25" y="112.2969">Repositories</text><line style="stroke:#181818;stroke-width:0.5;" x1="790.5" x2="982.5" y1="122.5" y2="122.5"/><line style="stroke:#181818;stroke-width:0.5;" x1="790.5" x2="982.5" y1="130.5" y2="130.5"/><text fill="#000000" font-family="sans-serif" font-size="14" lengthAdjust="spacing" textLength="94" x="795.5" y="149.6074">-Repositories()</text><text fill="#000000" font-family="sans-serif" font-size="14" lengthAdjust="spacing" textLength="182" x="795.5" y="168.2285">+getInstance() : Repositories</text><text fill="#000000" font-family="sans-serif" font-size="14" lengthAdjust="spacing" textLength="138" x="795.5" y="186.8496">+getSkillsRepository()</text></g><!--class SkillController--><g id="elem_SkillController"><rect codeLine="37" fill="#F1F1F1" height="196.9688" id="SkillController" rx="2.5" ry="2.5" style="stroke:#181818;stroke-width:0.5;" width="421" x="265" y="44"/><ellipse cx="427.75" cy="60" fill="#ADD1B2" rx="11" ry="11" style="stroke:#181818;stroke-width:1.0;"/><path d="M430.5156,55.875 Q430.6719,55.6563 430.8594,55.5469 Q431.0469,55.4375 431.2656,55.4375 Q431.6406,55.4375 431.875,55.7031 Q432.1094,55.9531 432.1094,56.5625 L432.1094,58.0156 Q432.1094,58.625 431.875,58.8906 Q431.6406,59.1563 431.2656,59.1563 Q430.9219,59.1563 430.7188,58.9531 Q430.5156,58.7656 430.4063,58.25 Q430.3594,57.8906 430.1719,57.7031 Q429.8438,57.3281 429.2344,57.1094 Q428.625,56.8906 428,56.8906 Q427.2344,56.8906 426.5938,57.2188 Q425.9688,57.5469 425.4688,58.2969 Q424.9844,59.0469 424.9844,60.0781 L424.9844,61.1719 Q424.9844,62.4063 425.875,63.2344 Q426.7656,64.0469 428.3594,64.0469 Q429.2969,64.0469 429.9531,63.7969 Q430.3438,63.6406 430.7656,63.2031 Q431.0313,62.9375 431.1719,62.8594 Q431.3281,62.7813 431.5313,62.7813 Q431.8594,62.7813 432.1094,63.0469 Q432.375,63.2969 432.375,63.6406 Q432.375,63.9844 432.0313,64.3906 Q431.5313,64.9688 430.7344,65.2969 Q429.6563,65.75 428.3594,65.75 Q426.8438,65.75 425.6406,65.125 Q424.6563,64.625 423.9688,63.5625 Q423.2813,62.4844 423.2813,61.2031 L423.2813,60.0469 Q423.2813,58.7188 423.8906,57.5781 Q424.5156,56.4219 425.6094,55.8125 Q426.7031,55.1875 427.9375,55.1875 Q428.6719,55.1875 429.3125,55.3594 Q429.9688,55.5156 430.5156,55.875 Z " fill="#000000"/><text fill="#000000" font-family="sans-serif" font-size="14" lengthAdjust="spacing" textLength="87" x="448.25" y="65.7969">SkillController</text><line style="stroke:#181818;stroke-width:0.5;" x1="266" x2="685" y1="76" y2="76"/><text fill="#000000" font-family="sans-serif" font-size="14" lengthAdjust="spacing" textLength="211" x="271" y="95.1074">-skillsRepository: SkillsRepository</text><text fill="#000000" font-family="sans-serif" font-size="14" lengthAdjust="spacing" textLength="328" x="271" y="113.7285">-authenticationRepository: AuthenticationRepository</text><line style="stroke:#181818;stroke-width:0.5;" x1="266" x2="685" y1="121.2422" y2="121.2422"/><text fill="#000000" font-family="sans-serif" font-size="14" lengthAdjust="spacing" textLength="109" x="271" y="140.3496">+SkillController ()</text><text fill="#000000" font-family="sans-serif" font-size="14" lengthAdjust="spacing" textLength="409" x="271" y="158.9707">+RegisterSkillController(organizationRepository, skillsRepository)</text><text fill="#000000" font-family="sans-serif" font-size="14" lengthAdjust="spacing" textLength="131" x="271" y="177.5918">+getSkillRepository()</text><text fill="#000000" font-family="sans-serif" font-size="14" lengthAdjust="spacing" textLength="196" x="271" y="196.2129">+getAuthenticationRepository()</text><text fill="#000000" font-family="sans-serif" font-size="14" lengthAdjust="spacing" textLength="227" x="271" y="214.834">+createSkill(skill_name: String): Skill</text><text fill="#000000" font-family="sans-serif" font-size="14" lengthAdjust="spacing" textLength="141" x="271" y="233.4551">+getSkills(): List&lt;Skill&gt;</text></g><g id="elem_GMN6"><path d="M1134.5,395.5 L1134.5,440.082 A0,0 0 0 0 1134.5,440.082 L1272.5,440.082 A0,0 0 0 0 1272.5,440.082 L1272.5,405.5 L1262.5,395.5 L1207.5,395.5 L1203.5,222.61 L1199.5,395.5 L1134.5,395.5 A0,0 0 0 0 1134.5,395.5 " fill="#FEFFDD" style="stroke:#181818;stroke-width:0.5;"/><path d="M1262.5,395.5 L1262.5,405.5 L1272.5,405.5 L1262.5,395.5 " fill="#FEFFDD" style="stroke:#181818;stroke-width:0.5;"/><text fill="#000000" font-family="sans-serif" font-size="13" lengthAdjust="spacing" textLength="117" x="1140.5" y="414.5283">- used for accessing</text><text fill="#000000" font-family="sans-serif" font-size="13" lengthAdjust="spacing" textLength="52" x="1140.5" y="431.8193">the skills</text></g><!--class SkillUI--><g id="elem_SkillUI"><rect codeLine="54" fill="#F1F1F1" height="271.4531" id="SkillUI" rx="2.5" ry="2.5" style="stroke:#181818;stroke-width:0.5;" width="223" x="7" y="7"/><ellipse cx="95.75" cy="23" fill="#ADD1B2" rx="11" ry="11" style="stroke:#181818;stroke-width:1.0;"/><path d="M98.5156,18.875 Q98.6719,18.6563 98.8594,18.5469 Q99.0469,18.4375 99.2656,18.4375 Q99.6406,18.4375 99.875,18.7031 Q100.1094,18.9531 100.1094,19.5625 L100.1094,21.0156 Q100.1094,21.625 99.875,21.8906 Q99.6406,22.1563 99.2656,22.1563 Q98.9219,22.1563 98.7188,21.9531 Q98.5156,21.7656 98.4063,21.25 Q98.3594,20.8906 98.1719,20.7031 Q97.8438,20.3281 97.2344,20.1094 Q96.625,19.8906 96,19.8906 Q95.2344,19.8906 94.5938,20.2188 Q93.9688,20.5469 93.4688,21.2969 Q92.9844,22.0469 92.9844,23.0781 L92.9844,24.1719 Q92.9844,25.4063 93.875,26.2344 Q94.7656,27.0469 96.3594,27.0469 Q97.2969,27.0469 97.9531,26.7969 Q98.3438,26.6406 98.7656,26.2031 Q99.0313,25.9375 99.1719,25.8594 Q99.3281,25.7813 99.5313,25.7813 Q99.8594,25.7813 100.1094,26.0469 Q100.375,26.2969 100.375,26.6406 Q100.375,26.9844 100.0313,27.3906 Q99.5313,27.9688 98.7344,28.2969 Q97.6563,28.75 96.3594,28.75 Q94.8438,28.75 93.6406,28.125 Q92.6563,27.625 91.9688,26.5625 Q91.2813,25.4844 91.2813,24.2031 L91.2813,23.0469 Q91.2813,21.7188 91.8906,20.5781 Q92.5156,19.4219 93.6094,18.8125 Q94.7031,18.1875 95.9375,18.1875 Q96.6719,18.1875 97.3125,18.3594 Q97.9688,18.5156 98.5156,18.875 Z " fill="#000000"/><text fill="#000000" font-family="sans-serif" font-size="14" lengthAdjust="spacing" textLength="37" x="116.25" y="28.7969">SkillUI</text><line style="stroke:#181818;stroke-width:0.5;" x1="8" x2="229" y1="39" y2="39"/><text fill="#000000" font-family="sans-serif" font-size="14" lengthAdjust="spacing" textLength="159" x="13" y="58.1074">-controller: SkillController</text><text fill="#000000" font-family="sans-serif" font-size="14" lengthAdjust="spacing" textLength="109" x="13" y="76.7285">-skillName: String</text><text fill="#000000" font-family="sans-serif" font-size="14" lengthAdjust="spacing" textLength="211" x="13" y="95.3496">-skillsRepository: SkillsRepository</text><text fill="#000000" font-family="sans-serif" font-size="14" lengthAdjust="spacing" textLength="61" x="13" y="113.9707">-skill: Skill</text><line style="stroke:#181818;stroke-width:0.5;" x1="8" x2="229" y1="121.4844" y2="121.4844"/><text fill="#000000" font-family="sans-serif" font-size="14" lengthAdjust="spacing" textLength="55" x="13" y="140.5918">+SkillUI()</text><text fill="#000000" font-family="sans-serif" font-size="14" lengthAdjust="spacing" textLength="192" x="13" y="159.2129">-getController(): SkillController</text><text fill="#000000" font-family="sans-serif" font-size="14" lengthAdjust="spacing" textLength="73" x="13" y="177.834">+run(): void</text><text fill="#000000" font-family="sans-serif" font-size="14" lengthAdjust="spacing" textLength="109" x="13" y="196.4551">-printSkills(): void</text><text fill="#000000" font-family="sans-serif" font-size="14" lengthAdjust="spacing" textLength="204" x="13" y="215.0762">-validateSkill(skill: Skill): boolean</text><text fill="#000000" font-family="sans-serif" font-size="14" lengthAdjust="spacing" textLength="120" x="13" y="233.6973">-submitData(): void</text><text fill="#000000" font-family="sans-serif" font-size="14" lengthAdjust="spacing" textLength="127" x="13" y="252.3184">-requestData(): void</text><text fill="#000000" font-family="sans-serif" font-size="14" lengthAdjust="spacing" textLength="169" x="13" y="270.9395">-requestSkillName(): String</text></g><!--link Repositories to Repositories--><g id="link_Repositories_Repositories"><path codeLine="70" d="M983.78,111.02 C1003.98,114.34 1018.5,124.83 1018.5,142.5 C1018.5,160.17 1009.9006,169.6869 989.7006,173.0069 " fill="none" id="Repositories-to-Repositories" style="stroke:#181818;stroke-width:1.0;"/><polygon fill="#181818" points="983.78,173.98,993.3096,176.4674,988.7138,173.1691,992.0121,168.5733,983.78,173.98" style="stroke:#181818;stroke-width:1.0;"/><text fill="#000000" font-family="sans-serif" font-size="13" lengthAdjust="spacing" textLength="49" x="1024.5" y="148.0283">instance</text></g><!--link SkillUI to SkillController--><g id="link_SkillUI_SkillController"><path codeLine="72" d="M230.06,142.5 C234.74,142.5 237.5,142.5 237.5,142.5 C237.5,142.5 242.98,142.5 258.8,142.5 " fill="none" id="SkillUI-to-SkillController" style="stroke:#181818;stroke-width:1.0;stroke-dasharray:7.0,7.0;"/><polygon fill="#181818" points="264.8,142.5,255.8,138.5,259.8,142.5,255.8,146.5,264.8,142.5" style="stroke:#181818;stroke-width:1.0;"/></g><!--link SkillController to Repositories--><g id="link_SkillController_Repositories"><path codeLine="74" d="M686.12,142.5 C722.22,142.5 752.12,142.5 783.34,142.5 " fill="none" id="SkillController-to-Repositories" style="stroke:#181818;stroke-width:1.0;stroke-dasharray:7.0,7.0;"/><polygon fill="#181818" points="789.34,142.5,780.34,138.5,784.34,142.5,780.34,146.5,789.34,142.5" style="stroke:#181818;stroke-width:1.0;"/><text fill="#000000" font-family="sans-serif" font-size="13" lengthAdjust="spacing" textLength="67" x="704.25" y="135.5283">repositories</text></g><!--link Repositories to SkillsRepository--><g id="link_Repositories_SkillsRepository"><path codeLine="76" d="M983.52,142.5 C988.9,142.5 992.17,142.5 992.17,142.5 C992.17,142.5 1097.83,142.5 1097.83,142.5 C1097.83,142.5 1091.86,142.5 1091.91,142.5 " fill="none" id="Repositories-to-SkillsRepository" style="stroke:#181818;stroke-width:1.0;"/><polygon fill="#181818" points="1097.91,142.5,1088.91,138.5,1092.91,142.5,1088.91,146.5,1097.91,142.5" style="stroke:#181818;stroke-width:1.0;"/><text fill="#000000" font-family="sans-serif" font-size="13" lengthAdjust="spacing" textLength="7" x="1082.8987" y="138.9248">1</text></g><!--link SkillsRepository to Skill--><g id="link_SkillsRepository_Skill"><path codeLine="80" d="M1131.24,222.52 C1104.47,251.79 1080.5,278 1080.5,278 C1080.5,278 1022.2744,315.9905 964.7144,353.5605 " fill="none" id="SkillsRepository-to-Skill" style="stroke:#181818;stroke-width:1.0;"/><polygon fill="#181818" points="959.69,356.84,969.413,355.2704,963.877,354.1071,965.0403,348.5711,959.69,356.84" style="stroke:#181818;stroke-width:1.0;"/><text fill="#000000" font-family="sans-serif" font-size="13" lengthAdjust="spacing" textLength="30" x="1035.5" y="323.0283">skills</text><text fill="#000000" font-family="sans-serif" font-size="13" lengthAdjust="spacing" textLength="7" x="1117.7294" y="244.1798">1</text><text fill="#000000" font-family="sans-serif" font-size="13" lengthAdjust="spacing" textLength="5" x="965.0604" y="345.8027">*</text></g><!--link SkillController to Skill--><g id="link_SkillController_Skill"><path codeLine="81" d="M615.36,241.08 C670.77,279.74 727.7997,319.5263 776.4197,353.4563 " fill="none" id="SkillController-to-Skill" style="stroke:#181818;stroke-width:1.0;"/><polygon fill="#181818" points="781.34,356.89,776.2486,348.4592,777.2397,354.0286,771.6704,355.0197,781.34,356.89" style="stroke:#181818;stroke-width:1.0;"/><text fill="#000000" font-family="sans-serif" font-size="13" lengthAdjust="spacing" textLength="43" x="731.5" y="323.0283">register</text><text fill="#000000" font-family="sans-serif" font-size="13" lengthAdjust="spacing" textLength="7" x="618.3739" y="262.9838">1</text><text fill="#000000" font-family="sans-serif" font-size="13" lengthAdjust="spacing" textLength="20" x="750.2215" y="345.8585">1..*</text></g><!--SRC=[ZLJ1Rjim3BthAuHUOYzBi5w38K2nNJ8CFTJeUL1anX4YYvv4TqY7_ViaHt5aEnwMGm2JZ-JZ8wc5EodJ22jgNgD1URHO0oVR0hjv6Y5FeeA2pXgu1Kd2L3e5kACeyPSo5Jy8xLAFLWRet01lK9_31rlSSQ8bP4cKrCAv9oAhzYt1Jg8fr3lmJumjD1o84tAhgYFnKWKw2WrZNGmlJafh_fjn_rlnmcVmf8oeWNMcvGMGkV3_8zWt4PH7VmNq7Cp_W11UlhFywc5_1lNT2pJe5A4zUogHYpBEwoP3jX4c0hg2RiE_AqUVl-7URM-KTZ6uAtalV3anPrUweYoJfcEyp_E6ghnLk8Hd9JXfLHCapLbeA_RLvrNWUdbJOvRVOyit0z2ut83jKCClQCYYrc3xScuKCwkaQEa8XfGKeOyqu6d64xTZNBblwWKgFnMm8q26jX96lO-oVPnGpKUTtncJTysnwp7IWY2ONU4eo6IeULogxdCRX3P8mFT8X3N7mvoEhOEI7z1o8IKu5nOzE3p9s203K_AGQp2wrzrrPB9NQZEUwWNGfNbEUaZC_p7fTAFJ4RxkecGhBq8ohlm-ZQLjJPPUnAhnN1BrReuteLKvdC7jelQ86eI9tDfzhUYh837COE5d2sxUKLmb6JulWmDSROS7kUbV5yQk8rXl9xsoyNwl9tbiUgsJeW-F3zD9i9WtVVK2S1K2FiG0dpgkp9X33trShnEqZHV7_W80]--></g></svg>