<?xml version="1.0" encoding="us-ascii" standalone="no"?><svg xmlns="http://www.w3.org/2000/svg" xmlns:xlink="http://www.w3.org/1999/xlink" contentStyleType="text/css" height="907px" preserveAspectRatio="none" style="width:1427px;height:907px;background:#FFFFFF;" version="1.1" viewBox="0 0 1427 907" width="1427px" zoomAndPan="magnify"><defs/><g><!--class TaskAssignedToCollaboratorUI--><g id="elem_TaskAssignedToCollaboratorUI"><rect codeLine="11" fill="#F1F1F1" height="103.8633" id="TaskAssignedToCollaboratorUI" rx="2.5" ry="2.5" style="stroke:#181818;stroke-width:0.5;" width="330" x="7" y="16"/><ellipse cx="69.75" cy="32" fill="#ADD1B2" rx="11" ry="11" style="stroke:#181818;stroke-width:1.0;"/><path d="M72.5156,27.875 Q72.6719,27.6563 72.8594,27.5469 Q73.0469,27.4375 73.2656,27.4375 Q73.6406,27.4375 73.875,27.7031 Q74.1094,27.9531 74.1094,28.5625 L74.1094,30.0156 Q74.1094,30.625 73.875,30.8906 Q73.6406,31.1563 73.2656,31.1563 Q72.9219,31.1563 72.7188,30.9531 Q72.5156,30.7656 72.4063,30.25 Q72.3594,29.8906 72.1719,29.7031 Q71.8438,29.3281 71.2344,29.1094 Q70.625,28.8906 70,28.8906 Q69.2344,28.8906 68.5938,29.2188 Q67.9688,29.5469 67.4688,30.2969 Q66.9844,31.0469 66.9844,32.0781 L66.9844,33.1719 Q66.9844,34.4063 67.875,35.2344 Q68.7656,36.0469 70.3594,36.0469 Q71.2969,36.0469 71.9531,35.7969 Q72.3438,35.6406 72.7656,35.2031 Q73.0313,34.9375 73.1719,34.8594 Q73.3281,34.7813 73.5313,34.7813 Q73.8594,34.7813 74.1094,35.0469 Q74.375,35.2969 74.375,35.6406 Q74.375,35.9844 74.0313,36.3906 Q73.5313,36.9688 72.7344,37.2969 Q71.6563,37.75 70.3594,37.75 Q68.8438,37.75 67.6406,37.125 Q66.6563,36.625 65.9688,35.5625 Q65.2813,34.4844 65.2813,33.2031 L65.2813,32.0469 Q65.2813,30.7188 65.8906,29.5781 Q66.5156,28.4219 67.6094,27.8125 Q68.7031,27.1875 69.9375,27.1875 Q70.6719,27.1875 71.3125,27.3594 Q71.9688,27.5156 72.5156,27.875 Z " fill="#000000"/><text fill="#000000" font-family="sans-serif" font-size="14" lengthAdjust="spacing" textLength="196" x="90.25" y="37.7969">TaskAssignedToCollaboratorUI</text><line style="stroke:#181818;stroke-width:0.5;" x1="8" x2="336" y1="48" y2="48"/><text fill="#000000" font-family="sans-serif" font-size="14" lengthAdjust="spacing" textLength="142" x="13" y="67.1074">-managerName: String</text><text fill="#000000" font-family="sans-serif" font-size="14" lengthAdjust="spacing" textLength="318" x="13" y="85.7285">-controller: TaskAssignedToCollaboratorController</text><line style="stroke:#181818;stroke-width:0.5;" x1="8" x2="336" y1="93.2422" y2="93.2422"/><text fill="#000000" font-family="sans-serif" font-size="14" lengthAdjust="spacing" textLength="96" x="13" y="112.3496">+requestData()</text></g><!--class TaskAssignedToCollaboratorController--><g id="elem_TaskAssignedToCollaboratorController"><rect codeLine="17" fill="#F1F1F1" height="122.4844" id="TaskAssignedToCollaboratorController" rx="2.5" ry="2.5" style="stroke:#181818;stroke-width:0.5;" width="624" x="372" y="7"/><ellipse cx="556.75" cy="23" fill="#ADD1B2" rx="11" ry="11" style="stroke:#181818;stroke-width:1.0;"/><path d="M559.5156,18.875 Q559.6719,18.6563 559.8594,18.5469 Q560.0469,18.4375 560.2656,18.4375 Q560.6406,18.4375 560.875,18.7031 Q561.1094,18.9531 561.1094,19.5625 L561.1094,21.0156 Q561.1094,21.625 560.875,21.8906 Q560.6406,22.1563 560.2656,22.1563 Q559.9219,22.1563 559.7188,21.9531 Q559.5156,21.7656 559.4063,21.25 Q559.3594,20.8906 559.1719,20.7031 Q558.8438,20.3281 558.2344,20.1094 Q557.625,19.8906 557,19.8906 Q556.2344,19.8906 555.5938,20.2188 Q554.9688,20.5469 554.4688,21.2969 Q553.9844,22.0469 553.9844,23.0781 L553.9844,24.1719 Q553.9844,25.4063 554.875,26.2344 Q555.7656,27.0469 557.3594,27.0469 Q558.2969,27.0469 558.9531,26.7969 Q559.3438,26.6406 559.7656,26.2031 Q560.0313,25.9375 560.1719,25.8594 Q560.3281,25.7813 560.5313,25.7813 Q560.8594,25.7813 561.1094,26.0469 Q561.375,26.2969 561.375,26.6406 Q561.375,26.9844 561.0313,27.3906 Q560.5313,27.9688 559.7344,28.2969 Q558.6563,28.75 557.3594,28.75 Q555.8438,28.75 554.6406,28.125 Q553.6563,27.625 552.9688,26.5625 Q552.2813,25.4844 552.2813,24.2031 L552.2813,23.0469 Q552.2813,21.7188 552.8906,20.5781 Q553.5156,19.4219 554.6094,18.8125 Q555.7031,18.1875 556.9375,18.1875 Q557.6719,18.1875 558.3125,18.3594 Q558.9688,18.5156 559.5156,18.875 Z " fill="#000000"/><text fill="#000000" font-family="sans-serif" font-size="14" lengthAdjust="spacing" textLength="246" x="577.25" y="28.7969">TaskAssignedToCollaboratorController</text><line style="stroke:#181818;stroke-width:0.5;" x1="373" x2="995" y1="39" y2="39"/><text fill="#000000" font-family="sans-serif" font-size="14" lengthAdjust="spacing" textLength="246" x="378" y="58.1074">-agendaRepository: AgendaRepository</text><text fill="#000000" font-family="sans-serif" font-size="14" lengthAdjust="spacing" textLength="142" x="378" y="76.7285">-managerName: String</text><line style="stroke:#181818;stroke-width:0.5;" x1="373" x2="995" y1="84.2422" y2="84.2422"/><text fill="#000000" font-family="sans-serif" font-size="14" lengthAdjust="spacing" textLength="401" x="378" y="103.3496">+TaskAssignedToCollaboratorController(managerName: String)</text><text fill="#000000" font-family="sans-serif" font-size="14" lengthAdjust="spacing" textLength="612" x="378" y="121.9707">+getEntriesBetweenDates(startDate: LocalDate, endDate: LocalDate,status: String, name: String)</text></g><!--class Organization--><g id="elem_Organization"><rect codeLine="24" fill="#F1F1F1" height="85.2422" id="Organization" rx="2.5" ry="2.5" style="stroke:#181818;stroke-width:0.5;" width="144" x="927" y="372"/><ellipse cx="956.4" cy="388" fill="#ADD1B2" rx="11" ry="11" style="stroke:#181818;stroke-width:1.0;"/><path d="M959.1656,383.875 Q959.3219,383.6563 959.5094,383.5469 Q959.6969,383.4375 959.9156,383.4375 Q960.2906,383.4375 960.525,383.7031 Q960.7594,383.9531 960.7594,384.5625 L960.7594,386.0156 Q960.7594,386.625 960.525,386.8906 Q960.2906,387.1563 959.9156,387.1563 Q959.5719,387.1563 959.3688,386.9531 Q959.1656,386.7656 959.0563,386.25 Q959.0094,385.8906 958.8219,385.7031 Q958.4938,385.3281 957.8844,385.1094 Q957.275,384.8906 956.65,384.8906 Q955.8844,384.8906 955.2438,385.2188 Q954.6188,385.5469 954.1188,386.2969 Q953.6344,387.0469 953.6344,388.0781 L953.6344,389.1719 Q953.6344,390.4063 954.525,391.2344 Q955.4156,392.0469 957.0094,392.0469 Q957.9469,392.0469 958.6031,391.7969 Q958.9938,391.6406 959.4156,391.2031 Q959.6813,390.9375 959.8219,390.8594 Q959.9781,390.7813 960.1813,390.7813 Q960.5094,390.7813 960.7594,391.0469 Q961.025,391.2969 961.025,391.6406 Q961.025,391.9844 960.6813,392.3906 Q960.1813,392.9688 959.3844,393.2969 Q958.3063,393.75 957.0094,393.75 Q955.4938,393.75 954.2906,393.125 Q953.3063,392.625 952.6188,391.5625 Q951.9313,390.4844 951.9313,389.2031 L951.9313,388.0469 Q951.9313,386.7188 952.5406,385.5781 Q953.1656,384.4219 954.2594,383.8125 Q955.3531,383.1875 956.5875,383.1875 Q957.3219,383.1875 957.9625,383.3594 Q958.6188,383.5156 959.1656,383.875 Z " fill="#000000"/><text fill="#000000" font-family="sans-serif" font-size="14" lengthAdjust="spacing" textLength="80" x="973.6" y="393.7969">Organization</text><line style="stroke:#181818;stroke-width:0.5;" x1="928" x2="1070" y1="404" y2="404"/><text fill="#000000" font-family="sans-serif" font-size="14" lengthAdjust="spacing" textLength="85" x="933" y="423.1074">-name: String</text><text fill="#000000" font-family="sans-serif" font-size="14" lengthAdjust="spacing" textLength="132" x="933" y="441.7285">-agenda: List&lt;Entry&gt;</text><line style="stroke:#181818;stroke-width:0.5;" x1="928" x2="1070" y1="449.2422" y2="449.2422"/></g><!--class OrganizationRepository--><g id="elem_OrganizationRepository"><rect codeLine="29" fill="#F1F1F1" height="66.6211" id="OrganizationRepository" rx="2.5" ry="2.5" style="stroke:#181818;stroke-width:0.5;" width="180" x="909" y="217"/><ellipse cx="924" cy="233" fill="#ADD1B2" rx="11" ry="11" style="stroke:#181818;stroke-width:1.0;"/><path d="M926.7656,228.875 Q926.9219,228.6563 927.1094,228.5469 Q927.2969,228.4375 927.5156,228.4375 Q927.8906,228.4375 928.125,228.7031 Q928.3594,228.9531 928.3594,229.5625 L928.3594,231.0156 Q928.3594,231.625 928.125,231.8906 Q927.8906,232.1563 927.5156,232.1563 Q927.1719,232.1563 926.9688,231.9531 Q926.7656,231.7656 926.6563,231.25 Q926.6094,230.8906 926.4219,230.7031 Q926.0938,230.3281 925.4844,230.1094 Q924.875,229.8906 924.25,229.8906 Q923.4844,229.8906 922.8438,230.2188 Q922.2188,230.5469 921.7188,231.2969 Q921.2344,232.0469 921.2344,233.0781 L921.2344,234.1719 Q921.2344,235.4063 922.125,236.2344 Q923.0156,237.0469 924.6094,237.0469 Q925.5469,237.0469 926.2031,236.7969 Q926.5938,236.6406 927.0156,236.2031 Q927.2813,235.9375 927.4219,235.8594 Q927.5781,235.7813 927.7813,235.7813 Q928.1094,235.7813 928.3594,236.0469 Q928.625,236.2969 928.625,236.6406 Q928.625,236.9844 928.2813,237.3906 Q927.7813,237.9688 926.9844,238.2969 Q925.9063,238.75 924.6094,238.75 Q923.0938,238.75 921.8906,238.125 Q920.9063,237.625 920.2188,236.5625 Q919.5313,235.4844 919.5313,234.2031 L919.5313,233.0469 Q919.5313,231.7188 920.1406,230.5781 Q920.7656,229.4219 921.8594,228.8125 Q922.9531,228.1875 924.1875,228.1875 Q924.9219,228.1875 925.5625,228.3594 Q926.2188,228.5156 926.7656,228.875 Z " fill="#000000"/><text fill="#000000" font-family="sans-serif" font-size="14" lengthAdjust="spacing" textLength="148" x="938" y="238.7969">OrganizationRepository</text><line style="stroke:#181818;stroke-width:0.5;" x1="910" x2="1088" y1="249" y2="249"/><line style="stroke:#181818;stroke-width:0.5;" x1="910" x2="1088" y1="257" y2="257"/><text fill="#000000" font-family="sans-serif" font-size="14" lengthAdjust="spacing" textLength="103" x="915" y="276.1074">+getUserName()</text></g><!--class AgendaRepository--><g id="elem_AgendaRepository"><rect codeLine="33" fill="#F1F1F1" height="85.2422" id="AgendaRepository" rx="2.5" ry="2.5" style="stroke:#181818;stroke-width:0.5;" width="149" x="1124.5" y="208"/><ellipse cx="1139.5" cy="224" fill="#ADD1B2" rx="11" ry="11" style="stroke:#181818;stroke-width:1.0;"/><path d="M1142.2656,219.875 Q1142.4219,219.6563 1142.6094,219.5469 Q1142.7969,219.4375 1143.0156,219.4375 Q1143.3906,219.4375 1143.625,219.7031 Q1143.8594,219.9531 1143.8594,220.5625 L1143.8594,222.0156 Q1143.8594,222.625 1143.625,222.8906 Q1143.3906,223.1563 1143.0156,223.1563 Q1142.6719,223.1563 1142.4688,222.9531 Q1142.2656,222.7656 1142.1563,222.25 Q1142.1094,221.8906 1141.9219,221.7031 Q1141.5938,221.3281 1140.9844,221.1094 Q1140.375,220.8906 1139.75,220.8906 Q1138.9844,220.8906 1138.3438,221.2188 Q1137.7188,221.5469 1137.2188,222.2969 Q1136.7344,223.0469 1136.7344,224.0781 L1136.7344,225.1719 Q1136.7344,226.4063 1137.625,227.2344 Q1138.5156,228.0469 1140.1094,228.0469 Q1141.0469,228.0469 1141.7031,227.7969 Q1142.0938,227.6406 1142.5156,227.2031 Q1142.7813,226.9375 1142.9219,226.8594 Q1143.0781,226.7813 1143.2813,226.7813 Q1143.6094,226.7813 1143.8594,227.0469 Q1144.125,227.2969 1144.125,227.6406 Q1144.125,227.9844 1143.7813,228.3906 Q1143.2813,228.9688 1142.4844,229.2969 Q1141.4063,229.75 1140.1094,229.75 Q1138.5938,229.75 1137.3906,229.125 Q1136.4063,228.625 1135.7188,227.5625 Q1135.0313,226.4844 1135.0313,225.2031 L1135.0313,224.0469 Q1135.0313,222.7188 1135.6406,221.5781 Q1136.2656,220.4219 1137.3594,219.8125 Q1138.4531,219.1875 1139.6875,219.1875 Q1140.4219,219.1875 1141.0625,219.3594 Q1141.7188,219.5156 1142.2656,219.875 Z " fill="#000000"/><text fill="#000000" font-family="sans-serif" font-size="14" lengthAdjust="spacing" textLength="117" x="1153.5" y="229.7969">AgendaRepository</text><line style="stroke:#181818;stroke-width:0.5;" x1="1125.5" x2="1272.5" y1="240" y2="240"/><text fill="#000000" font-family="sans-serif" font-size="14" lengthAdjust="spacing" textLength="136" x="1130.5" y="259.1074">-agenda: List&lt;Entry&gt;;</text><line style="stroke:#181818;stroke-width:0.5;" x1="1125.5" x2="1272.5" y1="266.6211" y2="266.6211"/><text fill="#000000" font-family="sans-serif" font-size="14" lengthAdjust="spacing" textLength="82" x="1130.5" y="285.7285">+getEntries()</text></g><!--class Repositories--><g id="elem_Repositories"><rect codeLine="38" fill="#F1F1F1" height="122.4844" id="Repositories" rx="2.5" ry="2.5" style="stroke:#181818;stroke-width:0.5;" width="198" x="1100" y="7"/><ellipse cx="1155.25" cy="23" fill="#ADD1B2" rx="11" ry="11" style="stroke:#181818;stroke-width:1.0;"/><path d="M1158.0156,18.875 Q1158.1719,18.6563 1158.3594,18.5469 Q1158.5469,18.4375 1158.7656,18.4375 Q1159.1406,18.4375 1159.375,18.7031 Q1159.6094,18.9531 1159.6094,19.5625 L1159.6094,21.0156 Q1159.6094,21.625 1159.375,21.8906 Q1159.1406,22.1563 1158.7656,22.1563 Q1158.4219,22.1563 1158.2188,21.9531 Q1158.0156,21.7656 1157.9063,21.25 Q1157.8594,20.8906 1157.6719,20.7031 Q1157.3438,20.3281 1156.7344,20.1094 Q1156.125,19.8906 1155.5,19.8906 Q1154.7344,19.8906 1154.0938,20.2188 Q1153.4688,20.5469 1152.9688,21.2969 Q1152.4844,22.0469 1152.4844,23.0781 L1152.4844,24.1719 Q1152.4844,25.4063 1153.375,26.2344 Q1154.2656,27.0469 1155.8594,27.0469 Q1156.7969,27.0469 1157.4531,26.7969 Q1157.8438,26.6406 1158.2656,26.2031 Q1158.5313,25.9375 1158.6719,25.8594 Q1158.8281,25.7813 1159.0313,25.7813 Q1159.3594,25.7813 1159.6094,26.0469 Q1159.875,26.2969 1159.875,26.6406 Q1159.875,26.9844 1159.5313,27.3906 Q1159.0313,27.9688 1158.2344,28.2969 Q1157.1563,28.75 1155.8594,28.75 Q1154.3438,28.75 1153.1406,28.125 Q1152.1563,27.625 1151.4688,26.5625 Q1150.7813,25.4844 1150.7813,24.2031 L1150.7813,23.0469 Q1150.7813,21.7188 1151.3906,20.5781 Q1152.0156,19.4219 1153.1094,18.8125 Q1154.2031,18.1875 1155.4375,18.1875 Q1156.1719,18.1875 1156.8125,18.3594 Q1157.4688,18.5156 1158.0156,18.875 Z " fill="#000000"/><text fill="#000000" font-family="sans-serif" font-size="14" lengthAdjust="spacing" textLength="79" x="1175.75" y="28.7969">Repositories</text><line style="stroke:#181818;stroke-width:0.5;" x1="1101" x2="1297" y1="39" y2="39"/><line style="stroke:#181818;stroke-width:0.5;" x1="1101" x2="1297" y1="47" y2="47"/><text fill="#000000" font-family="sans-serif" font-size="14" lengthAdjust="spacing" textLength="94" x="1106" y="66.1074">-Repositories()</text><text fill="#000000" font-family="sans-serif" font-size="14" lengthAdjust="spacing" textLength="182" x="1106" y="84.7285">+getInstance() : Repositories</text><text fill="#000000" font-family="sans-serif" font-size="14" lengthAdjust="spacing" textLength="155" x="1106" y="103.3496">+getAgendaRepository()</text><text fill="#000000" font-family="sans-serif" font-size="14" lengthAdjust="spacing" textLength="186" x="1106" y="121.9707">+getOrganizationRepository()</text></g><!--class Entry--><g id="elem_Entry"><rect codeLine="45" fill="#F1F1F1" height="364.5586" id="Entry" rx="2.5" ry="2.5" style="stroke:#181818;stroke-width:0.5;" width="603" x="697.5" y="536"/><ellipse cx="978.25" cy="552" fill="#ADD1B2" rx="11" ry="11" style="stroke:#181818;stroke-width:1.0;"/><path d="M981.0156,547.875 Q981.1719,547.6563 981.3594,547.5469 Q981.5469,547.4375 981.7656,547.4375 Q982.1406,547.4375 982.375,547.7031 Q982.6094,547.9531 982.6094,548.5625 L982.6094,550.0156 Q982.6094,550.625 982.375,550.8906 Q982.1406,551.1563 981.7656,551.1563 Q981.4219,551.1563 981.2188,550.9531 Q981.0156,550.7656 980.9063,550.25 Q980.8594,549.8906 980.6719,549.7031 Q980.3438,549.3281 979.7344,549.1094 Q979.125,548.8906 978.5,548.8906 Q977.7344,548.8906 977.0938,549.2188 Q976.4688,549.5469 975.9688,550.2969 Q975.4844,551.0469 975.4844,552.0781 L975.4844,553.1719 Q975.4844,554.4063 976.375,555.2344 Q977.2656,556.0469 978.8594,556.0469 Q979.7969,556.0469 980.4531,555.7969 Q980.8438,555.6406 981.2656,555.2031 Q981.5313,554.9375 981.6719,554.8594 Q981.8281,554.7813 982.0313,554.7813 Q982.3594,554.7813 982.6094,555.0469 Q982.875,555.2969 982.875,555.6406 Q982.875,555.9844 982.5313,556.3906 Q982.0313,556.9688 981.2344,557.2969 Q980.1563,557.75 978.8594,557.75 Q977.3438,557.75 976.1406,557.125 Q975.1563,556.625 974.4688,555.5625 Q973.7813,554.4844 973.7813,553.2031 L973.7813,552.0469 Q973.7813,550.7188 974.3906,549.5781 Q975.0156,548.4219 976.1094,547.8125 Q977.2031,547.1875 978.4375,547.1875 Q979.1719,547.1875 979.8125,547.3594 Q980.4688,547.5156 981.0156,547.875 Z " fill="#000000"/><text fill="#000000" font-family="sans-serif" font-size="14" lengthAdjust="spacing" textLength="33" x="998.75" y="557.7969">Entry</text><line style="stroke:#181818;stroke-width:0.5;" x1="698.5" x2="1299.5" y1="568" y2="568"/><text fill="#000000" font-family="sans-serif" font-size="14" lengthAdjust="spacing" textLength="76" x="703.5" y="587.1074">-task: String</text><text fill="#000000" font-family="sans-serif" font-size="14" lengthAdjust="spacing" textLength="116" x="703.5" y="605.7285">-urgency: Urgency</text><text fill="#000000" font-family="sans-serif" font-size="14" lengthAdjust="spacing" textLength="80" x="703.5" y="624.3496">-duration: int</text><text fill="#000000" font-family="sans-serif" font-size="14" lengthAdjust="spacing" textLength="170" x="703.5" y="642.9707">-greenSpace: GreenSpace</text><text fill="#000000" font-family="sans-serif" font-size="14" lengthAdjust="spacing" textLength="91" x="703.5" y="661.5918">-status: Status</text><text fill="#000000" font-family="sans-serif" font-size="14" lengthAdjust="spacing" textLength="135" x="703.5" y="680.2129">-startDate: LocalDate</text><text fill="#000000" font-family="sans-serif" font-size="14" lengthAdjust="spacing" textLength="131" x="703.5" y="698.834">-endDate: LocalDate</text><text fill="#000000" font-family="sans-serif" font-size="14" lengthAdjust="spacing" textLength="80" x="703.5" y="717.4551">-team: Team</text><line style="stroke:#181818;stroke-width:0.5;" x1="698.5" x2="1299.5" y1="724.9688" y2="724.9688"/><text fill="#000000" font-family="sans-serif" font-size="14" lengthAdjust="spacing" textLength="591" x="703.5" y="744.0762">+Entry(task: String, urgency: Urgency, duration: int, greenSpace: GreenSpace, status: Status)</text><text fill="#000000" font-family="sans-serif" font-size="14" lengthAdjust="spacing" textLength="69" x="703.5" y="762.6973">+getTask()</text><text fill="#000000" font-family="sans-serif" font-size="14" lengthAdjust="spacing" textLength="90" x="703.5" y="781.3184">+getUrgency()</text><text fill="#000000" font-family="sans-serif" font-size="14" lengthAdjust="spacing" textLength="92" x="703.5" y="799.9395">+getDuration()</text><text fill="#000000" font-family="sans-serif" font-size="14" lengthAdjust="spacing" textLength="118" x="703.5" y="818.5605">+getGreenSpace()</text><text fill="#000000" font-family="sans-serif" font-size="14" lengthAdjust="spacing" textLength="78" x="703.5" y="837.1816">+getStatus()</text><text fill="#000000" font-family="sans-serif" font-size="14" lengthAdjust="spacing" textLength="98" x="703.5" y="855.8027">+getStartDate()</text><text fill="#000000" font-family="sans-serif" font-size="14" lengthAdjust="spacing" textLength="93" x="703.5" y="874.4238">+getEndDate()</text><text fill="#000000" font-family="sans-serif" font-size="14" lengthAdjust="spacing" textLength="74" x="703.5" y="893.0449">+getTeam()</text></g><!--link TaskAssignedToCollaboratorUI to TaskAssignedToCollaboratorController--><g id="link_TaskAssignedToCollaboratorUI_TaskAssignedToCollaboratorController"><path codeLine="65" d="M337.37,68 C340.77,68 342.67,68 342.67,68 C342.67,68 348.36,68 365.62,68 " fill="none" id="TaskAssignedToCollaboratorUI-to-TaskAssignedToCollaboratorController" style="stroke:#181818;stroke-width:1.0;stroke-dasharray:7.0,7.0;"/><polygon fill="#181818" points="371.62,68,362.62,64,366.62,68,362.62,72,371.62,68" style="stroke:#181818;stroke-width:1.0;"/></g><!--link TaskAssignedToCollaboratorController to Organization--><g id="link_TaskAssignedToCollaboratorController_Organization"><path codeLine="66" d="M738.87,129.01 C802.41,198.5 901.3916,306.7416 956.7916,367.3416 " fill="none" id="TaskAssignedToCollaboratorController-to-Organization" style="stroke:#181818;stroke-width:1.0;stroke-dasharray:7.0,7.0;"/><polygon fill="#181818" points="960.84,371.77,957.7197,362.4285,957.4663,368.0797,951.8152,367.8264,960.84,371.77" style="stroke:#181818;stroke-width:1.0;"/></g><!--link TaskAssignedToCollaboratorController to Repositories--><g id="link_TaskAssignedToCollaboratorController_Repositories"><path codeLine="67" d="M996.2,68 C1033.48,68 1063.16,68 1093.91,68 " fill="none" id="TaskAssignedToCollaboratorController-to-Repositories" style="stroke:#181818;stroke-width:1.0;stroke-dasharray:7.0,7.0;"/><polygon fill="#181818" points="1099.91,68,1090.91,64,1094.91,68,1090.91,72,1099.91,68" style="stroke:#181818;stroke-width:1.0;"/><text fill="#000000" font-family="sans-serif" font-size="13" lengthAdjust="spacing" textLength="67" x="1014.5" y="61.0283">repositories</text></g><!--link Repositories to OrganizationRepository--><g id="link_Repositories_OrganizationRepository"><path codeLine="68" d="M1104.28,129.03 C1078.24,145.54 1057,159 1057,159 C1057,159 1039.7864,185.8477 1023.1764,211.7777 " fill="none" id="Repositories-to-OrganizationRepository" style="stroke:#181818;stroke-width:1.0;"/><polygon fill="#181818" points="1019.94,216.83,1028.1628,211.4091,1022.637,212.6197,1021.4263,207.0939,1019.94,216.83" style="stroke:#181818;stroke-width:1.0;"/><text fill="#000000" font-family="sans-serif" font-size="13" lengthAdjust="spacing" textLength="132" x="1058" y="174.0283">organizationRepository</text><text fill="#000000" font-family="sans-serif" font-size="13" lengthAdjust="spacing" textLength="7" x="1085.3094" y="151.5205">1</text><text fill="#000000" font-family="sans-serif" font-size="13" lengthAdjust="spacing" textLength="7" x="1016.3735" y="205.622">1</text></g><!--link Repositories to AgendaRepository--><g id="link_Repositories_AgendaRepository"><path codeLine="69" d="M1199,129.1 C1199,154.95 1199,178.52 1199,201.88 " fill="none" id="Repositories-to-AgendaRepository" style="stroke:#181818;stroke-width:1.0;"/><polygon fill="#181818" points="1199,207.88,1203,198.88,1199,202.88,1195,198.88,1199,207.88" style="stroke:#181818;stroke-width:1.0;"/><text fill="#000000" font-family="sans-serif" font-size="13" lengthAdjust="spacing" textLength="104" x="1200" y="174.0283">agendaRepository</text><text fill="#000000" font-family="sans-serif" font-size="13" lengthAdjust="spacing" textLength="7" x="1191.5734" y="151.599">1</text><text fill="#000000" font-family="sans-serif" font-size="13" lengthAdjust="spacing" textLength="7" x="1191.4422" y="196.765">1</text></g><!--link OrganizationRepository to Organization--><g id="link_OrganizationRepository_Organization"><path codeLine="70" d="M999,284.28 C999,309.52 999,338.58 999,365.82 " fill="none" id="OrganizationRepository-to-Organization" style="stroke:#181818;stroke-width:1.0;"/><polygon fill="#181818" points="999,371.82,1003,362.82,999,366.82,995,362.82,999,371.82" style="stroke:#181818;stroke-width:1.0;"/><text fill="#000000" font-family="sans-serif" font-size="13" lengthAdjust="spacing" textLength="59" x="1000" y="338.0283">userName</text><text fill="#000000" font-family="sans-serif" font-size="13" lengthAdjust="spacing" textLength="7" x="991.3984" y="305.6328">1</text><text fill="#000000" font-family="sans-serif" font-size="13" lengthAdjust="spacing" textLength="7" x="991.4422" y="360.6954">1</text></g><!--link AgendaRepository to Organization--><g id="link_AgendaRepository_Organization"><path codeLine="71" d="M1147.75,293.01 C1117.89,317.2 1085.0223,343.8234 1055.1223,368.0434 " fill="none" id="AgendaRepository-to-Organization" style="stroke:#181818;stroke-width:1.0;"/><polygon fill="#181818" points="1050.46,371.82,1059.9712,369.2633,1054.3453,368.6728,1054.9357,363.0469,1050.46,371.82" style="stroke:#181818;stroke-width:1.0;"/><text fill="#000000" font-family="sans-serif" font-size="13" lengthAdjust="spacing" textLength="42" x="1106" y="338.0283">agenda</text><text fill="#000000" font-family="sans-serif" font-size="13" lengthAdjust="spacing" textLength="7" x="1132.0242" y="315.1719">1</text><text fill="#000000" font-family="sans-serif" font-size="13" lengthAdjust="spacing" textLength="7" x="1051.1036" y="360.6954">1</text></g><!--link Organization to Entry--><g id="link_Organization_Entry"><path codeLine="72" d="M999,457.17 C999,478.61 999,500.39 999,529.79 " fill="none" id="Organization-to-Entry" style="stroke:#181818;stroke-width:1.0;"/><polygon fill="#181818" points="999,535.79,1003,526.79,999,530.79,995,526.79,999,535.79" style="stroke:#181818;stroke-width:1.0;"/><text fill="#000000" font-family="sans-serif" font-size="13" lengthAdjust="spacing" textLength="29" x="1000" y="502.0283">entry</text><text fill="#000000" font-family="sans-serif" font-size="13" lengthAdjust="spacing" textLength="7" x="991.4422" y="479.3574">1</text><text fill="#000000" font-family="sans-serif" font-size="13" lengthAdjust="spacing" textLength="20" x="978.5781" y="524.7671">1..*</text></g><!--link Repositories to Repositories--><g id="link_Repositories_Repositories"><path codeLine="73" d="M1298.05,49.94 C1318.4,51.87 1333,57.89 1333,68 C1333,78.11 1324.3732,83.5635 1304.0232,85.4935 " fill="none" id="Repositories-to-Repositories" style="stroke:#181818;stroke-width:1.0;"/><polygon fill="#181818" points="1298.05,86.06,1307.3875,89.1924,1303.0277,85.5879,1306.6321,81.2281,1298.05,86.06" style="stroke:#181818;stroke-width:1.0;"/><text fill="#000000" font-family="sans-serif" font-size="13" lengthAdjust="spacing" textLength="75" x="1339" y="73.5283">getInstance()</text></g><!--SRC=[ZLJRRjf047tVhnZn0ZG6jQzkXKIJA4AgMgc43zYOYLbXxvBTiIA2-kyTt_3w0e47C6TcpfovUCPkh_H1Mfb2QhI9TjQa26Gp58tb8AEzZ75DnmJ1OaHInudlu7PoQzwLZk5L9iwt94eZ7Gy81vCSypzYF60qbepmeg94EhSaikeb8rn5Hg_L1y9N8SO9lXAG0QlY7S5MvNAKqK8KCV0itNxfd8erRf_DlKaI-MAi96CtgvC0_imWbPghiRzbYY6iEOcEAmid8iinQCChJFTdhoBiZblobg6Z1qboCXN_FjVICDIQM93UohzuC4wnmp64PGVvHFpTJUac0-7JCZv6UcGtXUudqZkYvdBGJHn9crV6xhzC99FyCG2MriNOaJ9NamQWModEJVbZOwdLXyo7LXUl-vCe-y7yoj6FNDTnCSpHDEXKzO4BsRYoH7yQtNwUBcVwtZ1LBV69pXICroG-DfasuIlDRT4H2u6mvTIuT7NvuSE5-c8AmRKAuWtez36pJ1_nEctAXmhUPhOW3K5fgh3Oyj3N_AxpB9xEpvMncMx-su2ztQXC_GMfDQ9C-UNYxwhCeeA9BptegGxQWeCBMeEEJA-J-SlXTxOYzg67AeMFDTm-Mh9taB8JFlXOzi27yhhByLqxL31Vt7P-Rd62ERFvYtHZrAArho4VEMzxVHEClerWDbiKlyCR6_A57y9xF3NDidSEkmTI36UwA2Q4h3eAeaj-9QRCsihbUS_dNqR5-eQyxzGj9_Tf0M7x8WZn7m00]--></g></svg>