<?xml version="1.0" encoding="us-ascii" standalone="no"?><svg xmlns="http://www.w3.org/2000/svg" xmlns:xlink="http://www.w3.org/1999/xlink" contentStyleType="text/css" height="466px" preserveAspectRatio="none" style="width:733px;height:466px;background:#FFFFFF;" version="1.1" viewBox="0 0 733 466" width="733px" zoomAndPan="magnify"><defs/><g><rect fill="#FFFFFF" height="280.6191" style="stroke:#181818;stroke-width:1.0;" width="10" x="42" y="93.6211"/><rect fill="#FFFFFF" height="31.291" style="stroke:#181818;stroke-width:1.0;" width="10" x="338" y="116.9121"/><rect fill="#FFFFFF" height="185.7461" style="stroke:#181818;stroke-width:1.0;" width="10" x="338" y="179.4941"/><rect fill="#FFFFFF" height="79.543" style="stroke:#181818;stroke-width:1.0;" width="10" x="587" y="254.4063"/><line style="stroke:#181818;stroke-width:0.5;stroke-dasharray:5.0,5.0;" x1="47" x2="47" y1="83.6211" y2="383.2402"/><line style="stroke:#181818;stroke-width:0.5;stroke-dasharray:5.0,5.0;" x1="343" x2="343" y1="83.6211" y2="383.2402"/><line style="stroke:#181818;stroke-width:0.5;stroke-dasharray:5.0,5.0;" x1="592" x2="592" y1="219.3047" y2="383.2402"/><text fill="#000000" font-family="sans-serif" font-size="14" lengthAdjust="spacing" textLength="78" x="5" y="80.1074">Collaborator</text><ellipse cx="47" cy="13.5" fill="#E3E3E3" rx="8" ry="8" style="stroke:#181818;stroke-width:0.5;"/><path d="M47,21.5 L47,48.5 M34,29.5 L60,29.5 M47,48.5 L34,63.5 M47,48.5 L60,63.5 " fill="none" style="stroke:#181818;stroke-width:0.5;"/><text fill="#000000" font-family="sans-serif" font-size="14" lengthAdjust="spacing" textLength="78" x="5" y="397.3477">Collaborator</text><ellipse cx="47" cy="409.3613" fill="#E3E3E3" rx="8" ry="8" style="stroke:#181818;stroke-width:0.5;"/><path d="M47,417.3613 L47,444.3613 M34,425.3613 L60,425.3613 M47,444.3613 L34,459.3613 M47,444.3613 L60,459.3613 " fill="none" style="stroke:#181818;stroke-width:0.5;"/><rect fill="#E3E3E3" height="32.6211" rx="2.5" ry="2.5" style="stroke:#181818;stroke-width:0.5;" width="214" x="236" y="50"/><text fill="#000000" font-family="sans-serif" font-size="14" lengthAdjust="spacing" textLength="200" x="243" y="72.1074">:TaskAssignedToCollaboratorUI</text><rect fill="#E3E3E3" height="32.6211" rx="2.5" ry="2.5" style="stroke:#181818;stroke-width:0.5;" width="214" x="236" y="382.2402"/><text fill="#000000" font-family="sans-serif" font-size="14" lengthAdjust="spacing" textLength="200" x="243" y="404.3477">:TaskAssignedToCollaboratorUI</text><rect fill="#E3E3E3" height="32.6211" rx="2.5" ry="2.5" style="stroke:#181818;stroke-width:0.5;" width="264" x="460" y="382.2402"/><text fill="#000000" font-family="sans-serif" font-size="14" lengthAdjust="spacing" textLength="250" x="467" y="404.3477">:TaskAssignedToCollaboratorController</text><rect fill="#FFFFFF" height="280.6191" style="stroke:#181818;stroke-width:1.0;" width="10" x="42" y="93.6211"/><rect fill="#FFFFFF" height="31.291" style="stroke:#181818;stroke-width:1.0;" width="10" x="338" y="116.9121"/><rect fill="#FFFFFF" height="185.7461" style="stroke:#181818;stroke-width:1.0;" width="10" x="338" y="179.4941"/><rect fill="#FFFFFF" height="79.543" style="stroke:#181818;stroke-width:1.0;" width="10" x="587" y="254.4063"/><polygon fill="#181818" points="326,112.9121,336,116.9121,326,120.9121,330,116.9121" style="stroke:#181818;stroke-width:1.0;"/><line style="stroke:#181818;stroke-width:1.0;" x1="52" x2="332" y1="116.9121" y2="116.9121"/><text fill="#000000" font-family="sans-serif" font-size="13" font-weight="bold" lengthAdjust="spacing" textLength="7" x="59" y="111.6494">1</text><text fill="#000000" font-family="sans-serif" font-size="13" lengthAdjust="spacing" textLength="152" x="70" y="111.6494">Requests to consult tasks</text><polygon fill="#181818" points="63,144.2031,53,148.2031,63,152.2031,59,148.2031" style="stroke:#181818;stroke-width:1.0;"/><line style="stroke:#181818;stroke-width:1.0;stroke-dasharray:2.0,2.0;" x1="57" x2="342" y1="148.2031" y2="148.2031"/><text fill="#000000" font-family="sans-serif" font-size="13" font-weight="bold" lengthAdjust="spacing" textLength="7" x="69" y="142.9404">2</text><text fill="#000000" font-family="sans-serif" font-size="13" lengthAdjust="spacing" textLength="251" x="80" y="142.9404">Asks for date interval and status of the task</text><polygon fill="#181818" points="326,175.4941,336,179.4941,326,183.4941,330,179.4941" style="stroke:#181818;stroke-width:1.0;"/><line style="stroke:#181818;stroke-width:1.0;" x1="52" x2="332" y1="179.4941" y2="179.4941"/><text fill="#000000" font-family="sans-serif" font-size="13" font-weight="bold" lengthAdjust="spacing" textLength="7" x="59" y="174.2314">3</text><text fill="#000000" font-family="sans-serif" font-size="13" lengthAdjust="spacing" textLength="238" x="70" y="174.2314">Types date interval and status of the task</text><polygon fill="#181818" points="448,206.7852,458,210.7852,448,214.7852,452,210.7852" style="stroke:#181818;stroke-width:1.0;"/><line style="stroke:#181818;stroke-width:1.0;" x1="348" x2="454" y1="210.7852" y2="210.7852"/><text fill="#000000" font-family="sans-serif" font-size="13" font-weight="bold" lengthAdjust="spacing" textLength="7" x="355" y="205.5225">4</text><text fill="#000000" font-family="sans-serif" font-size="13" lengthAdjust="spacing" textLength="36" x="366" y="205.5225">create</text><rect fill="#E3E3E3" height="32.6211" rx="2.5" ry="2.5" style="stroke:#181818;stroke-width:0.5;" width="264" x="460" y="187.4941"/><text fill="#000000" font-family="sans-serif" font-size="14" lengthAdjust="spacing" textLength="250" x="467" y="209.6016">:TaskAssignedToCollaboratorController</text><polygon fill="#181818" points="575,250.4063,585,254.4063,575,258.4063,579,254.4063" style="stroke:#181818;stroke-width:1.0;"/><line style="stroke:#181818;stroke-width:1.0;" x1="348" x2="581" y1="254.4063" y2="254.4063"/><text fill="#000000" font-family="sans-serif" font-size="13" font-weight="bold" lengthAdjust="spacing" textLength="7" x="355" y="249.1436">5</text><text fill="#000000" font-family="sans-serif" font-size="13" lengthAdjust="spacing" textLength="78" x="366" y="249.1436">verifyEntries()</text><rect fill="none" height="43.252" style="stroke:#000000;stroke-width:1.5;" width="270" x="457" y="262.4063"/><path d="M457,262.4063 L519,262.4063 L519,271.4063 L509,281.4063 L457,281.4063 L457,262.4063 " fill="#EEEEEE" style="stroke:#000000;stroke-width:2.0;"/><text fill="#000000" font-family="sans-serif" font-size="13" font-weight="bold" lengthAdjust="spacing" textLength="17" x="470" y="278.4346">ref</text><text fill="#000000" font-family="sans-serif" font-size="12" lengthAdjust="spacing" textLength="61" x="561.5" y="298.3555">Get Entries</text><polygon fill="#181818" points="359,329.9492,349,333.9492,359,337.9492,355,333.9492" style="stroke:#181818;stroke-width:1.0;"/><line style="stroke:#181818;stroke-width:1.0;stroke-dasharray:2.0,2.0;" x1="353" x2="591" y1="333.9492" y2="333.9492"/><text fill="#000000" font-family="sans-serif" font-size="13" font-weight="bold" lengthAdjust="spacing" textLength="7" x="365" y="328.6865">6</text><text fill="#000000" font-family="sans-serif" font-size="13" lengthAdjust="spacing" textLength="39" x="376" y="328.6865">entries</text><polygon fill="#181818" points="63,361.2402,53,365.2402,63,369.2402,59,365.2402" style="stroke:#181818;stroke-width:1.0;"/><line style="stroke:#181818;stroke-width:1.0;stroke-dasharray:2.0,2.0;" x1="57" x2="342" y1="365.2402" y2="365.2402"/><text fill="#000000" font-family="sans-serif" font-size="13" font-weight="bold" lengthAdjust="spacing" textLength="7" x="69" y="359.9775">7</text><text fill="#000000" font-family="sans-serif" font-size="13" lengthAdjust="spacing" textLength="110" x="80" y="359.9775">Retrieves tasks list</text><!--SRC=[ZL7BRW8n3BpdAomkVKZy00SaX525r4eLNJx0x7hPY13Js4lBtzSRMheKAk5J4i-C9sFP-BZ3X5lOSkIoIRmbqDIIarDdX-K6r_IcXq2Gg5ICwz07I8CLV_YuXXg3a7FOAiTskwBat5tZAuAQMLVywR1KJZ2OSWYuueHs6m0Ap5vUdOcfB_qEey9WLA1i9Y9-7Qagk4zOpZDbER-PCUMeoUvq73Oj5i-ki-Btg9HdEx2o0mp79WmZMD1xIw82ob1ob3Oeg0sGZ3nnpKH-wCfuGwDtAYEO6DH-dQ3gO3ugfJq6m5Y1A6ehm3LeGraqIrHqeTetL1ns9BUh_UjmdB__-6YIPI93_BRF8GROK_BrOMRXUPBxXpFWQS0nJVXJYMfWun_RSAMUIE5R-g9FiRgKpAQ6FtdG5MelmdDNPwjPKCVSMvfveH2ywBKDk2y0]--></g></svg>