<?xml version="1.0" encoding="us-ascii" standalone="no"?><svg xmlns="http://www.w3.org/2000/svg" xmlns:xlink="http://www.w3.org/1999/xlink" contentStyleType="text/css" height="418px" preserveAspectRatio="none" style="width:770px;height:418px;background:#FFFFFF;" version="1.1" viewBox="0 0 770 418" width="770px" zoomAndPan="magnify"><defs/><g><rect fill="#FFFFFF" height="219.0371" style="stroke:#181818;stroke-width:1.0;" width="10" x="332" y="125.1152"/><rect fill="#FFFFFF" height="42.291" style="stroke:#181818;stroke-width:1.0;" width="10" x="337" y="256.5703"/><rect fill="none" height="173.7461" style="stroke:#000000;stroke-width:1.5;" width="502" x="262" y="140.1152"/><line style="stroke:#181818;stroke-width:0.5;stroke-dasharray:5.0,5.0;" x1="337" x2="337" y1="57.2422" y2="362.1523"/><line style="stroke:#181818;stroke-width:0.5;stroke-dasharray:5.0,5.0;" x1="722" x2="722" y1="202.3428" y2="362.1523"/><rect fill="#E3E3E3" height="51.2422" rx="2.5" ry="2.5" style="stroke:#181818;stroke-width:0.5;" width="130" x="272" y="5"/><text fill="#000000" font-family="sans-serif" font-size="14" lengthAdjust="spacing" textLength="112" x="281" y="27.1074">vehicleRepository</text><text fill="#000000" font-family="sans-serif" font-size="14" lengthAdjust="spacing" textLength="116" x="279" y="45.7285">:vehicleRepository</text><rect fill="#E3E3E3" height="51.2422" rx="2.5" ry="2.5" style="stroke:#181818;stroke-width:0.5;" width="130" x="272" y="361.1523"/><text fill="#000000" font-family="sans-serif" font-size="14" lengthAdjust="spacing" textLength="112" x="281" y="383.2598">vehicleRepository</text><text fill="#000000" font-family="sans-serif" font-size="14" lengthAdjust="spacing" textLength="116" x="279" y="401.8809">:vehicleRepository</text><rect fill="#E3E3E3" height="51.2422" rx="2.5" ry="2.5" style="stroke:#181818;stroke-width:0.5;" width="64" x="690" y="361.1523"/><text fill="#000000" font-family="sans-serif" font-size="14" lengthAdjust="spacing" textLength="44" x="700" y="383.2598">vehicle</text><text fill="#000000" font-family="sans-serif" font-size="14" lengthAdjust="spacing" textLength="50" x="697" y="401.8809">:Vehicle</text><rect fill="#FFFFFF" height="219.0371" style="stroke:#181818;stroke-width:1.0;" width="10" x="332" y="125.1152"/><rect fill="#FFFFFF" height="42.291" style="stroke:#181818;stroke-width:1.0;" width="10" x="337" y="256.5703"/><polygon fill="#181818" points="320,121.1152,330,125.1152,320,129.1152,324,125.1152" style="stroke:#181818;stroke-width:1.0;"/><line style="stroke:#181818;stroke-width:1.0;" x1="0" x2="326" y1="125.1152" y2="125.1152"/><text fill="#000000" font-family="sans-serif" font-size="13" font-weight="bold" lengthAdjust="spacing" textLength="14" x="7" y="102.5615">16</text><text fill="#000000" font-family="sans-serif" font-size="13" lengthAdjust="spacing" textLength="295" x="25" y="85.2705">registerVehicle (brand, model, vehicleID, type, tare,</text><text fill="#000000" font-family="sans-serif" font-size="13" lengthAdjust="spacing" textLength="223" x="25" y="102.5615">grossWeight, currentKm, registerDate,</text><text fill="#000000" font-family="sans-serif" font-size="13" lengthAdjust="spacing" textLength="211" x="25" y="119.8525">acquisitionDate, checkupFrequency)</text><path d="M262,140.1152 L411,140.1152 L411,149.4063 L401,159.4063 L262,159.4063 L262,140.1152 " fill="#EEEEEE" style="stroke:#000000;stroke-width:1.5;"/><rect fill="none" height="173.7461" style="stroke:#000000;stroke-width:1.5;" width="502" x="262" y="140.1152"/><text fill="#000000" font-family="sans-serif" font-size="13" font-weight="bold" lengthAdjust="spacing" textLength="104" x="277" y="155.1436">Register Vehicle</text><polygon fill="#181818" points="678,213.2793,688,217.2793,678,221.2793,682,217.2793" style="stroke:#181818;stroke-width:1.0;"/><line style="stroke:#181818;stroke-width:1.0;" x1="342" x2="684" y1="217.2793" y2="217.2793"/><text fill="#000000" font-family="sans-serif" font-size="13" font-weight="bold" lengthAdjust="spacing" textLength="25" x="349" y="194.7256">16.1</text><text fill="#000000" font-family="sans-serif" font-size="13" lengthAdjust="spacing" textLength="295" x="378" y="177.4346">registerVehicle (brand, model, vehicleID, type, tare,</text><text fill="#000000" font-family="sans-serif" font-size="13" lengthAdjust="spacing" textLength="223" x="378" y="194.7256">grossWeight, currentKm, registerDate,</text><text fill="#000000" font-family="sans-serif" font-size="13" lengthAdjust="spacing" textLength="211" x="378" y="212.0166">acquisitionDate, checkupFrequency)</text><rect fill="#E3E3E3" height="51.2422" rx="2.5" ry="2.5" style="stroke:#181818;stroke-width:0.5;" width="64" x="690" y="163.0371"/><text fill="#000000" font-family="sans-serif" font-size="14" lengthAdjust="spacing" textLength="44" x="700" y="185.1445">vehicle</text><text fill="#000000" font-family="sans-serif" font-size="14" lengthAdjust="spacing" textLength="50" x="697" y="203.7656">:Vehicle</text><line style="stroke:#181818;stroke-width:1.0;" x1="342" x2="389" y1="243.5703" y2="243.5703"/><line style="stroke:#181818;stroke-width:1.0;" x1="389" x2="389" y1="243.5703" y2="256.5703"/><line style="stroke:#181818;stroke-width:1.0;" x1="348" x2="389" y1="256.5703" y2="256.5703"/><polygon fill="#181818" points="358,252.5703,348,256.5703,358,260.5703,354,256.5703" style="stroke:#181818;stroke-width:1.0;"/><text fill="#000000" font-family="sans-serif" font-size="13" font-weight="bold" lengthAdjust="spacing" textLength="25" x="354" y="238.3076">16.2</text><text fill="#000000" font-family="sans-serif" font-size="13" lengthAdjust="spacing" textLength="64" x="383" y="238.3076">addVehicle</text><line style="stroke:#181818;stroke-width:1.0;" x1="347" x2="389" y1="297.8613" y2="297.8613"/><line style="stroke:#181818;stroke-width:1.0;" x1="389" x2="389" y1="297.8613" y2="310.8613"/><line style="stroke:#181818;stroke-width:1.0;" x1="342" x2="389" y1="310.8613" y2="310.8613"/><polygon fill="#181818" points="352,306.8613,342,310.8613,352,314.8613,348,310.8613" style="stroke:#181818;stroke-width:1.0;"/><text fill="#000000" font-family="sans-serif" font-size="13" font-weight="bold" lengthAdjust="spacing" textLength="25" x="354" y="292.5986">16.3</text><text fill="#000000" font-family="sans-serif" font-size="13" lengthAdjust="spacing" textLength="86" x="383" y="292.5986">validateVehicle</text><polygon fill="#181818" points="11,340.1523,1,344.1523,11,348.1523,7,344.1523" style="stroke:#181818;stroke-width:1.0;"/><line style="stroke:#181818;stroke-width:1.0;stroke-dasharray:2.0,2.0;" x1="5" x2="336" y1="344.1523" y2="344.1523"/><text fill="#000000" font-family="sans-serif" font-size="13" font-weight="bold" lengthAdjust="spacing" textLength="14" x="17" y="338.8896">17</text><text fill="#000000" font-family="sans-serif" font-size="13" lengthAdjust="spacing" textLength="49" x="35" y="338.8896">success</text><!--SRC=[pL3BQiCm4BphAvQSsc0NScaXb48WJIaz5DpINdBPI5jRn5ufUgJuxwlO9WrnFY0w234xCvfPlzLiqM43ZM4ZAsSQWk0Y2N-SM9HRBEaZj3M18ncGo_gKu2jKvbTp2JzOUn8YmK5BRP43JFPKQLbJGTPu7OnhrpmVOHD03-_5oqLf4dprhuxskIYULmiXC0R3iTcGWzczo9yE-daAM6eVo0qAkDauP9MbVehg30RBrsK6eRMKRdIKhRbqnljlqcKLCf3HEUBmrcH7koM6H5upobtKARCst4Eo8hcDTkLe5ubbUtiMx6ucK0QzJ-Ik8AIJFeiMYi4QXgYYcnrEua7gqnUTJg-Xr5cqRjMer2ZwgEibuHvhhHBfgFxNAnev4Aj-VhhNXmvvpFFEU0u-IadUYpEz-0C0]--></g></svg>