<?xml version="1.0" encoding="us-ascii" standalone="no"?><svg xmlns="http://www.w3.org/2000/svg" xmlns:xlink="http://www.w3.org/1999/xlink" contentStyleType="text/css" height="947px" preserveAspectRatio="none" style="width:1956px;height:947px;background:#FFFFFF;" version="1.1" viewBox="0 0 1956 947" width="1956px" zoomAndPan="magnify"><defs/><g><text fill="#000000" font-family="sans-serif" font-size="14" font-weight="bold" lengthAdjust="spacing" textLength="284" x="833.5" y="30.1074">System Sequence Diagram (SSD) - US006</text><rect fill="#FFFFFF" height="713.5762" style="stroke:#181818;stroke-width:1.0;" width="10" x="17.5" y="133.2422"/><rect fill="#FFFFFF" height="92.2031" style="stroke:#181818;stroke-width:1.0;" width="10" x="576.5" y="156.5332"/><rect fill="#FFFFFF" height="31.291" style="stroke:#181818;stroke-width:1.0;" width="10" x="576.5" y="280.0273"/><rect fill="#FFFFFF" height="31.291" style="stroke:#181818;stroke-width:1.0;" width="10" x="576.5" y="342.6094"/><rect fill="#FFFFFF" height="31.291" style="stroke:#181818;stroke-width:1.0;" width="10" x="576.5" y="815.5273"/><rect fill="#FFFFFF" height="112.7949" style="stroke:#181818;stroke-width:1.0;" width="10" x="742" y="373.9004"/><rect fill="#FFFFFF" height="31.291" style="stroke:#181818;stroke-width:1.0;" width="10" x="742" y="784.2363"/><rect fill="#FFFFFF" height="112.7949" style="stroke:#181818;stroke-width:1.0;" width="10" x="1296" y="486.6953"/><rect fill="#FFFFFF" height="75.582" style="stroke:#181818;stroke-width:1.0;" width="10" x="1296" y="708.6543"/><rect fill="#FFFFFF" height="99.1641" style="stroke:#181818;stroke-width:1.0;" width="10" x="1882" y="609.4902"/><line style="stroke:#181818;stroke-width:0.5;stroke-dasharray:5.0,5.0;" x1="22" x2="22" y1="123.2422" y2="864.8184"/><line style="stroke:#181818;stroke-width:0.5;stroke-dasharray:5.0,5.0;" x1="581" x2="581" y1="123.2422" y2="864.8184"/><line style="stroke:#181818;stroke-width:0.5;stroke-dasharray:5.0,5.0;" x1="746.5" x2="746.5" y1="196.3438" y2="864.8184"/><line style="stroke:#181818;stroke-width:0.5;stroke-dasharray:5.0,5.0;" x1="894.5" x2="894.5" y1="123.2422" y2="864.8184"/><line style="stroke:#181818;stroke-width:0.5;stroke-dasharray:5.0,5.0;" x1="1001.5" x2="1001.5" y1="123.2422" y2="864.8184"/><line style="stroke:#181818;stroke-width:0.5;stroke-dasharray:5.0,5.0;" x1="1301" x2="1301" y1="123.2422" y2="864.8184"/><line style="stroke:#181818;stroke-width:0.5;stroke-dasharray:5.0,5.0;" x1="1887" x2="1887" y1="600.0293" y2="864.8184"/><text fill="#000000" font-family="sans-serif" font-size="14" lengthAdjust="spacing" textLength="29" x="5" y="119.7285">VFM</text><ellipse cx="22.5" cy="53.1211" fill="#E3E3E3" rx="8" ry="8" style="stroke:#181818;stroke-width:0.5;"/><path d="M22.5,61.1211 L22.5,88.1211 M9.5,69.1211 L35.5,69.1211 M22.5,88.1211 L9.5,103.1211 M22.5,88.1211 L35.5,103.1211 " fill="none" style="stroke:#181818;stroke-width:0.5;"/><text fill="#000000" font-family="sans-serif" font-size="14" lengthAdjust="spacing" textLength="29" x="5" y="878.9258">VFM</text><ellipse cx="22.5" cy="890.9395" fill="#E3E3E3" rx="8" ry="8" style="stroke:#181818;stroke-width:0.5;"/><path d="M22.5,898.9395 L22.5,925.9395 M9.5,906.9395 L35.5,906.9395 M22.5,925.9395 L9.5,940.9395 M22.5,925.9395 L35.5,940.9395 " fill="none" style="stroke:#181818;stroke-width:0.5;"/><rect fill="#E3E3E3" height="32.6211" rx="2.5" ry="2.5" style="stroke:#181818;stroke-width:0.5;" width="129" x="517" y="89.6211"/><text fill="#000000" font-family="sans-serif" font-size="14" lengthAdjust="spacing" textLength="115" x="524" y="111.7285">:RegisterVehicleUI</text><rect fill="#E3E3E3" height="32.6211" rx="2.5" ry="2.5" style="stroke:#181818;stroke-width:0.5;" width="129" x="517" y="863.8184"/><text fill="#000000" font-family="sans-serif" font-size="14" lengthAdjust="spacing" textLength="115" x="524" y="885.9258">:RegisterVehicleUI</text><rect fill="#E3E3E3" height="32.6211" rx="2.5" ry="2.5" style="stroke:#181818;stroke-width:0.5;" width="179" x="657.5" y="863.8184"/><text fill="#000000" font-family="sans-serif" font-size="14" lengthAdjust="spacing" textLength="165" x="664.5" y="885.9258">:RegisterVehicleController</text><rect fill="#E3E3E3" height="32.6211" rx="2.5" ry="2.5" style="stroke:#181818;stroke-width:0.5;" width="97" x="846.5" y="89.6211"/><text fill="#000000" font-family="sans-serif" font-size="14" lengthAdjust="spacing" textLength="83" x="853.5" y="111.7285">:Repositories</text><rect fill="#E3E3E3" height="32.6211" rx="2.5" ry="2.5" style="stroke:#181818;stroke-width:0.5;" width="97" x="846.5" y="863.8184"/><text fill="#000000" font-family="sans-serif" font-size="14" lengthAdjust="spacing" textLength="83" x="853.5" y="885.9258">:Repositories</text><rect fill="#E3E3E3" height="51.2422" rx="2.5" ry="2.5" style="stroke:#181818;stroke-width:0.5;" width="97" x="953.5" y="71"/><text fill="#000000" font-family="sans-serif" font-size="14" lengthAdjust="spacing" textLength="74" x="965" y="93.1074">repositories</text><text fill="#000000" font-family="sans-serif" font-size="14" lengthAdjust="spacing" textLength="83" x="960.5" y="111.7285">:Repositories</text><rect fill="#E3E3E3" height="51.2422" rx="2.5" ry="2.5" style="stroke:#181818;stroke-width:0.5;" width="97" x="953.5" y="863.8184"/><text fill="#000000" font-family="sans-serif" font-size="14" lengthAdjust="spacing" textLength="74" x="965" y="885.9258">repositories</text><text fill="#000000" font-family="sans-serif" font-size="14" lengthAdjust="spacing" textLength="83" x="960.5" y="904.5469">:Repositories</text><rect fill="#E3E3E3" height="51.2422" rx="2.5" ry="2.5" style="stroke:#181818;stroke-width:0.5;" width="130" x="1236" y="71"/><text fill="#000000" font-family="sans-serif" font-size="14" lengthAdjust="spacing" textLength="116" x="1243" y="93.1074">vehicleRepository:</text><text fill="#000000" font-family="sans-serif" font-size="14" lengthAdjust="spacing" textLength="114" x="1244" y="111.7285">VehicleRepository</text><rect fill="#E3E3E3" height="51.2422" rx="2.5" ry="2.5" style="stroke:#181818;stroke-width:0.5;" width="130" x="1236" y="863.8184"/><text fill="#000000" font-family="sans-serif" font-size="14" lengthAdjust="spacing" textLength="116" x="1243" y="885.9258">vehicleRepository:</text><text fill="#000000" font-family="sans-serif" font-size="14" lengthAdjust="spacing" textLength="114" x="1244" y="904.5469">VehicleRepository</text><rect fill="#E3E3E3" height="51.2422" rx="2.5" ry="2.5" style="stroke:#181818;stroke-width:0.5;" width="64" x="1855" y="863.8184"/><text fill="#000000" font-family="sans-serif" font-size="14" lengthAdjust="spacing" textLength="44" x="1865" y="885.9258">vehicle</text><text fill="#000000" font-family="sans-serif" font-size="14" lengthAdjust="spacing" textLength="50" x="1862" y="904.5469">:Vehicle</text><rect fill="#FFFFFF" height="713.5762" style="stroke:#181818;stroke-width:1.0;" width="10" x="17.5" y="133.2422"/><rect fill="#FFFFFF" height="92.2031" style="stroke:#181818;stroke-width:1.0;" width="10" x="576.5" y="156.5332"/><rect fill="#FFFFFF" height="31.291" style="stroke:#181818;stroke-width:1.0;" width="10" x="576.5" y="280.0273"/><rect fill="#FFFFFF" height="31.291" style="stroke:#181818;stroke-width:1.0;" width="10" x="576.5" y="342.6094"/><rect fill="#FFFFFF" height="31.291" style="stroke:#181818;stroke-width:1.0;" width="10" x="576.5" y="815.5273"/><rect fill="#FFFFFF" height="112.7949" style="stroke:#181818;stroke-width:1.0;" width="10" x="742" y="373.9004"/><rect fill="#FFFFFF" height="31.291" style="stroke:#181818;stroke-width:1.0;" width="10" x="742" y="784.2363"/><rect fill="#FFFFFF" height="112.7949" style="stroke:#181818;stroke-width:1.0;" width="10" x="1296" y="486.6953"/><rect fill="#FFFFFF" height="75.582" style="stroke:#181818;stroke-width:1.0;" width="10" x="1296" y="708.6543"/><rect fill="#FFFFFF" height="99.1641" style="stroke:#181818;stroke-width:1.0;" width="10" x="1882" y="609.4902"/><polygon fill="#181818" points="564.5,152.5332,574.5,156.5332,564.5,160.5332,568.5,156.5332" style="stroke:#181818;stroke-width:1.0;"/><line style="stroke:#181818;stroke-width:1.0;" x1="27.5" x2="570.5" y1="156.5332" y2="156.5332"/><text fill="#000000" font-family="sans-serif" font-size="13" font-weight="bold" lengthAdjust="spacing" textLength="7" x="34.5" y="151.2705">1</text><text fill="#000000" font-family="sans-serif" font-size="13" lengthAdjust="spacing" textLength="171" x="45.5" y="151.2705">asks to register a new vehicle</text><polygon fill="#181818" points="645.5,183.8242,655.5,187.8242,645.5,191.8242,649.5,187.8242" style="stroke:#181818;stroke-width:1.0;"/><line style="stroke:#181818;stroke-width:1.0;" x1="586.5" x2="651.5" y1="187.8242" y2="187.8242"/><text fill="#000000" font-family="sans-serif" font-size="13" font-weight="bold" lengthAdjust="spacing" textLength="7" x="593.5" y="182.5615">2</text><text fill="#000000" font-family="sans-serif" font-size="13" lengthAdjust="spacing" textLength="36" x="604.5" y="182.5615">create</text><rect fill="#E3E3E3" height="32.6211" rx="2.5" ry="2.5" style="stroke:#181818;stroke-width:0.5;" width="179" x="657.5" y="164.5332"/><text fill="#000000" font-family="sans-serif" font-size="14" lengthAdjust="spacing" textLength="165" x="664.5" y="186.6406">:RegisterVehicleController</text><polygon fill="#181818" points="38.5,244.7363,28.5,248.7363,38.5,252.7363,34.5,248.7363" style="stroke:#181818;stroke-width:1.0;"/><line style="stroke:#181818;stroke-width:1.0;stroke-dasharray:2.0,2.0;" x1="32.5" x2="580.5" y1="248.7363" y2="248.7363"/><text fill="#000000" font-family="sans-serif" font-size="13" font-weight="bold" lengthAdjust="spacing" textLength="7" x="44.5" y="234.8281">3</text><text fill="#000000" font-family="sans-serif" font-size="13" lengthAdjust="spacing" textLength="439" x="55.5" y="226.1826">requests vehicle data (VIN, Brand, Model, Type, Vehicle Plate, Tare Weight,</text><text fill="#000000" font-family="sans-serif" font-size="13" lengthAdjust="spacing" textLength="514" x="55.5" y="243.4736">Gross Weight, Current Km, Registration date, Acquisition Date, Maintenance Frequency)</text><polygon fill="#181818" points="564.5,276.0273,574.5,280.0273,564.5,284.0273,568.5,280.0273" style="stroke:#181818;stroke-width:1.0;"/><line style="stroke:#181818;stroke-width:1.0;" x1="27.5" x2="570.5" y1="280.0273" y2="280.0273"/><text fill="#000000" font-family="sans-serif" font-size="13" font-weight="bold" lengthAdjust="spacing" textLength="7" x="34.5" y="274.7646">4</text><text fill="#000000" font-family="sans-serif" font-size="13" lengthAdjust="spacing" textLength="136" x="45.5" y="274.7646">types requested vehicle</text><polygon fill="#181818" points="38.5,307.3184,28.5,311.3184,38.5,315.3184,34.5,311.3184" style="stroke:#181818;stroke-width:1.0;"/><line style="stroke:#181818;stroke-width:1.0;stroke-dasharray:2.0,2.0;" x1="32.5" x2="580.5" y1="311.3184" y2="311.3184"/><text fill="#000000" font-family="sans-serif" font-size="13" font-weight="bold" lengthAdjust="spacing" textLength="7" x="44.5" y="306.0557">5</text><text fill="#000000" font-family="sans-serif" font-size="13" lengthAdjust="spacing" textLength="236" x="55.5" y="306.0557">shows all data and requests confirmation</text><polygon fill="#181818" points="564.5,338.6094,574.5,342.6094,564.5,346.6094,568.5,342.6094" style="stroke:#181818;stroke-width:1.0;"/><line style="stroke:#181818;stroke-width:1.0;" x1="27.5" x2="570.5" y1="342.6094" y2="342.6094"/><text fill="#000000" font-family="sans-serif" font-size="13" font-weight="bold" lengthAdjust="spacing" textLength="7" x="34.5" y="337.3467">6</text><text fill="#000000" font-family="sans-serif" font-size="13" lengthAdjust="spacing" textLength="80" x="45.5" y="337.3467">confirms Data</text><polygon fill="#181818" points="730,369.9004,740,373.9004,730,377.9004,734,373.9004" style="stroke:#181818;stroke-width:1.0;"/><line style="stroke:#181818;stroke-width:1.0;" x1="581.5" x2="736" y1="373.9004" y2="373.9004"/><text fill="#000000" font-family="sans-serif" font-size="13" font-weight="bold" lengthAdjust="spacing" textLength="7" x="588.5" y="368.6377">7</text><text fill="#000000" font-family="sans-serif" font-size="13" lengthAdjust="spacing" textLength="111" x="599.5" y="368.6377">submit vehicle data</text><rect fill="none" height="59.2129" style="stroke:#000000;stroke-width:1.5;" width="185" x="654.5" y="381.9004"/><path d="M654.5,381.9004 L716.5,381.9004 L716.5,390.9004 L706.5,400.9004 L654.5,400.9004 L654.5,381.9004 " fill="#EEEEEE" style="stroke:#000000;stroke-width:2.0;"/><text fill="#000000" font-family="sans-serif" font-size="13" font-weight="bold" lengthAdjust="spacing" textLength="17" x="667.5" y="397.9287">ref</text><text fill="#000000" font-family="sans-serif" font-size="12" lengthAdjust="spacing" textLength="124" x="685" y="417.8496">Get Vehicle Repository</text><text fill="#000000" font-family="sans-serif" font-size="12" lengthAdjust="spacing" textLength="3" x="745.5" y="433.8105">&#160;</text><polygon fill="#181818" points="1284,482.6953,1294,486.6953,1284,490.6953,1288,486.6953" style="stroke:#181818;stroke-width:1.0;"/><line style="stroke:#181818;stroke-width:1.0;" x1="747" x2="1290" y1="486.6953" y2="486.6953"/><text fill="#000000" font-family="sans-serif" font-size="13" font-weight="bold" lengthAdjust="spacing" textLength="7" x="754" y="472.7871">8</text><text fill="#000000" font-family="sans-serif" font-size="13" lengthAdjust="spacing" textLength="399" x="765" y="464.1416">registerVehicle(VIN, Brand, Model, Type, Vehicle Plate, Tare Weight,</text><text fill="#000000" font-family="sans-serif" font-size="13" lengthAdjust="spacing" textLength="514" x="765" y="481.4326">Gross Weight, Current Km, Registration date, Acquisition Date, Maintenance Frequency)</text><rect fill="none" height="59.2129" style="stroke:#000000;stroke-width:1.5;" width="136" x="1233" y="494.6953"/><path d="M1233,494.6953 L1295,494.6953 L1295,503.6953 L1285,513.6953 L1233,513.6953 L1233,494.6953 " fill="#EEEEEE" style="stroke:#000000;stroke-width:2.0;"/><text fill="#000000" font-family="sans-serif" font-size="13" font-weight="bold" lengthAdjust="spacing" textLength="17" x="1246" y="510.7236">ref</text><text fill="#000000" font-family="sans-serif" font-size="12" lengthAdjust="spacing" textLength="118" x="1242" y="530.6445">Verify Existing Vehicle</text><text fill="#000000" font-family="sans-serif" font-size="12" lengthAdjust="spacing" textLength="3" x="1299.5" y="546.6055">&#160;</text><polygon fill="#181818" points="1843,595.4902,1853,599.4902,1843,603.4902,1847,599.4902" style="stroke:#181818;stroke-width:1.0;"/><line style="stroke:#181818;stroke-width:1.0;" x1="1301" x2="1849" y1="599.4902" y2="599.4902"/><text fill="#000000" font-family="sans-serif" font-size="13" font-weight="bold" lengthAdjust="spacing" textLength="7" x="1308" y="585.582">9</text><text fill="#000000" font-family="sans-serif" font-size="13" lengthAdjust="spacing" textLength="399" x="1319" y="576.9365">registerVehicle(VIN, Brand, Model, Type, Vehicle Plate, Tare Weight,</text><text fill="#000000" font-family="sans-serif" font-size="13" lengthAdjust="spacing" textLength="514" x="1319" y="594.2275">Gross Weight, Current Km, Registration date, Acquisition Date, Maintenance Frequency)</text><rect fill="#E3E3E3" height="51.2422" rx="2.5" ry="2.5" style="stroke:#181818;stroke-width:0.5;" width="64" x="1855" y="558.9082"/><text fill="#000000" font-family="sans-serif" font-size="14" lengthAdjust="spacing" textLength="44" x="1865" y="581.0156">vehicle</text><text fill="#000000" font-family="sans-serif" font-size="14" lengthAdjust="spacing" textLength="50" x="1862" y="599.6367">:Vehicle</text><rect fill="none" height="59.2129" style="stroke:#000000;stroke-width:1.5;" width="98" x="1852" y="621.1504"/><path d="M1852,621.1504 L1914,621.1504 L1914,630.1504 L1904,640.1504 L1852,640.1504 L1852,621.1504 " fill="#EEEEEE" style="stroke:#000000;stroke-width:2.0;"/><text fill="#000000" font-family="sans-serif" font-size="13" font-weight="bold" lengthAdjust="spacing" textLength="17" x="1865" y="637.1787">ref</text><text fill="#000000" font-family="sans-serif" font-size="12" lengthAdjust="spacing" textLength="90" x="1856" y="657.0996">Register Vehicle</text><text fill="#000000" font-family="sans-serif" font-size="12" lengthAdjust="spacing" textLength="3" x="1899.5" y="673.0605">&#160;</text><polygon fill="#181818" points="1317,704.6543,1307,708.6543,1317,712.6543,1313,708.6543" style="stroke:#181818;stroke-width:1.0;"/><line style="stroke:#181818;stroke-width:1.0;stroke-dasharray:2.0,2.0;" x1="1311" x2="1886" y1="708.6543" y2="708.6543"/><text fill="#000000" font-family="sans-serif" font-size="13" font-weight="bold" lengthAdjust="spacing" textLength="14" x="1323" y="703.3916">10</text><text fill="#000000" font-family="sans-serif" font-size="13" lengthAdjust="spacing" textLength="39" x="1341" y="703.3916">vehicle</text><line style="stroke:#181818;stroke-width:1.0;" x1="1306" x2="1348" y1="739.9453" y2="739.9453"/><line style="stroke:#181818;stroke-width:1.0;" x1="1348" x2="1348" y1="739.9453" y2="752.9453"/><line style="stroke:#181818;stroke-width:1.0;" x1="1307" x2="1348" y1="752.9453" y2="752.9453"/><polygon fill="#181818" points="1317,748.9453,1307,752.9453,1317,756.9453,1313,752.9453" style="stroke:#181818;stroke-width:1.0;"/><text fill="#000000" font-family="sans-serif" font-size="13" font-weight="bold" lengthAdjust="spacing" textLength="14" x="1313" y="734.6826">11</text><text fill="#000000" font-family="sans-serif" font-size="13" lengthAdjust="spacing" textLength="111" x="1331" y="734.6826">addVehicle(vehicle)</text><polygon fill="#181818" points="763,780.2363,753,784.2363,763,788.2363,759,784.2363" style="stroke:#181818;stroke-width:1.0;"/><line style="stroke:#181818;stroke-width:1.0;stroke-dasharray:2.0,2.0;" x1="757" x2="1300" y1="784.2363" y2="784.2363"/><text fill="#000000" font-family="sans-serif" font-size="13" font-weight="bold" lengthAdjust="spacing" textLength="14" x="769" y="778.9736">12</text><text fill="#000000" font-family="sans-serif" font-size="13" lengthAdjust="spacing" textLength="49" x="787" y="778.9736">success</text><polygon fill="#181818" points="597.5,811.5273,587.5,815.5273,597.5,819.5273,593.5,815.5273" style="stroke:#181818;stroke-width:1.0;"/><line style="stroke:#181818;stroke-width:1.0;stroke-dasharray:2.0,2.0;" x1="591.5" x2="746" y1="815.5273" y2="815.5273"/><text fill="#000000" font-family="sans-serif" font-size="13" font-weight="bold" lengthAdjust="spacing" textLength="14" x="603.5" y="810.2646">13</text><text fill="#000000" font-family="sans-serif" font-size="13" lengthAdjust="spacing" textLength="49" x="621.5" y="810.2646">success</text><polygon fill="#181818" points="33.5,842.8184,23.5,846.8184,33.5,850.8184,29.5,846.8184" style="stroke:#181818;stroke-width:1.0;"/><line style="stroke:#181818;stroke-width:1.0;stroke-dasharray:2.0,2.0;" x1="27.5" x2="580.5" y1="846.8184" y2="846.8184"/><text fill="#000000" font-family="sans-serif" font-size="13" font-weight="bold" lengthAdjust="spacing" textLength="14" x="39.5" y="841.5557">14</text><text fill="#000000" font-family="sans-serif" font-size="13" lengthAdjust="spacing" textLength="350" x="57.5" y="841.5557">displays success message (Vehicle registered successfully)</text><!--SRC=[rLPBJ-Cm4BxdLunwebMHEEsXXvLOAAXQkaA4TYzSJ399BHmxs0vi_lsEdKUR1mKa3hi-G3l-vlNDmpLFNEPCimmo9LMqqof3iBh0mBGtEOkUM8gXBGM2niWocOf3WDcnMBrocKB2XC4WiDmID2oDnGn2V2vGHWYNdAKEVXA6brCuXKruTlOj25XXbIooHzJqER9AmsHxjPu0Cq3_0t9XUSHp9YrC5dUOShAgjxZZaS3DokCsg-Em2oMjLaAWzl2B-xkRWKAk32Vd78t7j88ov2vTYh6heWyq7kJGmEtD-NrNuwKAPczvyI2tVLcLTrywQeYyri1AQRdo1F8NPj5J5m0T-W2dtuaYM13goO1LLCIA7c0WyHLgUnxU6Y1ElS0TKYOJZhRPZCn46WdHlQPxvsb1jgdSnfh6AiJCCZZPhdxDuOTcCfx3MiKevd1VvZXlSeLRGJP9o3J2R-JfpixXGLvhPKpx_QBG6ec1dzaSgX9hPhcIpWVfdaVF1IV2dEJIIzQCIukIkVQxqbKZbjCsy1W7wHxIPIb0qoI4yN6UEYIOdNerm8IeigUizxn4IYPSPpxmuBqe5WtSk8pOHqhat1UF6RUT2hoHSoDjPNusMh4x6XDGBzGi_We-SQxHjkKzwEKFsq1FMx9NyEavallpuVkkC_B_VCCDYTxFxc3yWq4nXXZumhD5pPCIbdyeOxVNQs_1bpbfInjqtVRhwegzNC5izlyL-7Y5zZ2tjiS7pbrzXjJcrVjykGQJvgknh5VQuDtgRCAnr7k17-li3xN0C08MnqqZrC5CtxDJxqUt7gC8ZNcJdQD574-ickRENRMichTap6T_6unQ7drVOcvomKhJc8MC_j1lD7fdw-PlfeMUhHgJ54BKdTfxSGxpfPyDVm40]--></g></svg>