<?xml version="1.0" encoding="us-ascii" standalone="no"?><svg xmlns="http://www.w3.org/2000/svg" xmlns:xlink="http://www.w3.org/1999/xlink" contentStyleType="text/css" height="771.4px" preserveAspectRatio="none" style="width:730px;height:771px;background:#FFFFFF;" version="1.1" viewBox="0 0 730 771" width="730.1px" zoomAndPan="magnify"><defs/><g><!--class VFM--><g id="elem_VFM"><rect codeLine="13" fill="#F1F1F1" height="33.6" id="VFM" rx="1.75" ry="1.75" style="stroke:#181818;stroke-width:0.3499999999999999;" width="42.7" x="434" y="604.8"/><ellipse cx="444.5" cy="616" fill="#ADD1B2" rx="7.7" ry="7.7" style="stroke:#181818;stroke-width:0.6999999999999998;"/><path d="M446.4359,613.1125 Q446.5453,612.9594 446.6766,612.8828 Q446.8078,612.8062 446.9609,612.8062 Q447.2234,612.8062 447.3875,612.9922 Q447.5516,613.1672 447.5516,613.5937 L447.5516,614.6109 Q447.5516,615.0375 447.3875,615.2234 Q447.2234,615.4094 446.9609,615.4094 Q446.7203,615.4094 446.5781,615.2672 Q446.4359,615.1359 446.3594,614.775 Q446.3266,614.5234 446.1953,614.3922 Q445.9656,614.1297 445.5391,613.9766 Q445.1125,613.8234 444.675,613.8234 Q444.1391,613.8234 443.6906,614.0531 Q443.2531,614.2828 442.9031,614.8078 Q442.5641,615.3328 442.5641,616.0547 L442.5641,616.8203 Q442.5641,617.6844 443.1875,618.2641 Q443.8109,618.8328 444.9266,618.8328 Q445.5828,618.8328 446.0422,618.6578 Q446.3156,618.5484 446.6109,618.2422 Q446.7969,618.0562 446.8953,618.0016 Q447.0047,617.9469 447.1469,617.9469 Q447.3766,617.9469 447.5516,618.1328 Q447.7375,618.3078 447.7375,618.5484 Q447.7375,618.7891 447.4969,619.0734 Q447.1469,619.4781 446.5891,619.7078 Q445.8344,620.025 444.9266,620.025 Q443.8656,620.025 443.0234,619.5875 Q442.3344,619.2375 441.8531,618.4937 Q441.3719,617.7391 441.3719,616.8422 L441.3719,616.0328 Q441.3719,615.1031 441.7984,614.3047 Q442.2359,613.4953 443.0016,613.0687 Q443.7672,612.6312 444.6312,612.6312 Q445.1453,612.6312 445.5937,612.7516 Q446.0531,612.8609 446.4359,613.1125 Z " fill="#000000"/><text fill="#000000" font-family="sans-serif" font-size="9.8" lengthAdjust="spacing" textLength="20.3" x="454.3" y="620.0578">VFM</text><line style="stroke:#181818;stroke-width:0.3499999999999999;" x1="434.7" x2="476" y1="627.2" y2="627.2"/><line style="stroke:#181818;stroke-width:0.3499999999999999;" x1="434.7" x2="476" y1="632.8" y2="632.8"/></g><!--class SystemUser--><g id="elem_SystemUser"><rect codeLine="16" fill="#F1F1F1" height="85.7391" id="SystemUser" rx="1.75" ry="1.75" style="stroke:#181818;stroke-width:0.3499999999999999;" width="74.9" x="417.9" y="681.1"/><ellipse cx="428.4" cy="692.3" fill="#ADD1B2" rx="7.7" ry="7.7" style="stroke:#181818;stroke-width:0.6999999999999998;"/><path d="M430.3359,689.4125 Q430.4453,689.2594 430.5766,689.1828 Q430.7078,689.1062 430.8609,689.1062 Q431.1234,689.1062 431.2875,689.2922 Q431.4516,689.4672 431.4516,689.8937 L431.4516,690.9109 Q431.4516,691.3375 431.2875,691.5234 Q431.1234,691.7094 430.8609,691.7094 Q430.6203,691.7094 430.4781,691.5672 Q430.3359,691.4359 430.2594,691.075 Q430.2266,690.8234 430.0953,690.6922 Q429.8656,690.4297 429.4391,690.2766 Q429.0125,690.1234 428.575,690.1234 Q428.0391,690.1234 427.5906,690.3531 Q427.1531,690.5828 426.8031,691.1078 Q426.4641,691.6328 426.4641,692.3547 L426.4641,693.1203 Q426.4641,693.9844 427.0875,694.5641 Q427.7109,695.1328 428.8266,695.1328 Q429.4828,695.1328 429.9422,694.9578 Q430.2156,694.8484 430.5109,694.5422 Q430.6969,694.3562 430.7953,694.3016 Q430.9047,694.2469 431.0469,694.2469 Q431.2766,694.2469 431.4516,694.4328 Q431.6375,694.6078 431.6375,694.8484 Q431.6375,695.0891 431.3969,695.3734 Q431.0469,695.7781 430.4891,696.0078 Q429.7344,696.325 428.8266,696.325 Q427.7656,696.325 426.9234,695.8875 Q426.2344,695.5375 425.7531,694.7937 Q425.2719,694.0391 425.2719,693.1422 L425.2719,692.3328 Q425.2719,691.4031 425.6984,690.6047 Q426.1359,689.7953 426.9016,689.3687 Q427.6672,688.9312 428.5312,688.9312 Q429.0453,688.9312 429.4937,689.0516 Q429.9531,689.1609 430.3359,689.4125 Z " fill="#000000"/><text fill="#000000" font-family="sans-serif" font-size="9.8" lengthAdjust="spacing" textLength="52.5" x="438.2" y="696.3578">SystemUser</text><line style="stroke:#181818;stroke-width:0.3499999999999999;" x1="418.6" x2="492.1" y1="703.5" y2="703.5"/><text fill="#000000" font-family="sans-serif" font-size="9.8" lengthAdjust="spacing" textLength="24.5" x="422.1" y="716.8752">name</text><text fill="#000000" font-family="sans-serif" font-size="9.8" lengthAdjust="spacing" textLength="23.1" x="422.1" y="729.91">email</text><text fill="#000000" font-family="sans-serif" font-size="9.8" lengthAdjust="spacing" textLength="42" x="422.1" y="742.9447">password</text><text fill="#000000" font-family="sans-serif" font-size="9.8" lengthAdjust="spacing" textLength="28" x="422.1" y="755.9795">phone</text><line style="stroke:#181818;stroke-width:0.3499999999999999;" x1="418.6" x2="492.1" y1="761.2391" y2="761.2391"/></g><!--class TaskCategory--><g id="elem_TaskCategory"><rect codeLine="23" fill="#F1F1F1" height="59.6695" id="TaskCategory" rx="1.75" ry="1.75" style="stroke:#181818;stroke-width:0.3499999999999999;" width="131.6" x="402.85" y="244.3"/><ellipse cx="434.525" cy="255.5" fill="#ADD1B2" rx="7.7" ry="7.7" style="stroke:#181818;stroke-width:0.6999999999999998;"/><path d="M436.4609,252.6125 Q436.5703,252.4594 436.7016,252.3828 Q436.8328,252.3062 436.9859,252.3062 Q437.2484,252.3062 437.4125,252.4922 Q437.5766,252.6672 437.5766,253.0937 L437.5766,254.1109 Q437.5766,254.5375 437.4125,254.7234 Q437.2484,254.9094 436.9859,254.9094 Q436.7453,254.9094 436.6031,254.7672 Q436.4609,254.6359 436.3844,254.275 Q436.3516,254.0234 436.2203,253.8922 Q435.9906,253.6297 435.5641,253.4766 Q435.1375,253.3234 434.7,253.3234 Q434.1641,253.3234 433.7156,253.5531 Q433.2781,253.7828 432.9281,254.3078 Q432.5891,254.8328 432.5891,255.5547 L432.5891,256.3203 Q432.5891,257.1844 433.2125,257.7641 Q433.8359,258.3328 434.9516,258.3328 Q435.6078,258.3328 436.0672,258.1578 Q436.3406,258.0484 436.6359,257.7422 Q436.8219,257.5562 436.9203,257.5016 Q437.0297,257.4469 437.1719,257.4469 Q437.4016,257.4469 437.5766,257.6328 Q437.7625,257.8078 437.7625,258.0484 Q437.7625,258.2891 437.5219,258.5734 Q437.1719,258.9781 436.6141,259.2078 Q435.8594,259.525 434.9516,259.525 Q433.8906,259.525 433.0484,259.0875 Q432.3594,258.7375 431.8781,257.9937 Q431.3969,257.2391 431.3969,256.3422 L431.3969,255.5328 Q431.3969,254.6031 431.8234,253.8047 Q432.2609,252.9953 433.0266,252.5687 Q433.7922,252.1312 434.6562,252.1312 Q435.1703,252.1312 435.6187,252.2516 Q436.0781,252.3609 436.4609,252.6125 Z " fill="#000000"/><text fill="#000000" font-family="sans-serif" font-size="9.8" lengthAdjust="spacing" textLength="62.3" x="448.875" y="259.5578">TaskCategory</text><line style="stroke:#181818;stroke-width:0.3499999999999999;" x1="403.55" x2="533.75" y1="266.7" y2="266.7"/><text fill="#000000" font-family="sans-serif" font-size="9.8" lengthAdjust="spacing" textLength="80.5" x="407.05" y="280.0752">-String description</text><line style="stroke:#181818;stroke-width:0.3499999999999999;" x1="403.55" x2="533.75" y1="285.3348" y2="285.3348"/><text fill="#000000" font-family="sans-serif" font-size="9.8" lengthAdjust="spacing" textLength="123.2" x="407.05" y="298.71">+TaskCategory(description)</text></g><!--class Vehicle--><g id="elem_Vehicle"><rect codeLine="29" fill="#F1F1F1" height="203.052" id="Vehicle" rx="1.75" ry="1.75" style="stroke:#181818;stroke-width:0.3499999999999999;" width="540.4" x="185.15" y="346.5"/><ellipse cx="436.275" cy="357.7" fill="#ADD1B2" rx="7.7" ry="7.7" style="stroke:#181818;stroke-width:0.6999999999999998;"/><path d="M438.2109,354.8125 Q438.3203,354.6594 438.4516,354.5828 Q438.5828,354.5062 438.7359,354.5062 Q438.9984,354.5062 439.1625,354.6922 Q439.3266,354.8672 439.3266,355.2937 L439.3266,356.3109 Q439.3266,356.7375 439.1625,356.9234 Q438.9984,357.1094 438.7359,357.1094 Q438.4953,357.1094 438.3531,356.9672 Q438.2109,356.8359 438.1344,356.475 Q438.1016,356.2234 437.9703,356.0922 Q437.7406,355.8297 437.3141,355.6766 Q436.8875,355.5234 436.45,355.5234 Q435.9141,355.5234 435.4656,355.7531 Q435.0281,355.9828 434.6781,356.5078 Q434.3391,357.0328 434.3391,357.7547 L434.3391,358.5203 Q434.3391,359.3844 434.9625,359.9641 Q435.5859,360.5328 436.7016,360.5328 Q437.3578,360.5328 437.8172,360.3578 Q438.0906,360.2484 438.3859,359.9422 Q438.5719,359.7562 438.6703,359.7016 Q438.7797,359.6469 438.9219,359.6469 Q439.1516,359.6469 439.3266,359.8328 Q439.5125,360.0078 439.5125,360.2484 Q439.5125,360.4891 439.2719,360.7734 Q438.9219,361.1781 438.3641,361.4078 Q437.6094,361.725 436.7016,361.725 Q435.6406,361.725 434.7984,361.2875 Q434.1094,360.9375 433.6281,360.1937 Q433.1469,359.4391 433.1469,358.5422 L433.1469,357.7328 Q433.1469,356.8031 433.5734,356.0047 Q434.0109,355.1953 434.7766,354.7687 Q435.5422,354.3312 436.4062,354.3312 Q436.9203,354.3312 437.3687,354.4516 Q437.8281,354.5609 438.2109,354.8125 Z " fill="#000000"/><text fill="#000000" font-family="sans-serif" font-size="9.8" lengthAdjust="spacing" textLength="32.2" x="450.625" y="361.7578">Vehicle</text><line style="stroke:#181818;stroke-width:0.3499999999999999;" x1="185.85" x2="724.85" y1="368.9" y2="368.9"/><text fill="#000000" font-family="sans-serif" font-size="9.8" lengthAdjust="spacing" textLength="29.4" x="189.35" y="382.2752">-brand</text><text fill="#000000" font-family="sans-serif" font-size="9.8" lengthAdjust="spacing" textLength="30.1" x="189.35" y="395.31">-model</text><text fill="#000000" font-family="sans-serif" font-size="9.8" lengthAdjust="spacing" textLength="43.4" x="189.35" y="408.3447">-vehicleID</text><text fill="#000000" font-family="sans-serif" font-size="9.8" lengthAdjust="spacing" textLength="22.4" x="189.35" y="421.3795">-type</text><text fill="#000000" font-family="sans-serif" font-size="9.8" lengthAdjust="spacing" textLength="58.8" x="189.35" y="434.4143">-grossWeight</text><text fill="#000000" font-family="sans-serif" font-size="9.8" lengthAdjust="spacing" textLength="21" x="189.35" y="447.449">-tare</text><text fill="#000000" font-family="sans-serif" font-size="9.8" lengthAdjust="spacing" textLength="49" x="189.35" y="460.4838">-currentKm</text><text fill="#000000" font-family="sans-serif" font-size="9.8" lengthAdjust="spacing" textLength="58.1" x="189.35" y="473.5186">-registerDate</text><text fill="#000000" font-family="sans-serif" font-size="9.8" lengthAdjust="spacing" textLength="71.4" x="189.35" y="486.5533">-acquisitionDate</text><text fill="#000000" font-family="sans-serif" font-size="9.8" lengthAdjust="spacing" textLength="88.2" x="189.35" y="499.5881">-checkupFrequency</text><line style="stroke:#181818;stroke-width:0.3499999999999999;" x1="185.85" x2="724.85" y1="504.8477" y2="504.8477"/><text fill="#000000" font-family="sans-serif" font-size="9.8" lengthAdjust="spacing" textLength="532" x="189.35" y="518.2229">+Vehicle(brand, model, vehicleID, type, grossWeight, tare, currentKm, registerDate, acquisitionDate, checkupFrequency)</text><text fill="#000000" font-family="sans-serif" font-size="9.8" lengthAdjust="spacing" textLength="42" x="189.35" y="531.2576">+equals()</text><text fill="#000000" font-family="sans-serif" font-size="9.8" lengthAdjust="spacing" textLength="79.1" x="189.35" y="544.2924">+needsCheckup()</text></g><!--class VehicleRepository--><g id="elem_VehicleRepository"><rect codeLine="49" fill="#F1F1F1" height="33.6" id="VehicleRepository" rx="1.75" ry="1.75" style="stroke:#181818;stroke-width:0.3499999999999999;" width="102.2" x="276.15" y="257.25"/><ellipse cx="286.65" cy="268.45" fill="#ADD1B2" rx="7.7" ry="7.7" style="stroke:#181818;stroke-width:0.6999999999999998;"/><path d="M288.5859,265.5625 Q288.6953,265.4094 288.8266,265.3328 Q288.9578,265.2562 289.1109,265.2562 Q289.3734,265.2562 289.5375,265.4422 Q289.7016,265.6172 289.7016,266.0437 L289.7016,267.0609 Q289.7016,267.4875 289.5375,267.6734 Q289.3734,267.8594 289.1109,267.8594 Q288.8703,267.8594 288.7281,267.7172 Q288.5859,267.5859 288.5094,267.225 Q288.4766,266.9734 288.3453,266.8422 Q288.1156,266.5797 287.6891,266.4266 Q287.2625,266.2734 286.825,266.2734 Q286.2891,266.2734 285.8406,266.5031 Q285.4031,266.7328 285.0531,267.2578 Q284.7141,267.7828 284.7141,268.5047 L284.7141,269.2703 Q284.7141,270.1344 285.3375,270.7141 Q285.9609,271.2828 287.0766,271.2828 Q287.7328,271.2828 288.1922,271.1078 Q288.4656,270.9984 288.7609,270.6922 Q288.9469,270.5062 289.0453,270.4516 Q289.1547,270.3969 289.2969,270.3969 Q289.5266,270.3969 289.7016,270.5828 Q289.8875,270.7578 289.8875,270.9984 Q289.8875,271.2391 289.6469,271.5234 Q289.2969,271.9281 288.7391,272.1578 Q287.9844,272.475 287.0766,272.475 Q286.0156,272.475 285.1734,272.0375 Q284.4844,271.6875 284.0031,270.9437 Q283.5219,270.1891 283.5219,269.2922 L283.5219,268.4828 Q283.5219,267.5531 283.9484,266.7547 Q284.3859,265.9453 285.1516,265.5187 Q285.9172,265.0812 286.7812,265.0812 Q287.2953,265.0812 287.7437,265.2016 Q288.2031,265.3109 288.5859,265.5625 Z " fill="#000000"/><text fill="#000000" font-family="sans-serif" font-size="9.8" lengthAdjust="spacing" textLength="79.8" x="296.45" y="272.5078">VehicleRepository</text><line style="stroke:#181818;stroke-width:0.3499999999999999;" x1="276.85" x2="377.65" y1="279.65" y2="279.65"/><line style="stroke:#181818;stroke-width:0.3499999999999999;" x1="276.85" x2="377.65" y1="285.25" y2="285.25"/></g><!--class Repositories--><g id="elem_Repositories"><rect codeLine="53" fill="#F1F1F1" height="124.8434" id="Repositories" rx="1.75" ry="1.75" style="stroke:#181818;stroke-width:0.3499999999999999;" width="145.6" x="136.15" y="98.7"/><ellipse cx="178.325" cy="109.9" fill="#ADD1B2" rx="7.7" ry="7.7" style="stroke:#181818;stroke-width:0.6999999999999998;"/><path d="M180.2609,107.0125 Q180.3703,106.8594 180.5016,106.7828 Q180.6328,106.7062 180.7859,106.7062 Q181.0484,106.7062 181.2125,106.8922 Q181.3766,107.0672 181.3766,107.4937 L181.3766,108.5109 Q181.3766,108.9375 181.2125,109.1234 Q181.0484,109.3094 180.7859,109.3094 Q180.5453,109.3094 180.4031,109.1672 Q180.2609,109.0359 180.1844,108.675 Q180.1516,108.4234 180.0203,108.2922 Q179.7906,108.0297 179.3641,107.8766 Q178.9375,107.7234 178.5,107.7234 Q177.9641,107.7234 177.5156,107.9531 Q177.0781,108.1828 176.7281,108.7078 Q176.3891,109.2328 176.3891,109.9547 L176.3891,110.7203 Q176.3891,111.5844 177.0125,112.1641 Q177.6359,112.7328 178.7516,112.7328 Q179.4078,112.7328 179.8672,112.5578 Q180.1406,112.4484 180.4359,112.1422 Q180.6219,111.9562 180.7203,111.9016 Q180.8297,111.8469 180.9719,111.8469 Q181.2016,111.8469 181.3766,112.0328 Q181.5625,112.2078 181.5625,112.4484 Q181.5625,112.6891 181.3219,112.9734 Q180.9719,113.3781 180.4141,113.6078 Q179.6594,113.925 178.7516,113.925 Q177.6906,113.925 176.8484,113.4875 Q176.1594,113.1375 175.6781,112.3937 Q175.1969,111.6391 175.1969,110.7422 L175.1969,109.9328 Q175.1969,109.0031 175.6234,108.2047 Q176.0609,107.3953 176.8266,106.9687 Q177.5922,106.5312 178.4562,106.5312 Q178.9703,106.5312 179.4187,106.6516 Q179.8781,106.7609 180.2609,107.0125 Z " fill="#000000"/><text fill="#000000" font-family="sans-serif" font-size="9.8" lengthAdjust="spacing" textLength="55.3" x="192.675" y="113.9578">Repositories</text><line style="stroke:#181818;stroke-width:0.3499999999999999;" x1="136.85" x2="281.05" y1="121.1" y2="121.1"/><line style="stroke:#181818;stroke-width:0.3499999999999999;" x1="136.85" x2="281.05" y1="126.7" y2="126.7"/><text fill="#000000" font-family="sans-serif" font-size="9.8" lengthAdjust="spacing" textLength="65.8" x="140.35" y="140.0752">-Repositories()</text><text fill="#000000" font-family="sans-serif" font-size="9.8" lengthAdjust="spacing" textLength="127.4" x="140.35" y="153.11">+getInstance() : Repositories</text><text fill="#000000" font-family="sans-serif" font-size="9.8" lengthAdjust="spacing" textLength="125.3" x="140.35" y="166.1447">+getCollaboatorRepository()</text><text fill="#000000" font-family="sans-serif" font-size="9.8" lengthAdjust="spacing" textLength="106.4" x="140.35" y="179.1795">+getVehicleRepository()</text><text fill="#000000" font-family="sans-serif" font-size="9.8" lengthAdjust="spacing" textLength="91.7" x="140.35" y="192.2143">+getSkillRepository()</text><text fill="#000000" font-family="sans-serif" font-size="9.8" lengthAdjust="spacing" textLength="89.6" x="140.35" y="205.249">+getJobRepository()</text><text fill="#000000" font-family="sans-serif" font-size="9.8" lengthAdjust="spacing" textLength="137.2" x="140.35" y="218.2838">+getAuthenticationRepository()</text></g><!--class RegisterVehicleController--><g id="elem_RegisterVehicleController"><rect codeLine="64" fill="#F1F1F1" height="72.7043" id="RegisterVehicleController" rx="1.75" ry="1.75" style="stroke:#181818;stroke-width:0.3499999999999999;" width="574" x="129.85" y="4.9"/><ellipse cx="357.525" cy="16.1" fill="#ADD1B2" rx="7.7" ry="7.7" style="stroke:#181818;stroke-width:0.6999999999999998;"/><path d="M359.4609,13.2125 Q359.5703,13.0594 359.7016,12.9828 Q359.8328,12.9062 359.9859,12.9062 Q360.2484,12.9062 360.4125,13.0922 Q360.5766,13.2672 360.5766,13.6937 L360.5766,14.7109 Q360.5766,15.1375 360.4125,15.3234 Q360.2484,15.5094 359.9859,15.5094 Q359.7453,15.5094 359.6031,15.3672 Q359.4609,15.2359 359.3844,14.875 Q359.3516,14.6234 359.2203,14.4922 Q358.9906,14.2297 358.5641,14.0766 Q358.1375,13.9234 357.7,13.9234 Q357.1641,13.9234 356.7156,14.1531 Q356.2781,14.3828 355.9281,14.9078 Q355.5891,15.4328 355.5891,16.1547 L355.5891,16.9203 Q355.5891,17.7844 356.2125,18.3641 Q356.8359,18.9328 357.9516,18.9328 Q358.6078,18.9328 359.0672,18.7578 Q359.3406,18.6484 359.6359,18.3422 Q359.8219,18.1562 359.9203,18.1016 Q360.0297,18.0469 360.1719,18.0469 Q360.4016,18.0469 360.5766,18.2328 Q360.7625,18.4078 360.7625,18.6484 Q360.7625,18.8891 360.5219,19.1734 Q360.1719,19.5781 359.6141,19.8078 Q358.8594,20.125 357.9516,20.125 Q356.8906,20.125 356.0484,19.6875 Q355.3594,19.3375 354.8781,18.5937 Q354.3969,17.8391 354.3969,16.9422 L354.3969,16.1328 Q354.3969,15.2031 354.8234,14.4047 Q355.2609,13.5953 356.0266,13.1687 Q356.7922,12.7312 357.6562,12.7312 Q358.1703,12.7312 358.6187,12.8516 Q359.0781,12.9609 359.4609,13.2125 Z " fill="#000000"/><text fill="#000000" font-family="sans-serif" font-size="9.8" lengthAdjust="spacing" textLength="112.7" x="371.875" y="20.1578">RegisterVehicleController</text><line style="stroke:#181818;stroke-width:0.3499999999999999;" x1="130.55" x2="703.15" y1="27.3" y2="27.3"/><line style="stroke:#181818;stroke-width:0.3499999999999999;" x1="130.55" x2="703.15" y1="32.9" y2="32.9"/><text fill="#000000" font-family="sans-serif" font-size="9.8" lengthAdjust="spacing" textLength="125.3" x="134.05" y="46.2752">+RegisterVehicleController()</text><text fill="#000000" font-family="sans-serif" font-size="9.8" lengthAdjust="spacing" textLength="565.6" x="134.05" y="59.31">+registerVehicle(brand, model, vehicleID, type, grossWeight, tare, currentKm, registerDate, acquisitionDate, checkupFrequency)</text><text fill="#000000" font-family="sans-serif" font-size="9.8" lengthAdjust="spacing" textLength="104.3" x="134.05" y="72.3447">-getVehicleRepository()</text></g><!--class RegisterVehicleUI--><g id="elem_RegisterVehicleUI"><rect fill="#F1F1F1" height="33.6" id="RegisterVehicleUI" rx="1.75" ry="1.75" style="stroke:#181818;stroke-width:0.3499999999999999;" width="100.1" x="4.9" y="24.5"/><ellipse cx="15.4" cy="35.7" fill="#ADD1B2" rx="7.7" ry="7.7" style="stroke:#181818;stroke-width:0.6999999999999998;"/><path d="M17.3359,32.8125 Q17.4453,32.6594 17.5766,32.5828 Q17.7078,32.5062 17.8609,32.5062 Q18.1234,32.5062 18.2875,32.6922 Q18.4516,32.8672 18.4516,33.2937 L18.4516,34.3109 Q18.4516,34.7375 18.2875,34.9234 Q18.1234,35.1094 17.8609,35.1094 Q17.6203,35.1094 17.4781,34.9672 Q17.3359,34.8359 17.2594,34.475 Q17.2266,34.2234 17.0953,34.0922 Q16.8656,33.8297 16.4391,33.6766 Q16.0125,33.5234 15.575,33.5234 Q15.0391,33.5234 14.5906,33.7531 Q14.1531,33.9828 13.8031,34.5078 Q13.4641,35.0328 13.4641,35.7547 L13.4641,36.5203 Q13.4641,37.3844 14.0875,37.9641 Q14.7109,38.5328 15.8266,38.5328 Q16.4828,38.5328 16.9422,38.3578 Q17.2156,38.2484 17.5109,37.9422 Q17.6969,37.7562 17.7953,37.7016 Q17.9047,37.6469 18.0469,37.6469 Q18.2766,37.6469 18.4516,37.8328 Q18.6375,38.0078 18.6375,38.2484 Q18.6375,38.4891 18.3969,38.7734 Q18.0469,39.1781 17.4891,39.4078 Q16.7344,39.725 15.8266,39.725 Q14.7656,39.725 13.9234,39.2875 Q13.2344,38.9375 12.7531,38.1937 Q12.2719,37.4391 12.2719,36.5422 L12.2719,35.7328 Q12.2719,34.8031 12.6984,34.0047 Q13.1359,33.1953 13.9016,32.7687 Q14.6672,32.3312 15.5312,32.3312 Q16.0453,32.3312 16.4937,32.4516 Q16.9531,32.5609 17.3359,32.8125 Z " fill="#000000"/><text fill="#000000" font-family="sans-serif" font-size="9.8" lengthAdjust="spacing" textLength="77.7" x="25.2" y="39.7578">RegisterVehicleUI</text><line style="stroke:#181818;stroke-width:0.3499999999999999;" x1="5.6" x2="104.3" y1="46.9" y2="46.9"/><line style="stroke:#181818;stroke-width:0.3499999999999999;" x1="5.6" x2="104.3" y1="52.5" y2="52.5"/></g><!--link Repositories to Repositories--><g id="link_Repositories_Repositories"><path codeLine="72" d="M281.932,140.931 C296.156,143.262 306.25,149.954 306.25,161 C306.25,172.046 300.3007,178.0588 286.0767,180.3898 " fill="none" id="Repositories-to-Repositories" style="stroke:#181818;stroke-width:0.6999999999999998;"/><polygon fill="#181818" points="281.932,181.069,288.6019,182.8133,285.3859,180.503,287.6963,177.287,281.932,181.069" style="stroke:#181818;stroke-width:0.6999999999999998;"/><text fill="#000000" font-family="sans-serif" font-size="9.1" lengthAdjust="spacing" textLength="34.3" x="310.45" y="164.8698">instance</text></g><!--link RegisterVehicleUI to RegisterVehicleController--><g id="link_RegisterVehicleUI_RegisterVehicleController"><path codeLine="75" d="M105.063,41.3 C113.218,41.3 117.432,41.3 125.482,41.3 " fill="none" id="RegisterVehicleUI-to-RegisterVehicleController" style="stroke:#181818;stroke-width:0.6999999999999998;stroke-dasharray:7.0,7.0;"/><polygon fill="#181818" points="129.682,41.3,123.382,38.5,126.182,41.3,123.382,44.1,129.682,41.3" style="stroke:#181818;stroke-width:0.6999999999999998;"/></g><!--link RegisterVehicleController to Repositories--><g id="link_RegisterVehicleController_Repositories"><path codeLine="77" d="M353.906,77.812 C331.205,90.734 309.0324,103.3499 285.5474,116.7129 " fill="none" id="RegisterVehicleController-to-Repositories" style="stroke:#181818;stroke-width:0.6999999999999998;stroke-dasharray:7.0,7.0;"/><polygon fill="#181818" points="281.897,118.79,288.7574,118.108,284.939,117.0591,285.9879,113.2407,281.897,118.79" style="stroke:#181818;stroke-width:0.6999999999999998;"/><text fill="#000000" font-family="sans-serif" font-size="9.1" lengthAdjust="spacing" textLength="46.9" x="270.298" y="95.5208">repositories</text></g><!--link Repositories to VehicleRepository--><g id="link_Repositories_VehicleRepository"><path codeLine="79" d="M274.33,223.405 C287.581,235.907 297.3575,245.1343 307.0665,254.2973 " fill="none" id="Repositories-to-VehicleRepository" style="stroke:#181818;stroke-width:0.6999999999999998;"/><polygon fill="#181818" points="310.121,257.18,307.4611,250.8196,307.5756,254.7777,303.6174,254.8922,310.121,257.18" style="stroke:#181818;stroke-width:0.6999999999999998;"/><text fill="#000000" font-family="sans-serif" font-size="9.1" lengthAdjust="spacing" textLength="4.9" x="300.2039" y="249.2783">1</text></g><!--link RegisterVehicleController to TaskCategory--><g id="link_RegisterVehicleController_TaskCategory"><path codeLine="81" d="M439.901,77.91 C447.125,89.159 453.25,98.7 453.25,98.7 C453.25,98.7 461.3157,190.2133 465.7047,239.9343 " fill="none" id="RegisterVehicleController-to-TaskCategory" style="stroke:#181818;stroke-width:0.6999999999999998;stroke-dasharray:7.0,7.0;"/><polygon fill="#181818" points="466.074,244.118,468.3092,237.5962,465.7662,240.6316,462.7309,238.0886,466.074,244.118" style="stroke:#181818;stroke-width:0.6999999999999998;"/></g><!--link RegisterVehicleController to VehicleRepository--><g id="link_RegisterVehicleController_VehicleRepository"><path codeLine="83" d="M380.94,77.91 C369.691,89.159 360.15,98.7 360.15,98.7 C360.15,98.7 337.75,223.3 337.75,223.3 C337.75,223.3 334.5585,238.4953 331.4925,253.1253 " fill="none" id="RegisterVehicleController-to-VehicleRepository" style="stroke:#181818;stroke-width:0.6999999999999998;stroke-dasharray:7.0,7.0;"/><polygon fill="#181818" points="330.631,257.236,334.6637,251.6443,331.3489,253.8104,329.1827,250.4956,330.631,257.236" style="stroke:#181818;stroke-width:0.6999999999999998;"/><text fill="#000000" font-family="sans-serif" font-size="9.1" lengthAdjust="spacing" textLength="86.1" x="360.85" y="164.8698">getVehicleRepository</text></g><!--link RegisterVehicleController to Vehicle--><g id="link_RegisterVehicleController_Vehicle"><path codeLine="85" d="M454.531,77.91 C466.34,89.159 476.35,98.7 476.35,98.7 C476.35,98.7 547.05,244.3 547.05,244.3 C547.05,244.3 547.05,303.8 547.05,303.8 C547.05,303.8 537.3417,318.993 522.0467,342.926 " fill="none" id="RegisterVehicleController-to-Vehicle" style="stroke:#181818;stroke-width:0.6999999999999998;stroke-dasharray:7.0,7.0;"/><polygon fill="#181818" points="519.785,346.465,525.5369,342.6643,521.6698,343.5158,520.8182,339.6487,519.785,346.465" style="stroke:#181818;stroke-width:0.6999999999999998;"/><text fill="#000000" font-family="sans-serif" font-size="9.1" lengthAdjust="spacing" textLength="30.1" x="547.75" y="277.9198">Vehicle</text><text fill="#000000" font-family="sans-serif" font-size="9.1" lengthAdjust="spacing" textLength="4.9" x="518.2748" y="338.5109">1</text></g><!--link VehicleRepository to Vehicle--><g id="link_VehicleRepository_Vehicle"><path codeLine="88" d="M339.304,290.983 C349.3,304.451 361.9303,321.4629 377.9953,343.0999 " fill="none" id="VehicleRepository-to-Vehicle" style="stroke:#181818;stroke-width:0.6999999999999998;"/><polygon fill="#181818" points="380.499,346.472,378.9915,339.7446,378.4126,343.6619,374.4953,343.083,380.499,346.472" style="stroke:#181818;stroke-width:0.6999999999999998;"/></g><!--link VFM to SystemUser--><g id="link_VFM_SystemUser"><path codeLine="90" d="M455.35,638.498 C455.35,650.013 455.35,661.85 455.35,676.865 " fill="none" id="VFM-to-SystemUser" style="stroke:#181818;stroke-width:0.6999999999999998;"/><polygon fill="#181818" points="455.35,681.065,458.15,674.765,455.35,677.565,452.55,674.765,455.35,681.065" style="stroke:#181818;stroke-width:0.6999999999999998;"/></g><!--link Vehicle to VFM--><g id="link_Vehicle_VFM"><path codeLine="92" d="M455.35,549.619 C455.35,571.053 455.35,587.02 455.35,600.397 " fill="none" id="Vehicle-to-VFM" style="stroke:#181818;stroke-width:0.6999999999999998;"/><polygon fill="#181818" points="455.35,604.597,458.15,598.297,455.35,601.097,452.55,598.297,455.35,604.597" style="stroke:#181818;stroke-width:0.6999999999999998;"/><text fill="#000000" font-family="sans-serif" font-size="9.1" lengthAdjust="spacing" textLength="52.5" x="456.05" y="581.0198">registered by</text><text fill="#000000" font-family="sans-serif" font-size="9.1" lengthAdjust="spacing" textLength="3.5" x="451.4234" y="596.9469">*</text></g><!--SRC=[nLGzRzim4DtrAmWljXivQ5SF0G870ToYIzsaCqrT9C8KgHof16gH_zwZH4bKPATZFHZtyNZt-Ex4fJr9NN7a9IkDDg90Km9pM4CoPYekJZo7WsiKC0JXkCvL3B05pyohr3bxuih66IKrkAO2LXdLU2TPdaaQT2Q9JWd5hRrr3kMnTh0NHX_aRs2VasIfuCanPnZAl70iavwED3gXNtkAFTv_Pt-IjzuzDDP1-M01AShefta9hG4bbwgrAWA-6imwfp34SZZ_azlJZZl83JQXmeOTY1bTDWChK5PTVv-vci1NKNuzLdo4GWeIiYzsHAwpO9Sc0nNibmwtlmk-LogOEHfhVu6Ne4zox9EYHWJjlfN1HyWbQO1tH2k4k7YkfPMUM1GL1OXJNTqZFDUWHTFVAH1UjKJJZcCwqajRPcbCActvf2ELTC8YVKyWdVLUXzxaqaQjUbS3P7RNOIb8-q1Hor_0wxvoz3SN-WTKXbfrynkpGrY27MOH1uUcERYzjhJq0bPhjfs0HiZEACMFXbDyx1ZNcD69auUJLEfywgivda_SrguWTQNWNiS99hvcftlelZFQ8J4TFeUhouYX5quH_s4HDfS4VFCV_cIKcvlfQBTCXk6roCbD7lRi-kQo03DyfDxrh0t6Qp7ZjFYoc2_aXmseG_oQ_0ixt_RjMT4-gEFBH3ofGB18kNdvpUPcpFjNrmV6vtOuqiONdnRjoxmTvWyPEpR9Nm00]--></g></svg>