<?xml version="1.0" encoding="us-ascii" standalone="no"?><svg xmlns="http://www.w3.org/2000/svg" xmlns:xlink="http://www.w3.org/1999/xlink" contentStyleType="text/css" height="437.4px" preserveAspectRatio="none" style="width:716px;height:437px;background:#FFFFFF;" version="1.1" viewBox="0 0 716 437" width="716.4px" zoomAndPan="magnify"><defs/><g><rect fill="#FFFFFF" height="258.2191" style="stroke:#181818;stroke-width:0.9;" width="9" x="298.8" y="112.6037"/><rect fill="#FFFFFF" height="28.1619" style="stroke:#181818;stroke-width:0.9;" width="9" x="432" y="164.4275"/><rect fill="#FFFFFF" height="28.1619" style="stroke:#181818;stroke-width:0.9;" width="9" x="528.3" y="220.7514"/><rect fill="#FFFFFF" height="28.1619" style="stroke:#181818;stroke-width:0.9;" width="9" x="639.45" y="308.199"/><rect fill="none" height="217.4572" style="stroke:#000000;stroke-width:1.35;" width="497.7" x="213.75" y="126.1037"/><line style="stroke:#181818;stroke-width:0.45;stroke-dasharray:5.0,5.0;" x1="302.85" x2="302.85" y1="51.518" y2="387.0229"/><line style="stroke:#181818;stroke-width:0.45;stroke-dasharray:5.0,5.0;" x1="436.05" x2="436.05" y1="51.518" y2="387.0229"/><line style="stroke:#181818;stroke-width:0.45;stroke-dasharray:5.0,5.0;" x1="532.35" x2="532.35" y1="51.518" y2="387.0229"/><line style="stroke:#181818;stroke-width:0.45;stroke-dasharray:5.0,5.0;" x1="643.95" x2="643.95" y1="51.518" y2="387.0229"/><rect fill="#E3E3E3" height="29.359" rx="2.25" ry="2.25" style="stroke:#181818;stroke-width:0.45;" width="161.1" x="222.75" y="21.259"/><text fill="#000000" font-family="sans-serif" font-size="12.6" lengthAdjust="spacing" textLength="148.5" x="229.05" y="41.1557">:RegisterVehicleController</text><rect fill="#E3E3E3" height="29.359" rx="2.25" ry="2.25" style="stroke:#181818;stroke-width:0.45;" width="161.1" x="222.75" y="386.1229"/><text fill="#000000" font-family="sans-serif" font-size="12.6" lengthAdjust="spacing" textLength="148.5" x="229.05" y="406.0195">:RegisterVehicleController</text><rect fill="#E3E3E3" height="29.359" rx="2.25" ry="2.25" style="stroke:#181818;stroke-width:0.45;" width="87.3" x="392.85" y="21.259"/><text fill="#000000" font-family="sans-serif" font-size="12.6" lengthAdjust="spacing" textLength="74.7" x="399.15" y="41.1557">:Repositories</text><rect fill="#E3E3E3" height="29.359" rx="2.25" ry="2.25" style="stroke:#181818;stroke-width:0.45;" width="87.3" x="392.85" y="386.1229"/><text fill="#000000" font-family="sans-serif" font-size="12.6" lengthAdjust="spacing" textLength="74.7" x="399.15" y="406.0195">:Repositories</text><rect fill="#E3E3E3" height="46.118" rx="2.25" ry="2.25" style="stroke:#181818;stroke-width:0.45;" width="87.3" x="489.15" y="4.5"/><text fill="#000000" font-family="sans-serif" font-size="12.6" lengthAdjust="spacing" textLength="66.6" x="499.5" y="24.3967">repositories</text><text fill="#000000" font-family="sans-serif" font-size="12.6" lengthAdjust="spacing" textLength="74.7" x="495.45" y="41.1557">:Repositories</text><rect fill="#E3E3E3" height="46.118" rx="2.25" ry="2.25" style="stroke:#181818;stroke-width:0.45;" width="87.3" x="489.15" y="386.1229"/><text fill="#000000" font-family="sans-serif" font-size="12.6" lengthAdjust="spacing" textLength="66.6" x="499.5" y="406.0195">repositories</text><text fill="#000000" font-family="sans-serif" font-size="12.6" lengthAdjust="spacing" textLength="74.7" x="495.45" y="422.7785">:Repositories</text><rect fill="#E3E3E3" height="46.118" rx="2.25" ry="2.25" style="stroke:#181818;stroke-width:0.45;" width="117" x="585.45" y="4.5"/><text fill="#000000" font-family="sans-serif" font-size="12.6" lengthAdjust="spacing" textLength="104.4" x="591.75" y="24.3967">vehicleRepository:</text><text fill="#000000" font-family="sans-serif" font-size="12.6" lengthAdjust="spacing" textLength="100.8" x="593.55" y="41.1557">vehicleRepository</text><rect fill="#E3E3E3" height="46.118" rx="2.25" ry="2.25" style="stroke:#181818;stroke-width:0.45;" width="117" x="585.45" y="386.1229"/><text fill="#000000" font-family="sans-serif" font-size="12.6" lengthAdjust="spacing" textLength="104.4" x="591.75" y="406.0195">vehicleRepository:</text><text fill="#000000" font-family="sans-serif" font-size="12.6" lengthAdjust="spacing" textLength="100.8" x="593.55" y="422.7785">vehicleRepository</text><rect fill="#FFFFFF" height="258.2191" style="stroke:#181818;stroke-width:0.9;" width="9" x="298.8" y="112.6037"/><rect fill="#FFFFFF" height="28.1619" style="stroke:#181818;stroke-width:0.9;" width="9" x="432" y="164.4275"/><rect fill="#FFFFFF" height="28.1619" style="stroke:#181818;stroke-width:0.9;" width="9" x="528.3" y="220.7514"/><rect fill="#FFFFFF" height="28.1619" style="stroke:#181818;stroke-width:0.9;" width="9" x="639.45" y="308.199"/><polygon fill="#181818" points="288,109.0037,297,112.6037,288,116.2037,291.6,112.6037" style="stroke:#181818;stroke-width:0.9;"/><line style="stroke:#181818;stroke-width:0.9;" x1="0" x2="293.4" y1="112.6037" y2="112.6037"/><text fill="#000000" font-family="sans-serif" font-size="11.7" font-weight="bold" lengthAdjust="spacing" textLength="12.6" x="6.3" y="92.3054">12</text><text fill="#000000" font-family="sans-serif" font-size="11.7" lengthAdjust="spacing" textLength="265.5" x="22.5" y="76.7435">registerVehicle (brand, model, vehicleID, type, tare,</text><text fill="#000000" font-family="sans-serif" font-size="11.7" lengthAdjust="spacing" textLength="200.7" x="22.5" y="92.3054">grossWeight, currentKm, registerDate,</text><text fill="#000000" font-family="sans-serif" font-size="11.7" lengthAdjust="spacing" textLength="189.9" x="22.5" y="107.8673">acquisitionDate, checkupFrequency)</text><path d="M213.75,126.1037 L358.65,126.1037 L358.65,134.4656 L349.65,143.4656 L213.75,143.4656 L213.75,126.1037 " fill="#EEEEEE" style="stroke:#000000;stroke-width:1.35;"/><rect fill="none" height="217.4572" style="stroke:#000000;stroke-width:1.35;" width="497.7" x="213.75" y="126.1037"/><text fill="#000000" font-family="sans-serif" font-size="11.7" font-weight="bold" lengthAdjust="spacing" textLength="104.4" x="227.25" y="139.6292">Get Task Category</text><polygon fill="#181818" points="421.2,160.8275,430.2,164.4275,421.2,168.0275,424.8,164.4275" style="stroke:#181818;stroke-width:0.9;"/><line style="stroke:#181818;stroke-width:0.9;" x1="307.8" x2="426.6" y1="164.4275" y2="164.4275"/><text fill="#000000" font-family="sans-serif" font-size="11.7" font-weight="bold" lengthAdjust="spacing" textLength="22.5" x="314.1" y="159.6911">12.1</text><text fill="#000000" font-family="sans-serif" font-size="11.7" lengthAdjust="spacing" textLength="67.5" x="340.2" y="159.6911">getInstance()</text><polygon fill="#181818" points="317.7,188.9895,308.7,192.5895,317.7,196.1895,314.1,192.5895" style="stroke:#181818;stroke-width:0.9;"/><line style="stroke:#181818;stroke-width:0.9;stroke-dasharray:2.0,2.0;" x1="312.3" x2="435.6" y1="192.5895" y2="192.5895"/><text fill="#000000" font-family="sans-serif" font-size="11.7" font-weight="bold" lengthAdjust="spacing" textLength="22.5" x="323.1" y="187.853">12.2</text><text fill="#000000" font-family="sans-serif" font-size="11.7" lengthAdjust="spacing" textLength="60.3" x="349.2" y="187.853">repositories</text><polygon fill="#181818" points="517.5,217.1514,526.5,220.7514,517.5,224.3514,521.1,220.7514" style="stroke:#181818;stroke-width:0.9;"/><line style="stroke:#181818;stroke-width:0.9;" x1="307.8" x2="522.9" y1="220.7514" y2="220.7514"/><text fill="#000000" font-family="sans-serif" font-size="11.7" font-weight="bold" lengthAdjust="spacing" textLength="22.5" x="314.1" y="216.0149">12.3</text><text fill="#000000" font-family="sans-serif" font-size="11.7" lengthAdjust="spacing" textLength="124.2" x="340.2" y="216.0149">getVeehicleRepository()</text><polygon fill="#181818" points="317.7,245.3133,308.7,248.9133,317.7,252.5133,314.1,248.9133" style="stroke:#181818;stroke-width:0.9;"/><line style="stroke:#181818;stroke-width:0.9;" x1="312.3" x2="531.9" y1="248.9133" y2="248.9133"/><text fill="#000000" font-family="sans-serif" font-size="11.7" font-weight="bold" lengthAdjust="spacing" textLength="22.5" x="323.1" y="244.1769">12.4</text><text fill="#000000" font-family="sans-serif" font-size="11.7" lengthAdjust="spacing" textLength="90.9" x="349.2" y="244.1769">vehicleRepository</text><polygon fill="#181818" points="628.65,304.599,637.65,308.199,628.65,311.799,632.25,308.199" style="stroke:#181818;stroke-width:0.9;"/><line style="stroke:#181818;stroke-width:0.9;" x1="307.8" x2="634.05" y1="308.199" y2="308.199"/><text fill="#000000" font-family="sans-serif" font-size="11.7" font-weight="bold" lengthAdjust="spacing" textLength="22.5" x="314.1" y="287.9007">12.5</text><text fill="#000000" font-family="sans-serif" font-size="11.7" lengthAdjust="spacing" textLength="265.5" x="340.2" y="272.3388">registerVehicle (brand, model, vehicleID, type, tare,</text><text fill="#000000" font-family="sans-serif" font-size="11.7" lengthAdjust="spacing" textLength="200.7" x="340.2" y="287.9007">grossWeight, currentKm, registerDate,</text><text fill="#000000" font-family="sans-serif" font-size="11.7" lengthAdjust="spacing" textLength="189.9" x="340.2" y="303.4626">acquisitionDate, checkupFrequency)</text><polygon fill="#181818" points="317.7,332.7609,308.7,336.3609,317.7,339.9609,314.1,336.3609" style="stroke:#181818;stroke-width:0.9;"/><line style="stroke:#181818;stroke-width:0.9;stroke-dasharray:2.0,2.0;" x1="312.3" x2="643.05" y1="336.3609" y2="336.3609"/><text fill="#000000" font-family="sans-serif" font-size="11.7" font-weight="bold" lengthAdjust="spacing" textLength="22.5" x="323.1" y="331.6245">12.6</text><text fill="#000000" font-family="sans-serif" font-size="11.7" lengthAdjust="spacing" textLength="44.1" x="349.2" y="331.6245">success</text><polygon fill="#181818" points="9.9,367.2229,0.9,370.8229,9.9,374.4229,6.3,370.8229" style="stroke:#181818;stroke-width:0.9;"/><line style="stroke:#181818;stroke-width:0.9;stroke-dasharray:2.0,2.0;" x1="4.5" x2="302.4" y1="370.8229" y2="370.8229"/><text fill="#000000" font-family="sans-serif" font-size="11.7" font-weight="bold" lengthAdjust="spacing" textLength="12.6" x="15.3" y="366.0864">13</text><text fill="#000000" font-family="sans-serif" font-size="11.7" lengthAdjust="spacing" textLength="44.1" x="31.5" y="366.0864">success</text><!--SRC=[pL9DQy904BtdLmoUAYG5svkKGh6qI3qK5NlnicwcoM8o6_V3uh_lPgFvC6dfiNi8P7RdpNjldjuBAfXYEUII94-Lp16CiXZe-gPWVCyIN9bJXg2G6qP9rdwWKnRBBq49VB9COn2uiX5S58mCZAPBJ8Gsg3QO2fxXJ99HCijGZO1fcAsNYrv38RKmKWdK_arTEAr4ETj8whQeLiUM-W3lYwTrj-DOaMcGfrlgrNplckdzZ1bCNA6v2W9c7GsRxr31v2w87hqIc3g7EdBXPgSOnQ4pECOiXFEG-NC8vbIW-pA5uPOI9RN-G96a9WHkbK8oRtbOmpqx2Y5iYV635Ow3a5ILU8fyRuiNXGUBn4_ZAsgt4rVWHXpTwyfjSCUDimMyel7wu2BGtvN7Yt6Y1gnt6XCqSz8k21nlndLFFMLeN_MhyWoXHcSBImURzTLjCVuD_aAyN7d5T8FNUntYx2FI8UaHchtsqZ54hOjouJ8SeN-HbPuFFyMzxSmFUgB6B6qvHpsulTy68CLLCglVTexlVUKXYgv712ri7-_W6m00]--></g></svg>