<?xml version="1.0" encoding="us-ascii" standalone="no"?><svg xmlns="http://www.w3.org/2000/svg" xmlns:xlink="http://www.w3.org/1999/xlink" contentStyleType="text/css" height="648.2px" preserveAspectRatio="none" style="width:1114px;height:648px;background:#FFFFFF;" version="1.1" viewBox="0 0 1114 648" width="1114.4px" zoomAndPan="magnify"><defs/><g><rect fill="#FFFFFF" height="512.3275" style="stroke:#181818;stroke-width:0.6999999999999998;" width="7" x="86.45" y="65.5348"/><rect fill="#FFFFFF" height="52.4385" style="stroke:#181818;stroke-width:0.6999999999999998;" width="7" x="348.25" y="81.8385"/><rect fill="#FFFFFF" height="21.9037" style="stroke:#181818;stroke-width:0.6999999999999998;" width="7" x="348.25" y="180.3881"/><rect fill="#FFFFFF" height="353.6668" style="stroke:#181818;stroke-width:0.6999999999999998;" width="7" x="348.25" y="224.1955"/><rect fill="#FFFFFF" height="263.7482" style="stroke:#181818;stroke-width:0.6999999999999998;" width="7" x="582.75" y="270.3066"/><rect fill="#FFFFFF" height="21.9037" style="stroke:#181818;stroke-width:0.6999999999999998;" width="7" x="686.35" y="292.2104"/><rect fill="#FFFFFF" height="21.9037" style="stroke:#181818;stroke-width:0.6999999999999998;" width="7" x="761.25" y="336.0178"/><rect fill="#FFFFFF" height="130.0223" style="stroke:#181818;stroke-width:0.6999999999999998;" width="7" x="847.7" y="404.0326"/><line style="stroke:#181818;stroke-width:0.3499999999999999;stroke-dasharray:5.0,5.0;" x1="89.6" x2="89.6" y1="58.5348" y2="590.4623"/><line style="stroke:#181818;stroke-width:0.3499999999999999;stroke-dasharray:5.0,5.0;" x1="351.4" x2="351.4" y1="58.5348" y2="590.4623"/><line style="stroke:#181818;stroke-width:0.3499999999999999;stroke-dasharray:5.0,5.0;" x1="585.9" x2="585.9" y1="109.7059" y2="590.4623"/><line style="stroke:#181818;stroke-width:0.3499999999999999;stroke-dasharray:5.0,5.0;" x1="689.5" x2="689.5" y1="58.5348" y2="590.4623"/><line style="stroke:#181818;stroke-width:0.3499999999999999;stroke-dasharray:5.0,5.0;" x1="764.4" x2="764.4" y1="58.5348" y2="590.4623"/><line style="stroke:#181818;stroke-width:0.3499999999999999;stroke-dasharray:5.0,5.0;" x1="851.2" x2="851.2" y1="58.5348" y2="590.4623"/><line style="stroke:#181818;stroke-width:0.3499999999999999;stroke-dasharray:5.0,5.0;" x1="1087.8" x2="1087.8" y1="58.5348" y2="590.4623"/><text fill="#000000" font-family="sans-serif" font-size="9.8" lengthAdjust="spacing" textLength="168.7" x="3.5" y="56.0752">Vehicle and Equipment Fleet Manager</text><ellipse cx="89.95" cy="9.45" fill="#E3E3E3" rx="5.6" ry="5.6" style="stroke:#181818;stroke-width:0.3499999999999999;"/><path d="M89.95,15.05 L89.95,33.95 M80.85,20.65 L99.05,20.65 M89.95,33.95 L80.85,44.45 M89.95,33.95 L99.05,44.45 " fill="none" style="stroke:#181818;stroke-width:0.3499999999999999;"/><text fill="#000000" font-family="sans-serif" font-size="9.8" lengthAdjust="spacing" textLength="168.7" x="3.5" y="600.3375">Vehicle and Equipment Fleet Manager</text><ellipse cx="89.95" cy="608.7471" fill="#E3E3E3" rx="5.6" ry="5.6" style="stroke:#181818;stroke-width:0.3499999999999999;"/><path d="M89.95,614.3471 L89.95,633.2471 M80.85,619.9471 L99.05,619.9471 M89.95,633.2471 L80.85,643.7471 M89.95,633.2471 L99.05,643.7471 " fill="none" style="stroke:#181818;stroke-width:0.3499999999999999;"/><rect fill="#E3E3E3" height="22.8348" rx="1.75" ry="1.75" style="stroke:#181818;stroke-width:0.3499999999999999;" width="90.3" x="306.6" y="35"/><text fill="#000000" font-family="sans-serif" font-size="9.8" lengthAdjust="spacing" textLength="80.5" x="311.5" y="50.4752">:RegisterVehicleUI</text><rect fill="#E3E3E3" height="22.8348" rx="1.75" ry="1.75" style="stroke:#181818;stroke-width:0.3499999999999999;" width="90.3" x="306.6" y="589.7623"/><text fill="#000000" font-family="sans-serif" font-size="9.8" lengthAdjust="spacing" textLength="80.5" x="311.5" y="605.2375">:RegisterVehicleUI</text><rect fill="#E3E3E3" height="22.8348" rx="1.75" ry="1.75" style="stroke:#181818;stroke-width:0.3499999999999999;" width="125.3" x="523.6" y="589.7623"/><text fill="#000000" font-family="sans-serif" font-size="9.8" lengthAdjust="spacing" textLength="115.5" x="528.5" y="605.2375">:RegisterVehicleController</text><rect fill="#E3E3E3" height="22.8348" rx="1.75" ry="1.75" style="stroke:#181818;stroke-width:0.3499999999999999;" width="67.9" x="655.9" y="35"/><text fill="#000000" font-family="sans-serif" font-size="9.8" lengthAdjust="spacing" textLength="58.1" x="660.8" y="50.4752">:Repositories</text><rect fill="#E3E3E3" height="22.8348" rx="1.75" ry="1.75" style="stroke:#181818;stroke-width:0.3499999999999999;" width="67.9" x="655.9" y="589.7623"/><text fill="#000000" font-family="sans-serif" font-size="9.8" lengthAdjust="spacing" textLength="58.1" x="660.8" y="605.2375">:Repositories</text><rect fill="#E3E3E3" height="35.8695" rx="1.75" ry="1.75" style="stroke:#181818;stroke-width:0.3499999999999999;" width="67.9" x="730.8" y="21.9652"/><text fill="#000000" font-family="sans-serif" font-size="9.8" lengthAdjust="spacing" textLength="51.8" x="738.85" y="37.4404">repositories</text><text fill="#000000" font-family="sans-serif" font-size="9.8" lengthAdjust="spacing" textLength="58.1" x="735.7" y="50.4752">:Repositories</text><rect fill="#E3E3E3" height="35.8695" rx="1.75" ry="1.75" style="stroke:#181818;stroke-width:0.3499999999999999;" width="67.9" x="730.8" y="589.7623"/><text fill="#000000" font-family="sans-serif" font-size="9.8" lengthAdjust="spacing" textLength="51.8" x="738.85" y="605.2375">repositories</text><text fill="#000000" font-family="sans-serif" font-size="9.8" lengthAdjust="spacing" textLength="58.1" x="735.7" y="618.2723">:Repositories</text><rect fill="#E3E3E3" height="35.8695" rx="1.75" ry="1.75" style="stroke:#181818;stroke-width:0.3499999999999999;" width="91" x="805.7" y="21.9652"/><text fill="#000000" font-family="sans-serif" font-size="9.8" lengthAdjust="spacing" textLength="81.2" x="810.6" y="37.4404">vehicleRepository:</text><text fill="#000000" font-family="sans-serif" font-size="9.8" lengthAdjust="spacing" textLength="78.4" x="812" y="50.4752">vehicleRepository</text><rect fill="#E3E3E3" height="35.8695" rx="1.75" ry="1.75" style="stroke:#181818;stroke-width:0.3499999999999999;" width="91" x="805.7" y="589.7623"/><text fill="#000000" font-family="sans-serif" font-size="9.8" lengthAdjust="spacing" textLength="81.2" x="810.6" y="605.2375">vehicleRepository:</text><text fill="#000000" font-family="sans-serif" font-size="9.8" lengthAdjust="spacing" textLength="78.4" x="812" y="618.2723">vehicleRepository</text><rect fill="#E3E3E3" height="35.8695" rx="1.75" ry="1.75" style="stroke:#181818;stroke-width:0.3499999999999999;" width="44.8" x="1065.4" y="21.9652"/><text fill="#000000" font-family="sans-serif" font-size="9.8" lengthAdjust="spacing" textLength="35" x="1070.3" y="37.4404">Vehicle:</text><text fill="#000000" font-family="sans-serif" font-size="9.8" lengthAdjust="spacing" textLength="30.8" x="1073.8" y="50.4752">vehicle</text><rect fill="#E3E3E3" height="35.8695" rx="1.75" ry="1.75" style="stroke:#181818;stroke-width:0.3499999999999999;" width="44.8" x="1065.4" y="589.7623"/><text fill="#000000" font-family="sans-serif" font-size="9.8" lengthAdjust="spacing" textLength="35" x="1070.3" y="605.2375">Vehicle:</text><text fill="#000000" font-family="sans-serif" font-size="9.8" lengthAdjust="spacing" textLength="30.8" x="1073.8" y="618.2723">vehicle</text><rect fill="#FFFFFF" height="512.3275" style="stroke:#181818;stroke-width:0.6999999999999998;" width="7" x="86.45" y="65.5348"/><rect fill="#FFFFFF" height="52.4385" style="stroke:#181818;stroke-width:0.6999999999999998;" width="7" x="348.25" y="81.8385"/><rect fill="#FFFFFF" height="21.9037" style="stroke:#181818;stroke-width:0.6999999999999998;" width="7" x="348.25" y="180.3881"/><rect fill="#FFFFFF" height="353.6668" style="stroke:#181818;stroke-width:0.6999999999999998;" width="7" x="348.25" y="224.1955"/><rect fill="#FFFFFF" height="263.7482" style="stroke:#181818;stroke-width:0.6999999999999998;" width="7" x="582.75" y="270.3066"/><rect fill="#FFFFFF" height="21.9037" style="stroke:#181818;stroke-width:0.6999999999999998;" width="7" x="686.35" y="292.2104"/><rect fill="#FFFFFF" height="21.9037" style="stroke:#181818;stroke-width:0.6999999999999998;" width="7" x="761.25" y="336.0178"/><rect fill="#FFFFFF" height="130.0223" style="stroke:#181818;stroke-width:0.6999999999999998;" width="7" x="847.7" y="404.0326"/><polygon fill="#181818" points="339.85,79.0385,346.85,81.8385,339.85,84.6385,342.65,81.8385" style="stroke:#181818;stroke-width:0.6999999999999998;"/><line style="stroke:#181818;stroke-width:0.6999999999999998;" x1="93.45" x2="344.05" y1="81.8385" y2="81.8385"/><text fill="#000000" font-family="sans-serif" font-size="9.1" font-weight="bold" lengthAdjust="spacing" textLength="4.9" x="98.35" y="78.1546">1</text><text fill="#000000" font-family="sans-serif" font-size="9.1" lengthAdjust="spacing" textLength="119.7" x="106.05" y="78.1546">Requests to register a vehicle</text><polygon fill="#181818" points="515.2,100.9422,522.2,103.7422,515.2,106.5422,518,103.7422" style="stroke:#181818;stroke-width:0.6999999999999998;"/><line style="stroke:#181818;stroke-width:0.6999999999999998;" x1="355.25" x2="519.4" y1="103.7422" y2="103.7422"/><text fill="#000000" font-family="sans-serif" font-size="9.1" font-weight="bold" lengthAdjust="spacing" textLength="4.9" x="360.15" y="100.0583">2</text><text fill="#000000" font-family="sans-serif" font-size="9.1" lengthAdjust="spacing" textLength="25.2" x="367.85" y="100.0583">create</text><rect fill="#E3E3E3" height="22.8348" rx="1.75" ry="1.75" style="stroke:#181818;stroke-width:0.3499999999999999;" width="125.3" x="523.6" y="87.4385"/><text fill="#000000" font-family="sans-serif" font-size="9.8" lengthAdjust="spacing" textLength="115.5" x="528.5" y="102.9137">:RegisterVehicleController</text><polygon fill="#181818" points="101.15,131.477,94.15,134.277,101.15,137.077,98.35,134.277" style="stroke:#181818;stroke-width:0.6999999999999998;"/><line style="stroke:#181818;stroke-width:0.6999999999999998;stroke-dasharray:2.0,2.0;" x1="96.95" x2="351.05" y1="134.277" y2="134.277"/><text fill="#000000" font-family="sans-serif" font-size="9.1" font-weight="bold" lengthAdjust="spacing" textLength="4.9" x="105.35" y="130.5931">3</text><text fill="#000000" font-family="sans-serif" font-size="9.1" lengthAdjust="spacing" textLength="58.8" x="113.05" y="130.5931">Requests data</text><polygon fill="#181818" points="339.85,177.5881,346.85,180.3881,339.85,183.1881,342.65,180.3881" style="stroke:#181818;stroke-width:0.6999999999999998;"/><line style="stroke:#181818;stroke-width:0.6999999999999998;" x1="93.45" x2="344.05" y1="180.3881" y2="180.3881"/><text fill="#000000" font-family="sans-serif" font-size="9.1" font-weight="bold" lengthAdjust="spacing" textLength="4.9" x="98.35" y="164.6005">4</text><text fill="#000000" font-family="sans-serif" font-size="9.1" lengthAdjust="spacing" textLength="233.8" x="106.05" y="152.4968">Types requested data (brand, model, vehicleID, type, tare,</text><text fill="#000000" font-family="sans-serif" font-size="9.1" lengthAdjust="spacing" textLength="156.1" x="106.05" y="164.6005">grossWeight, currentKm, registerDate,</text><text fill="#000000" font-family="sans-serif" font-size="9.1" lengthAdjust="spacing" textLength="147.7" x="106.05" y="176.7042">acquisitionDate, checkupFrequency)</text><polygon fill="#181818" points="101.15,199.4918,94.15,202.2918,101.15,205.0918,98.35,202.2918" style="stroke:#181818;stroke-width:0.6999999999999998;"/><line style="stroke:#181818;stroke-width:0.6999999999999998;stroke-dasharray:2.0,2.0;" x1="96.95" x2="351.05" y1="202.2918" y2="202.2918"/><text fill="#000000" font-family="sans-serif" font-size="9.1" font-weight="bold" lengthAdjust="spacing" textLength="4.9" x="105.35" y="198.6079">5</text><text fill="#000000" font-family="sans-serif" font-size="9.1" lengthAdjust="spacing" textLength="181.3" x="113.05" y="198.6079">shows selected category and requested data</text><polygon fill="#181818" points="339.85,221.3955,346.85,224.1955,339.85,226.9955,342.65,224.1955" style="stroke:#181818;stroke-width:0.6999999999999998;"/><line style="stroke:#181818;stroke-width:0.6999999999999998;" x1="93.45" x2="344.05" y1="224.1955" y2="224.1955"/><text fill="#000000" font-family="sans-serif" font-size="9.1" font-weight="bold" lengthAdjust="spacing" textLength="4.9" x="98.35" y="220.5116">6</text><text fill="#000000" font-family="sans-serif" font-size="9.1" lengthAdjust="spacing" textLength="52.5" x="106.05" y="220.5116">submits data</text><polygon fill="#181818" points="574.35,267.5066,581.35,270.3066,574.35,273.1066,577.15,270.3066" style="stroke:#181818;stroke-width:0.6999999999999998;"/><line style="stroke:#181818;stroke-width:0.6999999999999998;" x1="355.25" x2="578.55" y1="270.3066" y2="270.3066"/><text fill="#000000" font-family="sans-serif" font-size="9.1" font-weight="bold" lengthAdjust="spacing" textLength="4.9" x="360.15" y="254.519">7</text><text fill="#000000" font-family="sans-serif" font-size="9.1" lengthAdjust="spacing" textLength="206.5" x="367.85" y="242.4153">registerVehicle (brand, model, vehicleID, type, tare,</text><text fill="#000000" font-family="sans-serif" font-size="9.1" lengthAdjust="spacing" textLength="156.1" x="367.85" y="254.519">grossWeight, currentKm, registerDate,</text><text fill="#000000" font-family="sans-serif" font-size="9.1" lengthAdjust="spacing" textLength="147.7" x="367.85" y="266.6228">acquisitionDate, checkupFrequency)</text><polygon fill="#181818" points="677.95,289.4104,684.95,292.2104,677.95,295.0104,680.75,292.2104" style="stroke:#181818;stroke-width:0.6999999999999998;"/><line style="stroke:#181818;stroke-width:0.6999999999999998;" x1="589.75" x2="682.15" y1="292.2104" y2="292.2104"/><text fill="#000000" font-family="sans-serif" font-size="9.1" font-weight="bold" lengthAdjust="spacing" textLength="4.9" x="594.65" y="288.5265">8</text><text fill="#000000" font-family="sans-serif" font-size="9.1" lengthAdjust="spacing" textLength="52.5" x="602.35" y="288.5265">getInstance()</text><polygon fill="#181818" points="597.45,311.3141,590.45,314.1141,597.45,316.9141,594.65,314.1141" style="stroke:#181818;stroke-width:0.6999999999999998;"/><line style="stroke:#181818;stroke-width:0.6999999999999998;stroke-dasharray:2.0,2.0;" x1="593.25" x2="689.15" y1="314.1141" y2="314.1141"/><text fill="#000000" font-family="sans-serif" font-size="9.1" font-weight="bold" lengthAdjust="spacing" textLength="4.9" x="601.65" y="310.4302">9</text><text fill="#000000" font-family="sans-serif" font-size="9.1" lengthAdjust="spacing" textLength="46.9" x="609.35" y="310.4302">repositories</text><polygon fill="#181818" points="752.85,333.2178,759.85,336.0178,752.85,338.8178,755.65,336.0178" style="stroke:#181818;stroke-width:0.6999999999999998;"/><line style="stroke:#181818;stroke-width:0.6999999999999998;" x1="589.75" x2="757.05" y1="336.0178" y2="336.0178"/><text fill="#000000" font-family="sans-serif" font-size="9.1" font-weight="bold" lengthAdjust="spacing" textLength="9.8" x="594.65" y="332.3339">10</text><text fill="#000000" font-family="sans-serif" font-size="9.1" lengthAdjust="spacing" textLength="91.7" x="607.25" y="332.3339">getVehicleRepository()</text><polygon fill="#181818" points="597.45,355.1215,590.45,357.9215,597.45,360.7215,594.65,357.9215" style="stroke:#181818;stroke-width:0.6999999999999998;"/><line style="stroke:#181818;stroke-width:0.6999999999999998;" x1="593.25" x2="764.05" y1="357.9215" y2="357.9215"/><text fill="#000000" font-family="sans-serif" font-size="9.1" font-weight="bold" lengthAdjust="spacing" textLength="9.8" x="601.65" y="354.2376">11</text><text fill="#000000" font-family="sans-serif" font-size="9.1" lengthAdjust="spacing" textLength="70.7" x="614.25" y="354.2376">vehicleRepository</text><polygon fill="#181818" points="839.3,401.2326,846.3,404.0326,839.3,406.8326,842.1,404.0326" style="stroke:#181818;stroke-width:0.6999999999999998;"/><line style="stroke:#181818;stroke-width:0.6999999999999998;" x1="589.75" x2="843.5" y1="404.0326" y2="404.0326"/><text fill="#000000" font-family="sans-serif" font-size="9.1" font-weight="bold" lengthAdjust="spacing" textLength="9.8" x="594.65" y="388.245">12</text><text fill="#000000" font-family="sans-serif" font-size="9.1" lengthAdjust="spacing" textLength="203.7" x="607.25" y="376.1413">registerVehicle(brand, model, vehicleID, type, tare,</text><text fill="#000000" font-family="sans-serif" font-size="9.1" lengthAdjust="spacing" textLength="156.1" x="607.25" y="388.245">grossWeight, currentKm, registerDate,</text><text fill="#000000" font-family="sans-serif" font-size="9.1" lengthAdjust="spacing" textLength="147.7" x="607.25" y="400.3487">acquisitionDate, checkupFrequency)</text><polygon fill="#181818" points="1079.4,447.3437,1086.4,450.1437,1079.4,452.9437,1082.2,450.1437" style="stroke:#181818;stroke-width:0.6999999999999998;"/><line style="stroke:#181818;stroke-width:0.6999999999999998;" x1="854.7" x2="1083.6" y1="450.1437" y2="450.1437"/><text fill="#000000" font-family="sans-serif" font-size="9.1" font-weight="bold" lengthAdjust="spacing" textLength="9.8" x="859.6" y="434.3562">13</text><text fill="#000000" font-family="sans-serif" font-size="9.1" lengthAdjust="spacing" textLength="203.7" x="872.2" y="422.2524">registerVehicle(brand, model, vehicleID, type, tare,</text><text fill="#000000" font-family="sans-serif" font-size="9.1" lengthAdjust="spacing" textLength="156.1" x="872.2" y="434.3562">grossWeight, currentKm, registerDate,</text><text fill="#000000" font-family="sans-serif" font-size="9.1" lengthAdjust="spacing" textLength="147.7" x="872.2" y="446.4599">acquisitionDate, checkupFrequency)</text><line style="stroke:#181818;stroke-width:0.6999999999999998;" x1="854.7" x2="884.1" y1="472.0475" y2="472.0475"/><line style="stroke:#181818;stroke-width:0.6999999999999998;" x1="884.1" x2="884.1" y1="472.0475" y2="481.1475"/><line style="stroke:#181818;stroke-width:0.6999999999999998;" x1="855.4" x2="884.1" y1="481.1475" y2="481.1475"/><polygon fill="#181818" points="862.4,478.3475,855.4,481.1475,862.4,483.9475,859.6,481.1475" style="stroke:#181818;stroke-width:0.6999999999999998;"/><text fill="#000000" font-family="sans-serif" font-size="9.1" font-weight="bold" lengthAdjust="spacing" textLength="9.8" x="859.6" y="468.3636">14</text><text fill="#000000" font-family="sans-serif" font-size="9.1" lengthAdjust="spacing" textLength="44.8" x="872.2" y="468.3636">addVehicle</text><line style="stroke:#181818;stroke-width:0.6999999999999998;" x1="854.7" x2="884.1" y1="503.0512" y2="503.0512"/><line style="stroke:#181818;stroke-width:0.6999999999999998;" x1="884.1" x2="884.1" y1="503.0512" y2="512.1512"/><line style="stroke:#181818;stroke-width:0.6999999999999998;" x1="855.4" x2="884.1" y1="512.1512" y2="512.1512"/><polygon fill="#181818" points="862.4,509.3512,855.4,512.1512,862.4,514.9512,859.6,512.1512" style="stroke:#181818;stroke-width:0.6999999999999998;"/><text fill="#000000" font-family="sans-serif" font-size="9.1" font-weight="bold" lengthAdjust="spacing" textLength="9.8" x="859.6" y="499.3673">15</text><text fill="#000000" font-family="sans-serif" font-size="9.1" lengthAdjust="spacing" textLength="60.2" x="872.2" y="499.3673">validateVehicle</text><polygon fill="#181818" points="593.95,531.2549,586.95,534.0549,593.95,536.8549,591.15,534.0549" style="stroke:#181818;stroke-width:0.6999999999999998;"/><line style="stroke:#181818;stroke-width:0.6999999999999998;stroke-dasharray:2.0,2.0;" x1="589.75" x2="850.5" y1="534.0549" y2="534.0549"/><text fill="#000000" font-family="sans-serif" font-size="9.1" font-weight="bold" lengthAdjust="spacing" textLength="9.8" x="598.15" y="530.371">16</text><text fill="#000000" font-family="sans-serif" font-size="9.1" lengthAdjust="spacing" textLength="34.3" x="610.75" y="530.371">success</text><polygon fill="#181818" points="362.95,553.1586,355.95,555.9586,362.95,558.7586,360.15,555.9586" style="stroke:#181818;stroke-width:0.6999999999999998;"/><line style="stroke:#181818;stroke-width:0.6999999999999998;stroke-dasharray:2.0,2.0;" x1="358.75" x2="585.55" y1="555.9586" y2="555.9586"/><text fill="#000000" font-family="sans-serif" font-size="9.1" font-weight="bold" lengthAdjust="spacing" textLength="9.8" x="367.15" y="552.2747">17</text><text fill="#000000" font-family="sans-serif" font-size="9.1" lengthAdjust="spacing" textLength="34.3" x="379.75" y="552.2747">success</text><polygon fill="#181818" points="97.65,575.0623,90.65,577.8623,97.65,580.6623,94.85,577.8623" style="stroke:#181818;stroke-width:0.6999999999999998;"/><line style="stroke:#181818;stroke-width:0.6999999999999998;stroke-dasharray:2.0,2.0;" x1="93.45" x2="351.05" y1="577.8623" y2="577.8623"/><text fill="#000000" font-family="sans-serif" font-size="9.1" font-weight="bold" lengthAdjust="spacing" textLength="9.8" x="101.85" y="574.1784">18</text><text fill="#000000" font-family="sans-serif" font-size="9.1" lengthAdjust="spacing" textLength="112" x="114.45" y="574.1784">Displays success message</text><!--SRC=[nLRBRjim4BppAnQ-D0cK7_2XG60tWD44A18dlVX2Knk9i4Gg9ENKVzyLzROe8uUYqK60g9tPdNr9zY1LmGtF8TTAYzJe7C6P4fdjtXHS77Y2p-wK8HWKZgia6nhObCVwGwe4tdXcaJ5UEgtAV8-6iM-fZ17Uj7Px_OTnuRI1nIkcKX0RLp7yU2zbaQDoS9yXEdZaYhoP1N0BT-j7HZwS5BBWPB5OFc4YhKFJCBnilDtBvhBPIYjdT9OrjAljqyC4K6WhAJY9rjjq1wTdMUabHME86I1sQahmw-5kEqOSws1wvkLEJSuyTiljOSKT9dJGlngpDTA80ngI1QloAuy4z9bZq5pq0BVVAKkm95tl9LfdmMagPfqbu2r5Z-cOABVj6H4GJPMzcnkY4WR9e8Uq9cHJUHpuYhdZdLcCG-uQFenmUohGKcmUYx47mzNUKBD4rAOnPb4RxcOTWIDpkdE3qKubHblx6sMIkWX4QGprrSyywfIkoMi4EyK5THrbLMfL7uaKnQ4ixhrR9KxNx3m9B2ZHflh3WiMCve9Y5KtHV6UF9R20zdFfjjpdSfYlsG3gCX34Z3lzYn8rYjMF5nltHNNvY2dom6YHa0JTHbbQBWAlhYVOZZmqbnFhwWfvkMtoLgMj7zS9V52bJxbhXLKZNojvFH_hIvByfWXgy8HzhIVBubBaOTOsrF26cVRJ_s-d-JpDRCLp-nbf93gqCvTVBlZpySyMZSTn4_w_O3loJD86mZdAIxHzizfI2BGNXskce6p6lDqhOuEwe_q63JizPmX_hfQmbhR8-Ccs993JZNv5Gejxy5XzQVy2]--></g></svg>