<?xml version="1.0" encoding="us-ascii" standalone="no"?><svg xmlns="http://www.w3.org/2000/svg" xmlns:xlink="http://www.w3.org/1999/xlink" contentStyleType="text/css" height="375px" preserveAspectRatio="none" style="width:377px;height:375px;background:#FFFFFF;" version="1.1" viewBox="0 0 377 375" width="377px" zoomAndPan="magnify"><defs/><g><!--class Green_Spaces--><g id="elem_Green_Spaces"><rect codeLine="14" fill="#F1F1F1" height="36.6211" id="Green_Spaces" rx="2.5" ry="2.5" style="stroke:#181818;stroke-width:0.5;" width="101" x="121" y="197"/><text fill="#000000" font-family="sans-serif" font-size="14" lengthAdjust="spacing" textLength="95" x="124" y="217.1074">Green_Spaces</text><line style="stroke:#181818;stroke-width:0.5;" x1="122" x2="221" y1="225.6211" y2="225.6211"/></g><!--class GSM--><g id="elem_GSM"><rect codeLine="18" fill="#F1F1F1" height="36.6211" id="GSM" rx="2.5" ry="2.5" style="stroke:#181818;stroke-width:0.5;" width="37" x="333" y="197"/><text fill="#000000" font-family="sans-serif" font-size="14" lengthAdjust="spacing" textLength="31" x="336" y="217.1074">GSM</text><line style="stroke:#181818;stroke-width:0.5;" x1="334" x2="369" y1="225.6211" y2="225.6211"/></g><!--class Garden--><g id="elem_Garden"><rect codeLine="21" fill="#F1F1F1" height="55.2422" id="Garden" rx="2.5" ry="2.5" style="stroke:#181818;stroke-width:0.5;" width="81" x="7" y="313"/><text fill="#000000" font-family="sans-serif" font-size="14" lengthAdjust="spacing" textLength="48" x="23.5" y="333.1074">Garden</text><line style="stroke:#181818;stroke-width:0.5;" x1="8" x2="87" y1="341.6211" y2="341.6211"/><text fill="#000000" font-family="sans-serif" font-size="14" lengthAdjust="spacing" textLength="69" x="13" y="360.7285">description</text></g><!--class Medium_Sized--><g id="elem_Medium_Sized"><rect codeLine="24" fill="#F1F1F1" height="55.2422" id="Medium_Sized" rx="2.5" ry="2.5" style="stroke:#181818;stroke-width:0.5;" width="97" x="123" y="313"/><text fill="#000000" font-family="sans-serif" font-size="14" lengthAdjust="spacing" textLength="91" x="126" y="333.1074">Medium_Sized</text><line style="stroke:#181818;stroke-width:0.5;" x1="124" x2="219" y1="341.6211" y2="341.6211"/><text fill="#000000" font-family="sans-serif" font-size="14" lengthAdjust="spacing" textLength="69" x="129" y="360.7285">description</text></g><!--class Large_Sized--><g id="elem_Large_Sized"><rect codeLine="27" fill="#F1F1F1" height="55.2422" id="Large_Sized" rx="2.5" ry="2.5" style="stroke:#181818;stroke-width:0.5;" width="85" x="255" y="313"/><text fill="#000000" font-family="sans-serif" font-size="14" lengthAdjust="spacing" textLength="79" x="258" y="333.1074">Large_Sized</text><line style="stroke:#181818;stroke-width:0.5;" x1="256" x2="339" y1="341.6211" y2="341.6211"/><text fill="#000000" font-family="sans-serif" font-size="14" lengthAdjust="spacing" textLength="69" x="261" y="360.7285">description</text></g><!--class Managers--><g id="elem_Managers"><rect codeLine="31" fill="#F1F1F1" height="111.1055" id="Managers" rx="2.5" ry="2.5" style="stroke:#181818;stroke-width:0.5;" width="69" x="227" y="7"/><text fill="#000000" font-family="sans-serif" font-size="14" lengthAdjust="spacing" textLength="63" x="230" y="27.1074">Managers</text><line style="stroke:#181818;stroke-width:0.5;" x1="228" x2="295" y1="35.6211" y2="35.6211"/><text fill="#000000" font-family="sans-serif" font-size="14" lengthAdjust="spacing" textLength="35" x="233" y="54.7285">name</text><text fill="#000000" font-family="sans-serif" font-size="14" lengthAdjust="spacing" textLength="33" x="233" y="73.3496">email</text><text fill="#000000" font-family="sans-serif" font-size="14" lengthAdjust="spacing" textLength="49" x="233" y="91.9707">position</text><text fill="#000000" font-family="sans-serif" font-size="14" lengthAdjust="spacing" textLength="40" x="233" y="110.5918">phone</text></g><!--link Managers to GSM--><g id="link_Managers_GSM"><path codeLine="38" d="M294.8,118.44 C300.71,128.27 306.81,138.43 312.5,148 C322.35,164.56 333.46,183.53 341.3,196.96 " fill="none" id="Managers-GSM" style="stroke:#181818;stroke-width:1.0;"/><polygon fill="#000000" points="330.0478,161.9477,327.9676,152.6674,322.91,155.6625,330.0478,161.9477" style="stroke:#000000;stroke-width:1.0;"/><text fill="#000000" font-family="sans-serif" font-size="13" lengthAdjust="spacing" textLength="26" x="336.5" y="163.0283">have</text><text fill="#000000" font-family="sans-serif" font-size="13" lengthAdjust="spacing" textLength="7" x="291.4319" y="140.3333">1</text><text fill="#000000" font-family="sans-serif" font-size="13" lengthAdjust="spacing" textLength="7" x="330.1044" y="185.8099">1</text></g><!--link Managers to Green_Spaces--><g id="link_Managers_Green_Spaces"><path codeLine="39" d="M226.81,82.93 C204.46,97.58 177.27,119.95 164.5,148 C157.48,163.43 160.74,182.89 164.84,196.76 " fill="none" id="Managers-Green_Spaces" style="stroke:#181818;stroke-width:1.0;"/><polygon fill="#000000" points="167.1093,162.0369,174.0153,155.498,168.8529,152.6876,167.1093,162.0369" style="stroke:#000000;stroke-width:1.0;"/><text fill="#000000" font-family="sans-serif" font-size="13" lengthAdjust="spacing" textLength="125" x="178.5" y="163.0283">manage and resgister</text><text fill="#000000" font-family="sans-serif" font-size="13" lengthAdjust="spacing" textLength="7" x="211.9333" y="82.438">1</text><text fill="#000000" font-family="sans-serif" font-size="13" lengthAdjust="spacing" textLength="20" x="139.9461" y="185.885">1..*</text></g><!--link Green_Spaces to Garden--><g id="link_Green_Spaces_Garden"><path codeLine="40" d="M153.73,234.12 C132.97,254.72 98.41,289 74.37,312.85 " fill="none" id="Green_Spaces-Garden" style="stroke:#181818;stroke-width:1.0;"/><polygon fill="#000000" points="122.9504,277.1669,131.4415,272.883,127.3018,268.7102,122.9504,277.1669" style="stroke:#000000;stroke-width:1.0;"/><text fill="#000000" font-family="sans-serif" font-size="13" lengthAdjust="spacing" textLength="21" x="135.5" y="279.0283">has</text><text fill="#000000" font-family="sans-serif" font-size="13" lengthAdjust="spacing" textLength="7" x="141.0137" y="255.5268">1</text><text fill="#000000" font-family="sans-serif" font-size="13" lengthAdjust="spacing" textLength="5" x="75.0056" y="301.5243">*</text></g><!--link Green_Spaces to Medium_Sized--><g id="link_Green_Spaces_Medium_Sized"><path codeLine="41" d="M171.5,234.12 C171.5,254.72 171.5,289 171.5,312.85 " fill="none" id="Green_Spaces-Medium_Sized" style="stroke:#181818;stroke-width:1.0;"/><polygon fill="#000000" points="176.5,278.6455,179.4389,269.6004,173.5611,269.6004,176.5,278.6455" style="stroke:#000000;stroke-width:1.0;"/><text fill="#000000" font-family="sans-serif" font-size="13" lengthAdjust="spacing" textLength="21" x="185.5" y="279.0283">has</text><text fill="#000000" font-family="sans-serif" font-size="13" lengthAdjust="spacing" textLength="7" x="163.5594" y="255.5268">1</text><text fill="#000000" font-family="sans-serif" font-size="13" lengthAdjust="spacing" textLength="5" x="165.9219" y="301.5243">*</text></g><!--link Green_Spaces to Large_Sized--><g id="link_Green_Spaces_Large_Sized"><path codeLine="42" d="M189.55,234.12 C210.65,254.72 245.77,289 270.2,312.85 " fill="none" id="Green_Spaces-Large_Sized" style="stroke:#181818;stroke-width:1.0;"/><polygon fill="#000000" points="247.0779,277.1382,242.6584,268.7168,238.5525,272.9229,247.0779,277.1382" style="stroke:#000000;stroke-width:1.0;"/><text fill="#000000" font-family="sans-serif" font-size="13" lengthAdjust="spacing" textLength="21" x="252.5" y="279.0283">has</text><text fill="#000000" font-family="sans-serif" font-size="13" lengthAdjust="spacing" textLength="7" x="186.4603" y="255.5268">1</text><text fill="#000000" font-family="sans-serif" font-size="13" lengthAdjust="spacing" textLength="5" x="258.3088" y="301.5243">*</text></g><!--SRC=[hP7DQiCm48JlUeh5bq0WeRtcKEYf59gJ7o1ifOsrH3z6gxIa8UzUMKrIjH1wgIzUQRuPoMFPSHWneGSVGzGsHK-GqvwKN9KHzGu7wlF14IJI6SFWMa0iclZEOO0jEccLVmoTVKkE0-N3I11Jjb7D76qpv0Y91vl1y1J7CJHXsg78Oyw9N_UPddKCFNyGt2dBXa1pqkNiEdigaKQKKjK3JuaeRFfoNPAZKgVhVh-6OxF4P2WS5PJ7aEZ4Oxt2wQoloV3URwPJpMtg1TD0jw5B5eRIN1BuOW9wgWDvP5UdCGfNJrtO66XoNttTVGUBHNrDdx42Ysy43p-0gY-NywujO0M-8e31b9yc0qkcL9mjT4cVT-TMfdpv1K53jTtynJODdT5F]--></g></svg>