<?xml version="1.0" encoding="us-ascii" standalone="no"?><svg xmlns="http://www.w3.org/2000/svg" xmlns:xlink="http://www.w3.org/1999/xlink" contentStyleType="text/css" height="872px" preserveAspectRatio="none" style="width:1162px;height:872px;background:#FFFFFF;" version="1.1" viewBox="0 0 1162 872" width="1162px" zoomAndPan="magnify"><defs/><g><!--class GenerateTeamUI--><g id="elem_GenerateTeamUI"><rect codeLine="11" fill="#F1F1F1" height="48" id="GenerateTeamUI" rx="2.5" ry="2.5" style="stroke:#181818;stroke-width:0.5;" width="140" x="7" y="53.5"/><ellipse cx="22" cy="69.5" fill="#ADD1B2" rx="11" ry="11" style="stroke:#181818;stroke-width:1.0;"/><path d="M24.7656,65.375 Q24.9219,65.1563 25.1094,65.0469 Q25.2969,64.9375 25.5156,64.9375 Q25.8906,64.9375 26.125,65.2031 Q26.3594,65.4531 26.3594,66.0625 L26.3594,67.5156 Q26.3594,68.125 26.125,68.3906 Q25.8906,68.6563 25.5156,68.6563 Q25.1719,68.6563 24.9688,68.4531 Q24.7656,68.2656 24.6563,67.75 Q24.6094,67.3906 24.4219,67.2031 Q24.0938,66.8281 23.4844,66.6094 Q22.875,66.3906 22.25,66.3906 Q21.4844,66.3906 20.8438,66.7188 Q20.2188,67.0469 19.7188,67.7969 Q19.2344,68.5469 19.2344,69.5781 L19.2344,70.6719 Q19.2344,71.9063 20.125,72.7344 Q21.0156,73.5469 22.6094,73.5469 Q23.5469,73.5469 24.2031,73.2969 Q24.5938,73.1406 25.0156,72.7031 Q25.2813,72.4375 25.4219,72.3594 Q25.5781,72.2813 25.7813,72.2813 Q26.1094,72.2813 26.3594,72.5469 Q26.625,72.7969 26.625,73.1406 Q26.625,73.4844 26.2813,73.8906 Q25.7813,74.4688 24.9844,74.7969 Q23.9063,75.25 22.6094,75.25 Q21.0938,75.25 19.8906,74.625 Q18.9063,74.125 18.2188,73.0625 Q17.5313,71.9844 17.5313,70.7031 L17.5313,69.5469 Q17.5313,68.2188 18.1406,67.0781 Q18.7656,65.9219 19.8594,65.3125 Q20.9531,64.6875 22.1875,64.6875 Q22.9219,64.6875 23.5625,64.8594 Q24.2188,65.0156 24.7656,65.375 Z " fill="#000000"/><text fill="#000000" font-family="sans-serif" font-size="14" lengthAdjust="spacing" textLength="108" x="36" y="75.2969">GenerateTeamUI</text><line style="stroke:#181818;stroke-width:0.5;" x1="8" x2="146" y1="85.5" y2="85.5"/><line style="stroke:#181818;stroke-width:0.5;" x1="8" x2="146" y1="93.5" y2="93.5"/></g><!--class GenerateTeamController--><g id="elem_GenerateTeamController"><rect codeLine="14" fill="#F1F1F1" height="141.1055" id="GenerateTeamController" rx="2.5" ry="2.5" style="stroke:#181818;stroke-width:0.5;" width="556" x="182" y="7"/><ellipse cx="376.75" cy="23" fill="#ADD1B2" rx="11" ry="11" style="stroke:#181818;stroke-width:1.0;"/><path d="M379.5156,18.875 Q379.6719,18.6563 379.8594,18.5469 Q380.0469,18.4375 380.2656,18.4375 Q380.6406,18.4375 380.875,18.7031 Q381.1094,18.9531 381.1094,19.5625 L381.1094,21.0156 Q381.1094,21.625 380.875,21.8906 Q380.6406,22.1563 380.2656,22.1563 Q379.9219,22.1563 379.7188,21.9531 Q379.5156,21.7656 379.4063,21.25 Q379.3594,20.8906 379.1719,20.7031 Q378.8438,20.3281 378.2344,20.1094 Q377.625,19.8906 377,19.8906 Q376.2344,19.8906 375.5938,20.2188 Q374.9688,20.5469 374.4688,21.2969 Q373.9844,22.0469 373.9844,23.0781 L373.9844,24.1719 Q373.9844,25.4063 374.875,26.2344 Q375.7656,27.0469 377.3594,27.0469 Q378.2969,27.0469 378.9531,26.7969 Q379.3438,26.6406 379.7656,26.2031 Q380.0313,25.9375 380.1719,25.8594 Q380.3281,25.7813 380.5313,25.7813 Q380.8594,25.7813 381.1094,26.0469 Q381.375,26.2969 381.375,26.6406 Q381.375,26.9844 381.0313,27.3906 Q380.5313,27.9688 379.7344,28.2969 Q378.6563,28.75 377.3594,28.75 Q375.8438,28.75 374.6406,28.125 Q373.6563,27.625 372.9688,26.5625 Q372.2813,25.4844 372.2813,24.2031 L372.2813,23.0469 Q372.2813,21.7188 372.8906,20.5781 Q373.5156,19.4219 374.6094,18.8125 Q375.7031,18.1875 376.9375,18.1875 Q377.6719,18.1875 378.3125,18.3594 Q378.9688,18.5156 379.5156,18.875 Z " fill="#000000"/><text fill="#000000" font-family="sans-serif" font-size="14" lengthAdjust="spacing" textLength="158" x="397.25" y="28.7969">GenerateTeamController</text><line style="stroke:#181818;stroke-width:0.5;" x1="183" x2="737" y1="39" y2="39"/><text fill="#000000" font-family="sans-serif" font-size="14" lengthAdjust="spacing" textLength="151" x="188" y="58.1074">-CollaboratorRepository</text><text fill="#000000" font-family="sans-serif" font-size="14" lengthAdjust="spacing" textLength="105" x="188" y="76.7285">-SkillsRepository</text><text fill="#000000" font-family="sans-serif" font-size="14" lengthAdjust="spacing" textLength="109" x="188" y="95.3496">-TeamRepository</text><line style="stroke:#181818;stroke-width:0.5;" x1="183" x2="737" y1="102.8633" y2="102.8633"/><text fill="#000000" font-family="sans-serif" font-size="14" lengthAdjust="spacing" textLength="544" x="188" y="121.9707">+generateTeamProposal(int minTeamSize, int maxTeamSize, List&lt;Skill&gt; requiredSkills)</text><text fill="#000000" font-family="sans-serif" font-size="14" lengthAdjust="spacing" textLength="540" x="188" y="140.5918">+filterCollaboratorsBySkills(List&lt;Collaborator&gt; collaborators, List&lt;Skill&gt; requiredSkills)</text></g><!--class Repositories--><g id="elem_Repositories"><rect codeLine="23" fill="#F1F1F1" height="122.4844" id="Repositories" rx="2.5" ry="2.5" style="stroke:#181818;stroke-width:0.5;" width="196" x="513" y="227"/><ellipse cx="567.25" cy="243" fill="#ADD1B2" rx="11" ry="11" style="stroke:#181818;stroke-width:1.0;"/><path d="M570.0156,238.875 Q570.1719,238.6563 570.3594,238.5469 Q570.5469,238.4375 570.7656,238.4375 Q571.1406,238.4375 571.375,238.7031 Q571.6094,238.9531 571.6094,239.5625 L571.6094,241.0156 Q571.6094,241.625 571.375,241.8906 Q571.1406,242.1563 570.7656,242.1563 Q570.4219,242.1563 570.2188,241.9531 Q570.0156,241.7656 569.9063,241.25 Q569.8594,240.8906 569.6719,240.7031 Q569.3438,240.3281 568.7344,240.1094 Q568.125,239.8906 567.5,239.8906 Q566.7344,239.8906 566.0938,240.2188 Q565.4688,240.5469 564.9688,241.2969 Q564.4844,242.0469 564.4844,243.0781 L564.4844,244.1719 Q564.4844,245.4063 565.375,246.2344 Q566.2656,247.0469 567.8594,247.0469 Q568.7969,247.0469 569.4531,246.7969 Q569.8438,246.6406 570.2656,246.2031 Q570.5313,245.9375 570.6719,245.8594 Q570.8281,245.7813 571.0313,245.7813 Q571.3594,245.7813 571.6094,246.0469 Q571.875,246.2969 571.875,246.6406 Q571.875,246.9844 571.5313,247.3906 Q571.0313,247.9688 570.2344,248.2969 Q569.1563,248.75 567.8594,248.75 Q566.3438,248.75 565.1406,248.125 Q564.1563,247.625 563.4688,246.5625 Q562.7813,245.4844 562.7813,244.2031 L562.7813,243.0469 Q562.7813,241.7188 563.3906,240.5781 Q564.0156,239.4219 565.1094,238.8125 Q566.2031,238.1875 567.4375,238.1875 Q568.1719,238.1875 568.8125,238.3594 Q569.4688,238.5156 570.0156,238.875 Z " fill="#000000"/><text fill="#000000" font-family="sans-serif" font-size="14" lengthAdjust="spacing" textLength="79" x="587.75" y="248.7969">Repositories</text><line style="stroke:#181818;stroke-width:0.5;" x1="514" x2="708" y1="259" y2="259"/><line style="stroke:#181818;stroke-width:0.5;" x1="514" x2="708" y1="267" y2="267"/><text fill="#000000" font-family="sans-serif" font-size="14" lengthAdjust="spacing" textLength="94" x="519" y="286.1074">-Repositories()</text><text fill="#000000" font-family="sans-serif" font-size="14" lengthAdjust="spacing" textLength="182" x="519" y="304.7285">+getInstance() : Repositories</text><text fill="#000000" font-family="sans-serif" font-size="14" lengthAdjust="spacing" textLength="131" x="519" y="323.3496">+getSkillRepository()</text><text fill="#000000" font-family="sans-serif" font-size="14" lengthAdjust="spacing" textLength="184" x="519" y="341.9707">+getCollaboratorRepository()</text></g><!--class TeamRepository--><g id="elem_TeamRepository"><rect codeLine="30" fill="#F1F1F1" height="103.8633" id="TeamRepository" rx="2.5" ry="2.5" style="stroke:#181818;stroke-width:0.5;" width="168" x="144" y="410"/><ellipse cx="173.4" cy="426" fill="#ADD1B2" rx="11" ry="11" style="stroke:#181818;stroke-width:1.0;"/><path d="M176.1656,421.875 Q176.3219,421.6563 176.5094,421.5469 Q176.6969,421.4375 176.9156,421.4375 Q177.2906,421.4375 177.525,421.7031 Q177.7594,421.9531 177.7594,422.5625 L177.7594,424.0156 Q177.7594,424.625 177.525,424.8906 Q177.2906,425.1563 176.9156,425.1563 Q176.5719,425.1563 176.3688,424.9531 Q176.1656,424.7656 176.0563,424.25 Q176.0094,423.8906 175.8219,423.7031 Q175.4938,423.3281 174.8844,423.1094 Q174.275,422.8906 173.65,422.8906 Q172.8844,422.8906 172.2438,423.2188 Q171.6188,423.5469 171.1188,424.2969 Q170.6344,425.0469 170.6344,426.0781 L170.6344,427.1719 Q170.6344,428.4063 171.525,429.2344 Q172.4156,430.0469 174.0094,430.0469 Q174.9469,430.0469 175.6031,429.7969 Q175.9938,429.6406 176.4156,429.2031 Q176.6813,428.9375 176.8219,428.8594 Q176.9781,428.7813 177.1813,428.7813 Q177.5094,428.7813 177.7594,429.0469 Q178.025,429.2969 178.025,429.6406 Q178.025,429.9844 177.6813,430.3906 Q177.1813,430.9688 176.3844,431.2969 Q175.3063,431.75 174.0094,431.75 Q172.4938,431.75 171.2906,431.125 Q170.3063,430.625 169.6188,429.5625 Q168.9313,428.4844 168.9313,427.2031 L168.9313,426.0469 Q168.9313,424.7188 169.5406,423.5781 Q170.1656,422.4219 171.2594,421.8125 Q172.3531,421.1875 173.5875,421.1875 Q174.3219,421.1875 174.9625,421.3594 Q175.6188,421.5156 176.1656,421.875 Z " fill="#000000"/><text fill="#000000" font-family="sans-serif" font-size="14" lengthAdjust="spacing" textLength="104" x="190.6" y="431.7969">TeamRepository</text><line style="stroke:#181818;stroke-width:0.5;" x1="145" x2="311" y1="442" y2="442"/><text fill="#000000" font-family="sans-serif" font-size="14" lengthAdjust="spacing" textLength="129" x="150" y="461.1074">-teams : List&lt;Team&gt;</text><line style="stroke:#181818;stroke-width:0.5;" x1="145" x2="311" y1="468.6211" y2="468.6211"/><text fill="#000000" font-family="sans-serif" font-size="14" lengthAdjust="spacing" textLength="156" x="150" y="487.7285">+addTeams(Team team)</text><text fill="#000000" font-family="sans-serif" font-size="14" lengthAdjust="spacing" textLength="81" x="150" y="506.3496">+getTeams()</text></g><!--class CollaboratorRepository--><g id="elem_CollaboratorRepository"><rect codeLine="35" fill="#F1F1F1" height="85.2422" id="CollaboratorRepository" rx="2.5" ry="2.5" style="stroke:#181818;stroke-width:0.5;" width="227" x="744.5" y="419.5"/><ellipse cx="781.55" cy="435.5" fill="#ADD1B2" rx="11" ry="11" style="stroke:#181818;stroke-width:1.0;"/><path d="M784.3156,431.375 Q784.4719,431.1563 784.6594,431.0469 Q784.8469,430.9375 785.0656,430.9375 Q785.4406,430.9375 785.675,431.2031 Q785.9094,431.4531 785.9094,432.0625 L785.9094,433.5156 Q785.9094,434.125 785.675,434.3906 Q785.4406,434.6563 785.0656,434.6563 Q784.7219,434.6563 784.5188,434.4531 Q784.3156,434.2656 784.2063,433.75 Q784.1594,433.3906 783.9719,433.2031 Q783.6438,432.8281 783.0344,432.6094 Q782.425,432.3906 781.8,432.3906 Q781.0344,432.3906 780.3938,432.7188 Q779.7688,433.0469 779.2688,433.7969 Q778.7844,434.5469 778.7844,435.5781 L778.7844,436.6719 Q778.7844,437.9063 779.675,438.7344 Q780.5656,439.5469 782.1594,439.5469 Q783.0969,439.5469 783.7531,439.2969 Q784.1438,439.1406 784.5656,438.7031 Q784.8313,438.4375 784.9719,438.3594 Q785.1281,438.2813 785.3313,438.2813 Q785.6594,438.2813 785.9094,438.5469 Q786.175,438.7969 786.175,439.1406 Q786.175,439.4844 785.8313,439.8906 Q785.3313,440.4688 784.5344,440.7969 Q783.4563,441.25 782.1594,441.25 Q780.6438,441.25 779.4406,440.625 Q778.4563,440.125 777.7688,439.0625 Q777.0813,437.9844 777.0813,436.7031 L777.0813,435.5469 Q777.0813,434.2188 777.6906,433.0781 Q778.3156,431.9219 779.4094,431.3125 Q780.5031,430.6875 781.7375,430.6875 Q782.4719,430.6875 783.1125,430.8594 Q783.7688,431.0156 784.3156,431.375 Z " fill="#000000"/><text fill="#000000" font-family="sans-serif" font-size="14" lengthAdjust="spacing" textLength="146" x="800.45" y="441.2969">CollaboratorRepository</text><line style="stroke:#181818;stroke-width:0.5;" x1="745.5" x2="970.5" y1="451.5" y2="451.5"/><text fill="#000000" font-family="sans-serif" font-size="14" lengthAdjust="spacing" textLength="215" x="750.5" y="470.6074">-collaborators : List&lt;Collaborator&gt;</text><line style="stroke:#181818;stroke-width:0.5;" x1="745.5" x2="970.5" y1="478.1211" y2="478.1211"/><text fill="#000000" font-family="sans-serif" font-size="14" lengthAdjust="spacing" textLength="123" x="750.5" y="497.2285">+getCollaborators()</text></g><!--class SkillRepository--><g id="elem_SkillRepository"><rect codeLine="40" fill="#F1F1F1" height="85.2422" id="SkillRepository" rx="2.5" ry="2.5" style="stroke:#181818;stroke-width:0.5;" width="125" x="402.5" y="419.5"/><ellipse cx="417.5" cy="435.5" fill="#ADD1B2" rx="11" ry="11" style="stroke:#181818;stroke-width:1.0;"/><path d="M420.2656,431.375 Q420.4219,431.1563 420.6094,431.0469 Q420.7969,430.9375 421.0156,430.9375 Q421.3906,430.9375 421.625,431.2031 Q421.8594,431.4531 421.8594,432.0625 L421.8594,433.5156 Q421.8594,434.125 421.625,434.3906 Q421.3906,434.6563 421.0156,434.6563 Q420.6719,434.6563 420.4688,434.4531 Q420.2656,434.2656 420.1563,433.75 Q420.1094,433.3906 419.9219,433.2031 Q419.5938,432.8281 418.9844,432.6094 Q418.375,432.3906 417.75,432.3906 Q416.9844,432.3906 416.3438,432.7188 Q415.7188,433.0469 415.2188,433.7969 Q414.7344,434.5469 414.7344,435.5781 L414.7344,436.6719 Q414.7344,437.9063 415.625,438.7344 Q416.5156,439.5469 418.1094,439.5469 Q419.0469,439.5469 419.7031,439.2969 Q420.0938,439.1406 420.5156,438.7031 Q420.7813,438.4375 420.9219,438.3594 Q421.0781,438.2813 421.2813,438.2813 Q421.6094,438.2813 421.8594,438.5469 Q422.125,438.7969 422.125,439.1406 Q422.125,439.4844 421.7813,439.8906 Q421.2813,440.4688 420.4844,440.7969 Q419.4063,441.25 418.1094,441.25 Q416.5938,441.25 415.3906,440.625 Q414.4063,440.125 413.7188,439.0625 Q413.0313,437.9844 413.0313,436.7031 L413.0313,435.5469 Q413.0313,434.2188 413.6406,433.0781 Q414.2656,431.9219 415.3594,431.3125 Q416.4531,430.6875 417.6875,430.6875 Q418.4219,430.6875 419.0625,430.8594 Q419.7188,431.0156 420.2656,431.375 Z " fill="#000000"/><text fill="#000000" font-family="sans-serif" font-size="14" lengthAdjust="spacing" textLength="93" x="431.5" y="441.2969">SkillRepository</text><line style="stroke:#181818;stroke-width:0.5;" x1="403.5" x2="526.5" y1="451.5" y2="451.5"/><text fill="#000000" font-family="sans-serif" font-size="14" lengthAdjust="spacing" textLength="110" x="408.5" y="470.6074">-skills : List&lt;Skill&gt;</text><line style="stroke:#181818;stroke-width:0.5;" x1="403.5" x2="526.5" y1="478.1211" y2="478.1211"/><text fill="#000000" font-family="sans-serif" font-size="14" lengthAdjust="spacing" textLength="63" x="408.5" y="497.2285">+getSkill()</text></g><!--class Collaborator--><g id="elem_Collaborator"><rect codeLine="44" fill="#F1F1F1" height="290.0742" id="Collaborator" rx="2.5" ry="2.5" style="stroke:#181818;stroke-width:0.5;" width="595" x="560.5" y="575"/><ellipse cx="814.75" cy="591" fill="#ADD1B2" rx="11" ry="11" style="stroke:#181818;stroke-width:1.0;"/><path d="M817.5156,586.875 Q817.6719,586.6563 817.8594,586.5469 Q818.0469,586.4375 818.2656,586.4375 Q818.6406,586.4375 818.875,586.7031 Q819.1094,586.9531 819.1094,587.5625 L819.1094,589.0156 Q819.1094,589.625 818.875,589.8906 Q818.6406,590.1563 818.2656,590.1563 Q817.9219,590.1563 817.7188,589.9531 Q817.5156,589.7656 817.4063,589.25 Q817.3594,588.8906 817.1719,588.7031 Q816.8438,588.3281 816.2344,588.1094 Q815.625,587.8906 815,587.8906 Q814.2344,587.8906 813.5938,588.2188 Q812.9688,588.5469 812.4688,589.2969 Q811.9844,590.0469 811.9844,591.0781 L811.9844,592.1719 Q811.9844,593.4063 812.875,594.2344 Q813.7656,595.0469 815.3594,595.0469 Q816.2969,595.0469 816.9531,594.7969 Q817.3438,594.6406 817.7656,594.2031 Q818.0313,593.9375 818.1719,593.8594 Q818.3281,593.7813 818.5313,593.7813 Q818.8594,593.7813 819.1094,594.0469 Q819.375,594.2969 819.375,594.6406 Q819.375,594.9844 819.0313,595.3906 Q818.5313,595.9688 817.7344,596.2969 Q816.6563,596.75 815.3594,596.75 Q813.8438,596.75 812.6406,596.125 Q811.6563,595.625 810.9688,594.5625 Q810.2813,593.4844 810.2813,592.2031 L810.2813,591.0469 Q810.2813,589.7188 810.8906,588.5781 Q811.5156,587.4219 812.6094,586.8125 Q813.7031,586.1875 814.9375,586.1875 Q815.6719,586.1875 816.3125,586.3594 Q816.9688,586.5156 817.5156,586.875 Z " fill="#000000"/><text fill="#000000" font-family="sans-serif" font-size="14" lengthAdjust="spacing" textLength="78" x="835.25" y="596.7969">Collaborator</text><line style="stroke:#181818;stroke-width:0.5;" x1="561.5" x2="1154.5" y1="607" y2="607"/><text fill="#000000" font-family="sans-serif" font-size="14" lengthAdjust="spacing" textLength="89" x="566.5" y="626.1074">-name : String</text><text fill="#000000" font-family="sans-serif" font-size="14" lengthAdjust="spacing" textLength="105" x="566.5" y="644.7285">-address : String</text><text fill="#000000" font-family="sans-serif" font-size="14" lengthAdjust="spacing" textLength="87" x="566.5" y="663.3496">-email : String</text><text fill="#000000" font-family="sans-serif" font-size="14" lengthAdjust="spacing" textLength="143" x="566.5" y="681.9707">-phoneNumber : String</text><text fill="#000000" font-family="sans-serif" font-size="14" lengthAdjust="spacing" textLength="97" x="566.5" y="700.5918">-idType : String</text><text fill="#000000" font-family="sans-serif" font-size="14" lengthAdjust="spacing" textLength="114" x="566.5" y="719.2129">-idNumber : String</text><text fill="#000000" font-family="sans-serif" font-size="14" lengthAdjust="spacing" textLength="139" x="566.5" y="737.834">-birthDate : LocalDate</text><text fill="#000000" font-family="sans-serif" font-size="14" lengthAdjust="spacing" textLength="174" x="566.5" y="756.4551">-admissionDate : LocalDate</text><text fill="#000000" font-family="sans-serif" font-size="14" lengthAdjust="spacing" textLength="73" x="566.5" y="775.0762">-job : String</text><text fill="#000000" font-family="sans-serif" font-size="14" lengthAdjust="spacing" textLength="110" x="566.5" y="793.6973">-skills : List&lt;Skill&gt;</text><line style="stroke:#181818;stroke-width:0.5;" x1="561.5" x2="1154.5" y1="801.2109" y2="801.2109"/><text fill="#000000" font-family="sans-serif" font-size="14" lengthAdjust="spacing" textLength="583" x="566.5" y="820.3184">+Collaborator(String name, String address, String email, String phoneNumber, String idType,</text><text fill="#000000" font-family="sans-serif" font-size="14" lengthAdjust="spacing" textLength="477" x="566.5" y="838.9395">String idNumber, LocalDate birthDate, LocalDate admissionDate, String job)</text><text fill="#000000" font-family="sans-serif" font-size="14" lengthAdjust="spacing" textLength="166" x="566.5" y="857.5605">+setSkills(List&lt;Skill&gt; skills)</text></g><!--class Team--><g id="elem_Team"><rect codeLine="59" fill="#F1F1F1" height="141.1055" id="Team" rx="2.5" ry="2.5" style="stroke:#181818;stroke-width:0.5;" width="285" x="84.5" y="649.5"/><ellipse cx="204.75" cy="665.5" fill="#ADD1B2" rx="11" ry="11" style="stroke:#181818;stroke-width:1.0;"/><path d="M207.5156,661.375 Q207.6719,661.1563 207.8594,661.0469 Q208.0469,660.9375 208.2656,660.9375 Q208.6406,660.9375 208.875,661.2031 Q209.1094,661.4531 209.1094,662.0625 L209.1094,663.5156 Q209.1094,664.125 208.875,664.3906 Q208.6406,664.6563 208.2656,664.6563 Q207.9219,664.6563 207.7188,664.4531 Q207.5156,664.2656 207.4063,663.75 Q207.3594,663.3906 207.1719,663.2031 Q206.8438,662.8281 206.2344,662.6094 Q205.625,662.3906 205,662.3906 Q204.2344,662.3906 203.5938,662.7188 Q202.9688,663.0469 202.4688,663.7969 Q201.9844,664.5469 201.9844,665.5781 L201.9844,666.6719 Q201.9844,667.9063 202.875,668.7344 Q203.7656,669.5469 205.3594,669.5469 Q206.2969,669.5469 206.9531,669.2969 Q207.3438,669.1406 207.7656,668.7031 Q208.0313,668.4375 208.1719,668.3594 Q208.3281,668.2813 208.5313,668.2813 Q208.8594,668.2813 209.1094,668.5469 Q209.375,668.7969 209.375,669.1406 Q209.375,669.4844 209.0313,669.8906 Q208.5313,670.4688 207.7344,670.7969 Q206.6563,671.25 205.3594,671.25 Q203.8438,671.25 202.6406,670.625 Q201.6563,670.125 200.9688,669.0625 Q200.2813,667.9844 200.2813,666.7031 L200.2813,665.5469 Q200.2813,664.2188 200.8906,663.0781 Q201.5156,661.9219 202.6094,661.3125 Q203.7031,660.6875 204.9375,660.6875 Q205.6719,660.6875 206.3125,660.8594 Q206.9688,661.0156 207.5156,661.375 Z " fill="#000000"/><text fill="#000000" font-family="sans-serif" font-size="14" lengthAdjust="spacing" textLength="36" x="225.25" y="671.2969">Team</text><line style="stroke:#181818;stroke-width:0.5;" x1="85.5" x2="368.5" y1="681.5" y2="681.5"/><text fill="#000000" font-family="sans-serif" font-size="14" lengthAdjust="spacing" textLength="198" x="90.5" y="700.6074">-members : List&lt;Collaborators&gt;</text><line style="stroke:#181818;stroke-width:0.5;" x1="85.5" x2="368.5" y1="708.1211" y2="708.1211"/><text fill="#000000" font-family="sans-serif" font-size="14" lengthAdjust="spacing" textLength="96" x="90.5" y="727.2285">+getMembers()</text><text fill="#000000" font-family="sans-serif" font-size="14" lengthAdjust="spacing" textLength="273" x="90.5" y="745.8496">+setMembers(List&lt;Collaborator&gt; members)</text><text fill="#000000" font-family="sans-serif" font-size="14" lengthAdjust="spacing" textLength="226" x="90.5" y="764.4707">+addMember(Collaborator member)</text><text fill="#000000" font-family="sans-serif" font-size="14" lengthAdjust="spacing" textLength="249" x="90.5" y="783.0918">+removeMember(Collaborator member)</text></g><!--class Skill--><g id="elem_Skill"><rect codeLine="67" fill="#F1F1F1" height="66.6211" id="Skill" rx="2.5" ry="2.5" style="stroke:#181818;stroke-width:0.5;" width="121" x="404.5" y="686.5"/><ellipse cx="448.3" cy="702.5" fill="#ADD1B2" rx="11" ry="11" style="stroke:#181818;stroke-width:1.0;"/><path d="M451.0656,698.375 Q451.2219,698.1563 451.4094,698.0469 Q451.5969,697.9375 451.8156,697.9375 Q452.1906,697.9375 452.425,698.2031 Q452.6594,698.4531 452.6594,699.0625 L452.6594,700.5156 Q452.6594,701.125 452.425,701.3906 Q452.1906,701.6563 451.8156,701.6563 Q451.4719,701.6563 451.2688,701.4531 Q451.0656,701.2656 450.9563,700.75 Q450.9094,700.3906 450.7219,700.2031 Q450.3938,699.8281 449.7844,699.6094 Q449.175,699.3906 448.55,699.3906 Q447.7844,699.3906 447.1438,699.7188 Q446.5188,700.0469 446.0188,700.7969 Q445.5344,701.5469 445.5344,702.5781 L445.5344,703.6719 Q445.5344,704.9063 446.425,705.7344 Q447.3156,706.5469 448.9094,706.5469 Q449.8469,706.5469 450.5031,706.2969 Q450.8938,706.1406 451.3156,705.7031 Q451.5813,705.4375 451.7219,705.3594 Q451.8781,705.2813 452.0813,705.2813 Q452.4094,705.2813 452.6594,705.5469 Q452.925,705.7969 452.925,706.1406 Q452.925,706.4844 452.5813,706.8906 Q452.0813,707.4688 451.2844,707.7969 Q450.2063,708.25 448.9094,708.25 Q447.3938,708.25 446.1906,707.625 Q445.2063,707.125 444.5188,706.0625 Q443.8313,704.9844 443.8313,703.7031 L443.8313,702.5469 Q443.8313,701.2188 444.4406,700.0781 Q445.0656,698.9219 446.1594,698.3125 Q447.2531,697.6875 448.4875,697.6875 Q449.2219,697.6875 449.8625,697.8594 Q450.5188,698.0156 451.0656,698.375 Z " fill="#000000"/><text fill="#000000" font-family="sans-serif" font-size="14" lengthAdjust="spacing" textLength="25" x="468.7" y="708.2969">Skill</text><line style="stroke:#181818;stroke-width:0.5;" x1="405.5" x2="524.5" y1="718.5" y2="718.5"/><line style="stroke:#181818;stroke-width:0.5;" x1="405.5" x2="524.5" y1="726.5" y2="726.5"/><text fill="#000000" font-family="sans-serif" font-size="14" lengthAdjust="spacing" textLength="109" x="410.5" y="745.6074">+Skill(String Skill)</text></g><!--link GenerateTeamUI to GenerateTeamController--><g id="link_GenerateTeamUI_GenerateTeamController"><path codeLine="70" d="M147.18,77.5 C159.7,77.5 165.88,77.5 175.79,77.5 " fill="none" id="GenerateTeamUI-to-GenerateTeamController" style="stroke:#181818;stroke-width:1.0;stroke-dasharray:7.0,7.0;"/><polygon fill="#181818" points="181.79,77.5,172.79,73.5,176.79,77.5,172.79,81.5,181.79,77.5" style="stroke:#181818;stroke-width:1.0;"/></g><!--link GenerateTeamController to Repositories--><g id="link_GenerateTeamController_Repositories"><path codeLine="71" d="M510.49,148.22 C528.92,173.67 546.0806,197.3606 563.8606,221.9106 " fill="none" id="GenerateTeamController-to-Repositories" style="stroke:#181818;stroke-width:1.0;stroke-dasharray:7.0,7.0;"/><polygon fill="#181818" points="567.38,226.77,565.3406,217.1346,564.4472,222.7205,558.8613,221.8271,567.38,226.77" style="stroke:#181818;stroke-width:1.0;"/><text fill="#000000" font-family="sans-serif" font-size="13" lengthAdjust="spacing" textLength="67" x="545" y="193.0283">repositories</text></g><!--link Repositories to SkillRepository--><g id="link_Repositories_SkillRepository"><path codeLine="72" d="M559.94,349.16 C540.28,372.31 522.1729,393.6458 504.3129,414.6858 " fill="none" id="Repositories-to-SkillRepository" style="stroke:#181818;stroke-width:1.0;"/><polygon fill="#181818" points="500.43,419.26,509.3038,414.9873,503.6657,415.4482,503.2048,409.8101,500.43,419.26" style="stroke:#181818;stroke-width:1.0;"/><text fill="#000000" font-family="sans-serif" font-size="13" lengthAdjust="spacing" textLength="7" x="498.5188" y="408.1258">1</text></g><!--link Repositories to CollaboratorRepository--><g id="link_Repositories_CollaboratorRepository"><path codeLine="73" d="M697.39,349.16 C730.64,372.31 762.9154,394.7925 793.1454,415.8325 " fill="none" id="Repositories-to-CollaboratorRepository" style="stroke:#181818;stroke-width:1.0;"/><polygon fill="#181818" points="798.07,419.26,792.9681,410.8356,793.9661,416.4037,788.398,417.4018,798.07,419.26" style="stroke:#181818;stroke-width:1.0;"/><text fill="#000000" font-family="sans-serif" font-size="13" lengthAdjust="spacing" textLength="7" x="780.9608" y="408.1258">1</text></g><!--link Repositories to TeamRepository--><g id="link_Repositories_TeamRepository"><path codeLine="74" d="M512.82,336.13 C497.16,343.64 486,349 486,349 C486,349 392.9139,389.411 317.6239,422.091 " fill="none" id="Repositories-to-TeamRepository" style="stroke:#181818;stroke-width:1.0;"/><polygon fill="#181818" points="312.12,424.48,321.9685,424.5658,316.7066,422.4892,318.7832,417.2273,312.12,424.48" style="stroke:#181818;stroke-width:1.0;"/><text fill="#000000" font-family="sans-serif" font-size="13" lengthAdjust="spacing" textLength="7" x="319.9237" y="417.4287">1</text></g><!--link SkillRepository to Skill--><g id="link_SkillRepository_Skill"><path codeLine="75" d="M465,504.7 C465,555.42 465,633.99 465,680.27 " fill="none" id="SkillRepository-to-Skill" style="stroke:#181818;stroke-width:1.0;"/><polygon fill="#181818" points="465,686.27,469,677.27,465,681.27,461,677.27,465,686.27" style="stroke:#181818;stroke-width:1.0;"/><text fill="#000000" font-family="sans-serif" font-size="13" lengthAdjust="spacing" textLength="7" x="457.4422" y="526.8922">1</text><text fill="#000000" font-family="sans-serif" font-size="13" lengthAdjust="spacing" textLength="12" x="451.8563" y="675.3121">1*</text></g><!--link CollaboratorRepository to Collaborator--><g id="link_CollaboratorRepository_Collaborator"><path codeLine="76" d="M858,504.7 C858,524.39 858,543.19 858,568.86 " fill="none" id="CollaboratorRepository-to-Collaborator" style="stroke:#181818;stroke-width:1.0;"/><polygon fill="#181818" points="858,574.86,862,565.86,858,569.86,854,565.86,858,574.86" style="stroke:#181818;stroke-width:1.0;"/><text fill="#000000" font-family="sans-serif" font-size="13" lengthAdjust="spacing" textLength="7" x="850.4422" y="526.8922">1</text><text fill="#000000" font-family="sans-serif" font-size="13" lengthAdjust="spacing" textLength="7" x="850.8195" y="563.9718">1</text></g><!--link TeamRepository to Team--><g id="link_TeamRepository_Team"><path codeLine="77" d="M227.8,514.19 C227.65,553 227.44,606.77 227.27,649.47 " fill="none" id="TeamRepository-Team" style="stroke:#181818;stroke-width:1.0;"/><text fill="#000000" font-family="sans-serif" font-size="13" lengthAdjust="spacing" textLength="7" x="220.3259" y="536.0216">1</text><text fill="#000000" font-family="sans-serif" font-size="13" lengthAdjust="spacing" textLength="12" x="214.6791" y="638.3579">1*</text></g><!--link Repositories to Repositories--><g id="link_Repositories_Repositories"><path codeLine="78" d="M709.02,271.72 C729.37,273.43 744,278.86 744,288 C744,297.14 735.3489,302.0676 714.9989,303.7776 " fill="none" id="Repositories-to-Repositories" style="stroke:#181818;stroke-width:1.0;"/><polygon fill="#181818" points="709.02,304.28,718.3233,307.5123,714.0024,303.8613,717.6535,299.5404,709.02,304.28" style="stroke:#181818;stroke-width:1.0;"/><text fill="#000000" font-family="sans-serif" font-size="13" lengthAdjust="spacing" textLength="49" x="750" y="293.5283">instance</text></g><!--link GenerateTeamController to SkillRepository--><g id="link_GenerateTeamController_SkillRepository"><path codeLine="79" d="M435.99,148.4 C422.77,186.92 409,227 409,227 C409,227 409,349 409,349 C409,349 425.5474,382.0831 441.4674,413.9331 " fill="none" id="GenerateTeamController-to-SkillRepository" style="stroke:#181818;stroke-width:1.0;stroke-dasharray:7.0,7.0;"/><polygon fill="#181818" points="444.15,419.3,443.704,409.4612,441.9145,414.8276,436.5482,413.0381,444.15,419.3" style="stroke:#181818;stroke-width:1.0;"/><text fill="#000000" font-family="sans-serif" font-size="13" lengthAdjust="spacing" textLength="85" x="410" y="293.5283">skillRepository</text></g><!--link GenerateTeamController to CollaboratorRepository--><g id="link_GenerateTeamController_CollaboratorRepository"><path codeLine="80" d="M622.11,148.08 C712.08,186.69 806,227 806,227 C806,227 832.5188,346.3328 847.4588,413.5828 " fill="none" id="GenerateTeamController-to-CollaboratorRepository" style="stroke:#181818;stroke-width:1.0;stroke-dasharray:7.0,7.0;"/><polygon fill="#181818" points="848.76,419.44,850.713,409.7867,847.6757,414.559,842.9034,411.5217,848.76,419.44" style="stroke:#181818;stroke-width:1.0;"/><text fill="#000000" font-family="sans-serif" font-size="13" lengthAdjust="spacing" textLength="129" x="834" y="293.5283">collaboratorRepository</text></g><!--link GenerateTeamController to TeamRepository--><g id="link_GenerateTeamController_TeamRepository"><path codeLine="81" d="M388.45,148.4 C349.03,186.92 308,227 308,227 C308,227 270.9408,335.4026 247.4008,404.2626 " fill="none" id="GenerateTeamController-to-TeamRepository" style="stroke:#181818;stroke-width:1.0;stroke-dasharray:7.0,7.0;"/><polygon fill="#181818" points="245.46,409.94,252.1562,402.7178,247.0774,405.2088,244.5863,400.13,245.46,409.94" style="stroke:#181818;stroke-width:1.0;"/><text fill="#000000" font-family="sans-serif" font-size="13" lengthAdjust="spacing" textLength="91" x="309" y="293.5283">teamRepository</text></g><!--SRC=[ZLNRRXCn47ttLrXzoOOs5Rn6A18K2KKg297o0SxkP6FYjOFj0A7glpE-xCRhE57t8R9dpjoEPoOJi-DoppJhQAUaghTQTK2jFW0vQVQith4MLlOeW6geBPEjI05conhrXykMRfWmgKPm2VQu1xfNukWkP59GAcqLIQngmOpvOAtcwuE5PQtaYly3-fQGYO2DfLPHpTkjfGrtwN0b2V4sz3D8qCp24x3kn_APl9GK3qfQhOG0_KmeVhC7lB2rGhtIts6l3CV3CUXMEow4oQNEJIQxRPCGtxH29HCLbvPsN3gPg-6EUW7xUn8yScFV-oWB9FVN0KjgGj1fyBlXme9ESpGVZm5HUUDKjQ1r2hpk_aJFK0i7GoCh8s4Law4jsAKqs08rL5Cw7u5w7gmFSEAdDqPDcMe43AcCgNqcCui2Wv5y9Kwx8BUiQTp9LEwNEiIKEFT1wBm5P-LmVOKZgle88pQBURi0GuIirEXw826MFZEUyZv6U8zYbj4-5LKhd0GSBiawx9TuGGOq63FSeMDS3BVzLaduUkZMe0SPRvvmsEwy_zTzWs7lwL7LJ7p27gThhktMdL8XQpfk38vZK4JpdseTIN0580L17aInZ4pgYybaIKcP9XHs9YnYXxpTK_I9zwaasP-hiOpCL_5D_UkP-FfnGEFucJXsBqcdutFFEd295XlGe4FNIry2n7MJSzvV2-CVdJaWSXk0LGg920VGqAdVS0qpRlFOcw6nu-lwYwjfl7hf_UB2pYLbCRr7Yz4QckE-IdRBI3URBMxUtUJ3LyHSMEubQBRLyz56Y0U-YO79XUtIuyQnoTXxG7bdJf7bSqO5Zplt6djvlcXcCeAkM5yePZxwGtcTgwpIkL_GYUb_]--></g></svg>