<?xml version="1.0" encoding="us-ascii" standalone="no"?><svg xmlns="http://www.w3.org/2000/svg" xmlns:xlink="http://www.w3.org/1999/xlink" contentStyleType="text/css" height="834px" preserveAspectRatio="none" style="width:823px;height:834px;background:#FFFFFF;" version="1.1" viewBox="0 0 823 834" width="823px" zoomAndPan="magnify"><defs/><g><!--class CollaboratorRepository--><g id="elem_CollaboratorRepository"><rect codeLine="13" fill="#F1F1F1" height="85.2422" id="CollaboratorRepository" rx="2.5" ry="2.5" style="stroke:#181818;stroke-width:0.5;" width="227" x="191" y="391"/><ellipse cx="228.05" cy="407" fill="#ADD1B2" rx="11" ry="11" style="stroke:#181818;stroke-width:1.0;"/><path d="M230.8156,402.875 Q230.9719,402.6563 231.1594,402.5469 Q231.3469,402.4375 231.5656,402.4375 Q231.9406,402.4375 232.175,402.7031 Q232.4094,402.9531 232.4094,403.5625 L232.4094,405.0156 Q232.4094,405.625 232.175,405.8906 Q231.9406,406.1563 231.5656,406.1563 Q231.2219,406.1563 231.0188,405.9531 Q230.8156,405.7656 230.7063,405.25 Q230.6594,404.8906 230.4719,404.7031 Q230.1438,404.3281 229.5344,404.1094 Q228.925,403.8906 228.3,403.8906 Q227.5344,403.8906 226.8938,404.2188 Q226.2688,404.5469 225.7688,405.2969 Q225.2844,406.0469 225.2844,407.0781 L225.2844,408.1719 Q225.2844,409.4063 226.175,410.2344 Q227.0656,411.0469 228.6594,411.0469 Q229.5969,411.0469 230.2531,410.7969 Q230.6438,410.6406 231.0656,410.2031 Q231.3313,409.9375 231.4719,409.8594 Q231.6281,409.7813 231.8313,409.7813 Q232.1594,409.7813 232.4094,410.0469 Q232.675,410.2969 232.675,410.6406 Q232.675,410.9844 232.3313,411.3906 Q231.8313,411.9688 231.0344,412.2969 Q229.9563,412.75 228.6594,412.75 Q227.1438,412.75 225.9406,412.125 Q224.9563,411.625 224.2688,410.5625 Q223.5813,409.4844 223.5813,408.2031 L223.5813,407.0469 Q223.5813,405.7188 224.1906,404.5781 Q224.8156,403.4219 225.9094,402.8125 Q227.0031,402.1875 228.2375,402.1875 Q228.9719,402.1875 229.6125,402.3594 Q230.2688,402.5156 230.8156,402.875 Z " fill="#000000"/><text fill="#000000" font-family="sans-serif" font-size="14" lengthAdjust="spacing" textLength="146" x="246.95" y="412.7969">CollaboratorRepository</text><line style="stroke:#181818;stroke-width:0.5;" x1="192" x2="417" y1="423" y2="423"/><text fill="#000000" font-family="sans-serif" font-size="14" lengthAdjust="spacing" textLength="215" x="197" y="442.1074">-collaborators : List&lt;Collaborator&gt;</text><line style="stroke:#181818;stroke-width:0.5;" x1="192" x2="417" y1="449.6211" y2="449.6211"/><text fill="#000000" font-family="sans-serif" font-size="14" lengthAdjust="spacing" textLength="123" x="197" y="468.7285">+getCollaborators()</text></g><!--class SkillRepository--><g id="elem_SkillRepository"><rect codeLine="19" fill="#F1F1F1" height="85.2422" id="SkillRepository" rx="2.5" ry="2.5" style="stroke:#181818;stroke-width:0.5;" width="125" x="673" y="391"/><ellipse cx="688" cy="407" fill="#ADD1B2" rx="11" ry="11" style="stroke:#181818;stroke-width:1.0;"/><path d="M690.7656,402.875 Q690.9219,402.6563 691.1094,402.5469 Q691.2969,402.4375 691.5156,402.4375 Q691.8906,402.4375 692.125,402.7031 Q692.3594,402.9531 692.3594,403.5625 L692.3594,405.0156 Q692.3594,405.625 692.125,405.8906 Q691.8906,406.1563 691.5156,406.1563 Q691.1719,406.1563 690.9688,405.9531 Q690.7656,405.7656 690.6563,405.25 Q690.6094,404.8906 690.4219,404.7031 Q690.0938,404.3281 689.4844,404.1094 Q688.875,403.8906 688.25,403.8906 Q687.4844,403.8906 686.8438,404.2188 Q686.2188,404.5469 685.7188,405.2969 Q685.2344,406.0469 685.2344,407.0781 L685.2344,408.1719 Q685.2344,409.4063 686.125,410.2344 Q687.0156,411.0469 688.6094,411.0469 Q689.5469,411.0469 690.2031,410.7969 Q690.5938,410.6406 691.0156,410.2031 Q691.2813,409.9375 691.4219,409.8594 Q691.5781,409.7813 691.7813,409.7813 Q692.1094,409.7813 692.3594,410.0469 Q692.625,410.2969 692.625,410.6406 Q692.625,410.9844 692.2813,411.3906 Q691.7813,411.9688 690.9844,412.2969 Q689.9063,412.75 688.6094,412.75 Q687.0938,412.75 685.8906,412.125 Q684.9063,411.625 684.2188,410.5625 Q683.5313,409.4844 683.5313,408.2031 L683.5313,407.0469 Q683.5313,405.7188 684.1406,404.5781 Q684.7656,403.4219 685.8594,402.8125 Q686.9531,402.1875 688.1875,402.1875 Q688.9219,402.1875 689.5625,402.3594 Q690.2188,402.5156 690.7656,402.875 Z " fill="#000000"/><text fill="#000000" font-family="sans-serif" font-size="14" lengthAdjust="spacing" textLength="93" x="702" y="412.7969">SkillRepository</text><line style="stroke:#181818;stroke-width:0.5;" x1="674" x2="797" y1="423" y2="423"/><text fill="#000000" font-family="sans-serif" font-size="14" lengthAdjust="spacing" textLength="110" x="679" y="442.1074">-skills : List&lt;Skill&gt;</text><line style="stroke:#181818;stroke-width:0.5;" x1="674" x2="797" y1="449.6211" y2="449.6211"/><text fill="#000000" font-family="sans-serif" font-size="14" lengthAdjust="spacing" textLength="63" x="679" y="468.7285">+getSkill()</text></g><!--class Repositories--><g id="elem_Repositories"><rect codeLine="24" fill="#F1F1F1" height="122.4844" id="Repositories" rx="2.5" ry="2.5" style="stroke:#181818;stroke-width:0.5;" width="196" x="430.5" y="208"/><ellipse cx="484.75" cy="224" fill="#ADD1B2" rx="11" ry="11" style="stroke:#181818;stroke-width:1.0;"/><path d="M487.5156,219.875 Q487.6719,219.6563 487.8594,219.5469 Q488.0469,219.4375 488.2656,219.4375 Q488.6406,219.4375 488.875,219.7031 Q489.1094,219.9531 489.1094,220.5625 L489.1094,222.0156 Q489.1094,222.625 488.875,222.8906 Q488.6406,223.1563 488.2656,223.1563 Q487.9219,223.1563 487.7188,222.9531 Q487.5156,222.7656 487.4063,222.25 Q487.3594,221.8906 487.1719,221.7031 Q486.8438,221.3281 486.2344,221.1094 Q485.625,220.8906 485,220.8906 Q484.2344,220.8906 483.5938,221.2188 Q482.9688,221.5469 482.4688,222.2969 Q481.9844,223.0469 481.9844,224.0781 L481.9844,225.1719 Q481.9844,226.4063 482.875,227.2344 Q483.7656,228.0469 485.3594,228.0469 Q486.2969,228.0469 486.9531,227.7969 Q487.3438,227.6406 487.7656,227.2031 Q488.0313,226.9375 488.1719,226.8594 Q488.3281,226.7813 488.5313,226.7813 Q488.8594,226.7813 489.1094,227.0469 Q489.375,227.2969 489.375,227.6406 Q489.375,227.9844 489.0313,228.3906 Q488.5313,228.9688 487.7344,229.2969 Q486.6563,229.75 485.3594,229.75 Q483.8438,229.75 482.6406,229.125 Q481.6563,228.625 480.9688,227.5625 Q480.2813,226.4844 480.2813,225.2031 L480.2813,224.0469 Q480.2813,222.7188 480.8906,221.5781 Q481.5156,220.4219 482.6094,219.8125 Q483.7031,219.1875 484.9375,219.1875 Q485.6719,219.1875 486.3125,219.3594 Q486.9688,219.5156 487.5156,219.875 Z " fill="#000000"/><text fill="#000000" font-family="sans-serif" font-size="14" lengthAdjust="spacing" textLength="79" x="505.25" y="229.7969">Repositories</text><line style="stroke:#181818;stroke-width:0.5;" x1="431.5" x2="625.5" y1="240" y2="240"/><line style="stroke:#181818;stroke-width:0.5;" x1="431.5" x2="625.5" y1="248" y2="248"/><text fill="#000000" font-family="sans-serif" font-size="14" lengthAdjust="spacing" textLength="94" x="436.5" y="267.1074">-Repositories()</text><text fill="#000000" font-family="sans-serif" font-size="14" lengthAdjust="spacing" textLength="182" x="436.5" y="285.7285">+getInstance() : Repositories</text><text fill="#000000" font-family="sans-serif" font-size="14" lengthAdjust="spacing" textLength="131" x="436.5" y="304.3496">+getSkillRepository()</text><text fill="#000000" font-family="sans-serif" font-size="14" lengthAdjust="spacing" textLength="184" x="436.5" y="322.9707">+getCollaboratorRepository()</text></g><!--class AssignSkillController--><g id="elem_AssignSkillController"><rect codeLine="31" fill="#F1F1F1" height="122.4844" id="AssignSkillController" rx="2.5" ry="2.5" style="stroke:#181818;stroke-width:0.5;" width="196" x="430.5" y="7"/><ellipse cx="461.25" cy="23" fill="#ADD1B2" rx="11" ry="11" style="stroke:#181818;stroke-width:1.0;"/><path d="M464.0156,18.875 Q464.1719,18.6563 464.3594,18.5469 Q464.5469,18.4375 464.7656,18.4375 Q465.1406,18.4375 465.375,18.7031 Q465.6094,18.9531 465.6094,19.5625 L465.6094,21.0156 Q465.6094,21.625 465.375,21.8906 Q465.1406,22.1563 464.7656,22.1563 Q464.4219,22.1563 464.2188,21.9531 Q464.0156,21.7656 463.9063,21.25 Q463.8594,20.8906 463.6719,20.7031 Q463.3438,20.3281 462.7344,20.1094 Q462.125,19.8906 461.5,19.8906 Q460.7344,19.8906 460.0938,20.2188 Q459.4688,20.5469 458.9688,21.2969 Q458.4844,22.0469 458.4844,23.0781 L458.4844,24.1719 Q458.4844,25.4063 459.375,26.2344 Q460.2656,27.0469 461.8594,27.0469 Q462.7969,27.0469 463.4531,26.7969 Q463.8438,26.6406 464.2656,26.2031 Q464.5313,25.9375 464.6719,25.8594 Q464.8281,25.7813 465.0313,25.7813 Q465.3594,25.7813 465.6094,26.0469 Q465.875,26.2969 465.875,26.6406 Q465.875,26.9844 465.5313,27.3906 Q465.0313,27.9688 464.2344,28.2969 Q463.1563,28.75 461.8594,28.75 Q460.3438,28.75 459.1406,28.125 Q458.1563,27.625 457.4688,26.5625 Q456.7813,25.4844 456.7813,24.2031 L456.7813,23.0469 Q456.7813,21.7188 457.3906,20.5781 Q458.0156,19.4219 459.1094,18.8125 Q460.2031,18.1875 461.4375,18.1875 Q462.1719,18.1875 462.8125,18.3594 Q463.4688,18.5156 464.0156,18.875 Z " fill="#000000"/><text fill="#000000" font-family="sans-serif" font-size="14" lengthAdjust="spacing" textLength="129" x="478.75" y="28.7969">AssignSkillController</text><line style="stroke:#181818;stroke-width:0.5;" x1="431.5" x2="625.5" y1="39" y2="39"/><text fill="#000000" font-family="sans-serif" font-size="14" lengthAdjust="spacing" textLength="151" x="436.5" y="58.1074">-CollaboratorRepository</text><text fill="#000000" font-family="sans-serif" font-size="14" lengthAdjust="spacing" textLength="105" x="436.5" y="76.7285">-SkillsRepository</text><line style="stroke:#181818;stroke-width:0.5;" x1="431.5" x2="625.5" y1="84.2422" y2="84.2422"/><text fill="#000000" font-family="sans-serif" font-size="14" lengthAdjust="spacing" textLength="184" x="436.5" y="103.3496">+getCollaboratorRepository()</text><text fill="#000000" font-family="sans-serif" font-size="14" lengthAdjust="spacing" textLength="131" x="436.5" y="121.9707">+getSkillRepository()</text></g><!--class AssignSkillUI--><g id="elem_AssignSkillUI"><rect codeLine="41" fill="#F1F1F1" height="48" id="AssignSkillUI" rx="2.5" ry="2.5" style="stroke:#181818;stroke-width:0.5;" width="111" x="284" y="44"/><ellipse cx="299" cy="60" fill="#ADD1B2" rx="11" ry="11" style="stroke:#181818;stroke-width:1.0;"/><path d="M301.7656,55.875 Q301.9219,55.6563 302.1094,55.5469 Q302.2969,55.4375 302.5156,55.4375 Q302.8906,55.4375 303.125,55.7031 Q303.3594,55.9531 303.3594,56.5625 L303.3594,58.0156 Q303.3594,58.625 303.125,58.8906 Q302.8906,59.1563 302.5156,59.1563 Q302.1719,59.1563 301.9688,58.9531 Q301.7656,58.7656 301.6563,58.25 Q301.6094,57.8906 301.4219,57.7031 Q301.0938,57.3281 300.4844,57.1094 Q299.875,56.8906 299.25,56.8906 Q298.4844,56.8906 297.8438,57.2188 Q297.2188,57.5469 296.7188,58.2969 Q296.2344,59.0469 296.2344,60.0781 L296.2344,61.1719 Q296.2344,62.4063 297.125,63.2344 Q298.0156,64.0469 299.6094,64.0469 Q300.5469,64.0469 301.2031,63.7969 Q301.5938,63.6406 302.0156,63.2031 Q302.2813,62.9375 302.4219,62.8594 Q302.5781,62.7813 302.7813,62.7813 Q303.1094,62.7813 303.3594,63.0469 Q303.625,63.2969 303.625,63.6406 Q303.625,63.9844 303.2813,64.3906 Q302.7813,64.9688 301.9844,65.2969 Q300.9063,65.75 299.6094,65.75 Q298.0938,65.75 296.8906,65.125 Q295.9063,64.625 295.2188,63.5625 Q294.5313,62.4844 294.5313,61.2031 L294.5313,60.0469 Q294.5313,58.7188 295.1406,57.5781 Q295.7656,56.4219 296.8594,55.8125 Q297.9531,55.1875 299.1875,55.1875 Q299.9219,55.1875 300.5625,55.3594 Q301.2188,55.5156 301.7656,55.875 Z " fill="#000000"/><text fill="#000000" font-family="sans-serif" font-size="14" lengthAdjust="spacing" textLength="79" x="313" y="65.7969">AssignSkillUI</text><line style="stroke:#181818;stroke-width:0.5;" x1="285" x2="394" y1="76" y2="76"/><line style="stroke:#181818;stroke-width:0.5;" x1="285" x2="394" y1="84" y2="84"/></g><!--class Skill--><g id="elem_Skill"><rect codeLine="43" fill="#F1F1F1" height="66.6211" id="Skill" rx="2.5" ry="2.5" style="stroke:#181818;stroke-width:0.5;" width="121" x="675" y="648.5"/><ellipse cx="718.8" cy="664.5" fill="#ADD1B2" rx="11" ry="11" style="stroke:#181818;stroke-width:1.0;"/><path d="M721.5656,660.375 Q721.7219,660.1563 721.9094,660.0469 Q722.0969,659.9375 722.3156,659.9375 Q722.6906,659.9375 722.925,660.2031 Q723.1594,660.4531 723.1594,661.0625 L723.1594,662.5156 Q723.1594,663.125 722.925,663.3906 Q722.6906,663.6563 722.3156,663.6563 Q721.9719,663.6563 721.7688,663.4531 Q721.5656,663.2656 721.4563,662.75 Q721.4094,662.3906 721.2219,662.2031 Q720.8938,661.8281 720.2844,661.6094 Q719.675,661.3906 719.05,661.3906 Q718.2844,661.3906 717.6438,661.7188 Q717.0188,662.0469 716.5188,662.7969 Q716.0344,663.5469 716.0344,664.5781 L716.0344,665.6719 Q716.0344,666.9063 716.925,667.7344 Q717.8156,668.5469 719.4094,668.5469 Q720.3469,668.5469 721.0031,668.2969 Q721.3938,668.1406 721.8156,667.7031 Q722.0813,667.4375 722.2219,667.3594 Q722.3781,667.2813 722.5813,667.2813 Q722.9094,667.2813 723.1594,667.5469 Q723.425,667.7969 723.425,668.1406 Q723.425,668.4844 723.0813,668.8906 Q722.5813,669.4688 721.7844,669.7969 Q720.7063,670.25 719.4094,670.25 Q717.8938,670.25 716.6906,669.625 Q715.7063,669.125 715.0188,668.0625 Q714.3313,666.9844 714.3313,665.7031 L714.3313,664.5469 Q714.3313,663.2188 714.9406,662.0781 Q715.5656,660.9219 716.6594,660.3125 Q717.7531,659.6875 718.9875,659.6875 Q719.7219,659.6875 720.3625,659.8594 Q721.0188,660.0156 721.5656,660.375 Z " fill="#000000"/><text fill="#000000" font-family="sans-serif" font-size="14" lengthAdjust="spacing" textLength="25" x="739.2" y="670.2969">Skill</text><line style="stroke:#181818;stroke-width:0.5;" x1="676" x2="795" y1="680.5" y2="680.5"/><line style="stroke:#181818;stroke-width:0.5;" x1="676" x2="795" y1="688.5" y2="688.5"/><text fill="#000000" font-family="sans-serif" font-size="14" lengthAdjust="spacing" textLength="109" x="681" y="707.6074">+Skill(String Skill)</text></g><!--class Collaborator--><g id="elem_Collaborator"><rect codeLine="46" fill="#F1F1F1" height="290.0742" id="Collaborator" rx="2.5" ry="2.5" style="stroke:#181818;stroke-width:0.5;" width="595" x="7" y="537"/><ellipse cx="261.25" cy="553" fill="#ADD1B2" rx="11" ry="11" style="stroke:#181818;stroke-width:1.0;"/><path d="M264.0156,548.875 Q264.1719,548.6563 264.3594,548.5469 Q264.5469,548.4375 264.7656,548.4375 Q265.1406,548.4375 265.375,548.7031 Q265.6094,548.9531 265.6094,549.5625 L265.6094,551.0156 Q265.6094,551.625 265.375,551.8906 Q265.1406,552.1563 264.7656,552.1563 Q264.4219,552.1563 264.2188,551.9531 Q264.0156,551.7656 263.9063,551.25 Q263.8594,550.8906 263.6719,550.7031 Q263.3438,550.3281 262.7344,550.1094 Q262.125,549.8906 261.5,549.8906 Q260.7344,549.8906 260.0938,550.2188 Q259.4688,550.5469 258.9688,551.2969 Q258.4844,552.0469 258.4844,553.0781 L258.4844,554.1719 Q258.4844,555.4063 259.375,556.2344 Q260.2656,557.0469 261.8594,557.0469 Q262.7969,557.0469 263.4531,556.7969 Q263.8438,556.6406 264.2656,556.2031 Q264.5313,555.9375 264.6719,555.8594 Q264.8281,555.7813 265.0313,555.7813 Q265.3594,555.7813 265.6094,556.0469 Q265.875,556.2969 265.875,556.6406 Q265.875,556.9844 265.5313,557.3906 Q265.0313,557.9688 264.2344,558.2969 Q263.1563,558.75 261.8594,558.75 Q260.3438,558.75 259.1406,558.125 Q258.1563,557.625 257.4688,556.5625 Q256.7813,555.4844 256.7813,554.2031 L256.7813,553.0469 Q256.7813,551.7188 257.3906,550.5781 Q258.0156,549.4219 259.1094,548.8125 Q260.2031,548.1875 261.4375,548.1875 Q262.1719,548.1875 262.8125,548.3594 Q263.4688,548.5156 264.0156,548.875 Z " fill="#000000"/><text fill="#000000" font-family="sans-serif" font-size="14" lengthAdjust="spacing" textLength="78" x="281.75" y="558.7969">Collaborator</text><line style="stroke:#181818;stroke-width:0.5;" x1="8" x2="601" y1="569" y2="569"/><text fill="#000000" font-family="sans-serif" font-size="14" lengthAdjust="spacing" textLength="89" x="13" y="588.1074">-name : String</text><text fill="#000000" font-family="sans-serif" font-size="14" lengthAdjust="spacing" textLength="105" x="13" y="606.7285">-address : String</text><text fill="#000000" font-family="sans-serif" font-size="14" lengthAdjust="spacing" textLength="87" x="13" y="625.3496">-email : String</text><text fill="#000000" font-family="sans-serif" font-size="14" lengthAdjust="spacing" textLength="143" x="13" y="643.9707">-phoneNumber : String</text><text fill="#000000" font-family="sans-serif" font-size="14" lengthAdjust="spacing" textLength="97" x="13" y="662.5918">-idType : String</text><text fill="#000000" font-family="sans-serif" font-size="14" lengthAdjust="spacing" textLength="114" x="13" y="681.2129">-idNumber : String</text><text fill="#000000" font-family="sans-serif" font-size="14" lengthAdjust="spacing" textLength="139" x="13" y="699.834">-birthDate : LocalDate</text><text fill="#000000" font-family="sans-serif" font-size="14" lengthAdjust="spacing" textLength="174" x="13" y="718.4551">-admissionDate : LocalDate</text><text fill="#000000" font-family="sans-serif" font-size="14" lengthAdjust="spacing" textLength="73" x="13" y="737.0762">-job : String</text><text fill="#000000" font-family="sans-serif" font-size="14" lengthAdjust="spacing" textLength="110" x="13" y="755.6973">-skills : List&lt;Skill&gt;</text><line style="stroke:#181818;stroke-width:0.5;" x1="8" x2="601" y1="763.2109" y2="763.2109"/><text fill="#000000" font-family="sans-serif" font-size="14" lengthAdjust="spacing" textLength="583" x="13" y="782.3184">+Collaborator(String name, String address, String email, String phoneNumber, String idType,</text><text fill="#000000" font-family="sans-serif" font-size="14" lengthAdjust="spacing" textLength="477" x="13" y="800.9395">String idNumber, LocalDate birthDate, LocalDate admissionDate, String job)</text><text fill="#000000" font-family="sans-serif" font-size="14" lengthAdjust="spacing" textLength="166" x="13" y="819.5605">+setSkills(List&lt;Skill&gt; skills)</text></g><!--link AssignSkillUI to AssignSkillController--><g id="link_AssignSkillUI_AssignSkillController"><path codeLine="62" d="M395.27,68 C399.7,68 402.5,68 402.5,68 C402.5,68 409.89,68 424.32,68 " fill="none" id="AssignSkillUI-to-AssignSkillController" style="stroke:#181818;stroke-width:1.0;stroke-dasharray:7.0,7.0;"/><polygon fill="#181818" points="430.32,68,421.32,64,425.32,68,421.32,72,430.32,68" style="stroke:#181818;stroke-width:1.0;"/></g><!--link AssignSkillController to Repositories--><g id="link_AssignSkillController_Repositories"><path codeLine="63" d="M528.5,129.25 C528.5,154.18 528.5,177.04 528.5,201.96 " fill="none" id="AssignSkillController-to-Repositories" style="stroke:#181818;stroke-width:1.0;stroke-dasharray:7.0,7.0;"/><polygon fill="#181818" points="528.5,207.96,532.5,198.96,528.5,202.96,524.5,198.96,528.5,207.96" style="stroke:#181818;stroke-width:1.0;"/><text fill="#000000" font-family="sans-serif" font-size="13" lengthAdjust="spacing" textLength="67" x="529.5" y="174.0283">repositories</text></g><!--link Repositories to SkillRepository--><g id="link_Repositories_SkillRepository"><path codeLine="64" d="M604.99,330.05 C630.79,350.3 654.2702,368.7355 677.8402,387.2355 " fill="none" id="Repositories-to-SkillRepository" style="stroke:#181818;stroke-width:1.0;"/><polygon fill="#181818" points="682.56,390.94,677.95,382.2367,678.6268,387.8529,673.0106,388.5297,682.56,390.94" style="stroke:#181818;stroke-width:1.0;"/><text fill="#000000" font-family="sans-serif" font-size="13" lengthAdjust="spacing" textLength="7" x="666.5649" y="379.8345">1</text></g><!--link Repositories to CollaboratorRepository--><g id="link_Repositories_CollaboratorRepository"><path codeLine="65" d="M445.73,330.05 C417.81,350.3 392.1465,368.9166 366.6465,387.4166 " fill="none" id="Repositories-to-CollaboratorRepository" style="stroke:#181818;stroke-width:1.0;"/><polygon fill="#181818" points="361.79,390.94,371.4237,388.8926,365.8371,388.0039,366.7259,382.4173,361.79,390.94" style="stroke:#181818;stroke-width:1.0;"/><text fill="#000000" font-family="sans-serif" font-size="13" lengthAdjust="spacing" textLength="7" x="363.3628" y="379.8345">1</text></g><!--link SkillRepository to Skill--><g id="link_SkillRepository_Skill"><path codeLine="66" d="M735.5,476.04 C735.5,524.61 735.5,598 735.5,642.37 " fill="none" id="SkillRepository-to-Skill" style="stroke:#181818;stroke-width:1.0;"/><polygon fill="#181818" points="735.5,648.37,739.5,639.37,735.5,643.37,731.5,639.37,735.5,648.37" style="stroke:#181818;stroke-width:1.0;"/><text fill="#000000" font-family="sans-serif" font-size="13" lengthAdjust="spacing" textLength="7" x="727.9422" y="498.2067">1</text><text fill="#000000" font-family="sans-serif" font-size="13" lengthAdjust="spacing" textLength="12" x="722.3188" y="637.1699">1*</text></g><!--link CollaboratorRepository to Collaborator--><g id="link_CollaboratorRepository_Collaborator"><path codeLine="67" d="M304.5,476.04 C304.5,493.39 304.5,508.69 304.5,530.91 " fill="none" id="CollaboratorRepository-to-Collaborator" style="stroke:#181818;stroke-width:1.0;"/><polygon fill="#181818" points="304.5,536.91,308.5,527.91,304.5,531.91,300.5,527.91,304.5,536.91" style="stroke:#181818;stroke-width:1.0;"/><text fill="#000000" font-family="sans-serif" font-size="13" lengthAdjust="spacing" textLength="7" x="296.9422" y="498.2067">1</text><text fill="#000000" font-family="sans-serif" font-size="13" lengthAdjust="spacing" textLength="7" x="297.3086" y="525.5448">1</text></g><!--link Repositories to Repositories--><g id="link_Repositories_Repositories"><path codeLine="68" d="M626.52,252.72 C646.87,254.43 661.5,259.86 661.5,269 C661.5,278.14 652.8489,283.0676 632.4989,284.7776 " fill="none" id="Repositories-to-Repositories" style="stroke:#181818;stroke-width:1.0;"/><polygon fill="#181818" points="626.52,285.28,635.8233,288.5123,631.5024,284.8613,635.1535,280.5404,626.52,285.28" style="stroke:#181818;stroke-width:1.0;"/><text fill="#000000" font-family="sans-serif" font-size="13" lengthAdjust="spacing" textLength="49" x="667.5" y="274.5283">instance</text></g><!--link AssignSkillController to SkillRepository--><g id="link_AssignSkillController_SkillRepository"><path codeLine="69" d="M612.46,129.16 C664.89,166.73 722.5,208 722.5,208 C722.5,208 728.9831,319.89 732.7431,384.81 " fill="none" id="AssignSkillController-to-SkillRepository" style="stroke:#181818;stroke-width:1.0;stroke-dasharray:7.0,7.0;"/><polygon fill="#181818" points="733.09,390.8,736.5629,381.5838,732.8009,385.8084,728.5763,382.0463,733.09,390.8" style="stroke:#181818;stroke-width:1.0;"/><text fill="#000000" font-family="sans-serif" font-size="13" lengthAdjust="spacing" textLength="85" x="730.5" y="274.5283">skillRepository</text></g><!--link AssignSkillController to CollaboratorRepository--><g id="link_AssignSkillController_CollaboratorRepository"><path codeLine="70" d="M430.17,124.34 C361.29,163.1 281.5,208 281.5,208 C281.5,208 281.5,330 281.5,330 C281.5,330 287.466,356.5757 293.836,384.9557 " fill="none" id="AssignSkillController-to-CollaboratorRepository" style="stroke:#181818;stroke-width:1.0;stroke-dasharray:7.0,7.0;"/><polygon fill="#181818" points="295.15,390.81,297.0819,381.1525,294.055,385.9314,289.2761,382.9045,295.15,390.81" style="stroke:#181818;stroke-width:1.0;"/><text fill="#000000" font-family="sans-serif" font-size="13" lengthAdjust="spacing" textLength="129" x="282.5" y="274.5283">collaboratorRepository</text></g><!--SRC=[ZLJ1Rjim3BthAuXUagnDiLs38K3HNG8KEopR1yWoQskH9KDKC6H3_tsoB3koOXVLoIBVUtoKAQte97NBBM-WCTg8sfe6mTapickcvUB4ApowYqAmA1pNbKe1LFFI_96wWbUkACqegT5TMeJMg4ktOQkPfB7Ei8Gb52TwSixAukpm88m-ohy8dnbRANnru0nOMTKEIjdPaKOplm8BderIl32MEsD_O6j8-eyB_6FWrrOaMO8Tl4XoNrFAFk3kAtHfbDORnjw64iUJLEf6k-E4ZCU6MjHjnY8XjR-AZ7o9DBYR1AFCFNZTWoP_w0BN6o-NWgQLhvu6SjR7131QUIAIbGuApqOxwmbeawuM5TullftdzRb0eIJQsPanzElWZRob1nzzzKTzz3FYnoviDYCkBHpXQMXWQTxW0yGDBqkBHECU6oxLk6jhe_7xkIdGZZ5P_lJ3-n3qFxP6ug3qOWHNtxX3AAHrTVUL1ddPI7yKHlU9IFzjYdZ0NGD-8Ffu7ufjPD7GJ1PBMieoVMCtmLdiwBkRyy7uO2LnVvlsRMHQinSc_3sACqRh90KzFWpoT68Uz_CppUOd_T7Z9zTnvr-vv8vDSjlj_kxBNVu6p68MvZz_FZmq43v5LRRmX0sugN1M-QOJ6P-ETthF3NaMPUqjanVCxa3CTy_-0m00]--></g></svg>