<?xml version="1.0" encoding="us-ascii" standalone="no"?><svg xmlns="http://www.w3.org/2000/svg" xmlns:xlink="http://www.w3.org/1999/xlink" contentStyleType="text/css" height="938.7px" preserveAspectRatio="none" style="width:1256px;height:938px;background:#FFFFFF;" version="1.1" viewBox="0 0 1256 938" width="1256.4px" zoomAndPan="magnify"><defs/><g><rect fill="#FFFFFF" height="772.3688" style="stroke:#181818;stroke-width:0.9;" width="9" x="81.9" y="84.259"/><rect fill="#FFFFFF" height="574.3354" style="stroke:#181818;stroke-width:0.9;" width="9" x="432" y="105.2209"/><rect fill="#FFFFFF" height="140.8096" style="stroke:#181818;stroke-width:0.9;" width="9" x="432" y="707.7182"/><rect fill="#FFFFFF" height="197.1334" style="stroke:#181818;stroke-width:0.9;" width="9" x="639" y="228.9656"/><rect fill="#FFFFFF" height="197.1334" style="stroke:#181818;stroke-width:0.9;" width="9" x="639" y="454.2609"/><rect fill="#FFFFFF" height="84.4857" style="stroke:#181818;stroke-width:0.9;" width="9" x="639" y="735.8801"/><rect fill="#FFFFFF" height="28.1619" style="stroke:#181818;stroke-width:0.9;" width="9" x="754.2" y="257.1275"/><rect fill="#FFFFFF" height="28.1619" style="stroke:#181818;stroke-width:0.9;" width="9" x="754.2" y="482.4229"/><rect fill="#FFFFFF" height="28.1619" style="stroke:#181818;stroke-width:0.9;" width="9" x="848.7" y="313.4514"/><rect fill="#FFFFFF" height="28.1619" style="stroke:#181818;stroke-width:0.9;" width="9" x="848.7" y="538.7467"/><rect fill="#FFFFFF" height="28.1619" style="stroke:#181818;stroke-width:0.9;" width="9" x="973.35" y="369.7752"/><rect fill="#FFFFFF" height="28.1619" style="stroke:#181818;stroke-width:0.9;" width="9" x="1102.5" y="595.0705"/><rect fill="#FFFFFF" height="28.1619" style="stroke:#181818;stroke-width:0.9;" width="9" x="1203.3" y="764.042"/><line style="stroke:#181818;stroke-width:0.45;stroke-dasharray:5.0,5.0;" x1="86.4" x2="86.4" y1="75.259" y2="864.7277"/><line style="stroke:#181818;stroke-width:0.45;stroke-dasharray:5.0,5.0;" x1="436.05" x2="436.05" y1="75.259" y2="864.7277"/><line style="stroke:#181818;stroke-width:0.45;stroke-dasharray:5.0,5.0;" x1="643.05" x2="643.05" y1="197.3742" y2="864.7277"/><line style="stroke:#181818;stroke-width:0.45;stroke-dasharray:5.0,5.0;" x1="758.25" x2="758.25" y1="75.259" y2="864.7277"/><line style="stroke:#181818;stroke-width:0.45;stroke-dasharray:5.0,5.0;" x1="852.75" x2="852.75" y1="75.259" y2="864.7277"/><line style="stroke:#181818;stroke-width:0.45;stroke-dasharray:5.0,5.0;" x1="977.85" x2="977.85" y1="75.259" y2="864.7277"/><line style="stroke:#181818;stroke-width:0.45;stroke-dasharray:5.0,5.0;" x1="1106.55" x2="1106.55" y1="75.259" y2="864.7277"/><line style="stroke:#181818;stroke-width:0.45;stroke-dasharray:5.0,5.0;" x1="1207.35" x2="1207.35" y1="75.259" y2="864.7277"/><text fill="#000000" font-family="sans-serif" font-size="12.6" lengthAdjust="spacing" textLength="158.4" x="4.5" y="72.0967">Human Resources Manager</text><ellipse cx="86.4" cy="12.15" fill="#E2E2F0" rx="7.2" ry="7.2" style="stroke:#181818;stroke-width:0.45;"/><path d="M86.4,19.35 L86.4,43.65 M74.7,26.55 L98.1,26.55 M86.4,43.65 L74.7,57.15 M86.4,43.65 L98.1,57.15 " fill="none" style="stroke:#181818;stroke-width:0.45;"/><text fill="#000000" font-family="sans-serif" font-size="12.6" lengthAdjust="spacing" textLength="158.4" x="4.5" y="877.4244">Human Resources Manager</text><ellipse cx="86.4" cy="888.2367" fill="#E2E2F0" rx="7.2" ry="7.2" style="stroke:#181818;stroke-width:0.45;"/><path d="M86.4,895.4367 L86.4,919.7367 M74.7,902.6367 L98.1,902.6367 M86.4,919.7367 L74.7,933.2367 M86.4,919.7367 L98.1,933.2367 " fill="none" style="stroke:#181818;stroke-width:0.45;"/><rect fill="#E2E2F0" height="29.359" rx="2.25" ry="2.25" style="stroke:#181818;stroke-width:0.45;" width="83.7" x="394.65" y="45"/><text fill="#000000" font-family="sans-serif" font-size="12.6" lengthAdjust="spacing" textLength="71.1" x="400.95" y="64.8967">AssignSkillUI</text><rect fill="#E2E2F0" height="29.359" rx="2.25" ry="2.25" style="stroke:#181818;stroke-width:0.45;" width="83.7" x="394.65" y="863.8277"/><text fill="#000000" font-family="sans-serif" font-size="12.6" lengthAdjust="spacing" textLength="71.1" x="400.95" y="883.7244">AssignSkillUI</text><rect fill="#E2E2F0" height="29.359" rx="2.25" ry="2.25" style="stroke:#181818;stroke-width:0.45;" width="128.7" x="579.15" y="863.8277"/><text fill="#000000" font-family="sans-serif" font-size="12.6" lengthAdjust="spacing" textLength="116.1" x="585.45" y="883.7244">AssignSkillController</text><rect fill="#E2E2F0" height="29.359" rx="2.25" ry="2.25" style="stroke:#181818;stroke-width:0.45;" width="83.7" x="716.85" y="45"/><text fill="#000000" font-family="sans-serif" font-size="12.6" lengthAdjust="spacing" textLength="71.1" x="723.15" y="64.8967">Repositories</text><rect fill="#E2E2F0" height="29.359" rx="2.25" ry="2.25" style="stroke:#181818;stroke-width:0.45;" width="83.7" x="716.85" y="863.8277"/><text fill="#000000" font-family="sans-serif" font-size="12.6" lengthAdjust="spacing" textLength="71.1" x="723.15" y="883.7244">Repositories</text><rect fill="#E2E2F0" height="46.118" rx="2.25" ry="2.25" style="stroke:#181818;stroke-width:0.45;" width="87.3" x="809.55" y="28.241"/><text fill="#000000" font-family="sans-serif" font-size="12.6" lengthAdjust="spacing" textLength="71.1" x="815.85" y="48.1377">Repositories</text><text fill="#000000" font-family="sans-serif" font-size="12.6" lengthAdjust="spacing" textLength="74.7" x="815.85" y="64.8967">:Repositories</text><rect fill="#E2E2F0" height="46.118" rx="2.25" ry="2.25" style="stroke:#181818;stroke-width:0.45;" width="87.3" x="809.55" y="863.8277"/><text fill="#000000" font-family="sans-serif" font-size="12.6" lengthAdjust="spacing" textLength="71.1" x="815.85" y="883.7244">Repositories</text><text fill="#000000" font-family="sans-serif" font-size="12.6" lengthAdjust="spacing" textLength="74.7" x="815.85" y="900.4834">:Repositories</text><rect fill="#E2E2F0" height="29.359" rx="2.25" ry="2.25" style="stroke:#181818;stroke-width:0.45;" width="144" x="905.85" y="45"/><text fill="#000000" font-family="sans-serif" font-size="12.6" lengthAdjust="spacing" textLength="131.4" x="912.15" y="64.8967">CollaboratorRepository</text><rect fill="#E2E2F0" height="29.359" rx="2.25" ry="2.25" style="stroke:#181818;stroke-width:0.45;" width="144" x="905.85" y="863.8277"/><text fill="#000000" font-family="sans-serif" font-size="12.6" lengthAdjust="spacing" textLength="131.4" x="912.15" y="883.7244">CollaboratorRepository</text><rect fill="#E2E2F0" height="29.359" rx="2.25" ry="2.25" style="stroke:#181818;stroke-width:0.45;" width="96.3" x="1058.85" y="45"/><text fill="#000000" font-family="sans-serif" font-size="12.6" lengthAdjust="spacing" textLength="83.7" x="1065.15" y="64.8967">SkillRepository</text><rect fill="#E2E2F0" height="29.359" rx="2.25" ry="2.25" style="stroke:#181818;stroke-width:0.45;" width="96.3" x="1058.85" y="863.8277"/><text fill="#000000" font-family="sans-serif" font-size="12.6" lengthAdjust="spacing" textLength="83.7" x="1065.15" y="883.7244">SkillRepository</text><rect fill="#E2E2F0" height="46.118" rx="2.25" ry="2.25" style="stroke:#181818;stroke-width:0.45;" width="87.3" x="1164.15" y="28.241"/><text fill="#000000" font-family="sans-serif" font-size="12.6" lengthAdjust="spacing" textLength="70.2" x="1170.9" y="48.1377">Collaborator</text><text fill="#000000" font-family="sans-serif" font-size="12.6" lengthAdjust="spacing" textLength="71.1" x="1174.05" y="64.8967">:collaborator</text><rect fill="#E2E2F0" height="46.118" rx="2.25" ry="2.25" style="stroke:#181818;stroke-width:0.45;" width="87.3" x="1164.15" y="863.8277"/><text fill="#000000" font-family="sans-serif" font-size="12.6" lengthAdjust="spacing" textLength="70.2" x="1170.9" y="883.7244">Collaborator</text><text fill="#000000" font-family="sans-serif" font-size="12.6" lengthAdjust="spacing" textLength="71.1" x="1174.05" y="900.4834">:collaborator</text><rect fill="#FFFFFF" height="772.3688" style="stroke:#181818;stroke-width:0.9;" width="9" x="81.9" y="84.259"/><rect fill="#FFFFFF" height="574.3354" style="stroke:#181818;stroke-width:0.9;" width="9" x="432" y="105.2209"/><rect fill="#FFFFFF" height="140.8096" style="stroke:#181818;stroke-width:0.9;" width="9" x="432" y="707.7182"/><rect fill="#FFFFFF" height="197.1334" style="stroke:#181818;stroke-width:0.9;" width="9" x="639" y="228.9656"/><rect fill="#FFFFFF" height="197.1334" style="stroke:#181818;stroke-width:0.9;" width="9" x="639" y="454.2609"/><rect fill="#FFFFFF" height="84.4857" style="stroke:#181818;stroke-width:0.9;" width="9" x="639" y="735.8801"/><rect fill="#FFFFFF" height="28.1619" style="stroke:#181818;stroke-width:0.9;" width="9" x="754.2" y="257.1275"/><rect fill="#FFFFFF" height="28.1619" style="stroke:#181818;stroke-width:0.9;" width="9" x="754.2" y="482.4229"/><rect fill="#FFFFFF" height="28.1619" style="stroke:#181818;stroke-width:0.9;" width="9" x="848.7" y="313.4514"/><rect fill="#FFFFFF" height="28.1619" style="stroke:#181818;stroke-width:0.9;" width="9" x="848.7" y="538.7467"/><rect fill="#FFFFFF" height="28.1619" style="stroke:#181818;stroke-width:0.9;" width="9" x="973.35" y="369.7752"/><rect fill="#FFFFFF" height="28.1619" style="stroke:#181818;stroke-width:0.9;" width="9" x="1102.5" y="595.0705"/><rect fill="#FFFFFF" height="28.1619" style="stroke:#181818;stroke-width:0.9;" width="9" x="1203.3" y="764.042"/><polygon fill="#181818" points="421.2,101.6209,430.2,105.2209,421.2,108.8209,424.8,105.2209" style="stroke:#181818;stroke-width:0.9;"/><line style="stroke:#181818;stroke-width:0.9;" x1="90.9" x2="426.6" y1="105.2209" y2="105.2209"/><text fill="#000000" font-family="sans-serif" font-size="11.7" font-weight="bold" lengthAdjust="spacing" textLength="6.3" x="97.2" y="100.4845">1</text><text fill="#000000" font-family="sans-serif" font-size="11.7" lengthAdjust="spacing" textLength="299.7" x="107.1" y="100.4845">asks to assign one or more competences to an employee</text><polygon fill="#181818" points="100.8,129.7828,91.8,133.3828,100.8,136.9828,97.2,133.3828" style="stroke:#181818;stroke-width:0.9;"/><line style="stroke:#181818;stroke-width:0.9;" x1="95.4" x2="431.1" y1="133.3828" y2="133.3828"/><text fill="#000000" font-family="sans-serif" font-size="11.7" font-weight="bold" lengthAdjust="spacing" textLength="6.3" x="106.2" y="128.6464">2</text><text fill="#000000" font-family="sans-serif" font-size="11.7" lengthAdjust="spacing" textLength="309.6" x="116.1" y="128.6464">requests data (an employee and the competence to assign)</text><polygon fill="#181818" points="421.2,157.9447,430.2,161.5447,421.2,165.1447,424.8,161.5447" style="stroke:#181818;stroke-width:0.9;"/><line style="stroke:#181818;stroke-width:0.9;" x1="90.9" x2="426.6" y1="161.5447" y2="161.5447"/><text fill="#000000" font-family="sans-serif" font-size="11.7" font-weight="bold" lengthAdjust="spacing" textLength="6.3" x="97.2" y="156.8083">3</text><text fill="#000000" font-family="sans-serif" font-size="11.7" lengthAdjust="spacing" textLength="109.8" x="107.1" y="156.8083">types requested data</text><polygon fill="#181818" points="568.35,186.1066,577.35,189.7066,568.35,193.3066,571.95,189.7066" style="stroke:#181818;stroke-width:0.9;"/><line style="stroke:#181818;stroke-width:0.9;" x1="441" x2="573.75" y1="189.7066" y2="189.7066"/><text fill="#000000" font-family="sans-serif" font-size="11.7" font-weight="bold" lengthAdjust="spacing" textLength="6.3" x="447.3" y="184.9702">4</text><text fill="#000000" font-family="sans-serif" font-size="11.7" lengthAdjust="spacing" textLength="32.4" x="457.2" y="184.9702">create</text><rect fill="#E2E2F0" height="29.359" rx="2.25" ry="2.25" style="stroke:#181818;stroke-width:0.45;" width="128.7" x="579.15" y="168.7447"/><text fill="#000000" font-family="sans-serif" font-size="12.6" lengthAdjust="spacing" textLength="116.1" x="585.45" y="188.6414">AssignSkillController</text><polygon fill="#181818" points="628.2,225.3656,637.2,228.9656,628.2,232.5656,631.8,228.9656" style="stroke:#181818;stroke-width:0.9;"/><line style="stroke:#181818;stroke-width:0.9;" x1="441" x2="633.6" y1="228.9656" y2="228.9656"/><text fill="#000000" font-family="sans-serif" font-size="11.7" font-weight="bold" lengthAdjust="spacing" textLength="6.3" x="447.3" y="224.2292">5</text><text fill="#000000" font-family="sans-serif" font-size="11.7" lengthAdjust="spacing" textLength="141.3" x="457.2" y="224.2292">getCollaboratorRepository()</text><polygon fill="#181818" points="743.4,253.5275,752.4,257.1275,743.4,260.7275,747,257.1275" style="stroke:#181818;stroke-width:0.9;"/><line style="stroke:#181818;stroke-width:0.9;" x1="648" x2="748.8" y1="257.1275" y2="257.1275"/><text fill="#000000" font-family="sans-serif" font-size="11.7" font-weight="bold" lengthAdjust="spacing" textLength="6.3" x="654.3" y="252.3911">6</text><text fill="#000000" font-family="sans-serif" font-size="11.7" lengthAdjust="spacing" textLength="67.5" x="664.2" y="252.3911">getInstance()</text><polygon fill="#181818" points="657.9,281.6895,648.9,285.2895,657.9,288.8895,654.3,285.2895" style="stroke:#181818;stroke-width:0.9;"/><line style="stroke:#181818;stroke-width:0.9;stroke-dasharray:2.0,2.0;" x1="652.5" x2="757.8" y1="285.2895" y2="285.2895"/><text fill="#000000" font-family="sans-serif" font-size="11.7" font-weight="bold" lengthAdjust="spacing" textLength="6.3" x="663.3" y="280.553">7</text><text fill="#000000" font-family="sans-serif" font-size="11.7" lengthAdjust="spacing" textLength="44.1" x="673.2" y="280.553">Instance</text><polygon fill="#181818" points="837.9,309.8514,846.9,313.4514,837.9,317.0514,841.5,313.4514" style="stroke:#181818;stroke-width:0.9;"/><line style="stroke:#181818;stroke-width:0.9;" x1="648" x2="843.3" y1="313.4514" y2="313.4514"/><text fill="#000000" font-family="sans-serif" font-size="11.7" font-weight="bold" lengthAdjust="spacing" textLength="6.3" x="654.3" y="308.7149">8</text><text fill="#000000" font-family="sans-serif" font-size="11.7" lengthAdjust="spacing" textLength="141.3" x="664.2" y="308.7149">getCollaboratorRepository()</text><polygon fill="#181818" points="657.9,338.0133,648.9,341.6133,657.9,345.2133,654.3,341.6133" style="stroke:#181818;stroke-width:0.9;"/><line style="stroke:#181818;stroke-width:0.9;stroke-dasharray:2.0,2.0;" x1="652.5" x2="852.3" y1="341.6133" y2="341.6133"/><text fill="#000000" font-family="sans-serif" font-size="11.7" font-weight="bold" lengthAdjust="spacing" textLength="6.3" x="663.3" y="336.8769">9</text><text fill="#000000" font-family="sans-serif" font-size="11.7" lengthAdjust="spacing" textLength="116.1" x="673.2" y="336.8769">collaboratorRepository</text><polygon fill="#181818" points="962.55,366.1752,971.55,369.7752,962.55,373.3752,966.15,369.7752" style="stroke:#181818;stroke-width:0.9;"/><line style="stroke:#181818;stroke-width:0.9;" x1="648" x2="967.95" y1="369.7752" y2="369.7752"/><text fill="#000000" font-family="sans-serif" font-size="11.7" font-weight="bold" lengthAdjust="spacing" textLength="12.6" x="654.3" y="365.0388">10</text><text fill="#000000" font-family="sans-serif" font-size="11.7" lengthAdjust="spacing" textLength="85.5" x="670.5" y="365.0388">getCollaborator()</text><polygon fill="#181818" points="657.9,394.3371,648.9,397.9371,657.9,401.5371,654.3,397.9371" style="stroke:#181818;stroke-width:0.9;"/><line style="stroke:#181818;stroke-width:0.9;" x1="652.5" x2="976.95" y1="397.9371" y2="397.9371"/><text fill="#000000" font-family="sans-serif" font-size="11.7" font-weight="bold" lengthAdjust="spacing" textLength="12.6" x="663.3" y="393.2007">11</text><text fill="#000000" font-family="sans-serif" font-size="11.7" lengthAdjust="spacing" textLength="117.9" x="679.5" y="393.2007">CollaboratorRepository</text><polygon fill="#181818" points="450.9,422.499,441.9,426.099,450.9,429.699,447.3,426.099" style="stroke:#181818;stroke-width:0.9;"/><line style="stroke:#181818;stroke-width:0.9;" x1="445.5" x2="642.6" y1="426.099" y2="426.099"/><text fill="#000000" font-family="sans-serif" font-size="11.7" font-weight="bold" lengthAdjust="spacing" textLength="12.6" x="456.3" y="421.3626">12</text><text fill="#000000" font-family="sans-serif" font-size="11.7" lengthAdjust="spacing" textLength="117.9" x="472.5" y="421.3626">CollaboratorRepository</text><polygon fill="#181818" points="628.2,450.6609,637.2,454.2609,628.2,457.8609,631.8,454.2609" style="stroke:#181818;stroke-width:0.9;"/><line style="stroke:#181818;stroke-width:0.9;" x1="441" x2="633.6" y1="454.2609" y2="454.2609"/><text fill="#000000" font-family="sans-serif" font-size="11.7" font-weight="bold" lengthAdjust="spacing" textLength="12.6" x="447.3" y="449.5245">13</text><text fill="#000000" font-family="sans-serif" font-size="11.7" lengthAdjust="spacing" textLength="101.7" x="463.5" y="449.5245">getSkillRepository()</text><polygon fill="#181818" points="743.4,478.8229,752.4,482.4229,743.4,486.0229,747,482.4229" style="stroke:#181818;stroke-width:0.9;"/><line style="stroke:#181818;stroke-width:0.9;" x1="648" x2="748.8" y1="482.4229" y2="482.4229"/><text fill="#000000" font-family="sans-serif" font-size="11.7" font-weight="bold" lengthAdjust="spacing" textLength="12.6" x="654.3" y="477.6864">14</text><text fill="#000000" font-family="sans-serif" font-size="11.7" lengthAdjust="spacing" textLength="67.5" x="670.5" y="477.6864">getInstance()</text><polygon fill="#181818" points="657.9,506.9848,648.9,510.5848,657.9,514.1848,654.3,510.5848" style="stroke:#181818;stroke-width:0.9;"/><line style="stroke:#181818;stroke-width:0.9;" x1="652.5" x2="757.8" y1="510.5848" y2="510.5848"/><text fill="#000000" font-family="sans-serif" font-size="11.7" font-weight="bold" lengthAdjust="spacing" textLength="12.6" x="663.3" y="505.8483">15</text><text fill="#000000" font-family="sans-serif" font-size="11.7" lengthAdjust="spacing" textLength="44.1" x="679.5" y="505.8483">Instance</text><polygon fill="#181818" points="837.9,535.1467,846.9,538.7467,837.9,542.3467,841.5,538.7467" style="stroke:#181818;stroke-width:0.9;"/><line style="stroke:#181818;stroke-width:0.9;" x1="648" x2="843.3" y1="538.7467" y2="538.7467"/><text fill="#000000" font-family="sans-serif" font-size="11.7" font-weight="bold" lengthAdjust="spacing" textLength="12.6" x="654.3" y="534.0103">16</text><text fill="#000000" font-family="sans-serif" font-size="11.7" lengthAdjust="spacing" textLength="101.7" x="670.5" y="534.0103">getSkillRepository()</text><polygon fill="#181818" points="657.9,563.3086,648.9,566.9086,657.9,570.5086,654.3,566.9086" style="stroke:#181818;stroke-width:0.9;"/><line style="stroke:#181818;stroke-width:0.9;stroke-dasharray:2.0,2.0;" x1="652.5" x2="852.3" y1="566.9086" y2="566.9086"/><text fill="#000000" font-family="sans-serif" font-size="11.7" font-weight="bold" lengthAdjust="spacing" textLength="12.6" x="663.3" y="562.1722">17</text><text fill="#000000" font-family="sans-serif" font-size="11.7" lengthAdjust="spacing" textLength="76.5" x="679.5" y="562.1722">skillRepository</text><polygon fill="#181818" points="1091.7,591.4705,1100.7,595.0705,1091.7,598.6705,1095.3,595.0705" style="stroke:#181818;stroke-width:0.9;"/><line style="stroke:#181818;stroke-width:0.9;" x1="648" x2="1097.1" y1="595.0705" y2="595.0705"/><text fill="#000000" font-family="sans-serif" font-size="11.7" font-weight="bold" lengthAdjust="spacing" textLength="12.6" x="654.3" y="590.3341">18</text><text fill="#000000" font-family="sans-serif" font-size="11.7" lengthAdjust="spacing" textLength="45.9" x="670.5" y="590.3341">getSkill()</text><polygon fill="#181818" points="657.9,619.6324,648.9,623.2324,657.9,626.8324,654.3,623.2324" style="stroke:#181818;stroke-width:0.9;"/><line style="stroke:#181818;stroke-width:0.9;" x1="652.5" x2="1106.1" y1="623.2324" y2="623.2324"/><text fill="#000000" font-family="sans-serif" font-size="11.7" font-weight="bold" lengthAdjust="spacing" textLength="12.6" x="663.3" y="618.496">19</text><text fill="#000000" font-family="sans-serif" font-size="11.7" lengthAdjust="spacing" textLength="22.5" x="679.5" y="618.496">Skill</text><polygon fill="#181818" points="450.9,647.7943,441.9,651.3943,450.9,654.9943,447.3,651.3943" style="stroke:#181818;stroke-width:0.9;"/><line style="stroke:#181818;stroke-width:0.9;" x1="445.5" x2="642.6" y1="651.3943" y2="651.3943"/><text fill="#000000" font-family="sans-serif" font-size="11.7" font-weight="bold" lengthAdjust="spacing" textLength="12.6" x="456.3" y="646.6579">20</text><text fill="#000000" font-family="sans-serif" font-size="11.7" lengthAdjust="spacing" textLength="78.3" x="472.5" y="646.6579">SkillRepository</text><polygon fill="#181818" points="100.8,675.9563,91.8,679.5563,100.8,683.1563,97.2,679.5563" style="stroke:#181818;stroke-width:0.9;"/><line style="stroke:#181818;stroke-width:0.9;stroke-dasharray:2.0,2.0;" x1="95.4" x2="435.6" y1="679.5563" y2="679.5563"/><text fill="#000000" font-family="sans-serif" font-size="11.7" font-weight="bold" lengthAdjust="spacing" textLength="12.6" x="106.2" y="674.8198">21</text><text fill="#000000" font-family="sans-serif" font-size="11.7" lengthAdjust="spacing" textLength="214.2" x="122.4" y="674.8198">shows list of collaborators and their skills</text><polygon fill="#181818" points="421.2,704.1182,430.2,707.7182,421.2,711.3182,424.8,707.7182" style="stroke:#181818;stroke-width:0.9;"/><line style="stroke:#181818;stroke-width:0.9;" x1="90.9" x2="426.6" y1="707.7182" y2="707.7182"/><text fill="#000000" font-family="sans-serif" font-size="11.7" font-weight="bold" lengthAdjust="spacing" textLength="12.6" x="97.2" y="702.9817">22</text><text fill="#000000" font-family="sans-serif" font-size="11.7" lengthAdjust="spacing" textLength="214.2" x="113.4" y="702.9817">specifies collaborator and skills to assign</text><polygon fill="#181818" points="628.2,732.2801,637.2,735.8801,628.2,739.4801,631.8,735.8801" style="stroke:#181818;stroke-width:0.9;"/><line style="stroke:#181818;stroke-width:0.9;" x1="441" x2="633.6" y1="735.8801" y2="735.8801"/><text fill="#000000" font-family="sans-serif" font-size="11.7" font-weight="bold" lengthAdjust="spacing" textLength="12.6" x="447.3" y="731.1437">23</text><text fill="#000000" font-family="sans-serif" font-size="11.7" lengthAdjust="spacing" textLength="164.7" x="463.5" y="731.1437">assignSkills(collaborator, skills)</text><polygon fill="#181818" points="1192.5,760.442,1201.5,764.042,1192.5,767.642,1196.1,764.042" style="stroke:#181818;stroke-width:0.9;"/><line style="stroke:#181818;stroke-width:0.9;stroke-dasharray:2.0,2.0;" x1="648" x2="1197.9" y1="764.042" y2="764.042"/><text fill="#000000" font-family="sans-serif" font-size="11.7" font-weight="bold" lengthAdjust="spacing" textLength="12.6" x="654.3" y="759.3056">24</text><text fill="#000000" font-family="sans-serif" font-size="11.7" lengthAdjust="spacing" textLength="146.7" x="670.5" y="759.3056">setSkills(collaborator, skills)</text><polygon fill="#181818" points="657.9,788.6039,648.9,792.2039,657.9,795.8039,654.3,792.2039" style="stroke:#181818;stroke-width:0.9;"/><line style="stroke:#181818;stroke-width:0.9;stroke-dasharray:2.0,2.0;" x1="652.5" x2="1206.9" y1="792.2039" y2="792.2039"/><text fill="#000000" font-family="sans-serif" font-size="11.7" font-weight="bold" lengthAdjust="spacing" textLength="12.6" x="663.3" y="787.4675">25</text><text fill="#000000" font-family="sans-serif" font-size="11.7" lengthAdjust="spacing" textLength="44.1" x="679.5" y="787.4675">success</text><polygon fill="#181818" points="450.9,816.7658,441.9,820.3658,450.9,823.9658,447.3,820.3658" style="stroke:#181818;stroke-width:0.9;"/><line style="stroke:#181818;stroke-width:0.9;stroke-dasharray:2.0,2.0;" x1="445.5" x2="642.6" y1="820.3658" y2="820.3658"/><text fill="#000000" font-family="sans-serif" font-size="11.7" font-weight="bold" lengthAdjust="spacing" textLength="12.6" x="456.3" y="815.6294">26</text><text fill="#000000" font-family="sans-serif" font-size="11.7" lengthAdjust="spacing" textLength="44.1" x="472.5" y="815.6294">success</text><polygon fill="#181818" points="100.8,844.9277,91.8,848.5277,100.8,852.1277,97.2,848.5277" style="stroke:#181818;stroke-width:0.9;"/><line style="stroke:#181818;stroke-width:0.9;stroke-dasharray:2.0,2.0;" x1="95.4" x2="435.6" y1="848.5277" y2="848.5277"/><text fill="#000000" font-family="sans-serif" font-size="11.7" font-weight="bold" lengthAdjust="spacing" textLength="12.6" x="106.2" y="843.7913">27</text><text fill="#000000" font-family="sans-serif" font-size="11.7" lengthAdjust="spacing" textLength="142.2" x="122.4" y="843.7913">displays operation success</text><!--SRC=[hLN1Rjim3BtxAuXSbXRh3_WmOCYb1TPBijvsKMKc4M9BdYYlyD-FKkoOSksj0tQ84qdaUzHxDFE9BiQsogi66cUTFdlN80JVOJ6Tj4fVr0aFeQyHFEgWxAcM0NHMbNipzWH7LPCygOt5qBS8hQlxk2WArGLdk-OLFV_MmNdOF7QDih17SftNIF2iBFFv3IY2n_rpmLZ1QDCg6-0haJdPmyNKzSjJ37XvMZlVEHkygslqCMxtVVyjYznZwyXm0OOfEK2kiy1D5ld3bdATYcnh5RAK7TEgL-SL1zsY-omabRXojf7vp0Yb5Xk9Kcua8Sql5J39nHzu-CB2b1nu8GYElwCgu2m20pRE8mCqBGQqKV0OOG6RjdOzueJ6shB8ZCMG9Ll_iqCA19KA2hOYWxCh26S9Eh7UoO9YCz28X5M2AWQIwD3zVGdQ8vCNShk44uPbKRTtKxt9u_Y8UTAbbFzaYLjNeyp8J2yoenzkt6DYKU5ouaWP- -23fLvRXX-2HoztZM1DMIFRCiax_aoWPORbxL5yADVoH6Lho4EjqViFW4J_9jSXtMNseln7ltExRvp_RlSVIbpocMQl_fh1CzY9IXBCvyXiBUwLJYJPF5MQTLYlCQa-l9xZRA2pUoCUznJ07RD6fd4u67-zE4aidZ1oF52BsXoZ7H8Y8Lnpfx6IJQbiLAZfBu2s4kVp03BleE7Y322ZkPf1xh-YPCCugroOtcaUjTdbynb-Ao89yJxwMgeKlJB4_T8Jk1OPn3YxbCVo_0O0]--></g></svg>