<?xml version="1.0" encoding="us-ascii" standalone="no"?><svg xmlns="http://www.w3.org/2000/svg" xmlns:xlink="http://www.w3.org/1999/xlink" contentStyleType="text/css" height="811px" preserveAspectRatio="none" style="width:872px;height:811px;background:#FFFFFF;" version="1.1" viewBox="0 0 872 811" width="872px" zoomAndPan="magnify"><defs/><g><rect fill="#FFFFFF" height="626.1602" style="stroke:#181818;stroke-width:1.0;" width="10" x="60" y="93.6211"/><rect fill="#FFFFFF" height="373.4922" style="stroke:#181818;stroke-width:1.0;" width="10" x="295" y="116.9121"/><rect fill="#FFFFFF" height="189.0859" style="stroke:#181818;stroke-width:1.0;" width="10" x="295" y="521.6953"/><rect fill="#FFFFFF" height="267.2891" style="stroke:#181818;stroke-width:1.0;" width="10" x="448.5" y="191.8242"/><rect fill="#FFFFFF" height="31.291" style="stroke:#181818;stroke-width:1.0;" width="10" x="584.5" y="271.3672"/><rect fill="#FFFFFF" height="31.291" style="stroke:#181818;stroke-width:1.0;" width="10" x="691.5" y="333.9492"/><rect fill="#FFFFFF" height="31.291" style="stroke:#181818;stroke-width:1.0;" width="10" x="804" y="396.5313"/><rect fill="#FFFFFF" height="30" style="stroke:#181818;stroke-width:1.0;" width="10" x="804" y="601.2383"/><line style="stroke:#181818;stroke-width:0.5;stroke-dasharray:5.0,5.0;" x1="65" x2="65" y1="83.6211" y2="728.7813"/><line style="stroke:#181818;stroke-width:0.5;stroke-dasharray:5.0,5.0;" x1="299.5" x2="299.5" y1="83.6211" y2="728.7813"/><line style="stroke:#181818;stroke-width:0.5;stroke-dasharray:5.0,5.0;" x1="453" x2="453" y1="156.7227" y2="728.7813"/><line style="stroke:#181818;stroke-width:0.5;stroke-dasharray:5.0,5.0;" x1="589" x2="589" y1="83.6211" y2="728.7813"/><line style="stroke:#181818;stroke-width:0.5;stroke-dasharray:5.0,5.0;" x1="696" x2="696" y1="83.6211" y2="728.7813"/><line style="stroke:#181818;stroke-width:0.5;stroke-dasharray:5.0,5.0;" x1="809" x2="809" y1="83.6211" y2="728.7813"/><text fill="#000000" font-family="sans-serif" font-size="14" lengthAdjust="spacing" textLength="114" x="5" y="80.1074">Organization HRM</text><ellipse cx="65" cy="13.5" fill="#E3E3E3" rx="8" ry="8" style="stroke:#181818;stroke-width:0.5;"/><path d="M65,21.5 L65,48.5 M52,29.5 L78,29.5 M65,48.5 L52,63.5 M65,48.5 L78,63.5 " fill="none" style="stroke:#181818;stroke-width:0.5;"/><text fill="#000000" font-family="sans-serif" font-size="14" lengthAdjust="spacing" textLength="114" x="5" y="742.8887">Organization HRM</text><ellipse cx="65" cy="754.9023" fill="#E3E3E3" rx="8" ry="8" style="stroke:#181818;stroke-width:0.5;"/><path d="M65,762.9023 L65,789.9023 M52,770.9023 L78,770.9023 M65,789.9023 L52,804.9023 M65,789.9023 L78,804.9023 " fill="none" style="stroke:#181818;stroke-width:0.5;"/><rect fill="#E3E3E3" height="32.6211" rx="2.5" ry="2.5" style="stroke:#181818;stroke-width:0.5;" width="105" x="247.5" y="50"/><text fill="#000000" font-family="sans-serif" font-size="14" lengthAdjust="spacing" textLength="91" x="254.5" y="72.1074">:RegisterJobUI</text><rect fill="#E3E3E3" height="32.6211" rx="2.5" ry="2.5" style="stroke:#181818;stroke-width:0.5;" width="105" x="247.5" y="727.7813"/><text fill="#000000" font-family="sans-serif" font-size="14" lengthAdjust="spacing" textLength="91" x="254.5" y="749.8887">:RegisterJobUI</text><rect fill="#E3E3E3" height="32.6211" rx="2.5" ry="2.5" style="stroke:#181818;stroke-width:0.5;" width="155" x="376" y="727.7813"/><text fill="#000000" font-family="sans-serif" font-size="14" lengthAdjust="spacing" textLength="141" x="383" y="749.8887">:RegisterJobController</text><rect fill="#E3E3E3" height="32.6211" rx="2.5" ry="2.5" style="stroke:#181818;stroke-width:0.5;" width="97" x="541" y="50"/><text fill="#000000" font-family="sans-serif" font-size="14" lengthAdjust="spacing" textLength="83" x="548" y="72.1074">:Repositories</text><rect fill="#E3E3E3" height="32.6211" rx="2.5" ry="2.5" style="stroke:#181818;stroke-width:0.5;" width="97" x="541" y="727.7813"/><text fill="#000000" font-family="sans-serif" font-size="14" lengthAdjust="spacing" textLength="83" x="548" y="749.8887">:Repositories</text><rect fill="#E3E3E3" height="51.2422" rx="2.5" ry="2.5" style="stroke:#181818;stroke-width:0.5;" width="97" x="648" y="31.3789"/><text fill="#000000" font-family="sans-serif" font-size="14" lengthAdjust="spacing" textLength="74" x="659.5" y="53.4863">repositories</text><text fill="#000000" font-family="sans-serif" font-size="14" lengthAdjust="spacing" textLength="83" x="655" y="72.1074">:Repositories</text><rect fill="#E3E3E3" height="51.2422" rx="2.5" ry="2.5" style="stroke:#181818;stroke-width:0.5;" width="97" x="648" y="727.7813"/><text fill="#000000" font-family="sans-serif" font-size="14" lengthAdjust="spacing" textLength="74" x="659.5" y="749.8887">repositories</text><text fill="#000000" font-family="sans-serif" font-size="14" lengthAdjust="spacing" textLength="83" x="655" y="768.5098">:Repositories</text><rect fill="#E3E3E3" height="51.2422" rx="2.5" ry="2.5" style="stroke:#181818;stroke-width:0.5;" width="108" x="755" y="31.3789"/><text fill="#000000" font-family="sans-serif" font-size="14" lengthAdjust="spacing" textLength="94" x="762" y="53.4863">JobRepository:</text><text fill="#000000" font-family="sans-serif" font-size="14" lengthAdjust="spacing" textLength="90" x="764" y="72.1074">JobRepository</text><rect fill="#E3E3E3" height="51.2422" rx="2.5" ry="2.5" style="stroke:#181818;stroke-width:0.5;" width="108" x="755" y="727.7813"/><text fill="#000000" font-family="sans-serif" font-size="14" lengthAdjust="spacing" textLength="94" x="762" y="749.8887">JobRepository:</text><text fill="#000000" font-family="sans-serif" font-size="14" lengthAdjust="spacing" textLength="90" x="764" y="768.5098">JobRepository</text><rect fill="#FFFFFF" height="626.1602" style="stroke:#181818;stroke-width:1.0;" width="10" x="60" y="93.6211"/><rect fill="#FFFFFF" height="373.4922" style="stroke:#181818;stroke-width:1.0;" width="10" x="295" y="116.9121"/><rect fill="#FFFFFF" height="189.0859" style="stroke:#181818;stroke-width:1.0;" width="10" x="295" y="521.6953"/><rect fill="#FFFFFF" height="267.2891" style="stroke:#181818;stroke-width:1.0;" width="10" x="448.5" y="191.8242"/><rect fill="#FFFFFF" height="31.291" style="stroke:#181818;stroke-width:1.0;" width="10" x="584.5" y="271.3672"/><rect fill="#FFFFFF" height="31.291" style="stroke:#181818;stroke-width:1.0;" width="10" x="691.5" y="333.9492"/><rect fill="#FFFFFF" height="31.291" style="stroke:#181818;stroke-width:1.0;" width="10" x="804" y="396.5313"/><rect fill="#FFFFFF" height="30" style="stroke:#181818;stroke-width:1.0;" width="10" x="804" y="601.2383"/><polygon fill="#181818" points="283,112.9121,293,116.9121,283,120.9121,287,116.9121" style="stroke:#181818;stroke-width:1.0;"/><line style="stroke:#181818;stroke-width:1.0;" x1="70" x2="289" y1="116.9121" y2="116.9121"/><text fill="#000000" font-family="sans-serif" font-size="13" font-weight="bold" lengthAdjust="spacing" textLength="7" x="77" y="111.6494">1</text><text fill="#000000" font-family="sans-serif" font-size="13" lengthAdjust="spacing" textLength="149" x="88" y="111.6494">asks to register a new job</text><polygon fill="#181818" points="364,144.2031,374,148.2031,364,152.2031,368,148.2031" style="stroke:#181818;stroke-width:1.0;"/><line style="stroke:#181818;stroke-width:1.0;" x1="305" x2="370" y1="148.2031" y2="148.2031"/><text fill="#000000" font-family="sans-serif" font-size="13" font-weight="bold" lengthAdjust="spacing" textLength="7" x="312" y="142.9404">2</text><text fill="#000000" font-family="sans-serif" font-size="13" lengthAdjust="spacing" textLength="36" x="323" y="142.9404">create</text><rect fill="#E3E3E3" height="32.6211" rx="2.5" ry="2.5" style="stroke:#181818;stroke-width:0.5;" width="155" x="376" y="124.9121"/><text fill="#000000" font-family="sans-serif" font-size="14" lengthAdjust="spacing" textLength="141" x="383" y="147.0195">:RegisterJobController</text><polygon fill="#181818" points="436.5,187.8242,446.5,191.8242,436.5,195.8242,440.5,191.8242" style="stroke:#181818;stroke-width:1.0;"/><line style="stroke:#181818;stroke-width:1.0;" x1="305" x2="442.5" y1="191.8242" y2="191.8242"/><text fill="#000000" font-family="sans-serif" font-size="13" font-weight="bold" lengthAdjust="spacing" textLength="7" x="312" y="186.5615">3</text><text fill="#000000" font-family="sans-serif" font-size="13" lengthAdjust="spacing" textLength="108" x="323" y="186.5615">getJobRepository()</text><rect fill="none" height="43.252" style="stroke:#000000;stroke-width:1.5;" width="621.5" x="244.5" y="199.8242"/><path d="M244.5,199.8242 L306.5,199.8242 L306.5,208.8242 L296.5,218.8242 L244.5,218.8242 L244.5,199.8242 " fill="#EEEEEE" style="stroke:#000000;stroke-width:2.0;"/><text fill="#000000" font-family="sans-serif" font-size="13" font-weight="bold" lengthAdjust="spacing" textLength="17" x="257.5" y="215.8525">ref</text><text fill="#000000" font-family="sans-serif" font-size="12" lengthAdjust="spacing" textLength="96" x="507.25" y="235.7734">get jobRepository</text><polygon fill="#181818" points="572.5,267.3672,582.5,271.3672,572.5,275.3672,576.5,271.3672" style="stroke:#181818;stroke-width:1.0;"/><line style="stroke:#181818;stroke-width:1.0;" x1="458.5" x2="578.5" y1="271.3672" y2="271.3672"/><text fill="#000000" font-family="sans-serif" font-size="13" font-weight="bold" lengthAdjust="spacing" textLength="7" x="465.5" y="266.1045">4</text><text fill="#000000" font-family="sans-serif" font-size="13" lengthAdjust="spacing" textLength="75" x="476.5" y="266.1045">getInstance()</text><polygon fill="#181818" points="469.5,298.6582,459.5,302.6582,469.5,306.6582,465.5,302.6582" style="stroke:#181818;stroke-width:1.0;"/><line style="stroke:#181818;stroke-width:1.0;" x1="463.5" x2="588.5" y1="302.6582" y2="302.6582"/><text fill="#000000" font-family="sans-serif" font-size="13" font-weight="bold" lengthAdjust="spacing" textLength="7" x="475.5" y="297.3955">5</text><text fill="#000000" font-family="sans-serif" font-size="13" lengthAdjust="spacing" textLength="67" x="486.5" y="297.3955">repositories</text><polygon fill="#181818" points="679.5,329.9492,689.5,333.9492,679.5,337.9492,683.5,333.9492" style="stroke:#181818;stroke-width:1.0;"/><line style="stroke:#181818;stroke-width:1.0;" x1="458.5" x2="685.5" y1="333.9492" y2="333.9492"/><text fill="#000000" font-family="sans-serif" font-size="13" font-weight="bold" lengthAdjust="spacing" textLength="7" x="465.5" y="328.6865">6</text><text fill="#000000" font-family="sans-serif" font-size="13" lengthAdjust="spacing" textLength="108" x="476.5" y="328.6865">getJobRepository()</text><polygon fill="#181818" points="469.5,361.2402,459.5,365.2402,469.5,369.2402,465.5,365.2402" style="stroke:#181818;stroke-width:1.0;"/><line style="stroke:#181818;stroke-width:1.0;" x1="463.5" x2="695.5" y1="365.2402" y2="365.2402"/><text fill="#000000" font-family="sans-serif" font-size="13" font-weight="bold" lengthAdjust="spacing" textLength="7" x="475.5" y="359.9775">7</text><text fill="#000000" font-family="sans-serif" font-size="13" lengthAdjust="spacing" textLength="79" x="486.5" y="359.9775">jobRepository</text><polygon fill="#181818" points="792,392.5313,802,396.5313,792,400.5313,796,396.5313" style="stroke:#181818;stroke-width:1.0;"/><line style="stroke:#181818;stroke-width:1.0;" x1="458.5" x2="798" y1="396.5313" y2="396.5313"/><text fill="#000000" font-family="sans-serif" font-size="13" font-weight="bold" lengthAdjust="spacing" textLength="7" x="465.5" y="391.2686">8</text><text fill="#000000" font-family="sans-serif" font-size="13" lengthAdjust="spacing" textLength="53" x="476.5" y="391.2686">getJobs()</text><polygon fill="#181818" points="469.5,423.8223,459.5,427.8223,469.5,431.8223,465.5,427.8223" style="stroke:#181818;stroke-width:1.0;"/><line style="stroke:#181818;stroke-width:1.0;" x1="463.5" x2="808" y1="427.8223" y2="427.8223"/><text fill="#000000" font-family="sans-serif" font-size="13" font-weight="bold" lengthAdjust="spacing" textLength="7" x="475.5" y="422.5596">9</text><text fill="#000000" font-family="sans-serif" font-size="13" lengthAdjust="spacing" textLength="17" x="486.5" y="422.5596">job</text><polygon fill="#181818" points="316,455.1133,306,459.1133,316,463.1133,312,459.1133" style="stroke:#181818;stroke-width:1.0;"/><line style="stroke:#181818;stroke-width:1.0;" x1="310" x2="452.5" y1="459.1133" y2="459.1133"/><text fill="#000000" font-family="sans-serif" font-size="13" font-weight="bold" lengthAdjust="spacing" textLength="14" x="322" y="453.8506">10</text><text fill="#000000" font-family="sans-serif" font-size="13" lengthAdjust="spacing" textLength="79" x="340" y="453.8506">jobRepository</text><polygon fill="#181818" points="81,486.4043,71,490.4043,81,494.4043,77,490.4043" style="stroke:#181818;stroke-width:1.0;"/><line style="stroke:#181818;stroke-width:1.0;stroke-dasharray:2.0,2.0;" x1="75" x2="299" y1="490.4043" y2="490.4043"/><text fill="#000000" font-family="sans-serif" font-size="13" font-weight="bold" lengthAdjust="spacing" textLength="14" x="87" y="485.1416">11</text><text fill="#000000" font-family="sans-serif" font-size="13" lengthAdjust="spacing" textLength="183" x="105" y="485.1416">requests data (name of the Job)</text><polygon fill="#181818" points="283,517.6953,293,521.6953,283,525.6953,287,521.6953" style="stroke:#181818;stroke-width:1.0;"/><line style="stroke:#181818;stroke-width:1.0;" x1="70" x2="289" y1="521.6953" y2="521.6953"/><text fill="#000000" font-family="sans-serif" font-size="13" font-weight="bold" lengthAdjust="spacing" textLength="14" x="77" y="516.4326">12</text><text fill="#000000" font-family="sans-serif" font-size="13" lengthAdjust="spacing" textLength="122" x="95" y="516.4326">types requested data</text><rect fill="none" height="43.252" style="stroke:#000000;stroke-width:1.5;" width="289.5" x="244.5" y="529.6953"/><path d="M244.5,529.6953 L306.5,529.6953 L306.5,538.6953 L296.5,548.6953 L244.5,548.6953 L244.5,529.6953 " fill="#EEEEEE" style="stroke:#000000;stroke-width:2.0;"/><text fill="#000000" font-family="sans-serif" font-size="13" font-weight="bold" lengthAdjust="spacing" textLength="17" x="257.5" y="545.7236">ref</text><text fill="#000000" font-family="sans-serif" font-size="12" lengthAdjust="spacing" textLength="82" x="348.25" y="565.6445">job registration</text><polygon fill="#181818" points="792,597.2383,802,601.2383,792,605.2383,796,601.2383" style="stroke:#181818;stroke-width:1.0;"/><line style="stroke:#181818;stroke-width:1.0;" x1="305" x2="798" y1="601.2383" y2="601.2383"/><text fill="#000000" font-family="sans-serif" font-size="13" font-weight="bold" lengthAdjust="spacing" textLength="14" x="312" y="595.9756">13</text><text fill="#000000" font-family="sans-serif" font-size="13" lengthAdjust="spacing" textLength="94" x="330" y="595.9756">addJob (Job job)</text><rect fill="none" height="43.252" style="stroke:#000000;stroke-width:1.5;" width="621.5" x="244.5" y="639.2383"/><path d="M244.5,639.2383 L306.5,639.2383 L306.5,648.2383 L296.5,658.2383 L244.5,658.2383 L244.5,639.2383 " fill="#EEEEEE" style="stroke:#000000;stroke-width:2.0;"/><text fill="#000000" font-family="sans-serif" font-size="13" font-weight="bold" lengthAdjust="spacing" textLength="17" x="257.5" y="655.2666">ref</text><text fill="#000000" font-family="sans-serif" font-size="12" lengthAdjust="spacing" textLength="113" x="498.75" y="675.1875">add to jobRepository</text><polygon fill="#181818" points="81,706.7813,71,710.7813,81,714.7813,77,710.7813" style="stroke:#181818;stroke-width:1.0;"/><line style="stroke:#181818;stroke-width:1.0;stroke-dasharray:2.0,2.0;" x1="75" x2="299" y1="710.7813" y2="710.7813"/><text fill="#000000" font-family="sans-serif" font-size="13" font-weight="bold" lengthAdjust="spacing" textLength="14" x="87" y="705.5186">14</text><text fill="#000000" font-family="sans-serif" font-size="13" lengthAdjust="spacing" textLength="158" x="105" y="705.5186">displays operation success</text><!--SRC=[xLLBSzem4BxhL-paKiWqcK0U1nywJKbc2eK9moEzv2Bi1HHioPLaKlhhkn8l6vjCBhrqq867jD-dRrzQin0ovPeda2YfmhbM2OBL6JApEqbvkE0p7DfLZA0nj5pEuho1cVD8lGavWocF3JB6CwjabanGC_PfBYA4gL9sedup7bgbuUn9pxWKVxWLIiBtGUyCk77VZ0Yj24NAfOMpO80pOIpgZfgCszvct3vkqbBIQXN7gBrfQpJebenJPGGf46YypMvZDHJEAP9TXEWSuaMM2VhT-r4HGKBshC6BBFptcC8EOoucOiaj-W0mS8j-mSKNyXO2GYmCM4MHNtiA72I-mQkQR8ntU0hEUcUp24uaBWxdvqGKQYIh8nPqFaDRa5Qh7rxWG-gtD4v1BKdCkFtvmA4jDz4vaOSdA2C25uLw0IIa8XrhNMrfgEf2B4kgoc21kufpxtC-lnjSX1ydtmftPV2X2FfwAL1uw5vGHSHoWihmhOB2lJifXXGK1HmKNvwgI56GL0vDTSxpYdpnlk_ElfvS8HB6rRrBogyCZJKGSSkX9ZczIMeATkwlhPTeTdMVRnkxIj5igJ3oNEL-AHVpNXCjah_fE-tVgkCblEwaOlC3ZoBQWPhxUDqfprzN7KR2kOu_tZtlvVJzJ5M4En8cZVdAW4fnxIQOB0pHcEf8VoKHMHApt0JuLyFZD2vEu-8qBaxZuZGk_eDnqO_fnHltka3E60ThN3QlcZUNDxKXjt2VQhYwWyPjS7qTDA_Wv-Dm1EwypcgzzWYCodI8xdQhnIHpzzPPXoyv339fHO81FAKeEmy_jXlmA9T2AvcWjApptDiRtDrSV1CMXgXTN9zxx06dF8ij8K8LKUy6q4eRpTicwzAuocX-1P1Qrb94x1BL7_q5]--></g></svg>