<?xml version="1.0" encoding="us-ascii" standalone="no"?><svg xmlns="http://www.w3.org/2000/svg" xmlns:xlink="http://www.w3.org/1999/xlink" contentStyleType="text/css" height="442px" preserveAspectRatio="none" style="width:963px;height:442px;background:#FFFFFF;" version="1.1" viewBox="0 0 963 442" width="963px" zoomAndPan="magnify"><defs/><g><rect fill="#FFFFFF" height="314.9102" style="stroke:#181818;stroke-width:1.0;" width="10" x="202" y="71.9121"/><rect fill="#FFFFFF" height="219.0371" style="stroke:#181818;stroke-width:1.0;" width="10" x="339" y="129.4941"/><rect fill="#FFFFFF" height="31.291" style="stroke:#181818;stroke-width:1.0;" width="10" x="631" y="223.3672"/><rect fill="#FFFFFF" height="31.291" style="stroke:#181818;stroke-width:1.0;" width="10" x="758" y="160.7852"/><rect fill="#FFFFFF" height="31.291" style="stroke:#181818;stroke-width:1.0;" width="10" x="890.5" y="285.9492"/><rect fill="none" height="269.6191" style="stroke:#000000;stroke-width:1.5;" width="811" x="146.5" y="86.9121"/><line style="stroke:#181818;stroke-width:0.5;stroke-dasharray:5.0,5.0;" x1="206.5" x2="206.5" y1="38.6211" y2="404.8223"/><line style="stroke:#181818;stroke-width:0.5;stroke-dasharray:5.0,5.0;" x1="343.5" x2="343.5" y1="38.6211" y2="404.8223"/><line style="stroke:#181818;stroke-width:0.5;stroke-dasharray:5.0,5.0;" x1="481.5" x2="481.5" y1="38.6211" y2="404.8223"/><line style="stroke:#181818;stroke-width:0.5;stroke-dasharray:5.0,5.0;" x1="561.5" x2="561.5" y1="38.6211" y2="404.8223"/><line style="stroke:#181818;stroke-width:0.5;stroke-dasharray:5.0,5.0;" x1="635.5" x2="635.5" y1="38.6211" y2="404.8223"/><line style="stroke:#181818;stroke-width:0.5;stroke-dasharray:5.0,5.0;" x1="762.5" x2="762.5" y1="38.6211" y2="404.8223"/><line style="stroke:#181818;stroke-width:0.5;stroke-dasharray:5.0,5.0;" x1="895.5" x2="895.5" y1="38.6211" y2="404.8223"/><rect fill="#E3E3E3" height="32.6211" rx="2.5" ry="2.5" style="stroke:#181818;stroke-width:0.5;" width="101" x="156.5" y="5"/><text fill="#000000" font-family="sans-serif" font-size="14" lengthAdjust="spacing" textLength="87" x="163.5" y="27.1074">RegisterJobUI</text><rect fill="#E3E3E3" height="32.6211" rx="2.5" ry="2.5" style="stroke:#181818;stroke-width:0.5;" width="101" x="156.5" y="403.8223"/><text fill="#000000" font-family="sans-serif" font-size="14" lengthAdjust="spacing" textLength="87" x="163.5" y="425.9297">RegisterJobUI</text><rect fill="#E3E3E3" height="32.6211" rx="2.5" ry="2.5" style="stroke:#181818;stroke-width:0.5;" width="151" x="268.5" y="5"/><text fill="#000000" font-family="sans-serif" font-size="14" lengthAdjust="spacing" textLength="137" x="275.5" y="27.1074">RegisterJobController</text><rect fill="#E3E3E3" height="32.6211" rx="2.5" ry="2.5" style="stroke:#181818;stroke-width:0.5;" width="151" x="268.5" y="403.8223"/><text fill="#000000" font-family="sans-serif" font-size="14" lengthAdjust="spacing" textLength="137" x="275.5" y="425.9297">RegisterJobController</text><rect fill="#E3E3E3" height="32.6211" rx="2.5" ry="2.5" style="stroke:#181818;stroke-width:0.5;" width="104" x="429.5" y="5"/><text fill="#000000" font-family="sans-serif" font-size="14" lengthAdjust="spacing" textLength="90" x="436.5" y="27.1074">JobRepository</text><rect fill="#E3E3E3" height="32.6211" rx="2.5" ry="2.5" style="stroke:#181818;stroke-width:0.5;" width="104" x="429.5" y="403.8223"/><text fill="#000000" font-family="sans-serif" font-size="14" lengthAdjust="spacing" textLength="90" x="436.5" y="425.9297">JobRepository</text><rect fill="#E3E3E3" height="32.6211" rx="2.5" ry="2.5" style="stroke:#181818;stroke-width:0.5;" width="36" x="543.5" y="5"/><text fill="#000000" font-family="sans-serif" font-size="14" lengthAdjust="spacing" textLength="22" x="550.5" y="27.1074">Job</text><rect fill="#E3E3E3" height="32.6211" rx="2.5" ry="2.5" style="stroke:#181818;stroke-width:0.5;" width="36" x="543.5" y="403.8223"/><text fill="#000000" font-family="sans-serif" font-size="14" lengthAdjust="spacing" textLength="22" x="550.5" y="425.9297">Job</text><rect fill="#E3E3E3" height="32.6211" rx="2.5" ry="2.5" style="stroke:#181818;stroke-width:0.5;" width="93" x="589.5" y="5"/><text fill="#000000" font-family="sans-serif" font-size="14" lengthAdjust="spacing" textLength="79" x="596.5" y="27.1074">Repositories</text><rect fill="#E3E3E3" height="32.6211" rx="2.5" ry="2.5" style="stroke:#181818;stroke-width:0.5;" width="93" x="589.5" y="403.8223"/><text fill="#000000" font-family="sans-serif" font-size="14" lengthAdjust="spacing" textLength="79" x="596.5" y="425.9297">Repositories</text><rect fill="#E3E3E3" height="32.6211" rx="2.5" ry="2.5" style="stroke:#181818;stroke-width:0.5;" width="141" x="692.5" y="5"/><text fill="#000000" font-family="sans-serif" font-size="14" lengthAdjust="spacing" textLength="127" x="699.5" y="27.1074">RepositorySingleton</text><rect fill="#E3E3E3" height="32.6211" rx="2.5" ry="2.5" style="stroke:#181818;stroke-width:0.5;" width="141" x="692.5" y="403.8223"/><text fill="#000000" font-family="sans-serif" font-size="14" lengthAdjust="spacing" textLength="127" x="699.5" y="425.9297">RepositorySingleton</text><rect fill="#E3E3E3" height="32.6211" rx="2.5" ry="2.5" style="stroke:#181818;stroke-width:0.5;" width="104" x="843.5" y="5"/><text fill="#000000" font-family="sans-serif" font-size="14" lengthAdjust="spacing" textLength="90" x="850.5" y="27.1074">JobRepository</text><rect fill="#E3E3E3" height="32.6211" rx="2.5" ry="2.5" style="stroke:#181818;stroke-width:0.5;" width="104" x="843.5" y="403.8223"/><text fill="#000000" font-family="sans-serif" font-size="14" lengthAdjust="spacing" textLength="90" x="850.5" y="425.9297">JobRepository</text><rect fill="#FFFFFF" height="314.9102" style="stroke:#181818;stroke-width:1.0;" width="10" x="202" y="71.9121"/><rect fill="#FFFFFF" height="219.0371" style="stroke:#181818;stroke-width:1.0;" width="10" x="339" y="129.4941"/><rect fill="#FFFFFF" height="31.291" style="stroke:#181818;stroke-width:1.0;" width="10" x="631" y="223.3672"/><rect fill="#FFFFFF" height="31.291" style="stroke:#181818;stroke-width:1.0;" width="10" x="758" y="160.7852"/><rect fill="#FFFFFF" height="31.291" style="stroke:#181818;stroke-width:1.0;" width="10" x="890.5" y="285.9492"/><polygon fill="#181818" points="190,67.9121,200,71.9121,190,75.9121,194,71.9121" style="stroke:#181818;stroke-width:1.0;"/><line style="stroke:#181818;stroke-width:1.0;" x1="0" x2="196" y1="71.9121" y2="71.9121"/><text fill="#000000" font-family="sans-serif" font-size="13" lengthAdjust="spacing" textLength="149" x="7" y="66.6494">asks to register a new job</text><path d="M146.5,86.9121 L333.5,86.9121 L333.5,96.2031 L323.5,106.2031 L146.5,106.2031 L146.5,86.9121 " fill="#EEEEEE" style="stroke:#000000;stroke-width:1.5;"/><rect fill="none" height="269.6191" style="stroke:#000000;stroke-width:1.5;" width="811" x="146.5" y="86.9121"/><text fill="#000000" font-family="sans-serif" font-size="13" font-weight="bold" lengthAdjust="spacing" textLength="142" x="161.5" y="101.9404">get the Job Repository</text><polygon fill="#181818" points="327,125.4941,337,129.4941,327,133.4941,331,129.4941" style="stroke:#181818;stroke-width:1.0;"/><line style="stroke:#181818;stroke-width:1.0;" x1="212" x2="333" y1="129.4941" y2="129.4941"/><text fill="#000000" font-family="sans-serif" font-size="13" lengthAdjust="spacing" textLength="108" x="219" y="124.2314">getJobRepository()</text><polygon fill="#181818" points="746,156.7852,756,160.7852,746,164.7852,750,160.7852" style="stroke:#181818;stroke-width:1.0;"/><line style="stroke:#181818;stroke-width:1.0;" x1="349" x2="752" y1="160.7852" y2="160.7852"/><text fill="#000000" font-family="sans-serif" font-size="13" lengthAdjust="spacing" textLength="75" x="356" y="155.5225">getInstance()</text><polygon fill="#181818" points="360,188.0762,350,192.0762,360,196.0762,356,192.0762" style="stroke:#181818;stroke-width:1.0;"/><line style="stroke:#181818;stroke-width:1.0;" x1="354" x2="762" y1="192.0762" y2="192.0762"/><text fill="#000000" font-family="sans-serif" font-size="13" lengthAdjust="spacing" textLength="67" x="366" y="186.8135">repositories</text><polygon fill="#181818" points="619,219.3672,629,223.3672,619,227.3672,623,223.3672" style="stroke:#181818;stroke-width:1.0;"/><line style="stroke:#181818;stroke-width:1.0;" x1="349" x2="625" y1="223.3672" y2="223.3672"/><text fill="#000000" font-family="sans-serif" font-size="13" lengthAdjust="spacing" textLength="108" x="356" y="218.1045">getJobRepository()</text><polygon fill="#181818" points="360,250.6582,350,254.6582,360,258.6582,356,254.6582" style="stroke:#181818;stroke-width:1.0;"/><line style="stroke:#181818;stroke-width:1.0;" x1="354" x2="635" y1="254.6582" y2="254.6582"/><text fill="#000000" font-family="sans-serif" font-size="13" lengthAdjust="spacing" textLength="79" x="366" y="249.3955">jobRepository</text><polygon fill="#181818" points="878.5,281.9492,888.5,285.9492,878.5,289.9492,882.5,285.9492" style="stroke:#181818;stroke-width:1.0;"/><line style="stroke:#181818;stroke-width:1.0;" x1="349" x2="884.5" y1="285.9492" y2="285.9492"/><text fill="#000000" font-family="sans-serif" font-size="13" lengthAdjust="spacing" textLength="53" x="356" y="280.6865">getJobs()</text><polygon fill="#181818" points="360,313.2402,350,317.2402,360,321.2402,356,317.2402" style="stroke:#181818;stroke-width:1.0;"/><line style="stroke:#181818;stroke-width:1.0;" x1="354" x2="894.5" y1="317.2402" y2="317.2402"/><text fill="#000000" font-family="sans-serif" font-size="13" lengthAdjust="spacing" textLength="17" x="366" y="311.9775">job</text><polygon fill="#181818" points="223,344.5313,213,348.5313,223,352.5313,219,348.5313" style="stroke:#181818;stroke-width:1.0;"/><line style="stroke:#181818;stroke-width:1.0;" x1="217" x2="343" y1="348.5313" y2="348.5313"/><text fill="#000000" font-family="sans-serif" font-size="13" lengthAdjust="spacing" textLength="79" x="229" y="343.2686">jobRepository</text><polygon fill="#181818" points="11,382.8223,1,386.8223,11,390.8223,7,386.8223" style="stroke:#181818;stroke-width:1.0;"/><line style="stroke:#181818;stroke-width:1.0;stroke-dasharray:2.0,2.0;" x1="5" x2="206" y1="386.8223" y2="386.8223"/><text fill="#000000" font-family="sans-serif" font-size="13" lengthAdjust="spacing" textLength="183" x="17" y="381.5596">requests data (name of the Job)</text><!--SRC=[bPHDRi8m48NtFiKiOS45K5MfOWLYKV5pW6ao19TWf_QaYDjtx10IHudQUZb-_kOzUn9_qQP2XrUuMcEpixDN0dOrAV_SgJ2xO45xlfS4ZZ96KvHzWJzZRc_Q5732qfDIKcQTwGeDmuuAxPdSnduSru0UZkkf_PKrx6nPaWkwrM6tJPIYs55blMRhxa7nsIyCfG_1eDT3hSc7_VVjsq4fjNWLKqifN3ombOYD8q0mT8iGXHdhRsGAxa5MuMnTGK4CVAROhkSaAiAImC8EGM0Pn4c2sRmJmfCVKtVrteeOmNM4lGuFmTOqzBNnyZGP9U04Fd9qlDTOZow9wrtZu7nE_s_M1WklyTiz9N6Qvnj3HbHdE1sKASFJkDPXEe6jLIyEnmqc-d5qYamiJr_jPZhFmB5Cu5_ZnyaBDJ9vq_fbiOW0HryrUVQG8oFC3Ce_mfxQoP-h7aG-3_K3]--></g></svg>