<?xml version="1.0" encoding="us-ascii" standalone="no"?><svg xmlns="http://www.w3.org/2000/svg" xmlns:xlink="http://www.w3.org/1999/xlink" contentStyleType="text/css" height="236px" preserveAspectRatio="none" style="width:662px;height:236px;background:#FFFFFF;" version="1.1" viewBox="0 0 662 236" width="662px" zoomAndPan="magnify"><defs/><g><rect fill="#FFFFFF" height="117.873" style="stroke:#181818;stroke-width:1.0;" width="10" x="177" y="71.9121"/><rect fill="none" height="63.582" style="stroke:#000000;stroke-width:1.5;" width="196.5" x="121.5" y="86.9121"/><line style="stroke:#181818;stroke-width:0.5;stroke-dasharray:5.0,5.0;" x1="181.5" x2="181.5" y1="38.6211" y2="198.7852"/><line style="stroke:#181818;stroke-width:0.5;stroke-dasharray:5.0,5.0;" x1="317.5" x2="317.5" y1="38.6211" y2="198.7852"/><line style="stroke:#181818;stroke-width:0.5;stroke-dasharray:5.0,5.0;" x1="455.5" x2="455.5" y1="38.6211" y2="198.7852"/><line style="stroke:#181818;stroke-width:0.5;stroke-dasharray:5.0,5.0;" x1="535.5" x2="535.5" y1="38.6211" y2="198.7852"/><line style="stroke:#181818;stroke-width:0.5;stroke-dasharray:5.0,5.0;" x1="609.5" x2="609.5" y1="38.6211" y2="198.7852"/><rect fill="#E3E3E3" height="32.6211" rx="2.5" ry="2.5" style="stroke:#181818;stroke-width:0.5;" width="101" x="131.5" y="5"/><text fill="#000000" font-family="sans-serif" font-size="14" lengthAdjust="spacing" textLength="87" x="138.5" y="27.1074">RegisterJobUI</text><rect fill="#E3E3E3" height="32.6211" rx="2.5" ry="2.5" style="stroke:#181818;stroke-width:0.5;" width="101" x="131.5" y="197.7852"/><text fill="#000000" font-family="sans-serif" font-size="14" lengthAdjust="spacing" textLength="87" x="138.5" y="219.8926">RegisterJobUI</text><rect fill="#E3E3E3" height="32.6211" rx="2.5" ry="2.5" style="stroke:#181818;stroke-width:0.5;" width="151" x="242.5" y="5"/><text fill="#000000" font-family="sans-serif" font-size="14" lengthAdjust="spacing" textLength="137" x="249.5" y="27.1074">RegisterJobController</text><rect fill="#E3E3E3" height="32.6211" rx="2.5" ry="2.5" style="stroke:#181818;stroke-width:0.5;" width="151" x="242.5" y="197.7852"/><text fill="#000000" font-family="sans-serif" font-size="14" lengthAdjust="spacing" textLength="137" x="249.5" y="219.8926">RegisterJobController</text><rect fill="#E3E3E3" height="32.6211" rx="2.5" ry="2.5" style="stroke:#181818;stroke-width:0.5;" width="104" x="403.5" y="5"/><text fill="#000000" font-family="sans-serif" font-size="14" lengthAdjust="spacing" textLength="90" x="410.5" y="27.1074">JobRepository</text><rect fill="#E3E3E3" height="32.6211" rx="2.5" ry="2.5" style="stroke:#181818;stroke-width:0.5;" width="104" x="403.5" y="197.7852"/><text fill="#000000" font-family="sans-serif" font-size="14" lengthAdjust="spacing" textLength="90" x="410.5" y="219.8926">JobRepository</text><rect fill="#E3E3E3" height="32.6211" rx="2.5" ry="2.5" style="stroke:#181818;stroke-width:0.5;" width="36" x="517.5" y="5"/><text fill="#000000" font-family="sans-serif" font-size="14" lengthAdjust="spacing" textLength="22" x="524.5" y="27.1074">Job</text><rect fill="#E3E3E3" height="32.6211" rx="2.5" ry="2.5" style="stroke:#181818;stroke-width:0.5;" width="36" x="517.5" y="197.7852"/><text fill="#000000" font-family="sans-serif" font-size="14" lengthAdjust="spacing" textLength="22" x="524.5" y="219.8926">Job</text><rect fill="#E3E3E3" height="32.6211" rx="2.5" ry="2.5" style="stroke:#181818;stroke-width:0.5;" width="93" x="563.5" y="5"/><text fill="#000000" font-family="sans-serif" font-size="14" lengthAdjust="spacing" textLength="79" x="570.5" y="27.1074">Repositories</text><rect fill="#E3E3E3" height="32.6211" rx="2.5" ry="2.5" style="stroke:#181818;stroke-width:0.5;" width="93" x="563.5" y="197.7852"/><text fill="#000000" font-family="sans-serif" font-size="14" lengthAdjust="spacing" textLength="79" x="570.5" y="219.8926">Repositories</text><rect fill="#FFFFFF" height="117.873" style="stroke:#181818;stroke-width:1.0;" width="10" x="177" y="71.9121"/><polygon fill="#181818" points="165,67.9121,175,71.9121,165,75.9121,169,71.9121" style="stroke:#181818;stroke-width:1.0;"/><line style="stroke:#181818;stroke-width:1.0;" x1="0" x2="171" y1="71.9121" y2="71.9121"/><text fill="#000000" font-family="sans-serif" font-size="13" lengthAdjust="spacing" textLength="122" x="7" y="66.6494">types requested data</text><path d="M121.5,86.9121 L265.5,86.9121 L265.5,96.2031 L255.5,106.2031 L121.5,106.2031 L121.5,86.9121 " fill="#EEEEEE" style="stroke:#000000;stroke-width:1.5;"/><rect fill="none" height="63.582" style="stroke:#000000;stroke-width:1.5;" width="196.5" x="121.5" y="86.9121"/><text fill="#000000" font-family="sans-serif" font-size="13" font-weight="bold" lengthAdjust="spacing" textLength="99" x="136.5" y="101.9404">Job registration</text><line style="stroke:#181818;stroke-width:1.0;stroke-dasharray:2.0,2.0;" x1="187" x2="229" y1="129.4941" y2="129.4941"/><line style="stroke:#181818;stroke-width:1.0;stroke-dasharray:2.0,2.0;" x1="229" x2="229" y1="129.4941" y2="142.4941"/><line style="stroke:#181818;stroke-width:1.0;stroke-dasharray:2.0,2.0;" x1="188" x2="229" y1="142.4941" y2="142.4941"/><polygon fill="#181818" points="198,138.4941,188,142.4941,198,146.4941,194,142.4941" style="stroke:#181818;stroke-width:1.0;"/><text fill="#000000" font-family="sans-serif" font-size="13" lengthAdjust="spacing" textLength="112" x="194" y="124.2314">validateJob(Job job)</text><polygon fill="#181818" points="11,176.7852,1,180.7852,11,184.7852,7,180.7852" style="stroke:#181818;stroke-width:1.0;"/><line style="stroke:#181818;stroke-width:1.0;stroke-dasharray:2.0,2.0;" x1="5" x2="176" y1="180.7852" y2="180.7852"/><text fill="#000000" font-family="sans-serif" font-size="13" lengthAdjust="spacing" textLength="158" x="17" y="175.5225">displays operation success</text><!--SRC=[TP31JiCm38RlVGhVW4DVO498QAUX7L2tFO2NU6rO6eVO7VJjIK8rZKdu4id_9_jpvEn2n8GZZ1pO38b70aqJDN9D8fepzhJJsHCaCegXzxU036ZvouKUJkY5cbmFWxC49sOzydUJCNN6HGmA7VLEbD8R7myRG873vhzypK4JUq-fSEjzj_r3PgAZoEAKqro8Zzl6FRe0TxiMsf6K_7txki_oxKkMMe7ECRSJVKwKXInOL6pGgBkWKj5k85UVU8frGQhc2TLng56fV6ExpBkWTta6PVQnyDdcgN8KR7sVsxRmAx1EeiTPW2FzpWEPZ26HnjBLe7x83m00]--></g></svg>