<?xml version="1.0" encoding="us-ascii" standalone="no"?><svg xmlns="http://www.w3.org/2000/svg" xmlns:xlink="http://www.w3.org/1999/xlink" contentStyleType="text/css" height="486px" preserveAspectRatio="none" style="width:1406px;height:486px;background:#FFFFFF;" version="1.1" viewBox="0 0 1406 486" width="1406px" zoomAndPan="magnify"><defs/><g><!--class Job--><g id="elem_Job"><rect codeLine="11" fill="#F1F1F1" height="122.4844" id="Job" rx="2.5" ry="2.5" style="stroke:#181818;stroke-width:0.5;" width="197" x="858.5" y="357"/><ellipse cx="941.75" cy="373" fill="#ADD1B2" rx="11" ry="11" style="stroke:#181818;stroke-width:1.0;"/><path d="M944.5156,368.875 Q944.6719,368.6563 944.8594,368.5469 Q945.0469,368.4375 945.2656,368.4375 Q945.6406,368.4375 945.875,368.7031 Q946.1094,368.9531 946.1094,369.5625 L946.1094,371.0156 Q946.1094,371.625 945.875,371.8906 Q945.6406,372.1563 945.2656,372.1563 Q944.9219,372.1563 944.7188,371.9531 Q944.5156,371.7656 944.4063,371.25 Q944.3594,370.8906 944.1719,370.7031 Q943.8438,370.3281 943.2344,370.1094 Q942.625,369.8906 942,369.8906 Q941.2344,369.8906 940.5938,370.2188 Q939.9688,370.5469 939.4688,371.2969 Q938.9844,372.0469 938.9844,373.0781 L938.9844,374.1719 Q938.9844,375.4063 939.875,376.2344 Q940.7656,377.0469 942.3594,377.0469 Q943.2969,377.0469 943.9531,376.7969 Q944.3438,376.6406 944.7656,376.2031 Q945.0313,375.9375 945.1719,375.8594 Q945.3281,375.7813 945.5313,375.7813 Q945.8594,375.7813 946.1094,376.0469 Q946.375,376.2969 946.375,376.6406 Q946.375,376.9844 946.0313,377.3906 Q945.5313,377.9688 944.7344,378.2969 Q943.6563,378.75 942.3594,378.75 Q940.8438,378.75 939.6406,378.125 Q938.6563,377.625 937.9688,376.5625 Q937.2813,375.4844 937.2813,374.2031 L937.2813,373.0469 Q937.2813,371.7188 937.8906,370.5781 Q938.5156,369.4219 939.6094,368.8125 Q940.7031,368.1875 941.9375,368.1875 Q942.6719,368.1875 943.3125,368.3594 Q943.9688,368.5156 944.5156,368.875 Z " fill="#000000"/><text fill="#000000" font-family="sans-serif" font-size="14" lengthAdjust="spacing" textLength="22" x="962.25" y="378.7969">Job</text><line style="stroke:#181818;stroke-width:0.5;" x1="859.5" x2="1054.5" y1="389" y2="389"/><text fill="#000000" font-family="sans-serif" font-size="14" lengthAdjust="spacing" textLength="81" x="864.5" y="408.1074">-String name</text><line style="stroke:#181818;stroke-width:0.5;" x1="859.5" x2="1054.5" y1="415.6211" y2="415.6211"/><text fill="#000000" font-family="sans-serif" font-size="14" lengthAdjust="spacing" textLength="147" x="864.5" y="434.7285">+Job(job_name: String)</text><text fill="#000000" font-family="sans-serif" font-size="14" lengthAdjust="spacing" textLength="185" x="864.5" y="453.3496">+getName:(job_name: String)</text><text fill="#000000" font-family="sans-serif" font-size="14" lengthAdjust="spacing" textLength="112" x="864.5" y="471.9707">+toString(): String</text></g><!--class JobRepository--><g id="elem_JobRepository"><rect codeLine="19" fill="#F1F1F1" height="159.7266" id="JobRepository" rx="2.5" ry="2.5" style="stroke:#181818;stroke-width:0.5;" width="201" x="1198.5" y="62.5"/><ellipse cx="1249.75" cy="78.5" fill="#ADD1B2" rx="11" ry="11" style="stroke:#181818;stroke-width:1.0;"/><path d="M1252.5156,74.375 Q1252.6719,74.1563 1252.8594,74.0469 Q1253.0469,73.9375 1253.2656,73.9375 Q1253.6406,73.9375 1253.875,74.2031 Q1254.1094,74.4531 1254.1094,75.0625 L1254.1094,76.5156 Q1254.1094,77.125 1253.875,77.3906 Q1253.6406,77.6563 1253.2656,77.6563 Q1252.9219,77.6563 1252.7188,77.4531 Q1252.5156,77.2656 1252.4063,76.75 Q1252.3594,76.3906 1252.1719,76.2031 Q1251.8438,75.8281 1251.2344,75.6094 Q1250.625,75.3906 1250,75.3906 Q1249.2344,75.3906 1248.5938,75.7188 Q1247.9688,76.0469 1247.4688,76.7969 Q1246.9844,77.5469 1246.9844,78.5781 L1246.9844,79.6719 Q1246.9844,80.9063 1247.875,81.7344 Q1248.7656,82.5469 1250.3594,82.5469 Q1251.2969,82.5469 1251.9531,82.2969 Q1252.3438,82.1406 1252.7656,81.7031 Q1253.0313,81.4375 1253.1719,81.3594 Q1253.3281,81.2813 1253.5313,81.2813 Q1253.8594,81.2813 1254.1094,81.5469 Q1254.375,81.7969 1254.375,82.1406 Q1254.375,82.4844 1254.0313,82.8906 Q1253.5313,83.4688 1252.7344,83.7969 Q1251.6563,84.25 1250.3594,84.25 Q1248.8438,84.25 1247.6406,83.625 Q1246.6563,83.125 1245.9688,82.0625 Q1245.2813,80.9844 1245.2813,79.7031 L1245.2813,78.5469 Q1245.2813,77.2188 1245.8906,76.0781 Q1246.5156,74.9219 1247.6094,74.3125 Q1248.7031,73.6875 1249.9375,73.6875 Q1250.6719,73.6875 1251.3125,73.8594 Q1251.9688,74.0156 1252.5156,74.375 Z " fill="#000000"/><text fill="#000000" font-family="sans-serif" font-size="14" lengthAdjust="spacing" textLength="90" x="1270.25" y="84.2969">JobRepository</text><line style="stroke:#181818;stroke-width:0.5;" x1="1199.5" x2="1398.5" y1="94.5" y2="94.5"/><text fill="#000000" font-family="sans-serif" font-size="14" lengthAdjust="spacing" textLength="156" x="1204.5" y="113.6074">-instance: JobRepository</text><text fill="#000000" font-family="sans-serif" font-size="14" lengthAdjust="spacing" textLength="106" x="1204.5" y="132.2285">-jobs: List&lt;Jobs&gt;</text><line style="stroke:#181818;stroke-width:0.5;" x1="1199.5" x2="1398.5" y1="139.7422" y2="139.7422"/><text fill="#000000" font-family="sans-serif" font-size="14" lengthAdjust="spacing" textLength="189" x="1204.5" y="158.8496">+getInstance(): JobRepository</text><text fill="#000000" font-family="sans-serif" font-size="14" lengthAdjust="spacing" textLength="108" x="1204.5" y="177.4707">+JobRepository()</text><text fill="#000000" font-family="sans-serif" font-size="14" lengthAdjust="spacing" textLength="147" x="1204.5" y="196.0918">+addJob(job: Job): void</text><text fill="#000000" font-family="sans-serif" font-size="14" lengthAdjust="spacing" textLength="136" x="1204.5" y="214.7129">+getJobs(description)</text></g><!--class Repositories--><g id="elem_Repositories"><rect codeLine="31" fill="#F1F1F1" height="103.8633" id="Repositories" rx="2.5" ry="2.5" style="stroke:#181818;stroke-width:0.5;" width="194" x="890" y="90.5"/><ellipse cx="943.25" cy="106.5" fill="#ADD1B2" rx="11" ry="11" style="stroke:#181818;stroke-width:1.0;"/><path d="M946.0156,102.375 Q946.1719,102.1563 946.3594,102.0469 Q946.5469,101.9375 946.7656,101.9375 Q947.1406,101.9375 947.375,102.2031 Q947.6094,102.4531 947.6094,103.0625 L947.6094,104.5156 Q947.6094,105.125 947.375,105.3906 Q947.1406,105.6563 946.7656,105.6563 Q946.4219,105.6563 946.2188,105.4531 Q946.0156,105.2656 945.9063,104.75 Q945.8594,104.3906 945.6719,104.2031 Q945.3438,103.8281 944.7344,103.6094 Q944.125,103.3906 943.5,103.3906 Q942.7344,103.3906 942.0938,103.7188 Q941.4688,104.0469 940.9688,104.7969 Q940.4844,105.5469 940.4844,106.5781 L940.4844,107.6719 Q940.4844,108.9063 941.375,109.7344 Q942.2656,110.5469 943.8594,110.5469 Q944.7969,110.5469 945.4531,110.2969 Q945.8438,110.1406 946.2656,109.7031 Q946.5313,109.4375 946.6719,109.3594 Q946.8281,109.2813 947.0313,109.2813 Q947.3594,109.2813 947.6094,109.5469 Q947.875,109.7969 947.875,110.1406 Q947.875,110.4844 947.5313,110.8906 Q947.0313,111.4688 946.2344,111.7969 Q945.1563,112.25 943.8594,112.25 Q942.3438,112.25 941.1406,111.625 Q940.1563,111.125 939.4688,110.0625 Q938.7813,108.9844 938.7813,107.7031 L938.7813,106.5469 Q938.7813,105.2188 939.3906,104.0781 Q940.0156,102.9219 941.1094,102.3125 Q942.2031,101.6875 943.4375,101.6875 Q944.1719,101.6875 944.8125,101.8594 Q945.4688,102.0156 946.0156,102.375 Z " fill="#000000"/><text fill="#000000" font-family="sans-serif" font-size="14" lengthAdjust="spacing" textLength="79" x="963.75" y="112.2969">Repositories</text><line style="stroke:#181818;stroke-width:0.5;" x1="891" x2="1083" y1="122.5" y2="122.5"/><line style="stroke:#181818;stroke-width:0.5;" x1="891" x2="1083" y1="130.5" y2="130.5"/><text fill="#000000" font-family="sans-serif" font-size="14" lengthAdjust="spacing" textLength="94" x="896" y="149.6074">-Repositories()</text><text fill="#000000" font-family="sans-serif" font-size="14" lengthAdjust="spacing" textLength="182" x="896" y="168.2285">+getInstance() : Repositories</text><text fill="#000000" font-family="sans-serif" font-size="14" lengthAdjust="spacing" textLength="128" x="896" y="186.8496">+getJobRepository()</text></g><!--class RegisterJobController--><g id="elem_RegisterJobController"><rect codeLine="37" fill="#F1F1F1" height="178.3477" id="RegisterJobController" rx="2.5" ry="2.5" style="stroke:#181818;stroke-width:0.5;" width="490" x="296" y="53.5"/><ellipse cx="468.25" cy="69.5" fill="#ADD1B2" rx="11" ry="11" style="stroke:#181818;stroke-width:1.0;"/><path d="M471.0156,65.375 Q471.1719,65.1563 471.3594,65.0469 Q471.5469,64.9375 471.7656,64.9375 Q472.1406,64.9375 472.375,65.2031 Q472.6094,65.4531 472.6094,66.0625 L472.6094,67.5156 Q472.6094,68.125 472.375,68.3906 Q472.1406,68.6563 471.7656,68.6563 Q471.4219,68.6563 471.2188,68.4531 Q471.0156,68.2656 470.9063,67.75 Q470.8594,67.3906 470.6719,67.2031 Q470.3438,66.8281 469.7344,66.6094 Q469.125,66.3906 468.5,66.3906 Q467.7344,66.3906 467.0938,66.7188 Q466.4688,67.0469 465.9688,67.7969 Q465.4844,68.5469 465.4844,69.5781 L465.4844,70.6719 Q465.4844,71.9063 466.375,72.7344 Q467.2656,73.5469 468.8594,73.5469 Q469.7969,73.5469 470.4531,73.2969 Q470.8438,73.1406 471.2656,72.7031 Q471.5313,72.4375 471.6719,72.3594 Q471.8281,72.2813 472.0313,72.2813 Q472.3594,72.2813 472.6094,72.5469 Q472.875,72.7969 472.875,73.1406 Q472.875,73.4844 472.5313,73.8906 Q472.0313,74.4688 471.2344,74.7969 Q470.1563,75.25 468.8594,75.25 Q467.3438,75.25 466.1406,74.625 Q465.1563,74.125 464.4688,73.0625 Q463.7813,71.9844 463.7813,70.7031 L463.7813,69.5469 Q463.7813,68.2188 464.3906,67.0781 Q465.0156,65.9219 466.1094,65.3125 Q467.2031,64.6875 468.4375,64.6875 Q469.1719,64.6875 469.8125,64.8594 Q470.4688,65.0156 471.0156,65.375 Z " fill="#000000"/><text fill="#000000" font-family="sans-serif" font-size="14" lengthAdjust="spacing" textLength="137" x="488.75" y="75.2969">RegisterJobController</text><line style="stroke:#181818;stroke-width:0.5;" x1="297" x2="785" y1="85.5" y2="85.5"/><text fill="#000000" font-family="sans-serif" font-size="14" lengthAdjust="spacing" textLength="190" x="302" y="104.6074">-jobRepository: JobRepository</text><text fill="#000000" font-family="sans-serif" font-size="14" lengthAdjust="spacing" textLength="328" x="302" y="123.2285">-authenticationRepository: AuthenticationRepository</text><line style="stroke:#181818;stroke-width:0.5;" x1="297" x2="785" y1="130.7422" y2="130.7422"/><text fill="#000000" font-family="sans-serif" font-size="14" lengthAdjust="spacing" textLength="478" x="302" y="149.8496">+RegisterJobController(authenticationRepository: AuthenticationRepository)</text><text fill="#000000" font-family="sans-serif" font-size="14" lengthAdjust="spacing" textLength="128" x="302" y="168.4707">+getJobRepository()</text><text fill="#000000" font-family="sans-serif" font-size="14" lengthAdjust="spacing" textLength="196" x="302" y="187.0918">+getAuthenticationRepository()</text><text fill="#000000" font-family="sans-serif" font-size="14" lengthAdjust="spacing" textLength="217" x="302" y="205.7129">+createJob(job_name: String): Job</text><text fill="#000000" font-family="sans-serif" font-size="14" lengthAdjust="spacing" textLength="135" x="302" y="224.334">+getJobs(): List&lt;Job&gt;</text></g><g id="elem_GMN6"><path d="M1230,395.5 L1230,440.082 A0,0 0 0 0 1230,440.082 L1368,440.082 A0,0 0 0 0 1368,440.082 L1368,405.5 L1358,395.5 L1303,395.5 L1299,222.61 L1295,395.5 L1230,395.5 A0,0 0 0 0 1230,395.5 " fill="#FEFFDD" style="stroke:#181818;stroke-width:0.5;"/><path d="M1358,395.5 L1358,405.5 L1368,405.5 L1358,395.5 " fill="#FEFFDD" style="stroke:#181818;stroke-width:0.5;"/><text fill="#000000" font-family="sans-serif" font-size="13" lengthAdjust="spacing" textLength="117" x="1236" y="414.5283">- used for accessing</text><text fill="#000000" font-family="sans-serif" font-size="13" lengthAdjust="spacing" textLength="46" x="1236" y="431.8193">the jobs</text></g><!--class RegisterJobUI--><g id="elem_RegisterJobUI"><rect codeLine="53" fill="#F1F1F1" height="271.4531" id="RegisterJobUI" rx="2.5" ry="2.5" style="stroke:#181818;stroke-width:0.5;" width="254" x="7" y="7"/><ellipse cx="86.25" cy="23" fill="#ADD1B2" rx="11" ry="11" style="stroke:#181818;stroke-width:1.0;"/><path d="M89.0156,18.875 Q89.1719,18.6563 89.3594,18.5469 Q89.5469,18.4375 89.7656,18.4375 Q90.1406,18.4375 90.375,18.7031 Q90.6094,18.9531 90.6094,19.5625 L90.6094,21.0156 Q90.6094,21.625 90.375,21.8906 Q90.1406,22.1563 89.7656,22.1563 Q89.4219,22.1563 89.2188,21.9531 Q89.0156,21.7656 88.9063,21.25 Q88.8594,20.8906 88.6719,20.7031 Q88.3438,20.3281 87.7344,20.1094 Q87.125,19.8906 86.5,19.8906 Q85.7344,19.8906 85.0938,20.2188 Q84.4688,20.5469 83.9688,21.2969 Q83.4844,22.0469 83.4844,23.0781 L83.4844,24.1719 Q83.4844,25.4063 84.375,26.2344 Q85.2656,27.0469 86.8594,27.0469 Q87.7969,27.0469 88.4531,26.7969 Q88.8438,26.6406 89.2656,26.2031 Q89.5313,25.9375 89.6719,25.8594 Q89.8281,25.7813 90.0313,25.7813 Q90.3594,25.7813 90.6094,26.0469 Q90.875,26.2969 90.875,26.6406 Q90.875,26.9844 90.5313,27.3906 Q90.0313,27.9688 89.2344,28.2969 Q88.1563,28.75 86.8594,28.75 Q85.3438,28.75 84.1406,28.125 Q83.1563,27.625 82.4688,26.5625 Q81.7813,25.4844 81.7813,24.2031 L81.7813,23.0469 Q81.7813,21.7188 82.3906,20.5781 Q83.0156,19.4219 84.1094,18.8125 Q85.2031,18.1875 86.4375,18.1875 Q87.1719,18.1875 87.8125,18.3594 Q88.4688,18.5156 89.0156,18.875 Z " fill="#000000"/><text fill="#000000" font-family="sans-serif" font-size="14" lengthAdjust="spacing" textLength="87" x="106.75" y="28.7969">RegisterJobUI</text><line style="stroke:#181818;stroke-width:0.5;" x1="8" x2="260" y1="39" y2="39"/><text fill="#000000" font-family="sans-serif" font-size="14" lengthAdjust="spacing" textLength="209" x="13" y="58.1074">-controller: RegisterJobController</text><text fill="#000000" font-family="sans-serif" font-size="14" lengthAdjust="spacing" textLength="105" x="13" y="76.7285">-jobName: String</text><text fill="#000000" font-family="sans-serif" font-size="14" lengthAdjust="spacing" textLength="190" x="13" y="95.3496">-jobRepository: JobRepository</text><text fill="#000000" font-family="sans-serif" font-size="14" lengthAdjust="spacing" textLength="54" x="13" y="113.9707">-job: Job</text><line style="stroke:#181818;stroke-width:0.5;" x1="8" x2="260" y1="121.4844" y2="121.4844"/><text fill="#000000" font-family="sans-serif" font-size="14" lengthAdjust="spacing" textLength="105" x="13" y="140.5918">+RegisterJobUI()</text><text fill="#000000" font-family="sans-serif" font-size="14" lengthAdjust="spacing" textLength="242" x="13" y="159.2129">-getController(): RegisterJobController</text><text fill="#000000" font-family="sans-serif" font-size="14" lengthAdjust="spacing" textLength="73" x="13" y="177.834">+run(): void</text><text fill="#000000" font-family="sans-serif" font-size="14" lengthAdjust="spacing" textLength="106" x="13" y="196.4551">-printJobs(): void</text><text fill="#000000" font-family="sans-serif" font-size="14" lengthAdjust="spacing" textLength="194" x="13" y="215.0762">-validateJob(job: Job): boolean</text><text fill="#000000" font-family="sans-serif" font-size="14" lengthAdjust="spacing" textLength="120" x="13" y="233.6973">-submitData(): void</text><text fill="#000000" font-family="sans-serif" font-size="14" lengthAdjust="spacing" textLength="127" x="13" y="252.3184">-requestData(): void</text><text fill="#000000" font-family="sans-serif" font-size="14" lengthAdjust="spacing" textLength="166" x="13" y="270.9395">-requestJobName(): String</text></g><!--link Repositories to Repositories--><g id="link_Repositories_Repositories"><path codeLine="69" d="M1084.28,111.02 C1104.48,114.34 1119,124.83 1119,142.5 C1119,160.17 1110.4006,169.6869 1090.2006,173.0069 " fill="none" id="Repositories-to-Repositories" style="stroke:#181818;stroke-width:1.0;"/><polygon fill="#181818" points="1084.28,173.98,1093.8096,176.4674,1089.2138,173.1691,1092.5121,168.5733,1084.28,173.98" style="stroke:#181818;stroke-width:1.0;"/><text fill="#000000" font-family="sans-serif" font-size="13" lengthAdjust="spacing" textLength="49" x="1125" y="148.0283">instance</text></g><!--link RegisterJobUI to RegisterJobController--><g id="link_RegisterJobUI_RegisterJobController"><path codeLine="71" d="M261.18,142.5 C266.52,142.5 269.67,142.5 269.67,142.5 C269.67,142.5 274.4,142.5 289.82,142.5 " fill="none" id="RegisterJobUI-to-RegisterJobController" style="stroke:#181818;stroke-width:1.0;stroke-dasharray:7.0,7.0;"/><polygon fill="#181818" points="295.82,142.5,286.82,138.5,290.82,142.5,286.82,146.5,295.82,142.5" style="stroke:#181818;stroke-width:1.0;"/></g><!--link RegisterJobController to Repositories--><g id="link_RegisterJobController_Repositories"><path codeLine="73" d="M786.18,142.5 C822.92,142.5 852.85,142.5 883.92,142.5 " fill="none" id="RegisterJobController-to-Repositories" style="stroke:#181818;stroke-width:1.0;stroke-dasharray:7.0,7.0;"/><polygon fill="#181818" points="889.92,142.5,880.92,138.5,884.92,142.5,880.92,146.5,889.92,142.5" style="stroke:#181818;stroke-width:1.0;"/><text fill="#000000" font-family="sans-serif" font-size="13" lengthAdjust="spacing" textLength="67" x="804.5" y="135.5283">repositories</text></g><!--link Repositories to JobRepository--><g id="link_Repositories_JobRepository"><path codeLine="75" d="M1084.18,142.5 C1088.46,142.5 1091,142.5 1091,142.5 C1091,142.5 1195,142.5 1195,142.5 C1195,142.5 1190.24,142.5 1192.46,142.5 " fill="none" id="Repositories-to-JobRepository" style="stroke:#181818;stroke-width:1.0;"/><polygon fill="#181818" points="1198.46,142.5,1189.46,138.5,1193.46,142.5,1189.46,146.5,1198.46,142.5" style="stroke:#181818;stroke-width:1.0;"/><text fill="#000000" font-family="sans-serif" font-size="13" lengthAdjust="spacing" textLength="7" x="1183.4944" y="138.8991">1</text></g><!--link JobRepository to Job--><g id="link_JobRepository_Job"><path codeLine="79" d="M1229.68,222.52 C1203.99,251.79 1181,278 1181,278 C1181,278 1119.5881,316.1062 1059.0481,353.6762 " fill="none" id="JobRepository-to-Job" style="stroke:#181818;stroke-width:1.0;"/><polygon fill="#181818" points="1053.95,356.84,1063.7063,355.4931,1058.1984,354.2035,1059.4879,348.6956,1053.95,356.84" style="stroke:#181818;stroke-width:1.0;"/><text fill="#000000" font-family="sans-serif" font-size="13" lengthAdjust="spacing" textLength="24" x="1134" y="323.0283">jobs</text><text fill="#000000" font-family="sans-serif" font-size="13" lengthAdjust="spacing" textLength="7" x="1216.422" y="244.1798">1</text><text fill="#000000" font-family="sans-serif" font-size="13" lengthAdjust="spacing" textLength="5" x="1059.8708" y="345.8027">*</text></g><!--link RegisterJobController to Job--><g id="link_RegisterJobController_Job"><path codeLine="80" d="M674.91,231.54 C737.15,272.46 804.5361,316.7644 860.4161,353.4944 " fill="none" id="RegisterJobController-to-Job" style="stroke:#181818;stroke-width:1.0;"/><polygon fill="#181818" points="865.43,356.79,860.1063,348.504,861.2518,354.0436,855.7121,355.1891,865.43,356.79" style="stroke:#181818;stroke-width:1.0;"/><text fill="#000000" font-family="sans-serif" font-size="13" lengthAdjust="spacing" textLength="43" x="812" y="323.0283">register</text><text fill="#000000" font-family="sans-serif" font-size="13" lengthAdjust="spacing" textLength="7" x="679.1171" y="253.9482">1</text><text fill="#000000" font-family="sans-serif" font-size="13" lengthAdjust="spacing" textLength="20" x="833.686" y="345.7469">1..*</text></g><!--SRC=[bLHDRzim3BthLmYzn5wGOBq6Gu1YkwGOUbZHyo3BZADM5Zs9xf0D_U-J77_8ZRnXlfdlyUkHrCgzADC8AsfUeq5vibW39zi2cv16o1THmIETDN0BaeIfT4nm9r7YJsKgVXJQnOXM1kZS06zGdyCFMoL0j8Giyf9QE7T7P5NH4XmacaVr2_X7nbOQZiG9kLNLYNYfGZaA3MET3x_7Wlzct7yR_kZzVKb6rC0wqph0sJCMtuDjrnFo7gk07e9vaK1u-S_o0M5lKTvlqA1JXFRiA-XBKCPviQGFDIFqg4_aTlohSlJ9msu_5NBe_KAgQy_rt9OD1Ogox1lilBplAwfoYXgIP2KuQLKJHCjPQA3lO8odm8qIniOiJzN7TpFIBDcinBSfKUKx1ki9dz6GHQt1ZXcVOxUqRAAb4nXIKeGcOlRT0ZACFvaw-_zu-NAR8x3aEtAa1K6GtCYkxtTpowTDsGSn3HBm0ecmvdXC2jKwAFaHBHTIWdDXOGFWw-fMZu4fUGYJcCpJOPY878NQfVMxq7p0XwY5qVYFOGwxcfZGqw6NQkCbYCQL_wsEjMrD5Y_-fl7bZ0fEvbUXLJdfFnnCWQX1c0l7jKMjw8iWCVUryAC5jmpSNxIOlnEp-zhiv_Us6r-AG8odiDqlTClITxIzYcpZyxmgu-RsvjrS_3T_pG9b4wWVEgeFsMrFElz8ljrkHxxjgUmF]--></g></svg>