<?xml version="1.0" encoding="us-ascii" standalone="no"?><svg xmlns="http://www.w3.org/2000/svg" xmlns:xlink="http://www.w3.org/1999/xlink" contentStyleType="text/css" height="352px" preserveAspectRatio="none" style="width:414px;height:352px;background:#FFFFFF;" version="1.1" viewBox="0 0 414 352" width="414px" zoomAndPan="magnify"><defs/><g><!--class Managers--><g id="elem_Managers"><rect codeLine="15" fill="#F1F1F1" height="111.1055" id="Managers" rx="2.5" ry="2.5" style="stroke:#181818;stroke-width:0.5;" width="69" x="31.5" y="7"/><text fill="#000000" font-family="sans-serif" font-size="14" lengthAdjust="spacing" textLength="63" x="34.5" y="27.1074">Managers</text><line style="stroke:#181818;stroke-width:0.5;" x1="32.5" x2="99.5" y1="35.6211" y2="35.6211"/><text fill="#000000" font-family="sans-serif" font-size="14" lengthAdjust="spacing" textLength="35" x="37.5" y="54.7285">name</text><text fill="#000000" font-family="sans-serif" font-size="14" lengthAdjust="spacing" textLength="33" x="37.5" y="73.3496">email</text><text fill="#000000" font-family="sans-serif" font-size="14" lengthAdjust="spacing" textLength="49" x="37.5" y="91.9707">position</text><text fill="#000000" font-family="sans-serif" font-size="14" lengthAdjust="spacing" textLength="40" x="37.5" y="110.5918">phone</text></g><!--class HRM--><g id="elem_HRM"><rect codeLine="21" fill="#F1F1F1" height="36.6211" id="HRM" rx="2.5" ry="2.5" style="stroke:#181818;stroke-width:0.5;" width="36" x="7" y="252.5"/><text fill="#000000" font-family="sans-serif" font-size="14" lengthAdjust="spacing" textLength="30" x="10" y="272.6074">HRM</text><line style="stroke:#181818;stroke-width:0.5;" x1="8" x2="42" y1="281.1211" y2="281.1211"/></g><!--class Collaborators--><g id="elem_Collaborators"><rect codeLine="23" fill="#F1F1F1" height="148.3477" id="Collaborators" rx="2.5" ry="2.5" style="stroke:#181818;stroke-width:0.5;" width="107" x="200.5" y="197"/><text fill="#000000" font-family="sans-serif" font-size="14" lengthAdjust="spacing" textLength="85" x="211.5" y="217.1074">Collaborators</text><line style="stroke:#181818;stroke-width:0.5;" x1="201.5" x2="306.5" y1="225.6211" y2="225.6211"/><text fill="#000000" font-family="sans-serif" font-size="14" lengthAdjust="spacing" textLength="35" x="206.5" y="244.7285">name</text><text fill="#000000" font-family="sans-serif" font-size="14" lengthAdjust="spacing" textLength="56" x="206.5" y="263.3496">birthdate</text><text fill="#000000" font-family="sans-serif" font-size="14" lengthAdjust="spacing" textLength="95" x="206.5" y="281.9707">admission date</text><text fill="#000000" font-family="sans-serif" font-size="14" lengthAdjust="spacing" textLength="51" x="206.5" y="300.5918">address</text><text fill="#000000" font-family="sans-serif" font-size="14" lengthAdjust="spacing" textLength="71" x="206.5" y="319.2129">ID doc type</text><text fill="#000000" font-family="sans-serif" font-size="14" lengthAdjust="spacing" textLength="65" x="206.5" y="337.834">ID number</text></g><!--class Skill--><g id="elem_Skill"><rect fill="#F1F1F1" height="36.6211" id="Skill" rx="2.5" ry="2.5" style="stroke:#181818;stroke-width:0.5;" width="31" x="238.5" y="44"/><text fill="#000000" font-family="sans-serif" font-size="14" lengthAdjust="spacing" textLength="25" x="241.5" y="64.1074">Skill</text><line style="stroke:#181818;stroke-width:0.5;" x1="239.5" x2="268.5" y1="72.6211" y2="72.6211"/></g><!--class Jobs--><g id="elem_Jobs"><rect fill="#F1F1F1" height="36.6211" id="Jobs" rx="2.5" ry="2.5" style="stroke:#181818;stroke-width:0.5;" width="35" x="360.5" y="44"/><text fill="#000000" font-family="sans-serif" font-size="14" lengthAdjust="spacing" textLength="29" x="363.5" y="64.1074">Jobs</text><line style="stroke:#181818;stroke-width:0.5;" x1="361.5" x2="394.5" y1="72.6211" y2="72.6211"/></g><!--link Skill to Collaborators--><g id="link_Skill_Collaborators"><path codeLine="32" d="M253.18,81.3 C252.44,98.4 251.41,124.96 251,148 C250.72,163.78 250.86,180.71 251.19,196.78 " fill="none" id="Skill-Collaborators" style="stroke:#181818;stroke-width:1.0;"/><polygon fill="#000000" points="255.9139,162.6448,259.0082,153.6517,253.1312,153.5504,255.9139,162.6448" style="stroke:#000000;stroke-width:1.0;"/><text fill="#000000" font-family="sans-serif" font-size="13" lengthAdjust="spacing" textLength="69" x="265" y="163.0283">attributed to</text><text fill="#000000" font-family="sans-serif" font-size="13" lengthAdjust="spacing" textLength="20" x="230.2721" y="102.7552">1..*</text><text fill="#000000" font-family="sans-serif" font-size="13" lengthAdjust="spacing" textLength="7" x="243.5689" y="185.6628">1</text></g><!--link Jobs to Collaborators--><g id="link_Jobs_Collaborators"><path codeLine="33" d="M373.29,81.13 C367.19,102.38 355.37,138.76 339,167 C330.11,182.35 318.94,197.72 307.65,211.73 " fill="none" id="Jobs-Collaborators" style="stroke:#181818;stroke-width:1.0;"/><polygon fill="#000000" points="350.7546,162.113,357.4425,155.351,352.1906,152.7115,350.7546,162.113" style="stroke:#000000;stroke-width:1.0;"/><text fill="#000000" font-family="sans-serif" font-size="13" lengthAdjust="spacing" textLength="44" x="362" y="163.0283">given to</text><text fill="#000000" font-family="sans-serif" font-size="13" lengthAdjust="spacing" textLength="7" x="364.0836" y="102.5395">1</text><text fill="#000000" font-family="sans-serif" font-size="13" lengthAdjust="spacing" textLength="7" x="315.3295" y="199.6479">1</text></g><!--link Managers to Collaborators--><g id="link_Managers_Collaborators"><path codeLine="34" d="M98.49,118.16 C109.25,134.54 121.86,152.1 135,167 C154.52,189.13 178.75,210.92 200.24,228.72 " fill="none" id="Managers-Collaborators" style="stroke:#181818;stroke-width:1.0;"/><polygon fill="#000000" points="143.3859,161.3246,139.4232,152.6789,135.0982,156.6593,143.3859,161.3246" style="stroke:#000000;stroke-width:1.0;"/><text fill="#000000" font-family="sans-serif" font-size="13" lengthAdjust="spacing" textLength="93" x="149" y="163.0283">hire and register</text><text fill="#000000" font-family="sans-serif" font-size="13" lengthAdjust="spacing" textLength="7" x="95.0232" y="140.0191">1</text><text fill="#000000" font-family="sans-serif" font-size="13" lengthAdjust="spacing" textLength="5" x="187.3284" y="218.6034">*</text></g><!--link Managers to HRM--><g id="link_Managers_HRM"><path codeLine="35" d="M32.69,118.37 C28.28,127.95 24.44,138.04 22,148 C13.13,184.22 17.88,228.3 21.71,252.32 " fill="none" id="Managers-HRM" style="stroke:#181818;stroke-width:1.0;"/><polygon fill="#000000" points="26.5915,162.6288,30.2596,153.854,24.4014,153.3738,26.5915,162.6288" style="stroke:#000000;stroke-width:1.0;"/><text fill="#000000" font-family="sans-serif" font-size="13" lengthAdjust="spacing" textLength="26" x="36" y="163.0283">have</text><text fill="#000000" font-family="sans-serif" font-size="13" lengthAdjust="spacing" textLength="7" x="21.2038" y="140.2547">1</text><text fill="#000000" font-family="sans-serif" font-size="13" lengthAdjust="spacing" textLength="7" x="12.6306" y="241.127">1</text></g><!--SRC=[RP7DJa8n48NtVOe96vK4ebiN9aOMOi96dc1kEznEQ3ka7J18V7Txoq-GsDMPzflJqsbPSzfWnWXHabYV9H9etf8fbvCDsZNsjDHz8CXa5LCVhe7YqSaNfnvM60ePSnTefQ02cNklu7ZeOadcgia6BELLDNEtLPfRIKl-9dWqnhCZi9njlQJfIEh5bUghh3N3J29oWeKu2iQOvWGBJ3LaBd0mK5V2I4rGPKDJ6odSKhJ2IoBpSsf-_rmSBiMRX82TP5J9vSQjuwpUeHuhT95BgPPmjUKobT9qVPEYLU2q4hYFqd4DZyaTCpqqPZu39nPqlw5pdRQnerpZBDSS0eoUfjFn22QJgaP_iZq3dkVdXcc_c0_foe3zJ_UyetG4BzEgrC2ERrbV_wnbpTHpKSetJQSRXib1fN575VW5]--></g></svg>