<?xml version="1.0" encoding="us-ascii" standalone="no"?><svg xmlns="http://www.w3.org/2000/svg" xmlns:xlink="http://www.w3.org/1999/xlink" contentStyleType="text/css" height="926px" preserveAspectRatio="none" style="width:1041px;height:926px;background:#FFFFFF;" version="1.1" viewBox="0 0 1041 926" width="1041px" zoomAndPan="magnify"><defs/><g><!--class CompletionTaskUI--><g id="elem_CompletionTaskUI"><rect codeLine="11" fill="#F1F1F1" height="141.1055" id="CompletionTaskUI" rx="2.5" ry="2.5" style="stroke:#181818;stroke-width:0.5;" width="350" x="7" y="7"/><ellipse cx="120.75" cy="23" fill="#ADD1B2" rx="11" ry="11" style="stroke:#181818;stroke-width:1.0;"/><path d="M123.5156,18.875 Q123.6719,18.6563 123.8594,18.5469 Q124.0469,18.4375 124.2656,18.4375 Q124.6406,18.4375 124.875,18.7031 Q125.1094,18.9531 125.1094,19.5625 L125.1094,21.0156 Q125.1094,21.625 124.875,21.8906 Q124.6406,22.1563 124.2656,22.1563 Q123.9219,22.1563 123.7188,21.9531 Q123.5156,21.7656 123.4063,21.25 Q123.3594,20.8906 123.1719,20.7031 Q122.8438,20.3281 122.2344,20.1094 Q121.625,19.8906 121,19.8906 Q120.2344,19.8906 119.5938,20.2188 Q118.9688,20.5469 118.4688,21.2969 Q117.9844,22.0469 117.9844,23.0781 L117.9844,24.1719 Q117.9844,25.4063 118.875,26.2344 Q119.7656,27.0469 121.3594,27.0469 Q122.2969,27.0469 122.9531,26.7969 Q123.3438,26.6406 123.7656,26.2031 Q124.0313,25.9375 124.1719,25.8594 Q124.3281,25.7813 124.5313,25.7813 Q124.8594,25.7813 125.1094,26.0469 Q125.375,26.2969 125.375,26.6406 Q125.375,26.9844 125.0313,27.3906 Q124.5313,27.9688 123.7344,28.2969 Q122.6563,28.75 121.3594,28.75 Q119.8438,28.75 118.6406,28.125 Q117.6563,27.625 116.9688,26.5625 Q116.2813,25.4844 116.2813,24.2031 L116.2813,23.0469 Q116.2813,21.7188 116.8906,20.5781 Q117.5156,19.4219 118.6094,18.8125 Q119.7031,18.1875 120.9375,18.1875 Q121.6719,18.1875 122.3125,18.3594 Q122.9688,18.5156 123.5156,18.875 Z " fill="#000000"/><text fill="#000000" font-family="sans-serif" font-size="14" lengthAdjust="spacing" textLength="114" x="141.25" y="28.7969">CompletionTaskUI</text><line style="stroke:#181818;stroke-width:0.5;" x1="8" x2="356" y1="39" y2="39"/><text fill="#000000" font-family="sans-serif" font-size="14" lengthAdjust="spacing" textLength="178" x="13" y="58.1074">-agenda: AgendaRepository</text><text fill="#000000" font-family="sans-serif" font-size="14" lengthAdjust="spacing" textLength="338" x="13" y="76.7285">-completionTaskController: CompletionTaskController</text><line style="stroke:#181818;stroke-width:0.5;" x1="8" x2="356" y1="84.2422" y2="84.2422"/><text fill="#000000" font-family="sans-serif" font-size="14" lengthAdjust="spacing" textLength="132" x="13" y="103.3496">+CompletionTaskUI()</text><text fill="#000000" font-family="sans-serif" font-size="14" lengthAdjust="spacing" textLength="96" x="13" y="121.9707">+requestData()</text><text fill="#000000" font-family="sans-serif" font-size="14" lengthAdjust="spacing" textLength="89" x="13" y="140.5918">+submitData()</text></g><!--class CompletionTaskController--><g id="elem_CompletionTaskController"><rect codeLine="19" fill="#F1F1F1" height="122.4844" id="CompletionTaskController" rx="2.5" ry="2.5" style="stroke:#181818;stroke-width:0.5;" width="218" x="392" y="16.5"/><ellipse cx="416.9" cy="32.5" fill="#ADD1B2" rx="11" ry="11" style="stroke:#181818;stroke-width:1.0;"/><path d="M419.6656,28.375 Q419.8219,28.1563 420.0094,28.0469 Q420.1969,27.9375 420.4156,27.9375 Q420.7906,27.9375 421.025,28.2031 Q421.2594,28.4531 421.2594,29.0625 L421.2594,30.5156 Q421.2594,31.125 421.025,31.3906 Q420.7906,31.6563 420.4156,31.6563 Q420.0719,31.6563 419.8688,31.4531 Q419.6656,31.2656 419.5563,30.75 Q419.5094,30.3906 419.3219,30.2031 Q418.9938,29.8281 418.3844,29.6094 Q417.775,29.3906 417.15,29.3906 Q416.3844,29.3906 415.7438,29.7188 Q415.1188,30.0469 414.6188,30.7969 Q414.1344,31.5469 414.1344,32.5781 L414.1344,33.6719 Q414.1344,34.9063 415.025,35.7344 Q415.9156,36.5469 417.5094,36.5469 Q418.4469,36.5469 419.1031,36.2969 Q419.4938,36.1406 419.9156,35.7031 Q420.1813,35.4375 420.3219,35.3594 Q420.4781,35.2813 420.6813,35.2813 Q421.0094,35.2813 421.2594,35.5469 Q421.525,35.7969 421.525,36.1406 Q421.525,36.4844 421.1813,36.8906 Q420.6813,37.4688 419.8844,37.7969 Q418.8063,38.25 417.5094,38.25 Q415.9938,38.25 414.7906,37.625 Q413.8063,37.125 413.1188,36.0625 Q412.4313,34.9844 412.4313,33.7031 L412.4313,32.5469 Q412.4313,31.2188 413.0406,30.0781 Q413.6656,28.9219 414.7594,28.3125 Q415.8531,27.6875 417.0875,27.6875 Q417.8219,27.6875 418.4625,27.8594 Q419.1188,28.0156 419.6656,28.375 Z " fill="#000000"/><text fill="#000000" font-family="sans-serif" font-size="14" lengthAdjust="spacing" textLength="164" x="433.1" y="38.2969">CompletionTaskController</text><line style="stroke:#181818;stroke-width:0.5;" x1="393" x2="609" y1="48.5" y2="48.5"/><text fill="#000000" font-family="sans-serif" font-size="14" lengthAdjust="spacing" textLength="178" x="398" y="67.6074">-agenda: AgendaRepository</text><line style="stroke:#181818;stroke-width:0.5;" x1="393" x2="609" y1="75.1211" y2="75.1211"/><text fill="#000000" font-family="sans-serif" font-size="14" lengthAdjust="spacing" textLength="182" x="398" y="94.2285">+CompletionTaskController()</text><text fill="#000000" font-family="sans-serif" font-size="14" lengthAdjust="spacing" textLength="206" x="398" y="112.8496">+markAsCompleted(entry: Entry)</text><text fill="#000000" font-family="sans-serif" font-size="14" lengthAdjust="spacing" textLength="82" x="398" y="131.4707">+getEntries()</text></g><!--class Organization--><g id="elem_Organization"><rect codeLine="26" fill="#F1F1F1" height="85.2422" id="Organization" rx="2.5" ry="2.5" style="stroke:#181818;stroke-width:0.5;" width="144" x="572" y="391"/><ellipse cx="601.4" cy="407" fill="#ADD1B2" rx="11" ry="11" style="stroke:#181818;stroke-width:1.0;"/><path d="M604.1656,402.875 Q604.3219,402.6563 604.5094,402.5469 Q604.6969,402.4375 604.9156,402.4375 Q605.2906,402.4375 605.525,402.7031 Q605.7594,402.9531 605.7594,403.5625 L605.7594,405.0156 Q605.7594,405.625 605.525,405.8906 Q605.2906,406.1563 604.9156,406.1563 Q604.5719,406.1563 604.3688,405.9531 Q604.1656,405.7656 604.0563,405.25 Q604.0094,404.8906 603.8219,404.7031 Q603.4938,404.3281 602.8844,404.1094 Q602.275,403.8906 601.65,403.8906 Q600.8844,403.8906 600.2438,404.2188 Q599.6188,404.5469 599.1188,405.2969 Q598.6344,406.0469 598.6344,407.0781 L598.6344,408.1719 Q598.6344,409.4063 599.525,410.2344 Q600.4156,411.0469 602.0094,411.0469 Q602.9469,411.0469 603.6031,410.7969 Q603.9938,410.6406 604.4156,410.2031 Q604.6813,409.9375 604.8219,409.8594 Q604.9781,409.7813 605.1813,409.7813 Q605.5094,409.7813 605.7594,410.0469 Q606.025,410.2969 606.025,410.6406 Q606.025,410.9844 605.6813,411.3906 Q605.1813,411.9688 604.3844,412.2969 Q603.3063,412.75 602.0094,412.75 Q600.4938,412.75 599.2906,412.125 Q598.3063,411.625 597.6188,410.5625 Q596.9313,409.4844 596.9313,408.2031 L596.9313,407.0469 Q596.9313,405.7188 597.5406,404.5781 Q598.1656,403.4219 599.2594,402.8125 Q600.3531,402.1875 601.5875,402.1875 Q602.3219,402.1875 602.9625,402.3594 Q603.6188,402.5156 604.1656,402.875 Z " fill="#000000"/><text fill="#000000" font-family="sans-serif" font-size="14" lengthAdjust="spacing" textLength="80" x="618.6" y="412.7969">Organization</text><line style="stroke:#181818;stroke-width:0.5;" x1="573" x2="715" y1="423" y2="423"/><text fill="#000000" font-family="sans-serif" font-size="14" lengthAdjust="spacing" textLength="85" x="578" y="442.1074">-name: String</text><text fill="#000000" font-family="sans-serif" font-size="14" lengthAdjust="spacing" textLength="132" x="578" y="460.7285">-agenda: List&lt;Entry&gt;</text><line style="stroke:#181818;stroke-width:0.5;" x1="573" x2="715" y1="468.2422" y2="468.2422"/></g><!--class OrganizationRepository--><g id="elem_OrganizationRepository"><rect codeLine="31" fill="#F1F1F1" height="66.6211" id="OrganizationRepository" rx="2.5" ry="2.5" style="stroke:#181818;stroke-width:0.5;" width="180" x="554" y="236"/><ellipse cx="569" cy="252" fill="#ADD1B2" rx="11" ry="11" style="stroke:#181818;stroke-width:1.0;"/><path d="M571.7656,247.875 Q571.9219,247.6563 572.1094,247.5469 Q572.2969,247.4375 572.5156,247.4375 Q572.8906,247.4375 573.125,247.7031 Q573.3594,247.9531 573.3594,248.5625 L573.3594,250.0156 Q573.3594,250.625 573.125,250.8906 Q572.8906,251.1563 572.5156,251.1563 Q572.1719,251.1563 571.9688,250.9531 Q571.7656,250.7656 571.6563,250.25 Q571.6094,249.8906 571.4219,249.7031 Q571.0938,249.3281 570.4844,249.1094 Q569.875,248.8906 569.25,248.8906 Q568.4844,248.8906 567.8438,249.2188 Q567.2188,249.5469 566.7188,250.2969 Q566.2344,251.0469 566.2344,252.0781 L566.2344,253.1719 Q566.2344,254.4063 567.125,255.2344 Q568.0156,256.0469 569.6094,256.0469 Q570.5469,256.0469 571.2031,255.7969 Q571.5938,255.6406 572.0156,255.2031 Q572.2813,254.9375 572.4219,254.8594 Q572.5781,254.7813 572.7813,254.7813 Q573.1094,254.7813 573.3594,255.0469 Q573.625,255.2969 573.625,255.6406 Q573.625,255.9844 573.2813,256.3906 Q572.7813,256.9688 571.9844,257.2969 Q570.9063,257.75 569.6094,257.75 Q568.0938,257.75 566.8906,257.125 Q565.9063,256.625 565.2188,255.5625 Q564.5313,254.4844 564.5313,253.2031 L564.5313,252.0469 Q564.5313,250.7188 565.1406,249.5781 Q565.7656,248.4219 566.8594,247.8125 Q567.9531,247.1875 569.1875,247.1875 Q569.9219,247.1875 570.5625,247.3594 Q571.2188,247.5156 571.7656,247.875 Z " fill="#000000"/><text fill="#000000" font-family="sans-serif" font-size="14" lengthAdjust="spacing" textLength="148" x="583" y="257.7969">OrganizationRepository</text><line style="stroke:#181818;stroke-width:0.5;" x1="555" x2="733" y1="268" y2="268"/><line style="stroke:#181818;stroke-width:0.5;" x1="555" x2="733" y1="276" y2="276"/><text fill="#000000" font-family="sans-serif" font-size="14" lengthAdjust="spacing" textLength="103" x="560" y="295.1074">+getUserName()</text></g><!--class AgendaRepository--><g id="elem_AgendaRepository"><rect codeLine="35" fill="#F1F1F1" height="85.2422" id="AgendaRepository" rx="2.5" ry="2.5" style="stroke:#181818;stroke-width:0.5;" width="162" x="769" y="227"/><ellipse cx="789.85" cy="243" fill="#ADD1B2" rx="11" ry="11" style="stroke:#181818;stroke-width:1.0;"/><path d="M792.6156,238.875 Q792.7719,238.6563 792.9594,238.5469 Q793.1469,238.4375 793.3656,238.4375 Q793.7406,238.4375 793.975,238.7031 Q794.2094,238.9531 794.2094,239.5625 L794.2094,241.0156 Q794.2094,241.625 793.975,241.8906 Q793.7406,242.1563 793.3656,242.1563 Q793.0219,242.1563 792.8188,241.9531 Q792.6156,241.7656 792.5063,241.25 Q792.4594,240.8906 792.2719,240.7031 Q791.9438,240.3281 791.3344,240.1094 Q790.725,239.8906 790.1,239.8906 Q789.3344,239.8906 788.6938,240.2188 Q788.0688,240.5469 787.5688,241.2969 Q787.0844,242.0469 787.0844,243.0781 L787.0844,244.1719 Q787.0844,245.4063 787.975,246.2344 Q788.8656,247.0469 790.4594,247.0469 Q791.3969,247.0469 792.0531,246.7969 Q792.4438,246.6406 792.8656,246.2031 Q793.1313,245.9375 793.2719,245.8594 Q793.4281,245.7813 793.6313,245.7813 Q793.9594,245.7813 794.2094,246.0469 Q794.475,246.2969 794.475,246.6406 Q794.475,246.9844 794.1313,247.3906 Q793.6313,247.9688 792.8344,248.2969 Q791.7563,248.75 790.4594,248.75 Q788.9438,248.75 787.7406,248.125 Q786.7563,247.625 786.0688,246.5625 Q785.3813,245.4844 785.3813,244.2031 L785.3813,243.0469 Q785.3813,241.7188 785.9906,240.5781 Q786.6156,239.4219 787.7094,238.8125 Q788.8031,238.1875 790.0375,238.1875 Q790.7719,238.1875 791.4125,238.3594 Q792.0688,238.5156 792.6156,238.875 Z " fill="#000000"/><text fill="#000000" font-family="sans-serif" font-size="14" lengthAdjust="spacing" textLength="117" x="805.15" y="248.7969">AgendaRepository</text><line style="stroke:#181818;stroke-width:0.5;" x1="770" x2="930" y1="259" y2="259"/><text fill="#000000" font-family="sans-serif" font-size="14" lengthAdjust="spacing" textLength="136" x="775" y="278.1074">-agenda: List&lt;Entry&gt;;</text><line style="stroke:#181818;stroke-width:0.5;" x1="770" x2="930" y1="285.6211" y2="285.6211"/><text fill="#000000" font-family="sans-serif" font-size="14" lengthAdjust="spacing" textLength="150" x="775" y="304.7285">+getEntriesWithStatus()</text></g><!--class Repositories--><g id="elem_Repositories"><rect codeLine="40" fill="#F1F1F1" height="122.4844" id="Repositories" rx="2.5" ry="2.5" style="stroke:#181818;stroke-width:0.5;" width="198" x="714" y="16.5"/><ellipse cx="769.25" cy="32.5" fill="#ADD1B2" rx="11" ry="11" style="stroke:#181818;stroke-width:1.0;"/><path d="M772.0156,28.375 Q772.1719,28.1563 772.3594,28.0469 Q772.5469,27.9375 772.7656,27.9375 Q773.1406,27.9375 773.375,28.2031 Q773.6094,28.4531 773.6094,29.0625 L773.6094,30.5156 Q773.6094,31.125 773.375,31.3906 Q773.1406,31.6563 772.7656,31.6563 Q772.4219,31.6563 772.2188,31.4531 Q772.0156,31.2656 771.9063,30.75 Q771.8594,30.3906 771.6719,30.2031 Q771.3438,29.8281 770.7344,29.6094 Q770.125,29.3906 769.5,29.3906 Q768.7344,29.3906 768.0938,29.7188 Q767.4688,30.0469 766.9688,30.7969 Q766.4844,31.5469 766.4844,32.5781 L766.4844,33.6719 Q766.4844,34.9063 767.375,35.7344 Q768.2656,36.5469 769.8594,36.5469 Q770.7969,36.5469 771.4531,36.2969 Q771.8438,36.1406 772.2656,35.7031 Q772.5313,35.4375 772.6719,35.3594 Q772.8281,35.2813 773.0313,35.2813 Q773.3594,35.2813 773.6094,35.5469 Q773.875,35.7969 773.875,36.1406 Q773.875,36.4844 773.5313,36.8906 Q773.0313,37.4688 772.2344,37.7969 Q771.1563,38.25 769.8594,38.25 Q768.3438,38.25 767.1406,37.625 Q766.1563,37.125 765.4688,36.0625 Q764.7813,34.9844 764.7813,33.7031 L764.7813,32.5469 Q764.7813,31.2188 765.3906,30.0781 Q766.0156,28.9219 767.1094,28.3125 Q768.2031,27.6875 769.4375,27.6875 Q770.1719,27.6875 770.8125,27.8594 Q771.4688,28.0156 772.0156,28.375 Z " fill="#000000"/><text fill="#000000" font-family="sans-serif" font-size="14" lengthAdjust="spacing" textLength="79" x="789.75" y="38.2969">Repositories</text><line style="stroke:#181818;stroke-width:0.5;" x1="715" x2="911" y1="48.5" y2="48.5"/><line style="stroke:#181818;stroke-width:0.5;" x1="715" x2="911" y1="56.5" y2="56.5"/><text fill="#000000" font-family="sans-serif" font-size="14" lengthAdjust="spacing" textLength="94" x="720" y="75.6074">-Repositories()</text><text fill="#000000" font-family="sans-serif" font-size="14" lengthAdjust="spacing" textLength="182" x="720" y="94.2285">+getInstance() : Repositories</text><text fill="#000000" font-family="sans-serif" font-size="14" lengthAdjust="spacing" textLength="155" x="720" y="112.8496">+getAgendaRepository()</text><text fill="#000000" font-family="sans-serif" font-size="14" lengthAdjust="spacing" textLength="186" x="720" y="131.4707">+getOrganizationRepository()</text></g><!--class Entry--><g id="elem_Entry"><rect codeLine="47" fill="#F1F1F1" height="364.5586" id="Entry" rx="2.5" ry="2.5" style="stroke:#181818;stroke-width:0.5;" width="603" x="342.5" y="555"/><ellipse cx="623.25" cy="571" fill="#ADD1B2" rx="11" ry="11" style="stroke:#181818;stroke-width:1.0;"/><path d="M626.0156,566.875 Q626.1719,566.6563 626.3594,566.5469 Q626.5469,566.4375 626.7656,566.4375 Q627.1406,566.4375 627.375,566.7031 Q627.6094,566.9531 627.6094,567.5625 L627.6094,569.0156 Q627.6094,569.625 627.375,569.8906 Q627.1406,570.1563 626.7656,570.1563 Q626.4219,570.1563 626.2188,569.9531 Q626.0156,569.7656 625.9063,569.25 Q625.8594,568.8906 625.6719,568.7031 Q625.3438,568.3281 624.7344,568.1094 Q624.125,567.8906 623.5,567.8906 Q622.7344,567.8906 622.0938,568.2188 Q621.4688,568.5469 620.9688,569.2969 Q620.4844,570.0469 620.4844,571.0781 L620.4844,572.1719 Q620.4844,573.4063 621.375,574.2344 Q622.2656,575.0469 623.8594,575.0469 Q624.7969,575.0469 625.4531,574.7969 Q625.8438,574.6406 626.2656,574.2031 Q626.5313,573.9375 626.6719,573.8594 Q626.8281,573.7813 627.0313,573.7813 Q627.3594,573.7813 627.6094,574.0469 Q627.875,574.2969 627.875,574.6406 Q627.875,574.9844 627.5313,575.3906 Q627.0313,575.9688 626.2344,576.2969 Q625.1563,576.75 623.8594,576.75 Q622.3438,576.75 621.1406,576.125 Q620.1563,575.625 619.4688,574.5625 Q618.7813,573.4844 618.7813,572.2031 L618.7813,571.0469 Q618.7813,569.7188 619.3906,568.5781 Q620.0156,567.4219 621.1094,566.8125 Q622.2031,566.1875 623.4375,566.1875 Q624.1719,566.1875 624.8125,566.3594 Q625.4688,566.5156 626.0156,566.875 Z " fill="#000000"/><text fill="#000000" font-family="sans-serif" font-size="14" lengthAdjust="spacing" textLength="33" x="643.75" y="576.7969">Entry</text><line style="stroke:#181818;stroke-width:0.5;" x1="343.5" x2="944.5" y1="587" y2="587"/><text fill="#000000" font-family="sans-serif" font-size="14" lengthAdjust="spacing" textLength="76" x="348.5" y="606.1074">-task: String</text><text fill="#000000" font-family="sans-serif" font-size="14" lengthAdjust="spacing" textLength="116" x="348.5" y="624.7285">-urgency: Urgency</text><text fill="#000000" font-family="sans-serif" font-size="14" lengthAdjust="spacing" textLength="80" x="348.5" y="643.3496">-duration: int</text><text fill="#000000" font-family="sans-serif" font-size="14" lengthAdjust="spacing" textLength="170" x="348.5" y="661.9707">-greenSpace: GreenSpace</text><text fill="#000000" font-family="sans-serif" font-size="14" lengthAdjust="spacing" textLength="91" x="348.5" y="680.5918">-status: Status</text><text fill="#000000" font-family="sans-serif" font-size="14" lengthAdjust="spacing" textLength="135" x="348.5" y="699.2129">-startDate: LocalDate</text><text fill="#000000" font-family="sans-serif" font-size="14" lengthAdjust="spacing" textLength="131" x="348.5" y="717.834">-endDate: LocalDate</text><text fill="#000000" font-family="sans-serif" font-size="14" lengthAdjust="spacing" textLength="80" x="348.5" y="736.4551">-team: Team</text><line style="stroke:#181818;stroke-width:0.5;" x1="343.5" x2="944.5" y1="743.9688" y2="743.9688"/><text fill="#000000" font-family="sans-serif" font-size="14" lengthAdjust="spacing" textLength="591" x="348.5" y="763.0762">+Entry(task: String, urgency: Urgency, duration: int, greenSpace: GreenSpace, status: Status)</text><text fill="#000000" font-family="sans-serif" font-size="14" lengthAdjust="spacing" textLength="69" x="348.5" y="781.6973">+getTask()</text><text fill="#000000" font-family="sans-serif" font-size="14" lengthAdjust="spacing" textLength="90" x="348.5" y="800.3184">+getUrgency()</text><text fill="#000000" font-family="sans-serif" font-size="14" lengthAdjust="spacing" textLength="92" x="348.5" y="818.9395">+getDuration()</text><text fill="#000000" font-family="sans-serif" font-size="14" lengthAdjust="spacing" textLength="118" x="348.5" y="837.5605">+getGreenSpace()</text><text fill="#000000" font-family="sans-serif" font-size="14" lengthAdjust="spacing" textLength="78" x="348.5" y="856.1816">+getStatus()</text><text fill="#000000" font-family="sans-serif" font-size="14" lengthAdjust="spacing" textLength="98" x="348.5" y="874.8027">+getStartDate()</text><text fill="#000000" font-family="sans-serif" font-size="14" lengthAdjust="spacing" textLength="93" x="348.5" y="893.4238">+getEndDate()</text><text fill="#000000" font-family="sans-serif" font-size="14" lengthAdjust="spacing" textLength="163" x="348.5" y="912.0449">+setStatus(status: Status)</text></g><!--link CompletionTaskUI to CompletionTaskController--><g id="link_CompletionTaskUI_CompletionTaskController"><path codeLine="67" d="M357.18,77.5 C372.51,77.5 379.93,77.5 385.68,77.5 " fill="none" id="CompletionTaskUI-to-CompletionTaskController" style="stroke:#181818;stroke-width:1.0;stroke-dasharray:7.0,7.0;"/><polygon fill="#181818" points="391.68,77.5,382.68,73.5,386.68,77.5,382.68,81.5,391.68,77.5" style="stroke:#181818;stroke-width:1.0;"/></g><!--link CompletionTaskController to Organization--><g id="link_CompletionTaskController_Organization"><path codeLine="68" d="M510.01,138.63 C520.38,207.82 536,312 536,312 C536,312 571.3354,351.4219 602.5254,386.2219 " fill="none" id="CompletionTaskController-to-Organization" style="stroke:#181818;stroke-width:1.0;stroke-dasharray:7.0,7.0;"/><polygon fill="#181818" points="606.53,390.69,603.5019,381.3182,603.1929,386.9666,597.5445,386.6576,606.53,390.69" style="stroke:#181818;stroke-width:1.0;"/></g><!--link CompletionTaskController to Repositories--><g id="link_CompletionTaskController_Repositories"><path codeLine="69" d="M610.12,77.5 C643.86,77.5 674.83,77.5 707.85,77.5 " fill="none" id="CompletionTaskController-to-Repositories" style="stroke:#181818;stroke-width:1.0;stroke-dasharray:7.0,7.0;"/><polygon fill="#181818" points="713.85,77.5,704.85,73.5,708.85,77.5,704.85,81.5,713.85,77.5" style="stroke:#181818;stroke-width:1.0;"/><text fill="#000000" font-family="sans-serif" font-size="13" lengthAdjust="spacing" textLength="67" x="628.5" y="70.5283">repositories</text></g><!--link Repositories to OrganizationRepository--><g id="link_Repositories_OrganizationRepository"><path codeLine="70" d="M738.61,138.67 C712.71,159.63 690,178 690,178 C690,178 676.4971,204.5505 663.3271,230.4805 " fill="none" id="Repositories-to-OrganizationRepository" style="stroke:#181818;stroke-width:1.0;"/><polygon fill="#181818" points="660.61,235.83,668.252,229.6171,662.8742,231.3721,661.1192,225.9943,660.61,235.83" style="stroke:#181818;stroke-width:1.0;"/><text fill="#000000" font-family="sans-serif" font-size="13" lengthAdjust="spacing" textLength="132" x="691" y="193.0283">organizationRepository</text><text fill="#000000" font-family="sans-serif" font-size="13" lengthAdjust="spacing" textLength="7" x="722.1172" y="161.1776">1</text><text fill="#000000" font-family="sans-serif" font-size="13" lengthAdjust="spacing" textLength="7" x="656.191" y="224.622">1</text></g><!--link Repositories to AgendaRepository--><g id="link_Repositories_AgendaRepository"><path codeLine="71" d="M824.71,138.62 C830.3,167.32 835.704,195.0605 840.734,220.9105 " fill="none" id="Repositories-to-AgendaRepository" style="stroke:#181818;stroke-width:1.0;"/><polygon fill="#181818" points="841.88,226.8,844.0873,217.2017,840.925,221.8921,836.2346,218.7297,841.88,226.8" style="stroke:#181818;stroke-width:1.0;"/><text fill="#000000" font-family="sans-serif" font-size="13" lengthAdjust="spacing" textLength="104" x="836" y="193.0283">agendaRepository</text><text fill="#000000" font-family="sans-serif" font-size="13" lengthAdjust="spacing" textLength="7" x="818.7106" y="161.1215">1</text><text fill="#000000" font-family="sans-serif" font-size="13" lengthAdjust="spacing" textLength="7" x="833.0281" y="215.6722">1</text></g><!--link OrganizationRepository to Organization--><g id="link_OrganizationRepository_Organization"><path codeLine="72" d="M644,303.28 C644,328.52 644,357.58 644,384.82 " fill="none" id="OrganizationRepository-to-Organization" style="stroke:#181818;stroke-width:1.0;"/><polygon fill="#181818" points="644,390.82,648,381.82,644,385.82,640,381.82,644,390.82" style="stroke:#181818;stroke-width:1.0;"/><text fill="#000000" font-family="sans-serif" font-size="13" lengthAdjust="spacing" textLength="59" x="645" y="357.0283">userName</text><text fill="#000000" font-family="sans-serif" font-size="13" lengthAdjust="spacing" textLength="7" x="636.3984" y="324.6328">1</text><text fill="#000000" font-family="sans-serif" font-size="13" lengthAdjust="spacing" textLength="7" x="636.4422" y="379.6954">1</text></g><!--link AgendaRepository to Organization--><g id="link_AgendaRepository_Organization"><path codeLine="73" d="M797.22,312.01 C766.46,336.2 732.5164,362.8912 701.7164,387.1112 " fill="none" id="AgendaRepository-to-Organization" style="stroke:#181818;stroke-width:1.0;"/><polygon fill="#181818" points="697,390.82,706.5472,388.401,700.9304,387.7293,701.6021,382.1125,697,390.82" style="stroke:#181818;stroke-width:1.0;"/><text fill="#000000" font-family="sans-serif" font-size="13" lengthAdjust="spacing" textLength="42" x="755" y="357.0283">agenda</text><text fill="#000000" font-family="sans-serif" font-size="13" lengthAdjust="spacing" textLength="7" x="781.2504" y="334.1719">1</text><text fill="#000000" font-family="sans-serif" font-size="13" lengthAdjust="spacing" textLength="7" x="697.8891" y="379.6954">1</text></g><!--link Organization to Entry--><g id="link_Organization_Entry"><path codeLine="74" d="M644,476.17 C644,497.61 644,519.39 644,548.79 " fill="none" id="Organization-to-Entry" style="stroke:#181818;stroke-width:1.0;"/><polygon fill="#181818" points="644,554.79,648,545.79,644,549.79,640,545.79,644,554.79" style="stroke:#181818;stroke-width:1.0;"/><text fill="#000000" font-family="sans-serif" font-size="13" lengthAdjust="spacing" textLength="29" x="645" y="521.0283">entry</text><text fill="#000000" font-family="sans-serif" font-size="13" lengthAdjust="spacing" textLength="7" x="636.4422" y="498.3574">1</text><text fill="#000000" font-family="sans-serif" font-size="13" lengthAdjust="spacing" textLength="20" x="623.5781" y="543.7671">1..*</text></g><!--link Repositories to Repositories--><g id="link_Repositories_Repositories"><path codeLine="75" d="M912.05,57.63 C932.4,59.76 947,66.38 947,77.5 C947,88.62 938.3674,94.6154 918.0174,96.7454 " fill="none" id="Repositories-to-Repositories" style="stroke:#181818;stroke-width:1.0;"/><polygon fill="#181818" points="912.05,97.37,921.4175,100.4114,917.0228,96.8495,920.5847,92.4548,912.05,97.37" style="stroke:#181818;stroke-width:1.0;"/><text fill="#000000" font-family="sans-serif" font-size="13" lengthAdjust="spacing" textLength="75" x="953" y="83.0283">getInstance()</text></g><!--SRC=[ZLJ1Rjim3BtxAuXSugr9i5sr8a3G5aE0OWEM1ZkhDki8iILFeZ6amVvzagFOacCFoo6I7yd7HudKt1o5hBdc5LHAgkoWLOL0ki6ajzGyE_82TtGg4JHcn6LHXWxcm7FrMyW2tdXfGaif9DAfHgXLUN8VoNp4g3If98ZAIcxCXaYBruPmcocv4-y8dv9aNk8R0IdGeZWGvCB94KecIHi33wggItJ82pV7_VQSWFqjmSgNEMUmQTSVM2iZIEcJDsTHs8EIf5LPecO3mjxI1jxTv4i_U8F6NmqQUkJ4EymqhvMuGd_69VSP_alwtMHubxNY-hWntWtp5At7YS6JMwu-1PBx5cX2PTzrmQLuvuxygaRo2XdihAyi1WAVXQ7xbdOzpj5hF_TvzmRrDqiQ9XwMUfxEzEMcWf-23ZlYr4IrT6JMuqeNOcbm55jfR8jdLXAmoAbt6IeCmyTB3iMqqgygo5xRu4GRRUapUqdxoyR3UQDRKWP2aiSAZIXtTaBjhNpjzjvescDmv6xjGUsQq0OyguoNRkjDjgPn0o6l6BpOVrzcMq4QIb_Sg5x4WXSJMXS3cS59keuEJzOJXz2ZJn5YFNU8TZqH8fUJIACvo2F8T953cVOwX-CFg_NqYp5bW9MD2flc7vxhg1-PVMQ2xWnDCFiyW-LoxTRnXcJssHt3RsWyox3bcH_7878yqOGI1eqV_MH8FHbnoHZbwNrNgu-pfylZrhvnSI7E9m9OFEh9Nm00]--></g></svg>