<?xml version="1.0" encoding="us-ascii" standalone="no"?><svg xmlns="http://www.w3.org/2000/svg" xmlns:xlink="http://www.w3.org/1999/xlink" contentStyleType="text/css" height="599.2px" preserveAspectRatio="none" style="width:1146px;height:599px;background:#FFFFFF;" version="1.1" viewBox="0 0 1146 599" width="1146.6px" zoomAndPan="magnify"><defs/><g><rect fill="#FFFFFF" height="469.309" style="stroke:#181818;stroke-width:0.6999999999999998;" width="7" x="52.5" y="65.5348"/><rect fill="#FFFFFF" height="446.7053" style="stroke:#181818;stroke-width:0.6999999999999998;" width="7" x="249.2" y="81.8385"/><rect fill="#FFFFFF" height="264.4756" style="stroke:#181818;stroke-width:0.6999999999999998;" width="7" x="348.95" y="242.1645"/><rect fill="#FFFFFF" height="21.9037" style="stroke:#181818;stroke-width:0.6999999999999998;" width="7" x="435.05" y="265.6992"/><rect fill="#FFFFFF" height="21.9037" style="stroke:#181818;stroke-width:0.6999999999999998;" width="7" x="531.65" y="309.5066"/><rect fill="#FFFFFF" height="131.4223" style="stroke:#181818;stroke-width:0.6999999999999998;" width="7" x="628.6" y="353.3141"/><rect fill="#FFFFFF" height="21.9037" style="stroke:#181818;stroke-width:0.6999999999999998;" width="7" x="1057.7" y="375.2178"/><rect fill="#FFFFFF" height="21.9037" style="stroke:#181818;stroke-width:0.6999999999999998;" width="7" x="1057.7" y="440.9289"/><rect fill="#FFFFFF" height="21.9037" style="stroke:#181818;stroke-width:0.6999999999999998;" width="7" x="1111.6" y="419.0252"/><line style="stroke:#181818;stroke-width:0.3499999999999999;stroke-dasharray:5.0,5.0;" x1="56" x2="56" y1="58.5348" y2="541.1437"/><line style="stroke:#181818;stroke-width:0.3499999999999999;stroke-dasharray:5.0,5.0;" x1="252.35" x2="252.35" y1="58.5348" y2="541.1437"/><line style="stroke:#181818;stroke-width:0.3499999999999999;stroke-dasharray:5.0,5.0;" x1="352.1" x2="352.1" y1="241.1281" y2="541.1437"/><line style="stroke:#181818;stroke-width:0.3499999999999999;stroke-dasharray:5.0,5.0;" x1="438.2" x2="438.2" y1="58.5348" y2="541.1437"/><line style="stroke:#181818;stroke-width:0.3499999999999999;stroke-dasharray:5.0,5.0;" x1="534.8" x2="534.8" y1="58.5348" y2="541.1437"/><line style="stroke:#181818;stroke-width:0.3499999999999999;stroke-dasharray:5.0,5.0;" x1="632.1" x2="632.1" y1="58.5348" y2="541.1437"/><line style="stroke:#181818;stroke-width:0.3499999999999999;stroke-dasharray:5.0,5.0;" x1="1060.85" x2="1060.85" y1="58.5348" y2="541.1437"/><line style="stroke:#181818;stroke-width:0.3499999999999999;stroke-dasharray:5.0,5.0;" x1="1114.75" x2="1114.75" y1="58.5348" y2="541.1437"/><text fill="#000000" font-family="sans-serif" font-size="9.8" lengthAdjust="spacing" textLength="100.8" x="3.5" y="56.0752">Green Space Manager</text><ellipse cx="56" cy="9.45" fill="#E3E3E3" rx="5.6" ry="5.6" style="stroke:#181818;stroke-width:0.3499999999999999;"/><path d="M56,15.05 L56,33.95 M46.9,20.65 L65.1,20.65 M56,33.95 L46.9,44.45 M56,33.95 L65.1,44.45 " fill="none" style="stroke:#181818;stroke-width:0.3499999999999999;"/><text fill="#000000" font-family="sans-serif" font-size="9.8" lengthAdjust="spacing" textLength="100.8" x="3.5" y="551.0189">Green Space Manager</text><ellipse cx="56" cy="559.4285" fill="#E3E3E3" rx="5.6" ry="5.6" style="stroke:#181818;stroke-width:0.3499999999999999;"/><path d="M56,565.0285 L56,583.9285 M46.9,570.6285 L65.1,570.6285 M56,583.9285 L46.9,594.4285 M56,583.9285 L65.1,594.4285 " fill="none" style="stroke:#181818;stroke-width:0.3499999999999999;"/><rect fill="#E3E3E3" height="22.8348" rx="1.75" ry="1.75" style="stroke:#181818;stroke-width:0.3499999999999999;" width="58.1" x="223.65" y="35"/><text fill="#000000" font-family="sans-serif" font-size="9.8" lengthAdjust="spacing" textLength="48.3" x="228.55" y="50.4752">ToDoListUI</text><rect fill="#E3E3E3" height="22.8348" rx="1.75" ry="1.75" style="stroke:#181818;stroke-width:0.3499999999999999;" width="58.1" x="223.65" y="540.4437"/><text fill="#000000" font-family="sans-serif" font-size="9.8" lengthAdjust="spacing" textLength="48.3" x="228.55" y="555.9189">ToDoListUI</text><rect fill="#E3E3E3" height="22.8348" rx="1.75" ry="1.75" style="stroke:#181818;stroke-width:0.3499999999999999;" width="93.1" x="305.9" y="540.4437"/><text fill="#000000" font-family="sans-serif" font-size="9.8" lengthAdjust="spacing" textLength="83.3" x="310.8" y="555.9189">ToDoListController</text><rect fill="#E3E3E3" height="22.8348" rx="1.75" ry="1.75" style="stroke:#181818;stroke-width:0.3499999999999999;" width="65.1" x="406" y="35"/><text fill="#000000" font-family="sans-serif" font-size="9.8" lengthAdjust="spacing" textLength="55.3" x="410.9" y="50.4752">Repositories</text><rect fill="#E3E3E3" height="22.8348" rx="1.75" ry="1.75" style="stroke:#181818;stroke-width:0.3499999999999999;" width="65.1" x="406" y="540.4437"/><text fill="#000000" font-family="sans-serif" font-size="9.8" lengthAdjust="spacing" textLength="55.3" x="410.9" y="555.9189">Repositories</text><rect fill="#E3E3E3" height="35.8695" rx="1.75" ry="1.75" style="stroke:#181818;stroke-width:0.3499999999999999;" width="114.1" x="478.1" y="21.9652"/><text fill="#000000" font-family="sans-serif" font-size="9.8" lengthAdjust="spacing" textLength="104.3" x="483" y="37.4404">organizationRepository:</text><text fill="#000000" font-family="sans-serif" font-size="9.8" lengthAdjust="spacing" textLength="103.6" x="483.35" y="50.4752">OrganizationRepository</text><rect fill="#E3E3E3" height="35.8695" rx="1.75" ry="1.75" style="stroke:#181818;stroke-width:0.3499999999999999;" width="114.1" x="478.1" y="540.4437"/><text fill="#000000" font-family="sans-serif" font-size="9.8" lengthAdjust="spacing" textLength="104.3" x="483" y="555.9189">organizationRepository:</text><text fill="#000000" font-family="sans-serif" font-size="9.8" lengthAdjust="spacing" textLength="103.6" x="483.35" y="568.9537">OrganizationRepository</text><rect fill="#E3E3E3" height="22.8348" rx="1.75" ry="1.75" style="stroke:#181818;stroke-width:0.3499999999999999;" width="65.8" x="599.2" y="35"/><text fill="#000000" font-family="sans-serif" font-size="9.8" lengthAdjust="spacing" textLength="56" x="604.1" y="50.4752">Organization</text><rect fill="#E3E3E3" height="22.8348" rx="1.75" ry="1.75" style="stroke:#181818;stroke-width:0.3499999999999999;" width="65.8" x="599.2" y="540.4437"/><text fill="#000000" font-family="sans-serif" font-size="9.8" lengthAdjust="spacing" textLength="56" x="604.1" y="555.9189">Organization</text><rect fill="#E3E3E3" height="35.8695" rx="1.75" ry="1.75" style="stroke:#181818;stroke-width:0.3499999999999999;" width="38.5" x="1041.95" y="21.9652"/><text fill="#000000" font-family="sans-serif" font-size="9.8" lengthAdjust="spacing" textLength="25.9" x="1046.85" y="37.4404">Entry:</text><text fill="#000000" font-family="sans-serif" font-size="9.8" lengthAdjust="spacing" textLength="22.4" x="1051.4" y="50.4752">entry</text><rect fill="#E3E3E3" height="35.8695" rx="1.75" ry="1.75" style="stroke:#181818;stroke-width:0.3499999999999999;" width="38.5" x="1041.95" y="540.4437"/><text fill="#000000" font-family="sans-serif" font-size="9.8" lengthAdjust="spacing" textLength="25.9" x="1046.85" y="555.9189">Entry:</text><text fill="#000000" font-family="sans-serif" font-size="9.8" lengthAdjust="spacing" textLength="22.4" x="1051.4" y="568.9537">entry</text><rect fill="#E3E3E3" height="35.8695" rx="1.75" ry="1.75" style="stroke:#181818;stroke-width:0.3499999999999999;" width="55.3" x="1087.45" y="21.9652"/><text fill="#000000" font-family="sans-serif" font-size="9.8" lengthAdjust="spacing" textLength="42.7" x="1092.35" y="37.4404">ToDoList:</text><text fill="#000000" font-family="sans-serif" font-size="9.8" lengthAdjust="spacing" textLength="39.9" x="1096.55" y="50.4752">ToDoList</text><rect fill="#E3E3E3" height="35.8695" rx="1.75" ry="1.75" style="stroke:#181818;stroke-width:0.3499999999999999;" width="55.3" x="1087.45" y="540.4437"/><text fill="#000000" font-family="sans-serif" font-size="9.8" lengthAdjust="spacing" textLength="42.7" x="1092.35" y="555.9189">ToDoList:</text><text fill="#000000" font-family="sans-serif" font-size="9.8" lengthAdjust="spacing" textLength="39.9" x="1096.55" y="568.9537">ToDoList</text><rect fill="#FFFFFF" height="469.309" style="stroke:#181818;stroke-width:0.6999999999999998;" width="7" x="52.5" y="65.5348"/><rect fill="#FFFFFF" height="446.7053" style="stroke:#181818;stroke-width:0.6999999999999998;" width="7" x="249.2" y="81.8385"/><rect fill="#FFFFFF" height="264.4756" style="stroke:#181818;stroke-width:0.6999999999999998;" width="7" x="348.95" y="242.1645"/><rect fill="#FFFFFF" height="21.9037" style="stroke:#181818;stroke-width:0.6999999999999998;" width="7" x="435.05" y="265.6992"/><rect fill="#FFFFFF" height="21.9037" style="stroke:#181818;stroke-width:0.6999999999999998;" width="7" x="531.65" y="309.5066"/><rect fill="#FFFFFF" height="131.4223" style="stroke:#181818;stroke-width:0.6999999999999998;" width="7" x="628.6" y="353.3141"/><rect fill="#FFFFFF" height="21.9037" style="stroke:#181818;stroke-width:0.6999999999999998;" width="7" x="1057.7" y="375.2178"/><rect fill="#FFFFFF" height="21.9037" style="stroke:#181818;stroke-width:0.6999999999999998;" width="7" x="1057.7" y="440.9289"/><rect fill="#FFFFFF" height="21.9037" style="stroke:#181818;stroke-width:0.6999999999999998;" width="7" x="1111.6" y="419.0252"/><polygon fill="#181818" points="240.8,79.0385,247.8,81.8385,240.8,84.6385,243.6,81.8385" style="stroke:#181818;stroke-width:0.6999999999999998;"/><line style="stroke:#181818;stroke-width:0.6999999999999998;" x1="59.5" x2="245" y1="81.8385" y2="81.8385"/><text fill="#000000" font-family="sans-serif" font-size="9.1" font-weight="bold" lengthAdjust="spacing" textLength="4.9" x="64.4" y="78.1546">1</text><text fill="#000000" font-family="sans-serif" font-size="9.1" lengthAdjust="spacing" textLength="112.7" x="72.1" y="78.1546">asks to register a new entry</text><polygon fill="#181818" points="67.2,100.9422,60.2,103.7422,67.2,106.5422,64.4,103.7422" style="stroke:#181818;stroke-width:0.6999999999999998;"/><line style="stroke:#181818;stroke-width:0.6999999999999998;" x1="63" x2="248.5" y1="103.7422" y2="103.7422"/><text fill="#000000" font-family="sans-serif" font-size="9.1" font-weight="bold" lengthAdjust="spacing" textLength="4.9" x="71.4" y="100.0583">2</text><text fill="#000000" font-family="sans-serif" font-size="9.1" lengthAdjust="spacing" textLength="67.9" x="79.1" y="100.0583">requests a name</text><polygon fill="#181818" points="240.8,122.8459,247.8,125.6459,240.8,128.4459,243.6,125.6459" style="stroke:#181818;stroke-width:0.6999999999999998;"/><line style="stroke:#181818;stroke-width:0.6999999999999998;" x1="59.5" x2="245" y1="125.6459" y2="125.6459"/><text fill="#000000" font-family="sans-serif" font-size="9.1" font-weight="bold" lengthAdjust="spacing" textLength="4.9" x="64.4" y="121.962">3</text><text fill="#000000" font-family="sans-serif" font-size="9.1" lengthAdjust="spacing" textLength="47.6" x="72.1" y="121.962">types name</text><polygon fill="#181818" points="67.2,144.7496,60.2,147.5496,67.2,150.3496,64.4,147.5496" style="stroke:#181818;stroke-width:0.6999999999999998;"/><line style="stroke:#181818;stroke-width:0.6999999999999998;" x1="63" x2="248.5" y1="147.5496" y2="147.5496"/><text fill="#000000" font-family="sans-serif" font-size="9.1" font-weight="bold" lengthAdjust="spacing" textLength="4.9" x="71.4" y="143.8657">4</text><text fill="#000000" font-family="sans-serif" font-size="9.1" lengthAdjust="spacing" textLength="65.1" x="79.1" y="143.8657">request urgency</text><polygon fill="#181818" points="240.8,166.6533,247.8,169.4533,240.8,172.2533,243.6,169.4533" style="stroke:#181818;stroke-width:0.6999999999999998;"/><line style="stroke:#181818;stroke-width:0.6999999999999998;" x1="59.5" x2="245" y1="169.4533" y2="169.4533"/><text fill="#000000" font-family="sans-serif" font-size="9.1" font-weight="bold" lengthAdjust="spacing" textLength="4.9" x="64.4" y="165.7694">5</text><text fill="#000000" font-family="sans-serif" font-size="9.1" lengthAdjust="spacing" textLength="64.4" x="72.1" y="165.7694">selects urgency</text><polygon fill="#181818" points="67.2,188.557,60.2,191.357,67.2,194.157,64.4,191.357" style="stroke:#181818;stroke-width:0.6999999999999998;"/><line style="stroke:#181818;stroke-width:0.6999999999999998;" x1="63" x2="248.5" y1="191.357" y2="191.357"/><text fill="#000000" font-family="sans-serif" font-size="9.1" font-weight="bold" lengthAdjust="spacing" textLength="4.9" x="71.4" y="187.6731">6</text><text fill="#000000" font-family="sans-serif" font-size="9.1" lengthAdjust="spacing" textLength="70" x="79.1" y="187.6731">requests duration</text><polygon fill="#181818" points="240.8,210.4607,247.8,213.2607,240.8,216.0607,243.6,213.2607" style="stroke:#181818;stroke-width:0.6999999999999998;"/><line style="stroke:#181818;stroke-width:0.6999999999999998;" x1="59.5" x2="245" y1="213.2607" y2="213.2607"/><text fill="#000000" font-family="sans-serif" font-size="9.1" font-weight="bold" lengthAdjust="spacing" textLength="4.9" x="64.4" y="209.5769">7</text><text fill="#000000" font-family="sans-serif" font-size="9.1" lengthAdjust="spacing" textLength="57.4" x="72.1" y="209.5769">types duration</text><polygon fill="#181818" points="297.5,232.3645,304.5,235.1645,297.5,237.9645,300.3,235.1645" style="stroke:#181818;stroke-width:0.6999999999999998;"/><line style="stroke:#181818;stroke-width:0.6999999999999998;" x1="256.2" x2="301.7" y1="235.1645" y2="235.1645"/><text fill="#000000" font-family="sans-serif" font-size="9.1" font-weight="bold" lengthAdjust="spacing" textLength="4.9" x="261.1" y="231.4806">8</text><text fill="#000000" font-family="sans-serif" font-size="9.1" lengthAdjust="spacing" textLength="25.2" x="268.8" y="231.4806">create</text><rect fill="#E3E3E3" height="22.8348" rx="1.75" ry="1.75" style="stroke:#181818;stroke-width:0.3499999999999999;" width="93.1" x="305.9" y="218.8607"/><text fill="#000000" font-family="sans-serif" font-size="9.8" lengthAdjust="spacing" textLength="83.3" x="310.8" y="234.3359">ToDoListController</text><polygon fill="#181818" points="426.65,262.8992,433.65,265.6992,426.65,268.4992,429.45,265.6992" style="stroke:#181818;stroke-width:0.6999999999999998;"/><line style="stroke:#181818;stroke-width:0.6999999999999998;" x1="355.95" x2="430.85" y1="265.6992" y2="265.6992"/><text fill="#000000" font-family="sans-serif" font-size="9.1" font-weight="bold" lengthAdjust="spacing" textLength="4.9" x="360.85" y="262.0153">9</text><text fill="#000000" font-family="sans-serif" font-size="9.1" lengthAdjust="spacing" textLength="52.5" x="368.55" y="262.0153">getInstance()</text><polygon fill="#181818" points="363.65,284.8029,356.65,287.6029,363.65,290.4029,360.85,287.6029" style="stroke:#181818;stroke-width:0.6999999999999998;"/><line style="stroke:#181818;stroke-width:0.6999999999999998;" x1="359.45" x2="437.85" y1="287.6029" y2="287.6029"/><text fill="#000000" font-family="sans-serif" font-size="9.1" font-weight="bold" lengthAdjust="spacing" textLength="9.8" x="367.85" y="283.919">10</text><text fill="#000000" font-family="sans-serif" font-size="9.1" lengthAdjust="spacing" textLength="46.9" x="380.45" y="283.919">repositories</text><polygon fill="#181818" points="523.25,306.7066,530.25,309.5066,523.25,312.3066,526.05,309.5066" style="stroke:#181818;stroke-width:0.6999999999999998;"/><line style="stroke:#181818;stroke-width:0.6999999999999998;" x1="355.95" x2="527.45" y1="309.5066" y2="309.5066"/><text fill="#000000" font-family="sans-serif" font-size="9.1" font-weight="bold" lengthAdjust="spacing" textLength="9.8" x="360.85" y="305.8228">11</text><text fill="#000000" font-family="sans-serif" font-size="9.1" lengthAdjust="spacing" textLength="112.7" x="373.45" y="305.8228">getOrganizationRepository()</text><polygon fill="#181818" points="363.65,328.6104,356.65,331.4104,363.65,334.2104,360.85,331.4104" style="stroke:#181818;stroke-width:0.6999999999999998;"/><line style="stroke:#181818;stroke-width:0.6999999999999998;" x1="359.45" x2="534.45" y1="331.4104" y2="331.4104"/><text fill="#000000" font-family="sans-serif" font-size="9.1" font-weight="bold" lengthAdjust="spacing" textLength="9.8" x="367.85" y="327.7265">12</text><text fill="#000000" font-family="sans-serif" font-size="9.1" lengthAdjust="spacing" textLength="92.4" x="380.45" y="327.7265">organizationRepository</text><polygon fill="#181818" points="620.2,350.5141,627.2,353.3141,620.2,356.1141,623,353.3141" style="stroke:#181818;stroke-width:0.6999999999999998;"/><line style="stroke:#181818;stroke-width:0.6999999999999998;" x1="355.95" x2="624.4" y1="353.3141" y2="353.3141"/><text fill="#000000" font-family="sans-serif" font-size="9.1" font-weight="bold" lengthAdjust="spacing" textLength="9.8" x="360.85" y="349.6302">13</text><text fill="#000000" font-family="sans-serif" font-size="9.1" lengthAdjust="spacing" textLength="20.3" x="373.45" y="349.6302">entry</text><polygon fill="#181818" points="1049.3,372.4178,1056.3,375.2178,1049.3,378.0178,1052.1,375.2178" style="stroke:#181818;stroke-width:0.6999999999999998;"/><line style="stroke:#181818;stroke-width:0.6999999999999998;" x1="635.6" x2="1053.5" y1="375.2178" y2="375.2178"/><text fill="#000000" font-family="sans-serif" font-size="9.1" font-weight="bold" lengthAdjust="spacing" textLength="9.8" x="640.5" y="371.5339">14</text><text fill="#000000" font-family="sans-serif" font-size="9.1" lengthAdjust="spacing" textLength="396.2" x="653.1" y="371.5339">registerEntry (String task, Urgency urgency, int duration, GreenSpace greenSpace, Status status)</text><polygon fill="#181818" points="643.3,394.3215,636.3,397.1215,643.3,399.9215,640.5,397.1215" style="stroke:#181818;stroke-width:0.6999999999999998;"/><line style="stroke:#181818;stroke-width:0.6999999999999998;" x1="639.1" x2="1060.5" y1="397.1215" y2="397.1215"/><text fill="#000000" font-family="sans-serif" font-size="9.1" font-weight="bold" lengthAdjust="spacing" textLength="9.8" x="647.5" y="393.4376">15</text><text fill="#000000" font-family="sans-serif" font-size="9.1" lengthAdjust="spacing" textLength="20.3" x="660.1" y="393.4376">entry</text><polygon fill="#181818" points="1103.2,416.2252,1110.2,419.0252,1103.2,421.8252,1106,419.0252" style="stroke:#181818;stroke-width:0.6999999999999998;"/><line style="stroke:#181818;stroke-width:0.6999999999999998;" x1="635.6" x2="1107.4" y1="419.0252" y2="419.0252"/><text fill="#000000" font-family="sans-serif" font-size="9.1" font-weight="bold" lengthAdjust="spacing" textLength="9.8" x="640.5" y="415.3413">16</text><text fill="#000000" font-family="sans-serif" font-size="9.1" lengthAdjust="spacing" textLength="86.8" x="653.1" y="415.3413">addEntry(Entry entry)</text><polygon fill="#181818" points="1072.4,438.1289,1065.4,440.9289,1072.4,443.7289,1069.6,440.9289" style="stroke:#181818;stroke-width:0.6999999999999998;"/><line style="stroke:#181818;stroke-width:0.6999999999999998;" x1="1068.2" x2="1114.4" y1="440.9289" y2="440.9289"/><text fill="#000000" font-family="sans-serif" font-size="9.1" font-weight="bold" lengthAdjust="spacing" textLength="9.8" x="1076.6" y="437.245">17</text><text fill="#000000" font-family="sans-serif" font-size="9.1" lengthAdjust="spacing" textLength="20.3" x="1089.2" y="437.245">entry</text><polygon fill="#181818" points="643.3,460.0326,636.3,462.8326,643.3,465.6326,640.5,462.8326" style="stroke:#181818;stroke-width:0.6999999999999998;"/><line style="stroke:#181818;stroke-width:0.6999999999999998;" x1="639.1" x2="1060.5" y1="462.8326" y2="462.8326"/><text fill="#000000" font-family="sans-serif" font-size="9.1" font-weight="bold" lengthAdjust="spacing" textLength="9.8" x="647.5" y="459.1487">18</text><text fill="#000000" font-family="sans-serif" font-size="9.1" lengthAdjust="spacing" textLength="20.3" x="660.1" y="459.1487">entry</text><polygon fill="#181818" points="363.65,481.9363,356.65,484.7363,363.65,487.5363,360.85,484.7363" style="stroke:#181818;stroke-width:0.6999999999999998;"/><line style="stroke:#181818;stroke-width:0.6999999999999998;" x1="359.45" x2="631.4" y1="484.7363" y2="484.7363"/><text fill="#000000" font-family="sans-serif" font-size="9.1" font-weight="bold" lengthAdjust="spacing" textLength="9.8" x="367.85" y="481.0524">19</text><text fill="#000000" font-family="sans-serif" font-size="9.1" lengthAdjust="spacing" textLength="20.3" x="380.45" y="481.0524">entry</text><polygon fill="#181818" points="263.9,503.84,256.9,506.64,263.9,509.44,261.1,506.64" style="stroke:#181818;stroke-width:0.6999999999999998;"/><line style="stroke:#181818;stroke-width:0.6999999999999998;" x1="259.7" x2="351.75" y1="506.64" y2="506.64"/><text fill="#000000" font-family="sans-serif" font-size="9.1" font-weight="bold" lengthAdjust="spacing" textLength="9.8" x="268.1" y="502.9562">20</text><text fill="#000000" font-family="sans-serif" font-size="9.1" lengthAdjust="spacing" textLength="20.3" x="280.7" y="502.9562">entry</text><polygon fill="#181818" points="67.2,525.7437,60.2,528.5437,67.2,531.3437,64.4,528.5437" style="stroke:#181818;stroke-width:0.6999999999999998;"/><line style="stroke:#181818;stroke-width:0.6999999999999998;stroke-dasharray:2.0,2.0;" x1="63" x2="252" y1="528.5437" y2="528.5437"/><text fill="#000000" font-family="sans-serif" font-size="9.1" font-weight="bold" lengthAdjust="spacing" textLength="9.8" x="71.4" y="524.8599">21</text><text fill="#000000" font-family="sans-serif" font-size="9.1" lengthAdjust="spacing" textLength="160.3" x="84" y="524.8599">displays all data and operation success</text><!--SRC=[fLJBRjim4BppAnQ-r0dS7_2XbxG832Ge4CUtN3RIHYOiaof9DLM_lajIaYcRSW9K5zFYpEn3isiFKZLey0X7hNInD_f8u4nBmeut3HO7h6Zhkfh0KE5GLNKAi7iizRjK5RnXRKa8R9rMxV6LZ11Vzh8aUDFQlUe_0Wkd3Ipk3P62BIiJFA9YTRC0j72_VHIiwMGX6rGE5i_wktwGrkqsuNwtoL_VQUMChkjUvkxvwM4AVA96Mycn9Ta0uHTJX3OLAlaNdTHgH7Vh5_KpUn54yfofRaeVI5F43ywzMyEB0lAd00gdVAq1EVm9ODV_4RwzyZSw2eqKu1y-mTTlt3bOC_RWqVmHAuQJ0GH5xtsm21yLkDNnJV-m0CjujJNpVxLadVLyFD84byPpNKFs4fAHWjPKf8fkLifIpSwpMLmsjR8reUSV99U5HK7lejjRHXQ6k2FYl4F1PHEUV-EPx0McLUGsolAq5BIyEITx_qsudjC73MMS_DhZIfed3u7pXeovv7rycTcCgIVnPkASyhygabJocM19SQoSchL_KhNpD9aN6A6dqVLXtc2vTSQlBCT3iO9TjDLWhnL87hd16oi8-ogkgseyhc3hqBKMRFYvoUUKoJScTAsYf4EPMqzZzZ3sVh3BCbIrZBK5piM7FQs9L6nKIJeLOyuaDChyLxbNgyqKs_lgAjb_Vl69_Ws62ciWlKzeoN3xRJ3kbrBQfiQELrzTGuaE0LK9kg5e5R1jKP3Dp2plqty0]--></g></svg>