<?xml version="1.0" encoding="us-ascii" standalone="no"?><svg xmlns="http://www.w3.org/2000/svg" xmlns:xlink="http://www.w3.org/1999/xlink" contentStyleType="text/css" height="236px" preserveAspectRatio="none" style="width:659px;height:236px;background:#FFFFFF;" version="1.1" viewBox="0 0 659 236" width="659px" zoomAndPan="magnify"><defs/><g><rect fill="#FFFFFF" height="117.873" style="stroke:#181818;stroke-width:1.0;" width="10" x="177" y="71.9121"/><rect fill="none" height="63.582" style="stroke:#000000;stroke-width:1.5;" width="187.5" x="146.5" y="86.9121"/><line style="stroke:#181818;stroke-width:0.5;stroke-dasharray:5.0,5.0;" x1="181.5" x2="181.5" y1="38.6211" y2="198.7852"/><line style="stroke:#181818;stroke-width:0.5;stroke-dasharray:5.0,5.0;" x1="333.5" x2="333.5" y1="38.6211" y2="198.7852"/><line style="stroke:#181818;stroke-width:0.5;stroke-dasharray:5.0,5.0;" x1="447.5" x2="447.5" y1="38.6211" y2="198.7852"/><line style="stroke:#181818;stroke-width:0.5;stroke-dasharray:5.0,5.0;" x1="530.5" x2="530.5" y1="38.6211" y2="198.7852"/><line style="stroke:#181818;stroke-width:0.5;stroke-dasharray:5.0,5.0;" x1="606.5" x2="606.5" y1="38.6211" y2="198.7852"/><rect fill="#E3E3E3" height="32.6211" rx="2.5" ry="2.5" style="stroke:#181818;stroke-width:0.5;" width="51" x="156.5" y="5"/><text fill="#000000" font-family="sans-serif" font-size="14" lengthAdjust="spacing" textLength="37" x="163.5" y="27.1074">SkillUI</text><rect fill="#E3E3E3" height="32.6211" rx="2.5" ry="2.5" style="stroke:#181818;stroke-width:0.5;" width="51" x="156.5" y="197.7852"/><text fill="#000000" font-family="sans-serif" font-size="14" lengthAdjust="spacing" textLength="37" x="163.5" y="219.8926">SkillUI</text><rect fill="#E3E3E3" height="32.6211" rx="2.5" ry="2.5" style="stroke:#181818;stroke-width:0.5;" width="101" x="283.5" y="5"/><text fill="#000000" font-family="sans-serif" font-size="14" lengthAdjust="spacing" textLength="87" x="290.5" y="27.1074">SkillController</text><rect fill="#E3E3E3" height="32.6211" rx="2.5" ry="2.5" style="stroke:#181818;stroke-width:0.5;" width="101" x="283.5" y="197.7852"/><text fill="#000000" font-family="sans-serif" font-size="14" lengthAdjust="spacing" textLength="87" x="290.5" y="219.8926">SkillController</text><rect fill="#E3E3E3" height="32.6211" rx="2.5" ry="2.5" style="stroke:#181818;stroke-width:0.5;" width="107" x="394.5" y="5"/><text fill="#000000" font-family="sans-serif" font-size="14" lengthAdjust="spacing" textLength="93" x="401.5" y="27.1074">SkillRepository</text><rect fill="#E3E3E3" height="32.6211" rx="2.5" ry="2.5" style="stroke:#181818;stroke-width:0.5;" width="107" x="394.5" y="197.7852"/><text fill="#000000" font-family="sans-serif" font-size="14" lengthAdjust="spacing" textLength="93" x="401.5" y="219.8926">SkillRepository</text><rect fill="#E3E3E3" height="32.6211" rx="2.5" ry="2.5" style="stroke:#181818;stroke-width:0.5;" width="39" x="511.5" y="5"/><text fill="#000000" font-family="sans-serif" font-size="14" lengthAdjust="spacing" textLength="25" x="518.5" y="27.1074">Skill</text><rect fill="#E3E3E3" height="32.6211" rx="2.5" ry="2.5" style="stroke:#181818;stroke-width:0.5;" width="39" x="511.5" y="197.7852"/><text fill="#000000" font-family="sans-serif" font-size="14" lengthAdjust="spacing" textLength="25" x="518.5" y="219.8926">Skill</text><rect fill="#E3E3E3" height="32.6211" rx="2.5" ry="2.5" style="stroke:#181818;stroke-width:0.5;" width="93" x="560.5" y="5"/><text fill="#000000" font-family="sans-serif" font-size="14" lengthAdjust="spacing" textLength="79" x="567.5" y="27.1074">Repositories</text><rect fill="#E3E3E3" height="32.6211" rx="2.5" ry="2.5" style="stroke:#181818;stroke-width:0.5;" width="93" x="560.5" y="197.7852"/><text fill="#000000" font-family="sans-serif" font-size="14" lengthAdjust="spacing" textLength="79" x="567.5" y="219.8926">Repositories</text><rect fill="#FFFFFF" height="117.873" style="stroke:#181818;stroke-width:1.0;" width="10" x="177" y="71.9121"/><polygon fill="#181818" points="165,67.9121,175,71.9121,165,75.9121,169,71.9121" style="stroke:#181818;stroke-width:1.0;"/><line style="stroke:#181818;stroke-width:1.0;" x1="0" x2="171" y1="71.9121" y2="71.9121"/><text fill="#000000" font-family="sans-serif" font-size="13" lengthAdjust="spacing" textLength="122" x="7" y="66.6494">types requested data</text><path d="M146.5,86.9121 L295.5,86.9121 L295.5,96.2031 L285.5,106.2031 L146.5,106.2031 L146.5,86.9121 " fill="#EEEEEE" style="stroke:#000000;stroke-width:1.5;"/><rect fill="none" height="63.582" style="stroke:#000000;stroke-width:1.5;" width="187.5" x="146.5" y="86.9121"/><text fill="#000000" font-family="sans-serif" font-size="13" font-weight="bold" lengthAdjust="spacing" textLength="104" x="161.5" y="101.9404">Skill registration</text><line style="stroke:#181818;stroke-width:1.0;stroke-dasharray:2.0,2.0;" x1="187" x2="229" y1="129.4941" y2="129.4941"/><line style="stroke:#181818;stroke-width:1.0;stroke-dasharray:2.0,2.0;" x1="229" x2="229" y1="129.4941" y2="142.4941"/><line style="stroke:#181818;stroke-width:1.0;stroke-dasharray:2.0,2.0;" x1="188" x2="229" y1="142.4941" y2="142.4941"/><polygon fill="#181818" points="198,138.4941,188,142.4941,198,146.4941,194,142.4941" style="stroke:#181818;stroke-width:1.0;"/><text fill="#000000" font-family="sans-serif" font-size="13" lengthAdjust="spacing" textLength="128" x="194" y="124.2314">validateSkill(Skill skill)</text><polygon fill="#181818" points="11,176.7852,1,180.7852,11,184.7852,7,180.7852" style="stroke:#181818;stroke-width:1.0;"/><line style="stroke:#181818;stroke-width:1.0;stroke-dasharray:2.0,2.0;" x1="5" x2="176" y1="180.7852" y2="180.7852"/><text fill="#000000" font-family="sans-serif" font-size="13" lengthAdjust="spacing" textLength="158" x="17" y="175.5225">displays operation success</text><!--SRC=[PP1BRiCm34JtFWLtRHU-G50KAB8Aa4MHpm5OYR49ow8Yqcbz-yfEO3JmR0Hmtb0ZQSSnOSOUUedYsYmzWUM1AbsSXAx3Xeus1e9CpZ0suJ-WBNhvuTZ01ODILVJIiYUuYDYt_5O5CtQSC1eSEmxXl0DKEE_MpbQYPGc1yaHiJuVzcZbG4cMJF4wCFe_M-08zMKk2IIVYQ_zvAiNhZr9h0pQcCivq7KYDF7WqhD0Ptz1eAbv1KPDbI8zBCZMibj5OucnEAk-i7njl6BXiePb-lMVcLcypJT7FvtjTJwaDUDOKS5IGHFUje8Dpf5fvMfhC7_G7]--></g></svg>