<?xml version="1.0" encoding="us-ascii" standalone="no"?><svg xmlns="http://www.w3.org/2000/svg" xmlns:xlink="http://www.w3.org/1999/xlink" contentStyleType="text/css" height="1056px" preserveAspectRatio="none" style="width:1731px;height:1056px;background:#FFFFFF;" version="1.1" viewBox="0 0 1731 1056" width="1731px" zoomAndPan="magnify"><defs/><g><rect fill="#FFFFFF" height="833.6055" style="stroke:#181818;stroke-width:1.0;" width="10" x="86" y="112.2422"/><rect fill="#FFFFFF" height="31.291" style="stroke:#181818;stroke-width:1.0;" width="10" x="515" y="135.5332"/><rect fill="#FFFFFF" height="31.291" style="stroke:#181818;stroke-width:1.0;" width="10" x="515" y="198.1152"/><rect fill="#FFFFFF" height="226.3672" style="stroke:#181818;stroke-width:1.0;" width="10" x="515" y="260.6973"/><rect fill="#FFFFFF" height="156.4551" style="stroke:#181818;stroke-width:1.0;" width="10" x="515" y="544.6465"/><rect fill="#FFFFFF" height="31.291" style="stroke:#181818;stroke-width:1.0;" width="10" x="515" y="765.6836"/><rect fill="#FFFFFF" height="77.291" style="stroke:#181818;stroke-width:1.0;" width="10" x="515" y="868.5566"/><rect fill="#FFFFFF" height="120.1641" style="stroke:#181818;stroke-width:1.0;" width="10" x="904" y="335.6094"/><rect fill="#FFFFFF" height="93.873" style="stroke:#181818;stroke-width:1.0;" width="10" x="904" y="575.9375"/><rect fill="#FFFFFF" height="30" style="stroke:#181818;stroke-width:1.0;" width="10" x="904" y="868.5566"/><rect fill="#FFFFFF" height="31.291" style="stroke:#181818;stroke-width:1.0;" width="10" x="1436" y="366.9004"/><rect fill="#FFFFFF" height="31.291" style="stroke:#181818;stroke-width:1.0;" width="10" x="1613.5" y="607.2285"/><rect fill="none" height="398.7832" style="stroke:#000000;stroke-width:1.5;" width="1715.5" x="10" y="413.1914"/><rect fill="none" height="207.0371" style="stroke:#000000;stroke-width:1.5;" width="1695.5" x="20" y="502.0645"/><rect fill="none" height="81.873" style="stroke:#000000;stroke-width:1.5;" width="601" x="20" y="723.1016"/><rect fill="none" height="111.873" style="stroke:#000000;stroke-width:1.5;" width="985" x="20" y="825.9746"/><line style="stroke:#181818;stroke-width:0.5;stroke-dasharray:5.0,5.0;" x1="91" x2="91" y1="102.2422" y2="954.8477"/><line style="stroke:#181818;stroke-width:0.5;stroke-dasharray:5.0,5.0;" x1="520" x2="520" y1="102.2422" y2="954.8477"/><line style="stroke:#181818;stroke-width:0.5;stroke-dasharray:5.0,5.0;" x1="909" x2="909" y1="300.5078" y2="954.8477"/><line style="stroke:#181818;stroke-width:0.5;stroke-dasharray:5.0,5.0;" x1="1440.5" x2="1440.5" y1="102.2422" y2="954.8477"/><line style="stroke:#181818;stroke-width:0.5;stroke-dasharray:5.0,5.0;" x1="1618.5" x2="1618.5" y1="102.2422" y2="954.8477"/><text fill="#000000" font-family="sans-serif" font-size="14" lengthAdjust="spacing" textLength="116" x="30" y="80.1074">Human Resources</text><text fill="#000000" font-family="sans-serif" font-size="14" lengthAdjust="spacing" textLength="56" x="60" y="98.7285">Manager</text><ellipse cx="91" cy="13.5" fill="#E3E3E3" rx="8" ry="8" style="stroke:#181818;stroke-width:0.5;"/><path d="M91,21.5 L91,48.5 M78,29.5 L104,29.5 M91,48.5 L78,63.5 M91,48.5 L104,63.5 " fill="none" style="stroke:#181818;stroke-width:0.5;"/><text fill="#000000" font-family="sans-serif" font-size="14" lengthAdjust="spacing" textLength="116" x="30" y="968.9551">Human Resources</text><text fill="#000000" font-family="sans-serif" font-size="14" lengthAdjust="spacing" textLength="56" x="60" y="987.5762">Manager</text><ellipse cx="91" cy="999.5898" fill="#E3E3E3" rx="8" ry="8" style="stroke:#181818;stroke-width:0.5;"/><path d="M91,1007.5898 L91,1034.5898 M78,1015.5898 L104,1015.5898 M91,1034.5898 L78,1049.5898 M91,1034.5898 L104,1049.5898 " fill="none" style="stroke:#181818;stroke-width:0.5;"/><rect fill="#E3E3E3" height="32.6211" rx="2.5" ry="2.5" style="stroke:#181818;stroke-width:0.5;" width="182" x="429" y="68.6211"/><text fill="#000000" font-family="sans-serif" font-size="14" lengthAdjust="spacing" textLength="168" x="436" y="90.7285">:GenerateTeamProposalUI</text><rect fill="#E3E3E3" height="32.6211" rx="2.5" ry="2.5" style="stroke:#181818;stroke-width:0.5;" width="182" x="429" y="953.8477"/><text fill="#000000" font-family="sans-serif" font-size="14" lengthAdjust="spacing" textLength="168" x="436" y="975.9551">:GenerateTeamProposalUI</text><rect fill="#E3E3E3" height="32.6211" rx="2.5" ry="2.5" style="stroke:#181818;stroke-width:0.5;" width="172" x="823" y="953.8477"/><text fill="#000000" font-family="sans-serif" font-size="14" lengthAdjust="spacing" textLength="158" x="830" y="975.9551">:TeamProposalController</text><rect fill="#E3E3E3" height="51.2422" rx="2.5" ry="2.5" style="stroke:#181818;stroke-width:0.5;" width="161" x="1360.5" y="50"/><text fill="#000000" font-family="sans-serif" font-size="14" lengthAdjust="spacing" textLength="147" x="1367.5" y="72.1074">collaboratorRepository:</text><text fill="#000000" font-family="sans-serif" font-size="14" lengthAdjust="spacing" textLength="146" x="1368" y="90.7285">CollaboratorRepository</text><rect fill="#E3E3E3" height="51.2422" rx="2.5" ry="2.5" style="stroke:#181818;stroke-width:0.5;" width="161" x="1360.5" y="953.8477"/><text fill="#000000" font-family="sans-serif" font-size="14" lengthAdjust="spacing" textLength="147" x="1367.5" y="975.9551">collaboratorRepository:</text><text fill="#000000" font-family="sans-serif" font-size="14" lengthAdjust="spacing" textLength="146" x="1368" y="994.5762">CollaboratorRepository</text><rect fill="#E3E3E3" height="51.2422" rx="2.5" ry="2.5" style="stroke:#181818;stroke-width:0.5;" width="174" x="1531.5" y="50"/><text fill="#000000" font-family="sans-serif" font-size="14" lengthAdjust="spacing" textLength="159" x="1539" y="72.1074">teamProposalRepository:</text><text fill="#000000" font-family="sans-serif" font-size="14" lengthAdjust="spacing" textLength="160" x="1538.5" y="90.7285">TeamProposalRepository</text><rect fill="#E3E3E3" height="51.2422" rx="2.5" ry="2.5" style="stroke:#181818;stroke-width:0.5;" width="174" x="1531.5" y="953.8477"/><text fill="#000000" font-family="sans-serif" font-size="14" lengthAdjust="spacing" textLength="159" x="1539" y="975.9551">teamProposalRepository:</text><text fill="#000000" font-family="sans-serif" font-size="14" lengthAdjust="spacing" textLength="160" x="1538.5" y="994.5762">TeamProposalRepository</text><rect fill="#FFFFFF" height="833.6055" style="stroke:#181818;stroke-width:1.0;" width="10" x="86" y="112.2422"/><rect fill="#FFFFFF" height="31.291" style="stroke:#181818;stroke-width:1.0;" width="10" x="515" y="135.5332"/><rect fill="#FFFFFF" height="31.291" style="stroke:#181818;stroke-width:1.0;" width="10" x="515" y="198.1152"/><rect fill="#FFFFFF" height="226.3672" style="stroke:#181818;stroke-width:1.0;" width="10" x="515" y="260.6973"/><rect fill="#FFFFFF" height="156.4551" style="stroke:#181818;stroke-width:1.0;" width="10" x="515" y="544.6465"/><rect fill="#FFFFFF" height="31.291" style="stroke:#181818;stroke-width:1.0;" width="10" x="515" y="765.6836"/><rect fill="#FFFFFF" height="77.291" style="stroke:#181818;stroke-width:1.0;" width="10" x="515" y="868.5566"/><rect fill="#FFFFFF" height="120.1641" style="stroke:#181818;stroke-width:1.0;" width="10" x="904" y="335.6094"/><rect fill="#FFFFFF" height="93.873" style="stroke:#181818;stroke-width:1.0;" width="10" x="904" y="575.9375"/><rect fill="#FFFFFF" height="30" style="stroke:#181818;stroke-width:1.0;" width="10" x="904" y="868.5566"/><rect fill="#FFFFFF" height="31.291" style="stroke:#181818;stroke-width:1.0;" width="10" x="1436" y="366.9004"/><rect fill="#FFFFFF" height="31.291" style="stroke:#181818;stroke-width:1.0;" width="10" x="1613.5" y="607.2285"/><polygon fill="#181818" points="503,131.5332,513,135.5332,503,139.5332,507,135.5332" style="stroke:#181818;stroke-width:1.0;"/><line style="stroke:#181818;stroke-width:1.0;" x1="96" x2="509" y1="135.5332" y2="135.5332"/><text fill="#000000" font-family="sans-serif" font-size="13" font-weight="bold" lengthAdjust="spacing" textLength="7" x="103" y="130.2705">1</text><text fill="#000000" font-family="sans-serif" font-size="13" lengthAdjust="spacing" textLength="207" x="114" y="130.2705">asks to create a new team proposal</text><polygon fill="#181818" points="107,162.8242,97,166.8242,107,170.8242,103,166.8242" style="stroke:#181818;stroke-width:1.0;"/><line style="stroke:#181818;stroke-width:1.0;stroke-dasharray:2.0,2.0;" x1="101" x2="519" y1="166.8242" y2="166.8242"/><text fill="#000000" font-family="sans-serif" font-size="13" font-weight="bold" lengthAdjust="spacing" textLength="7" x="113" y="161.5615">2</text><text fill="#000000" font-family="sans-serif" font-size="13" lengthAdjust="spacing" textLength="384" x="124" y="161.5615">requests number of team members (MaxTeamSize, MinTeamSize)</text><polygon fill="#181818" points="503,194.1152,513,198.1152,503,202.1152,507,198.1152" style="stroke:#181818;stroke-width:1.0;"/><line style="stroke:#181818;stroke-width:1.0;" x1="96" x2="509" y1="198.1152" y2="198.1152"/><text fill="#000000" font-family="sans-serif" font-size="13" font-weight="bold" lengthAdjust="spacing" textLength="7" x="103" y="192.8525">3</text><text fill="#000000" font-family="sans-serif" font-size="13" lengthAdjust="spacing" textLength="203" x="114" y="192.8525">specifies number of team members</text><polygon fill="#181818" points="107,225.4063,97,229.4063,107,233.4063,103,229.4063" style="stroke:#181818;stroke-width:1.0;"/><line style="stroke:#181818;stroke-width:1.0;" x1="101" x2="519" y1="229.4063" y2="229.4063"/><text fill="#000000" font-family="sans-serif" font-size="13" font-weight="bold" lengthAdjust="spacing" textLength="7" x="113" y="224.1436">4</text><text fill="#000000" font-family="sans-serif" font-size="13" lengthAdjust="spacing" textLength="130" x="124" y="224.1436">requests skills needed</text><polygon fill="#181818" points="503,256.6973,513,260.6973,503,264.6973,507,260.6973" style="stroke:#181818;stroke-width:1.0;"/><line style="stroke:#181818;stroke-width:1.0;" x1="96" x2="509" y1="260.6973" y2="260.6973"/><text fill="#000000" font-family="sans-serif" font-size="13" font-weight="bold" lengthAdjust="spacing" textLength="7" x="103" y="255.4346">5</text><text fill="#000000" font-family="sans-serif" font-size="13" lengthAdjust="spacing" textLength="131" x="114" y="255.4346">specifies skills needed</text><polygon fill="#181818" points="811,287.9883,821,291.9883,811,295.9883,815,291.9883" style="stroke:#181818;stroke-width:1.0;"/><line style="stroke:#181818;stroke-width:1.0;" x1="525" x2="817" y1="291.9883" y2="291.9883"/><text fill="#000000" font-family="sans-serif" font-size="13" font-weight="bold" lengthAdjust="spacing" textLength="7" x="532" y="286.7256">6</text><text fill="#000000" font-family="sans-serif" font-size="13" lengthAdjust="spacing" textLength="36" x="543" y="286.7256">create</text><rect fill="#E3E3E3" height="32.6211" rx="2.5" ry="2.5" style="stroke:#181818;stroke-width:0.5;" width="172" x="823" y="268.6973"/><text fill="#000000" font-family="sans-serif" font-size="14" lengthAdjust="spacing" textLength="158" x="830" y="290.8047">:TeamProposalController</text><polygon fill="#181818" points="892,331.6094,902,335.6094,892,339.6094,896,335.6094" style="stroke:#181818;stroke-width:1.0;"/><line style="stroke:#181818;stroke-width:1.0;" x1="525" x2="898" y1="335.6094" y2="335.6094"/><text fill="#000000" font-family="sans-serif" font-size="13" font-weight="bold" lengthAdjust="spacing" textLength="7" x="532" y="330.3467">7</text><text fill="#000000" font-family="sans-serif" font-size="13" lengthAdjust="spacing" textLength="349" x="543" y="330.3467">generateTeamProposal(minTeamSize, maxTeamSize, skills)</text><polygon fill="#181818" points="1424,362.9004,1434,366.9004,1424,370.9004,1428,366.9004" style="stroke:#181818;stroke-width:1.0;"/><line style="stroke:#181818;stroke-width:1.0;" x1="914" x2="1430" y1="366.9004" y2="366.9004"/><text fill="#000000" font-family="sans-serif" font-size="13" font-weight="bold" lengthAdjust="spacing" textLength="7" x="921" y="361.6377">8</text><text fill="#000000" font-family="sans-serif" font-size="13" lengthAdjust="spacing" textLength="492" x="932" y="361.6377">filterCollaboratorsBySkills(List&lt;Collaborator&gt; collaborators, List&lt;Skill&gt; requiredSkills)</text><polygon fill="#181818" points="925,394.1914,915,398.1914,925,402.1914,921,398.1914" style="stroke:#181818;stroke-width:1.0;"/><line style="stroke:#181818;stroke-width:1.0;stroke-dasharray:2.0,2.0;" x1="919" x2="1440" y1="398.1914" y2="398.1914"/><text fill="#000000" font-family="sans-serif" font-size="13" font-weight="bold" lengthAdjust="spacing" textLength="7" x="931" y="392.9287">9</text><text fill="#000000" font-family="sans-serif" font-size="13" lengthAdjust="spacing" textLength="88" x="942" y="392.9287">collaboratorList</text><path d="M10,413.1914 L71,413.1914 L71,422.4824 L61,432.4824 L10,432.4824 L10,413.1914 " fill="#EEEEEE" style="stroke:#000000;stroke-width:1.5;"/><rect fill="none" height="398.7832" style="stroke:#000000;stroke-width:1.5;" width="1715.5" x="10" y="413.1914"/><text fill="#000000" font-family="sans-serif" font-size="13" font-weight="bold" lengthAdjust="spacing" textLength="16" x="25" y="428.2197">alt</text><text fill="#000000" font-family="sans-serif" font-size="11" font-weight="bold" lengthAdjust="spacing" textLength="132" x="86" y="427.0615">[Successful generation]</text><polygon fill="#181818" points="536,451.7734,526,455.7734,536,459.7734,532,455.7734" style="stroke:#181818;stroke-width:1.0;"/><line style="stroke:#181818;stroke-width:1.0;stroke-dasharray:2.0,2.0;" x1="530" x2="908" y1="455.7734" y2="455.7734"/><text fill="#000000" font-family="sans-serif" font-size="13" font-weight="bold" lengthAdjust="spacing" textLength="14" x="542" y="450.5107">10</text><text fill="#000000" font-family="sans-serif" font-size="13" lengthAdjust="spacing" textLength="143" x="560" y="450.5107">generated team proposal</text><polygon fill="#181818" points="107,483.0645,97,487.0645,107,491.0645,103,487.0645" style="stroke:#181818;stroke-width:1.0;"/><line style="stroke:#181818;stroke-width:1.0;stroke-dasharray:2.0,2.0;" x1="101" x2="519" y1="487.0645" y2="487.0645"/><text fill="#000000" font-family="sans-serif" font-size="13" font-weight="bold" lengthAdjust="spacing" textLength="14" x="113" y="481.8018">11</text><text fill="#000000" font-family="sans-serif" font-size="13" lengthAdjust="spacing" textLength="359" x="131" y="481.8018">shows the generated team proposal and requests confirmation</text><path d="M20,502.0645 L81,502.0645 L81,511.3555 L71,521.3555 L20,521.3555 L20,502.0645 " fill="#EEEEEE" style="stroke:#000000;stroke-width:1.5;"/><rect fill="none" height="207.0371" style="stroke:#000000;stroke-width:1.5;" width="1695.5" x="20" y="502.0645"/><text fill="#000000" font-family="sans-serif" font-size="13" font-weight="bold" lengthAdjust="spacing" textLength="16" x="35" y="517.0928">alt</text><text fill="#000000" font-family="sans-serif" font-size="11" font-weight="bold" lengthAdjust="spacing" textLength="152" x="96" y="515.9346">[Team generated accepted]</text><polygon fill="#181818" points="503,540.6465,513,544.6465,503,548.6465,507,544.6465" style="stroke:#181818;stroke-width:1.0;"/><line style="stroke:#181818;stroke-width:1.0;" x1="96" x2="509" y1="544.6465" y2="544.6465"/><text fill="#000000" font-family="sans-serif" font-size="13" font-weight="bold" lengthAdjust="spacing" textLength="14" x="103" y="539.3838">12</text><text fill="#000000" font-family="sans-serif" font-size="13" lengthAdjust="spacing" textLength="78" x="121" y="539.3838">confirms data</text><polygon fill="#181818" points="892,571.9375,902,575.9375,892,579.9375,896,575.9375" style="stroke:#181818;stroke-width:1.0;"/><line style="stroke:#181818;stroke-width:1.0;" x1="525" x2="898" y1="575.9375" y2="575.9375"/><text fill="#000000" font-family="sans-serif" font-size="13" font-weight="bold" lengthAdjust="spacing" textLength="14" x="532" y="570.6748">13</text><text fill="#000000" font-family="sans-serif" font-size="13" lengthAdjust="spacing" textLength="133" x="550" y="570.6748">confirmTeamProposal()</text><polygon fill="#181818" points="1601.5,603.2285,1611.5,607.2285,1601.5,611.2285,1605.5,607.2285" style="stroke:#181818;stroke-width:1.0;"/><line style="stroke:#181818;stroke-width:1.0;" x1="914" x2="1607.5" y1="607.2285" y2="607.2285"/><text fill="#000000" font-family="sans-serif" font-size="13" font-weight="bold" lengthAdjust="spacing" textLength="14" x="921" y="601.9658">14</text><text fill="#000000" font-family="sans-serif" font-size="13" lengthAdjust="spacing" textLength="148" x="939" y="601.9658">addTeams(teamProposal)</text><polygon fill="#181818" points="925,634.5195,915,638.5195,925,642.5195,921,638.5195" style="stroke:#181818;stroke-width:1.0;"/><line style="stroke:#181818;stroke-width:1.0;stroke-dasharray:2.0,2.0;" x1="919" x2="1617.5" y1="638.5195" y2="638.5195"/><text fill="#000000" font-family="sans-serif" font-size="13" font-weight="bold" lengthAdjust="spacing" textLength="14" x="931" y="633.2568">15</text><text fill="#000000" font-family="sans-serif" font-size="13" lengthAdjust="spacing" textLength="49" x="949" y="633.2568">success</text><polygon fill="#181818" points="536,665.8105,526,669.8105,536,673.8105,532,669.8105" style="stroke:#181818;stroke-width:1.0;"/><line style="stroke:#181818;stroke-width:1.0;stroke-dasharray:2.0,2.0;" x1="530" x2="908" y1="669.8105" y2="669.8105"/><text fill="#000000" font-family="sans-serif" font-size="13" font-weight="bold" lengthAdjust="spacing" textLength="14" x="542" y="664.5479">16</text><text fill="#000000" font-family="sans-serif" font-size="13" lengthAdjust="spacing" textLength="49" x="560" y="664.5479">success</text><polygon fill="#181818" points="107,697.1016,97,701.1016,107,705.1016,103,701.1016" style="stroke:#181818;stroke-width:1.0;"/><line style="stroke:#181818;stroke-width:1.0;stroke-dasharray:2.0,2.0;" x1="101" x2="519" y1="701.1016" y2="701.1016"/><text fill="#000000" font-family="sans-serif" font-size="13" font-weight="bold" lengthAdjust="spacing" textLength="14" x="113" y="695.8389">17</text><text fill="#000000" font-family="sans-serif" font-size="13" lengthAdjust="spacing" textLength="158" x="131" y="695.8389">displays operation success</text><path d="M20,723.1016 L81,723.1016 L81,732.3926 L71,742.3926 L20,742.3926 L20,723.1016 " fill="#EEEEEE" style="stroke:#000000;stroke-width:1.5;"/><rect fill="none" height="81.873" style="stroke:#000000;stroke-width:1.5;" width="601" x="20" y="723.1016"/><text fill="#000000" font-family="sans-serif" font-size="13" font-weight="bold" lengthAdjust="spacing" textLength="16" x="35" y="738.1299">alt</text><text fill="#000000" font-family="sans-serif" font-size="11" font-weight="bold" lengthAdjust="spacing" textLength="148" x="96" y="736.9717">[Team generated rejected]</text><polygon fill="#181818" points="503,761.6836,513,765.6836,503,769.6836,507,765.6836" style="stroke:#181818;stroke-width:1.0;"/><line style="stroke:#181818;stroke-width:1.0;" x1="96" x2="509" y1="765.6836" y2="765.6836"/><text fill="#000000" font-family="sans-serif" font-size="13" font-weight="bold" lengthAdjust="spacing" textLength="14" x="103" y="760.4209">18</text><text fill="#000000" font-family="sans-serif" font-size="13" lengthAdjust="spacing" textLength="68" x="121" y="760.4209">rejects data</text><polygon fill="#181818" points="107,792.9746,97,796.9746,107,800.9746,103,796.9746" style="stroke:#181818;stroke-width:1.0;"/><line style="stroke:#181818;stroke-width:1.0;stroke-dasharray:2.0,2.0;" x1="101" x2="519" y1="796.9746" y2="796.9746"/><text fill="#000000" font-family="sans-serif" font-size="13" font-weight="bold" lengthAdjust="spacing" textLength="14" x="113" y="791.7119">19</text><text fill="#000000" font-family="sans-serif" font-size="13" lengthAdjust="spacing" textLength="155" x="131" y="791.7119">displays operation rejected</text><path d="M20,825.9746 L81,825.9746 L81,835.2656 L71,845.2656 L20,845.2656 L20,825.9746 " fill="#EEEEEE" style="stroke:#000000;stroke-width:1.5;"/><rect fill="none" height="111.873" style="stroke:#000000;stroke-width:1.5;" width="985" x="20" y="825.9746"/><text fill="#000000" font-family="sans-serif" font-size="13" font-weight="bold" lengthAdjust="spacing" textLength="16" x="35" y="841.0029">alt</text><text fill="#000000" font-family="sans-serif" font-size="11" font-weight="bold" lengthAdjust="spacing" textLength="121" x="96" y="839.8447">[Failure in generation]</text><polygon fill="#181818" points="536,864.5566,526,868.5566,536,872.5566,532,868.5566" style="stroke:#181818;stroke-width:1.0;"/><line style="stroke:#181818;stroke-width:1.0;stroke-dasharray:2.0,2.0;" x1="530" x2="903" y1="868.5566" y2="868.5566"/><text fill="#000000" font-family="sans-serif" font-size="13" font-weight="bold" lengthAdjust="spacing" textLength="14" x="542" y="863.2939">20</text><text fill="#000000" font-family="sans-serif" font-size="13" lengthAdjust="spacing" textLength="186" x="560" y="863.2939">Couldn't generate team proposal</text><polygon fill="#181818" points="107,925.8477,97,929.8477,107,933.8477,103,929.8477" style="stroke:#181818;stroke-width:1.0;"/><line style="stroke:#181818;stroke-width:1.0;stroke-dasharray:2.0,2.0;" x1="101" x2="514" y1="929.8477" y2="929.8477"/><text fill="#000000" font-family="sans-serif" font-size="13" font-weight="bold" lengthAdjust="spacing" textLength="14" x="113" y="924.585">21</text><text fill="#000000" font-family="sans-serif" font-size="13" lengthAdjust="spacing" textLength="135" x="131" y="924.585">displays error message</text><!--SRC=[ZLN1Zjem4BtdAqPSogwM7q0LXo9rTwL5ge2zxMKs7i35iLFRwPP-VSSE46TnA1nGafbvy-RDS-BsKjTeiOBAQ5FkhAa8l6seSET8ZUKUjxJo1qLWgVIejofDS3iKvaFgBMnGEIeARBpHJVLEbgzBRooCdfeADIp9cSQMvDxq0ZM3sX6WWwVbec0eBqjPe_OmcZwI9ekUreJL3sjgur2zFiVar-TFkMdEt6XlZL97uFbw-TBFBZc8xuQnZLqIrqY-E4pVz3mRQ56oeJwkJqZqSDVPGCJDXw9ayZSF7tKf-0ycCnuRfboqT-0Db9P2747J1uJMK1znkcBMgU2Y2TS6Y2clxbT3pZjeLmDcqvPM56uTZ1Vu9r1QoR_q00kfJpTtHI4enJrJceAhgPGRIKEebtmkwB2HbE9w8a7YbaxzWao3iFRxU-xHwbIap_dfDcEkSTND-m1LgaJRxgvh55qLiG9crXpSPIEL9vk6tRV3AcADNwJpNzFG359ZkWU86J5x5fMIbiJgI2HXadTcCK1gqccGjWkzKjs7K55vM3Kb7r-tQTH9Hcbq0Vnh1JavzQIn-6JFa9cs2bB6XpshkftvOAFlQ0W7K8lEGQNH6schZalVHF5H81zscY0YZrBpHOo7NthKZfWE17eyPrp0dgWdmiQwdhVkBkkxmJljPWDl13xtGeIG6wUlcGpgq1lbb9YFfxvmxNxF5OcI_mDF370Lfpzwj_Sf2EbgXGS7fZuwwneEho0y8Iq6Dspf9t-l1ZRS1gyj-5QI5sqo_Wiq8zL0ypjArLW2gTDJb3b6SzCeeR_uyqoPuzGNzlCGjnsuyr1aBN-kAvQSlywHy3y0]--></g></svg>