<?xml version="1.0" encoding="us-ascii" standalone="no"?><svg xmlns="http://www.w3.org/2000/svg" xmlns:xlink="http://www.w3.org/1999/xlink" contentStyleType="text/css" height="632px" preserveAspectRatio="none" style="width:1694px;height:632px;background:#FFFFFF;" version="1.1" viewBox="0 0 1694 632" width="1694px" zoomAndPan="magnify"><defs/><g><!--class VehicleNeedingCheckUpUI--><g id="elem_VehicleNeedingCheckUpUI"><rect codeLine="11" fill="#F1F1F1" height="48" id="VehicleNeedingCheckUpUI" rx="2.5" ry="2.5" style="stroke:#181818;stroke-width:0.5;" width="199" x="377.5" y="53.5"/><ellipse cx="392.5" cy="69.5" fill="#ADD1B2" rx="11" ry="11" style="stroke:#181818;stroke-width:1.0;"/><path d="M395.2656,65.375 Q395.4219,65.1563 395.6094,65.0469 Q395.7969,64.9375 396.0156,64.9375 Q396.3906,64.9375 396.625,65.2031 Q396.8594,65.4531 396.8594,66.0625 L396.8594,67.5156 Q396.8594,68.125 396.625,68.3906 Q396.3906,68.6563 396.0156,68.6563 Q395.6719,68.6563 395.4688,68.4531 Q395.2656,68.2656 395.1563,67.75 Q395.1094,67.3906 394.9219,67.2031 Q394.5938,66.8281 393.9844,66.6094 Q393.375,66.3906 392.75,66.3906 Q391.9844,66.3906 391.3438,66.7188 Q390.7188,67.0469 390.2188,67.7969 Q389.7344,68.5469 389.7344,69.5781 L389.7344,70.6719 Q389.7344,71.9063 390.625,72.7344 Q391.5156,73.5469 393.1094,73.5469 Q394.0469,73.5469 394.7031,73.2969 Q395.0938,73.1406 395.5156,72.7031 Q395.7813,72.4375 395.9219,72.3594 Q396.0781,72.2813 396.2813,72.2813 Q396.6094,72.2813 396.8594,72.5469 Q397.125,72.7969 397.125,73.1406 Q397.125,73.4844 396.7813,73.8906 Q396.2813,74.4688 395.4844,74.7969 Q394.4063,75.25 393.1094,75.25 Q391.5938,75.25 390.3906,74.625 Q389.4063,74.125 388.7188,73.0625 Q388.0313,71.9844 388.0313,70.7031 L388.0313,69.5469 Q388.0313,68.2188 388.6406,67.0781 Q389.2656,65.9219 390.3594,65.3125 Q391.4531,64.6875 392.6875,64.6875 Q393.4219,64.6875 394.0625,64.8594 Q394.7188,65.0156 395.2656,65.375 Z " fill="#000000"/><text fill="#000000" font-family="sans-serif" font-size="14" lengthAdjust="spacing" textLength="167" x="406.5" y="75.2969">VehicleNeedingCheckUpUI</text><line style="stroke:#181818;stroke-width:0.5;" x1="378.5" x2="575.5" y1="85.5" y2="85.5"/><line style="stroke:#181818;stroke-width:0.5;" x1="378.5" x2="575.5" y1="93.5" y2="93.5"/></g><g id="elem_GMN3"><path d="M6,64 L6,91.291 L342,91.291 L342,74 L332,64 L6,64 " fill="#FEFFDD" style="stroke:#181818;stroke-width:0.5;"/><path d="M332,64 L332,74 L342,74 L332,64 " fill="#FEFFDD" style="stroke:#181818;stroke-width:1.0;"/><text fill="#000000" font-family="sans-serif" font-size="13" lengthAdjust="spacing" textLength="315" x="12" y="83.0283">- Responsible for displaying vehicles needing check-up</text></g><!--class VehicleNeedingCheckUpController--><g id="elem_VehicleNeedingCheckUpController"><rect codeLine="19" fill="#F1F1F1" height="141.1055" id="VehicleNeedingCheckUpController" rx="2.5" ry="2.5" style="stroke:#181818;stroke-width:0.5;" width="484" x="612" y="7"/><ellipse cx="741.25" cy="23" fill="#ADD1B2" rx="11" ry="11" style="stroke:#181818;stroke-width:1.0;"/><path d="M744.0156,18.875 Q744.1719,18.6563 744.3594,18.5469 Q744.5469,18.4375 744.7656,18.4375 Q745.1406,18.4375 745.375,18.7031 Q745.6094,18.9531 745.6094,19.5625 L745.6094,21.0156 Q745.6094,21.625 745.375,21.8906 Q745.1406,22.1563 744.7656,22.1563 Q744.4219,22.1563 744.2188,21.9531 Q744.0156,21.7656 743.9063,21.25 Q743.8594,20.8906 743.6719,20.7031 Q743.3438,20.3281 742.7344,20.1094 Q742.125,19.8906 741.5,19.8906 Q740.7344,19.8906 740.0938,20.2188 Q739.4688,20.5469 738.9688,21.2969 Q738.4844,22.0469 738.4844,23.0781 L738.4844,24.1719 Q738.4844,25.4063 739.375,26.2344 Q740.2656,27.0469 741.8594,27.0469 Q742.7969,27.0469 743.4531,26.7969 Q743.8438,26.6406 744.2656,26.2031 Q744.5313,25.9375 744.6719,25.8594 Q744.8281,25.7813 745.0313,25.7813 Q745.3594,25.7813 745.6094,26.0469 Q745.875,26.2969 745.875,26.6406 Q745.875,26.9844 745.5313,27.3906 Q745.0313,27.9688 744.2344,28.2969 Q743.1563,28.75 741.8594,28.75 Q740.3438,28.75 739.1406,28.125 Q738.1563,27.625 737.4688,26.5625 Q736.7813,25.4844 736.7813,24.2031 L736.7813,23.0469 Q736.7813,21.7188 737.3906,20.5781 Q738.0156,19.4219 739.1094,18.8125 Q740.2031,18.1875 741.4375,18.1875 Q742.1719,18.1875 742.8125,18.3594 Q743.4688,18.5156 744.0156,18.875 Z " fill="#000000"/><text fill="#000000" font-family="sans-serif" font-size="14" lengthAdjust="spacing" textLength="217" x="761.75" y="28.7969">VehicleNeedingCheckUpController</text><line style="stroke:#181818;stroke-width:0.5;" x1="613" x2="1095" y1="39" y2="39"/><text fill="#000000" font-family="sans-serif" font-size="14" lengthAdjust="spacing" textLength="239" x="618" y="58.1074">-vehicleRepository: VehicleRepository</text><line style="stroke:#181818;stroke-width:0.5;" x1="613" x2="1095" y1="65.6211" y2="65.6211"/><text fill="#000000" font-family="sans-serif" font-size="14" lengthAdjust="spacing" textLength="468" x="618" y="84.7285">+VehicleNeedingCheckUpController(vehicleRepository: VehicleRepository,</text><text fill="#000000" font-family="sans-serif" font-size="14" lengthAdjust="spacing" textLength="328" x="618" y="103.3496">authenticationRepository: AuthenticationRepository)</text><text fill="#000000" font-family="sans-serif" font-size="14" lengthAdjust="spacing" textLength="274" x="618" y="121.9707">+getVehicleRepository(): VehicleRepository</text><text fill="#000000" font-family="sans-serif" font-size="14" lengthAdjust="spacing" textLength="292" x="618" y="140.5918">+getVehiclesNeedingCheckUp(): List&lt;Vehicle&gt;</text></g><g id="elem_GMN7"><path d="M1131,55 L1131,73.5 L1096.02,77.5 L1131,81.5 L1131,99.582 A0,0 0 0 0 1131,99.582 L1687,99.582 A0,0 0 0 0 1687,99.582 L1687,65 L1677,55 L1131,55 A0,0 0 0 0 1131,55 " fill="#FEFFDD" style="stroke:#181818;stroke-width:0.5;"/><path d="M1677,55 L1677,65 L1687,65 L1677,55 " fill="#FEFFDD" style="stroke:#181818;stroke-width:0.5;"/><text fill="#000000" font-family="sans-serif" font-size="13" lengthAdjust="spacing" textLength="323" x="1137" y="74.0283">- Handles requests related to vehicles needing check-up</text><text fill="#000000" font-family="sans-serif" font-size="13" lengthAdjust="spacing" textLength="535" x="1137" y="91.3193">- getVehiclesNeedingCheckUp(): List&lt;Vehicle&gt;: Retrieves a list of vehicles needing check-up</text></g><!--class Repositories--><g id="elem_Repositories"><rect codeLine="31" fill="#F1F1F1" height="103.8633" id="Repositories" rx="2.5" ry="2.5" style="stroke:#181818;stroke-width:0.5;" width="194" x="628" y="227"/><ellipse cx="681.25" cy="243" fill="#ADD1B2" rx="11" ry="11" style="stroke:#181818;stroke-width:1.0;"/><path d="M684.0156,238.875 Q684.1719,238.6563 684.3594,238.5469 Q684.5469,238.4375 684.7656,238.4375 Q685.1406,238.4375 685.375,238.7031 Q685.6094,238.9531 685.6094,239.5625 L685.6094,241.0156 Q685.6094,241.625 685.375,241.8906 Q685.1406,242.1563 684.7656,242.1563 Q684.4219,242.1563 684.2188,241.9531 Q684.0156,241.7656 683.9063,241.25 Q683.8594,240.8906 683.6719,240.7031 Q683.3438,240.3281 682.7344,240.1094 Q682.125,239.8906 681.5,239.8906 Q680.7344,239.8906 680.0938,240.2188 Q679.4688,240.5469 678.9688,241.2969 Q678.4844,242.0469 678.4844,243.0781 L678.4844,244.1719 Q678.4844,245.4063 679.375,246.2344 Q680.2656,247.0469 681.8594,247.0469 Q682.7969,247.0469 683.4531,246.7969 Q683.8438,246.6406 684.2656,246.2031 Q684.5313,245.9375 684.6719,245.8594 Q684.8281,245.7813 685.0313,245.7813 Q685.3594,245.7813 685.6094,246.0469 Q685.875,246.2969 685.875,246.6406 Q685.875,246.9844 685.5313,247.3906 Q685.0313,247.9688 684.2344,248.2969 Q683.1563,248.75 681.8594,248.75 Q680.3438,248.75 679.1406,248.125 Q678.1563,247.625 677.4688,246.5625 Q676.7813,245.4844 676.7813,244.2031 L676.7813,243.0469 Q676.7813,241.7188 677.3906,240.5781 Q678.0156,239.4219 679.1094,238.8125 Q680.2031,238.1875 681.4375,238.1875 Q682.1719,238.1875 682.8125,238.3594 Q683.4688,238.5156 684.0156,238.875 Z " fill="#000000"/><text fill="#000000" font-family="sans-serif" font-size="14" lengthAdjust="spacing" textLength="79" x="701.75" y="248.7969">Repositories</text><line style="stroke:#181818;stroke-width:0.5;" x1="629" x2="821" y1="259" y2="259"/><line style="stroke:#181818;stroke-width:0.5;" x1="629" x2="821" y1="267" y2="267"/><text fill="#000000" font-family="sans-serif" font-size="14" lengthAdjust="spacing" textLength="94" x="634" y="286.1074">-Repositories()</text><text fill="#000000" font-family="sans-serif" font-size="14" lengthAdjust="spacing" textLength="182" x="634" y="304.7285">+getInstance() : Repositories</text><text fill="#000000" font-family="sans-serif" font-size="14" lengthAdjust="spacing" textLength="152" x="634" y="323.3496">+getVehicleRepository()</text></g><!--class VehicleRepository--><g id="elem_VehicleRepository"><rect codeLine="37" fill="#F1F1F1" height="85.2422" id="VehicleRepository" rx="2.5" ry="2.5" style="stroke:#181818;stroke-width:0.5;" width="195" x="857.5" y="236.5"/><ellipse cx="894.55" cy="252.5" fill="#ADD1B2" rx="11" ry="11" style="stroke:#181818;stroke-width:1.0;"/><path d="M897.3156,248.375 Q897.4719,248.1563 897.6594,248.0469 Q897.8469,247.9375 898.0656,247.9375 Q898.4406,247.9375 898.675,248.2031 Q898.9094,248.4531 898.9094,249.0625 L898.9094,250.5156 Q898.9094,251.125 898.675,251.3906 Q898.4406,251.6563 898.0656,251.6563 Q897.7219,251.6563 897.5188,251.4531 Q897.3156,251.2656 897.2063,250.75 Q897.1594,250.3906 896.9719,250.2031 Q896.6438,249.8281 896.0344,249.6094 Q895.425,249.3906 894.8,249.3906 Q894.0344,249.3906 893.3938,249.7188 Q892.7688,250.0469 892.2688,250.7969 Q891.7844,251.5469 891.7844,252.5781 L891.7844,253.6719 Q891.7844,254.9063 892.675,255.7344 Q893.5656,256.5469 895.1594,256.5469 Q896.0969,256.5469 896.7531,256.2969 Q897.1438,256.1406 897.5656,255.7031 Q897.8313,255.4375 897.9719,255.3594 Q898.1281,255.2813 898.3313,255.2813 Q898.6594,255.2813 898.9094,255.5469 Q899.175,255.7969 899.175,256.1406 Q899.175,256.4844 898.8313,256.8906 Q898.3313,257.4688 897.5344,257.7969 Q896.4563,258.25 895.1594,258.25 Q893.6438,258.25 892.4406,257.625 Q891.4563,257.125 890.7688,256.0625 Q890.0813,254.9844 890.0813,253.7031 L890.0813,252.5469 Q890.0813,251.2188 890.6906,250.0781 Q891.3156,248.9219 892.4094,248.3125 Q893.5031,247.6875 894.7375,247.6875 Q895.4719,247.6875 896.1125,247.8594 Q896.7688,248.0156 897.3156,248.375 Z " fill="#000000"/><text fill="#000000" font-family="sans-serif" font-size="14" lengthAdjust="spacing" textLength="114" x="913.45" y="258.2969">VehicleRepository</text><line style="stroke:#181818;stroke-width:0.5;" x1="858.5" x2="1051.5" y1="268.5" y2="268.5"/><text fill="#000000" font-family="sans-serif" font-size="14" lengthAdjust="spacing" textLength="148" x="863.5" y="287.6074">-vehicles: List&lt;Vehicle&gt;</text><line style="stroke:#181818;stroke-width:0.5;" x1="858.5" x2="1051.5" y1="295.1211" y2="295.1211"/><text fill="#000000" font-family="sans-serif" font-size="14" lengthAdjust="spacing" textLength="183" x="863.5" y="314.2285">+getVehicles(): List&lt;Vehicle&gt;</text></g><!--class Vehicle--><g id="elem_Vehicle"><rect codeLine="42" fill="#F1F1F1" height="215.5898" id="Vehicle" rx="2.5" ry="2.5" style="stroke:#181818;stroke-width:0.5;" width="432" x="739" y="410"/><ellipse cx="927.75" cy="426" fill="#ADD1B2" rx="11" ry="11" style="stroke:#181818;stroke-width:1.0;"/><path d="M930.5156,421.875 Q930.6719,421.6563 930.8594,421.5469 Q931.0469,421.4375 931.2656,421.4375 Q931.6406,421.4375 931.875,421.7031 Q932.1094,421.9531 932.1094,422.5625 L932.1094,424.0156 Q932.1094,424.625 931.875,424.8906 Q931.6406,425.1563 931.2656,425.1563 Q930.9219,425.1563 930.7188,424.9531 Q930.5156,424.7656 930.4063,424.25 Q930.3594,423.8906 930.1719,423.7031 Q929.8438,423.3281 929.2344,423.1094 Q928.625,422.8906 928,422.8906 Q927.2344,422.8906 926.5938,423.2188 Q925.9688,423.5469 925.4688,424.2969 Q924.9844,425.0469 924.9844,426.0781 L924.9844,427.1719 Q924.9844,428.4063 925.875,429.2344 Q926.7656,430.0469 928.3594,430.0469 Q929.2969,430.0469 929.9531,429.7969 Q930.3438,429.6406 930.7656,429.2031 Q931.0313,428.9375 931.1719,428.8594 Q931.3281,428.7813 931.5313,428.7813 Q931.8594,428.7813 932.1094,429.0469 Q932.375,429.2969 932.375,429.6406 Q932.375,429.9844 932.0313,430.3906 Q931.5313,430.9688 930.7344,431.2969 Q929.6563,431.75 928.3594,431.75 Q926.8438,431.75 925.6406,431.125 Q924.6563,430.625 923.9688,429.5625 Q923.2813,428.4844 923.2813,427.2031 L923.2813,426.0469 Q923.2813,424.7188 923.8906,423.5781 Q924.5156,422.4219 925.6094,421.8125 Q926.7031,421.1875 927.9375,421.1875 Q928.6719,421.1875 929.3125,421.3594 Q929.9688,421.5156 930.5156,421.875 Z " fill="#000000"/><text fill="#000000" font-family="sans-serif" font-size="14" lengthAdjust="spacing" textLength="46" x="948.25" y="431.7969">Vehicle</text><line style="stroke:#181818;stroke-width:0.5;" x1="740" x2="1170" y1="442" y2="442"/><text fill="#000000" font-family="sans-serif" font-size="14" lengthAdjust="spacing" textLength="121" x="745" y="461.1074">-currentKm: double</text><text fill="#000000" font-family="sans-serif" font-size="14" lengthAdjust="spacing" textLength="178" x="745" y="479.7285">-checkUpFrequency: double</text><text fill="#000000" font-family="sans-serif" font-size="14" lengthAdjust="spacing" textLength="179" x="745" y="498.3496">-lastMaintenanceKm: double</text><line style="stroke:#181818;stroke-width:0.5;" x1="740" x2="1170" y1="505.8633" y2="505.8633"/><text fill="#000000" font-family="sans-serif" font-size="14" lengthAdjust="spacing" textLength="364" x="745" y="524.9707">+Vehicle(brand: String, model: String, tareWeight: double,</text><text fill="#000000" font-family="sans-serif" font-size="14" lengthAdjust="spacing" textLength="416" x="745" y="543.5918">grossWeight: double, currentKm: double, registerDate: LocalDate,</text><text fill="#000000" font-family="sans-serif" font-size="14" lengthAdjust="spacing" textLength="355" x="745" y="562.2129">acquisitionDate: LocalDate, checkUpFrequency: double)</text><text fill="#000000" font-family="sans-serif" font-size="14" lengthAdjust="spacing" textLength="217" x="745" y="580.834">+getLastMaintenanceKm(): double</text><text fill="#000000" font-family="sans-serif" font-size="14" lengthAdjust="spacing" textLength="157" x="745" y="599.4551">+getCurrentKm(): double</text><text fill="#000000" font-family="sans-serif" font-size="14" lengthAdjust="spacing" textLength="214" x="745" y="618.0762">+getCheckUpFrequency(): double</text></g><!--link GMN3 to VehicleNeedingCheckUpUI--><g id="link_GMN3_VehicleNeedingCheckUpUI"><path d="M342.09,77.5 C360.74,77.5 376,77.5 376,77.5 C376,77.5 376.5,77.5 377.43,77.5 " fill="none" id="GMN3-VehicleNeedingCheckUpUI" style="stroke:#181818;stroke-width:1.0;stroke-dasharray:7.0,7.0;"/></g><!--link VehicleNeedingCheckUpUI to VehicleNeedingCheckUpController--><g id="link_VehicleNeedingCheckUpUI_VehicleNeedingCheckUpController"><path codeLine="52" d="M576.63,77.5 C591.88,77.5 602.67,77.5 602.67,77.5 C602.67,77.5 600.05,77.5 605.7,77.5 " fill="none" id="VehicleNeedingCheckUpUI-to-VehicleNeedingCheckUpController" style="stroke:#181818;stroke-width:1.0;stroke-dasharray:7.0,7.0;"/><polygon fill="#181818" points="611.7,77.5,602.7,73.5,606.7,77.5,602.7,81.5,611.7,77.5" style="stroke:#181818;stroke-width:1.0;"/></g><!--link VehicleNeedingCheckUpController to Repositories--><g id="link_VehicleNeedingCheckUpController_Repositories"><path codeLine="53" d="M808.88,148.28 C792.17,174.12 776.8083,197.8818 761.3583,221.7718 " fill="none" id="VehicleNeedingCheckUpController-to-Repositories" style="stroke:#181818;stroke-width:1.0;stroke-dasharray:7.0,7.0;"/><polygon fill="#181818" points="758.1,226.81,766.3462,221.4249,760.8152,222.6115,759.6286,217.0805,758.1,226.81" style="stroke:#181818;stroke-width:1.0;"/><text fill="#000000" font-family="sans-serif" font-size="13" lengthAdjust="spacing" textLength="67" x="791" y="193.0283">repositories</text></g><!--link Repositories to VehicleRepository--><g id="link_Repositories_VehicleRepository"><path codeLine="54" d="M822.21,279 C833.12,279 840.51,279 851.46,279 " fill="none" id="Repositories-to-VehicleRepository" style="stroke:#181818;stroke-width:1.0;"/><polygon fill="#181818" points="857.46,279,848.46,275,852.46,279,848.46,283,857.46,279" style="stroke:#181818;stroke-width:1.0;"/><text fill="#000000" font-family="sans-serif" font-size="13" lengthAdjust="spacing" textLength="7" x="842.4084" y="275.3529">1</text></g><!--link VehicleNeedingCheckUpController to VehicleRepository--><g id="link_VehicleNeedingCheckUpController_VehicleRepository"><path codeLine="55" d="M889.32,148.28 C904.23,177.71 918.3699,205.6369 931.2699,231.1169 " fill="none" id="VehicleNeedingCheckUpController-to-VehicleRepository" style="stroke:#181818;stroke-width:1.0;stroke-dasharray:7.0,7.0;"/><polygon fill="#181818" points="933.98,236.47,933.4835,226.6337,931.7216,232.0091,926.3461,230.2472,933.98,236.47" style="stroke:#181818;stroke-width:1.0;"/><text fill="#000000" font-family="sans-serif" font-size="13" lengthAdjust="spacing" textLength="101" x="915" y="193.0283">vehicleRepository</text></g><!--link VehicleRepository to Vehicle--><g id="link_VehicleRepository_Vehicle"><path codeLine="56" d="M955,321.55 C955,346.18 955,372.62 955,403.97 " fill="none" id="VehicleRepository-to-Vehicle" style="stroke:#181818;stroke-width:1.0;"/><polygon fill="#181818" points="955,409.97,959,400.97,955,404.97,951,400.97,955,409.97" style="stroke:#181818;stroke-width:1.0;"/><text fill="#000000" font-family="sans-serif" font-size="13" lengthAdjust="spacing" textLength="39" x="956" y="376.0283">vehicle</text><text fill="#000000" font-family="sans-serif" font-size="13" lengthAdjust="spacing" textLength="7" x="947.4422" y="343.7183">1</text><text fill="#000000" font-family="sans-serif" font-size="13" lengthAdjust="spacing" textLength="12" x="942.5781" y="398.8295">1*</text></g><!--SRC=[ZLHDZzem4BtxLups0hImQg-eGbfHLKNTzh1esyjUZ3C42sDdxGbLYlhVEqw0V42wv9JupPklzvn1s6gRIIzti7FMgOrtEmJoEOeQoQJQoXINL1W4ZugaJKqp86naudvhcy9Qcj14ZBP8HOQGELF43p6u0ZfFJZHOoiWG7eYyNkM42-NiKlz1-234mE2QW1nudMu84XtRqSuAKNBW9swqClW3CU5svXjKs-ViUN4GugyGrX52cS2j-o85y3E19moPiq6lUEAryrmeP4OMSSHzHGnWAogeo9tacK2RGApntsRcpf9tng0_LBME-PumSq6JyyNqHAoFoiZtR-GRtf9f32zMvhH1Irh9kBfc-4CFCgeQI94k4Wv7lVtMuQ7TS-Gywa2VZl3ih4ubQvyyzQn7cRvAcqGfFBxc62Y-64cOH8VqwrHnR-zkodPWB-AUaqbsRIWxlDq7vxre38UpmUgpuN6ziQM53Noz50v7C6q5rI5N98ZxQtck1jik2zt5TuMwAaqhzJ6XohrdgtpRJI5nET-Jut6rmo-b8bOLRPJpq7UfBQ6DGtR89uCFLvvrdSAIbsxJCV-P4ZJr9qcFlp0QvSIEfawz2w5xVD7ac1sIydZeFxDFU5Idf8clvRrGhxdchR7rBz2-kUgRyTYTBQwoEHt7p4_zNCCw5HeXB47FxmhkPszUbJTmkESSJQUnyNpJU2riCeExZtTNRlmjLIvON6hVbwaH5IjEoihlpgLhglW7]--></g></svg>