<?xml version="1.0" encoding="us-ascii" standalone="no"?><svg xmlns="http://www.w3.org/2000/svg" xmlns:xlink="http://www.w3.org/1999/xlink" contentStyleType="text/css" height="950px" preserveAspectRatio="none" style="width:1404px;height:950px;background:#FFFFFF;" version="1.1" viewBox="0 0 1404 950" width="1404px" zoomAndPan="magnify"><defs/><g><rect fill="#FFFFFF" height="764.3145" style="stroke:#181818;stroke-width:1.0;" width="10" x="75" y="93.6211"/><rect fill="#FFFFFF" height="732.0234" style="stroke:#181818;stroke-width:1.0;" width="10" x="356" y="116.9121"/><rect fill="#FFFFFF" height="659.4414" style="stroke:#181818;stroke-width:1.0;" width="10" x="494.5" y="158.2031"/><rect fill="#FFFFFF" height="31.291" style="stroke:#181818;stroke-width:1.0;" width="10" x="613.5" y="191.8242"/><rect fill="#FFFFFF" height="31.291" style="stroke:#181818;stroke-width:1.0;" width="10" x="751.5" y="254.4063"/><rect fill="#FFFFFF" height="31.291" style="stroke:#181818;stroke-width:1.0;" width="10" x="912" y="316.9883"/><rect fill="#FFFFFF" height="31.291" style="stroke:#181818;stroke-width:1.0;" width="10" x="912" y="723.7715"/><rect fill="#FFFFFF" height="93.873" style="stroke:#181818;stroke-width:1.0;" width="10" x="1014.5" y="567.3164"/><rect fill="#FFFFFF" height="31.291" style="stroke:#181818;stroke-width:1.0;" width="10" x="1262.5" y="598.6074"/><rect fill="#FFFFFF" height="93.873" style="stroke:#181818;stroke-width:1.0;" width="10" x="1346.5" y="692.4805"/><line style="stroke:#181818;stroke-width:0.5;stroke-dasharray:5.0,5.0;" x1="80" x2="80" y1="83.6211" y2="866.9355"/><line style="stroke:#181818;stroke-width:0.5;stroke-dasharray:5.0,5.0;" x1="360.5" x2="360.5" y1="83.6211" y2="866.9355"/><line style="stroke:#181818;stroke-width:0.5;stroke-dasharray:5.0,5.0;" x1="499" x2="499" y1="156.7227" y2="866.9355"/><line style="stroke:#181818;stroke-width:0.5;stroke-dasharray:5.0,5.0;" x1="618" x2="618" y1="83.6211" y2="866.9355"/><line style="stroke:#181818;stroke-width:0.5;stroke-dasharray:5.0,5.0;" x1="756" x2="756" y1="83.6211" y2="866.9355"/><line style="stroke:#181818;stroke-width:0.5;stroke-dasharray:5.0,5.0;" x1="917" x2="917" y1="83.6211" y2="866.9355"/><line style="stroke:#181818;stroke-width:0.5;stroke-dasharray:5.0,5.0;" x1="1019" x2="1019" y1="83.6211" y2="866.9355"/><line style="stroke:#181818;stroke-width:0.5;stroke-dasharray:5.0,5.0;" x1="1267.5" x2="1267.5" y1="83.6211" y2="866.9355"/><line style="stroke:#181818;stroke-width:0.5;stroke-dasharray:5.0,5.0;" x1="1351.5" x2="1351.5" y1="83.6211" y2="866.9355"/><text fill="#000000" font-family="sans-serif" font-size="14" lengthAdjust="spacing" textLength="144" x="5" y="80.1074">Green Space Manager</text><ellipse cx="80" cy="13.5" fill="#E3E3E3" rx="8" ry="8" style="stroke:#181818;stroke-width:0.5;"/><path d="M80,21.5 L80,48.5 M67,29.5 L93,29.5 M80,48.5 L67,63.5 M80,48.5 L93,63.5 " fill="none" style="stroke:#181818;stroke-width:0.5;"/><text fill="#000000" font-family="sans-serif" font-size="14" lengthAdjust="spacing" textLength="144" x="5" y="881.043">Green Space Manager</text><ellipse cx="80" cy="893.0566" fill="#E3E3E3" rx="8" ry="8" style="stroke:#181818;stroke-width:0.5;"/><path d="M80,901.0566 L80,928.0566 M67,909.0566 L93,909.0566 M80,928.0566 L67,943.0566 M80,928.0566 L93,943.0566 " fill="none" style="stroke:#181818;stroke-width:0.5;"/><rect fill="#E3E3E3" height="32.6211" rx="2.5" ry="2.5" style="stroke:#181818;stroke-width:0.5;" width="119" x="301.5" y="50"/><text fill="#000000" font-family="sans-serif" font-size="14" lengthAdjust="spacing" textLength="105" x="308.5" y="72.1074">PostponeEntryUI</text><rect fill="#E3E3E3" height="32.6211" rx="2.5" ry="2.5" style="stroke:#181818;stroke-width:0.5;" width="119" x="301.5" y="865.9355"/><text fill="#000000" font-family="sans-serif" font-size="14" lengthAdjust="spacing" textLength="105" x="308.5" y="888.043">PostponeEntryUI</text><rect fill="#E3E3E3" height="32.6211" rx="2.5" ry="2.5" style="stroke:#181818;stroke-width:0.5;" width="125" x="437" y="865.9355"/><text fill="#000000" font-family="sans-serif" font-size="14" lengthAdjust="spacing" textLength="111" x="444" y="888.043">AgendaController</text><rect fill="#E3E3E3" height="32.6211" rx="2.5" ry="2.5" style="stroke:#181818;stroke-width:0.5;" width="93" x="572" y="50"/><text fill="#000000" font-family="sans-serif" font-size="14" lengthAdjust="spacing" textLength="79" x="579" y="72.1074">Repositories</text><rect fill="#E3E3E3" height="32.6211" rx="2.5" ry="2.5" style="stroke:#181818;stroke-width:0.5;" width="93" x="572" y="865.9355"/><text fill="#000000" font-family="sans-serif" font-size="14" lengthAdjust="spacing" textLength="79" x="579" y="888.043">Repositories</text><rect fill="#E3E3E3" height="51.2422" rx="2.5" ry="2.5" style="stroke:#181818;stroke-width:0.5;" width="163" x="675" y="31.3789"/><text fill="#000000" font-family="sans-serif" font-size="14" lengthAdjust="spacing" textLength="149" x="682" y="53.4863">organizationRepository:</text><text fill="#000000" font-family="sans-serif" font-size="14" lengthAdjust="spacing" textLength="148" x="682.5" y="72.1074">OrganizationRepository</text><rect fill="#E3E3E3" height="51.2422" rx="2.5" ry="2.5" style="stroke:#181818;stroke-width:0.5;" width="163" x="675" y="865.9355"/><text fill="#000000" font-family="sans-serif" font-size="14" lengthAdjust="spacing" textLength="149" x="682" y="888.043">organizationRepository:</text><text fill="#000000" font-family="sans-serif" font-size="14" lengthAdjust="spacing" textLength="148" x="682.5" y="906.6641">OrganizationRepository</text><rect fill="#E3E3E3" height="51.2422" rx="2.5" ry="2.5" style="stroke:#181818;stroke-width:0.5;" width="138" x="848" y="31.3789"/><text fill="#000000" font-family="sans-serif" font-size="14" lengthAdjust="spacing" textLength="120" x="855" y="53.4863">agendaRepository:</text><text fill="#000000" font-family="sans-serif" font-size="14" lengthAdjust="spacing" textLength="117" x="860.5" y="72.1074">AgendaRepository</text><rect fill="#E3E3E3" height="51.2422" rx="2.5" ry="2.5" style="stroke:#181818;stroke-width:0.5;" width="138" x="848" y="865.9355"/><text fill="#000000" font-family="sans-serif" font-size="14" lengthAdjust="spacing" textLength="120" x="855" y="888.043">agendaRepository:</text><text fill="#000000" font-family="sans-serif" font-size="14" lengthAdjust="spacing" textLength="117" x="860.5" y="906.6641">AgendaRepository</text><rect fill="#E3E3E3" height="32.6211" rx="2.5" ry="2.5" style="stroke:#181818;stroke-width:0.5;" width="47" x="996" y="50"/><text fill="#000000" font-family="sans-serif" font-size="14" lengthAdjust="spacing" textLength="33" x="1003" y="72.1074">Entry</text><rect fill="#E3E3E3" height="32.6211" rx="2.5" ry="2.5" style="stroke:#181818;stroke-width:0.5;" width="47" x="996" y="865.9355"/><text fill="#000000" font-family="sans-serif" font-size="14" lengthAdjust="spacing" textLength="33" x="1003" y="888.043">Entry</text><rect fill="#E3E3E3" height="32.6211" rx="2.5" ry="2.5" style="stroke:#181818;stroke-width:0.5;" width="54" x="1240.5" y="50"/><text fill="#000000" font-family="sans-serif" font-size="14" lengthAdjust="spacing" textLength="40" x="1247.5" y="72.1074">Status</text><rect fill="#E3E3E3" height="32.6211" rx="2.5" ry="2.5" style="stroke:#181818;stroke-width:0.5;" width="54" x="1240.5" y="865.9355"/><text fill="#000000" font-family="sans-serif" font-size="14" lengthAdjust="spacing" textLength="40" x="1247.5" y="888.043">Status</text><rect fill="#E3E3E3" height="32.6211" rx="2.5" ry="2.5" style="stroke:#181818;stroke-width:0.5;" width="94" x="1304.5" y="50"/><text fill="#000000" font-family="sans-serif" font-size="14" lengthAdjust="spacing" textLength="80" x="1311.5" y="72.1074">Organization</text><rect fill="#E3E3E3" height="32.6211" rx="2.5" ry="2.5" style="stroke:#181818;stroke-width:0.5;" width="94" x="1304.5" y="865.9355"/><text fill="#000000" font-family="sans-serif" font-size="14" lengthAdjust="spacing" textLength="80" x="1311.5" y="888.043">Organization</text><rect fill="#FFFFFF" height="764.3145" style="stroke:#181818;stroke-width:1.0;" width="10" x="75" y="93.6211"/><rect fill="#FFFFFF" height="732.0234" style="stroke:#181818;stroke-width:1.0;" width="10" x="356" y="116.9121"/><rect fill="#FFFFFF" height="659.4414" style="stroke:#181818;stroke-width:1.0;" width="10" x="494.5" y="158.2031"/><rect fill="#FFFFFF" height="31.291" style="stroke:#181818;stroke-width:1.0;" width="10" x="613.5" y="191.8242"/><rect fill="#FFFFFF" height="31.291" style="stroke:#181818;stroke-width:1.0;" width="10" x="751.5" y="254.4063"/><rect fill="#FFFFFF" height="31.291" style="stroke:#181818;stroke-width:1.0;" width="10" x="912" y="316.9883"/><rect fill="#FFFFFF" height="31.291" style="stroke:#181818;stroke-width:1.0;" width="10" x="912" y="723.7715"/><rect fill="#FFFFFF" height="93.873" style="stroke:#181818;stroke-width:1.0;" width="10" x="1014.5" y="567.3164"/><rect fill="#FFFFFF" height="31.291" style="stroke:#181818;stroke-width:1.0;" width="10" x="1262.5" y="598.6074"/><rect fill="#FFFFFF" height="93.873" style="stroke:#181818;stroke-width:1.0;" width="10" x="1346.5" y="692.4805"/><polygon fill="#181818" points="344,112.9121,354,116.9121,344,120.9121,348,116.9121" style="stroke:#181818;stroke-width:1.0;"/><line style="stroke:#181818;stroke-width:1.0;" x1="85" x2="350" y1="116.9121" y2="116.9121"/><text fill="#000000" font-family="sans-serif" font-size="13" font-weight="bold" lengthAdjust="spacing" textLength="7" x="92" y="111.6494">1</text><text fill="#000000" font-family="sans-serif" font-size="13" lengthAdjust="spacing" textLength="235" x="103" y="111.6494">asks to postpone an entry in the Agenda</text><polygon fill="#181818" points="425,144.2031,435,148.2031,425,152.2031,429,148.2031" style="stroke:#181818;stroke-width:1.0;"/><line style="stroke:#181818;stroke-width:1.0;" x1="366" x2="431" y1="148.2031" y2="148.2031"/><text fill="#000000" font-family="sans-serif" font-size="13" font-weight="bold" lengthAdjust="spacing" textLength="7" x="373" y="142.9404">2</text><text fill="#000000" font-family="sans-serif" font-size="13" lengthAdjust="spacing" textLength="36" x="384" y="142.9404">create</text><rect fill="#E3E3E3" height="32.6211" rx="2.5" ry="2.5" style="stroke:#181818;stroke-width:0.5;" width="125" x="437" y="124.9121"/><text fill="#000000" font-family="sans-serif" font-size="14" lengthAdjust="spacing" textLength="111" x="444" y="147.0195">AgendaController</text><polygon fill="#181818" points="601.5,187.8242,611.5,191.8242,601.5,195.8242,605.5,191.8242" style="stroke:#181818;stroke-width:1.0;"/><line style="stroke:#181818;stroke-width:1.0;" x1="504.5" x2="607.5" y1="191.8242" y2="191.8242"/><text fill="#000000" font-family="sans-serif" font-size="13" font-weight="bold" lengthAdjust="spacing" textLength="7" x="511.5" y="186.5615">3</text><text fill="#000000" font-family="sans-serif" font-size="13" lengthAdjust="spacing" textLength="75" x="522.5" y="186.5615">getInstance()</text><polygon fill="#181818" points="515.5,219.1152,505.5,223.1152,515.5,227.1152,511.5,223.1152" style="stroke:#181818;stroke-width:1.0;"/><line style="stroke:#181818;stroke-width:1.0;" x1="509.5" x2="617.5" y1="223.1152" y2="223.1152"/><text fill="#000000" font-family="sans-serif" font-size="13" font-weight="bold" lengthAdjust="spacing" textLength="7" x="521.5" y="217.8525">4</text><text fill="#000000" font-family="sans-serif" font-size="13" lengthAdjust="spacing" textLength="67" x="532.5" y="217.8525">repositories</text><polygon fill="#181818" points="739.5,250.4063,749.5,254.4063,739.5,258.4063,743.5,254.4063" style="stroke:#181818;stroke-width:1.0;"/><line style="stroke:#181818;stroke-width:1.0;" x1="504.5" x2="745.5" y1="254.4063" y2="254.4063"/><text fill="#000000" font-family="sans-serif" font-size="13" font-weight="bold" lengthAdjust="spacing" textLength="7" x="511.5" y="249.1436">5</text><text fill="#000000" font-family="sans-serif" font-size="13" lengthAdjust="spacing" textLength="161" x="522.5" y="249.1436">getOrganizationRepository()</text><polygon fill="#181818" points="515.5,281.6973,505.5,285.6973,515.5,289.6973,511.5,285.6973" style="stroke:#181818;stroke-width:1.0;"/><line style="stroke:#181818;stroke-width:1.0;" x1="509.5" x2="755.5" y1="285.6973" y2="285.6973"/><text fill="#000000" font-family="sans-serif" font-size="13" font-weight="bold" lengthAdjust="spacing" textLength="7" x="521.5" y="280.4346">6</text><text fill="#000000" font-family="sans-serif" font-size="13" lengthAdjust="spacing" textLength="132" x="532.5" y="280.4346">organizationRepository</text><polygon fill="#181818" points="900,312.9883,910,316.9883,900,320.9883,904,316.9883" style="stroke:#181818;stroke-width:1.0;"/><line style="stroke:#181818;stroke-width:1.0;" x1="504.5" x2="906" y1="316.9883" y2="316.9883"/><text fill="#000000" font-family="sans-serif" font-size="13" font-weight="bold" lengthAdjust="spacing" textLength="7" x="511.5" y="311.7256">7</text><text fill="#000000" font-family="sans-serif" font-size="13" lengthAdjust="spacing" textLength="132" x="522.5" y="311.7256">getAgendaRepository()</text><polygon fill="#181818" points="515.5,344.2793,505.5,348.2793,515.5,352.2793,511.5,348.2793" style="stroke:#181818;stroke-width:1.0;"/><line style="stroke:#181818;stroke-width:1.0;" x1="509.5" x2="916" y1="348.2793" y2="348.2793"/><text fill="#000000" font-family="sans-serif" font-size="13" font-weight="bold" lengthAdjust="spacing" textLength="7" x="521.5" y="343.0166">8</text><text fill="#000000" font-family="sans-serif" font-size="13" lengthAdjust="spacing" textLength="42" x="532.5" y="343.0166">agenda</text><polygon fill="#181818" points="377,375.5703,367,379.5703,377,383.5703,373,379.5703" style="stroke:#181818;stroke-width:1.0;"/><line style="stroke:#181818;stroke-width:1.0;" x1="371" x2="493.5" y1="379.5703" y2="379.5703"/><text fill="#000000" font-family="sans-serif" font-size="13" font-weight="bold" lengthAdjust="spacing" textLength="7" x="383" y="374.3076">9</text><text fill="#000000" font-family="sans-serif" font-size="13" lengthAdjust="spacing" textLength="42" x="394" y="374.3076">agenda</text><polygon fill="#181818" points="96,406.8613,86,410.8613,96,414.8613,92,410.8613" style="stroke:#181818;stroke-width:1.0;"/><line style="stroke:#181818;stroke-width:1.0;" x1="90" x2="355" y1="410.8613" y2="410.8613"/><text fill="#000000" font-family="sans-serif" font-size="13" font-weight="bold" lengthAdjust="spacing" textLength="14" x="102" y="405.5986">10</text><text fill="#000000" font-family="sans-serif" font-size="13" lengthAdjust="spacing" textLength="185" x="120" y="405.5986">asks to select the Agenda entry</text><polygon fill="#181818" points="344,438.1523,354,442.1523,344,446.1523,348,442.1523" style="stroke:#181818;stroke-width:1.0;"/><line style="stroke:#181818;stroke-width:1.0;" x1="85" x2="350" y1="442.1523" y2="442.1523"/><text fill="#000000" font-family="sans-serif" font-size="13" font-weight="bold" lengthAdjust="spacing" textLength="14" x="92" y="436.8896">11</text><text fill="#000000" font-family="sans-serif" font-size="13" lengthAdjust="spacing" textLength="145" x="110" y="436.8896">selects the Agenda entry</text><polygon fill="#181818" points="96,469.4434,86,473.4434,96,477.4434,92,473.4434" style="stroke:#181818;stroke-width:1.0;"/><line style="stroke:#181818;stroke-width:1.0;" x1="90" x2="355" y1="473.4434" y2="473.4434"/><text fill="#000000" font-family="sans-serif" font-size="13" font-weight="bold" lengthAdjust="spacing" textLength="14" x="102" y="468.1807">12</text><text fill="#000000" font-family="sans-serif" font-size="13" lengthAdjust="spacing" textLength="176" x="120" y="468.1807">asks to type the intended date</text><polygon fill="#181818" points="344,500.7344,354,504.7344,344,508.7344,348,504.7344" style="stroke:#181818;stroke-width:1.0;"/><line style="stroke:#181818;stroke-width:1.0;" x1="85" x2="350" y1="504.7344" y2="504.7344"/><text fill="#000000" font-family="sans-serif" font-size="13" font-weight="bold" lengthAdjust="spacing" textLength="14" x="92" y="499.4717">13</text><text fill="#000000" font-family="sans-serif" font-size="13" lengthAdjust="spacing" textLength="146" x="110" y="499.4717">selects the intended date</text><polygon fill="#181818" points="482.5,532.0254,492.5,536.0254,482.5,540.0254,486.5,536.0254" style="stroke:#181818;stroke-width:1.0;"/><line style="stroke:#181818;stroke-width:1.0;" x1="366" x2="488.5" y1="536.0254" y2="536.0254"/><text fill="#000000" font-family="sans-serif" font-size="13" font-weight="bold" lengthAdjust="spacing" textLength="14" x="373" y="530.7627">14</text><text fill="#000000" font-family="sans-serif" font-size="13" lengthAdjust="spacing" textLength="29" x="391" y="530.7627">entry</text><polygon fill="#181818" points="1002.5,563.3164,1012.5,567.3164,1002.5,571.3164,1006.5,567.3164" style="stroke:#181818;stroke-width:1.0;"/><line style="stroke:#181818;stroke-width:1.0;" x1="504.5" x2="1008.5" y1="567.3164" y2="567.3164"/><text fill="#000000" font-family="sans-serif" font-size="13" font-weight="bold" lengthAdjust="spacing" textLength="14" x="511.5" y="562.0537">15</text><text fill="#000000" font-family="sans-serif" font-size="13" lengthAdjust="spacing" textLength="29" x="529.5" y="562.0537">entry</text><polygon fill="#181818" points="1250.5,594.6074,1260.5,598.6074,1250.5,602.6074,1254.5,598.6074" style="stroke:#181818;stroke-width:1.0;"/><line style="stroke:#181818;stroke-width:1.0;" x1="1024.5" x2="1256.5" y1="598.6074" y2="598.6074"/><text fill="#000000" font-family="sans-serif" font-size="13" font-weight="bold" lengthAdjust="spacing" textLength="14" x="1031.5" y="593.3447">16</text><text fill="#000000" font-family="sans-serif" font-size="13" lengthAdjust="spacing" textLength="201" x="1049.5" y="593.3447">Entry.setStatus(Status.postponed)</text><polygon fill="#181818" points="1035.5,625.8984,1025.5,629.8984,1035.5,633.8984,1031.5,629.8984" style="stroke:#181818;stroke-width:1.0;"/><line style="stroke:#181818;stroke-width:1.0;" x1="1029.5" x2="1266.5" y1="629.8984" y2="629.8984"/><text fill="#000000" font-family="sans-serif" font-size="13" font-weight="bold" lengthAdjust="spacing" textLength="14" x="1041.5" y="624.6357">17</text><text fill="#000000" font-family="sans-serif" font-size="13" lengthAdjust="spacing" textLength="29" x="1059.5" y="624.6357">entry</text><polygon fill="#181818" points="515.5,657.1895,505.5,661.1895,515.5,665.1895,511.5,661.1895" style="stroke:#181818;stroke-width:1.0;"/><line style="stroke:#181818;stroke-width:1.0;" x1="509.5" x2="1018.5" y1="661.1895" y2="661.1895"/><text fill="#000000" font-family="sans-serif" font-size="13" font-weight="bold" lengthAdjust="spacing" textLength="14" x="521.5" y="655.9268">18</text><text fill="#000000" font-family="sans-serif" font-size="13" lengthAdjust="spacing" textLength="29" x="539.5" y="655.9268">entry</text><polygon fill="#181818" points="1334.5,688.4805,1344.5,692.4805,1334.5,696.4805,1338.5,692.4805" style="stroke:#181818;stroke-width:1.0;"/><line style="stroke:#181818;stroke-width:1.0;" x1="504.5" x2="1340.5" y1="692.4805" y2="692.4805"/><text fill="#000000" font-family="sans-serif" font-size="13" font-weight="bold" lengthAdjust="spacing" textLength="14" x="511.5" y="687.2178">19</text><text fill="#000000" font-family="sans-serif" font-size="13" lengthAdjust="spacing" textLength="29" x="529.5" y="687.2178">entry</text><polygon fill="#181818" points="933,719.7715,923,723.7715,933,727.7715,929,723.7715" style="stroke:#181818;stroke-width:1.0;"/><line style="stroke:#181818;stroke-width:1.0;" x1="927" x2="1345.5" y1="723.7715" y2="723.7715"/><text fill="#000000" font-family="sans-serif" font-size="13" font-weight="bold" lengthAdjust="spacing" textLength="14" x="939" y="718.5088">20</text><text fill="#000000" font-family="sans-serif" font-size="13" lengthAdjust="spacing" textLength="58" x="957" y="718.5088">add(entry)</text><polygon fill="#181818" points="1334.5,751.0625,1344.5,755.0625,1334.5,759.0625,1338.5,755.0625" style="stroke:#181818;stroke-width:1.0;"/><line style="stroke:#181818;stroke-width:1.0;" x1="917" x2="1340.5" y1="755.0625" y2="755.0625"/><text fill="#000000" font-family="sans-serif" font-size="13" font-weight="bold" lengthAdjust="spacing" textLength="14" x="924" y="749.7998">21</text><text fill="#000000" font-family="sans-serif" font-size="13" lengthAdjust="spacing" textLength="29" x="942" y="749.7998">entry</text><polygon fill="#181818" points="515.5,782.3535,505.5,786.3535,515.5,790.3535,511.5,786.3535" style="stroke:#181818;stroke-width:1.0;"/><line style="stroke:#181818;stroke-width:1.0;" x1="509.5" x2="1350.5" y1="786.3535" y2="786.3535"/><text fill="#000000" font-family="sans-serif" font-size="13" font-weight="bold" lengthAdjust="spacing" textLength="14" x="521.5" y="781.0908">22</text><text fill="#000000" font-family="sans-serif" font-size="13" lengthAdjust="spacing" textLength="29" x="539.5" y="781.0908">entry</text><polygon fill="#181818" points="377,813.6445,367,817.6445,377,821.6445,373,817.6445" style="stroke:#181818;stroke-width:1.0;"/><line style="stroke:#181818;stroke-width:1.0;" x1="371" x2="498.5" y1="817.6445" y2="817.6445"/><text fill="#000000" font-family="sans-serif" font-size="13" font-weight="bold" lengthAdjust="spacing" textLength="14" x="383" y="812.3818">23</text><text fill="#000000" font-family="sans-serif" font-size="13" lengthAdjust="spacing" textLength="29" x="401" y="812.3818">entry</text><polygon fill="#181818" points="96,844.9355,86,848.9355,96,852.9355,92,848.9355" style="stroke:#181818;stroke-width:1.0;"/><line style="stroke:#181818;stroke-width:1.0;stroke-dasharray:2.0,2.0;" x1="90" x2="360" y1="848.9355" y2="848.9355"/><text fill="#000000" font-family="sans-serif" font-size="13" font-weight="bold" lengthAdjust="spacing" textLength="14" x="102" y="843.6729">24</text><text fill="#000000" font-family="sans-serif" font-size="13" lengthAdjust="spacing" textLength="229" x="120" y="843.6729">displays all data and operation success</text><!--SRC=[dLNBRjim4BppAnQ-r0dGV40E1OAW20mqQ14tjrmsqaOcB9C2IRTrlxvBKWzIbWIxlCGXTsPddx9xgHeqU823LhhO6NqWSEP8mlOl3HPxh6ZhJZM1eSAXgkhKmEwmrB-bgk03Qqj2uD5fTJoyan7YqqwM11zQktVzHs3Xj87Lao5Ii6LcWcTKp6vMW1QUji-2EPqiP8FAmUg7jgxHYhugPqwlcs3qkibj7YfI9JvgDj5rtJ8z_dpvbfkzKAEjPFUIR33XYzn2cmgL_8jEQjLRd-xVrFV9Xq0oZSbvCGXC6E5DmSFeCh35onmTGW-luLV-k7NeZZ6S-3D_JeMtSeMlWVo5ZaAs1NI7_uFFNpYxSC-MUmjEGzEc7r01UUyW5RWTTK8ZkYVaolHypCDilWotjynO66ABCI1KQP30nzzu82U6KHMvZRBSS0MjRyPWNxyCEnoFRhqpYqagVuOewHB2JjPqkQFIwIxfTG-dTpZJF3CQPdmFSLv8bqHydO0k2R7uCUXn6o-5cpNDsMbPXt1msZoHlqpOoOqT7KsdBMEl-W4OMjzIpQikQVOu03CCwV14fBqKEkNSdHeAUAaS4r09fP-UwtnVWXscbC69oYvtOUNaJnE5RNVKN24Y2RFrwuePu-sT9HSlr_7FNRToolD6IXosH7CU-VI-pg8unoGjjS3SXv6bIqpJT1cP5pYib8dy9XEwGE6nwJnYMQu3qusuUlpo4Kn4YVyQla7TNBP6YsY2A1lWfMoFFoE-g_kPAgLjQZnPmBhseu3yCIj1DsJ2sWDxB0goTeQQFsd_0000]--></g></svg>