<?xml version="1.0" encoding="us-ascii" standalone="no"?><svg xmlns="http://www.w3.org/2000/svg" xmlns:xlink="http://www.w3.org/1999/xlink" contentStyleType="text/css" height="886.4px" preserveAspectRatio="none" style="width:676px;height:886px;background:#FFFFFF;" version="1.1" viewBox="0 0 676 886" width="676.8px" zoomAndPan="magnify"><defs/><g><!--class CancelEntryUI--><g id="elem_CancelEntryUI"><rect codeLine="11" fill="#F1F1F1" height="187.3688" id="CancelEntryUI" rx="2" ry="2" style="stroke:#181818;stroke-width:0.4000000000000001;" width="145.6" x="5.6" y="5.6"/><ellipse cx="39.56" cy="18.4" fill="#ADD1B2" rx="8.8" ry="8.8" style="stroke:#181818;stroke-width:0.8000000000000002;"/><path d="M41.7725,15.1 Q41.8975,14.925 42.0475,14.8375 Q42.1975,14.75 42.3725,14.75 Q42.6725,14.75 42.86,14.9625 Q43.0475,15.1625 43.0475,15.65 L43.0475,16.8125 Q43.0475,17.3 42.86,17.5125 Q42.6725,17.725 42.3725,17.725 Q42.0975,17.725 41.935,17.5625 Q41.7725,17.4125 41.685,17 Q41.6475,16.7125 41.4975,16.5625 Q41.235,16.2625 40.7475,16.0875 Q40.26,15.9125 39.76,15.9125 Q39.1475,15.9125 38.635,16.175 Q38.135,16.4375 37.735,17.0375 Q37.3475,17.6375 37.3475,18.4625 L37.3475,19.3375 Q37.3475,20.325 38.06,20.9875 Q38.7725,21.6375 40.0475,21.6375 Q40.7975,21.6375 41.3225,21.4375 Q41.635,21.3125 41.9725,20.9625 Q42.185,20.75 42.2975,20.6875 Q42.4225,20.625 42.585,20.625 Q42.8475,20.625 43.0475,20.8375 Q43.26,21.0375 43.26,21.3125 Q43.26,21.5875 42.985,21.9125 Q42.585,22.375 41.9475,22.6375 Q41.085,23 40.0475,23 Q38.835,23 37.8725,22.5 Q37.085,22.1 36.535,21.25 Q35.985,20.3875 35.985,19.3625 L35.985,18.4375 Q35.985,17.375 36.4725,16.4625 Q36.9725,15.5375 37.8475,15.05 Q38.7225,14.55 39.71,14.55 Q40.2975,14.55 40.81,14.6875 Q41.335,14.8125 41.7725,15.1 Z " fill="#000000"/><text fill="#000000" font-family="sans-serif" font-size="11.2" lengthAdjust="spacing" textLength="71.2" x="55.64" y="23.0375">CancelEntryUI</text><line style="stroke:#181818;stroke-width:0.4000000000000001;" x1="6.4" x2="150.4" y1="31.2" y2="31.2"/><text fill="#000000" font-family="sans-serif" font-size="11.2" lengthAdjust="spacing" textLength="71.2" x="10.4" y="46.4859">-name: String;</text><text fill="#000000" font-family="sans-serif" font-size="11.2" lengthAdjust="spacing" textLength="53.6" x="10.4" y="61.3828">-size: Size;</text><text fill="#000000" font-family="sans-serif" font-size="11.2" lengthAdjust="spacing" textLength="71.2" x="10.4" y="76.2797">-area: double;</text><text fill="#000000" font-family="sans-serif" font-size="11.2" lengthAdjust="spacing" textLength="136" x="10.4" y="91.1766">-greenSpace: GreenSpace</text><line style="stroke:#181818;stroke-width:0.4000000000000001;" x1="6.4" x2="150.4" y1="97.1875" y2="97.1875"/><text fill="#000000" font-family="sans-serif" font-size="11.2" lengthAdjust="spacing" textLength="130.4" x="10.4" y="112.4734">+RegisterGreenSpaceUI()</text><text fill="#000000" font-family="sans-serif" font-size="11.2" lengthAdjust="spacing" textLength="74.4" x="10.4" y="127.3703">-requestData()</text><text fill="#000000" font-family="sans-serif" font-size="11.2" lengthAdjust="spacing" textLength="79.2" x="10.4" y="142.2672">-requestName()</text><text fill="#000000" font-family="sans-serif" font-size="11.2" lengthAdjust="spacing" textLength="74.4" x="10.4" y="157.1641">-requestArea()</text><text fill="#000000" font-family="sans-serif" font-size="11.2" lengthAdjust="spacing" textLength="68.8" x="10.4" y="172.0609">-submitData()</text><text fill="#000000" font-family="sans-serif" font-size="11.2" lengthAdjust="spacing" textLength="98.4" x="10.4" y="186.9578">-printGreenSpace()</text></g><!--class AgendaController--><g id="elem_AgendaController"><rect codeLine="25" fill="#F1F1F1" height="112.8844" id="AgendaController" rx="2" ry="2" style="stroke:#181818;stroke-width:0.4000000000000001;" width="448" x="223.2" y="42.8"/><ellipse cx="399.4" cy="55.6" fill="#ADD1B2" rx="8.8" ry="8.8" style="stroke:#181818;stroke-width:0.8000000000000002;"/><path d="M401.6125,52.3 Q401.7375,52.125 401.8875,52.0375 Q402.0375,51.95 402.2125,51.95 Q402.5125,51.95 402.7,52.1625 Q402.8875,52.3625 402.8875,52.85 L402.8875,54.0125 Q402.8875,54.5 402.7,54.7125 Q402.5125,54.925 402.2125,54.925 Q401.9375,54.925 401.775,54.7625 Q401.6125,54.6125 401.525,54.2 Q401.4875,53.9125 401.3375,53.7625 Q401.075,53.4625 400.5875,53.2875 Q400.1,53.1125 399.6,53.1125 Q398.9875,53.1125 398.475,53.375 Q397.975,53.6375 397.575,54.2375 Q397.1875,54.8375 397.1875,55.6625 L397.1875,56.5375 Q397.1875,57.525 397.9,58.1875 Q398.6125,58.8375 399.8875,58.8375 Q400.6375,58.8375 401.1625,58.6375 Q401.475,58.5125 401.8125,58.1625 Q402.025,57.95 402.1375,57.8875 Q402.2625,57.825 402.425,57.825 Q402.6875,57.825 402.8875,58.0375 Q403.1,58.2375 403.1,58.5125 Q403.1,58.7875 402.825,59.1125 Q402.425,59.575 401.7875,59.8375 Q400.925,60.2 399.8875,60.2 Q398.675,60.2 397.7125,59.7 Q396.925,59.3 396.375,58.45 Q395.825,57.5875 395.825,56.5625 L395.825,55.6375 Q395.825,54.575 396.3125,53.6625 Q396.8125,52.7375 397.6875,52.25 Q398.5625,51.75 399.55,51.75 Q400.1375,51.75 400.65,51.8875 Q401.175,52.0125 401.6125,52.3 Z " fill="#000000"/><text fill="#000000" font-family="sans-serif" font-size="11.2" lengthAdjust="spacing" textLength="88.8" x="415.8" y="60.2375">AgendaController</text><line style="stroke:#181818;stroke-width:0.4000000000000001;" x1="224" x2="670.4" y1="68.4" y2="68.4"/><line style="stroke:#181818;stroke-width:0.4000000000000001;" x1="224" x2="670.4" y1="74.8" y2="74.8"/><text fill="#000000" font-family="sans-serif" font-size="11.2" lengthAdjust="spacing" textLength="170.4" x="228" y="90.0859">+RegisterGreenSpaceController()</text><text fill="#000000" font-family="sans-serif" font-size="11.2" lengthAdjust="spacing" textLength="425.6" x="228" y="104.9828">+RegisterGreenSpaceController(AuthenticationRepository authenticationRepository)</text><text fill="#000000" font-family="sans-serif" font-size="11.2" lengthAdjust="spacing" textLength="276.8" x="228" y="119.8797">+getGreenSpaceRepository() : GreenSpaceRepository</text><text fill="#000000" font-family="sans-serif" font-size="11.2" lengthAdjust="spacing" textLength="290.4" x="228" y="134.7766">-getAuthenticationRepository() : AuthenticationRepository</text><text fill="#000000" font-family="sans-serif" font-size="11.2" lengthAdjust="spacing" textLength="438.4" x="228" y="149.6734">+registerGreenSpace(String name, double area, GreenSpace.Size size ) : GreenSpace</text></g><!--class Repositories--><g id="elem_Repositories"><rect codeLine="34" fill="#F1F1F1" height="83.0906" id="Repositories" rx="2" ry="2" style="stroke:#181818;stroke-width:0.4000000000000001;" width="286.4" x="136" y="256"/><ellipse cx="244.2" cy="268.8" fill="#ADD1B2" rx="8.8" ry="8.8" style="stroke:#181818;stroke-width:0.8000000000000002;"/><path d="M246.4125,265.5 Q246.5375,265.325 246.6875,265.2375 Q246.8375,265.15 247.0125,265.15 Q247.3125,265.15 247.5,265.3625 Q247.6875,265.5625 247.6875,266.05 L247.6875,267.2125 Q247.6875,267.7 247.5,267.9125 Q247.3125,268.125 247.0125,268.125 Q246.7375,268.125 246.575,267.9625 Q246.4125,267.8125 246.325,267.4 Q246.2875,267.1125 246.1375,266.9625 Q245.875,266.6625 245.3875,266.4875 Q244.9,266.3125 244.4,266.3125 Q243.7875,266.3125 243.275,266.575 Q242.775,266.8375 242.375,267.4375 Q241.9875,268.0375 241.9875,268.8625 L241.9875,269.7375 Q241.9875,270.725 242.7,271.3875 Q243.4125,272.0375 244.6875,272.0375 Q245.4375,272.0375 245.9625,271.8375 Q246.275,271.7125 246.6125,271.3625 Q246.825,271.15 246.9375,271.0875 Q247.0625,271.025 247.225,271.025 Q247.4875,271.025 247.6875,271.2375 Q247.9,271.4375 247.9,271.7125 Q247.9,271.9875 247.625,272.3125 Q247.225,272.775 246.5875,273.0375 Q245.725,273.4 244.6875,273.4 Q243.475,273.4 242.5125,272.9 Q241.725,272.5 241.175,271.65 Q240.625,270.7875 240.625,269.7625 L240.625,268.8375 Q240.625,267.775 241.1125,266.8625 Q241.6125,265.9375 242.4875,265.45 Q243.3625,264.95 244.35,264.95 Q244.9375,264.95 245.45,265.0875 Q245.975,265.2125 246.4125,265.5 Z " fill="#000000"/><text fill="#000000" font-family="sans-serif" font-size="11.2" lengthAdjust="spacing" textLength="63.2" x="260.6" y="273.4375">Repositories</text><line style="stroke:#181818;stroke-width:0.4000000000000001;" x1="136.8" x2="421.6" y1="281.6" y2="281.6"/><line style="stroke:#181818;stroke-width:0.4000000000000001;" x1="136.8" x2="421.6" y1="288" y2="288"/><text fill="#000000" font-family="sans-serif" font-size="11.2" lengthAdjust="spacing" textLength="75.2" x="140.8" y="303.2859">-Repositories()</text><text fill="#000000" font-family="sans-serif" font-size="11.2" lengthAdjust="spacing" textLength="145.6" x="140.8" y="318.1828">+getInstance() : Repositories</text><text fill="#000000" font-family="sans-serif" font-size="11.2" lengthAdjust="spacing" textLength="276.8" x="140.8" y="333.0797">+getGreenSpaceRepository() : GreenSpaceRepository</text></g><!--class Organization--><g id="elem_Organization"><rect codeLine="40" fill="#F1F1F1" height="38.4" id="Organization" rx="2" ry="2" style="stroke:#181818;stroke-width:0.4000000000000001;" width="89.6" x="406.4" y="489.6"/><ellipse cx="418.4" cy="502.4" fill="#ADD1B2" rx="8.8" ry="8.8" style="stroke:#181818;stroke-width:0.8000000000000002;"/><path d="M420.6125,499.1 Q420.7375,498.925 420.8875,498.8375 Q421.0375,498.75 421.2125,498.75 Q421.5125,498.75 421.7,498.9625 Q421.8875,499.1625 421.8875,499.65 L421.8875,500.8125 Q421.8875,501.3 421.7,501.5125 Q421.5125,501.725 421.2125,501.725 Q420.9375,501.725 420.775,501.5625 Q420.6125,501.4125 420.525,501 Q420.4875,500.7125 420.3375,500.5625 Q420.075,500.2625 419.5875,500.0875 Q419.1,499.9125 418.6,499.9125 Q417.9875,499.9125 417.475,500.175 Q416.975,500.4375 416.575,501.0375 Q416.1875,501.6375 416.1875,502.4625 L416.1875,503.3375 Q416.1875,504.325 416.9,504.9875 Q417.6125,505.6375 418.8875,505.6375 Q419.6375,505.6375 420.1625,505.4375 Q420.475,505.3125 420.8125,504.9625 Q421.025,504.75 421.1375,504.6875 Q421.2625,504.625 421.425,504.625 Q421.6875,504.625 421.8875,504.8375 Q422.1,505.0375 422.1,505.3125 Q422.1,505.5875 421.825,505.9125 Q421.425,506.375 420.7875,506.6375 Q419.925,507 418.8875,507 Q417.675,507 416.7125,506.5 Q415.925,506.1 415.375,505.25 Q414.825,504.3875 414.825,503.3625 L414.825,502.4375 Q414.825,501.375 415.3125,500.4625 Q415.8125,499.5375 416.6875,499.05 Q417.5625,498.55 418.55,498.55 Q419.1375,498.55 419.65,498.6875 Q420.175,498.8125 420.6125,499.1 Z " fill="#000000"/><text fill="#000000" font-family="sans-serif" font-size="11.2" lengthAdjust="spacing" textLength="64" x="429.6" y="507.0375">Organization</text><line style="stroke:#181818;stroke-width:0.4000000000000001;" x1="407.2" x2="495.2" y1="515.2" y2="515.2"/><line style="stroke:#181818;stroke-width:0.4000000000000001;" x1="407.2" x2="495.2" y1="521.6" y2="521.6"/></g><!--class AgendaRepository--><g id="elem_AgendaRepository"><rect codeLine="42" fill="#F1F1F1" height="157.575" id="AgendaRepository" rx="2" ry="2" style="stroke:#181818;stroke-width:0.4000000000000001;" width="279.2" x="139.6" y="576.8"/><ellipse cx="229" cy="589.6" fill="#ADD1B2" rx="8.8" ry="8.8" style="stroke:#181818;stroke-width:0.8000000000000002;"/><path d="M231.2125,586.3 Q231.3375,586.125 231.4875,586.0375 Q231.6375,585.95 231.8125,585.95 Q232.1125,585.95 232.3,586.1625 Q232.4875,586.3625 232.4875,586.85 L232.4875,588.0125 Q232.4875,588.5 232.3,588.7125 Q232.1125,588.925 231.8125,588.925 Q231.5375,588.925 231.375,588.7625 Q231.2125,588.6125 231.125,588.2 Q231.0875,587.9125 230.9375,587.7625 Q230.675,587.4625 230.1875,587.2875 Q229.7,587.1125 229.2,587.1125 Q228.5875,587.1125 228.075,587.375 Q227.575,587.6375 227.175,588.2375 Q226.7875,588.8375 226.7875,589.6625 L226.7875,590.5375 Q226.7875,591.525 227.5,592.1875 Q228.2125,592.8375 229.4875,592.8375 Q230.2375,592.8375 230.7625,592.6375 Q231.075,592.5125 231.4125,592.1625 Q231.625,591.95 231.7375,591.8875 Q231.8625,591.825 232.025,591.825 Q232.2875,591.825 232.4875,592.0375 Q232.7,592.2375 232.7,592.5125 Q232.7,592.7875 232.425,593.1125 Q232.025,593.575 231.3875,593.8375 Q230.525,594.2 229.4875,594.2 Q228.275,594.2 227.3125,593.7 Q226.525,593.3 225.975,592.45 Q225.425,591.5875 225.425,590.5625 L225.425,589.6375 Q225.425,588.575 225.9125,587.6625 Q226.4125,586.7375 227.2875,586.25 Q228.1625,585.75 229.15,585.75 Q229.7375,585.75 230.25,585.8875 Q230.775,586.0125 231.2125,586.3 Z " fill="#000000"/><text fill="#000000" font-family="sans-serif" font-size="11.2" lengthAdjust="spacing" textLength="93.6" x="245.4" y="594.2375">AgendaRepository</text><line style="stroke:#181818;stroke-width:0.4000000000000001;" x1="140.4" x2="418" y1="602.4" y2="602.4"/><text fill="#000000" font-family="sans-serif" font-size="11.2" lengthAdjust="spacing" textLength="68" x="144.4" y="617.6859">-name: String</text><text fill="#000000" font-family="sans-serif" font-size="11.2" lengthAdjust="spacing" textLength="68" x="144.4" y="632.5828">-area: double</text><text fill="#000000" font-family="sans-serif" font-size="11.2" lengthAdjust="spacing" textLength="50.4" x="144.4" y="647.4797">-size: Size</text><line style="stroke:#181818;stroke-width:0.4000000000000001;" x1="140.4" x2="418" y1="653.4906" y2="653.4906"/><text fill="#000000" font-family="sans-serif" font-size="11.2" lengthAdjust="spacing" textLength="256" x="144.4" y="668.7766">+GreenSpace(String name, double area, Size size)</text><text fill="#000000" font-family="sans-serif" font-size="11.2" lengthAdjust="spacing" textLength="269.6" x="144.4" y="683.6734">+validateGreenSpaceName(String greenSpaceName)</text><text fill="#000000" font-family="sans-serif" font-size="11.2" lengthAdjust="spacing" textLength="95.2" x="144.4" y="698.5703">+getName(): String</text><text fill="#000000" font-family="sans-serif" font-size="11.2" lengthAdjust="spacing" textLength="90.4" x="144.4" y="713.4672">+equals(Object o)</text><text fill="#000000" font-family="sans-serif" font-size="11.2" lengthAdjust="spacing" textLength="92.8" x="144.4" y="728.3641">+toString() : String</text></g><!--class Entry--><g id="elem_Entry"><rect codeLine="54" fill="#F1F1F1" height="97.9875" id="Entry" rx="2" ry="2" style="stroke:#181818;stroke-width:0.4000000000000001;" width="145.6" x="304" y="783.2"/><ellipse cx="360.2" cy="796" fill="#ADD1B2" rx="8.8" ry="8.8" style="stroke:#181818;stroke-width:0.8000000000000002;"/><path d="M362.4125,792.7 Q362.5375,792.525 362.6875,792.4375 Q362.8375,792.35 363.0125,792.35 Q363.3125,792.35 363.5,792.5625 Q363.6875,792.7625 363.6875,793.25 L363.6875,794.4125 Q363.6875,794.9 363.5,795.1125 Q363.3125,795.325 363.0125,795.325 Q362.7375,795.325 362.575,795.1625 Q362.4125,795.0125 362.325,794.6 Q362.2875,794.3125 362.1375,794.1625 Q361.875,793.8625 361.3875,793.6875 Q360.9,793.5125 360.4,793.5125 Q359.7875,793.5125 359.275,793.775 Q358.775,794.0375 358.375,794.6375 Q357.9875,795.2375 357.9875,796.0625 L357.9875,796.9375 Q357.9875,797.925 358.7,798.5875 Q359.4125,799.2375 360.6875,799.2375 Q361.4375,799.2375 361.9625,799.0375 Q362.275,798.9125 362.6125,798.5625 Q362.825,798.35 362.9375,798.2875 Q363.0625,798.225 363.225,798.225 Q363.4875,798.225 363.6875,798.4375 Q363.9,798.6375 363.9,798.9125 Q363.9,799.1875 363.625,799.5125 Q363.225,799.975 362.5875,800.2375 Q361.725,800.6 360.6875,800.6 Q359.475,800.6 358.5125,800.1 Q357.725,799.7 357.175,798.85 Q356.625,797.9875 356.625,796.9625 L356.625,796.0375 Q356.625,794.975 357.1125,794.0625 Q357.6125,793.1375 358.4875,792.65 Q359.3625,792.15 360.35,792.15 Q360.9375,792.15 361.45,792.2875 Q361.975,792.4125 362.4125,792.7 Z " fill="#000000"/><text fill="#000000" font-family="sans-serif" font-size="11.2" lengthAdjust="spacing" textLength="26.4" x="376.6" y="800.6375">Entry</text><line style="stroke:#181818;stroke-width:0.4000000000000001;" x1="304.8" x2="448.8" y1="808.8" y2="808.8"/><text fill="#000000" font-family="sans-serif" font-size="11.2" lengthAdjust="spacing" textLength="60.8" x="308.8" y="824.0859">-task: String</text><text fill="#000000" font-family="sans-serif" font-size="11.2" lengthAdjust="spacing" textLength="136" x="308.8" y="838.9828">-greenSpace: GreenSpace</text><text fill="#000000" font-family="sans-serif" font-size="11.2" lengthAdjust="spacing" textLength="72.8" x="308.8" y="853.8797">-status: Status</text><text fill="#000000" font-family="sans-serif" font-size="11.2" lengthAdjust="spacing" textLength="64" x="308.8" y="868.7766">-duration: int</text><line style="stroke:#181818;stroke-width:0.4000000000000001;" x1="304.8" x2="448.8" y1="874.7875" y2="874.7875"/></g><!--class OrganizationRepository--><g id="elem_OrganizationRepository"><rect fill="#F1F1F1" height="38.4" id="OrganizationRepository" rx="2" ry="2" style="stroke:#181818;stroke-width:0.4000000000000001;" width="144" x="332" y="388"/><ellipse cx="344" cy="400.8" fill="#ADD1B2" rx="8.8" ry="8.8" style="stroke:#181818;stroke-width:0.8000000000000002;"/><path d="M346.2125,397.5 Q346.3375,397.325 346.4875,397.2375 Q346.6375,397.15 346.8125,397.15 Q347.1125,397.15 347.3,397.3625 Q347.4875,397.5625 347.4875,398.05 L347.4875,399.2125 Q347.4875,399.7 347.3,399.9125 Q347.1125,400.125 346.8125,400.125 Q346.5375,400.125 346.375,399.9625 Q346.2125,399.8125 346.125,399.4 Q346.0875,399.1125 345.9375,398.9625 Q345.675,398.6625 345.1875,398.4875 Q344.7,398.3125 344.2,398.3125 Q343.5875,398.3125 343.075,398.575 Q342.575,398.8375 342.175,399.4375 Q341.7875,400.0375 341.7875,400.8625 L341.7875,401.7375 Q341.7875,402.725 342.5,403.3875 Q343.2125,404.0375 344.4875,404.0375 Q345.2375,404.0375 345.7625,403.8375 Q346.075,403.7125 346.4125,403.3625 Q346.625,403.15 346.7375,403.0875 Q346.8625,403.025 347.025,403.025 Q347.2875,403.025 347.4875,403.2375 Q347.7,403.4375 347.7,403.7125 Q347.7,403.9875 347.425,404.3125 Q347.025,404.775 346.3875,405.0375 Q345.525,405.4 344.4875,405.4 Q343.275,405.4 342.3125,404.9 Q341.525,404.5 340.975,403.65 Q340.425,402.7875 340.425,401.7625 L340.425,400.8375 Q340.425,399.775 340.9125,398.8625 Q341.4125,397.9375 342.2875,397.45 Q343.1625,396.95 344.15,396.95 Q344.7375,396.95 345.25,397.0875 Q345.775,397.2125 346.2125,397.5 Z " fill="#000000"/><text fill="#000000" font-family="sans-serif" font-size="11.2" lengthAdjust="spacing" textLength="118.4" x="355.2" y="405.4375">OrganizationRepository</text><line style="stroke:#181818;stroke-width:0.4000000000000001;" x1="332.8" x2="475.2" y1="413.6" y2="413.6"/><line style="stroke:#181818;stroke-width:0.4000000000000001;" x1="332.8" x2="475.2" y1="420" y2="420"/></g><!--link CancelEntryUI to AgendaController--><g id="link_CancelEntryUI_AgendaController"><path codeLine="61" d="M151.264,99.2 C172.672,99.2 192.504,99.2 218.208,99.2 " fill="none" id="CancelEntryUI-to-AgendaController" style="stroke:#181818;stroke-width:0.8000000000000002;stroke-dasharray:7.0,7.0;"/><polygon fill="#181818" points="223.008,99.2,215.808,96,219.008,99.2,215.808,102.4,223.008,99.2" style="stroke:#181818;stroke-width:0.8000000000000002;"/><text fill="#000000" font-family="sans-serif" font-size="10.4" lengthAdjust="spacing" textLength="42.4" x="166" y="93.6227">controller</text></g><!--link AgendaController to Repositories--><g id="link_AgendaController_Repositories"><path codeLine="62" d="M399.728,155.608 C372.56,187.432 342.1805,223.0213 317.3965,252.0533 " fill="none" id="AgendaController-to-Repositories" style="stroke:#181818;stroke-width:0.8000000000000002;stroke-dasharray:7.0,7.0;"/><polygon fill="#181818" points="314.28,255.704,321.3885,252.3057,316.8771,252.6618,316.521,248.1503,314.28,255.704" style="stroke:#181818;stroke-width:0.8000000000000002;"/><text fill="#000000" font-family="sans-serif" font-size="10.4" lengthAdjust="spacing" textLength="53.6" x="344.8" y="228.8227">repositories</text></g><!--link Repositories to Repositories--><g id="link_Repositories_Repositories"><path codeLine="64" d="M422.504,287.064 C439.392,288.992 450.4,292.504 450.4,297.6 C450.4,302.696 444.161,305.6635 427.273,307.5915 " fill="none" id="Repositories-to-Repositories" style="stroke:#181818;stroke-width:0.8000000000000002;"/><polygon fill="#181818" points="422.504,308.136,430.0205,310.4987,426.4782,307.6823,429.2946,304.14,422.504,308.136" style="stroke:#181818;stroke-width:0.8000000000000002;"/><text fill="#000000" font-family="sans-serif" font-size="10.4" lengthAdjust="spacing" textLength="39.2" x="455.2" y="302.0227">instance</text></g><!--link Repositories to OrganizationRepository--><g id="link_Repositories_OrganizationRepository"><path codeLine="65" d="M326.384,339.232 C345.712,355.952 363.482,371.3395 378.906,384.6835 " fill="none" id="Repositories-to-OrganizationRepository" style="stroke:#181818;stroke-width:0.8000000000000002;"/><polygon fill="#181818" points="382.536,387.824,379.1846,380.6932,379.511,385.2069,374.9973,385.5333,382.536,387.824" style="stroke:#181818;stroke-width:0.8000000000000002;"/><text fill="#000000" font-family="sans-serif" font-size="10.4" lengthAdjust="spacing" textLength="5.6" x="371.0217" y="379.0946">1</text></g><!--link OrganizationRepository to Organization--><g id="link_OrganizationRepository_Organization"><path codeLine="66" d="M412.768,426.576 C421.248,444.536 431.9668,467.2594 440.4308,485.1874 " fill="none" id="OrganizationRepository-to-Organization" style="stroke:#181818;stroke-width:0.8000000000000002;"/><polygon fill="#181818" points="442.48,489.528,442.2999,481.651,440.7723,485.9108,436.5124,484.3833,442.48,489.528" style="stroke:#181818;stroke-width:0.8000000000000002;"/><text fill="#000000" font-family="sans-serif" font-size="10.4" lengthAdjust="spacing" textLength="60" x="431.2" y="462.4227">has manager</text><text fill="#000000" font-family="sans-serif" font-size="10.4" lengthAdjust="spacing" textLength="5.6" x="408.5481" y="443.8788">1</text><text fill="#000000" font-family="sans-serif" font-size="10.4" lengthAdjust="spacing" textLength="5.6" x="433.928" y="480.4995">1</text></g><!--link AgendaController to Organization--><g id="link_AgendaController_Organization"><path codeLine="68" d="M466.04,155.656 C481.2,200.456 500,256 500,256 C500,256 500,339.2 500,339.2 C500,339.2 498.4,465.6 498.4,465.6 C498.4,465.6 488.0592,474.8967 475.3392,486.3207 " fill="none" id="AgendaController-to-Organization" style="stroke:#181818;stroke-width:0.8000000000000002;"/><polygon fill="#181818" points="471.768,489.528,479.2629,487.0978,474.744,486.8552,474.9865,482.3363,471.768,489.528" style="stroke:#181818;stroke-width:0.8000000000000002;"/><text fill="#000000" font-family="sans-serif" font-size="10.4" lengthAdjust="spacing" textLength="5.6" x="462.0941" y="173.4096">1</text></g><!--link Organization to Entry--><g id="link_Organization_Entry"><path codeLine="69" d="M449.664,528.376 C445.24,582.408 432.8,734.4 432.8,734.4 C432.8,734.4 421.0923,754.6375 407.0363,778.9255 " fill="none" id="Organization-to-Entry" style="stroke:#181818;stroke-width:0.8000000000000002;"/><polygon fill="#181818" points="404.632,783.08,411.008,778.4512,406.6356,779.618,405.4688,775.2455,404.632,783.08" style="stroke:#181818;stroke-width:0.8000000000000002;"/><text fill="#000000" font-family="sans-serif" font-size="10.4" lengthAdjust="spacing" textLength="137.6" x="445.6" y="660.0227">change entry status to cancel</text><text fill="#000000" font-family="sans-serif" font-size="10.4" lengthAdjust="spacing" textLength="5.6" x="443.0613" y="545.725">1</text><text fill="#000000" font-family="sans-serif" font-size="10.4" lengthAdjust="spacing" textLength="16" x="390.9251" y="774.2511">1..*</text></g><!--link Repositories to AgendaRepository--><g id="link_Repositories_AgendaRepository"><path codeLine="70" d="M279.2,339.28 C279.2,396.968 279.2,498.568 279.2,571.744 " fill="none" id="Repositories-to-AgendaRepository" style="stroke:#181818;stroke-width:0.8000000000000002;"/><polygon fill="#181818" points="279.2,576.544,282.4,569.344,279.2,572.544,276,569.344,279.2,576.544" style="stroke:#181818;stroke-width:0.8000000000000002;"/><text fill="#000000" font-family="sans-serif" font-size="10.4" lengthAdjust="spacing" textLength="5.6" x="273.3944" y="567.8711">1</text></g><!--link AgendaRepository to Entry--><g id="link_AgendaRepository_Entry"><path codeLine="71" d="M322.864,734.6 C332.096,751.144 339.2442,763.9369 347.6362,778.9689 " fill="none" id="AgendaRepository-to-Entry" style="stroke:#181818;stroke-width:0.8000000000000002;"/><polygon fill="#181818" points="349.976,783.16,349.2604,775.3135,348.0262,779.6674,343.6722,778.4332,349.976,783.16" style="stroke:#181818;stroke-width:0.8000000000000002;"/><text fill="#000000" font-family="sans-serif" font-size="10.4" lengthAdjust="spacing" textLength="5.6" x="320.1373" y="751.8645">1</text><text fill="#000000" font-family="sans-serif" font-size="10.4" lengthAdjust="spacing" textLength="5.6" x="340.9507" y="774.3403">1</text></g><!--link Organization to AgendaRepository--><g id="link_Organization_AgendaRepository"><path codeLine="72" d="M429.064,528.288 C414.096,540.92 396.8755,555.4553 375.4435,573.5513 " fill="none" id="Organization-to-AgendaRepository" style="stroke:#181818;stroke-width:0.8000000000000002;"/><polygon fill="#181818" points="371.776,576.648,379.3417,574.448,374.8323,574.0675,375.2128,569.558,371.776,576.648" style="stroke:#181818;stroke-width:0.8000000000000002;"/><text fill="#000000" font-family="sans-serif" font-size="10.4" lengthAdjust="spacing" textLength="5.6" x="417.6976" y="545.6167">1</text><text fill="#000000" font-family="sans-serif" font-size="10.4" lengthAdjust="spacing" textLength="5.6" x="373.0495" y="567.7151">1</text></g><!--SRC=[bLNRRjim37tNLn1zIRhMmVQQ0GM2RXZoiW8D-W6ApTfQ72cJw0rfi7yV9JkMbCikUMXAyf0w98-KYTielPDMRc5hj2aRQxO8P3iKCRAJvKRMkA9zYs2n9AdhDWMuHbRcfz8rlChMfP5MQQJz3c5dshqtnEH2q5Wo8iagM-dSWiYgTKUuB8rUgJU4zq9CMdmb80DMrGr1fJmTPRGG8GSUfIwn_Qp9xb-M1r5ekSKvhBYIhZ-Amd4PDlal6zAYd4DbkdNhpTeYwXNtoeWlu_z2t3rZhHoXZSwNvVHM51Q_T-ZeaoIPc5_vnCHSy27UTDrwgqRiZlbGhCUkNySE5ZNgIZuQRi6qBTg34C2V2omYXlF_ZbbqrA0cLKe_i6VS6QV8s3t8Au6XQ8q9qnYTta8wfnW8MGLdNJimP5uBzcVQiqQc_Gx1B_H-M1hu3Tud96P19dx9aBEBunrFKkWEFTNCTnmbS0DBxSZhAH1EGH7oVvCPMJpPMchr5de_dAm-uWT-gOPxJwhStXE5FSZbdoOtZcje-eTiLIK9Ot9Gyr2WphnH7RtYCuPtB7v-2QPFwszyFy4CO38z9aneW8_TXqixj4pIRVAMhzpEldcIr3cFzz-zh-ficEuS-ARvGxAN0MOFPnUDAPMZ8SwYCqv9DS1mcqfYaWKBVWzryG0t7sukIo575tbjJxgNdhXQDPLGKlUoEsGK5pAvYqOws4hD3xmLanEkve_9vqCw8ZDKTbwiDPkzk-cNxYVVy6yA0WQptwT_vSkmjFDX-IgdjqMSEZBUuQ1hL2uK-mq0]--></g></svg>