<?xml version="1.0" encoding="us-ascii" standalone="no"?><svg xmlns="http://www.w3.org/2000/svg" xmlns:xlink="http://www.w3.org/1999/xlink" contentStyleType="text/css" height="414px" preserveAspectRatio="none" style="width:379px;height:414px;background:#FFFFFF;" version="1.1" viewBox="0 0 379 414" width="379px" zoomAndPan="magnify"><defs/><g><text fill="#000000" font-family="sans-serif" font-size="14" font-weight="bold" lengthAdjust="spacing" textLength="351" x="10" y="30.1074">System Sequence Diagram (SSD) - Alternative One</text><rect fill="#FFFFFF" height="179.7461" style="stroke:#181818;stroke-width:1.0;" width="10" x="53.25" y="133.2422"/><rect fill="#FFFFFF" height="31.291" style="stroke:#181818;stroke-width:1.0;" width="10" x="295.25" y="156.5332"/><rect fill="#FFFFFF" height="31.291" style="stroke:#181818;stroke-width:1.0;" width="10" x="295.25" y="219.1152"/><rect fill="#FFFFFF" height="31.291" style="stroke:#181818;stroke-width:1.0;" width="10" x="295.25" y="281.6973"/><line style="stroke:#181818;stroke-width:0.5;stroke-dasharray:5.0,5.0;" x1="57.75" x2="57.75" y1="123.2422" y2="330.9883"/><line style="stroke:#181818;stroke-width:0.5;stroke-dasharray:5.0,5.0;" x1="300.25" x2="300.25" y1="123.2422" y2="330.9883"/><text fill="#000000" font-family="sans-serif" font-size="14" lengthAdjust="spacing" textLength="31" x="39.75" y="119.7285">GSM</text><ellipse cx="58.25" cy="53.1211" fill="#E3E3E3" rx="8" ry="8" style="stroke:#181818;stroke-width:0.5;"/><path d="M58.25,61.1211 L58.25,88.1211 M45.25,69.1211 L71.25,69.1211 M58.25,88.1211 L45.25,103.1211 M58.25,88.1211 L71.25,103.1211 " fill="none" style="stroke:#181818;stroke-width:0.5;"/><text fill="#000000" font-family="sans-serif" font-size="14" lengthAdjust="spacing" textLength="31" x="39.75" y="345.0957">GSM</text><ellipse cx="58.25" cy="357.1094" fill="#E3E3E3" rx="8" ry="8" style="stroke:#181818;stroke-width:0.5;"/><path d="M58.25,365.1094 L58.25,392.1094 M45.25,373.1094 L71.25,373.1094 M58.25,392.1094 L45.25,407.1094 M58.25,392.1094 L71.25,407.1094 " fill="none" style="stroke:#181818;stroke-width:0.5;"/><rect fill="#E3E3E3" height="32.6211" rx="2.5" ry="2.5" style="stroke:#181818;stroke-width:0.5;" width="64" x="268.25" y="89.6211"/><text fill="#000000" font-family="sans-serif" font-size="14" lengthAdjust="spacing" textLength="50" x="275.25" y="111.7285">:System</text><rect fill="#E3E3E3" height="32.6211" rx="2.5" ry="2.5" style="stroke:#181818;stroke-width:0.5;" width="64" x="268.25" y="329.9883"/><text fill="#000000" font-family="sans-serif" font-size="14" lengthAdjust="spacing" textLength="50" x="275.25" y="352.0957">:System</text><rect fill="#FFFFFF" height="179.7461" style="stroke:#181818;stroke-width:1.0;" width="10" x="53.25" y="133.2422"/><rect fill="#FFFFFF" height="31.291" style="stroke:#181818;stroke-width:1.0;" width="10" x="295.25" y="156.5332"/><rect fill="#FFFFFF" height="31.291" style="stroke:#181818;stroke-width:1.0;" width="10" x="295.25" y="219.1152"/><rect fill="#FFFFFF" height="31.291" style="stroke:#181818;stroke-width:1.0;" width="10" x="295.25" y="281.6973"/><polygon fill="#181818" points="283.25,152.5332,293.25,156.5332,283.25,160.5332,287.25,156.5332" style="stroke:#181818;stroke-width:1.0;"/><line style="stroke:#181818;stroke-width:1.0;" x1="63.25" x2="289.25" y1="156.5332" y2="156.5332"/><text fill="#000000" font-family="sans-serif" font-size="13" font-weight="bold" lengthAdjust="spacing" textLength="7" x="70.25" y="151.2705">1</text><text fill="#000000" font-family="sans-serif" font-size="13" lengthAdjust="spacing" textLength="202" x="81.25" y="151.2705">Request to assign Vehicle to Entry</text><polygon fill="#181818" points="74.25,183.8242,64.25,187.8242,74.25,191.8242,70.25,187.8242" style="stroke:#181818;stroke-width:1.0;"/><line style="stroke:#181818;stroke-width:1.0;stroke-dasharray:2.0,2.0;" x1="68.25" x2="299.25" y1="187.8242" y2="187.8242"/><text fill="#000000" font-family="sans-serif" font-size="13" font-weight="bold" lengthAdjust="spacing" textLength="7" x="80.25" y="182.5615">2</text><text fill="#000000" font-family="sans-serif" font-size="13" lengthAdjust="spacing" textLength="133" x="91.25" y="182.5615">Retrieves list of Entries</text><polygon fill="#181818" points="283.25,215.1152,293.25,219.1152,283.25,223.1152,287.25,219.1152" style="stroke:#181818;stroke-width:1.0;"/><line style="stroke:#181818;stroke-width:1.0;" x1="63.25" x2="289.25" y1="219.1152" y2="219.1152"/><text fill="#000000" font-family="sans-serif" font-size="13" font-weight="bold" lengthAdjust="spacing" textLength="7" x="70.25" y="213.8525">3</text><text fill="#000000" font-family="sans-serif" font-size="13" lengthAdjust="spacing" textLength="79" x="81.25" y="213.8525">Selects Entry</text><polygon fill="#181818" points="74.25,246.4063,64.25,250.4063,74.25,254.4063,70.25,250.4063" style="stroke:#181818;stroke-width:1.0;"/><line style="stroke:#181818;stroke-width:1.0;stroke-dasharray:2.0,2.0;" x1="68.25" x2="299.25" y1="250.4063" y2="250.4063"/><text fill="#000000" font-family="sans-serif" font-size="13" font-weight="bold" lengthAdjust="spacing" textLength="7" x="80.25" y="245.1436">4</text><text fill="#000000" font-family="sans-serif" font-size="13" lengthAdjust="spacing" textLength="142" x="91.25" y="245.1436">Retrieves list of Vehicles</text><polygon fill="#181818" points="283.25,277.6973,293.25,281.6973,283.25,285.6973,287.25,281.6973" style="stroke:#181818;stroke-width:1.0;"/><line style="stroke:#181818;stroke-width:1.0;" x1="63.25" x2="289.25" y1="281.6973" y2="281.6973"/><text fill="#000000" font-family="sans-serif" font-size="13" font-weight="bold" lengthAdjust="spacing" textLength="7" x="70.25" y="276.4346">5</text><text fill="#000000" font-family="sans-serif" font-size="13" lengthAdjust="spacing" textLength="91" x="81.25" y="276.4346">Selects Vehicle</text><polygon fill="#181818" points="69.25,308.9883,59.25,312.9883,69.25,316.9883,65.25,312.9883" style="stroke:#181818;stroke-width:1.0;"/><line style="stroke:#181818;stroke-width:1.0;stroke-dasharray:2.0,2.0;" x1="63.25" x2="299.25" y1="312.9883" y2="312.9883"/><text fill="#000000" font-family="sans-serif" font-size="13" font-weight="bold" lengthAdjust="spacing" textLength="7" x="75.25" y="307.7256">6</text><text fill="#000000" font-family="sans-serif" font-size="13" lengthAdjust="spacing" textLength="194" x="86.25" y="307.7256">Displays message of (In)Success</text><!--SRC=[hPBFJiCm3CRlVGfhf-tG5zW12Qa8SK18HE9kCg-rbYObTelwzZXTcIO41n2-n7By_VpbZvmu3fYnXpx5vBkSUWBD8rLosHdGdx0bftCWoEGLOnkk6wJ3GthdsC8HWr1LAQkrkbcKUd3qDbBq10rZMzgtpZKxgE4sAEM8oXF1KpGPZfhYsBzIjjnhoh2vTuyRG05RAnkcx7d0gB3Pd-dBvZbTD3oXqj8D5hP2VVDfP0_FnOeeQ3APS1lXXJhsvjKgTr7plCWkd1KCQwoSsf25N7YQcIOI26pOT5mWJB983lGTwAidHy6kLFvd_7gSlynVfRzpqB0C0MU1daJiZnGFsuUuSwFtLld1nbMblDG7]--></g></svg>