<?xml version="1.0" encoding="us-ascii" standalone="no"?><svg xmlns="http://www.w3.org/2000/svg" xmlns:xlink="http://www.w3.org/1999/xlink" contentStyleType="text/css" height="592px" preserveAspectRatio="none" style="width:461px;height:592px;background:#FFFFFF;" version="1.1" viewBox="0 0 461 592" width="461px" zoomAndPan="magnify"><defs/><g><text fill="#000000" font-family="sans-serif" font-size="14" font-weight="bold" lengthAdjust="spacing" textLength="351" x="53.5" y="30.1074">System Sequence Diagram (SSD) - Alternative One</text><rect fill="#FFFFFF" height="365.832" style="stroke:#181818;stroke-width:1.0;" width="10" x="43.5" y="133.2422"/><rect fill="#FFFFFF" height="31.291" style="stroke:#181818;stroke-width:1.0;" width="10" x="285.5" y="156.5332"/><rect fill="#FFFFFF" height="31.291" style="stroke:#181818;stroke-width:1.0;" width="10" x="285.5" y="219.1152"/><rect fill="#FFFFFF" height="31.291" style="stroke:#181818;stroke-width:1.0;" width="10" x="285.5" y="345.2793"/><rect fill="none" height="100.5039" style="stroke:#000000;stroke-width:1.5;" width="312.5" x="20" y="391.5703"/><rect fill="none" height="19.291" style="stroke:#000000;stroke-width:1.5;" width="86" x="40" y="465.7832"/><line style="stroke:#181818;stroke-width:0.5;stroke-dasharray:5.0,5.0;" x1="48" x2="48" y1="123.2422" y2="509.0742"/><line style="stroke:#181818;stroke-width:0.5;stroke-dasharray:5.0,5.0;" x1="290.5" x2="290.5" y1="123.2422" y2="509.0742"/><text fill="#000000" font-family="sans-serif" font-size="14" lengthAdjust="spacing" textLength="31" x="30" y="119.7285">GSM</text><ellipse cx="48.5" cy="53.1211" fill="#E3E3E3" rx="8" ry="8" style="stroke:#181818;stroke-width:0.5;"/><path d="M48.5,61.1211 L48.5,88.1211 M35.5,69.1211 L61.5,69.1211 M48.5,88.1211 L35.5,103.1211 M48.5,88.1211 L61.5,103.1211 " fill="none" style="stroke:#181818;stroke-width:0.5;"/><text fill="#000000" font-family="sans-serif" font-size="14" lengthAdjust="spacing" textLength="31" x="30" y="523.1816">GSM</text><ellipse cx="48.5" cy="535.1953" fill="#E3E3E3" rx="8" ry="8" style="stroke:#181818;stroke-width:0.5;"/><path d="M48.5,543.1953 L48.5,570.1953 M35.5,551.1953 L61.5,551.1953 M48.5,570.1953 L35.5,585.1953 M48.5,570.1953 L61.5,585.1953 " fill="none" style="stroke:#181818;stroke-width:0.5;"/><rect fill="#E3E3E3" height="32.6211" rx="2.5" ry="2.5" style="stroke:#181818;stroke-width:0.5;" width="64" x="258.5" y="89.6211"/><text fill="#000000" font-family="sans-serif" font-size="14" lengthAdjust="spacing" textLength="50" x="265.5" y="111.7285">:System</text><rect fill="#E3E3E3" height="32.6211" rx="2.5" ry="2.5" style="stroke:#181818;stroke-width:0.5;" width="64" x="258.5" y="508.0742"/><text fill="#000000" font-family="sans-serif" font-size="14" lengthAdjust="spacing" textLength="50" x="265.5" y="530.1816">:System</text><rect fill="#FFFFFF" height="365.832" style="stroke:#181818;stroke-width:1.0;" width="10" x="43.5" y="133.2422"/><rect fill="#FFFFFF" height="31.291" style="stroke:#181818;stroke-width:1.0;" width="10" x="285.5" y="156.5332"/><rect fill="#FFFFFF" height="31.291" style="stroke:#181818;stroke-width:1.0;" width="10" x="285.5" y="219.1152"/><rect fill="#FFFFFF" height="31.291" style="stroke:#181818;stroke-width:1.0;" width="10" x="285.5" y="345.2793"/><polygon fill="#181818" points="273.5,152.5332,283.5,156.5332,273.5,160.5332,277.5,156.5332" style="stroke:#181818;stroke-width:1.0;"/><line style="stroke:#181818;stroke-width:1.0;" x1="53.5" x2="279.5" y1="156.5332" y2="156.5332"/><text fill="#000000" font-family="sans-serif" font-size="13" font-weight="bold" lengthAdjust="spacing" textLength="7" x="60.5" y="151.2705">1</text><text fill="#000000" font-family="sans-serif" font-size="13" lengthAdjust="spacing" textLength="202" x="71.5" y="151.2705">Request to assign Vehicle to Entry</text><polygon fill="#181818" points="64.5,183.8242,54.5,187.8242,64.5,191.8242,60.5,187.8242" style="stroke:#181818;stroke-width:1.0;"/><line style="stroke:#181818;stroke-width:1.0;stroke-dasharray:2.0,2.0;" x1="58.5" x2="289.5" y1="187.8242" y2="187.8242"/><text fill="#000000" font-family="sans-serif" font-size="13" font-weight="bold" lengthAdjust="spacing" textLength="7" x="70.5" y="182.5615">2</text><text fill="#000000" font-family="sans-serif" font-size="13" lengthAdjust="spacing" textLength="133" x="81.5" y="182.5615">Retrieves list of Entries</text><polygon fill="#181818" points="273.5,215.1152,283.5,219.1152,273.5,223.1152,277.5,219.1152" style="stroke:#181818;stroke-width:1.0;"/><line style="stroke:#181818;stroke-width:1.0;" x1="53.5" x2="279.5" y1="219.1152" y2="219.1152"/><text fill="#000000" font-family="sans-serif" font-size="13" font-weight="bold" lengthAdjust="spacing" textLength="7" x="60.5" y="213.8525">3</text><text fill="#000000" font-family="sans-serif" font-size="13" lengthAdjust="spacing" textLength="79" x="71.5" y="213.8525">Selects Entry</text><polygon fill="#181818" points="64.5,246.4063,54.5,250.4063,64.5,254.4063,60.5,250.4063" style="stroke:#181818;stroke-width:1.0;"/><line style="stroke:#181818;stroke-width:1.0;stroke-dasharray:2.0,2.0;" x1="58.5" x2="289.5" y1="250.4063" y2="250.4063"/><text fill="#000000" font-family="sans-serif" font-size="13" font-weight="bold" lengthAdjust="spacing" textLength="7" x="70.5" y="245.1436">4</text><text fill="#000000" font-family="sans-serif" font-size="13" lengthAdjust="spacing" textLength="142" x="81.5" y="245.1436">Retrieves list of Vehicles</text><path d="M295,263.4063 L295,290.4063 L454,290.4063 L454,273.4063 L444,263.4063 L295,263.4063 " fill="#FAFAFA" style="stroke:#181818;stroke-width:0.5;"/><path d="M444,263.4063 L444,273.4063 L454,273.4063 L444,263.4063 " fill="#FAFAFA" style="stroke:#181818;stroke-width:0.5;"/><text fill="#000000" font-family="sans-serif" font-size="13" lengthAdjust="spacing" textLength="138" x="301" y="282.4346">Loop for adding vehicles</text><polygon fill="#181818" points="273.5,341.2793,283.5,345.2793,273.5,349.2793,277.5,345.2793" style="stroke:#181818;stroke-width:1.0;"/><line style="stroke:#181818;stroke-width:1.0;" x1="53.5" x2="279.5" y1="345.2793" y2="345.2793"/><text fill="#000000" font-family="sans-serif" font-size="13" font-weight="bold" lengthAdjust="spacing" textLength="7" x="60.5" y="340.0166">5</text><text fill="#000000" font-family="sans-serif" font-size="13" lengthAdjust="spacing" textLength="91" x="71.5" y="340.0166">Selects Vehicle</text><polygon fill="#181818" points="64.5,372.5703,54.5,376.5703,64.5,380.5703,60.5,376.5703" style="stroke:#181818;stroke-width:1.0;"/><line style="stroke:#181818;stroke-width:1.0;stroke-dasharray:2.0,2.0;" x1="58.5" x2="289.5" y1="376.5703" y2="376.5703"/><text fill="#000000" font-family="sans-serif" font-size="13" font-weight="bold" lengthAdjust="spacing" textLength="7" x="70.5" y="371.3076">6</text><text fill="#000000" font-family="sans-serif" font-size="13" lengthAdjust="spacing" textLength="194" x="81.5" y="371.3076">Displays message of (In)Success</text><path d="M20,391.5703 L81,391.5703 L81,400.8613 L71,410.8613 L20,410.8613 L20,391.5703 " fill="#EEEEEE" style="stroke:#000000;stroke-width:1.5;"/><rect fill="none" height="100.5039" style="stroke:#000000;stroke-width:1.5;" width="312.5" x="20" y="391.5703"/><text fill="#000000" font-family="sans-serif" font-size="13" font-weight="bold" lengthAdjust="spacing" textLength="16" x="35" y="406.5986">alt</text><text fill="#000000" font-family="sans-serif" font-size="11" font-weight="bold" lengthAdjust="spacing" textLength="205" x="96" y="405.4404">[User wants to keep adding vehicles]</text><polygon fill="#181818" points="278.5,430.1523,288.5,434.1523,278.5,438.1523,282.5,434.1523" style="stroke:#181818;stroke-width:1.0;"/><line style="stroke:#181818;stroke-width:1.0;" x1="53.5" x2="284.5" y1="434.1523" y2="434.1523"/><text fill="#000000" font-family="sans-serif" font-size="13" font-weight="bold" lengthAdjust="spacing" textLength="7" x="60.5" y="428.8896">7</text><text fill="#000000" font-family="sans-serif" font-size="13" lengthAdjust="spacing" textLength="182" x="71.5" y="428.8896">Request to add another Vehicle</text><line style="stroke:#000000;stroke-width:1.0;stroke-dasharray:2.0,2.0;" x1="20" x2="332.5" y1="443.1523" y2="443.1523"/><text fill="#000000" font-family="sans-serif" font-size="11" font-weight="bold" lengthAdjust="spacing" textLength="113" x="25" y="455.0225">[User wants to stop]</text><path d="M40,465.7832 L121,465.7832 L121,475.0742 L111,485.0742 L40,485.0742 L40,465.7832 " fill="#EEEEEE" style="stroke:#000000;stroke-width:1.5;"/><rect fill="none" height="19.291" style="stroke:#000000;stroke-width:1.5;" width="86" x="40" y="465.7832"/><text fill="#000000" font-family="sans-serif" font-size="13" font-weight="bold" lengthAdjust="spacing" textLength="36" x="55" y="480.8115">break</text><!--SRC=[hLF1JiCm3BttAwnTs0xxWHsG9WqX910I5Tozr6kZfKc9tKtxUvoiBGC69t995B_t_EmulBU-muWjjC47qyJG4aZigU0fqg7POqsbd1n192FeQtS9u0QhSBI-XXqwfg8GAmejJopKGadlFNb3iB5O9_YyB3SBMCBQ2KMFOWy4prvfs4lmVRkbg6SZ8SBildoQ0JBeNcWoiSPsw0LcgxDw3fwFcMCFA9JHe4jtMDwEHbRmagomW0IbiQqzl55ZZNhLcpilyPHfayuW3CCQT9OgcPIJdaHB1s9mLcN3BejOuaofw9hGTqybEMqf_q_wePpVykVh6rXNLNeiz3w8jZzus6clfI5m8NGPf15zQritMNOo-wZn3CQpn67Cbqc9FOf_SV9NtGDmmlrM_TKER2nt3ayCBJ7hZ2QpymU_A7jZz6OYNt-AdCu9l395EEfOSPg3FL7texvB5tzDLLLfMuEsClueZFHhV4l5ChHxNDj8kFza-AeOzuiAqdH_0000]--></g></svg>