<?xml version="1.0" encoding="us-ascii" standalone="no"?><svg xmlns="http://www.w3.org/2000/svg" xmlns:xlink="http://www.w3.org/1999/xlink" contentStyleType="text/css" height="942px" preserveAspectRatio="none" style="width:846px;height:942px;background:#FFFFFF;" version="1.1" viewBox="0 0 846 942" width="846px" zoomAndPan="magnify"><defs/><g><!--class RegisterGreenSpaceUI--><g id="elem_RegisterGreenSpaceUI"><rect codeLine="11" fill="#F1F1F1" height="234.2109" id="RegisterGreenSpaceUI" rx="2.5" ry="2.5" style="stroke:#181818;stroke-width:0.5;" width="182" x="7" y="7"/><ellipse cx="24.25" cy="23" fill="#ADD1B2" rx="11" ry="11" style="stroke:#181818;stroke-width:1.0;"/><path d="M27.0156,18.875 Q27.1719,18.6563 27.3594,18.5469 Q27.5469,18.4375 27.7656,18.4375 Q28.1406,18.4375 28.375,18.7031 Q28.6094,18.9531 28.6094,19.5625 L28.6094,21.0156 Q28.6094,21.625 28.375,21.8906 Q28.1406,22.1563 27.7656,22.1563 Q27.4219,22.1563 27.2188,21.9531 Q27.0156,21.7656 26.9063,21.25 Q26.8594,20.8906 26.6719,20.7031 Q26.3438,20.3281 25.7344,20.1094 Q25.125,19.8906 24.5,19.8906 Q23.7344,19.8906 23.0938,20.2188 Q22.4688,20.5469 21.9688,21.2969 Q21.4844,22.0469 21.4844,23.0781 L21.4844,24.1719 Q21.4844,25.4063 22.375,26.2344 Q23.2656,27.0469 24.8594,27.0469 Q25.7969,27.0469 26.4531,26.7969 Q26.8438,26.6406 27.2656,26.2031 Q27.5313,25.9375 27.6719,25.8594 Q27.8281,25.7813 28.0313,25.7813 Q28.3594,25.7813 28.6094,26.0469 Q28.875,26.2969 28.875,26.6406 Q28.875,26.9844 28.5313,27.3906 Q28.0313,27.9688 27.2344,28.2969 Q26.1563,28.75 24.8594,28.75 Q23.3438,28.75 22.1406,28.125 Q21.1563,27.625 20.4688,26.5625 Q19.7813,25.4844 19.7813,24.2031 L19.7813,23.0469 Q19.7813,21.7188 20.3906,20.5781 Q21.0156,19.4219 22.1094,18.8125 Q23.2031,18.1875 24.4375,18.1875 Q25.1719,18.1875 25.8125,18.3594 Q26.4688,18.5156 27.0156,18.875 Z " fill="#000000"/><text fill="#000000" font-family="sans-serif" font-size="14" lengthAdjust="spacing" textLength="145" x="38.75" y="28.7969">RegisterGreenSpaceUI</text><line style="stroke:#181818;stroke-width:0.5;" x1="8" x2="188" y1="39" y2="39"/><text fill="#000000" font-family="sans-serif" font-size="14" lengthAdjust="spacing" textLength="89" x="13" y="58.1074">-name: String;</text><text fill="#000000" font-family="sans-serif" font-size="14" lengthAdjust="spacing" textLength="67" x="13" y="76.7285">-size: Size;</text><text fill="#000000" font-family="sans-serif" font-size="14" lengthAdjust="spacing" textLength="89" x="13" y="95.3496">-area: double;</text><text fill="#000000" font-family="sans-serif" font-size="14" lengthAdjust="spacing" textLength="170" x="13" y="113.9707">-greenSpace: GreenSpace</text><line style="stroke:#181818;stroke-width:0.5;" x1="8" x2="188" y1="121.4844" y2="121.4844"/><text fill="#000000" font-family="sans-serif" font-size="14" lengthAdjust="spacing" textLength="163" x="13" y="140.5918">+RegisterGreenSpaceUI()</text><text fill="#000000" font-family="sans-serif" font-size="14" lengthAdjust="spacing" textLength="93" x="13" y="159.2129">-requestData()</text><text fill="#000000" font-family="sans-serif" font-size="14" lengthAdjust="spacing" textLength="99" x="13" y="177.834">-requestName()</text><text fill="#000000" font-family="sans-serif" font-size="14" lengthAdjust="spacing" textLength="93" x="13" y="196.4551">-requestArea()</text><text fill="#000000" font-family="sans-serif" font-size="14" lengthAdjust="spacing" textLength="86" x="13" y="215.0762">-submitData()</text><text fill="#000000" font-family="sans-serif" font-size="14" lengthAdjust="spacing" textLength="123" x="13" y="233.6973">-printGreenSpace()</text></g><!--class RegisterGreenSpaceController--><g id="elem_RegisterGreenSpaceController"><rect codeLine="25" fill="#F1F1F1" height="141.1055" id="RegisterGreenSpaceController" rx="2.5" ry="2.5" style="stroke:#181818;stroke-width:0.5;" width="560" x="279" y="53.5"/><ellipse cx="457.25" cy="69.5" fill="#ADD1B2" rx="11" ry="11" style="stroke:#181818;stroke-width:1.0;"/><path d="M460.0156,65.375 Q460.1719,65.1563 460.3594,65.0469 Q460.5469,64.9375 460.7656,64.9375 Q461.1406,64.9375 461.375,65.2031 Q461.6094,65.4531 461.6094,66.0625 L461.6094,67.5156 Q461.6094,68.125 461.375,68.3906 Q461.1406,68.6563 460.7656,68.6563 Q460.4219,68.6563 460.2188,68.4531 Q460.0156,68.2656 459.9063,67.75 Q459.8594,67.3906 459.6719,67.2031 Q459.3438,66.8281 458.7344,66.6094 Q458.125,66.3906 457.5,66.3906 Q456.7344,66.3906 456.0938,66.7188 Q455.4688,67.0469 454.9688,67.7969 Q454.4844,68.5469 454.4844,69.5781 L454.4844,70.6719 Q454.4844,71.9063 455.375,72.7344 Q456.2656,73.5469 457.8594,73.5469 Q458.7969,73.5469 459.4531,73.2969 Q459.8438,73.1406 460.2656,72.7031 Q460.5313,72.4375 460.6719,72.3594 Q460.8281,72.2813 461.0313,72.2813 Q461.3594,72.2813 461.6094,72.5469 Q461.875,72.7969 461.875,73.1406 Q461.875,73.4844 461.5313,73.8906 Q461.0313,74.4688 460.2344,74.7969 Q459.1563,75.25 457.8594,75.25 Q456.3438,75.25 455.1406,74.625 Q454.1563,74.125 453.4688,73.0625 Q452.7813,71.9844 452.7813,70.7031 L452.7813,69.5469 Q452.7813,68.2188 453.3906,67.0781 Q454.0156,65.9219 455.1094,65.3125 Q456.2031,64.6875 457.4375,64.6875 Q458.1719,64.6875 458.8125,64.8594 Q459.4688,65.0156 460.0156,65.375 Z " fill="#000000"/><text fill="#000000" font-family="sans-serif" font-size="14" lengthAdjust="spacing" textLength="195" x="477.75" y="75.2969">RegisterGreenSpaceController</text><line style="stroke:#181818;stroke-width:0.5;" x1="280" x2="838" y1="85.5" y2="85.5"/><line style="stroke:#181818;stroke-width:0.5;" x1="280" x2="838" y1="93.5" y2="93.5"/><text fill="#000000" font-family="sans-serif" font-size="14" lengthAdjust="spacing" textLength="213" x="285" y="112.6074">+RegisterGreenSpaceController()</text><text fill="#000000" font-family="sans-serif" font-size="14" lengthAdjust="spacing" textLength="532" x="285" y="131.2285">+RegisterGreenSpaceController(AuthenticationRepository authenticationRepository)</text><text fill="#000000" font-family="sans-serif" font-size="14" lengthAdjust="spacing" textLength="346" x="285" y="149.8496">+getGreenSpaceRepository() : GreenSpaceRepository</text><text fill="#000000" font-family="sans-serif" font-size="14" lengthAdjust="spacing" textLength="363" x="285" y="168.4707">-getAuthenticationRepository() : AuthenticationRepository</text><text fill="#000000" font-family="sans-serif" font-size="14" lengthAdjust="spacing" textLength="548" x="285" y="187.0918">+registerGreenSpace(String name, double area, GreenSpace.Size size ) : GreenSpace</text></g><!--class Repositories--><g id="elem_Repositories"><rect codeLine="34" fill="#F1F1F1" height="103.8633" id="Repositories" rx="2.5" ry="2.5" style="stroke:#181818;stroke-width:0.5;" width="358" x="170" y="320"/><ellipse cx="305.25" cy="336" fill="#ADD1B2" rx="11" ry="11" style="stroke:#181818;stroke-width:1.0;"/><path d="M308.0156,331.875 Q308.1719,331.6563 308.3594,331.5469 Q308.5469,331.4375 308.7656,331.4375 Q309.1406,331.4375 309.375,331.7031 Q309.6094,331.9531 309.6094,332.5625 L309.6094,334.0156 Q309.6094,334.625 309.375,334.8906 Q309.1406,335.1563 308.7656,335.1563 Q308.4219,335.1563 308.2188,334.9531 Q308.0156,334.7656 307.9063,334.25 Q307.8594,333.8906 307.6719,333.7031 Q307.3438,333.3281 306.7344,333.1094 Q306.125,332.8906 305.5,332.8906 Q304.7344,332.8906 304.0938,333.2188 Q303.4688,333.5469 302.9688,334.2969 Q302.4844,335.0469 302.4844,336.0781 L302.4844,337.1719 Q302.4844,338.4063 303.375,339.2344 Q304.2656,340.0469 305.8594,340.0469 Q306.7969,340.0469 307.4531,339.7969 Q307.8438,339.6406 308.2656,339.2031 Q308.5313,338.9375 308.6719,338.8594 Q308.8281,338.7813 309.0313,338.7813 Q309.3594,338.7813 309.6094,339.0469 Q309.875,339.2969 309.875,339.6406 Q309.875,339.9844 309.5313,340.3906 Q309.0313,340.9688 308.2344,341.2969 Q307.1563,341.75 305.8594,341.75 Q304.3438,341.75 303.1406,341.125 Q302.1563,340.625 301.4688,339.5625 Q300.7813,338.4844 300.7813,337.2031 L300.7813,336.0469 Q300.7813,334.7188 301.3906,333.5781 Q302.0156,332.4219 303.1094,331.8125 Q304.2031,331.1875 305.4375,331.1875 Q306.1719,331.1875 306.8125,331.3594 Q307.4688,331.5156 308.0156,331.875 Z " fill="#000000"/><text fill="#000000" font-family="sans-serif" font-size="14" lengthAdjust="spacing" textLength="79" x="325.75" y="341.7969">Repositories</text><line style="stroke:#181818;stroke-width:0.5;" x1="171" x2="527" y1="352" y2="352"/><line style="stroke:#181818;stroke-width:0.5;" x1="171" x2="527" y1="360" y2="360"/><text fill="#000000" font-family="sans-serif" font-size="14" lengthAdjust="spacing" textLength="94" x="176" y="379.1074">-Repositories()</text><text fill="#000000" font-family="sans-serif" font-size="14" lengthAdjust="spacing" textLength="182" x="176" y="397.7285">+getInstance() : Repositories</text><text fill="#000000" font-family="sans-serif" font-size="14" lengthAdjust="spacing" textLength="346" x="176" y="416.3496">+getGreenSpaceRepository() : GreenSpaceRepository</text></g><!--class Organization--><g id="elem_Organization"><rect codeLine="46" fill="#F1F1F1" height="48" id="Organization" rx="2.5" ry="2.5" style="stroke:#181818;stroke-width:0.5;" width="112" x="513" y="612"/><ellipse cx="528" cy="628" fill="#ADD1B2" rx="11" ry="11" style="stroke:#181818;stroke-width:1.0;"/><path d="M530.7656,623.875 Q530.9219,623.6563 531.1094,623.5469 Q531.2969,623.4375 531.5156,623.4375 Q531.8906,623.4375 532.125,623.7031 Q532.3594,623.9531 532.3594,624.5625 L532.3594,626.0156 Q532.3594,626.625 532.125,626.8906 Q531.8906,627.1563 531.5156,627.1563 Q531.1719,627.1563 530.9688,626.9531 Q530.7656,626.7656 530.6563,626.25 Q530.6094,625.8906 530.4219,625.7031 Q530.0938,625.3281 529.4844,625.1094 Q528.875,624.8906 528.25,624.8906 Q527.4844,624.8906 526.8438,625.2188 Q526.2188,625.5469 525.7188,626.2969 Q525.2344,627.0469 525.2344,628.0781 L525.2344,629.1719 Q525.2344,630.4063 526.125,631.2344 Q527.0156,632.0469 528.6094,632.0469 Q529.5469,632.0469 530.2031,631.7969 Q530.5938,631.6406 531.0156,631.2031 Q531.2813,630.9375 531.4219,630.8594 Q531.5781,630.7813 531.7813,630.7813 Q532.1094,630.7813 532.3594,631.0469 Q532.625,631.2969 532.625,631.6406 Q532.625,631.9844 532.2813,632.3906 Q531.7813,632.9688 530.9844,633.2969 Q529.9063,633.75 528.6094,633.75 Q527.0938,633.75 525.8906,633.125 Q524.9063,632.625 524.2188,631.5625 Q523.5313,630.4844 523.5313,629.2031 L523.5313,628.0469 Q523.5313,626.7188 524.1406,625.5781 Q524.7656,624.4219 525.8594,623.8125 Q526.9531,623.1875 528.1875,623.1875 Q528.9219,623.1875 529.5625,623.3594 Q530.2188,623.5156 530.7656,623.875 Z " fill="#000000"/><text fill="#000000" font-family="sans-serif" font-size="14" lengthAdjust="spacing" textLength="80" x="542" y="633.7969">Organization</text><line style="stroke:#181818;stroke-width:0.5;" x1="514" x2="624" y1="644" y2="644"/><line style="stroke:#181818;stroke-width:0.5;" x1="514" x2="624" y1="652" y2="652"/></g><!--class GreenSpace--><g id="elem_GreenSpace"><rect codeLine="47" fill="#F1F1F1" height="196.9688" id="GreenSpace" rx="2.5" ry="2.5" style="stroke:#181818;stroke-width:0.5;" width="349" x="394.5" y="739"/><ellipse cx="524.75" cy="755" fill="#ADD1B2" rx="11" ry="11" style="stroke:#181818;stroke-width:1.0;"/><path d="M527.5156,750.875 Q527.6719,750.6563 527.8594,750.5469 Q528.0469,750.4375 528.2656,750.4375 Q528.6406,750.4375 528.875,750.7031 Q529.1094,750.9531 529.1094,751.5625 L529.1094,753.0156 Q529.1094,753.625 528.875,753.8906 Q528.6406,754.1563 528.2656,754.1563 Q527.9219,754.1563 527.7188,753.9531 Q527.5156,753.7656 527.4063,753.25 Q527.3594,752.8906 527.1719,752.7031 Q526.8438,752.3281 526.2344,752.1094 Q525.625,751.8906 525,751.8906 Q524.2344,751.8906 523.5938,752.2188 Q522.9688,752.5469 522.4688,753.2969 Q521.9844,754.0469 521.9844,755.0781 L521.9844,756.1719 Q521.9844,757.4063 522.875,758.2344 Q523.7656,759.0469 525.3594,759.0469 Q526.2969,759.0469 526.9531,758.7969 Q527.3438,758.6406 527.7656,758.2031 Q528.0313,757.9375 528.1719,757.8594 Q528.3281,757.7813 528.5313,757.7813 Q528.8594,757.7813 529.1094,758.0469 Q529.375,758.2969 529.375,758.6406 Q529.375,758.9844 529.0313,759.3906 Q528.5313,759.9688 527.7344,760.2969 Q526.6563,760.75 525.3594,760.75 Q523.8438,760.75 522.6406,760.125 Q521.6563,759.625 520.9688,758.5625 Q520.2813,757.4844 520.2813,756.2031 L520.2813,755.0469 Q520.2813,753.7188 520.8906,752.5781 Q521.5156,751.4219 522.6094,750.8125 Q523.7031,750.1875 524.9375,750.1875 Q525.6719,750.1875 526.3125,750.3594 Q526.9688,750.5156 527.5156,750.875 Z " fill="#000000"/><text fill="#000000" font-family="sans-serif" font-size="14" lengthAdjust="spacing" textLength="80" x="545.25" y="760.7969">GreenSpace</text><line style="stroke:#181818;stroke-width:0.5;" x1="395.5" x2="742.5" y1="771" y2="771"/><text fill="#000000" font-family="sans-serif" font-size="14" lengthAdjust="spacing" textLength="85" x="400.5" y="790.1074">-name: String</text><text fill="#000000" font-family="sans-serif" font-size="14" lengthAdjust="spacing" textLength="85" x="400.5" y="808.7285">-area: double</text><text fill="#000000" font-family="sans-serif" font-size="14" lengthAdjust="spacing" textLength="63" x="400.5" y="827.3496">-size: Size</text><line style="stroke:#181818;stroke-width:0.5;" x1="395.5" x2="742.5" y1="834.8633" y2="834.8633"/><text fill="#000000" font-family="sans-serif" font-size="14" lengthAdjust="spacing" textLength="320" x="400.5" y="853.9707">+GreenSpace(String name, double area, Size size)</text><text fill="#000000" font-family="sans-serif" font-size="14" lengthAdjust="spacing" textLength="337" x="400.5" y="872.5918">+validateGreenSpaceName(String greenSpaceName)</text><text fill="#000000" font-family="sans-serif" font-size="14" lengthAdjust="spacing" textLength="119" x="400.5" y="891.2129">+getName(): String</text><text fill="#000000" font-family="sans-serif" font-size="14" lengthAdjust="spacing" textLength="113" x="400.5" y="909.834">+equals(Object o)</text><text fill="#000000" font-family="sans-serif" font-size="14" lengthAdjust="spacing" textLength="116" x="400.5" y="928.4551">+toString() : String</text></g><!--class OrganizationRepositiry--><g id="elem_OrganizationRepositiry"><rect fill="#F1F1F1" height="48" id="OrganizationRepositiry" rx="2.5" ry="2.5" style="stroke:#181818;stroke-width:0.5;" width="175" x="389.5" y="485"/><ellipse cx="404.5" cy="501" fill="#ADD1B2" rx="11" ry="11" style="stroke:#181818;stroke-width:1.0;"/><path d="M407.2656,496.875 Q407.4219,496.6563 407.6094,496.5469 Q407.7969,496.4375 408.0156,496.4375 Q408.3906,496.4375 408.625,496.7031 Q408.8594,496.9531 408.8594,497.5625 L408.8594,499.0156 Q408.8594,499.625 408.625,499.8906 Q408.3906,500.1563 408.0156,500.1563 Q407.6719,500.1563 407.4688,499.9531 Q407.2656,499.7656 407.1563,499.25 Q407.1094,498.8906 406.9219,498.7031 Q406.5938,498.3281 405.9844,498.1094 Q405.375,497.8906 404.75,497.8906 Q403.9844,497.8906 403.3438,498.2188 Q402.7188,498.5469 402.2188,499.2969 Q401.7344,500.0469 401.7344,501.0781 L401.7344,502.1719 Q401.7344,503.4063 402.625,504.2344 Q403.5156,505.0469 405.1094,505.0469 Q406.0469,505.0469 406.7031,504.7969 Q407.0938,504.6406 407.5156,504.2031 Q407.7813,503.9375 407.9219,503.8594 Q408.0781,503.7813 408.2813,503.7813 Q408.6094,503.7813 408.8594,504.0469 Q409.125,504.2969 409.125,504.6406 Q409.125,504.9844 408.7813,505.3906 Q408.2813,505.9688 407.4844,506.2969 Q406.4063,506.75 405.1094,506.75 Q403.5938,506.75 402.3906,506.125 Q401.4063,505.625 400.7188,504.5625 Q400.0313,503.4844 400.0313,502.2031 L400.0313,501.0469 Q400.0313,499.7188 400.6406,498.5781 Q401.2656,497.4219 402.3594,496.8125 Q403.4531,496.1875 404.6875,496.1875 Q405.4219,496.1875 406.0625,496.3594 Q406.7188,496.5156 407.2656,496.875 Z " fill="#000000"/><text fill="#000000" font-family="sans-serif" font-size="14" lengthAdjust="spacing" textLength="143" x="418.5" y="506.7969">OrganizationRepositiry</text><line style="stroke:#181818;stroke-width:0.5;" x1="390.5" x2="563.5" y1="517" y2="517"/><line style="stroke:#181818;stroke-width:0.5;" x1="390.5" x2="563.5" y1="525" y2="525"/></g><!--link RegisterGreenSpaceUI to RegisterGreenSpaceController--><g id="link_RegisterGreenSpaceUI_RegisterGreenSpaceController"><path codeLine="59" d="M189.08,124 C215.84,124 240.63,124 272.76,124 " fill="none" id="RegisterGreenSpaceUI-to-RegisterGreenSpaceController" style="stroke:#181818;stroke-width:1.0;stroke-dasharray:7.0,7.0;"/><polygon fill="#181818" points="278.76,124,269.76,120,273.76,124,269.76,128,278.76,124" style="stroke:#181818;stroke-width:1.0;"/><text fill="#000000" font-family="sans-serif" font-size="13" lengthAdjust="spacing" textLength="53" x="207.5" y="117.0283">controller</text></g><!--link RegisterGreenSpaceController to Repositories--><g id="link_RegisterGreenSpaceController_Repositories"><path codeLine="60" d="M499.66,194.51 C465.7,234.29 427.7256,278.7767 396.7456,315.0667 " fill="none" id="RegisterGreenSpaceController-to-Repositories" style="stroke:#181818;stroke-width:1.0;stroke-dasharray:7.0,7.0;"/><polygon fill="#181818" points="392.85,319.63,401.7357,315.3821,396.0964,315.8272,395.6512,310.1879,392.85,319.63" style="stroke:#181818;stroke-width:1.0;"/><text fill="#000000" font-family="sans-serif" font-size="13" lengthAdjust="spacing" textLength="67" x="431" y="286.0283">repositories</text></g><!--link Repositories to Repositories--><g id="link_Repositories_Repositories"><path codeLine="62" d="M528.13,358.83 C549.24,361.24 563,365.63 563,372 C563,378.37 555.2013,382.0794 534.0913,384.4894 " fill="none" id="Repositories-to-Repositories" style="stroke:#181818;stroke-width:1.0;"/><polygon fill="#181818" points="528.13,385.17,537.5256,388.1233,533.0977,384.6029,536.6182,380.175,528.13,385.17" style="stroke:#181818;stroke-width:1.0;"/><text fill="#000000" font-family="sans-serif" font-size="13" lengthAdjust="spacing" textLength="49" x="569" y="377.5283">instance</text></g><!--link Repositories to OrganizationRepositiry--><g id="link_Repositories_OrganizationRepositiry"><path codeLine="63" d="M397.39,424.04 C417.21,444.94 435.0297,463.7479 450.8597,480.4279 " fill="none" id="Repositories-to-OrganizationRepositiry" style="stroke:#181818;stroke-width:1.0;"/><polygon fill="#181818" points="454.99,484.78,451.6959,475.4983,451.5481,481.1533,445.8932,481.0054,454.99,484.78" style="stroke:#181818;stroke-width:1.0;"/><text fill="#000000" font-family="sans-serif" font-size="13" lengthAdjust="spacing" textLength="7" x="441.7719" y="473.8683">1</text></g><!--link OrganizationRepositiry to Organization--><g id="link_OrganizationRepositiry_Organization"><path codeLine="64" d="M494.09,533.22 C510.61,555.67 531.954,584.6673 548.444,607.0773 " fill="none" id="OrganizationRepositiry-to-Organization" style="stroke:#181818;stroke-width:1.0;"/><polygon fill="#181818" points="552,611.91,549.8877,602.2903,549.0366,607.8828,543.4442,607.0317,552,611.91" style="stroke:#181818;stroke-width:1.0;"/><text fill="#000000" font-family="sans-serif" font-size="13" lengthAdjust="spacing" textLength="75" x="530" y="578.0283">has manager</text><text fill="#000000" font-family="sans-serif" font-size="13" lengthAdjust="spacing" textLength="7" x="490.2327" y="554.8485">1</text><text fill="#000000" font-family="sans-serif" font-size="13" lengthAdjust="spacing" textLength="7" x="539.7469" y="600.6244">1</text></g><!--link RegisterGreenSpaceController to Organization--><g id="link_RegisterGreenSpaceController_Organization"><path codeLine="66" d="M582.55,194.57 C601.5,250.57 625,320 625,320 C625,320 625,424 625,424 C625,424 614,582 614,582 C614,582 604.6125,593.0555 592.4925,607.3355 " fill="none" id="RegisterGreenSpaceController-to-Organization" style="stroke:#181818;stroke-width:1.0;"/><polygon fill="#181818" points="588.61,611.91,597.4835,607.6366,591.8455,608.0979,591.3842,602.4599,588.61,611.91" style="stroke:#181818;stroke-width:1.0;"/><text fill="#000000" font-family="sans-serif" font-size="13" lengthAdjust="spacing" textLength="7" x="577.6177" y="216.762">1</text></g><!--link Organization to GreenSpace--><g id="link_Organization_GreenSpace"><path codeLine="67" d="M569,660.28 C569,679.91 569,703.42 569,732.7 " fill="none" id="Organization-to-GreenSpace" style="stroke:#181818;stroke-width:1.0;"/><polygon fill="#181818" points="569,738.7,573,729.7,569,733.7,565,729.7,569,738.7" style="stroke:#181818;stroke-width:1.0;"/><text fill="#000000" font-family="sans-serif" font-size="13" lengthAdjust="spacing" textLength="123" x="570" y="705.0283">register Green Space</text><text fill="#000000" font-family="sans-serif" font-size="13" lengthAdjust="spacing" textLength="7" x="561.1906" y="681.9223">1</text><text fill="#000000" font-family="sans-serif" font-size="13" lengthAdjust="spacing" textLength="20" x="548.2656" y="727.8603">1..*</text></g><!--SRC=[bLNRZjCm47ttLups9LswgU2re4eLIAWIOgMj-00tcKtDEdQm7L2tsdzd77jhHoG5-b1rRiVZSsRSmZu9rN73MsYrqjNHw1R1cHvPYdIyUk8Dxjr98XYi75UDp1FiaTVwbr0DF79fyuWK2jsfG-YqF7c35HD1RPncMLKbkRLRvumuz0vtbLPxyOpmbh52ugC3fy68vkYW5huTeHLZGmqyO2EiG_FP8AezDOxVTcTMAjxY6lO4g9hthBI4HYPzay4DyZNKkZz8RpQNoZKa5CQMKz2BMrOQ_D6ZTP-uuvdvbKxCp2qTuatR7rfnoUse7vVmoFKoVv6FMZcZfKHpPWpeixoMGrX_pzdsxeZAYOfx3X-mqrOuRKx0Pm8HjC6iwnHTt4BEMGeCLILLpHquLCu5mvdcZuiiWfxWnRsB0e9NyovhOZLCZXSSnjtbLCUJ1DfpQ7NaUwKIw08xPMdwlLG4bYUbbFzZXheeGXjJOMgdyBZJc7Hc4TGOjJMdG05BNjSPV-adfAaFbosMNuZj3obZCxwQ9wLuYGJUcuOhyJp8Tdvrfjp8QRw3mPDlNl2anOmZ_azgNoIEGltaKjJSOIeUjZ42D2DlckYmiQCEbxIyzA0jxW_VwPa17PET3Za3sp6TT9nw862rkRhA151T37OrSpL0fOcZKfCFO34AblGWgt83D-zkfWTYd5sEiTSWuaInMTHSzPWa27VQFLIK4vLqYoEtq795_p265LEzpXPV9-orQbGnEZlXhbPlSfu6RWDqy49uCtu3]--></g></svg>