<?xml version="1.0" encoding="us-ascii" standalone="no"?><svg xmlns="http://www.w3.org/2000/svg" xmlns:xlink="http://www.w3.org/1999/xlink" contentStyleType="text/css" height="856px" preserveAspectRatio="none" style="width:1110px;height:856px;background:#FFFFFF;" version="1.1" viewBox="0 0 1110 856" width="1110px" zoomAndPan="magnify"><defs/><g><rect fill="#FFFFFF" height="670.4414" style="stroke:#181818;stroke-width:1.0;" width="10" x="75" y="93.6211"/><rect fill="#FFFFFF" height="638.1504" style="stroke:#181818;stroke-width:1.0;" width="10" x="366" y="116.9121"/><rect fill="#FFFFFF" height="440.4043" style="stroke:#181818;stroke-width:1.0;" width="10" x="560" y="283.3672"/><rect fill="#FFFFFF" height="31.291" style="stroke:#181818;stroke-width:1.0;" width="10" x="721" y="536.0254"/><rect fill="#FFFFFF" height="31.291" style="stroke:#181818;stroke-width:1.0;" width="10" x="859" y="598.6074"/><rect fill="#FFFFFF" height="31.291" style="stroke:#181818;stroke-width:1.0;" width="10" x="1000" y="661.1895"/><rect fill="#FFFFFF" height="31.291" style="stroke:#181818;stroke-width:1.0;" width="10" x="1079.5" y="316.9883"/><line style="stroke:#181818;stroke-width:0.5;stroke-dasharray:5.0,5.0;" x1="80" x2="80" y1="83.6211" y2="773.0625"/><line style="stroke:#181818;stroke-width:0.5;stroke-dasharray:5.0,5.0;" x1="370.5" x2="370.5" y1="83.6211" y2="773.0625"/><line style="stroke:#181818;stroke-width:0.5;stroke-dasharray:5.0,5.0;" x1="564.5" x2="564.5" y1="281.8867" y2="773.0625"/><line style="stroke:#181818;stroke-width:0.5;stroke-dasharray:5.0,5.0;" x1="725.5" x2="725.5" y1="83.6211" y2="773.0625"/><line style="stroke:#181818;stroke-width:0.5;stroke-dasharray:5.0,5.0;" x1="863.5" x2="863.5" y1="83.6211" y2="773.0625"/><line style="stroke:#181818;stroke-width:0.5;stroke-dasharray:5.0,5.0;" x1="1004.5" x2="1004.5" y1="83.6211" y2="773.0625"/><line style="stroke:#181818;stroke-width:0.5;stroke-dasharray:5.0,5.0;" x1="1084.5" x2="1084.5" y1="83.6211" y2="773.0625"/><text fill="#000000" font-family="sans-serif" font-size="14" lengthAdjust="spacing" textLength="144" x="5" y="80.1074">Green Space Manager</text><ellipse cx="80" cy="13.5" fill="#E3E3E3" rx="8" ry="8" style="stroke:#181818;stroke-width:0.5;"/><path d="M80,21.5 L80,48.5 M67,29.5 L93,29.5 M80,48.5 L67,63.5 M80,48.5 L93,63.5 " fill="none" style="stroke:#181818;stroke-width:0.5;"/><text fill="#000000" font-family="sans-serif" font-size="14" lengthAdjust="spacing" textLength="144" x="5" y="787.1699">Green Space Manager</text><ellipse cx="80" cy="799.1836" fill="#E3E3E3" rx="8" ry="8" style="stroke:#181818;stroke-width:0.5;"/><path d="M80,807.1836 L80,834.1836 M67,815.1836 L93,815.1836 M80,834.1836 L67,849.1836 M80,834.1836 L93,849.1836 " fill="none" style="stroke:#181818;stroke-width:0.5;"/><rect fill="#E3E3E3" height="32.6211" rx="2.5" ry="2.5" style="stroke:#181818;stroke-width:0.5;" width="159" x="291.5" y="50"/><text fill="#000000" font-family="sans-serif" font-size="14" lengthAdjust="spacing" textLength="145" x="298.5" y="72.1074">RegisterGreenSpaceUI</text><rect fill="#E3E3E3" height="32.6211" rx="2.5" ry="2.5" style="stroke:#181818;stroke-width:0.5;" width="159" x="291.5" y="772.0625"/><text fill="#000000" font-family="sans-serif" font-size="14" lengthAdjust="spacing" textLength="145" x="298.5" y="794.1699">RegisterGreenSpaceUI</text><rect fill="#E3E3E3" height="32.6211" rx="2.5" ry="2.5" style="stroke:#181818;stroke-width:0.5;" width="209" x="460.5" y="772.0625"/><text fill="#000000" font-family="sans-serif" font-size="14" lengthAdjust="spacing" textLength="195" x="467.5" y="794.1699">RegisterGreenSpaceController</text><rect fill="#E3E3E3" height="32.6211" rx="2.5" ry="2.5" style="stroke:#181818;stroke-width:0.5;" width="93" x="679.5" y="50"/><text fill="#000000" font-family="sans-serif" font-size="14" lengthAdjust="spacing" textLength="79" x="686.5" y="72.1074">Repositories</text><rect fill="#E3E3E3" height="32.6211" rx="2.5" ry="2.5" style="stroke:#181818;stroke-width:0.5;" width="93" x="679.5" y="772.0625"/><text fill="#000000" font-family="sans-serif" font-size="14" lengthAdjust="spacing" textLength="79" x="686.5" y="794.1699">Repositories</text><rect fill="#E3E3E3" height="51.2422" rx="2.5" ry="2.5" style="stroke:#181818;stroke-width:0.5;" width="163" x="782.5" y="31.3789"/><text fill="#000000" font-family="sans-serif" font-size="14" lengthAdjust="spacing" textLength="149" x="789.5" y="53.4863">organizationRepository:</text><text fill="#000000" font-family="sans-serif" font-size="14" lengthAdjust="spacing" textLength="148" x="790" y="72.1074">OrganizationRepository</text><rect fill="#E3E3E3" height="51.2422" rx="2.5" ry="2.5" style="stroke:#181818;stroke-width:0.5;" width="163" x="782.5" y="772.0625"/><text fill="#000000" font-family="sans-serif" font-size="14" lengthAdjust="spacing" textLength="149" x="789.5" y="794.1699">organizationRepository:</text><text fill="#000000" font-family="sans-serif" font-size="14" lengthAdjust="spacing" textLength="148" x="790" y="812.791">OrganizationRepository</text><rect fill="#E3E3E3" height="51.2422" rx="2.5" ry="2.5" style="stroke:#181818;stroke-width:0.5;" width="99" x="955.5" y="31.3789"/><text fill="#000000" font-family="sans-serif" font-size="14" lengthAdjust="spacing" textLength="81" x="962.5" y="53.4863">greenSpace:</text><text fill="#000000" font-family="sans-serif" font-size="14" lengthAdjust="spacing" textLength="80" x="967" y="72.1074">GreenSpace</text><rect fill="#E3E3E3" height="51.2422" rx="2.5" ry="2.5" style="stroke:#181818;stroke-width:0.5;" width="99" x="955.5" y="772.0625"/><text fill="#000000" font-family="sans-serif" font-size="14" lengthAdjust="spacing" textLength="81" x="962.5" y="794.1699">greenSpace:</text><text fill="#000000" font-family="sans-serif" font-size="14" lengthAdjust="spacing" textLength="80" x="967" y="812.791">GreenSpace</text><rect fill="#E3E3E3" height="32.6211" rx="2.5" ry="2.5" style="stroke:#181818;stroke-width:0.5;" width="40" x="1064.5" y="50"/><text fill="#000000" font-family="sans-serif" font-size="14" lengthAdjust="spacing" textLength="26" x="1071.5" y="72.1074">Size</text><rect fill="#E3E3E3" height="32.6211" rx="2.5" ry="2.5" style="stroke:#181818;stroke-width:0.5;" width="40" x="1064.5" y="772.0625"/><text fill="#000000" font-family="sans-serif" font-size="14" lengthAdjust="spacing" textLength="26" x="1071.5" y="794.1699">Size</text><rect fill="#FFFFFF" height="670.4414" style="stroke:#181818;stroke-width:1.0;" width="10" x="75" y="93.6211"/><rect fill="#FFFFFF" height="638.1504" style="stroke:#181818;stroke-width:1.0;" width="10" x="366" y="116.9121"/><rect fill="#FFFFFF" height="440.4043" style="stroke:#181818;stroke-width:1.0;" width="10" x="560" y="283.3672"/><rect fill="#FFFFFF" height="31.291" style="stroke:#181818;stroke-width:1.0;" width="10" x="721" y="536.0254"/><rect fill="#FFFFFF" height="31.291" style="stroke:#181818;stroke-width:1.0;" width="10" x="859" y="598.6074"/><rect fill="#FFFFFF" height="31.291" style="stroke:#181818;stroke-width:1.0;" width="10" x="1000" y="661.1895"/><rect fill="#FFFFFF" height="31.291" style="stroke:#181818;stroke-width:1.0;" width="10" x="1079.5" y="316.9883"/><polygon fill="#181818" points="354,112.9121,364,116.9121,354,120.9121,358,116.9121" style="stroke:#181818;stroke-width:1.0;"/><line style="stroke:#181818;stroke-width:1.0;" x1="85" x2="360" y1="116.9121" y2="116.9121"/><text fill="#000000" font-family="sans-serif" font-size="13" font-weight="bold" lengthAdjust="spacing" textLength="7" x="92" y="111.6494">1</text><text fill="#000000" font-family="sans-serif" font-size="13" lengthAdjust="spacing" textLength="204" x="103" y="111.6494">asks to register a new GreenSpace</text><polygon fill="#181818" points="96,144.2031,86,148.2031,96,152.2031,92,148.2031" style="stroke:#181818;stroke-width:1.0;"/><line style="stroke:#181818;stroke-width:1.0;" x1="90" x2="365" y1="148.2031" y2="148.2031"/><text fill="#000000" font-family="sans-serif" font-size="13" font-weight="bold" lengthAdjust="spacing" textLength="7" x="102" y="142.9404">2</text><text fill="#000000" font-family="sans-serif" font-size="13" lengthAdjust="spacing" textLength="186" x="113" y="142.9404">requests data (manager's name)</text><polygon fill="#181818" points="354,175.4941,364,179.4941,354,183.4941,358,179.4941" style="stroke:#181818;stroke-width:1.0;"/><line style="stroke:#181818;stroke-width:1.0;" x1="85" x2="360" y1="179.4941" y2="179.4941"/><text fill="#000000" font-family="sans-serif" font-size="13" font-weight="bold" lengthAdjust="spacing" textLength="7" x="92" y="174.2314">3</text><text fill="#000000" font-family="sans-serif" font-size="13" lengthAdjust="spacing" textLength="229" x="103" y="174.2314">types requested data (manager's name)</text><polygon fill="#181818" points="96,206.7852,86,210.7852,96,214.7852,92,210.7852" style="stroke:#181818;stroke-width:1.0;"/><line style="stroke:#181818;stroke-width:1.0;" x1="90" x2="365" y1="210.7852" y2="210.7852"/><text fill="#000000" font-family="sans-serif" font-size="13" font-weight="bold" lengthAdjust="spacing" textLength="7" x="102" y="205.5225">4</text><text fill="#000000" font-family="sans-serif" font-size="13" lengthAdjust="spacing" textLength="203" x="113" y="205.5225">requests data (Green Space name)</text><polygon fill="#181818" points="354,238.0762,364,242.0762,354,246.0762,358,242.0762" style="stroke:#181818;stroke-width:1.0;"/><line style="stroke:#181818;stroke-width:1.0;" x1="85" x2="360" y1="242.0762" y2="242.0762"/><text fill="#000000" font-family="sans-serif" font-size="13" font-weight="bold" lengthAdjust="spacing" textLength="7" x="92" y="236.8135">5</text><text fill="#000000" font-family="sans-serif" font-size="13" lengthAdjust="spacing" textLength="246" x="103" y="236.8135">types requested data (Green Space name)</text><polygon fill="#181818" points="448.5,269.3672,458.5,273.3672,448.5,277.3672,452.5,273.3672" style="stroke:#181818;stroke-width:1.0;"/><line style="stroke:#181818;stroke-width:1.0;" x1="376" x2="454.5" y1="273.3672" y2="273.3672"/><text fill="#000000" font-family="sans-serif" font-size="13" font-weight="bold" lengthAdjust="spacing" textLength="7" x="383" y="268.1045">6</text><text fill="#000000" font-family="sans-serif" font-size="13" lengthAdjust="spacing" textLength="36" x="394" y="268.1045">create</text><rect fill="#E3E3E3" height="32.6211" rx="2.5" ry="2.5" style="stroke:#181818;stroke-width:0.5;" width="209" x="460.5" y="250.0762"/><text fill="#000000" font-family="sans-serif" font-size="14" lengthAdjust="spacing" textLength="195" x="467.5" y="272.1836">RegisterGreenSpaceController</text><polygon fill="#181818" points="1067.5,312.9883,1077.5,316.9883,1067.5,320.9883,1071.5,316.9883" style="stroke:#181818;stroke-width:1.0;"/><line style="stroke:#181818;stroke-width:1.0;" x1="570" x2="1073.5" y1="316.9883" y2="316.9883"/><text fill="#000000" font-family="sans-serif" font-size="13" font-weight="bold" lengthAdjust="spacing" textLength="7" x="577" y="311.7256">7</text><text fill="#000000" font-family="sans-serif" font-size="13" lengthAdjust="spacing" textLength="52" x="588" y="311.7256">getSize()</text><polygon fill="#181818" points="581,344.2793,571,348.2793,581,352.2793,577,348.2793" style="stroke:#181818;stroke-width:1.0;"/><line style="stroke:#181818;stroke-width:1.0;" x1="575" x2="1083.5" y1="348.2793" y2="348.2793"/><text fill="#000000" font-family="sans-serif" font-size="13" font-weight="bold" lengthAdjust="spacing" textLength="7" x="587" y="343.0166">8</text><text fill="#000000" font-family="sans-serif" font-size="13" lengthAdjust="spacing" textLength="24" x="598" y="343.0166">size</text><polygon fill="#181818" points="387,375.5703,377,379.5703,387,383.5703,383,379.5703" style="stroke:#181818;stroke-width:1.0;"/><line style="stroke:#181818;stroke-width:1.0;" x1="381" x2="559" y1="379.5703" y2="379.5703"/><text fill="#000000" font-family="sans-serif" font-size="13" font-weight="bold" lengthAdjust="spacing" textLength="7" x="393" y="374.3076">9</text><text fill="#000000" font-family="sans-serif" font-size="13" lengthAdjust="spacing" textLength="24" x="404" y="374.3076">size</text><polygon fill="#181818" points="96,406.8613,86,410.8613,96,414.8613,92,410.8613" style="stroke:#181818;stroke-width:1.0;"/><line style="stroke:#181818;stroke-width:1.0;" x1="90" x2="365" y1="410.8613" y2="410.8613"/><text fill="#000000" font-family="sans-serif" font-size="13" font-weight="bold" lengthAdjust="spacing" textLength="14" x="102" y="405.5986">10</text><text fill="#000000" font-family="sans-serif" font-size="13" lengthAdjust="spacing" textLength="71" x="120" y="405.5986">request size</text><polygon fill="#181818" points="354,438.1523,364,442.1523,354,446.1523,358,442.1523" style="stroke:#181818;stroke-width:1.0;"/><line style="stroke:#181818;stroke-width:1.0;" x1="85" x2="360" y1="442.1523" y2="442.1523"/><text fill="#000000" font-family="sans-serif" font-size="13" font-weight="bold" lengthAdjust="spacing" textLength="14" x="92" y="436.8896">11</text><text fill="#000000" font-family="sans-serif" font-size="13" lengthAdjust="spacing" textLength="70" x="110" y="436.8896">selects size</text><polygon fill="#181818" points="96,469.4434,86,473.4434,96,477.4434,92,473.4434" style="stroke:#181818;stroke-width:1.0;"/><line style="stroke:#181818;stroke-width:1.0;" x1="90" x2="365" y1="473.4434" y2="473.4434"/><text fill="#000000" font-family="sans-serif" font-size="13" font-weight="bold" lengthAdjust="spacing" textLength="14" x="102" y="468.1807">12</text><text fill="#000000" font-family="sans-serif" font-size="13" lengthAdjust="spacing" textLength="79" x="120" y="468.1807">requests area</text><polygon fill="#181818" points="354,500.7344,364,504.7344,354,508.7344,358,504.7344" style="stroke:#181818;stroke-width:1.0;"/><line style="stroke:#181818;stroke-width:1.0;" x1="85" x2="360" y1="504.7344" y2="504.7344"/><text fill="#000000" font-family="sans-serif" font-size="13" font-weight="bold" lengthAdjust="spacing" textLength="14" x="92" y="499.4717">13</text><text fill="#000000" font-family="sans-serif" font-size="13" lengthAdjust="spacing" textLength="61" x="110" y="499.4717">types area</text><polygon fill="#181818" points="709,532.0254,719,536.0254,709,540.0254,713,536.0254" style="stroke:#181818;stroke-width:1.0;"/><line style="stroke:#181818;stroke-width:1.0;" x1="570" x2="715" y1="536.0254" y2="536.0254"/><text fill="#000000" font-family="sans-serif" font-size="13" font-weight="bold" lengthAdjust="spacing" textLength="14" x="577" y="530.7627">14</text><text fill="#000000" font-family="sans-serif" font-size="13" lengthAdjust="spacing" textLength="75" x="595" y="530.7627">getInstance()</text><polygon fill="#181818" points="581,563.3164,571,567.3164,581,571.3164,577,567.3164" style="stroke:#181818;stroke-width:1.0;"/><line style="stroke:#181818;stroke-width:1.0;" x1="575" x2="725" y1="567.3164" y2="567.3164"/><text fill="#000000" font-family="sans-serif" font-size="13" font-weight="bold" lengthAdjust="spacing" textLength="14" x="587" y="562.0537">15</text><text fill="#000000" font-family="sans-serif" font-size="13" lengthAdjust="spacing" textLength="67" x="605" y="562.0537">repositories</text><polygon fill="#181818" points="847,594.6074,857,598.6074,847,602.6074,851,598.6074" style="stroke:#181818;stroke-width:1.0;"/><line style="stroke:#181818;stroke-width:1.0;" x1="570" x2="853" y1="598.6074" y2="598.6074"/><text fill="#000000" font-family="sans-serif" font-size="13" font-weight="bold" lengthAdjust="spacing" textLength="14" x="577" y="593.3447">16</text><text fill="#000000" font-family="sans-serif" font-size="13" lengthAdjust="spacing" textLength="161" x="595" y="593.3447">getOrganizationRepository()</text><polygon fill="#181818" points="581,625.8984,571,629.8984,581,633.8984,577,629.8984" style="stroke:#181818;stroke-width:1.0;"/><line style="stroke:#181818;stroke-width:1.0;" x1="575" x2="863" y1="629.8984" y2="629.8984"/><text fill="#000000" font-family="sans-serif" font-size="13" font-weight="bold" lengthAdjust="spacing" textLength="14" x="587" y="624.6357">17</text><text fill="#000000" font-family="sans-serif" font-size="13" lengthAdjust="spacing" textLength="132" x="605" y="624.6357">organizationRepository</text><polygon fill="#181818" points="988,657.1895,998,661.1895,988,665.1895,992,661.1895" style="stroke:#181818;stroke-width:1.0;"/><line style="stroke:#181818;stroke-width:1.0;" x1="570" x2="994" y1="661.1895" y2="661.1895"/><text fill="#000000" font-family="sans-serif" font-size="13" font-weight="bold" lengthAdjust="spacing" textLength="14" x="577" y="655.9268">18</text><text fill="#000000" font-family="sans-serif" font-size="13" lengthAdjust="spacing" textLength="312" x="595" y="655.9268">registerGreenSpace(name, area, size, managerName)</text><polygon fill="#181818" points="581,688.4805,571,692.4805,581,696.4805,577,692.4805" style="stroke:#181818;stroke-width:1.0;"/><line style="stroke:#181818;stroke-width:1.0;" x1="575" x2="1004" y1="692.4805" y2="692.4805"/><text fill="#000000" font-family="sans-serif" font-size="13" font-weight="bold" lengthAdjust="spacing" textLength="14" x="587" y="687.2178">19</text><text fill="#000000" font-family="sans-serif" font-size="13" lengthAdjust="spacing" textLength="69" x="605" y="687.2178">greenSpace</text><polygon fill="#181818" points="387,719.7715,377,723.7715,387,727.7715,383,723.7715" style="stroke:#181818;stroke-width:1.0;"/><line style="stroke:#181818;stroke-width:1.0;" x1="381" x2="564" y1="723.7715" y2="723.7715"/><text fill="#000000" font-family="sans-serif" font-size="13" font-weight="bold" lengthAdjust="spacing" textLength="14" x="393" y="718.5088">20</text><text fill="#000000" font-family="sans-serif" font-size="13" lengthAdjust="spacing" textLength="69" x="411" y="718.5088">greenSpace</text><polygon fill="#181818" points="96,751.0625,86,755.0625,96,759.0625,92,755.0625" style="stroke:#181818;stroke-width:1.0;"/><line style="stroke:#181818;stroke-width:1.0;stroke-dasharray:2.0,2.0;" x1="90" x2="370" y1="755.0625" y2="755.0625"/><text fill="#000000" font-family="sans-serif" font-size="13" font-weight="bold" lengthAdjust="spacing" textLength="14" x="102" y="749.7998">21</text><text fill="#000000" font-family="sans-serif" font-size="13" lengthAdjust="spacing" textLength="229" x="120" y="749.7998">displays all data and operation success</text><!--SRC=[dLJBRjim4BppAnQ-n0dS7_2Xbnm20qqBnCqjbusqaGbBf4fIJPslxvBKWthO3g8JHSxCBcTtQOzIrMYmWaehdHsChWYSQKZO_gJ6x8W5xTsf932KELH5cGBi0NFzBbK1RrXQ4W8RfrLJlP8HukOWSu8thTsh_YSmSzh0wi4GATYpCi4ZAbOtAq0B3_j7mPfEPh96vM3rH8MqZamW1FppBY2VTzU0zreveykobRx__VHZIgcrbPoF91iWl356Q5EWaX_ef5Oz-hHzKRyM3uB8CcUiM_H9Rk55mP1pDA7_7RFsyYC2_49uA-LVT1HC4-0_Ni6tx-mDR1btjE0q5omQ0mYAtbFnoEbbsD6uqtwimbfUSiiYVngopaAE3c5TnPBTM51OqUs8bkRWJZNPZapv9zWNWgOzyvMmb_ani6-IkpkMo0on9oD4RrJefFJ4RtYshmjp2t9-jRvTfeVgfIU1rWPdkfsUvtIUsuKEzmxCQtREzLFhB9Kyu7OEMYmCiajNgX0WOZ5ddexeravPVbCoxzYa9_r4ZhYUCrXbaWbkSObPCt8NU7b4OoxBaptFxCoOZ-ATYJFaVr4akSbdWdMN6mOy63Hz5TU-zJUXB9jGvGsqy_WppCJachFdeYlq46MuJZ459rSu9pHgu4i2OUf4tujzC-RIrYMUkDFACauwgXnqJIRO1RR9Ch8BxS7ltNy0]--></g></svg>