<?xml version="1.0" encoding="us-ascii" standalone="no"?><svg xmlns="http://www.w3.org/2000/svg" xmlns:xlink="http://www.w3.org/1999/xlink" contentStyleType="text/css" height="868px" preserveAspectRatio="none" style="width:852px;height:868px;background:#FFFFFF;" version="1.1" viewBox="0 0 852 868" width="852px" zoomAndPan="magnify"><defs/><g><!--class AssignVehicleToEntryController--><g id="elem_AssignVehicleToEntryController"><rect codeLine="2" fill="#F1F1F1" height="159.7266" id="AssignVehicleToEntryController" rx="2.5" ry="2.5" style="stroke:#181818;stroke-width:0.5;" width="352" x="486.5" y="7"/><ellipse cx="558.25" cy="23" fill="#ADD1B2" rx="11" ry="11" style="stroke:#181818;stroke-width:1.0;"/><path d="M561.0156,18.875 Q561.1719,18.6563 561.3594,18.5469 Q561.5469,18.4375 561.7656,18.4375 Q562.1406,18.4375 562.375,18.7031 Q562.6094,18.9531 562.6094,19.5625 L562.6094,21.0156 Q562.6094,21.625 562.375,21.8906 Q562.1406,22.1563 561.7656,22.1563 Q561.4219,22.1563 561.2188,21.9531 Q561.0156,21.7656 560.9063,21.25 Q560.8594,20.8906 560.6719,20.7031 Q560.3438,20.3281 559.7344,20.1094 Q559.125,19.8906 558.5,19.8906 Q557.7344,19.8906 557.0938,20.2188 Q556.4688,20.5469 555.9688,21.2969 Q555.4844,22.0469 555.4844,23.0781 L555.4844,24.1719 Q555.4844,25.4063 556.375,26.2344 Q557.2656,27.0469 558.8594,27.0469 Q559.7969,27.0469 560.4531,26.7969 Q560.8438,26.6406 561.2656,26.2031 Q561.5313,25.9375 561.6719,25.8594 Q561.8281,25.7813 562.0313,25.7813 Q562.3594,25.7813 562.6094,26.0469 Q562.875,26.2969 562.875,26.6406 Q562.875,26.9844 562.5313,27.3906 Q562.0313,27.9688 561.2344,28.2969 Q560.1563,28.75 558.8594,28.75 Q557.3438,28.75 556.1406,28.125 Q555.1563,27.625 554.4688,26.5625 Q553.7813,25.4844 553.7813,24.2031 L553.7813,23.0469 Q553.7813,21.7188 554.3906,20.5781 Q555.0156,19.4219 556.1094,18.8125 Q557.2031,18.1875 558.4375,18.1875 Q559.1719,18.1875 559.8125,18.3594 Q560.4688,18.5156 561.0156,18.875 Z " fill="#000000"/><text fill="#000000" font-family="sans-serif" font-size="14" lengthAdjust="spacing" textLength="200" x="578.75" y="28.7969">AssignVehicleToEntryController</text><line style="stroke:#181818;stroke-width:0.5;" x1="487.5" x2="837.5" y1="39" y2="39"/><line style="stroke:#181818;stroke-width:0.5;" x1="487.5" x2="837.5" y1="47" y2="47"/><ellipse cx="497.5" cy="61.8105" fill="#84BE84" rx="3" ry="3" style="stroke:#038048;stroke-width:1.0;"/><text fill="#000000" font-family="sans-serif" font-size="14" lengthAdjust="spacing" textLength="211" x="506.5" y="66.1074">CreateVehicleToEntryController()</text><ellipse cx="497.5" cy="80.4316" fill="#84BE84" rx="3" ry="3" style="stroke:#038048;stroke-width:1.0;"/><text fill="#000000" font-family="sans-serif" font-size="14" lengthAdjust="spacing" textLength="175" x="506.5" y="84.7285">getVehicles(): List&lt;Vehicle&gt;</text><ellipse cx="497.5" cy="99.0527" fill="#84BE84" rx="3" ry="3" style="stroke:#038048;stroke-width:1.0;"/><text fill="#000000" font-family="sans-serif" font-size="14" lengthAdjust="spacing" textLength="193" x="506.5" y="103.3496">getVehicles(index: int): Vehicle</text><ellipse cx="497.5" cy="117.6738" fill="#84BE84" rx="3" ry="3" style="stroke:#038048;stroke-width:1.0;"/><text fill="#000000" font-family="sans-serif" font-size="14" lengthAdjust="spacing" textLength="153" x="506.5" y="121.9707">getEntries(): List&lt;Entry&gt;</text><ellipse cx="497.5" cy="136.2949" fill="#84BE84" rx="3" ry="3" style="stroke:#038048;stroke-width:1.0;"/><text fill="#000000" font-family="sans-serif" font-size="14" lengthAdjust="spacing" textLength="171" x="506.5" y="140.5918">getEntries(index: int): Entry</text><ellipse cx="497.5" cy="154.916" fill="#84BE84" rx="3" ry="3" style="stroke:#038048;stroke-width:1.0;"/><text fill="#000000" font-family="sans-serif" font-size="14" lengthAdjust="spacing" textLength="326" x="506.5" y="159.2129">assignVehicleToEntry(vehicle: Vehicle, entry: Entry)</text></g><!--class AssignVehicleToEntryUI--><g id="elem_AssignVehicleToEntryUI"><rect codeLine="11" fill="#F1F1F1" height="48" id="AssignVehicleToEntryUI" rx="2.5" ry="2.5" style="stroke:#181818;stroke-width:0.5;" width="182" x="269.5" y="63"/><ellipse cx="284.5" cy="79" fill="#ADD1B2" rx="11" ry="11" style="stroke:#181818;stroke-width:1.0;"/><path d="M287.2656,74.875 Q287.4219,74.6563 287.6094,74.5469 Q287.7969,74.4375 288.0156,74.4375 Q288.3906,74.4375 288.625,74.7031 Q288.8594,74.9531 288.8594,75.5625 L288.8594,77.0156 Q288.8594,77.625 288.625,77.8906 Q288.3906,78.1563 288.0156,78.1563 Q287.6719,78.1563 287.4688,77.9531 Q287.2656,77.7656 287.1563,77.25 Q287.1094,76.8906 286.9219,76.7031 Q286.5938,76.3281 285.9844,76.1094 Q285.375,75.8906 284.75,75.8906 Q283.9844,75.8906 283.3438,76.2188 Q282.7188,76.5469 282.2188,77.2969 Q281.7344,78.0469 281.7344,79.0781 L281.7344,80.1719 Q281.7344,81.4063 282.625,82.2344 Q283.5156,83.0469 285.1094,83.0469 Q286.0469,83.0469 286.7031,82.7969 Q287.0938,82.6406 287.5156,82.2031 Q287.7813,81.9375 287.9219,81.8594 Q288.0781,81.7813 288.2813,81.7813 Q288.6094,81.7813 288.8594,82.0469 Q289.125,82.2969 289.125,82.6406 Q289.125,82.9844 288.7813,83.3906 Q288.2813,83.9688 287.4844,84.2969 Q286.4063,84.75 285.1094,84.75 Q283.5938,84.75 282.3906,84.125 Q281.4063,83.625 280.7188,82.5625 Q280.0313,81.4844 280.0313,80.2031 L280.0313,79.0469 Q280.0313,77.7188 280.6406,76.5781 Q281.2656,75.4219 282.3594,74.8125 Q283.4531,74.1875 284.6875,74.1875 Q285.4219,74.1875 286.0625,74.3594 Q286.7188,74.5156 287.2656,74.875 Z " fill="#000000"/><text fill="#000000" font-family="sans-serif" font-size="14" lengthAdjust="spacing" textLength="150" x="298.5" y="84.7969">AssignVehicleToEntryUI</text><line style="stroke:#181818;stroke-width:0.5;" x1="270.5" x2="450.5" y1="95" y2="95"/><line style="stroke:#181818;stroke-width:0.5;" x1="270.5" x2="450.5" y1="103" y2="103"/></g><!--class Repositories--><g id="elem_Repositories"><rect codeLine="15" fill="#F1F1F1" height="141.1055" id="Repositories" rx="2.5" ry="2.5" style="stroke:#181818;stroke-width:0.5;" width="360" x="216.5" y="246"/><ellipse cx="352.75" cy="262" fill="#ADD1B2" rx="11" ry="11" style="stroke:#181818;stroke-width:1.0;"/><path d="M355.5156,257.875 Q355.6719,257.6563 355.8594,257.5469 Q356.0469,257.4375 356.2656,257.4375 Q356.6406,257.4375 356.875,257.7031 Q357.1094,257.9531 357.1094,258.5625 L357.1094,260.0156 Q357.1094,260.625 356.875,260.8906 Q356.6406,261.1563 356.2656,261.1563 Q355.9219,261.1563 355.7188,260.9531 Q355.5156,260.7656 355.4063,260.25 Q355.3594,259.8906 355.1719,259.7031 Q354.8438,259.3281 354.2344,259.1094 Q353.625,258.8906 353,258.8906 Q352.2344,258.8906 351.5938,259.2188 Q350.9688,259.5469 350.4688,260.2969 Q349.9844,261.0469 349.9844,262.0781 L349.9844,263.1719 Q349.9844,264.4063 350.875,265.2344 Q351.7656,266.0469 353.3594,266.0469 Q354.2969,266.0469 354.9531,265.7969 Q355.3438,265.6406 355.7656,265.2031 Q356.0313,264.9375 356.1719,264.8594 Q356.3281,264.7813 356.5313,264.7813 Q356.8594,264.7813 357.1094,265.0469 Q357.375,265.2969 357.375,265.6406 Q357.375,265.9844 357.0313,266.3906 Q356.5313,266.9688 355.7344,267.2969 Q354.6563,267.75 353.3594,267.75 Q351.8438,267.75 350.6406,267.125 Q349.6563,266.625 348.9688,265.5625 Q348.2813,264.4844 348.2813,263.2031 L348.2813,262.0469 Q348.2813,260.7188 348.8906,259.5781 Q349.5156,258.4219 350.6094,257.8125 Q351.7031,257.1875 352.9375,257.1875 Q353.6719,257.1875 354.3125,257.3594 Q354.9688,257.5156 355.5156,257.875 Z " fill="#000000"/><text fill="#000000" font-family="sans-serif" font-size="14" lengthAdjust="spacing" textLength="79" x="373.25" y="267.7969">Repositories</text><line style="stroke:#181818;stroke-width:0.5;" x1="217.5" x2="575.5" y1="278" y2="278"/><rect fill="none" height="6" style="stroke:#C82930;stroke-width:1.0;" width="6" x="224.5" y="289.8105"/><text fill="#000000" font-family="sans-serif" font-size="14" lengthAdjust="spacing" textLength="140" x="236.5" y="297.1074">instance: Repositories</text><line style="stroke:#181818;stroke-width:0.5;" x1="217.5" x2="575.5" y1="304.6211" y2="304.6211"/><ellipse cx="227.5" cy="319.4316" fill="#84BE84" rx="3" ry="3" style="stroke:#038048;stroke-width:1.0;"/><text fill="#000000" font-family="sans-serif" font-size="14" lengthAdjust="spacing" textLength="170" x="236.5" y="323.7285">getInstance(): Repositories</text><ellipse cx="227.5" cy="338.0527" fill="#84BE84" rx="3" ry="3" style="stroke:#038048;stroke-width:1.0;"/><text fill="#000000" font-family="sans-serif" font-size="14" lengthAdjust="spacing" textLength="266" x="236.5" y="342.3496">getVehicleRepository(): VehicleRepository</text><ellipse cx="227.5" cy="356.6738" fill="#84BE84" rx="3" ry="3" style="stroke:#038048;stroke-width:1.0;"/><text fill="#000000" font-family="sans-serif" font-size="14" lengthAdjust="spacing" textLength="272" x="236.5" y="360.9707">getAgendaRepository(): AgendaRepository</text><ellipse cx="227.5" cy="375.2949" fill="#84BE84" rx="3" ry="3" style="stroke:#038048;stroke-width:1.0;"/><text fill="#000000" font-family="sans-serif" font-size="14" lengthAdjust="spacing" textLength="334" x="236.5" y="379.5918">getOrganizationRepository(): OrganizationRepository</text></g><!--class VehicleRepository--><g id="elem_VehicleRepository"><rect codeLine="23" fill="#F1F1F1" height="103.8633" id="VehicleRepository" rx="2.5" ry="2.5" style="stroke:#181818;stroke-width:0.5;" width="219" x="7" y="466"/><ellipse cx="55.25" cy="482" fill="#ADD1B2" rx="11" ry="11" style="stroke:#181818;stroke-width:1.0;"/><path d="M58.0156,477.875 Q58.1719,477.6563 58.3594,477.5469 Q58.5469,477.4375 58.7656,477.4375 Q59.1406,477.4375 59.375,477.7031 Q59.6094,477.9531 59.6094,478.5625 L59.6094,480.0156 Q59.6094,480.625 59.375,480.8906 Q59.1406,481.1563 58.7656,481.1563 Q58.4219,481.1563 58.2188,480.9531 Q58.0156,480.7656 57.9063,480.25 Q57.8594,479.8906 57.6719,479.7031 Q57.3438,479.3281 56.7344,479.1094 Q56.125,478.8906 55.5,478.8906 Q54.7344,478.8906 54.0938,479.2188 Q53.4688,479.5469 52.9688,480.2969 Q52.4844,481.0469 52.4844,482.0781 L52.4844,483.1719 Q52.4844,484.4063 53.375,485.2344 Q54.2656,486.0469 55.8594,486.0469 Q56.7969,486.0469 57.4531,485.7969 Q57.8438,485.6406 58.2656,485.2031 Q58.5313,484.9375 58.6719,484.8594 Q58.8281,484.7813 59.0313,484.7813 Q59.3594,484.7813 59.6094,485.0469 Q59.875,485.2969 59.875,485.6406 Q59.875,485.9844 59.5313,486.3906 Q59.0313,486.9688 58.2344,487.2969 Q57.1563,487.75 55.8594,487.75 Q54.3438,487.75 53.1406,487.125 Q52.1563,486.625 51.4688,485.5625 Q50.7813,484.4844 50.7813,483.2031 L50.7813,482.0469 Q50.7813,480.7188 51.3906,479.5781 Q52.0156,478.4219 53.1094,477.8125 Q54.2031,477.1875 55.4375,477.1875 Q56.1719,477.1875 56.8125,477.3594 Q57.4688,477.5156 58.0156,477.875 Z " fill="#000000"/><text fill="#000000" font-family="sans-serif" font-size="14" lengthAdjust="spacing" textLength="114" x="75.75" y="487.7969">VehicleRepository</text><line style="stroke:#181818;stroke-width:0.5;" x1="8" x2="225" y1="498" y2="498"/><rect fill="none" height="6" style="stroke:#C82930;stroke-width:1.0;" width="6" x="15" y="509.8105"/><text fill="#000000" font-family="sans-serif" font-size="14" lengthAdjust="spacing" textLength="143" x="27" y="517.1074">vehicles: List&lt;Vehicle&gt;</text><line style="stroke:#181818;stroke-width:0.5;" x1="8" x2="225" y1="524.6211" y2="524.6211"/><ellipse cx="18" cy="539.4316" fill="#84BE84" rx="3" ry="3" style="stroke:#038048;stroke-width:1.0;"/><text fill="#000000" font-family="sans-serif" font-size="14" lengthAdjust="spacing" textLength="175" x="27" y="543.7285">getVehicles(): List&lt;Vehicle&gt;</text><ellipse cx="18" cy="558.0527" fill="#84BE84" rx="3" ry="3" style="stroke:#038048;stroke-width:1.0;"/><text fill="#000000" font-family="sans-serif" font-size="14" lengthAdjust="spacing" textLength="193" x="27" y="562.3496">getVehicles(index: int): Vehicle</text></g><!--class AgendaRepository--><g id="elem_AgendaRepository"><rect codeLine="29" fill="#F1F1F1" height="103.8633" id="AgendaRepository" rx="2.5" ry="2.5" style="stroke:#181818;stroke-width:0.5;" width="197" x="261" y="466"/><ellipse cx="297.6" cy="482" fill="#ADD1B2" rx="11" ry="11" style="stroke:#181818;stroke-width:1.0;"/><path d="M300.3656,477.875 Q300.5219,477.6563 300.7094,477.5469 Q300.8969,477.4375 301.1156,477.4375 Q301.4906,477.4375 301.725,477.7031 Q301.9594,477.9531 301.9594,478.5625 L301.9594,480.0156 Q301.9594,480.625 301.725,480.8906 Q301.4906,481.1563 301.1156,481.1563 Q300.7719,481.1563 300.5688,480.9531 Q300.3656,480.7656 300.2563,480.25 Q300.2094,479.8906 300.0219,479.7031 Q299.6938,479.3281 299.0844,479.1094 Q298.475,478.8906 297.85,478.8906 Q297.0844,478.8906 296.4438,479.2188 Q295.8188,479.5469 295.3188,480.2969 Q294.8344,481.0469 294.8344,482.0781 L294.8344,483.1719 Q294.8344,484.4063 295.725,485.2344 Q296.6156,486.0469 298.2094,486.0469 Q299.1469,486.0469 299.8031,485.7969 Q300.1938,485.6406 300.6156,485.2031 Q300.8813,484.9375 301.0219,484.8594 Q301.1781,484.7813 301.3813,484.7813 Q301.7094,484.7813 301.9594,485.0469 Q302.225,485.2969 302.225,485.6406 Q302.225,485.9844 301.8813,486.3906 Q301.3813,486.9688 300.5844,487.2969 Q299.5063,487.75 298.2094,487.75 Q296.6938,487.75 295.4906,487.125 Q294.5063,486.625 293.8188,485.5625 Q293.1313,484.4844 293.1313,483.2031 L293.1313,482.0469 Q293.1313,480.7188 293.7406,479.5781 Q294.3656,478.4219 295.4594,477.8125 Q296.5531,477.1875 297.7875,477.1875 Q298.5219,477.1875 299.1625,477.3594 Q299.8188,477.5156 300.3656,477.875 Z " fill="#000000"/><text fill="#000000" font-family="sans-serif" font-size="14" lengthAdjust="spacing" textLength="117" x="316.4" y="487.7969">AgendaRepository</text><line style="stroke:#181818;stroke-width:0.5;" x1="262" x2="457" y1="498" y2="498"/><rect fill="none" height="6" style="stroke:#C82930;stroke-width:1.0;" width="6" x="269" y="509.8105"/><text fill="#000000" font-family="sans-serif" font-size="14" lengthAdjust="spacing" textLength="122" x="281" y="517.1074">entries: List&lt;Entry&gt;</text><line style="stroke:#181818;stroke-width:0.5;" x1="262" x2="457" y1="524.6211" y2="524.6211"/><ellipse cx="272" cy="539.4316" fill="#84BE84" rx="3" ry="3" style="stroke:#038048;stroke-width:1.0;"/><text fill="#000000" font-family="sans-serif" font-size="14" lengthAdjust="spacing" textLength="153" x="281" y="543.7285">getEntries(): List&lt;Entry&gt;</text><ellipse cx="272" cy="558.0527" fill="#84BE84" rx="3" ry="3" style="stroke:#038048;stroke-width:1.0;"/><text fill="#000000" font-family="sans-serif" font-size="14" lengthAdjust="spacing" textLength="171" x="281" y="562.3496">getEntries(index: int): Entry</text></g><!--class Entry--><g id="elem_Entry"><rect codeLine="35" fill="#F1F1F1" height="85.2422" id="Entry" rx="2.5" ry="2.5" style="stroke:#181818;stroke-width:0.5;" width="251" x="356" y="776"/><ellipse cx="460.75" cy="792" fill="#ADD1B2" rx="11" ry="11" style="stroke:#181818;stroke-width:1.0;"/><path d="M463.5156,787.875 Q463.6719,787.6563 463.8594,787.5469 Q464.0469,787.4375 464.2656,787.4375 Q464.6406,787.4375 464.875,787.7031 Q465.1094,787.9531 465.1094,788.5625 L465.1094,790.0156 Q465.1094,790.625 464.875,790.8906 Q464.6406,791.1563 464.2656,791.1563 Q463.9219,791.1563 463.7188,790.9531 Q463.5156,790.7656 463.4063,790.25 Q463.3594,789.8906 463.1719,789.7031 Q462.8438,789.3281 462.2344,789.1094 Q461.625,788.8906 461,788.8906 Q460.2344,788.8906 459.5938,789.2188 Q458.9688,789.5469 458.4688,790.2969 Q457.9844,791.0469 457.9844,792.0781 L457.9844,793.1719 Q457.9844,794.4063 458.875,795.2344 Q459.7656,796.0469 461.3594,796.0469 Q462.2969,796.0469 462.9531,795.7969 Q463.3438,795.6406 463.7656,795.2031 Q464.0313,794.9375 464.1719,794.8594 Q464.3281,794.7813 464.5313,794.7813 Q464.8594,794.7813 465.1094,795.0469 Q465.375,795.2969 465.375,795.6406 Q465.375,795.9844 465.0313,796.3906 Q464.5313,796.9688 463.7344,797.2969 Q462.6563,797.75 461.3594,797.75 Q459.8438,797.75 458.6406,797.125 Q457.6563,796.625 456.9688,795.5625 Q456.2813,794.4844 456.2813,793.2031 L456.2813,792.0469 Q456.2813,790.7188 456.8906,789.5781 Q457.5156,788.4219 458.6094,787.8125 Q459.7031,787.1875 460.9375,787.1875 Q461.6719,787.1875 462.3125,787.3594 Q462.9688,787.5156 463.5156,787.875 Z " fill="#000000"/><text fill="#000000" font-family="sans-serif" font-size="14" lengthAdjust="spacing" textLength="33" x="481.25" y="797.7969">Entry</text><line style="stroke:#181818;stroke-width:0.5;" x1="357" x2="606" y1="808" y2="808"/><rect fill="none" height="6" style="stroke:#C82930;stroke-width:1.0;" width="6" x="364" y="819.8105"/><text fill="#000000" font-family="sans-serif" font-size="14" lengthAdjust="spacing" textLength="143" x="376" y="827.1074">vehicles: List&lt;Vehicle&gt;</text><line style="stroke:#181818;stroke-width:0.5;" x1="357" x2="606" y1="834.6211" y2="834.6211"/><ellipse cx="367" cy="849.4316" fill="#84BE84" rx="3" ry="3" style="stroke:#038048;stroke-width:1.0;"/><text fill="#000000" font-family="sans-serif" font-size="14" lengthAdjust="spacing" textLength="225" x="376" y="853.7285">setVehicles(vehicles: List&lt;Vehicle&gt;)</text></g><!--class Organization--><g id="elem_Organization"><rect codeLine="40" fill="#F1F1F1" height="48" id="Organization" rx="2.5" ry="2.5" style="stroke:#181818;stroke-width:0.5;" width="112" x="425.5" y="649"/><ellipse cx="440.5" cy="665" fill="#ADD1B2" rx="11" ry="11" style="stroke:#181818;stroke-width:1.0;"/><path d="M443.2656,660.875 Q443.4219,660.6563 443.6094,660.5469 Q443.7969,660.4375 444.0156,660.4375 Q444.3906,660.4375 444.625,660.7031 Q444.8594,660.9531 444.8594,661.5625 L444.8594,663.0156 Q444.8594,663.625 444.625,663.8906 Q444.3906,664.1563 444.0156,664.1563 Q443.6719,664.1563 443.4688,663.9531 Q443.2656,663.7656 443.1563,663.25 Q443.1094,662.8906 442.9219,662.7031 Q442.5938,662.3281 441.9844,662.1094 Q441.375,661.8906 440.75,661.8906 Q439.9844,661.8906 439.3438,662.2188 Q438.7188,662.5469 438.2188,663.2969 Q437.7344,664.0469 437.7344,665.0781 L437.7344,666.1719 Q437.7344,667.4063 438.625,668.2344 Q439.5156,669.0469 441.1094,669.0469 Q442.0469,669.0469 442.7031,668.7969 Q443.0938,668.6406 443.5156,668.2031 Q443.7813,667.9375 443.9219,667.8594 Q444.0781,667.7813 444.2813,667.7813 Q444.6094,667.7813 444.8594,668.0469 Q445.125,668.2969 445.125,668.6406 Q445.125,668.9844 444.7813,669.3906 Q444.2813,669.9688 443.4844,670.2969 Q442.4063,670.75 441.1094,670.75 Q439.5938,670.75 438.3906,670.125 Q437.4063,669.625 436.7188,668.5625 Q436.0313,667.4844 436.0313,666.2031 L436.0313,665.0469 Q436.0313,663.7188 436.6406,662.5781 Q437.2656,661.4219 438.3594,660.8125 Q439.4531,660.1875 440.6875,660.1875 Q441.4219,660.1875 442.0625,660.3594 Q442.7188,660.5156 443.2656,660.875 Z " fill="#000000"/><text fill="#000000" font-family="sans-serif" font-size="14" lengthAdjust="spacing" textLength="80" x="454.5" y="670.7969">Organization</text><line style="stroke:#181818;stroke-width:0.5;" x1="426.5" x2="536.5" y1="681" y2="681"/><line style="stroke:#181818;stroke-width:0.5;" x1="426.5" x2="536.5" y1="689" y2="689"/></g><!--class OrganizationRepository--><g id="elem_OrganizationRepository"><rect codeLine="43" fill="#F1F1F1" height="66.6211" id="OrganizationRepository" rx="2.5" ry="2.5" style="stroke:#181818;stroke-width:0.5;" width="224" x="493.5" y="484.5"/><ellipse cx="528.3" cy="500.5" fill="#ADD1B2" rx="11" ry="11" style="stroke:#181818;stroke-width:1.0;"/><path d="M531.0656,496.375 Q531.2219,496.1563 531.4094,496.0469 Q531.5969,495.9375 531.8156,495.9375 Q532.1906,495.9375 532.425,496.2031 Q532.6594,496.4531 532.6594,497.0625 L532.6594,498.5156 Q532.6594,499.125 532.425,499.3906 Q532.1906,499.6563 531.8156,499.6563 Q531.4719,499.6563 531.2688,499.4531 Q531.0656,499.2656 530.9563,498.75 Q530.9094,498.3906 530.7219,498.2031 Q530.3938,497.8281 529.7844,497.6094 Q529.175,497.3906 528.55,497.3906 Q527.7844,497.3906 527.1438,497.7188 Q526.5188,498.0469 526.0188,498.7969 Q525.5344,499.5469 525.5344,500.5781 L525.5344,501.6719 Q525.5344,502.9063 526.425,503.7344 Q527.3156,504.5469 528.9094,504.5469 Q529.8469,504.5469 530.5031,504.2969 Q530.8938,504.1406 531.3156,503.7031 Q531.5813,503.4375 531.7219,503.3594 Q531.8781,503.2813 532.0813,503.2813 Q532.4094,503.2813 532.6594,503.5469 Q532.925,503.7969 532.925,504.1406 Q532.925,504.4844 532.5813,504.8906 Q532.0813,505.4688 531.2844,505.7969 Q530.2063,506.25 528.9094,506.25 Q527.3938,506.25 526.1906,505.625 Q525.2063,505.125 524.5188,504.0625 Q523.8313,502.9844 523.8313,501.7031 L523.8313,500.5469 Q523.8313,499.2188 524.4406,498.0781 Q525.0656,496.9219 526.1594,496.3125 Q527.2531,495.6875 528.4875,495.6875 Q529.2219,495.6875 529.8625,495.8594 Q530.5188,496.0156 531.0656,496.375 Z " fill="#000000"/><text fill="#000000" font-family="sans-serif" font-size="14" lengthAdjust="spacing" textLength="148" x="546.7" y="506.2969">OrganizationRepository</text><line style="stroke:#181818;stroke-width:0.5;" x1="494.5" x2="716.5" y1="516.5" y2="516.5"/><line style="stroke:#181818;stroke-width:0.5;" x1="494.5" x2="716.5" y1="524.5" y2="524.5"/><ellipse cx="504.5" cy="539.3105" fill="#84BE84" rx="3" ry="3" style="stroke:#038048;stroke-width:1.0;"/><text fill="#000000" font-family="sans-serif" font-size="14" lengthAdjust="spacing" textLength="198" x="513.5" y="543.6074">getOrganization(): Organization</text></g><!--link AssignVehicleToEntryUI to AssignVehicleToEntryController--><g id="link_AssignVehicleToEntryUI_AssignVehicleToEntryController"><path codeLine="47" d="M451.63,87 C463.16,87 468.69,87 480.23,87 " fill="none" id="AssignVehicleToEntryUI-to-AssignVehicleToEntryController" style="stroke:#181818;stroke-width:1.0;stroke-dasharray:7.0,7.0;"/><polygon fill="#181818" points="486.23,87,477.23,83,481.23,87,477.23,91,486.23,87" style="stroke:#181818;stroke-width:1.0;"/></g><!--link AssignVehicleToEntryController to Repositories--><g id="link_AssignVehicleToEntryController_Repositories"><path codeLine="48" d="M569.84,167.25 C540,192.77 511.7294,216.9498 482.7494,241.7398 " fill="none" id="AssignVehicleToEntryController-to-Repositories" style="stroke:#181818;stroke-width:1.0;stroke-dasharray:7.0,7.0;"/><polygon fill="#181818" points="478.19,245.64,487.6293,242.8293,481.9895,242.3898,482.429,236.7501,478.19,245.64" style="stroke:#181818;stroke-width:1.0;"/><text fill="#000000" font-family="sans-serif" font-size="13" lengthAdjust="spacing" textLength="67" x="530.5" y="212.0283">repositories</text></g><!--link Repositories to VehicleRepository--><g id="link_Repositories_VehicleRepository"><path codeLine="49" d="M298.57,387.28 C262.3,413.12 226.756,438.4377 193.236,462.3277 " fill="none" id="Repositories-to-VehicleRepository" style="stroke:#181818;stroke-width:1.0;stroke-dasharray:7.0,7.0;"/><polygon fill="#181818" points="188.35,465.81,198.0006,463.8439,192.4217,462.9081,193.3575,457.3292,188.35,465.81" style="stroke:#181818;stroke-width:1.0;"/><text fill="#000000" font-family="sans-serif" font-size="13" lengthAdjust="spacing" textLength="101" x="257.5" y="432.0283">vehicleRepository</text></g><!--link Repositories to AgendaRepository--><g id="link_Repositories_AgendaRepository"><path codeLine="50" d="M383.56,387.28 C378.77,413.12 374.514,436.0206 370.084,459.9106 " fill="none" id="Repositories-to-AgendaRepository" style="stroke:#181818;stroke-width:1.0;stroke-dasharray:7.0,7.0;"/><polygon fill="#181818" points="368.99,465.81,374.5639,457.6902,369.9016,460.8938,366.698,456.2316,368.99,465.81" style="stroke:#181818;stroke-width:1.0;"/><text fill="#000000" font-family="sans-serif" font-size="13" lengthAdjust="spacing" textLength="104" x="379.5" y="432.0283">agendaRepository</text></g><!--link Repositories to Repositories--><g id="link_Repositories_Repositories"><path codeLine="51" d="M576.87,298.9 C597.85,302.15 611.5,308.01 611.5,316.5 C611.5,324.99 603.7793,329.9315 582.7993,333.1815 " fill="none" id="Repositories-to-Repositories" style="stroke:#181818;stroke-width:1.0;"/><polygon fill="#181818" points="576.87,334.1,586.3763,336.6751,581.8111,333.3346,585.1516,328.7694,576.87,334.1" style="stroke:#181818;stroke-width:1.0;"/><text fill="#000000" font-family="sans-serif" font-size="13" lengthAdjust="spacing" textLength="75" x="617.5" y="322.0283">getInstance()</text></g><!--link VehicleRepository to Organization--><g id="link_VehicleRepository_Organization"><path codeLine="52" d="M225.14,570.04 C260.71,586.25 300.58,603.87 337.5,619 C366.22,630.76 392.973,640.7722 419.763,650.3922 " fill="none" id="VehicleRepository-to-Organization" style="stroke:#181818;stroke-width:1.0;"/><polygon fill="#181818" points="425.41,652.42,418.2914,645.6137,420.7042,650.7302,415.5877,653.143,425.41,652.42" style="stroke:#181818;stroke-width:1.0;"/><text fill="#000000" font-family="sans-serif" font-size="13" lengthAdjust="spacing" textLength="68" x="338.5" y="615.0283">gets vehicle</text></g><!--link Repositories to OrganizationRepository--><g id="link_Repositories_OrganizationRepository"><path codeLine="53" d="M469.6,387.28 C504.21,420.31 539.5399,454.0371 567.0499,480.2971 " fill="none" id="Repositories-to-OrganizationRepository" style="stroke:#181818;stroke-width:1.0;stroke-dasharray:7.0,7.0;"/><polygon fill="#181818" points="571.39,484.44,567.6418,475.3323,567.7733,480.9876,562.1179,481.1191,571.39,484.44" style="stroke:#181818;stroke-width:1.0;"/><text fill="#000000" font-family="sans-serif" font-size="13" lengthAdjust="spacing" textLength="135" x="520.5" y="432.0283">OrganizationRepository</text></g><!--link OrganizationRepository to Organization--><g id="link_OrganizationRepository_Organization"><path codeLine="54" d="M578.9,551.82 C555.27,580.97 525.1076,618.1885 504.1676,644.0285 " fill="none" id="OrganizationRepository-to-Organization" style="stroke:#181818;stroke-width:1.0;"/><polygon fill="#181818" points="500.39,648.69,509.1641,644.2161,503.538,644.8054,502.9487,639.1793,500.39,648.69" style="stroke:#181818;stroke-width:1.0;"/><text fill="#000000" font-family="sans-serif" font-size="13" lengthAdjust="spacing" textLength="75" x="540.5" y="615.0283">has manager</text></g><!--link AgendaRepository to Organization--><g id="link_AgendaRepository_Organization"><path codeLine="55" d="M392.82,570.05 C403.95,586.13 416.77,603.68 429.5,619 C437.99,629.21 443.8126,635.5521 452.8226,644.5421 " fill="none" id="AgendaRepository-to-Organization" style="stroke:#181818;stroke-width:1.0;"/><polygon fill="#181818" points="457.07,648.78,453.5243,639.5915,453.5305,645.2484,447.8737,645.2547,457.07,648.78" style="stroke:#181818;stroke-width:1.0;"/><text fill="#000000" font-family="sans-serif" font-size="13" lengthAdjust="spacing" textLength="58" x="430.5" y="615.0283">gets entry</text></g><!--link Organization to Entry--><g id="link_Organization_Entry"><path codeLine="56" d="M481.5,697.06 C481.5,718.29 481.5,744.29 481.5,769.98 " fill="none" id="Organization-to-Entry" style="stroke:#181818;stroke-width:1.0;"/><polygon fill="#181818" points="481.5,775.98,485.5,766.98,481.5,770.98,477.5,766.98,481.5,775.98" style="stroke:#181818;stroke-width:1.0;"/><text fill="#000000" font-family="sans-serif" font-size="13" lengthAdjust="spacing" textLength="143" x="482.5" y="742.0283">assigns vehicles to entry</text><text fill="#000000" font-family="sans-serif" font-size="13" lengthAdjust="spacing" textLength="7" x="473.6469" y="719.0603">1</text><text fill="#000000" font-family="sans-serif" font-size="13" lengthAdjust="spacing" textLength="5" x="476.1016" y="764.8809">*</text></g><!--link AssignVehicleToEntryController to Organization--><g id="link_AssignVehicleToEntryController_Organization"><path codeLine="57" d="M705.13,167.14 C753.46,268.8 815.79,446.8 735.5,570 C692.43,636.09 604.3663,658.5588 543.5863,666.7488 " fill="none" id="AssignVehicleToEntryController-to-Organization" style="stroke:#181818;stroke-width:1.0;stroke-dasharray:7.0,7.0;"/><polygon fill="#181818" points="537.64,667.55,547.0936,670.3123,542.5952,666.8823,546.0252,662.384,537.64,667.55" style="stroke:#181818;stroke-width:1.0;"/><text fill="#000000" font-family="sans-serif" font-size="13" lengthAdjust="spacing" textLength="70" x="774.5" y="432.0283">organization</text></g><!--SRC=[dLJ1QiGW4BtdAuQSacwpq6ieWMNfOQ5GA6tlafMia6g9idIxzD-hnZKQjMdt4d3cZM_Up3DjZpY73UUaes_uGDeUlx07AeRJbialwtiym3a3WDLsm4ZW5AWe5GXM7HO6mekoXaV2nRq9D262q3t-h85G8R4cQb6AWJZNQCOcI7jtQCm8GH5HnN4yMh9Rm2fk2iliEylQv4XUTt8K4-GPVp1E15DTZ3E2Yb0k46qbWPkrFUzCMccA0WoXpPsAQJ1JqC8t7QPxvAFdCGj-6Zf4oHSIX56_99wPb0ODNEIQSVB5HLzfXMaTCr6N1l1eWjyTydy3MLvz_9DQxcX901rxkHENrqVZazfpT8VppQbR4hPTDx3moBE5Vm2irHsUvMiON0jxEOKENLF3CR1oK1QikWOqjxHNL3NplhoNbeLzG2Lh_1te8dxfpoSOjSTN0ydNay17kG-8mpkYKgTSn5n_kblzx_A88B_BDJw_oOrvvVZqQgqu3eAPqiMbXyJCTTmF]--></g></svg>