<?xml version="1.0" encoding="us-ascii" standalone="no"?><svg xmlns="http://www.w3.org/2000/svg" xmlns:xlink="http://www.w3.org/1999/xlink" contentStyleType="text/css" height="705px" preserveAspectRatio="none" style="width:381px;height:705px;background:#FFFFFF;" version="1.1" viewBox="0 0 381 705" width="381px" zoomAndPan="magnify"><defs/><g><text fill="#000000" font-family="sans-serif" font-size="14" font-weight="bold" lengthAdjust="spacing" textLength="347" x="16" y="30.1074">System Sequence Diagram (SSD) - Alternative two</text><rect fill="#FFFFFF" height="443.0449" style="stroke:#181818;stroke-width:1.0;" width="10" x="76" y="151.8633"/><rect fill="#FFFFFF" height="31.291" style="stroke:#181818;stroke-width:1.0;" width="10" x="323" y="175.1543"/><rect fill="#FFFFFF" height="31.291" style="stroke:#181818;stroke-width:1.0;" width="10" x="323" y="237.7363"/><rect fill="#FFFFFF" height="57.582" style="stroke:#181818;stroke-width:1.0;" width="10" x="323" y="300.3184"/><rect fill="#FFFFFF" height="79.2129" style="stroke:#181818;stroke-width:1.0;" width="10" x="323" y="389.1914"/><rect fill="#FFFFFF" height="94.2129" style="stroke:#181818;stroke-width:1.0;" width="10" x="323" y="499.6953"/><rect fill="none" height="271.5898" style="stroke:#000000;stroke-width:1.5;" width="360" x="10" y="315.3184"/><line style="stroke:#181818;stroke-width:0.5;stroke-dasharray:5.0,5.0;" x1="81" x2="81" y1="141.8633" y2="603.9082"/><line style="stroke:#181818;stroke-width:0.5;stroke-dasharray:5.0,5.0;" x1="328" x2="328" y1="141.8633" y2="603.9082"/><text fill="#000000" font-family="sans-serif" font-size="14" lengthAdjust="spacing" textLength="116" x="20" y="119.7285">Human Resources</text><text fill="#000000" font-family="sans-serif" font-size="14" lengthAdjust="spacing" textLength="56" x="50" y="138.3496">Manager</text><ellipse cx="81" cy="53.1211" fill="#E3E3E3" rx="8" ry="8" style="stroke:#181818;stroke-width:0.5;"/><path d="M81,61.1211 L81,88.1211 M68,69.1211 L94,69.1211 M81,88.1211 L68,103.1211 M81,88.1211 L94,103.1211 " fill="none" style="stroke:#181818;stroke-width:0.5;"/><text fill="#000000" font-family="sans-serif" font-size="14" lengthAdjust="spacing" textLength="116" x="20" y="618.0156">Human Resources</text><text fill="#000000" font-family="sans-serif" font-size="14" lengthAdjust="spacing" textLength="56" x="50" y="636.6367">Manager</text><ellipse cx="81" cy="648.6504" fill="#E3E3E3" rx="8" ry="8" style="stroke:#181818;stroke-width:0.5;"/><path d="M81,656.6504 L81,683.6504 M68,664.6504 L94,664.6504 M81,683.6504 L68,698.6504 M81,683.6504 L94,698.6504 " fill="none" style="stroke:#181818;stroke-width:0.5;"/><rect fill="#E3E3E3" height="32.6211" rx="2.5" ry="2.5" style="stroke:#181818;stroke-width:0.5;" width="64" x="296" y="108.2422"/><text fill="#000000" font-family="sans-serif" font-size="14" lengthAdjust="spacing" textLength="50" x="303" y="130.3496">:System</text><rect fill="#E3E3E3" height="32.6211" rx="2.5" ry="2.5" style="stroke:#181818;stroke-width:0.5;" width="64" x="296" y="602.9082"/><text fill="#000000" font-family="sans-serif" font-size="14" lengthAdjust="spacing" textLength="50" x="303" y="625.0156">:System</text><rect fill="#FFFFFF" height="443.0449" style="stroke:#181818;stroke-width:1.0;" width="10" x="76" y="151.8633"/><rect fill="#FFFFFF" height="31.291" style="stroke:#181818;stroke-width:1.0;" width="10" x="323" y="175.1543"/><rect fill="#FFFFFF" height="31.291" style="stroke:#181818;stroke-width:1.0;" width="10" x="323" y="237.7363"/><rect fill="#FFFFFF" height="57.582" style="stroke:#181818;stroke-width:1.0;" width="10" x="323" y="300.3184"/><rect fill="#FFFFFF" height="79.2129" style="stroke:#181818;stroke-width:1.0;" width="10" x="323" y="389.1914"/><rect fill="#FFFFFF" height="94.2129" style="stroke:#181818;stroke-width:1.0;" width="10" x="323" y="499.6953"/><polygon fill="#181818" points="311,171.1543,321,175.1543,311,179.1543,315,175.1543" style="stroke:#181818;stroke-width:1.0;"/><line style="stroke:#181818;stroke-width:1.0;" x1="86" x2="317" y1="175.1543" y2="175.1543"/><text fill="#000000" font-family="sans-serif" font-size="13" font-weight="bold" lengthAdjust="spacing" textLength="7" x="93" y="169.8916">1</text><text fill="#000000" font-family="sans-serif" font-size="13" lengthAdjust="spacing" textLength="176" x="104" y="169.8916">requests to create a new team</text><polygon fill="#181818" points="97,202.4453,87,206.4453,97,210.4453,93,206.4453" style="stroke:#181818;stroke-width:1.0;"/><line style="stroke:#181818;stroke-width:1.0;stroke-dasharray:2.0,2.0;" x1="91" x2="327" y1="206.4453" y2="206.4453"/><text fill="#000000" font-family="sans-serif" font-size="13" font-weight="bold" lengthAdjust="spacing" textLength="7" x="103" y="201.1826">2</text><text fill="#000000" font-family="sans-serif" font-size="13" lengthAdjust="spacing" textLength="202" x="114" y="201.1826">requests number of team members</text><polygon fill="#181818" points="311,233.7363,321,237.7363,311,241.7363,315,237.7363" style="stroke:#181818;stroke-width:1.0;"/><line style="stroke:#181818;stroke-width:1.0;" x1="86" x2="317" y1="237.7363" y2="237.7363"/><text fill="#000000" font-family="sans-serif" font-size="13" font-weight="bold" lengthAdjust="spacing" textLength="7" x="93" y="232.4736">3</text><text fill="#000000" font-family="sans-serif" font-size="13" lengthAdjust="spacing" textLength="203" x="104" y="232.4736">specifies number of team members</text><polygon fill="#181818" points="97,265.0273,87,269.0273,97,273.0273,93,269.0273" style="stroke:#181818;stroke-width:1.0;"/><line style="stroke:#181818;stroke-width:1.0;" x1="91" x2="327" y1="269.0273" y2="269.0273"/><text fill="#000000" font-family="sans-serif" font-size="13" font-weight="bold" lengthAdjust="spacing" textLength="7" x="103" y="263.7646">4</text><text fill="#000000" font-family="sans-serif" font-size="13" lengthAdjust="spacing" textLength="130" x="114" y="263.7646">requests skills needed</text><polygon fill="#181818" points="311,296.3184,321,300.3184,311,304.3184,315,300.3184" style="stroke:#181818;stroke-width:1.0;"/><line style="stroke:#181818;stroke-width:1.0;" x1="86" x2="317" y1="300.3184" y2="300.3184"/><text fill="#000000" font-family="sans-serif" font-size="13" font-weight="bold" lengthAdjust="spacing" textLength="7" x="93" y="295.0557">5</text><text fill="#000000" font-family="sans-serif" font-size="13" lengthAdjust="spacing" textLength="131" x="104" y="295.0557">specifies skills needed</text><path d="M10,315.3184 L71,315.3184 L71,324.6094 L61,334.6094 L10,334.6094 L10,315.3184 " fill="#EEEEEE" style="stroke:#000000;stroke-width:1.5;"/><rect fill="none" height="271.5898" style="stroke:#000000;stroke-width:1.5;" width="360" x="10" y="315.3184"/><text fill="#000000" font-family="sans-serif" font-size="13" font-weight="bold" lengthAdjust="spacing" textLength="16" x="25" y="330.3467">alt</text><text fill="#000000" font-family="sans-serif" font-size="11" font-weight="bold" lengthAdjust="spacing" textLength="152" x="86" y="329.1885">[Team generated accepted]</text><polygon fill="#181818" points="97,353.9004,87,357.9004,97,361.9004,93,357.9004" style="stroke:#181818;stroke-width:1.0;"/><line style="stroke:#181818;stroke-width:1.0;stroke-dasharray:2.0,2.0;" x1="91" x2="327" y1="357.9004" y2="357.9004"/><text fill="#000000" font-family="sans-serif" font-size="13" font-weight="bold" lengthAdjust="spacing" textLength="7" x="103" y="352.6377">6</text><text fill="#000000" font-family="sans-serif" font-size="13" lengthAdjust="spacing" textLength="143" x="114" y="352.6377">generates team proposal</text><polygon fill="#181818" points="311,385.1914,321,389.1914,311,393.1914,315,389.1914" style="stroke:#181818;stroke-width:1.0;"/><line style="stroke:#181818;stroke-width:1.0;" x1="86" x2="317" y1="389.1914" y2="389.1914"/><text fill="#000000" font-family="sans-serif" font-size="13" font-weight="bold" lengthAdjust="spacing" textLength="7" x="93" y="383.9287">7</text><text fill="#000000" font-family="sans-serif" font-size="13" lengthAdjust="spacing" textLength="137" x="104" y="383.9287">approves team proposal</text><polygon fill="#181818" points="97,416.4824,87,420.4824,97,424.4824,93,420.4824" style="stroke:#181818;stroke-width:1.0;"/><line style="stroke:#181818;stroke-width:1.0;stroke-dasharray:2.0,2.0;" x1="91" x2="322" y1="420.4824" y2="420.4824"/><text fill="#000000" font-family="sans-serif" font-size="13" font-weight="bold" lengthAdjust="spacing" textLength="7" x="103" y="415.2197">8</text><text fill="#000000" font-family="sans-serif" font-size="13" lengthAdjust="spacing" textLength="132" x="114" y="415.2197">confirms team creation</text><line style="stroke:#000000;stroke-width:1.0;stroke-dasharray:2.0,2.0;" x1="10" x2="370" y1="429.4824" y2="429.4824"/><text fill="#000000" font-family="sans-serif" font-size="11" font-weight="bold" lengthAdjust="spacing" textLength="148" x="15" y="441.3525">[Team generated rejected]</text><polygon fill="#181818" points="97,464.4043,87,468.4043,97,472.4043,93,468.4043" style="stroke:#181818;stroke-width:1.0;"/><line style="stroke:#181818;stroke-width:1.0;stroke-dasharray:2.0,2.0;" x1="91" x2="327" y1="468.4043" y2="468.4043"/><text fill="#000000" font-family="sans-serif" font-size="13" font-weight="bold" lengthAdjust="spacing" textLength="7" x="103" y="463.1416">9</text><text fill="#000000" font-family="sans-serif" font-size="13" lengthAdjust="spacing" textLength="143" x="114" y="463.1416">generates team proposal</text><polygon fill="#181818" points="311,495.6953,321,499.6953,311,503.6953,315,499.6953" style="stroke:#181818;stroke-width:1.0;"/><line style="stroke:#181818;stroke-width:1.0;" x1="86" x2="317" y1="499.6953" y2="499.6953"/><text fill="#000000" font-family="sans-serif" font-size="13" font-weight="bold" lengthAdjust="spacing" textLength="14" x="93" y="494.4326">10</text><text fill="#000000" font-family="sans-serif" font-size="13" lengthAdjust="spacing" textLength="125" x="111" y="494.4326">rejects team proposal</text><polygon fill="#181818" points="97,526.9863,87,530.9863,97,534.9863,93,530.9863" style="stroke:#181818;stroke-width:1.0;"/><line style="stroke:#181818;stroke-width:1.0;stroke-dasharray:2.0,2.0;" x1="91" x2="322" y1="530.9863" y2="530.9863"/><text fill="#000000" font-family="sans-serif" font-size="13" font-weight="bold" lengthAdjust="spacing" textLength="14" x="103" y="525.7236">11</text><text fill="#000000" font-family="sans-serif" font-size="13" lengthAdjust="spacing" textLength="125" x="121" y="525.7236">deletes team creation</text><line style="stroke:#000000;stroke-width:1.0;stroke-dasharray:2.0,2.0;" x1="10" x2="370" y1="539.9863" y2="539.9863"/><text fill="#000000" font-family="sans-serif" font-size="11" font-weight="bold" lengthAdjust="spacing" textLength="120" x="15" y="551.8564">[Team not generated]</text><polygon fill="#181818" points="97,574.9082,87,578.9082,97,582.9082,93,578.9082" style="stroke:#181818;stroke-width:1.0;"/><line style="stroke:#181818;stroke-width:1.0;stroke-dasharray:2.0,2.0;" x1="91" x2="322" y1="578.9082" y2="578.9082"/><text fill="#000000" font-family="sans-serif" font-size="13" font-weight="bold" lengthAdjust="spacing" textLength="14" x="103" y="573.6455">12</text><text fill="#000000" font-family="sans-serif" font-size="13" lengthAdjust="spacing" textLength="135" x="121" y="573.6455">displays error message</text><!--SRC=[fPIzZjim48HxFSN2LLBu1Qu84E02f4aJfKopeSOwvlWNxig6tpuhsPQ5M7OE2IiItFauEo8bhpuLhXmfvfJTIyqHf7L08_DEOVVAFLez1b25KqvzM1R82tVvu5DFEmw2fb6lLjeUHH6fnQy1oO6UFVTZ-RksVNvFM_eO53Mn-hqTUSXDmuFcDCGVg3PtcYjjFW-H4ts5vA4woFVqXPDvgHjYeK-nX7m46hEXtld2IMdpT3ftgZXD9vhVi-8gQSZ6PKNR3nUtJzQX-HKLqaokObGn9Hn8mN6IpRGBdixZpDWQRaOlWAVUAEyc54MCIvdK7LQXgmQbmFcTnqFWNpskMxIF6eA1WGxTVpYxvTnGPaiSbBwD_diaL2lfhDYXw5bvFzcBG4xzbvfB5WwpwjOxBSPg2roCihzBNEjakRVkq-MqypMUeTEbyZdD0S0UpPy9LFoqbxP8uDzJU5COzzx2wE8X-25qtN27WDdkd0RTf96oNXDvGn2TbnBuA8HQxUSH8MB_YklLHxfpfNy3]--></g></svg>