<?xml version="1.0" encoding="us-ascii" standalone="no"?><svg xmlns="http://www.w3.org/2000/svg" xmlns:xlink="http://www.w3.org/1999/xlink" contentStyleType="text/css" height="1224px" preserveAspectRatio="none" style="width:1426px;height:1224px;background:#FFFFFF;" version="1.1" viewBox="0 0 1426 1224" width="1426px" zoomAndPan="magnify"><defs/><g><!--entity HRM--><g id="elem_HRM"><ellipse cx="94" cy="862.5" fill="#F1F1F1" rx="8" ry="8" style="stroke:#181818;stroke-width:0.5;"/><path d="M94,870.5 L94,897.5 M81,878.5 L107,878.5 M94,897.5 L81,912.5 M94,897.5 L107,912.5 " fill="none" style="stroke:#181818;stroke-width:0.5;"/><text fill="#000000" font-family="sans-serif" font-size="14" lengthAdjust="spacing" textLength="176" x="6" y="929.1074">Human Resources Manager</text></g><!--entity VFM--><g id="elem_VFM"><ellipse cx="94" cy="290.5" fill="#F1F1F1" rx="8" ry="8" style="stroke:#181818;stroke-width:0.5;"/><path d="M94,298.5 L94,325.5 M81,306.5 L107,306.5 M94,325.5 L81,340.5 M94,325.5 L107,340.5 " fill="none" style="stroke:#181818;stroke-width:0.5;"/><text fill="#000000" font-family="sans-serif" font-size="14" lengthAdjust="spacing" textLength="142" x="23" y="357.1074">Vehicle Fleet Manager</text></g><g id="elem_UC1"><ellipse cx="831.4" cy="589.58" fill="#F1F1F1" rx="323.4" ry="67.08" style="stroke:#181818;stroke-width:0.5;"/><text fill="#000000" font-family="sans-serif" font-size="14" lengthAdjust="spacing" textLength="622" x="520.4" y="593.3769">UC1 - As a Human Resources Manager (HRM), I want to register skills that a collaborator may have</text></g><g id="elem_UC2"><ellipse cx="831.5194" cy="743.4039" fill="#F1F1F1" rx="245.0194" ry="51.4039" style="stroke:#181818;stroke-width:0.5;"/><text fill="#000000" font-family="sans-serif" font-size="14" lengthAdjust="spacing" textLength="463" x="600.0194" y="747.2008">UC2 - As an HRM, I want to register a job that a collaborator need to have</text></g><g id="elem_UC3"><ellipse cx="831.6323" cy="893.5265" fill="#F1F1F1" rx="303.1323" ry="63.0265" style="stroke:#181818;stroke-width:0.5;"/><text fill="#000000" font-family="sans-serif" font-size="14" lengthAdjust="spacing" textLength="581" x="541.1323" y="897.3233">UC3 - As an HRM, I want to register a collaborator with a job and fundamental characteristics</text></g><g id="elem_UC4"><ellipse cx="831.2758" cy="1040.3552" fill="#F1F1F1" rx="232.2758" ry="48.8552" style="stroke:#181818;stroke-width:0.5;"/><text fill="#000000" font-family="sans-serif" font-size="14" lengthAdjust="spacing" textLength="437" x="612.7758" y="1044.152">UC4 - As an HRM, I want to assign one or more skills to a collaborator</text></g><g id="elem_UC5"><ellipse cx="831.5164" cy="1171.7033" fill="#F1F1F1" rx="221.5164" ry="46.7033" style="stroke:#181818;stroke-width:0.5;"/><text fill="#000000" font-family="sans-serif" font-size="14" lengthAdjust="spacing" textLength="415" x="624.0164" y="1175.5002">UC5 - As a HRM, I want to generate a team proposal automatically</text></g><g id="elem_UC6"><ellipse cx="831.3509" cy="126.2702" fill="#F1F1F1" rx="589.3509" ry="120.2702" style="stroke:#181818;stroke-width:0.5;"/><text fill="#000000" font-family="sans-serif" font-size="14" lengthAdjust="spacing" textLength="1157" x="252.8509" y="130.0671">UC6 - As an FM, I wish to register a vehicle including Brand, Model, Type, Tare, Gross Weight, Current Km, Register Date, Acquisition Date, Maintenance/Check-up Frequency (in Kms)</text></g><g id="elem_UC7"><ellipse cx="831.5196" cy="321.6039" fill="#F1F1F1" rx="186.0196" ry="39.6039" style="stroke:#181818;stroke-width:0.5;"/><text fill="#000000" font-family="sans-serif" font-size="14" lengthAdjust="spacing" textLength="342" x="660.5196" y="325.4008">UC7 - As an FM, I wish to register a vehicle&#8217;s check-up</text></g><g id="elem_UC8"><ellipse cx="831.6823" cy="441.3365" fill="#F1F1F1" rx="214.6823" ry="45.3365" style="stroke:#181818;stroke-width:0.5;"/><text fill="#000000" font-family="sans-serif" font-size="14" lengthAdjust="spacing" textLength="401" x="631.1823" y="445.1333">UC8 - As an FM, I want to list the vehicles needing the check-up</text></g><!--link HRM to UC1--><g id="link_HRM_UC1"><path d="M109.64,853.98 C130.63,803.35 174.36,717.05 242,674.5 C320.53,625.1 410.5101,600.6738 501.9301,588.7838 " fill="none" id="HRM-to-UC1" style="stroke:#181818;stroke-width:1.0;"/><polygon fill="#181818" points="507.88,588.01,498.4393,585.2042,502.9218,588.6549,499.4711,593.1373,507.88,588.01" style="stroke:#181818;stroke-width:1.0;"/></g><!--link HRM to UC2--><g id="link_HRM_UC2"><path d="M155.25,853.96 C180.98,838.9 211.96,823.07 242,813.5 C353.03,778.13 475.0099,760.8481 583.1999,752.0181 " fill="none" id="HRM-to-UC2" style="stroke:#181818;stroke-width:1.0;"/><polygon fill="#181818" points="589.18,751.53,579.8844,748.2754,584.1966,751.9367,580.5352,756.2489,589.18,751.53" style="stroke:#181818;stroke-width:1.0;"/></g><!--link HRM to UC3--><g id="link_HRM_UC3"><path d="M182.26,893.5 C267.78,893.5 397.13,893.5 522.08,893.5 " fill="none" id="HRM-to-UC3" style="stroke:#181818;stroke-width:1.0;"/><polygon fill="#181818" points="528.08,893.5,519.08,889.5,523.08,893.5,519.08,897.5,528.08,893.5" style="stroke:#181818;stroke-width:1.0;"/></g><!--link HRM to UC4--><g id="link_HRM_UC4"><path d="M154.09,933.02 C180.02,948.47 211.45,964.79 242,974.5 C356.76,1010.97 483.7142,1027.4671 594.1742,1035.0871 " fill="none" id="HRM-to-UC4" style="stroke:#181818;stroke-width:1.0;"/><polygon fill="#181818" points="600.16,1035.5,591.4566,1030.8901,595.1719,1035.1559,590.9061,1038.8711,600.16,1035.5" style="stroke:#181818;stroke-width:1.0;"/></g><!--link HRM to UC5--><g id="link_HRM_UC5"><path d="M110.04,933.35 C131.21,983.35 174.87,1067.39 242,1107.5 C357.24,1176.36 502.1005,1191.6889 622.2205,1190.1089 " fill="none" id="HRM-to-UC5" style="stroke:#181818;stroke-width:1.0;"/><polygon fill="#181818" points="628.22,1190.03,619.1682,1186.1487,623.2204,1190.0958,619.2734,1194.148,628.22,1190.03" style="stroke:#181818;stroke-width:1.0;"/></g><!--link VFM to UC6--><g id="link_VFM_UC6"><path d="M165.33,291.93 C189.39,282.43 216.64,272.35 242,264.5 C300.65,246.35 357.4015,230.7548 419.0515,215.2348 " fill="none" id="VFM-to-UC6" style="stroke:#181818;stroke-width:1.0;"/><polygon fill="#181818" points="424.87,213.77,415.1658,212.0882,420.0213,214.9906,417.1188,219.8461,424.87,213.77" style="stroke:#181818;stroke-width:1.0;"/></g><!--link VFM to UC7--><g id="link_VFM_UC7"><path d="M165.19,321.5 C274.53,321.5 483.13,321.5 639.12,321.5 " fill="none" id="VFM-to-UC7" style="stroke:#181818;stroke-width:1.0;"/><polygon fill="#181818" points="645.12,321.5,636.12,317.5,640.12,321.5,636.12,325.5,645.12,321.5" style="stroke:#181818;stroke-width:1.0;"/></g><!--link VFM to UC8--><g id="link_VFM_UC8"><path d="M165.19,353.05 C189.13,362.63 216.33,372.27 242,378.5 C365.81,408.57 501.7757,423.8564 615.2357,432.0764 " fill="none" id="VFM-to-UC8" style="stroke:#181818;stroke-width:1.0;"/><polygon fill="#181818" points="621.22,432.51,612.5326,427.8701,616.2331,432.1487,611.9545,435.8492,621.22,432.51" style="stroke:#181818;stroke-width:1.0;"/></g><!--SRC=[ZPFFQXin4CRlUeh1boImfjJ_JuN4nKqflgHjUfvenxkgjP8ZQMEMKkXhzFNw91tPYYsR1B87CKWpl_aq-lR2hvNPeCC66ckih9rj289hIHnFDYZNMD7Nq6a2HpAWgJI9YsE6hx6qMsKgMA7s9BBYG_ul0VpTM5UIcrjj7NIajTsAtqBJAa2mu5HL1oXLh57M29I1qtgtROC6xiZRradoi4J3SbmFqCFjtV8vxPvg9LdXGXE5awJxnLA8rfD4Jz3xFdyFVRZsWF0A6IuPUrN0PzYYsIkZIld09tmnhJs46WFNIwirFbY7KK237TJuHBkMt2JlE4WTJHJy8XZXftruaMk8ofYQiGSvU_W6zWbmgqAT-g4fOTMQ4Xio0JN8cXzDSWqNAkbJks7URlHQE_HULGQi8OZJi8uEqx9d4X9tb7F7XqSvnLPaY8k8Jm95DpgxiPwrOXjiWomJjUuISPmJ9mUbYprH-VfiBa_9Cyf8tPRHm3UEPrB0qfQa2_ZMROXNTBn-SjPx-47Hf0NCM-TuPl2bATX02VYHTHPmBHzRvLMqSDfPeZA131f9x-OroNM_tS32qMDBHdPmgGnp_5Mwn2I_nFJDb_Ztvw_d1zpJ4sgQesRdg3HXpI1s7Zs3_CvoSHXnyumu4_m-qEz_s5dy60-oU9Z5eomU2_uJKpp9ucaMpuGG_m40]--></g></svg>