<?xml version="1.0" encoding="us-ascii" standalone="no"?><svg xmlns="http://www.w3.org/2000/svg" xmlns:xlink="http://www.w3.org/1999/xlink" contentStyleType="text/css" height="391px" preserveAspectRatio="none" style="width:4890px;height:391px;background:#FFFFFF;" version="1.1" viewBox="0 0 4890 391" width="4890px" zoomAndPan="magnify"><defs/><g><!--entity HRM--><g id="elem_HRM"><ellipse cx="1516.5" cy="14" fill="#F1F1F1" rx="8" ry="8" style="stroke:#181818;stroke-width:0.5;"/><path d="M1516.5,22 L1516.5,49 M1503.5,30 L1529.5,30 M1516.5,49 L1503.5,64 M1516.5,49 L1529.5,64 " fill="none" style="stroke:#181818;stroke-width:0.5;"/><text fill="#000000" font-family="sans-serif" font-size="14" lengthAdjust="spacing" textLength="176" x="1428.5" y="80.6074">Human Resources Manager</text></g><!--entity VFM--><g id="elem_VFM"><ellipse cx="2912.5" cy="14" fill="#F1F1F1" rx="8" ry="8" style="stroke:#181818;stroke-width:0.5;"/><path d="M2912.5,22 L2912.5,49 M2899.5,30 L2925.5,30 M2912.5,49 L2899.5,64 M2912.5,49 L2925.5,64 " fill="none" style="stroke:#181818;stroke-width:0.5;"/><text fill="#000000" font-family="sans-serif" font-size="14" lengthAdjust="spacing" textLength="142" x="2841.5" y="80.6074">Vehicle Fleet Manager</text></g><g id="elem_UC1"><ellipse cx="329.4" cy="265.08" fill="#F1F1F1" rx="323.4" ry="67.08" style="stroke:#181818;stroke-width:0.5;"/><text fill="#000000" font-family="sans-serif" font-size="14" lengthAdjust="spacing" textLength="622" x="18.4" y="268.8769">UC1 - As a Human Resources Manager (HRM), I want to register skills that a collaborator may have</text></g><g id="elem_UC2"><ellipse cx="933.5194" cy="264.9039" fill="#F1F1F1" rx="245.0194" ry="51.4039" style="stroke:#181818;stroke-width:0.5;"/><text fill="#000000" font-family="sans-serif" font-size="14" lengthAdjust="spacing" textLength="463" x="702.0194" y="268.7008">UC2 - As an HRM, I want to register a job that a collaborator need to have</text></g><g id="elem_UC3"><ellipse cx="1516.6323" cy="265.0265" fill="#F1F1F1" rx="303.1323" ry="63.0265" style="stroke:#181818;stroke-width:0.5;"/><text fill="#000000" font-family="sans-serif" font-size="14" lengthAdjust="spacing" textLength="581" x="1226.1323" y="268.8233">UC3 - As an HRM, I want to register a collaborator with a job and fundamental characteristics</text></g><g id="elem_UC4"><ellipse cx="2087.2758" cy="264.8552" fill="#F1F1F1" rx="232.2758" ry="48.8552" style="stroke:#181818;stroke-width:0.5;"/><text fill="#000000" font-family="sans-serif" font-size="14" lengthAdjust="spacing" textLength="437" x="1868.7758" y="268.652">UC4 - As an HRM, I want to assign one or more skills to a collaborator</text></g><g id="elem_UC5"><ellipse cx="2576.5164" cy="265.2033" fill="#F1F1F1" rx="221.5164" ry="46.7033" style="stroke:#181818;stroke-width:0.5;"/><text fill="#000000" font-family="sans-serif" font-size="14" lengthAdjust="spacing" textLength="415" x="2369.0164" y="269.0002">UC5 - As a HRM, I want to generate a team proposal automatically</text></g><g id="elem_UC6"><ellipse cx="3422.3509" cy="264.7702" fill="#F1F1F1" rx="589.3509" ry="120.2702" style="stroke:#181818;stroke-width:0.5;"/><text fill="#000000" font-family="sans-serif" font-size="14" lengthAdjust="spacing" textLength="1157" x="2843.8509" y="268.5671">UC6 - As an FM, I wish to register a vehicle including Brand, Model, Type, Tare, Gross Weight, Current Km, Register Date, Acquisition Date, Maintenance/Check-up Frequency (in Kms)</text></g><g id="elem_UC7"><ellipse cx="4233.5196" cy="265.1039" fill="#F1F1F1" rx="186.0196" ry="39.6039" style="stroke:#181818;stroke-width:0.5;"/><text fill="#000000" font-family="sans-serif" font-size="14" lengthAdjust="spacing" textLength="342" x="4062.5196" y="268.9008">UC7 - As an FM, I wish to register a vehicle&#8217;s check-up</text></g><g id="elem_UC8"><ellipse cx="4669.6823" cy="264.8365" fill="#F1F1F1" rx="214.6823" ry="45.3365" style="stroke:#181818;stroke-width:0.5;"/><text fill="#000000" font-family="sans-serif" font-size="14" lengthAdjust="spacing" textLength="401" x="4469.1823" y="268.6333">UC8 - As an FM, I want to list the vehicles needing the check-up</text></g><!--entity FM--><g id="elem_FM"><ellipse cx="4233.5" cy="14" fill="#F1F1F1" rx="8" ry="8" style="stroke:#181818;stroke-width:0.5;"/><path d="M4233.5,22 L4233.5,49 M4220.5,30 L4246.5,30 M4233.5,49 L4220.5,64 M4233.5,49 L4246.5,64 " fill="none" style="stroke:#181818;stroke-width:0.5;"/><text fill="#000000" font-family="sans-serif" font-size="14" lengthAdjust="spacing" textLength="20" x="4223.5" y="80.6074">FM</text></g><!--link HRM to UC1--><g id="link_HRM_UC1"><path d="M1428.33,49.85 C1273.29,58.03 942.47,81.83 670.5,144.5 C605.09,159.57 540.4172,180.8381 480.7372,202.9181 " fill="none" id="HRM-to-UC1" style="stroke:#181818;stroke-width:1.0;"/><polygon fill="#181818" points="475.11,205,484.9388,205.6286,479.7994,203.2651,482.1629,198.1256,475.11,205" style="stroke:#181818;stroke-width:1.0;"/></g><!--link HRM to UC2--><g id="link_HRM_UC2"><path d="M1428.27,69.72 C1363.19,88.03 1272.89,115.12 1195.5,144.5 C1138.83,166.01 1082.4887,191.3836 1033.1687,214.8336 " fill="none" id="HRM-to-UC2" style="stroke:#181818;stroke-width:1.0;"/><polygon fill="#181818" points="1027.75,217.41,1037.5956,217.1579,1032.2656,215.263,1034.1604,209.9329,1027.75,217.41" style="stroke:#181818;stroke-width:1.0;"/></g><!--link HRM to UC3--><g id="link_HRM_UC3"><path d="M1516.5,84.72 C1516.5,117.15 1516.5,158.03 1516.5,195.72 " fill="none" id="HRM-to-UC3" style="stroke:#181818;stroke-width:1.0;"/><polygon fill="#181818" points="1516.5,201.72,1520.5,192.72,1516.5,196.72,1512.5,192.72,1516.5,201.72" style="stroke:#181818;stroke-width:1.0;"/></g><!--link HRM to UC4--><g id="link_HRM_UC4"><path d="M1604.6,69.38 C1669.54,87.51 1759.59,114.54 1836.5,144.5 C1892.71,166.4 1948.5039,192.7158 1996.3839,216.6658 " fill="none" id="HRM-to-UC4" style="stroke:#181818;stroke-width:1.0;"/><polygon fill="#181818" points="2001.75,219.35,1995.4903,211.7463,1997.2782,217.1132,1991.9114,218.9011,2001.75,219.35" style="stroke:#181818;stroke-width:1.0;"/></g><!--link HRM to UC5--><g id="link_HRM_UC5"><path d="M1604.79,46.74 C1757.4,50.17 2079,66.93 2337.5,144.5 C2397.15,162.4 2454.7582,191.4173 2501.0082,217.7973 " fill="none" id="HRM-to-UC5" style="stroke:#181818;stroke-width:1.0;"/><polygon fill="#181818" points="2506.22,220.77,2500.3841,212.8364,2501.8768,218.2927,2496.4205,219.7855,2506.22,220.77" style="stroke:#181818;stroke-width:1.0;"/></g><!--link FM to UC6--><g id="link_FM_UC6"><path d="M4219.76,49.69 C4166.09,64.12 3970.0243,116.8224 3782.8743,167.1324 " fill="none" id="FM-to-UC6" style="stroke:#181818;stroke-width:1.0;"/><polygon fill="#181818" points="3777.08,168.69,3786.8099,170.2164,3781.9086,167.392,3784.733,162.4907,3777.08,168.69" style="stroke:#181818;stroke-width:1.0;"/></g><!--link FM to UC7--><g id="link_FM_UC7"><path d="M4233.5,84.72 C4233.5,124.37 4233.5,179.63 4233.5,219.27 " fill="none" id="FM-to-UC7" style="stroke:#181818;stroke-width:1.0;"/><polygon fill="#181818" points="4233.5,225.27,4237.5,216.27,4233.5,220.27,4229.5,216.27,4233.5,225.27" style="stroke:#181818;stroke-width:1.0;"/></g><!--link FM to UC8--><g id="link_FM_UC8"><path d="M4247.41,52.57 C4280.49,68.21 4366.41,109.04 4437.5,144.5 C4488.58,169.98 4540.2555,196.5642 4584.9755,219.7942 " fill="none" id="FM-to-UC8" style="stroke:#181818;stroke-width:1.0;"/><polygon fill="#181818" points="4590.3,222.56,4584.1572,214.8616,4585.8629,220.2551,4580.4694,221.9609,4590.3,222.56" style="stroke:#181818;stroke-width:1.0;"/></g><!--SRC=[ZPBDQXin4CVlUeh1boIm9iJVfqBYugOKNz8sFK-qartLMidHHynI2dsDlbwVfBEERCicWUn1p4epl_zVepdpAsNMwB21nXehQsSRWk0YYSF96kKAA_eQMatWI0OqbIPnTiZmDPPseqm5ZwWzYQnud_zB07ytrfNavbPR1orfRJVYjn0e0__tRcE31kx8s-WaULYYOLtN0_HmUxVSfTrJhIHRMMYYS9HqlrWA4Jr9z0Izx_ChwCEr1uGto73Es8i2FiC6JO1WsMwbVE0Jle7M7aADWUkbrHeVhCFEG8CjrFXCMqaMoHK7IT5qXby58_oq3wzo3L7PfMRiGSuUleDz1DoeK2SzD2KyHbDYGoQW1bdpwqYkuK8bVP8RvdAZj-JGUrKPi8QWwuPrjE-MFR6GkAESEzu_oZ6s8aDSH7mIg1ixPzVMirUCmJR8Db7hDX77EN6oTxfu8IfVd_JbESsCCbB7iflK6ySzAM1fIz85V6lNn2iwNZyvwpty85NLeO1vT8vx1b-QWWSe0J-opmAkvLDKNWLbJTfPeZA131f9b_EQvAeVrx1mz1J9o1REbM6ElqYNcEINcBxx4l_-_FNyW2_qX9hcgDafAdLOCuWdZtOWlnsvhXdTvWbn9lXzeD__i1tnGpp8uc4MZx9uB1QxS788fuTm9eJu3m00]--></g></svg>