<?xml version="1.0" encoding="us-ascii" standalone="no"?><svg xmlns="http://www.w3.org/2000/svg" xmlns:xlink="http://www.w3.org/1999/xlink" contentStyleType="text/css" height="354px" preserveAspectRatio="none" style="width:470px;height:354px;background:#FFFFFF;" version="1.1" viewBox="0 0 470 354" width="470px" zoomAndPan="magnify"><defs/><g><rect fill="#FFFFFF" height="189.7461" style="stroke:#181818;stroke-width:1.0;" width="10" x="227" y="90.5332"/><rect fill="#FFFFFF" height="93.873" style="stroke:#181818;stroke-width:1.0;" width="10" x="417" y="148.1152"/><rect fill="none" height="144.4551" style="stroke:#000000;stroke-width:1.5;" width="335.5" x="128.5" y="105.5332"/><line style="stroke:#181818;stroke-width:0.5;stroke-dasharray:5.0,5.0;" x1="231.5" x2="231.5" y1="57.2422" y2="298.2793"/><line style="stroke:#181818;stroke-width:0.5;stroke-dasharray:5.0,5.0;" x1="422" x2="422" y1="57.2422" y2="298.2793"/><rect fill="#E2E2F0" height="32.6211" rx="2.5" ry="2.5" style="stroke:#181818;stroke-width:0.5;" width="187" x="138.5" y="23.6211"/><text fill="#000000" font-family="sans-serif" font-size="14" lengthAdjust="spacing" textLength="173" x="145.5" y="45.7285">:MaintenanceRegistrationUI</text><rect fill="#E2E2F0" height="32.6211" rx="2.5" ry="2.5" style="stroke:#181818;stroke-width:0.5;" width="187" x="138.5" y="297.2793"/><text fill="#000000" font-family="sans-serif" font-size="14" lengthAdjust="spacing" textLength="173" x="145.5" y="319.3867">:MaintenanceRegistrationUI</text><rect fill="#E2E2F0" height="51.2422" rx="2.5" ry="2.5" style="stroke:#181818;stroke-width:0.5;" width="64" x="390" y="5"/><text fill="#000000" font-family="sans-serif" font-size="14" lengthAdjust="spacing" textLength="50" x="397" y="27.1074">Vehicle:</text><text fill="#000000" font-family="sans-serif" font-size="14" lengthAdjust="spacing" textLength="44" x="402" y="45.7285">vehicle</text><rect fill="#E2E2F0" height="51.2422" rx="2.5" ry="2.5" style="stroke:#181818;stroke-width:0.5;" width="64" x="390" y="297.2793"/><text fill="#000000" font-family="sans-serif" font-size="14" lengthAdjust="spacing" textLength="50" x="397" y="319.3867">Vehicle:</text><text fill="#000000" font-family="sans-serif" font-size="14" lengthAdjust="spacing" textLength="44" x="402" y="338.0078">vehicle</text><rect fill="#FFFFFF" height="189.7461" style="stroke:#181818;stroke-width:1.0;" width="10" x="227" y="90.5332"/><rect fill="#FFFFFF" height="93.873" style="stroke:#181818;stroke-width:1.0;" width="10" x="417" y="148.1152"/><polygon fill="#181818" points="215,86.5332,225,90.5332,215,94.5332,219,90.5332" style="stroke:#181818;stroke-width:1.0;"/><line style="stroke:#181818;stroke-width:1.0;" x1="0" x2="221" y1="90.5332" y2="90.5332"/><text fill="#000000" font-family="sans-serif" font-size="13" font-weight="bold" lengthAdjust="spacing" textLength="7" x="7" y="85.2705">1</text><text fill="#000000" font-family="sans-serif" font-size="13" lengthAdjust="spacing" textLength="98" x="18" y="85.2705">Registers results</text><path d="M128.5,105.5332 L277.5,105.5332 L277.5,114.8242 L267.5,124.8242 L128.5,124.8242 L128.5,105.5332 " fill="#EEEEEE" style="stroke:#000000;stroke-width:1.5;"/><rect fill="none" height="144.4551" style="stroke:#000000;stroke-width:1.5;" width="335.5" x="128.5" y="105.5332"/><text fill="#000000" font-family="sans-serif" font-size="13" font-weight="bold" lengthAdjust="spacing" textLength="104" x="143.5" y="120.5615">set Maintenance</text><polygon fill="#181818" points="405,144.1152,415,148.1152,405,152.1152,409,148.1152" style="stroke:#181818;stroke-width:1.0;"/><line style="stroke:#181818;stroke-width:1.0;" x1="237" x2="411" y1="148.1152" y2="148.1152"/><text fill="#000000" font-family="sans-serif" font-size="13" font-weight="bold" lengthAdjust="spacing" textLength="7" x="244" y="142.8525">2</text><text fill="#000000" font-family="sans-serif" font-size="13" lengthAdjust="spacing" textLength="100" x="255" y="142.8525">setMaintenance()</text><polygon fill="#181818" points="248,175.4063,238,179.4063,248,183.4063,244,179.4063" style="stroke:#181818;stroke-width:1.0;"/><line style="stroke:#181818;stroke-width:1.0;stroke-dasharray:2.0,2.0;" x1="242" x2="416" y1="179.4063" y2="179.4063"/><text fill="#000000" font-family="sans-serif" font-size="13" font-weight="bold" lengthAdjust="spacing" textLength="7" x="254" y="174.1436">3</text><text fill="#000000" font-family="sans-serif" font-size="13" lengthAdjust="spacing" textLength="74" x="265" y="174.1436">Maintenance</text><polygon fill="#181818" points="405,206.6973,415,210.6973,405,214.6973,409,210.6973" style="stroke:#181818;stroke-width:1.0;"/><line style="stroke:#181818;stroke-width:1.0;" x1="237" x2="411" y1="210.6973" y2="210.6973"/><text fill="#000000" font-family="sans-serif" font-size="13" font-weight="bold" lengthAdjust="spacing" textLength="7" x="244" y="205.4346">4</text><text fill="#000000" font-family="sans-serif" font-size="13" lengthAdjust="spacing" textLength="145" x="255" y="205.4346">setLastMaintenanceKm()</text><polygon fill="#181818" points="248,237.9883,238,241.9883,248,245.9883,244,241.9883" style="stroke:#181818;stroke-width:1.0;"/><line style="stroke:#181818;stroke-width:1.0;stroke-dasharray:2.0,2.0;" x1="242" x2="421" y1="241.9883" y2="241.9883"/><text fill="#000000" font-family="sans-serif" font-size="13" font-weight="bold" lengthAdjust="spacing" textLength="7" x="254" y="236.7256">5</text><text fill="#000000" font-family="sans-serif" font-size="13" lengthAdjust="spacing" textLength="119" x="265" y="236.7256">LastMaintenanceKm</text><polygon fill="#181818" points="11,276.2793,1,280.2793,11,284.2793,7,280.2793" style="stroke:#181818;stroke-width:1.0;"/><line style="stroke:#181818;stroke-width:1.0;stroke-dasharray:2.0,2.0;" x1="5" x2="231" y1="280.2793" y2="280.2793"/><text fill="#000000" font-family="sans-serif" font-size="13" font-weight="bold" lengthAdjust="spacing" textLength="7" x="17" y="275.0166">6</text><text fill="#000000" font-family="sans-serif" font-size="13" lengthAdjust="spacing" textLength="197" x="28" y="275.0166">Confirmation of results registration</text><!--SRC=[VP4n3i8m34NtdC9YWg4Ng10B4m8Mf3Anc60W4dMYnEtvSGiDaH1aSMH_ls_P0QCuwmAomApUesCXHhPqe9jB4b6SvsOp0qpGR4mevKUwE_kW-iJGlxwZx9qs1ZlntBLdYiP0jT9-gE75fPWWKkeUaWnQSJqA3Nm3-cxHTm4I2HJpZ9NXAKLPRnC5ggwGpHTPcBbveAaoDLVJKANFFwCTfj9iswhTR-gNEailz3NSa2Q-Z75PLGfGmjhprSLsF0BuwxGoZP_Zc0Ac6tm2]--></g></svg>