<?xml version="1.0" encoding="us-ascii" standalone="no"?><svg xmlns="http://www.w3.org/2000/svg" xmlns:xlink="http://www.w3.org/1999/xlink" contentStyleType="text/css" height="1531px" preserveAspectRatio="none" style="width:2330px;height:1531px;background:#FFFFFF;" version="1.1" viewBox="0 0 2330 1531" width="2330px" zoomAndPan="magnify"><defs/><g><!--class Collaborator--><g id="elem_Collaborator"><rect codeLine="10" fill="#F1F1F1" height="308.6953" id="Collaborator" rx="2.5" ry="2.5" style="stroke:#181818;stroke-width:0.5;" width="178" x="1098.5" y="1216"/><ellipse cx="1144.25" cy="1232" fill="#ADD1B2" rx="11" ry="11" style="stroke:#181818;stroke-width:1.0;"/><path d="M1147.0156,1227.875 Q1147.1719,1227.6563 1147.3594,1227.5469 Q1147.5469,1227.4375 1147.7656,1227.4375 Q1148.1406,1227.4375 1148.375,1227.7031 Q1148.6094,1227.9531 1148.6094,1228.5625 L1148.6094,1230.0156 Q1148.6094,1230.625 1148.375,1230.8906 Q1148.1406,1231.1563 1147.7656,1231.1563 Q1147.4219,1231.1563 1147.2188,1230.9531 Q1147.0156,1230.7656 1146.9063,1230.25 Q1146.8594,1229.8906 1146.6719,1229.7031 Q1146.3438,1229.3281 1145.7344,1229.1094 Q1145.125,1228.8906 1144.5,1228.8906 Q1143.7344,1228.8906 1143.0938,1229.2188 Q1142.4688,1229.5469 1141.9688,1230.2969 Q1141.4844,1231.0469 1141.4844,1232.0781 L1141.4844,1233.1719 Q1141.4844,1234.4063 1142.375,1235.2344 Q1143.2656,1236.0469 1144.8594,1236.0469 Q1145.7969,1236.0469 1146.4531,1235.7969 Q1146.8438,1235.6406 1147.2656,1235.2031 Q1147.5313,1234.9375 1147.6719,1234.8594 Q1147.8281,1234.7813 1148.0313,1234.7813 Q1148.3594,1234.7813 1148.6094,1235.0469 Q1148.875,1235.2969 1148.875,1235.6406 Q1148.875,1235.9844 1148.5313,1236.3906 Q1148.0313,1236.9688 1147.2344,1237.2969 Q1146.1563,1237.75 1144.8594,1237.75 Q1143.3438,1237.75 1142.1406,1237.125 Q1141.1563,1236.625 1140.4688,1235.5625 Q1139.7813,1234.4844 1139.7813,1233.2031 L1139.7813,1232.0469 Q1139.7813,1230.7188 1140.3906,1229.5781 Q1141.0156,1228.4219 1142.1094,1227.8125 Q1143.2031,1227.1875 1144.4375,1227.1875 Q1145.1719,1227.1875 1145.8125,1227.3594 Q1146.4688,1227.5156 1147.0156,1227.875 Z " fill="#000000"/><text fill="#000000" font-family="sans-serif" font-size="14" lengthAdjust="spacing" textLength="78" x="1164.75" y="1237.7969">Collaborator</text><line style="stroke:#181818;stroke-width:0.5;" x1="1099.5" x2="1275.5" y1="1248" y2="1248"/><text fill="#000000" font-family="sans-serif" font-size="14" lengthAdjust="spacing" textLength="81" x="1104.5" y="1267.1074">-String name</text><text fill="#000000" font-family="sans-serif" font-size="14" lengthAdjust="spacing" textLength="89" x="1104.5" y="1285.7285">-String adress</text><text fill="#000000" font-family="sans-serif" font-size="14" lengthAdjust="spacing" textLength="79" x="1104.5" y="1304.3496">-String email</text><text fill="#000000" font-family="sans-serif" font-size="14" lengthAdjust="spacing" textLength="135" x="1104.5" y="1322.9707">-String phoneNumber</text><text fill="#000000" font-family="sans-serif" font-size="14" lengthAdjust="spacing" textLength="89" x="1104.5" y="1341.5918">-String idType</text><text fill="#000000" font-family="sans-serif" font-size="14" lengthAdjust="spacing" textLength="106" x="1104.5" y="1360.2129">-String idNumber</text><text fill="#000000" font-family="sans-serif" font-size="14" lengthAdjust="spacing" textLength="131" x="1104.5" y="1378.834">-LocalDate birthDate</text><text fill="#000000" font-family="sans-serif" font-size="14" lengthAdjust="spacing" textLength="166" x="1104.5" y="1397.4551">-LocalDate admissionDate</text><text fill="#000000" font-family="sans-serif" font-size="14" lengthAdjust="spacing" textLength="65" x="1104.5" y="1416.0762">-String job</text><text fill="#000000" font-family="sans-serif" font-size="14" lengthAdjust="spacing" textLength="95" x="1104.5" y="1434.6973">-List&lt;Skill&gt; skill</text><line style="stroke:#181818;stroke-width:0.5;" x1="1099.5" x2="1275.5" y1="1442.2109" y2="1442.2109"/><text fill="#000000" font-family="sans-serif" font-size="14" lengthAdjust="spacing" textLength="63" x="1104.5" y="1461.3184">+getSkill()</text><text fill="#000000" font-family="sans-serif" font-size="14" lengthAdjust="spacing" textLength="152" x="1104.5" y="1479.9395">+setSkill(List&lt;Skill&gt; skill)</text><text fill="#000000" font-family="sans-serif" font-size="14" lengthAdjust="spacing" textLength="113" x="1104.5" y="1498.5605">+equals(Object o)</text><text fill="#000000" font-family="sans-serif" font-size="14" lengthAdjust="spacing" textLength="67" x="1104.5" y="1517.1816">+toString()</text></g><!--class Skill--><g id="elem_Skill"><rect codeLine="29" fill="#F1F1F1" height="122.4844" id="Skill" rx="2.5" ry="2.5" style="stroke:#181818;stroke-width:0.5;" width="201" x="1590" y="1015"/><ellipse cx="1673.75" cy="1031" fill="#ADD1B2" rx="11" ry="11" style="stroke:#181818;stroke-width:1.0;"/><path d="M1676.5156,1026.875 Q1676.6719,1026.6563 1676.8594,1026.5469 Q1677.0469,1026.4375 1677.2656,1026.4375 Q1677.6406,1026.4375 1677.875,1026.7031 Q1678.1094,1026.9531 1678.1094,1027.5625 L1678.1094,1029.0156 Q1678.1094,1029.625 1677.875,1029.8906 Q1677.6406,1030.1563 1677.2656,1030.1563 Q1676.9219,1030.1563 1676.7188,1029.9531 Q1676.5156,1029.7656 1676.4063,1029.25 Q1676.3594,1028.8906 1676.1719,1028.7031 Q1675.8438,1028.3281 1675.2344,1028.1094 Q1674.625,1027.8906 1674,1027.8906 Q1673.2344,1027.8906 1672.5938,1028.2188 Q1671.9688,1028.5469 1671.4688,1029.2969 Q1670.9844,1030.0469 1670.9844,1031.0781 L1670.9844,1032.1719 Q1670.9844,1033.4063 1671.875,1034.2344 Q1672.7656,1035.0469 1674.3594,1035.0469 Q1675.2969,1035.0469 1675.9531,1034.7969 Q1676.3438,1034.6406 1676.7656,1034.2031 Q1677.0313,1033.9375 1677.1719,1033.8594 Q1677.3281,1033.7813 1677.5313,1033.7813 Q1677.8594,1033.7813 1678.1094,1034.0469 Q1678.375,1034.2969 1678.375,1034.6406 Q1678.375,1034.9844 1678.0313,1035.3906 Q1677.5313,1035.9688 1676.7344,1036.2969 Q1675.6563,1036.75 1674.3594,1036.75 Q1672.8438,1036.75 1671.6406,1036.125 Q1670.6563,1035.625 1669.9688,1034.5625 Q1669.2813,1033.4844 1669.2813,1032.2031 L1669.2813,1031.0469 Q1669.2813,1029.7188 1669.8906,1028.5781 Q1670.5156,1027.4219 1671.6094,1026.8125 Q1672.7031,1026.1875 1673.9375,1026.1875 Q1674.6719,1026.1875 1675.3125,1026.3594 Q1675.9688,1026.5156 1676.5156,1026.875 Z " fill="#000000"/><text fill="#000000" font-family="sans-serif" font-size="14" lengthAdjust="spacing" textLength="25" x="1694.25" y="1036.7969">Skill</text><line style="stroke:#181818;stroke-width:0.5;" x1="1591" x2="1790" y1="1047" y2="1047"/><text fill="#000000" font-family="sans-serif" font-size="14" lengthAdjust="spacing" textLength="81" x="1596" y="1066.1074">-String name</text><line style="stroke:#181818;stroke-width:0.5;" x1="1591" x2="1790" y1="1073.6211" y2="1073.6211"/><text fill="#000000" font-family="sans-serif" font-size="14" lengthAdjust="spacing" textLength="154" x="1596" y="1092.7285">+Skill(skill_name: String)</text><text fill="#000000" font-family="sans-serif" font-size="14" lengthAdjust="spacing" textLength="189" x="1596" y="1111.3496">+getName:(skill_name: String)</text><text fill="#000000" font-family="sans-serif" font-size="14" lengthAdjust="spacing" textLength="112" x="1596" y="1129.9707">+toString(): String</text></g><!--class SkillsRepository--><g id="elem_SkillsRepository"><rect codeLine="36" fill="#F1F1F1" height="159.7266" id="SkillsRepository" rx="2.5" ry="2.5" style="stroke:#181818;stroke-width:0.5;" width="211" x="1855" y="785"/><ellipse cx="1906.25" cy="801" fill="#ADD1B2" rx="11" ry="11" style="stroke:#181818;stroke-width:1.0;"/><path d="M1909.0156,796.875 Q1909.1719,796.6563 1909.3594,796.5469 Q1909.5469,796.4375 1909.7656,796.4375 Q1910.1406,796.4375 1910.375,796.7031 Q1910.6094,796.9531 1910.6094,797.5625 L1910.6094,799.0156 Q1910.6094,799.625 1910.375,799.8906 Q1910.1406,800.1563 1909.7656,800.1563 Q1909.4219,800.1563 1909.2188,799.9531 Q1909.0156,799.7656 1908.9063,799.25 Q1908.8594,798.8906 1908.6719,798.7031 Q1908.3438,798.3281 1907.7344,798.1094 Q1907.125,797.8906 1906.5,797.8906 Q1905.7344,797.8906 1905.0938,798.2188 Q1904.4688,798.5469 1903.9688,799.2969 Q1903.4844,800.0469 1903.4844,801.0781 L1903.4844,802.1719 Q1903.4844,803.4063 1904.375,804.2344 Q1905.2656,805.0469 1906.8594,805.0469 Q1907.7969,805.0469 1908.4531,804.7969 Q1908.8438,804.6406 1909.2656,804.2031 Q1909.5313,803.9375 1909.6719,803.8594 Q1909.8281,803.7813 1910.0313,803.7813 Q1910.3594,803.7813 1910.6094,804.0469 Q1910.875,804.2969 1910.875,804.6406 Q1910.875,804.9844 1910.5313,805.3906 Q1910.0313,805.9688 1909.2344,806.2969 Q1908.1563,806.75 1906.8594,806.75 Q1905.3438,806.75 1904.1406,806.125 Q1903.1563,805.625 1902.4688,804.5625 Q1901.7813,803.4844 1901.7813,802.2031 L1901.7813,801.0469 Q1901.7813,799.7188 1902.3906,798.5781 Q1903.0156,797.4219 1904.1094,796.8125 Q1905.2031,796.1875 1906.4375,796.1875 Q1907.1719,796.1875 1907.8125,796.3594 Q1908.4688,796.5156 1909.0156,796.875 Z " fill="#000000"/><text fill="#000000" font-family="sans-serif" font-size="14" lengthAdjust="spacing" textLength="100" x="1926.75" y="806.7969">SkillsRepository</text><line style="stroke:#181818;stroke-width:0.5;" x1="1856" x2="2065" y1="817" y2="817"/><text fill="#000000" font-family="sans-serif" font-size="14" lengthAdjust="spacing" textLength="166" x="1861" y="836.1074">-instance: SkillsRepository</text><text fill="#000000" font-family="sans-serif" font-size="14" lengthAdjust="spacing" textLength="110" x="1861" y="854.7285">-skills: List&lt;Jobs&gt;</text><line style="stroke:#181818;stroke-width:0.5;" x1="1856" x2="2065" y1="862.2422" y2="862.2422"/><text fill="#000000" font-family="sans-serif" font-size="14" lengthAdjust="spacing" textLength="199" x="1861" y="881.3496">+getInstance(): SkillsRepository</text><text fill="#000000" font-family="sans-serif" font-size="14" lengthAdjust="spacing" textLength="118" x="1861" y="899.9707">+SkillsRepository()</text><text fill="#000000" font-family="sans-serif" font-size="14" lengthAdjust="spacing" textLength="157" x="1861" y="918.5918">+addSkill(skill: Skill): void</text><text fill="#000000" font-family="sans-serif" font-size="14" lengthAdjust="spacing" textLength="139" x="1861" y="937.2129">+getSkills(description)</text></g><!--class Job--><g id="elem_Job"><rect codeLine="47" fill="#F1F1F1" height="122.4844" id="Job" rx="2.5" ry="2.5" style="stroke:#181818;stroke-width:0.5;" width="197" x="1089" y="1015"/><ellipse cx="1172.25" cy="1031" fill="#ADD1B2" rx="11" ry="11" style="stroke:#181818;stroke-width:1.0;"/><path d="M1175.0156,1026.875 Q1175.1719,1026.6563 1175.3594,1026.5469 Q1175.5469,1026.4375 1175.7656,1026.4375 Q1176.1406,1026.4375 1176.375,1026.7031 Q1176.6094,1026.9531 1176.6094,1027.5625 L1176.6094,1029.0156 Q1176.6094,1029.625 1176.375,1029.8906 Q1176.1406,1030.1563 1175.7656,1030.1563 Q1175.4219,1030.1563 1175.2188,1029.9531 Q1175.0156,1029.7656 1174.9063,1029.25 Q1174.8594,1028.8906 1174.6719,1028.7031 Q1174.3438,1028.3281 1173.7344,1028.1094 Q1173.125,1027.8906 1172.5,1027.8906 Q1171.7344,1027.8906 1171.0938,1028.2188 Q1170.4688,1028.5469 1169.9688,1029.2969 Q1169.4844,1030.0469 1169.4844,1031.0781 L1169.4844,1032.1719 Q1169.4844,1033.4063 1170.375,1034.2344 Q1171.2656,1035.0469 1172.8594,1035.0469 Q1173.7969,1035.0469 1174.4531,1034.7969 Q1174.8438,1034.6406 1175.2656,1034.2031 Q1175.5313,1033.9375 1175.6719,1033.8594 Q1175.8281,1033.7813 1176.0313,1033.7813 Q1176.3594,1033.7813 1176.6094,1034.0469 Q1176.875,1034.2969 1176.875,1034.6406 Q1176.875,1034.9844 1176.5313,1035.3906 Q1176.0313,1035.9688 1175.2344,1036.2969 Q1174.1563,1036.75 1172.8594,1036.75 Q1171.3438,1036.75 1170.1406,1036.125 Q1169.1563,1035.625 1168.4688,1034.5625 Q1167.7813,1033.4844 1167.7813,1032.2031 L1167.7813,1031.0469 Q1167.7813,1029.7188 1168.3906,1028.5781 Q1169.0156,1027.4219 1170.1094,1026.8125 Q1171.2031,1026.1875 1172.4375,1026.1875 Q1173.1719,1026.1875 1173.8125,1026.3594 Q1174.4688,1026.5156 1175.0156,1026.875 Z " fill="#000000"/><text fill="#000000" font-family="sans-serif" font-size="14" lengthAdjust="spacing" textLength="22" x="1192.75" y="1036.7969">Job</text><line style="stroke:#181818;stroke-width:0.5;" x1="1090" x2="1285" y1="1047" y2="1047"/><text fill="#000000" font-family="sans-serif" font-size="14" lengthAdjust="spacing" textLength="81" x="1095" y="1066.1074">-String name</text><line style="stroke:#181818;stroke-width:0.5;" x1="1090" x2="1285" y1="1073.6211" y2="1073.6211"/><text fill="#000000" font-family="sans-serif" font-size="14" lengthAdjust="spacing" textLength="147" x="1095" y="1092.7285">+Job(job_name: String)</text><text fill="#000000" font-family="sans-serif" font-size="14" lengthAdjust="spacing" textLength="185" x="1095" y="1111.3496">+getName:(job_name: String)</text><text fill="#000000" font-family="sans-serif" font-size="14" lengthAdjust="spacing" textLength="112" x="1095" y="1129.9707">+toString(): String</text></g><!--class JobRepository--><g id="elem_JobRepository"><rect codeLine="55" fill="#F1F1F1" height="159.7266" id="JobRepository" rx="2.5" ry="2.5" style="stroke:#181818;stroke-width:0.5;" width="201" x="1087" y="785"/><ellipse cx="1138.25" cy="801" fill="#ADD1B2" rx="11" ry="11" style="stroke:#181818;stroke-width:1.0;"/><path d="M1141.0156,796.875 Q1141.1719,796.6563 1141.3594,796.5469 Q1141.5469,796.4375 1141.7656,796.4375 Q1142.1406,796.4375 1142.375,796.7031 Q1142.6094,796.9531 1142.6094,797.5625 L1142.6094,799.0156 Q1142.6094,799.625 1142.375,799.8906 Q1142.1406,800.1563 1141.7656,800.1563 Q1141.4219,800.1563 1141.2188,799.9531 Q1141.0156,799.7656 1140.9063,799.25 Q1140.8594,798.8906 1140.6719,798.7031 Q1140.3438,798.3281 1139.7344,798.1094 Q1139.125,797.8906 1138.5,797.8906 Q1137.7344,797.8906 1137.0938,798.2188 Q1136.4688,798.5469 1135.9688,799.2969 Q1135.4844,800.0469 1135.4844,801.0781 L1135.4844,802.1719 Q1135.4844,803.4063 1136.375,804.2344 Q1137.2656,805.0469 1138.8594,805.0469 Q1139.7969,805.0469 1140.4531,804.7969 Q1140.8438,804.6406 1141.2656,804.2031 Q1141.5313,803.9375 1141.6719,803.8594 Q1141.8281,803.7813 1142.0313,803.7813 Q1142.3594,803.7813 1142.6094,804.0469 Q1142.875,804.2969 1142.875,804.6406 Q1142.875,804.9844 1142.5313,805.3906 Q1142.0313,805.9688 1141.2344,806.2969 Q1140.1563,806.75 1138.8594,806.75 Q1137.3438,806.75 1136.1406,806.125 Q1135.1563,805.625 1134.4688,804.5625 Q1133.7813,803.4844 1133.7813,802.2031 L1133.7813,801.0469 Q1133.7813,799.7188 1134.3906,798.5781 Q1135.0156,797.4219 1136.1094,796.8125 Q1137.2031,796.1875 1138.4375,796.1875 Q1139.1719,796.1875 1139.8125,796.3594 Q1140.4688,796.5156 1141.0156,796.875 Z " fill="#000000"/><text fill="#000000" font-family="sans-serif" font-size="14" lengthAdjust="spacing" textLength="90" x="1158.75" y="806.7969">JobRepository</text><line style="stroke:#181818;stroke-width:0.5;" x1="1088" x2="1287" y1="817" y2="817"/><text fill="#000000" font-family="sans-serif" font-size="14" lengthAdjust="spacing" textLength="156" x="1093" y="836.1074">-instance: JobRepository</text><text fill="#000000" font-family="sans-serif" font-size="14" lengthAdjust="spacing" textLength="106" x="1093" y="854.7285">-jobs: List&lt;Jobs&gt;</text><line style="stroke:#181818;stroke-width:0.5;" x1="1088" x2="1287" y1="862.2422" y2="862.2422"/><text fill="#000000" font-family="sans-serif" font-size="14" lengthAdjust="spacing" textLength="189" x="1093" y="881.3496">+getInstance(): JobRepository</text><text fill="#000000" font-family="sans-serif" font-size="14" lengthAdjust="spacing" textLength="108" x="1093" y="899.9707">+JobRepository()</text><text fill="#000000" font-family="sans-serif" font-size="14" lengthAdjust="spacing" textLength="147" x="1093" y="918.5918">+addJob(job: Job): void</text><text fill="#000000" font-family="sans-serif" font-size="14" lengthAdjust="spacing" textLength="136" x="1093" y="937.2129">+getJobs(description)</text></g><g id="elem_GMN7"><path d="M2101.5,842.5 L2101.5,861 L2066.13,865 L2101.5,869 L2101.5,887.082 A0,0 0 0 0 2101.5,887.082 L2323.5,887.082 A0,0 0 0 0 2323.5,887.082 L2323.5,852.5 L2313.5,842.5 L2101.5,842.5 A0,0 0 0 0 2101.5,842.5 " fill="#FEFFDD" style="stroke:#181818;stroke-width:0.5;"/><path d="M2313.5,842.5 L2313.5,852.5 L2323.5,852.5 L2313.5,842.5 " fill="#FEFFDD" style="stroke:#181818;stroke-width:0.5;"/><text fill="#000000" font-family="sans-serif" font-size="13" lengthAdjust="spacing" textLength="154" x="2107.5" y="861.5283">- used to access the list of</text><text fill="#000000" font-family="sans-serif" font-size="13" lengthAdjust="spacing" textLength="197" x="2111.5" y="878.8193">skills that a collaborator may have</text></g><g id="elem_GMN10"><path d="M1323,842.5 L1323,887.082 L1820,887.082 L1820,852.5 L1810,842.5 L1323,842.5 " fill="#FEFFDD" style="stroke:#181818;stroke-width:0.5;"/><path d="M1810,842.5 L1810,852.5 L1820,852.5 L1810,842.5 " fill="#FEFFDD" style="stroke:#181818;stroke-width:1.0;"/><text fill="#000000" font-family="sans-serif" font-size="13" lengthAdjust="spacing" textLength="349" x="1329" y="861.5283">- used to access the list of jobs that a collaborator may have</text><text fill="#000000" font-family="sans-serif" font-size="13" lengthAdjust="spacing" textLength="472" x="1333" y="878.8193">(every job is there represented regardless the skills of the collaborator in question)</text></g><!--class CollaboratorRepository--><g id="elem_CollaboratorRepository"><rect codeLine="76" fill="#F1F1F1" height="178.3477" id="CollaboratorRepository" rx="2.5" ry="2.5" style="stroke:#181818;stroke-width:0.5;" width="295" x="757" y="776"/><ellipse cx="827.25" cy="792" fill="#ADD1B2" rx="11" ry="11" style="stroke:#181818;stroke-width:1.0;"/><path d="M830.0156,787.875 Q830.1719,787.6563 830.3594,787.5469 Q830.5469,787.4375 830.7656,787.4375 Q831.1406,787.4375 831.375,787.7031 Q831.6094,787.9531 831.6094,788.5625 L831.6094,790.0156 Q831.6094,790.625 831.375,790.8906 Q831.1406,791.1563 830.7656,791.1563 Q830.4219,791.1563 830.2188,790.9531 Q830.0156,790.7656 829.9063,790.25 Q829.8594,789.8906 829.6719,789.7031 Q829.3438,789.3281 828.7344,789.1094 Q828.125,788.8906 827.5,788.8906 Q826.7344,788.8906 826.0938,789.2188 Q825.4688,789.5469 824.9688,790.2969 Q824.4844,791.0469 824.4844,792.0781 L824.4844,793.1719 Q824.4844,794.4063 825.375,795.2344 Q826.2656,796.0469 827.8594,796.0469 Q828.7969,796.0469 829.4531,795.7969 Q829.8438,795.6406 830.2656,795.2031 Q830.5313,794.9375 830.6719,794.8594 Q830.8281,794.7813 831.0313,794.7813 Q831.3594,794.7813 831.6094,795.0469 Q831.875,795.2969 831.875,795.6406 Q831.875,795.9844 831.5313,796.3906 Q831.0313,796.9688 830.2344,797.2969 Q829.1563,797.75 827.8594,797.75 Q826.3438,797.75 825.1406,797.125 Q824.1563,796.625 823.4688,795.5625 Q822.7813,794.4844 822.7813,793.2031 L822.7813,792.0469 Q822.7813,790.7188 823.3906,789.5781 Q824.0156,788.4219 825.1094,787.8125 Q826.2031,787.1875 827.4375,787.1875 Q828.1719,787.1875 828.8125,787.3594 Q829.4688,787.5156 830.0156,787.875 Z " fill="#000000"/><text fill="#000000" font-family="sans-serif" font-size="14" lengthAdjust="spacing" textLength="146" x="847.75" y="797.7969">CollaboratorRepository</text><line style="stroke:#181818;stroke-width:0.5;" x1="758" x2="1051" y1="808" y2="808"/><text fill="#000000" font-family="sans-serif" font-size="14" lengthAdjust="spacing" textLength="207" x="763" y="827.1074">-List&lt;Collaborator&gt; collaborators</text><text fill="#000000" font-family="sans-serif" font-size="14" lengthAdjust="spacing" textLength="208" x="763" y="845.7285">-CollaboratorRepository instance</text><line style="stroke:#181818;stroke-width:0.5;" x1="758" x2="1051" y1="853.2422" y2="853.2422"/><text fill="#000000" font-family="sans-serif" font-size="14" lengthAdjust="spacing" textLength="164" x="763" y="872.3496">+CollaboratorRepository()</text><text fill="#000000" font-family="sans-serif" font-size="14" lengthAdjust="spacing" textLength="91" x="763" y="890.9707">+getInstance()</text><text fill="#000000" font-family="sans-serif" font-size="14" lengthAdjust="spacing" textLength="277" x="763" y="909.5918">+addCollaborator(Collaborator collaborator)</text><text fill="#000000" font-family="sans-serif" font-size="14" lengthAdjust="spacing" textLength="123" x="763" y="928.2129">+getCollaborators()</text><text fill="#000000" font-family="sans-serif" font-size="14" lengthAdjust="spacing" textLength="283" x="763" y="946.834">+saveCollaborator(Collaborator collaborator)</text></g><!--class Repositories--><g id="elem_Repositories"><rect codeLine="87" fill="#F1F1F1" height="141.1055" id="Repositories" rx="2.5" ry="2.5" style="stroke:#181818;stroke-width:0.5;" width="196" x="1313.5" y="351"/><ellipse cx="1367.75" cy="367" fill="#ADD1B2" rx="11" ry="11" style="stroke:#181818;stroke-width:1.0;"/><path d="M1370.5156,362.875 Q1370.6719,362.6563 1370.8594,362.5469 Q1371.0469,362.4375 1371.2656,362.4375 Q1371.6406,362.4375 1371.875,362.7031 Q1372.1094,362.9531 1372.1094,363.5625 L1372.1094,365.0156 Q1372.1094,365.625 1371.875,365.8906 Q1371.6406,366.1563 1371.2656,366.1563 Q1370.9219,366.1563 1370.7188,365.9531 Q1370.5156,365.7656 1370.4063,365.25 Q1370.3594,364.8906 1370.1719,364.7031 Q1369.8438,364.3281 1369.2344,364.1094 Q1368.625,363.8906 1368,363.8906 Q1367.2344,363.8906 1366.5938,364.2188 Q1365.9688,364.5469 1365.4688,365.2969 Q1364.9844,366.0469 1364.9844,367.0781 L1364.9844,368.1719 Q1364.9844,369.4063 1365.875,370.2344 Q1366.7656,371.0469 1368.3594,371.0469 Q1369.2969,371.0469 1369.9531,370.7969 Q1370.3438,370.6406 1370.7656,370.2031 Q1371.0313,369.9375 1371.1719,369.8594 Q1371.3281,369.7813 1371.5313,369.7813 Q1371.8594,369.7813 1372.1094,370.0469 Q1372.375,370.2969 1372.375,370.6406 Q1372.375,370.9844 1372.0313,371.3906 Q1371.5313,371.9688 1370.7344,372.2969 Q1369.6563,372.75 1368.3594,372.75 Q1366.8438,372.75 1365.6406,372.125 Q1364.6563,371.625 1363.9688,370.5625 Q1363.2813,369.4844 1363.2813,368.2031 L1363.2813,367.0469 Q1363.2813,365.7188 1363.8906,364.5781 Q1364.5156,363.4219 1365.6094,362.8125 Q1366.7031,362.1875 1367.9375,362.1875 Q1368.6719,362.1875 1369.3125,362.3594 Q1369.9688,362.5156 1370.5156,362.875 Z " fill="#000000"/><text fill="#000000" font-family="sans-serif" font-size="14" lengthAdjust="spacing" textLength="79" x="1388.25" y="372.7969">Repositories</text><line style="stroke:#181818;stroke-width:0.5;" x1="1314.5" x2="1508.5" y1="383" y2="383"/><line style="stroke:#181818;stroke-width:0.5;" x1="1314.5" x2="1508.5" y1="391" y2="391"/><text fill="#000000" font-family="sans-serif" font-size="14" lengthAdjust="spacing" textLength="94" x="1319.5" y="410.1074">-Repositories()</text><text fill="#000000" font-family="sans-serif" font-size="14" lengthAdjust="spacing" textLength="182" x="1319.5" y="428.7285">+getInstance() : Repositories</text><text fill="#000000" font-family="sans-serif" font-size="14" lengthAdjust="spacing" textLength="128" x="1319.5" y="447.3496">+getJobRepository()</text><text fill="#000000" font-family="sans-serif" font-size="14" lengthAdjust="spacing" textLength="138" x="1319.5" y="465.9707">+getSkillsRepository()</text><text fill="#000000" font-family="sans-serif" font-size="14" lengthAdjust="spacing" textLength="184" x="1319.5" y="484.5918">+getCollaboratorRepository()</text></g><!--class RegisterCollaboratorController--><g id="elem_RegisterCollaboratorController"><rect codeLine="95" fill="#F1F1F1" height="178.3477" id="RegisterCollaboratorController" rx="2.5" ry="2.5" style="stroke:#181818;stroke-width:0.5;" width="863" x="347" y="332.5"/><ellipse cx="677.75" cy="348.5" fill="#ADD1B2" rx="11" ry="11" style="stroke:#181818;stroke-width:1.0;"/><path d="M680.5156,344.375 Q680.6719,344.1563 680.8594,344.0469 Q681.0469,343.9375 681.2656,343.9375 Q681.6406,343.9375 681.875,344.2031 Q682.1094,344.4531 682.1094,345.0625 L682.1094,346.5156 Q682.1094,347.125 681.875,347.3906 Q681.6406,347.6563 681.2656,347.6563 Q680.9219,347.6563 680.7188,347.4531 Q680.5156,347.2656 680.4063,346.75 Q680.3594,346.3906 680.1719,346.2031 Q679.8438,345.8281 679.2344,345.6094 Q678.625,345.3906 678,345.3906 Q677.2344,345.3906 676.5938,345.7188 Q675.9688,346.0469 675.4688,346.7969 Q674.9844,347.5469 674.9844,348.5781 L674.9844,349.6719 Q674.9844,350.9063 675.875,351.7344 Q676.7656,352.5469 678.3594,352.5469 Q679.2969,352.5469 679.9531,352.2969 Q680.3438,352.1406 680.7656,351.7031 Q681.0313,351.4375 681.1719,351.3594 Q681.3281,351.2813 681.5313,351.2813 Q681.8594,351.2813 682.1094,351.5469 Q682.375,351.7969 682.375,352.1406 Q682.375,352.4844 682.0313,352.8906 Q681.5313,353.4688 680.7344,353.7969 Q679.6563,354.25 678.3594,354.25 Q676.8438,354.25 675.6406,353.625 Q674.6563,353.125 673.9688,352.0625 Q673.2813,350.9844 673.2813,349.7031 L673.2813,348.5469 Q673.2813,347.2188 673.8906,346.0781 Q674.5156,344.9219 675.6094,344.3125 Q676.7031,343.6875 677.9375,343.6875 Q678.6719,343.6875 679.3125,343.8594 Q679.9688,344.0156 680.5156,344.375 Z " fill="#000000"/><text fill="#000000" font-family="sans-serif" font-size="14" lengthAdjust="spacing" textLength="193" x="698.25" y="354.2969">RegisterCollaboratorController</text><line style="stroke:#181818;stroke-width:0.5;" x1="348" x2="1209" y1="364.5" y2="364.5"/><text fill="#000000" font-family="sans-serif" font-size="14" lengthAdjust="spacing" textLength="186" x="353" y="383.6074">-JobRepository jobRepository</text><text fill="#000000" font-family="sans-serif" font-size="14" lengthAdjust="spacing" textLength="298" x="353" y="402.2285">-CollaboratorRepository collaboratorRepository</text><text fill="#000000" font-family="sans-serif" font-size="14" lengthAdjust="spacing" textLength="324" x="353" y="420.8496">-AuthenticationRepository authenticationRepository</text><line style="stroke:#181818;stroke-width:0.5;" x1="348" x2="1209" y1="428.3633" y2="428.3633"/><text fill="#000000" font-family="sans-serif" font-size="14" lengthAdjust="spacing" textLength="341" x="353" y="447.4707">+RegisterCollaboratorController(EmployeeRepository)</text><text fill="#000000" font-family="sans-serif" font-size="14" lengthAdjust="spacing" textLength="162" x="353" y="466.0918">+getCollaboratorRecord()</text><text fill="#000000" font-family="sans-serif" font-size="14" lengthAdjust="spacing" textLength="851" x="353" y="484.7129">+setCollaboratorRecord(name, birthdate, admission date, address, contact info (mobile and email), ID doc type and respective number)</text><text fill="#000000" font-family="sans-serif" font-size="14" lengthAdjust="spacing" textLength="180" x="353" y="503.334">-getEmployeeFromSession()</text></g><g id="elem_GMN16"><path d="M681.5,6 L681.5,85.1641 A0,0 0 0 0 681.5,85.1641 L774.5,85.1641 L778.5,332.48 L782.5,85.1641 L875.5,85.1641 A0,0 0 0 0 875.5,85.1641 L875.5,16 L865.5,6 L681.5,6 A0,0 0 0 0 681.5,6 " fill="#FEFFDD" style="stroke:#181818;stroke-width:0.5;"/><path d="M865.5,6 L865.5,16 L875.5,16 L865.5,6 " fill="#FEFFDD" style="stroke:#181818;stroke-width:0.5;"/><text fill="#000000" font-family="sans-serif" font-size="13" lengthAdjust="spacing" textLength="133" x="687.5" y="25.0283">- userEmail is obtained</text><text fill="#000000" font-family="sans-serif" font-size="13" lengthAdjust="spacing" textLength="125" x="687.5" y="42.3193">from the user session</text><text fill="#000000" font-family="sans-serif" font-size="13" lengthAdjust="spacing" textLength="123" x="687.5" y="59.6104">- categoryDescription</text><text fill="#000000" font-family="sans-serif" font-size="13" lengthAdjust="spacing" textLength="173" x="687.5" y="76.9014">is retrieved from selected data</text></g><g id="elem_GMN19"><path d="M537.5,842.5 L537.5,887.082 A0,0 0 0 0 537.5,887.082 L721.5,887.082 A0,0 0 0 0 721.5,887.082 L721.5,869 L756.98,865 L721.5,861 L721.5,852.5 L711.5,842.5 L537.5,842.5 A0,0 0 0 0 537.5,842.5 " fill="#FEFFDD" style="stroke:#181818;stroke-width:0.5;"/><path d="M711.5,842.5 L711.5,852.5 L721.5,852.5 L711.5,842.5 " fill="#FEFFDD" style="stroke:#181818;stroke-width:0.5;"/><text fill="#000000" font-family="sans-serif" font-size="13" lengthAdjust="spacing" textLength="163" x="543.5" y="861.5283">- used for accessing a list of</text><text fill="#000000" font-family="sans-serif" font-size="13" lengthAdjust="spacing" textLength="135" x="543.5" y="878.8193">registered collaborators</text></g><!--class RegisterCollaboratorUI--><g id="elem_RegisterCollaboratorUI"><rect codeLine="121" fill="#F1F1F1" height="550.7695" id="RegisterCollaboratorUI" rx="2.5" ry="2.5" style="stroke:#181818;stroke-width:0.5;" width="305" x="7" y="146"/><ellipse cx="83.75" cy="162" fill="#ADD1B2" rx="11" ry="11" style="stroke:#181818;stroke-width:1.0;"/><path d="M86.5156,157.875 Q86.6719,157.6563 86.8594,157.5469 Q87.0469,157.4375 87.2656,157.4375 Q87.6406,157.4375 87.875,157.7031 Q88.1094,157.9531 88.1094,158.5625 L88.1094,160.0156 Q88.1094,160.625 87.875,160.8906 Q87.6406,161.1563 87.2656,161.1563 Q86.9219,161.1563 86.7188,160.9531 Q86.5156,160.7656 86.4063,160.25 Q86.3594,159.8906 86.1719,159.7031 Q85.8438,159.3281 85.2344,159.1094 Q84.625,158.8906 84,158.8906 Q83.2344,158.8906 82.5938,159.2188 Q81.9688,159.5469 81.4688,160.2969 Q80.9844,161.0469 80.9844,162.0781 L80.9844,163.1719 Q80.9844,164.4063 81.875,165.2344 Q82.7656,166.0469 84.3594,166.0469 Q85.2969,166.0469 85.9531,165.7969 Q86.3438,165.6406 86.7656,165.2031 Q87.0313,164.9375 87.1719,164.8594 Q87.3281,164.7813 87.5313,164.7813 Q87.8594,164.7813 88.1094,165.0469 Q88.375,165.2969 88.375,165.6406 Q88.375,165.9844 88.0313,166.3906 Q87.5313,166.9688 86.7344,167.2969 Q85.6563,167.75 84.3594,167.75 Q82.8438,167.75 81.6406,167.125 Q80.6563,166.625 79.9688,165.5625 Q79.2813,164.4844 79.2813,163.2031 L79.2813,162.0469 Q79.2813,160.7188 79.8906,159.5781 Q80.5156,158.4219 81.6094,157.8125 Q82.7031,157.1875 83.9375,157.1875 Q84.6719,157.1875 85.3125,157.3594 Q85.9688,157.5156 86.5156,157.875 Z " fill="#000000"/><text fill="#000000" font-family="sans-serif" font-size="14" lengthAdjust="spacing" textLength="143" x="104.25" y="167.7969">RegisterCollaboratorUI</text><line style="stroke:#181818;stroke-width:0.5;" x1="8" x2="311" y1="178" y2="178"/><text fill="#000000" font-family="sans-serif" font-size="14" lengthAdjust="spacing" textLength="256" x="13" y="197.1074">RegisterCollaboratorController controller</text><text fill="#000000" font-family="sans-serif" font-size="14" lengthAdjust="spacing" textLength="293" x="13" y="215.7285">CollaboratorRepository collaboratorRepository</text><text fill="#000000" font-family="sans-serif" font-size="14" lengthAdjust="spacing" textLength="181" x="13" y="234.3496">JobRepository jobRepository</text><text fill="#000000" font-family="sans-serif" font-size="14" lengthAdjust="spacing" textLength="76" x="13" y="252.9707">String name</text><text fill="#000000" font-family="sans-serif" font-size="14" lengthAdjust="spacing" textLength="84" x="13" y="271.5918">String adress</text><text fill="#000000" font-family="sans-serif" font-size="14" lengthAdjust="spacing" textLength="74" x="13" y="290.2129">String email</text><text fill="#000000" font-family="sans-serif" font-size="14" lengthAdjust="spacing" textLength="130" x="13" y="308.834">String phoneNumber</text><text fill="#000000" font-family="sans-serif" font-size="14" lengthAdjust="spacing" textLength="84" x="13" y="327.4551">String idType</text><text fill="#000000" font-family="sans-serif" font-size="14" lengthAdjust="spacing" textLength="101" x="13" y="346.0762">String idNumber</text><text fill="#000000" font-family="sans-serif" font-size="14" lengthAdjust="spacing" textLength="126" x="13" y="364.6973">LocalDate birthDate</text><text fill="#000000" font-family="sans-serif" font-size="14" lengthAdjust="spacing" textLength="161" x="13" y="383.3184">LocalDate admissionDate</text><text fill="#000000" font-family="sans-serif" font-size="14" lengthAdjust="spacing" textLength="60" x="13" y="401.9395">String job</text><text fill="#000000" font-family="sans-serif" font-size="14" lengthAdjust="spacing" textLength="157" x="13" y="420.5605">Collaborator collaborator</text><line style="stroke:#181818;stroke-width:0.5;" x1="8" x2="311" y1="428.0742" y2="428.0742"/><text fill="#000000" font-family="sans-serif" font-size="14" lengthAdjust="spacing" textLength="161" x="13" y="447.1816">+RegisterCollaboratorUI()</text><text fill="#000000" font-family="sans-serif" font-size="14" lengthAdjust="spacing" textLength="39" x="13" y="465.8027">+run()</text><text fill="#000000" font-family="sans-serif" font-size="14" lengthAdjust="spacing" textLength="97" x="13" y="484.4238">-getController()</text><text fill="#000000" font-family="sans-serif" font-size="14" lengthAdjust="spacing" textLength="93" x="13" y="503.0449">-requestData()</text><text fill="#000000" font-family="sans-serif" font-size="14" lengthAdjust="spacing" textLength="99" x="13" y="521.666">-requestName()</text><text fill="#000000" font-family="sans-serif" font-size="14" lengthAdjust="spacing" textLength="107" x="13" y="540.2871">-requestAdress()</text><text fill="#000000" font-family="sans-serif" font-size="14" lengthAdjust="spacing" textLength="97" x="13" y="558.9082">-requestEmail()</text><text fill="#000000" font-family="sans-serif" font-size="14" lengthAdjust="spacing" textLength="153" x="13" y="577.5293">-requestPhoneNumber()</text><text fill="#000000" font-family="sans-serif" font-size="14" lengthAdjust="spacing" textLength="106" x="13" y="596.1504">-requestIdType()</text><text fill="#000000" font-family="sans-serif" font-size="14" lengthAdjust="spacing" textLength="207" x="13" y="614.7715">-requestIdNumber(String idType)</text><text fill="#000000" font-family="sans-serif" font-size="14" lengthAdjust="spacing" textLength="178" x="13" y="633.3926">-requestDate(String prompt)</text><text fill="#000000" font-family="sans-serif" font-size="14" lengthAdjust="spacing" textLength="85" x="13" y="652.0137">-requestJob()</text><text fill="#000000" font-family="sans-serif" font-size="14" lengthAdjust="spacing" textLength="86" x="13" y="670.6348">-submitData()</text><text fill="#000000" font-family="sans-serif" font-size="14" lengthAdjust="spacing" textLength="121" x="13" y="689.2559">-printCollaborator()</text></g><!--link JobRepository to GMN10--><g id="link_JobRepository_GMN10"><path d="M1288.04,865 C1304.07,865 1315.5,865 1315.5,865 C1315.5,865 1318.17,865 1322.75,865 " fill="none" id="JobRepository-GMN10" style="stroke:#181818;stroke-width:1.0;stroke-dasharray:7.0,7.0;"/></g><!--link Repositories to Repositories--><g id="link_Repositories_Repositories"><path codeLine="152" d="M1509.52,366.14 C1529.87,371.97 1544.5,390.42 1544.5,421.5 C1544.5,452.58 1535.638,469.3776 1515.288,475.2076 " fill="none" id="Repositories-to-Repositories" style="stroke:#181818;stroke-width:1.0;"/><polygon fill="#181818" points="1509.52,476.86,1519.2736,478.2266,1514.3266,475.483,1517.0703,470.536,1509.52,476.86" style="stroke:#181818;stroke-width:1.0;"/><text fill="#000000" font-family="sans-serif" font-size="13" lengthAdjust="spacing" textLength="49" x="1550.5" y="427.0283">instance</text></g><!--link RegisterCollaboratorUI to RegisterCollaboratorController--><g id="link_RegisterCollaboratorUI_RegisterCollaboratorController"><path codeLine="154" d="M312.16,421.5 C325.57,421.5 331.52,421.5 340.72,421.5 " fill="none" id="RegisterCollaboratorUI-to-RegisterCollaboratorController" style="stroke:#181818;stroke-width:1.0;stroke-dasharray:7.0,7.0;"/><polygon fill="#181818" points="346.72,421.5,337.72,417.5,341.72,421.5,337.72,425.5,346.72,421.5" style="stroke:#181818;stroke-width:1.0;"/></g><!--link RegisterCollaboratorController to Repositories--><g id="link_RegisterCollaboratorController_Repositories"><path codeLine="156" d="M1210.35,421.5 C1248.08,421.5 1277.28,421.5 1307.35,421.5 " fill="none" id="RegisterCollaboratorController-to-Repositories" style="stroke:#181818;stroke-width:1.0;stroke-dasharray:7.0,7.0;"/><polygon fill="#181818" points="1313.35,421.5,1304.35,417.5,1308.35,421.5,1304.35,425.5,1313.35,421.5" style="stroke:#181818;stroke-width:1.0;"/><text fill="#000000" font-family="sans-serif" font-size="13" lengthAdjust="spacing" textLength="67" x="1228.25" y="414.5283">repositories</text></g><!--link RegisterCollaboratorController to CollaboratorRepository--><g id="link_RegisterCollaboratorController_CollaboratorRepository"><path codeLine="158" d="M803.62,510.52 C825.59,587.5 855.6832,692.9504 877.6732,769.9904 " fill="none" id="RegisterCollaboratorController-to-CollaboratorRepository" style="stroke:#181818;stroke-width:1.0;stroke-dasharray:7.0,7.0;"/><polygon fill="#181818" points="879.32,775.76,880.6961,766.0078,877.9476,770.952,873.0034,768.2035,879.32,775.76" style="stroke:#181818;stroke-width:1.0;"/><text fill="#000000" font-family="sans-serif" font-size="13" lengthAdjust="spacing" textLength="131" x="871.5" y="742.0283">CollaboratorRepository</text></g><!--link Repositories to CollaboratorRepository--><g id="link_Repositories_CollaboratorRepository"><path codeLine="160" d="M1364.83,492.12 C1310.32,573.45 1227.5,697 1227.5,697 C1227.5,697 1069.5,776 1069.5,776 C1069.5,776 1068.1143,776.7367 1057.4443,782.4267 " fill="none" id="Repositories-to-CollaboratorRepository" style="stroke:#181818;stroke-width:1.0;"/><polygon fill="#181818" points="1052.15,785.25,1061.9736,784.5446,1056.5619,782.8973,1058.2092,777.4856,1052.15,785.25" style="stroke:#181818;stroke-width:1.0;"/><text fill="#000000" font-family="sans-serif" font-size="13" lengthAdjust="spacing" textLength="7" x="1059.9437" y="777.7265">1</text></g><!--link CollaboratorRepository to Collaborator--><g id="link_CollaboratorRepository_Collaborator"><path codeLine="162" d="M942,954.36 C975.56,1033.44 1019.5,1137 1019.5,1137 C1019.5,1137 1054.6166,1185.5863 1094.8166,1241.2363 " fill="none" id="CollaboratorRepository-to-Collaborator" style="stroke:#181818;stroke-width:1.0;"/><polygon fill="#181818" points="1098.33,1246.1,1096.3024,1236.4621,1095.4021,1242.0469,1089.8174,1241.1467,1098.33,1246.1" style="stroke:#181818;stroke-width:1.0;"/><text fill="#000000" font-family="sans-serif" font-size="13" lengthAdjust="spacing" textLength="50" x="1020.5" y="1081.5283">has data</text><text fill="#000000" font-family="sans-serif" font-size="13" lengthAdjust="spacing" textLength="7" x="937.8156" y="976.49">1</text><text fill="#000000" font-family="sans-serif" font-size="13" lengthAdjust="spacing" textLength="5" x="1085.4521" y="1231.7328">*</text></g><!--link Repositories to SkillsRepository--><g id="link_Repositories_SkillsRepository"><path codeLine="164" d="M1498.19,492.21 C1597.14,571.79 1753.9843,697.9199 1857.5443,781.1999 " fill="none" id="Repositories-to-SkillsRepository" style="stroke:#181818;stroke-width:1.0;"/><polygon fill="#181818" points="1862.22,784.96,1857.7132,776.2028,1858.3236,781.8266,1852.6998,782.437,1862.22,784.96" style="stroke:#181818;stroke-width:1.0;"/><text fill="#000000" font-family="sans-serif" font-size="13" lengthAdjust="spacing" textLength="7" x="1845.8372" y="773.8521">1</text></g><!--link Repositories to JobRepository--><g id="link_Repositories_JobRepository"><path codeLine="165" d="M1377.84,492.3 C1331.98,587.4 1255.5,746 1255.5,746 C1255.5,746 1248.4251,758.271 1236.0451,779.761 " fill="none" id="Repositories-to-JobRepository" style="stroke:#181818;stroke-width:1.0;"/><polygon fill="#181818" points="1233.05,784.96,1241.0086,779.1582,1235.5459,780.6275,1234.0766,775.1648,1233.05,784.96" style="stroke:#181818;stroke-width:1.0;"/><text fill="#000000" font-family="sans-serif" font-size="13" lengthAdjust="spacing" textLength="7" x="1229.9265" y="773.8521">1</text></g><!--link SkillsRepository to Skill--><g id="link_SkillsRepository_Skill"><path codeLine="166" d="M1858.42,945.01 C1828.56,968.13 1801.1439,989.3464 1773.0439,1011.1064 " fill="none" id="SkillsRepository-to-Skill" style="stroke:#181818;stroke-width:1.0;"/><polygon fill="#181818" points="1768.3,1014.78,1777.8649,1012.4322,1772.2533,1011.7187,1772.9668,1006.107,1768.3,1014.78" style="stroke:#181818;stroke-width:1.0;"/><text fill="#000000" font-family="sans-serif" font-size="13" lengthAdjust="spacing" textLength="7" x="1842.3467" y="966.6689">1</text><text fill="#000000" font-family="sans-serif" font-size="13" lengthAdjust="spacing" textLength="5" x="1772.0066" y="1003.7358">*</text></g><!--link JobRepository to Job--><g id="link_JobRepository_Job"><path codeLine="167" d="M1187.5,945.01 C1187.5,968.13 1187.5,987.02 1187.5,1008.78 " fill="none" id="JobRepository-to-Job" style="stroke:#181818;stroke-width:1.0;"/><polygon fill="#181818" points="1187.5,1014.78,1191.5,1005.78,1187.5,1009.78,1183.5,1005.78,1187.5,1014.78" style="stroke:#181818;stroke-width:1.0;"/><text fill="#000000" font-family="sans-serif" font-size="13" lengthAdjust="spacing" textLength="7" x="1180.1992" y="966.6689">1</text><text fill="#000000" font-family="sans-serif" font-size="13" lengthAdjust="spacing" textLength="5" x="1182.2109" y="1003.7358">*</text></g><!--link Skill to Collaborator--><g id="link_Skill_Collaborator"><path codeLine="168" d="M1589.92,1135.49 C1498.32,1188.75 1369.527,1263.6541 1281.727,1314.7041 " fill="none" id="Skill-to-Collaborator" style="stroke:#181818;stroke-width:1.0;"/><polygon fill="#181818" points="1276.54,1317.72,1286.331,1316.6542,1280.8625,1315.2068,1282.3098,1309.7382,1276.54,1317.72" style="stroke:#181818;stroke-width:1.0;"/><text fill="#000000" font-family="sans-serif" font-size="13" lengthAdjust="spacing" textLength="44" x="1528.5" y="1182.0283">given to</text><text fill="#000000" font-family="sans-serif" font-size="13" lengthAdjust="spacing" textLength="20" x="1562.1448" y="1136.0968">1..*</text><text fill="#000000" font-family="sans-serif" font-size="13" lengthAdjust="spacing" textLength="7" x="1284.4927" y="1309.5077">1</text></g><!--link Job to Collaborator--><g id="link_Job_Collaborator"><path codeLine="169" d="M1187.5,1137.25 C1187.5,1160.33 1187.5,1181.84 1187.5,1209.72 " fill="none" id="Job-to-Collaborator" style="stroke:#181818;stroke-width:1.0;"/><polygon fill="#181818" points="1187.5,1215.72,1191.5,1206.72,1187.5,1210.72,1183.5,1206.72,1187.5,1215.72" style="stroke:#181818;stroke-width:1.0;"/><text fill="#000000" font-family="sans-serif" font-size="13" lengthAdjust="spacing" textLength="67" x="1188.5" y="1182.0283">assigned to</text><text fill="#000000" font-family="sans-serif" font-size="13" lengthAdjust="spacing" textLength="7" x="1180.0953" y="1159.332">1</text><text fill="#000000" font-family="sans-serif" font-size="13" lengthAdjust="spacing" textLength="7" x="1180.3305" y="1204.8539">1</text></g><!--SRC=[bLVBRkis4DthAuXiejmyq6wDma2Gf82BuhQestL1IMEPYKGg99N2lRZ_tk535Yc9SffDeddpSEPmSgtU6E-ef2rf1HVbKOeMY9OzPAEce-KRhM6lJmqG2QMcl6v20tMabVY7yPeSQAD2JSCuw5C7f1FDoNnarmjA8RN80g-oeKezQYrPqMlObOBlsRz0ViYowmOEccX19AkFcbJCbCC4pwmBUH9DGmiXgHQIVCi8_joJFSR1qZXj8PRGIe9IiGnQoffOr1q5XwzzMu2C5Qpw4wkVoYBBNqL9csUgWHHCwgFvQwQXLSkKmaC4MX_jLHI3ELFwf_qRQvejKUPNPXMtDMWhpM_Sjng-PmxU0DvxlAFyj-8LaIF2IxLm6J5CzZtpQ5hlHHYTapF8RVI_ZNpZZNnGWiLzDU8Lap7neC7yGNhr1tH2CRpF4rRYIs5SOG-M9jZ4nXlOV6hZKFj556exLhJppZRZalljJ3o0YrTL1MVs_XZdGx1gpE3SymfKALbdsZD45SjPmnJLELxxEfufWqKqnxphM4O6Nek9FW7ZtFCsbeK0-WDQhnbq9iaSE2vmJDp4YqFgpdi5bM46MfOurKGV0Gb66Gzhu7i2vLGJIigGALfw8aVw0HdmYfXaqvHBqAJpMTJM4zcASlW0l0gq9im6a8PUEoGbu1g3IwYfh9eXkZy0nZTVKLp6oNiFoY4s7c9EYb47s7FOkmrDjb5eJu-964Fp-EPTjXekFseQ9y9s27toYB_3CiOGeOawinvY-jb0vu4uLyX0dISo5EOtI-rEDf5HrBiB7N_cWsLT4hAWp1gl26He-IIublWDvrSkdkxNURycRh1S53kNnnuRZMjMKjDOWHDDA0OEMoyvVscxHfm0HiSa8AMGrHakjQWrF7ZddjSA7z2xyJqbmxTzv-_mh5nJVFGOFmYIjw9WkCzGd1RxwD_SaTqpgKH9x4vYvEZMcVtY0mYth_gDxnAiSpZ4pxWnxS7cSxTccKEBpWpgEX0ZaSWNKu5X0L5eYckHeyG3nhR3Rapm-3QBzqBieKRedaUoj1gC8G6f7xcbSW4KD7W8_48uw9JYx3w5bJwjz86ZkWDEakCwkpj5v2hzET4i9eynMxRMpt_jV1zVQFOonkx_z_IbCPdkYlDDSROd9hR4-Owuj26cziErxN2o6oQfpa_ZCjx3KCcU-p_lxV2TXzGB9TY71PFJYSXi8XFHeuLf8hIjFP7zFe8rqUmiNZEXjur0dLK8Wxx3jkzqh3ThXvUelcXPTAGEtI9kSQCSlH3ts_Z5s0IlNwAd7xQN622xqF0FiwGoV7ikkgD_OaWsgP6Vd1gFVVNZLT8u4TsuMDSliIkcFLBbc6WvqMoxMxIA5xBPVmf1UglBuhaFrAXmxYXyUFXojNXWhBh6Hu0ZhPj8HfymGu9ZDRUBOVOV]--></g></svg>