<?xml version="1.0" encoding="us-ascii" standalone="no"?><svg xmlns="http://www.w3.org/2000/svg" xmlns:xlink="http://www.w3.org/1999/xlink" contentStyleType="text/css" height="887px" preserveAspectRatio="none" style="width:984px;height:887px;background:#FFFFFF;" version="1.1" viewBox="0 0 984 887" width="984px" zoomAndPan="magnify"><defs/><g><!--class AssignTeamToEntryController--><g id="elem_AssignTeamToEntryController"><rect codeLine="2" fill="#F1F1F1" height="159.7266" id="AssignTeamToEntryController" rx="2.5" ry="2.5" style="stroke:#181818;stroke-width:0.5;" width="319" x="591" y="7"/><ellipse cx="651.25" cy="23" fill="#ADD1B2" rx="11" ry="11" style="stroke:#181818;stroke-width:1.0;"/><path d="M654.0156,18.875 Q654.1719,18.6563 654.3594,18.5469 Q654.5469,18.4375 654.7656,18.4375 Q655.1406,18.4375 655.375,18.7031 Q655.6094,18.9531 655.6094,19.5625 L655.6094,21.0156 Q655.6094,21.625 655.375,21.8906 Q655.1406,22.1563 654.7656,22.1563 Q654.4219,22.1563 654.2188,21.9531 Q654.0156,21.7656 653.9063,21.25 Q653.8594,20.8906 653.6719,20.7031 Q653.3438,20.3281 652.7344,20.1094 Q652.125,19.8906 651.5,19.8906 Q650.7344,19.8906 650.0938,20.2188 Q649.4688,20.5469 648.9688,21.2969 Q648.4844,22.0469 648.4844,23.0781 L648.4844,24.1719 Q648.4844,25.4063 649.375,26.2344 Q650.2656,27.0469 651.8594,27.0469 Q652.7969,27.0469 653.4531,26.7969 Q653.8438,26.6406 654.2656,26.2031 Q654.5313,25.9375 654.6719,25.8594 Q654.8281,25.7813 655.0313,25.7813 Q655.3594,25.7813 655.6094,26.0469 Q655.875,26.2969 655.875,26.6406 Q655.875,26.9844 655.5313,27.3906 Q655.0313,27.9688 654.2344,28.2969 Q653.1563,28.75 651.8594,28.75 Q650.3438,28.75 649.1406,28.125 Q648.1563,27.625 647.4688,26.5625 Q646.7813,25.4844 646.7813,24.2031 L646.7813,23.0469 Q646.7813,21.7188 647.3906,20.5781 Q648.0156,19.4219 649.1094,18.8125 Q650.2031,18.1875 651.4375,18.1875 Q652.1719,18.1875 652.8125,18.3594 Q653.4688,18.5156 654.0156,18.875 Z " fill="#000000"/><text fill="#000000" font-family="sans-serif" font-size="14" lengthAdjust="spacing" textLength="190" x="671.75" y="28.7969">AssignTeamToEntryController</text><line style="stroke:#181818;stroke-width:0.5;" x1="592" x2="909" y1="39" y2="39"/><line style="stroke:#181818;stroke-width:0.5;" x1="592" x2="909" y1="47" y2="47"/><ellipse cx="602" cy="61.8105" fill="#84BE84" rx="3" ry="3" style="stroke:#038048;stroke-width:1.0;"/><text fill="#000000" font-family="sans-serif" font-size="14" lengthAdjust="spacing" textLength="243" x="611" y="66.1074">CreateAssignTeamToEntryController()</text><ellipse cx="602" cy="80.4316" fill="#84BE84" rx="3" ry="3" style="stroke:#038048;stroke-width:1.0;"/><text fill="#000000" font-family="sans-serif" font-size="14" lengthAdjust="spacing" textLength="155" x="611" y="84.7285">getTeams(): List&lt;Team&gt;</text><ellipse cx="602" cy="99.0527" fill="#84BE84" rx="3" ry="3" style="stroke:#038048;stroke-width:1.0;"/><text fill="#000000" font-family="sans-serif" font-size="14" lengthAdjust="spacing" textLength="173" x="611" y="103.3496">getTeams(index: int): Team</text><ellipse cx="602" cy="117.6738" fill="#84BE84" rx="3" ry="3" style="stroke:#038048;stroke-width:1.0;"/><text fill="#000000" font-family="sans-serif" font-size="14" lengthAdjust="spacing" textLength="153" x="611" y="121.9707">getEntries(): List&lt;Entry&gt;</text><ellipse cx="602" cy="136.2949" fill="#84BE84" rx="3" ry="3" style="stroke:#038048;stroke-width:1.0;"/><text fill="#000000" font-family="sans-serif" font-size="14" lengthAdjust="spacing" textLength="171" x="611" y="140.5918">getEntries(index: int): Entry</text><ellipse cx="602" cy="154.916" fill="#84BE84" rx="3" ry="3" style="stroke:#038048;stroke-width:1.0;"/><text fill="#000000" font-family="sans-serif" font-size="14" lengthAdjust="spacing" textLength="293" x="611" y="159.2129">assignTeamToEntry(team: Team, entry: Entry)</text></g><!--class AssignTeamToEntryUI--><g id="elem_AssignTeamToEntryUI"><rect codeLine="11" fill="#F1F1F1" height="48" id="AssignTeamToEntryUI" rx="2.5" ry="2.5" style="stroke:#181818;stroke-width:0.5;" width="172" x="383.5" y="63"/><ellipse cx="398.5" cy="79" fill="#ADD1B2" rx="11" ry="11" style="stroke:#181818;stroke-width:1.0;"/><path d="M401.2656,74.875 Q401.4219,74.6563 401.6094,74.5469 Q401.7969,74.4375 402.0156,74.4375 Q402.3906,74.4375 402.625,74.7031 Q402.8594,74.9531 402.8594,75.5625 L402.8594,77.0156 Q402.8594,77.625 402.625,77.8906 Q402.3906,78.1563 402.0156,78.1563 Q401.6719,78.1563 401.4688,77.9531 Q401.2656,77.7656 401.1563,77.25 Q401.1094,76.8906 400.9219,76.7031 Q400.5938,76.3281 399.9844,76.1094 Q399.375,75.8906 398.75,75.8906 Q397.9844,75.8906 397.3438,76.2188 Q396.7188,76.5469 396.2188,77.2969 Q395.7344,78.0469 395.7344,79.0781 L395.7344,80.1719 Q395.7344,81.4063 396.625,82.2344 Q397.5156,83.0469 399.1094,83.0469 Q400.0469,83.0469 400.7031,82.7969 Q401.0938,82.6406 401.5156,82.2031 Q401.7813,81.9375 401.9219,81.8594 Q402.0781,81.7813 402.2813,81.7813 Q402.6094,81.7813 402.8594,82.0469 Q403.125,82.2969 403.125,82.6406 Q403.125,82.9844 402.7813,83.3906 Q402.2813,83.9688 401.4844,84.2969 Q400.4063,84.75 399.1094,84.75 Q397.5938,84.75 396.3906,84.125 Q395.4063,83.625 394.7188,82.5625 Q394.0313,81.4844 394.0313,80.2031 L394.0313,79.0469 Q394.0313,77.7188 394.6406,76.5781 Q395.2656,75.4219 396.3594,74.8125 Q397.4531,74.1875 398.6875,74.1875 Q399.4219,74.1875 400.0625,74.3594 Q400.7188,74.5156 401.2656,74.875 Z " fill="#000000"/><text fill="#000000" font-family="sans-serif" font-size="14" lengthAdjust="spacing" textLength="140" x="412.5" y="84.7969">AssignTeamToEntryUI</text><line style="stroke:#181818;stroke-width:0.5;" x1="384.5" x2="554.5" y1="95" y2="95"/><line style="stroke:#181818;stroke-width:0.5;" x1="384.5" x2="554.5" y1="103" y2="103"/></g><!--class Repositories--><g id="elem_Repositories"><rect codeLine="15" fill="#F1F1F1" height="159.7266" id="Repositories" rx="2.5" ry="2.5" style="stroke:#181818;stroke-width:0.5;" width="360" x="196.5" y="246"/><ellipse cx="332.75" cy="262" fill="#ADD1B2" rx="11" ry="11" style="stroke:#181818;stroke-width:1.0;"/><path d="M335.5156,257.875 Q335.6719,257.6563 335.8594,257.5469 Q336.0469,257.4375 336.2656,257.4375 Q336.6406,257.4375 336.875,257.7031 Q337.1094,257.9531 337.1094,258.5625 L337.1094,260.0156 Q337.1094,260.625 336.875,260.8906 Q336.6406,261.1563 336.2656,261.1563 Q335.9219,261.1563 335.7188,260.9531 Q335.5156,260.7656 335.4063,260.25 Q335.3594,259.8906 335.1719,259.7031 Q334.8438,259.3281 334.2344,259.1094 Q333.625,258.8906 333,258.8906 Q332.2344,258.8906 331.5938,259.2188 Q330.9688,259.5469 330.4688,260.2969 Q329.9844,261.0469 329.9844,262.0781 L329.9844,263.1719 Q329.9844,264.4063 330.875,265.2344 Q331.7656,266.0469 333.3594,266.0469 Q334.2969,266.0469 334.9531,265.7969 Q335.3438,265.6406 335.7656,265.2031 Q336.0313,264.9375 336.1719,264.8594 Q336.3281,264.7813 336.5313,264.7813 Q336.8594,264.7813 337.1094,265.0469 Q337.375,265.2969 337.375,265.6406 Q337.375,265.9844 337.0313,266.3906 Q336.5313,266.9688 335.7344,267.2969 Q334.6563,267.75 333.3594,267.75 Q331.8438,267.75 330.6406,267.125 Q329.6563,266.625 328.9688,265.5625 Q328.2813,264.4844 328.2813,263.2031 L328.2813,262.0469 Q328.2813,260.7188 328.8906,259.5781 Q329.5156,258.4219 330.6094,257.8125 Q331.7031,257.1875 332.9375,257.1875 Q333.6719,257.1875 334.3125,257.3594 Q334.9688,257.5156 335.5156,257.875 Z " fill="#000000"/><text fill="#000000" font-family="sans-serif" font-size="14" lengthAdjust="spacing" textLength="79" x="353.25" y="267.7969">Repositories</text><line style="stroke:#181818;stroke-width:0.5;" x1="197.5" x2="555.5" y1="278" y2="278"/><rect fill="none" height="6" style="stroke:#C82930;stroke-width:1.0;" width="6" x="204.5" y="289.8105"/><text fill="#000000" font-family="sans-serif" font-size="14" lengthAdjust="spacing" textLength="140" x="216.5" y="297.1074">instance: Repositories</text><line style="stroke:#181818;stroke-width:0.5;" x1="197.5" x2="555.5" y1="304.6211" y2="304.6211"/><ellipse cx="207.5" cy="319.4316" fill="#84BE84" rx="3" ry="3" style="stroke:#038048;stroke-width:1.0;"/><text fill="#000000" font-family="sans-serif" font-size="14" lengthAdjust="spacing" textLength="170" x="216.5" y="323.7285">getInstance(): Repositories</text><ellipse cx="207.5" cy="338.0527" fill="#84BE84" rx="3" ry="3" style="stroke:#038048;stroke-width:1.0;"/><text fill="#000000" font-family="sans-serif" font-size="14" lengthAdjust="spacing" textLength="246" x="216.5" y="342.3496">getTeamRepository(): TeamRepository</text><ellipse cx="207.5" cy="356.6738" fill="#84BE84" rx="3" ry="3" style="stroke:#038048;stroke-width:1.0;"/><text fill="#000000" font-family="sans-serif" font-size="14" lengthAdjust="spacing" textLength="272" x="216.5" y="360.9707">getAgendaRepository(): AgendaRepository</text><ellipse cx="207.5" cy="375.2949" fill="#84BE84" rx="3" ry="3" style="stroke:#038048;stroke-width:1.0;"/><text fill="#000000" font-family="sans-serif" font-size="14" lengthAdjust="spacing" textLength="266" x="216.5" y="379.5918">getVehicleRepository(): VehicleRepository</text><ellipse cx="207.5" cy="393.916" fill="#84BE84" rx="3" ry="3" style="stroke:#038048;stroke-width:1.0;"/><text fill="#000000" font-family="sans-serif" font-size="14" lengthAdjust="spacing" textLength="334" x="216.5" y="398.2129">getOrganizationRepository(): OrganizationRepository</text></g><!--class TeamRepository--><g id="elem_TeamRepository"><rect codeLine="24" fill="#F1F1F1" height="103.8633" id="TeamRepository" rx="2.5" ry="2.5" style="stroke:#181818;stroke-width:0.5;" width="199" x="7" y="485"/><ellipse cx="50.35" cy="501" fill="#ADD1B2" rx="11" ry="11" style="stroke:#181818;stroke-width:1.0;"/><path d="M53.1156,496.875 Q53.2719,496.6563 53.4594,496.5469 Q53.6469,496.4375 53.8656,496.4375 Q54.2406,496.4375 54.475,496.7031 Q54.7094,496.9531 54.7094,497.5625 L54.7094,499.0156 Q54.7094,499.625 54.475,499.8906 Q54.2406,500.1563 53.8656,500.1563 Q53.5219,500.1563 53.3188,499.9531 Q53.1156,499.7656 53.0063,499.25 Q52.9594,498.8906 52.7719,498.7031 Q52.4438,498.3281 51.8344,498.1094 Q51.225,497.8906 50.6,497.8906 Q49.8344,497.8906 49.1938,498.2188 Q48.5688,498.5469 48.0688,499.2969 Q47.5844,500.0469 47.5844,501.0781 L47.5844,502.1719 Q47.5844,503.4063 48.475,504.2344 Q49.3656,505.0469 50.9594,505.0469 Q51.8969,505.0469 52.5531,504.7969 Q52.9438,504.6406 53.3656,504.2031 Q53.6313,503.9375 53.7719,503.8594 Q53.9281,503.7813 54.1313,503.7813 Q54.4594,503.7813 54.7094,504.0469 Q54.975,504.2969 54.975,504.6406 Q54.975,504.9844 54.6313,505.3906 Q54.1313,505.9688 53.3344,506.2969 Q52.2563,506.75 50.9594,506.75 Q49.4438,506.75 48.2406,506.125 Q47.2563,505.625 46.5688,504.5625 Q45.8813,503.4844 45.8813,502.2031 L45.8813,501.0469 Q45.8813,499.7188 46.4906,498.5781 Q47.1156,497.4219 48.2094,496.8125 Q49.3031,496.1875 50.5375,496.1875 Q51.2719,496.1875 51.9125,496.3594 Q52.5688,496.5156 53.1156,496.875 Z " fill="#000000"/><text fill="#000000" font-family="sans-serif" font-size="14" lengthAdjust="spacing" textLength="104" x="70.65" y="506.7969">TeamRepository</text><line style="stroke:#181818;stroke-width:0.5;" x1="8" x2="205" y1="517" y2="517"/><rect fill="none" height="6" style="stroke:#C82930;stroke-width:1.0;" width="6" x="15" y="528.8105"/><text fill="#000000" font-family="sans-serif" font-size="14" lengthAdjust="spacing" textLength="120" x="27" y="536.1074">teams: List&lt;Team&gt;</text><line style="stroke:#181818;stroke-width:0.5;" x1="8" x2="205" y1="543.6211" y2="543.6211"/><ellipse cx="18" cy="558.4316" fill="#84BE84" rx="3" ry="3" style="stroke:#038048;stroke-width:1.0;"/><text fill="#000000" font-family="sans-serif" font-size="14" lengthAdjust="spacing" textLength="155" x="27" y="562.7285">getTeams(): List&lt;Team&gt;</text><ellipse cx="18" cy="577.0527" fill="#84BE84" rx="3" ry="3" style="stroke:#038048;stroke-width:1.0;"/><text fill="#000000" font-family="sans-serif" font-size="14" lengthAdjust="spacing" textLength="173" x="27" y="581.3496">getTeams(index: int): Team</text></g><!--class AgendaRepository--><g id="elem_AgendaRepository"><rect codeLine="30" fill="#F1F1F1" height="103.8633" id="AgendaRepository" rx="2.5" ry="2.5" style="stroke:#181818;stroke-width:0.5;" width="197" x="241" y="485"/><ellipse cx="277.6" cy="501" fill="#ADD1B2" rx="11" ry="11" style="stroke:#181818;stroke-width:1.0;"/><path d="M280.3656,496.875 Q280.5219,496.6563 280.7094,496.5469 Q280.8969,496.4375 281.1156,496.4375 Q281.4906,496.4375 281.725,496.7031 Q281.9594,496.9531 281.9594,497.5625 L281.9594,499.0156 Q281.9594,499.625 281.725,499.8906 Q281.4906,500.1563 281.1156,500.1563 Q280.7719,500.1563 280.5688,499.9531 Q280.3656,499.7656 280.2563,499.25 Q280.2094,498.8906 280.0219,498.7031 Q279.6938,498.3281 279.0844,498.1094 Q278.475,497.8906 277.85,497.8906 Q277.0844,497.8906 276.4438,498.2188 Q275.8188,498.5469 275.3188,499.2969 Q274.8344,500.0469 274.8344,501.0781 L274.8344,502.1719 Q274.8344,503.4063 275.725,504.2344 Q276.6156,505.0469 278.2094,505.0469 Q279.1469,505.0469 279.8031,504.7969 Q280.1938,504.6406 280.6156,504.2031 Q280.8813,503.9375 281.0219,503.8594 Q281.1781,503.7813 281.3813,503.7813 Q281.7094,503.7813 281.9594,504.0469 Q282.225,504.2969 282.225,504.6406 Q282.225,504.9844 281.8813,505.3906 Q281.3813,505.9688 280.5844,506.2969 Q279.5063,506.75 278.2094,506.75 Q276.6938,506.75 275.4906,506.125 Q274.5063,505.625 273.8188,504.5625 Q273.1313,503.4844 273.1313,502.2031 L273.1313,501.0469 Q273.1313,499.7188 273.7406,498.5781 Q274.3656,497.4219 275.4594,496.8125 Q276.5531,496.1875 277.7875,496.1875 Q278.5219,496.1875 279.1625,496.3594 Q279.8188,496.5156 280.3656,496.875 Z " fill="#000000"/><text fill="#000000" font-family="sans-serif" font-size="14" lengthAdjust="spacing" textLength="117" x="296.4" y="506.7969">AgendaRepository</text><line style="stroke:#181818;stroke-width:0.5;" x1="242" x2="437" y1="517" y2="517"/><rect fill="none" height="6" style="stroke:#C82930;stroke-width:1.0;" width="6" x="249" y="528.8105"/><text fill="#000000" font-family="sans-serif" font-size="14" lengthAdjust="spacing" textLength="122" x="261" y="536.1074">entries: List&lt;Entry&gt;</text><line style="stroke:#181818;stroke-width:0.5;" x1="242" x2="437" y1="543.6211" y2="543.6211"/><ellipse cx="252" cy="558.4316" fill="#84BE84" rx="3" ry="3" style="stroke:#038048;stroke-width:1.0;"/><text fill="#000000" font-family="sans-serif" font-size="14" lengthAdjust="spacing" textLength="153" x="261" y="562.7285">getEntries(): List&lt;Entry&gt;</text><ellipse cx="252" cy="577.0527" fill="#84BE84" rx="3" ry="3" style="stroke:#038048;stroke-width:1.0;"/><text fill="#000000" font-family="sans-serif" font-size="14" lengthAdjust="spacing" textLength="171" x="261" y="581.3496">getEntries(index: int): Entry</text></g><!--class Entry--><g id="elem_Entry"><rect codeLine="36" fill="#F1F1F1" height="85.2422" id="Entry" rx="2.5" ry="2.5" style="stroke:#181818;stroke-width:0.5;" width="166" x="378.5" y="795"/><ellipse cx="440.75" cy="811" fill="#ADD1B2" rx="11" ry="11" style="stroke:#181818;stroke-width:1.0;"/><path d="M443.5156,806.875 Q443.6719,806.6563 443.8594,806.5469 Q444.0469,806.4375 444.2656,806.4375 Q444.6406,806.4375 444.875,806.7031 Q445.1094,806.9531 445.1094,807.5625 L445.1094,809.0156 Q445.1094,809.625 444.875,809.8906 Q444.6406,810.1563 444.2656,810.1563 Q443.9219,810.1563 443.7188,809.9531 Q443.5156,809.7656 443.4063,809.25 Q443.3594,808.8906 443.1719,808.7031 Q442.8438,808.3281 442.2344,808.1094 Q441.625,807.8906 441,807.8906 Q440.2344,807.8906 439.5938,808.2188 Q438.9688,808.5469 438.4688,809.2969 Q437.9844,810.0469 437.9844,811.0781 L437.9844,812.1719 Q437.9844,813.4063 438.875,814.2344 Q439.7656,815.0469 441.3594,815.0469 Q442.2969,815.0469 442.9531,814.7969 Q443.3438,814.6406 443.7656,814.2031 Q444.0313,813.9375 444.1719,813.8594 Q444.3281,813.7813 444.5313,813.7813 Q444.8594,813.7813 445.1094,814.0469 Q445.375,814.2969 445.375,814.6406 Q445.375,814.9844 445.0313,815.3906 Q444.5313,815.9688 443.7344,816.2969 Q442.6563,816.75 441.3594,816.75 Q439.8438,816.75 438.6406,816.125 Q437.6563,815.625 436.9688,814.5625 Q436.2813,813.4844 436.2813,812.2031 L436.2813,811.0469 Q436.2813,809.7188 436.8906,808.5781 Q437.5156,807.4219 438.6094,806.8125 Q439.7031,806.1875 440.9375,806.1875 Q441.6719,806.1875 442.3125,806.3594 Q442.9688,806.5156 443.5156,806.875 Z " fill="#000000"/><text fill="#000000" font-family="sans-serif" font-size="14" lengthAdjust="spacing" textLength="33" x="461.25" y="816.7969">Entry</text><line style="stroke:#181818;stroke-width:0.5;" x1="379.5" x2="543.5" y1="827" y2="827"/><rect fill="none" height="6" style="stroke:#C82930;stroke-width:1.0;" width="6" x="386.5" y="838.8105"/><text fill="#000000" font-family="sans-serif" font-size="14" lengthAdjust="spacing" textLength="75" x="398.5" y="846.1074">team: Team</text><line style="stroke:#181818;stroke-width:0.5;" x1="379.5" x2="543.5" y1="853.6211" y2="853.6211"/><ellipse cx="389.5" cy="868.4316" fill="#84BE84" rx="3" ry="3" style="stroke:#038048;stroke-width:1.0;"/><text fill="#000000" font-family="sans-serif" font-size="14" lengthAdjust="spacing" textLength="140" x="398.5" y="872.7285">setTeam(team: Team)</text></g><!--class Organization--><g id="elem_Organization"><rect codeLine="41" fill="#F1F1F1" height="48" id="Organization" rx="2.5" ry="2.5" style="stroke:#181818;stroke-width:0.5;" width="112" x="405.5" y="668"/><ellipse cx="420.5" cy="684" fill="#ADD1B2" rx="11" ry="11" style="stroke:#181818;stroke-width:1.0;"/><path d="M423.2656,679.875 Q423.4219,679.6563 423.6094,679.5469 Q423.7969,679.4375 424.0156,679.4375 Q424.3906,679.4375 424.625,679.7031 Q424.8594,679.9531 424.8594,680.5625 L424.8594,682.0156 Q424.8594,682.625 424.625,682.8906 Q424.3906,683.1563 424.0156,683.1563 Q423.6719,683.1563 423.4688,682.9531 Q423.2656,682.7656 423.1563,682.25 Q423.1094,681.8906 422.9219,681.7031 Q422.5938,681.3281 421.9844,681.1094 Q421.375,680.8906 420.75,680.8906 Q419.9844,680.8906 419.3438,681.2188 Q418.7188,681.5469 418.2188,682.2969 Q417.7344,683.0469 417.7344,684.0781 L417.7344,685.1719 Q417.7344,686.4063 418.625,687.2344 Q419.5156,688.0469 421.1094,688.0469 Q422.0469,688.0469 422.7031,687.7969 Q423.0938,687.6406 423.5156,687.2031 Q423.7813,686.9375 423.9219,686.8594 Q424.0781,686.7813 424.2813,686.7813 Q424.6094,686.7813 424.8594,687.0469 Q425.125,687.2969 425.125,687.6406 Q425.125,687.9844 424.7813,688.3906 Q424.2813,688.9688 423.4844,689.2969 Q422.4063,689.75 421.1094,689.75 Q419.5938,689.75 418.3906,689.125 Q417.4063,688.625 416.7188,687.5625 Q416.0313,686.4844 416.0313,685.2031 L416.0313,684.0469 Q416.0313,682.7188 416.6406,681.5781 Q417.2656,680.4219 418.3594,679.8125 Q419.4531,679.1875 420.6875,679.1875 Q421.4219,679.1875 422.0625,679.3594 Q422.7188,679.5156 423.2656,679.875 Z " fill="#000000"/><text fill="#000000" font-family="sans-serif" font-size="14" lengthAdjust="spacing" textLength="80" x="434.5" y="689.7969">Organization</text><line style="stroke:#181818;stroke-width:0.5;" x1="406.5" x2="516.5" y1="700" y2="700"/><line style="stroke:#181818;stroke-width:0.5;" x1="406.5" x2="516.5" y1="708" y2="708"/></g><!--class OrganizationRepository--><g id="elem_OrganizationRepository"><rect codeLine="44" fill="#F1F1F1" height="66.6211" id="OrganizationRepository" rx="2.5" ry="2.5" style="stroke:#181818;stroke-width:0.5;" width="224" x="473.5" y="503.5"/><ellipse cx="508.3" cy="519.5" fill="#ADD1B2" rx="11" ry="11" style="stroke:#181818;stroke-width:1.0;"/><path d="M511.0656,515.375 Q511.2219,515.1563 511.4094,515.0469 Q511.5969,514.9375 511.8156,514.9375 Q512.1906,514.9375 512.425,515.2031 Q512.6594,515.4531 512.6594,516.0625 L512.6594,517.5156 Q512.6594,518.125 512.425,518.3906 Q512.1906,518.6563 511.8156,518.6563 Q511.4719,518.6563 511.2688,518.4531 Q511.0656,518.2656 510.9563,517.75 Q510.9094,517.3906 510.7219,517.2031 Q510.3938,516.8281 509.7844,516.6094 Q509.175,516.3906 508.55,516.3906 Q507.7844,516.3906 507.1438,516.7188 Q506.5188,517.0469 506.0188,517.7969 Q505.5344,518.5469 505.5344,519.5781 L505.5344,520.6719 Q505.5344,521.9063 506.425,522.7344 Q507.3156,523.5469 508.9094,523.5469 Q509.8469,523.5469 510.5031,523.2969 Q510.8938,523.1406 511.3156,522.7031 Q511.5813,522.4375 511.7219,522.3594 Q511.8781,522.2813 512.0813,522.2813 Q512.4094,522.2813 512.6594,522.5469 Q512.925,522.7969 512.925,523.1406 Q512.925,523.4844 512.5813,523.8906 Q512.0813,524.4688 511.2844,524.7969 Q510.2063,525.25 508.9094,525.25 Q507.3938,525.25 506.1906,524.625 Q505.2063,524.125 504.5188,523.0625 Q503.8313,521.9844 503.8313,520.7031 L503.8313,519.5469 Q503.8313,518.2188 504.4406,517.0781 Q505.0656,515.9219 506.1594,515.3125 Q507.2531,514.6875 508.4875,514.6875 Q509.2219,514.6875 509.8625,514.8594 Q510.5188,515.0156 511.0656,515.375 Z " fill="#000000"/><text fill="#000000" font-family="sans-serif" font-size="14" lengthAdjust="spacing" textLength="148" x="526.7" y="525.2969">OrganizationRepository</text><line style="stroke:#181818;stroke-width:0.5;" x1="474.5" x2="696.5" y1="535.5" y2="535.5"/><line style="stroke:#181818;stroke-width:0.5;" x1="474.5" x2="696.5" y1="543.5" y2="543.5"/><ellipse cx="484.5" cy="558.3105" fill="#84BE84" rx="3" ry="3" style="stroke:#038048;stroke-width:1.0;"/><text fill="#000000" font-family="sans-serif" font-size="14" lengthAdjust="spacing" textLength="198" x="493.5" y="562.6074">getOrganization(): Organization</text></g><!--class EmailSenderInterface--><g id="elem_EmailSenderInterface"><rect codeLine="48" fill="#F1F1F1" height="66.6211" id="EmailSenderInterface" rx="2.5" ry="2.5" style="stroke:#181818;stroke-width:0.5;" width="174" x="803.5" y="292.5"/><ellipse cx="821.2" cy="308.5" fill="#B4A7E5" rx="11" ry="11" style="stroke:#181818;stroke-width:1.0;"/><path d="M822.1531,305.1406 L822.1531,311.7969 L823.8719,311.7969 Q824.4813,311.7969 824.7469,312.0313 Q825.0125,312.2656 825.0125,312.6563 Q825.0125,313.0313 824.7469,313.2656 Q824.4813,313.5 823.8719,313.5 L818.7313,313.5 Q818.1219,313.5 817.8563,313.2656 Q817.5906,313.0313 817.5906,312.6406 Q817.5906,312.2656 817.8563,312.0313 Q818.1219,311.7969 818.7313,311.7969 L820.45,311.7969 L820.45,305.1406 L818.7313,305.1406 Q818.1219,305.1406 817.8563,304.9063 Q817.5906,304.6719 817.5906,304.2813 Q817.5906,303.9063 817.8563,303.6719 Q818.1219,303.4375 818.7313,303.4375 L823.8719,303.4375 Q824.4813,303.4375 824.7469,303.6719 Q825.0125,303.9063 825.0125,304.2813 Q825.0125,304.6719 824.7469,304.9063 Q824.4813,305.1406 823.8719,305.1406 L822.1531,305.1406 Z " fill="#000000"/><text fill="#000000" font-family="sans-serif" font-size="14" font-style="italic" lengthAdjust="spacing" textLength="136" x="835.8" y="314.2969">EmailSenderInterface</text><line style="stroke:#181818;stroke-width:0.5;" x1="804.5" x2="976.5" y1="324.5" y2="324.5"/><line style="stroke:#181818;stroke-width:0.5;" x1="804.5" x2="976.5" y1="332.5" y2="332.5"/><ellipse cx="814.5" cy="347.3105" fill="#84BE84" rx="3" ry="3" style="stroke:#038048;stroke-width:1.0;"/><text fill="#000000" font-family="sans-serif" font-size="14" lengthAdjust="spacing" textLength="148" x="823.5" y="351.6074">sendEmail(entry: Entry)</text></g><!--class Mailer--><g id="elem_Mailer"><rect codeLine="52" fill="#F1F1F1" height="66.6211" id="Mailer" rx="2.5" ry="2.5" style="stroke:#181818;stroke-width:0.5;" width="174" x="803.5" y="503.5"/><ellipse cx="867.25" cy="519.5" fill="#ADD1B2" rx="11" ry="11" style="stroke:#181818;stroke-width:1.0;"/><path d="M870.0156,515.375 Q870.1719,515.1563 870.3594,515.0469 Q870.5469,514.9375 870.7656,514.9375 Q871.1406,514.9375 871.375,515.2031 Q871.6094,515.4531 871.6094,516.0625 L871.6094,517.5156 Q871.6094,518.125 871.375,518.3906 Q871.1406,518.6563 870.7656,518.6563 Q870.4219,518.6563 870.2188,518.4531 Q870.0156,518.2656 869.9063,517.75 Q869.8594,517.3906 869.6719,517.2031 Q869.3438,516.8281 868.7344,516.6094 Q868.125,516.3906 867.5,516.3906 Q866.7344,516.3906 866.0938,516.7188 Q865.4688,517.0469 864.9688,517.7969 Q864.4844,518.5469 864.4844,519.5781 L864.4844,520.6719 Q864.4844,521.9063 865.375,522.7344 Q866.2656,523.5469 867.8594,523.5469 Q868.7969,523.5469 869.4531,523.2969 Q869.8438,523.1406 870.2656,522.7031 Q870.5313,522.4375 870.6719,522.3594 Q870.8281,522.2813 871.0313,522.2813 Q871.3594,522.2813 871.6094,522.5469 Q871.875,522.7969 871.875,523.1406 Q871.875,523.4844 871.5313,523.8906 Q871.0313,524.4688 870.2344,524.7969 Q869.1563,525.25 867.8594,525.25 Q866.3438,525.25 865.1406,524.625 Q864.1563,524.125 863.4688,523.0625 Q862.7813,521.9844 862.7813,520.7031 L862.7813,519.5469 Q862.7813,518.2188 863.3906,517.0781 Q864.0156,515.9219 865.1094,515.3125 Q866.2031,514.6875 867.4375,514.6875 Q868.1719,514.6875 868.8125,514.8594 Q869.4688,515.0156 870.0156,515.375 Z " fill="#000000"/><text fill="#000000" font-family="sans-serif" font-size="14" lengthAdjust="spacing" textLength="38" x="887.75" y="525.2969">Mailer</text><line style="stroke:#181818;stroke-width:0.5;" x1="804.5" x2="976.5" y1="535.5" y2="535.5"/><line style="stroke:#181818;stroke-width:0.5;" x1="804.5" x2="976.5" y1="543.5" y2="543.5"/><ellipse cx="814.5" cy="558.3105" fill="#84BE84" rx="3" ry="3" style="stroke:#038048;stroke-width:1.0;"/><text fill="#000000" font-family="sans-serif" font-size="14" lengthAdjust="spacing" textLength="148" x="823.5" y="562.6074">sendEmail(entry: Entry)</text></g><!--link AssignTeamToEntryUI to AssignTeamToEntryController--><g id="link_AssignTeamToEntryUI_AssignTeamToEntryController"><path codeLine="56" d="M555.67,87 C567.34,87 573.01,87 584.68,87 " fill="none" id="AssignTeamToEntryUI-to-AssignTeamToEntryController" style="stroke:#181818;stroke-width:1.0;stroke-dasharray:7.0,7.0;"/><polygon fill="#181818" points="590.68,87,581.68,83,585.68,87,581.68,91,590.68,87" style="stroke:#181818;stroke-width:1.0;"/></g><!--link AssignTeamToEntryController to Repositories--><g id="link_AssignTeamToEntryController_Repositories"><path codeLine="57" d="M625.7,167.08 C585.66,192.46 546.3981,217.3383 506.3481,242.7183 " fill="none" id="AssignTeamToEntryController-to-Repositories" style="stroke:#181818;stroke-width:1.0;stroke-dasharray:7.0,7.0;"/><polygon fill="#181818" points="501.28,245.93,511.0232,244.4912,505.5034,243.2536,506.741,237.7338,501.28,245.93" style="stroke:#181818;stroke-width:1.0;"/><text fill="#000000" font-family="sans-serif" font-size="13" lengthAdjust="spacing" textLength="67" x="576.5" y="212.0283">repositories</text></g><!--link Repositories to TeamRepository--><g id="link_Repositories_TeamRepository"><path codeLine="58" d="M274.42,406.01 C240.38,432.37 208.0951,457.358 177.4951,481.038 " fill="none" id="Repositories-to-TeamRepository" style="stroke:#181818;stroke-width:1.0;stroke-dasharray:7.0,7.0;"/><polygon fill="#181818" points="172.75,484.71,182.3157,482.3654,176.7043,481.65,177.4196,476.0385,172.75,484.71" style="stroke:#181818;stroke-width:1.0;"/><text fill="#000000" font-family="sans-serif" font-size="13" lengthAdjust="spacing" textLength="91" x="234.5" y="451.0283">teamRepository</text></g><!--link Repositories to AgendaRepository--><g id="link_Repositories_AgendaRepository"><path codeLine="59" d="M362.51,406.01 C357.85,432.37 353.8154,455.1218 349.6254,478.8018 " fill="none" id="Repositories-to-AgendaRepository" style="stroke:#181818;stroke-width:1.0;stroke-dasharray:7.0,7.0;"/><polygon fill="#181818" points="348.58,484.71,354.0869,476.5446,349.4512,479.7865,346.2093,475.1507,348.58,484.71" style="stroke:#181818;stroke-width:1.0;"/><text fill="#000000" font-family="sans-serif" font-size="13" lengthAdjust="spacing" textLength="104" x="358.5" y="451.0283">agendaRepository</text></g><!--link Repositories to OrganizationRepository--><g id="link_Repositories_OrganizationRepository"><path codeLine="60" d="M455.51,406.01 C489.27,439.77 522.5574,473.0574 548.5774,499.0774 " fill="none" id="Repositories-to-OrganizationRepository" style="stroke:#181818;stroke-width:1.0;stroke-dasharray:7.0,7.0;"/><polygon fill="#181818" points="552.82,503.32,549.2845,494.1276,549.2845,499.7845,543.6276,499.7845,552.82,503.32" style="stroke:#181818;stroke-width:1.0;"/><text fill="#000000" font-family="sans-serif" font-size="13" lengthAdjust="spacing" textLength="132" x="501.5" y="451.0283">organizationRepository</text></g><!--link Repositories to Repositories--><g id="link_Repositories_Repositories"><path codeLine="61" d="M556.87,307.12 C577.85,310.6 591.5,316.9 591.5,326 C591.5,335.1 583.7691,340.4182 562.7891,343.8982 " fill="none" id="Repositories-to-Repositories" style="stroke:#181818;stroke-width:1.0;"/><polygon fill="#181818" points="556.87,344.88,566.4032,347.3534,561.8026,344.0618,565.0941,339.4612,556.87,344.88" style="stroke:#181818;stroke-width:1.0;"/><text fill="#000000" font-family="sans-serif" font-size="13" lengthAdjust="spacing" textLength="75" x="597.5" y="331.5283">getInstance()</text></g><!--link TeamRepository to Organization--><g id="link_TeamRepository_Organization"><path codeLine="62" d="M206.16,584.33 C243.98,601.58 287.56,621.08 327.5,638 C352.84,648.74 375.5512,657.847 399.5912,667.237 " fill="none" id="TeamRepository-to-Organization" style="stroke:#181818;stroke-width:1.0;"/><polygon fill="#181818" points="405.18,669.42,398.2521,662.4197,400.5227,667.6009,395.3415,669.8714,405.18,669.42" style="stroke:#181818;stroke-width:1.0;"/><text fill="#000000" font-family="sans-serif" font-size="13" lengthAdjust="spacing" textLength="58" x="328.5" y="634.0283">gets team</text></g><!--link OrganizationRepository to Organization--><g id="link_OrganizationRepository_Organization"><path codeLine="63" d="M558.9,570.82 C535.27,599.97 505.1076,637.1885 484.1676,663.0285 " fill="none" id="OrganizationRepository-to-Organization" style="stroke:#181818;stroke-width:1.0;"/><polygon fill="#181818" points="480.39,667.69,489.1641,663.2161,483.538,663.8054,482.9487,658.1793,480.39,667.69" style="stroke:#181818;stroke-width:1.0;"/><text fill="#000000" font-family="sans-serif" font-size="13" lengthAdjust="spacing" textLength="75" x="521.5" y="634.0283">has manager</text></g><!--link AgendaRepository to Organization--><g id="link_AgendaRepository_Organization"><path codeLine="64" d="M372.82,589.05 C383.95,605.13 396.77,622.68 409.5,638 C417.99,648.21 423.8126,654.5521 432.8226,663.5421 " fill="none" id="AgendaRepository-to-Organization" style="stroke:#181818;stroke-width:1.0;"/><polygon fill="#181818" points="437.07,667.78,433.5243,658.5915,433.5305,664.2484,427.8737,664.2547,437.07,667.78" style="stroke:#181818;stroke-width:1.0;"/><text fill="#000000" font-family="sans-serif" font-size="13" lengthAdjust="spacing" textLength="58" x="410.5" y="634.0283">gets entry</text></g><!--link Organization to Entry--><g id="link_Organization_Entry"><path codeLine="65" d="M461.5,716.06 C461.5,737.29 461.5,763.29 461.5,788.98 " fill="none" id="Organization-to-Entry" style="stroke:#181818;stroke-width:1.0;"/><polygon fill="#181818" points="461.5,794.98,465.5,785.98,461.5,789.98,457.5,785.98,461.5,794.98" style="stroke:#181818;stroke-width:1.0;"/><text fill="#000000" font-family="sans-serif" font-size="13" lengthAdjust="spacing" textLength="106" x="462.5" y="761.0283">sets team to entry</text><text fill="#000000" font-family="sans-serif" font-size="13" lengthAdjust="spacing" textLength="7" x="453.6469" y="738.0603">1</text><text fill="#000000" font-family="sans-serif" font-size="13" lengthAdjust="spacing" textLength="5" x="456.1016" y="783.8809">*</text></g><!--link AssignTeamToEntryController to Organization--><g id="link_AssignTeamToEntryController_Organization"><path codeLine="66" d="M767.91,167.34 C786.47,273.58 802.43,463.2 714.5,589 C669.73,653.05 583.5052,676.0305 523.6452,684.9005 " fill="none" id="AssignTeamToEntryController-to-Organization" style="stroke:#181818;stroke-width:1.0;stroke-dasharray:7.0,7.0;"/><polygon fill="#181818" points="517.71,685.78,527.1991,688.4176,522.656,685.0471,526.0265,680.504,517.71,685.78" style="stroke:#181818;stroke-width:1.0;"/><text fill="#000000" font-family="sans-serif" font-size="13" lengthAdjust="spacing" textLength="70" x="775.5" y="451.0283">organization</text></g><!--link AssignTeamToEntryController to EmailSenderInterface--><g id="link_AssignTeamToEntryController_EmailSenderInterface"><path codeLine="67" d="M797.31,167.25 C822.51,209.9 849.1783,255.044 868.1583,287.174 " fill="none" id="AssignTeamToEntryController-to-EmailSenderInterface" style="stroke:#181818;stroke-width:1.0;stroke-dasharray:7.0,7.0;"/><polygon fill="#181818" points="871.21,292.34,870.0765,282.5566,868.6669,288.035,863.1885,286.6255,871.21,292.34" style="stroke:#181818;stroke-width:1.0;"/><text fill="#000000" font-family="sans-serif" font-size="13" lengthAdjust="spacing" textLength="72" x="825.5" y="212.0283">emailSender</text></g><!--reverse link EmailSenderInterface to Mailer--><g id="link_EmailSenderInterface_Mailer"><path codeLine="68" d="M890.5,377.66 C890.5,416.81 890.5,464.03 890.5,503.23 " fill="none" id="EmailSenderInterface-backto-Mailer" style="stroke:#181818;stroke-width:1.0;stroke-dasharray:7.0,7.0;"/><polygon fill="none" points="890.5,359.66,884.5,377.66,896.5,377.66,890.5,359.66" style="stroke:#181818;stroke-width:1.0;"/></g><!--SRC=[bLJFQuCm5BxdhtZqPBSfx2f5AAM7miPWwtOFziq6R1mcXtLk__kIgD74LDgBwFk-z_jxvYKL0jP2i8BlaPxsrPRB-hofrBCgIwmR0W3tcngfn1bQjDGyk2zGQbn4onIUc90h_PLv6EC7_4w1SQbOscHn7PNXu6soP1FO2M0uBONw1KPIlRSv7W2rfUCloHyXURZvznqqPC1VyQiIJ5OwCvXnGCoua9Jdc3gehNFNmRgF845diy0vwiOmM2nnNI0_K9Vgsopv0uyiBz5bJuoM_b8NbBCVAbd5NPymCep4BROVYfwrc5dxRP8OzkErswV3LWppIhbTI3Ql-HptDjQgQ0iVwMkagF7uL82WVUYd2Ix4NuEEeih4-fFc2DiJPUMRcWlMEsji-jBumU3H1S4_AmphA-YXoqWocFjTa1aC8D7UpZsbK8_lmy4qsrDQ2jAzaud3H2qfKFzU9axXnIZNAdm8Je0uyrjo_W34Qo6EtNmjNvZ6o8L2Z9FlTQG2JfIhxjJK_Qw37YQFsRAJ21QF2yDVt2qwrQSW-ff0LftF_6gdwSR3kq8NGKsdW8EP12chtoJfD4t-0G00]--></g></svg>