<?xml version="1.0" encoding="us-ascii" standalone="no"?><svg xmlns="http://www.w3.org/2000/svg" xmlns:xlink="http://www.w3.org/1999/xlink" contentStyleType="text/css" height="868px" preserveAspectRatio="none" style="width:877px;height:868px;background:#FFFFFF;" version="1.1" viewBox="0 0 877 868" width="877px" zoomAndPan="magnify"><defs/><g><!--class ToDoList--><g id="elem_ToDoList"><rect codeLine="10" fill="#F1F1F1" height="122.4844" id="ToDoList" rx="2.5" ry="2.5" style="stroke:#181818;stroke-width:0.5;" width="182" x="546" y="739"/><ellipse cx="604.25" cy="755" fill="#ADD1B2" rx="11" ry="11" style="stroke:#181818;stroke-width:1.0;"/><path d="M607.0156,750.875 Q607.1719,750.6563 607.3594,750.5469 Q607.5469,750.4375 607.7656,750.4375 Q608.1406,750.4375 608.375,750.7031 Q608.6094,750.9531 608.6094,751.5625 L608.6094,753.0156 Q608.6094,753.625 608.375,753.8906 Q608.1406,754.1563 607.7656,754.1563 Q607.4219,754.1563 607.2188,753.9531 Q607.0156,753.7656 606.9063,753.25 Q606.8594,752.8906 606.6719,752.7031 Q606.3438,752.3281 605.7344,752.1094 Q605.125,751.8906 604.5,751.8906 Q603.7344,751.8906 603.0938,752.2188 Q602.4688,752.5469 601.9688,753.2969 Q601.4844,754.0469 601.4844,755.0781 L601.4844,756.1719 Q601.4844,757.4063 602.375,758.2344 Q603.2656,759.0469 604.8594,759.0469 Q605.7969,759.0469 606.4531,758.7969 Q606.8438,758.6406 607.2656,758.2031 Q607.5313,757.9375 607.6719,757.8594 Q607.8281,757.7813 608.0313,757.7813 Q608.3594,757.7813 608.6094,758.0469 Q608.875,758.2969 608.875,758.6406 Q608.875,758.9844 608.5313,759.3906 Q608.0313,759.9688 607.2344,760.2969 Q606.1563,760.75 604.8594,760.75 Q603.3438,760.75 602.1406,760.125 Q601.1563,759.625 600.4688,758.5625 Q599.7813,757.4844 599.7813,756.2031 L599.7813,755.0469 Q599.7813,753.7188 600.3906,752.5781 Q601.0156,751.4219 602.1094,750.8125 Q603.2031,750.1875 604.4375,750.1875 Q605.1719,750.1875 605.8125,750.3594 Q606.4688,750.5156 607.0156,750.875 Z " fill="#000000"/><text fill="#000000" font-family="sans-serif" font-size="14" lengthAdjust="spacing" textLength="57" x="624.75" y="760.7969">ToDoList</text><line style="stroke:#181818;stroke-width:0.5;" x1="547" x2="727" y1="771" y2="771"/><line style="stroke:#181818;stroke-width:0.5;" x1="547" x2="727" y1="779" y2="779"/><text fill="#000000" font-family="sans-serif" font-size="14" lengthAdjust="spacing" textLength="75" x="552" y="798.1074">+ToDoList()</text><text fill="#000000" font-family="sans-serif" font-size="14" lengthAdjust="spacing" textLength="160" x="552" y="816.7285">+getInstance() : ToDoList</text><text fill="#000000" font-family="sans-serif" font-size="14" lengthAdjust="spacing" textLength="144" x="552" y="835.3496">+addEntry(Entry entry)</text><text fill="#000000" font-family="sans-serif" font-size="14" lengthAdjust="spacing" textLength="170" x="552" y="853.9707">+List&lt;Entry&gt; getToDoList()</text></g><!--class AgendaUI--><g id="elem_AgendaUI"><rect codeLine="17" fill="#F1F1F1" height="234.2109" id="AgendaUI" rx="2.5" ry="2.5" style="stroke:#181818;stroke-width:0.5;" width="182" x="7" y="7"/><ellipse cx="63.25" cy="23" fill="#ADD1B2" rx="11" ry="11" style="stroke:#181818;stroke-width:1.0;"/><path d="M66.0156,18.875 Q66.1719,18.6563 66.3594,18.5469 Q66.5469,18.4375 66.7656,18.4375 Q67.1406,18.4375 67.375,18.7031 Q67.6094,18.9531 67.6094,19.5625 L67.6094,21.0156 Q67.6094,21.625 67.375,21.8906 Q67.1406,22.1563 66.7656,22.1563 Q66.4219,22.1563 66.2188,21.9531 Q66.0156,21.7656 65.9063,21.25 Q65.8594,20.8906 65.6719,20.7031 Q65.3438,20.3281 64.7344,20.1094 Q64.125,19.8906 63.5,19.8906 Q62.7344,19.8906 62.0938,20.2188 Q61.4688,20.5469 60.9688,21.2969 Q60.4844,22.0469 60.4844,23.0781 L60.4844,24.1719 Q60.4844,25.4063 61.375,26.2344 Q62.2656,27.0469 63.8594,27.0469 Q64.7969,27.0469 65.4531,26.7969 Q65.8438,26.6406 66.2656,26.2031 Q66.5313,25.9375 66.6719,25.8594 Q66.8281,25.7813 67.0313,25.7813 Q67.3594,25.7813 67.6094,26.0469 Q67.875,26.2969 67.875,26.6406 Q67.875,26.9844 67.5313,27.3906 Q67.0313,27.9688 66.2344,28.2969 Q65.1563,28.75 63.8594,28.75 Q62.3438,28.75 61.1406,28.125 Q60.1563,27.625 59.4688,26.5625 Q58.7813,25.4844 58.7813,24.2031 L58.7813,23.0469 Q58.7813,21.7188 59.3906,20.5781 Q60.0156,19.4219 61.1094,18.8125 Q62.2031,18.1875 63.4375,18.1875 Q64.1719,18.1875 64.8125,18.3594 Q65.4688,18.5156 66.0156,18.875 Z " fill="#000000"/><text fill="#000000" font-family="sans-serif" font-size="14" lengthAdjust="spacing" textLength="61" x="83.75" y="28.7969">AgendaUI</text><line style="stroke:#181818;stroke-width:0.5;" x1="8" x2="188" y1="39" y2="39"/><text fill="#000000" font-family="sans-serif" font-size="14" lengthAdjust="spacing" textLength="89" x="13" y="58.1074">-name: String;</text><text fill="#000000" font-family="sans-serif" font-size="14" lengthAdjust="spacing" textLength="67" x="13" y="76.7285">-size: Size;</text><text fill="#000000" font-family="sans-serif" font-size="14" lengthAdjust="spacing" textLength="89" x="13" y="95.3496">-area: double;</text><text fill="#000000" font-family="sans-serif" font-size="14" lengthAdjust="spacing" textLength="170" x="13" y="113.9707">-greenSpace: GreenSpace</text><line style="stroke:#181818;stroke-width:0.5;" x1="8" x2="188" y1="121.4844" y2="121.4844"/><text fill="#000000" font-family="sans-serif" font-size="14" lengthAdjust="spacing" textLength="163" x="13" y="140.5918">+RegisterGreenSpaceUI()</text><text fill="#000000" font-family="sans-serif" font-size="14" lengthAdjust="spacing" textLength="93" x="13" y="159.2129">-requestData()</text><text fill="#000000" font-family="sans-serif" font-size="14" lengthAdjust="spacing" textLength="99" x="13" y="177.834">-requestName()</text><text fill="#000000" font-family="sans-serif" font-size="14" lengthAdjust="spacing" textLength="93" x="13" y="196.4551">-requestArea()</text><text fill="#000000" font-family="sans-serif" font-size="14" lengthAdjust="spacing" textLength="86" x="13" y="215.0762">-submitData()</text><text fill="#000000" font-family="sans-serif" font-size="14" lengthAdjust="spacing" textLength="123" x="13" y="233.6973">-printGreenSpace()</text></g><!--class AgendaController--><g id="elem_AgendaController"><rect codeLine="31" fill="#F1F1F1" height="141.1055" id="AgendaController" rx="2.5" ry="2.5" style="stroke:#181818;stroke-width:0.5;" width="560" x="279" y="53.5"/><ellipse cx="499.25" cy="69.5" fill="#ADD1B2" rx="11" ry="11" style="stroke:#181818;stroke-width:1.0;"/><path d="M502.0156,65.375 Q502.1719,65.1563 502.3594,65.0469 Q502.5469,64.9375 502.7656,64.9375 Q503.1406,64.9375 503.375,65.2031 Q503.6094,65.4531 503.6094,66.0625 L503.6094,67.5156 Q503.6094,68.125 503.375,68.3906 Q503.1406,68.6563 502.7656,68.6563 Q502.4219,68.6563 502.2188,68.4531 Q502.0156,68.2656 501.9063,67.75 Q501.8594,67.3906 501.6719,67.2031 Q501.3438,66.8281 500.7344,66.6094 Q500.125,66.3906 499.5,66.3906 Q498.7344,66.3906 498.0938,66.7188 Q497.4688,67.0469 496.9688,67.7969 Q496.4844,68.5469 496.4844,69.5781 L496.4844,70.6719 Q496.4844,71.9063 497.375,72.7344 Q498.2656,73.5469 499.8594,73.5469 Q500.7969,73.5469 501.4531,73.2969 Q501.8438,73.1406 502.2656,72.7031 Q502.5313,72.4375 502.6719,72.3594 Q502.8281,72.2813 503.0313,72.2813 Q503.3594,72.2813 503.6094,72.5469 Q503.875,72.7969 503.875,73.1406 Q503.875,73.4844 503.5313,73.8906 Q503.0313,74.4688 502.2344,74.7969 Q501.1563,75.25 499.8594,75.25 Q498.3438,75.25 497.1406,74.625 Q496.1563,74.125 495.4688,73.0625 Q494.7813,71.9844 494.7813,70.7031 L494.7813,69.5469 Q494.7813,68.2188 495.3906,67.0781 Q496.0156,65.9219 497.1094,65.3125 Q498.2031,64.6875 499.4375,64.6875 Q500.1719,64.6875 500.8125,64.8594 Q501.4688,65.0156 502.0156,65.375 Z " fill="#000000"/><text fill="#000000" font-family="sans-serif" font-size="14" lengthAdjust="spacing" textLength="111" x="519.75" y="75.2969">AgendaController</text><line style="stroke:#181818;stroke-width:0.5;" x1="280" x2="838" y1="85.5" y2="85.5"/><line style="stroke:#181818;stroke-width:0.5;" x1="280" x2="838" y1="93.5" y2="93.5"/><text fill="#000000" font-family="sans-serif" font-size="14" lengthAdjust="spacing" textLength="213" x="285" y="112.6074">+RegisterGreenSpaceController()</text><text fill="#000000" font-family="sans-serif" font-size="14" lengthAdjust="spacing" textLength="532" x="285" y="131.2285">+RegisterGreenSpaceController(AuthenticationRepository authenticationRepository)</text><text fill="#000000" font-family="sans-serif" font-size="14" lengthAdjust="spacing" textLength="346" x="285" y="149.8496">+getGreenSpaceRepository() : GreenSpaceRepository</text><text fill="#000000" font-family="sans-serif" font-size="14" lengthAdjust="spacing" textLength="363" x="285" y="168.4707">-getAuthenticationRepository() : AuthenticationRepository</text><text fill="#000000" font-family="sans-serif" font-size="14" lengthAdjust="spacing" textLength="548" x="285" y="187.0918">+registerGreenSpace(String name, double area, GreenSpace.Size size ) : GreenSpace</text></g><!--class Repositories--><g id="elem_Repositories"><rect codeLine="40" fill="#F1F1F1" height="103.8633" id="Repositories" rx="2.5" ry="2.5" style="stroke:#181818;stroke-width:0.5;" width="358" x="380" y="320"/><ellipse cx="515.25" cy="336" fill="#ADD1B2" rx="11" ry="11" style="stroke:#181818;stroke-width:1.0;"/><path d="M518.0156,331.875 Q518.1719,331.6563 518.3594,331.5469 Q518.5469,331.4375 518.7656,331.4375 Q519.1406,331.4375 519.375,331.7031 Q519.6094,331.9531 519.6094,332.5625 L519.6094,334.0156 Q519.6094,334.625 519.375,334.8906 Q519.1406,335.1563 518.7656,335.1563 Q518.4219,335.1563 518.2188,334.9531 Q518.0156,334.7656 517.9063,334.25 Q517.8594,333.8906 517.6719,333.7031 Q517.3438,333.3281 516.7344,333.1094 Q516.125,332.8906 515.5,332.8906 Q514.7344,332.8906 514.0938,333.2188 Q513.4688,333.5469 512.9688,334.2969 Q512.4844,335.0469 512.4844,336.0781 L512.4844,337.1719 Q512.4844,338.4063 513.375,339.2344 Q514.2656,340.0469 515.8594,340.0469 Q516.7969,340.0469 517.4531,339.7969 Q517.8438,339.6406 518.2656,339.2031 Q518.5313,338.9375 518.6719,338.8594 Q518.8281,338.7813 519.0313,338.7813 Q519.3594,338.7813 519.6094,339.0469 Q519.875,339.2969 519.875,339.6406 Q519.875,339.9844 519.5313,340.3906 Q519.0313,340.9688 518.2344,341.2969 Q517.1563,341.75 515.8594,341.75 Q514.3438,341.75 513.1406,341.125 Q512.1563,340.625 511.4688,339.5625 Q510.7813,338.4844 510.7813,337.2031 L510.7813,336.0469 Q510.7813,334.7188 511.3906,333.5781 Q512.0156,332.4219 513.1094,331.8125 Q514.2031,331.1875 515.4375,331.1875 Q516.1719,331.1875 516.8125,331.3594 Q517.4688,331.5156 518.0156,331.875 Z " fill="#000000"/><text fill="#000000" font-family="sans-serif" font-size="14" lengthAdjust="spacing" textLength="79" x="535.75" y="341.7969">Repositories</text><line style="stroke:#181818;stroke-width:0.5;" x1="381" x2="737" y1="352" y2="352"/><line style="stroke:#181818;stroke-width:0.5;" x1="381" x2="737" y1="360" y2="360"/><text fill="#000000" font-family="sans-serif" font-size="14" lengthAdjust="spacing" textLength="94" x="386" y="379.1074">-Repositories()</text><text fill="#000000" font-family="sans-serif" font-size="14" lengthAdjust="spacing" textLength="182" x="386" y="397.7285">+getInstance() : Repositories</text><text fill="#000000" font-family="sans-serif" font-size="14" lengthAdjust="spacing" textLength="346" x="386" y="416.3496">+getGreenSpaceRepository() : GreenSpaceRepository</text></g><!--class Organization--><g id="elem_Organization"><rect codeLine="46" fill="#F1F1F1" height="48" id="Organization" rx="2.5" ry="2.5" style="stroke:#181818;stroke-width:0.5;" width="112" x="420" y="612"/><ellipse cx="435" cy="628" fill="#ADD1B2" rx="11" ry="11" style="stroke:#181818;stroke-width:1.0;"/><path d="M437.7656,623.875 Q437.9219,623.6563 438.1094,623.5469 Q438.2969,623.4375 438.5156,623.4375 Q438.8906,623.4375 439.125,623.7031 Q439.3594,623.9531 439.3594,624.5625 L439.3594,626.0156 Q439.3594,626.625 439.125,626.8906 Q438.8906,627.1563 438.5156,627.1563 Q438.1719,627.1563 437.9688,626.9531 Q437.7656,626.7656 437.6563,626.25 Q437.6094,625.8906 437.4219,625.7031 Q437.0938,625.3281 436.4844,625.1094 Q435.875,624.8906 435.25,624.8906 Q434.4844,624.8906 433.8438,625.2188 Q433.2188,625.5469 432.7188,626.2969 Q432.2344,627.0469 432.2344,628.0781 L432.2344,629.1719 Q432.2344,630.4063 433.125,631.2344 Q434.0156,632.0469 435.6094,632.0469 Q436.5469,632.0469 437.2031,631.7969 Q437.5938,631.6406 438.0156,631.2031 Q438.2813,630.9375 438.4219,630.8594 Q438.5781,630.7813 438.7813,630.7813 Q439.1094,630.7813 439.3594,631.0469 Q439.625,631.2969 439.625,631.6406 Q439.625,631.9844 439.2813,632.3906 Q438.7813,632.9688 437.9844,633.2969 Q436.9063,633.75 435.6094,633.75 Q434.0938,633.75 432.8906,633.125 Q431.9063,632.625 431.2188,631.5625 Q430.5313,630.4844 430.5313,629.2031 L430.5313,628.0469 Q430.5313,626.7188 431.1406,625.5781 Q431.7656,624.4219 432.8594,623.8125 Q433.9531,623.1875 435.1875,623.1875 Q435.9219,623.1875 436.5625,623.3594 Q437.2188,623.5156 437.7656,623.875 Z " fill="#000000"/><text fill="#000000" font-family="sans-serif" font-size="14" lengthAdjust="spacing" textLength="80" x="449" y="633.7969">Organization</text><line style="stroke:#181818;stroke-width:0.5;" x1="421" x2="531" y1="644" y2="644"/><line style="stroke:#181818;stroke-width:0.5;" x1="421" x2="531" y1="652" y2="652"/></g><!--class Entry--><g id="elem_Entry"><rect codeLine="47" fill="#F1F1F1" height="48" id="Entry" rx="2.5" ry="2.5" style="stroke:#181818;stroke-width:0.5;" width="65" x="424.5" y="776"/><ellipse cx="439.5" cy="792" fill="#ADD1B2" rx="11" ry="11" style="stroke:#181818;stroke-width:1.0;"/><path d="M442.2656,787.875 Q442.4219,787.6563 442.6094,787.5469 Q442.7969,787.4375 443.0156,787.4375 Q443.3906,787.4375 443.625,787.7031 Q443.8594,787.9531 443.8594,788.5625 L443.8594,790.0156 Q443.8594,790.625 443.625,790.8906 Q443.3906,791.1563 443.0156,791.1563 Q442.6719,791.1563 442.4688,790.9531 Q442.2656,790.7656 442.1563,790.25 Q442.1094,789.8906 441.9219,789.7031 Q441.5938,789.3281 440.9844,789.1094 Q440.375,788.8906 439.75,788.8906 Q438.9844,788.8906 438.3438,789.2188 Q437.7188,789.5469 437.2188,790.2969 Q436.7344,791.0469 436.7344,792.0781 L436.7344,793.1719 Q436.7344,794.4063 437.625,795.2344 Q438.5156,796.0469 440.1094,796.0469 Q441.0469,796.0469 441.7031,795.7969 Q442.0938,795.6406 442.5156,795.2031 Q442.7813,794.9375 442.9219,794.8594 Q443.0781,794.7813 443.2813,794.7813 Q443.6094,794.7813 443.8594,795.0469 Q444.125,795.2969 444.125,795.6406 Q444.125,795.9844 443.7813,796.3906 Q443.2813,796.9688 442.4844,797.2969 Q441.4063,797.75 440.1094,797.75 Q438.5938,797.75 437.3906,797.125 Q436.4063,796.625 435.7188,795.5625 Q435.0313,794.4844 435.0313,793.2031 L435.0313,792.0469 Q435.0313,790.7188 435.6406,789.5781 Q436.2656,788.4219 437.3594,787.8125 Q438.4531,787.1875 439.6875,787.1875 Q440.4219,787.1875 441.0625,787.3594 Q441.7188,787.5156 442.2656,787.875 Z " fill="#000000"/><text fill="#000000" font-family="sans-serif" font-size="14" lengthAdjust="spacing" textLength="33" x="453.5" y="797.7969">Entry</text><line style="stroke:#181818;stroke-width:0.5;" x1="425.5" x2="488.5" y1="808" y2="808"/><line style="stroke:#181818;stroke-width:0.5;" x1="425.5" x2="488.5" y1="816" y2="816"/></g><!--class OrganizationRepositiry--><g id="elem_OrganizationRepositiry"><rect fill="#F1F1F1" height="48" id="OrganizationRepositiry" rx="2.5" ry="2.5" style="stroke:#181818;stroke-width:0.5;" width="175" x="403.5" y="485"/><ellipse cx="418.5" cy="501" fill="#ADD1B2" rx="11" ry="11" style="stroke:#181818;stroke-width:1.0;"/><path d="M421.2656,496.875 Q421.4219,496.6563 421.6094,496.5469 Q421.7969,496.4375 422.0156,496.4375 Q422.3906,496.4375 422.625,496.7031 Q422.8594,496.9531 422.8594,497.5625 L422.8594,499.0156 Q422.8594,499.625 422.625,499.8906 Q422.3906,500.1563 422.0156,500.1563 Q421.6719,500.1563 421.4688,499.9531 Q421.2656,499.7656 421.1563,499.25 Q421.1094,498.8906 420.9219,498.7031 Q420.5938,498.3281 419.9844,498.1094 Q419.375,497.8906 418.75,497.8906 Q417.9844,497.8906 417.3438,498.2188 Q416.7188,498.5469 416.2188,499.2969 Q415.7344,500.0469 415.7344,501.0781 L415.7344,502.1719 Q415.7344,503.4063 416.625,504.2344 Q417.5156,505.0469 419.1094,505.0469 Q420.0469,505.0469 420.7031,504.7969 Q421.0938,504.6406 421.5156,504.2031 Q421.7813,503.9375 421.9219,503.8594 Q422.0781,503.7813 422.2813,503.7813 Q422.6094,503.7813 422.8594,504.0469 Q423.125,504.2969 423.125,504.6406 Q423.125,504.9844 422.7813,505.3906 Q422.2813,505.9688 421.4844,506.2969 Q420.4063,506.75 419.1094,506.75 Q417.5938,506.75 416.3906,506.125 Q415.4063,505.625 414.7188,504.5625 Q414.0313,503.4844 414.0313,502.2031 L414.0313,501.0469 Q414.0313,499.7188 414.6406,498.5781 Q415.2656,497.4219 416.3594,496.8125 Q417.4531,496.1875 418.6875,496.1875 Q419.4219,496.1875 420.0625,496.3594 Q420.7188,496.5156 421.2656,496.875 Z " fill="#000000"/><text fill="#000000" font-family="sans-serif" font-size="14" lengthAdjust="spacing" textLength="143" x="432.5" y="506.7969">OrganizationRepositiry</text><line style="stroke:#181818;stroke-width:0.5;" x1="404.5" x2="577.5" y1="517" y2="517"/><line style="stroke:#181818;stroke-width:0.5;" x1="404.5" x2="577.5" y1="525" y2="525"/></g><!--link AgendaUI to AgendaController--><g id="link_AgendaUI_AgendaController"><path codeLine="49" d="M189.08,124 C215.84,124 240.63,124 272.76,124 " fill="none" id="AgendaUI-to-AgendaController" style="stroke:#181818;stroke-width:1.0;stroke-dasharray:7.0,7.0;"/><polygon fill="#181818" points="278.76,124,269.76,120,273.76,124,269.76,128,278.76,124" style="stroke:#181818;stroke-width:1.0;"/><text fill="#000000" font-family="sans-serif" font-size="13" lengthAdjust="spacing" textLength="53" x="207.5" y="117.0283">controller</text></g><!--link AgendaController to Repositories--><g id="link_AgendaController_Repositories"><path codeLine="50" d="M559,194.51 C559,234.29 559,277.34 559,313.63 " fill="none" id="AgendaController-to-Repositories" style="stroke:#181818;stroke-width:1.0;stroke-dasharray:7.0,7.0;"/><polygon fill="#181818" points="559,319.63,563,310.63,559,314.63,555,310.63,559,319.63" style="stroke:#181818;stroke-width:1.0;"/><text fill="#000000" font-family="sans-serif" font-size="13" lengthAdjust="spacing" textLength="67" x="560" y="286.0283">repositories</text></g><!--link Repositories to ToDoList--><g id="link_Repositories_ToDoList"><path codeLine="51" d="M575.88,424.08 C585.63,453.62 596,485 596,485 C596,485 616.4635,641.7005 628.3635,732.8805 " fill="none" id="Repositories-to-ToDoList" style="stroke:#181818;stroke-width:1.0;"/><polygon fill="#181818" points="629.14,738.83,631.9416,729.388,628.4929,733.872,624.0089,730.4233,629.14,738.83" style="stroke:#181818;stroke-width:1.0;"/><text fill="#000000" font-family="sans-serif" font-size="13" lengthAdjust="spacing" textLength="74" x="609" y="578.0283">list of entries</text></g><!--reverse link ToDoList to AgendaController--><g id="link_ToDoList_AgendaController"><path codeLine="52" d="M728.3561,735.4845 C794.6661,689.3745 870,637 870,637 C870,371 870,371 870,371 C870,371 835,320 835,320 C835,320 736.74,250.57 657.47,194.57 " fill="none" id="ToDoList-backto-AgendaController" style="stroke:#181818;stroke-width:1.0;"/><polygon fill="#181818" points="723.43,738.91,733.1028,737.0559,727.5351,736.0555,728.5355,730.4878,723.43,738.91" style="stroke:#181818;stroke-width:1.0;"/></g><!--link Repositories to OrganizationRepositiry--><g id="link_Repositories_OrganizationRepositiry"><path codeLine="53" d="M533.29,424.04 C522.76,444.94 513.8013,462.7425 505.3913,479.4225 " fill="none" id="Repositories-to-OrganizationRepositiry" style="stroke:#181818;stroke-width:1.0;"/><polygon fill="#181818" points="502.69,484.78,510.3136,478.5445,504.941,480.3154,503.1702,474.9429,502.69,484.78" style="stroke:#181818;stroke-width:1.0;"/><text fill="#000000" font-family="sans-serif" font-size="13" lengthAdjust="spacing" textLength="7" x="497.6863" y="473.8683">1</text></g><!--link OrganizationRepositiry to Organization--><g id="link_OrganizationRepositiry_Organization"><path codeLine="54" d="M488.21,533.22 C485.52,555.67 482.1751,583.5428 479.4851,605.9528 " fill="none" id="OrganizationRepositiry-to-Organization" style="stroke:#181818;stroke-width:1.0;"/><polygon fill="#181818" points="478.77,611.91,483.8141,603.4509,479.3659,606.9456,475.8711,602.4974,478.77,611.91" style="stroke:#181818;stroke-width:1.0;"/><text fill="#000000" font-family="sans-serif" font-size="13" lengthAdjust="spacing" textLength="75" x="486" y="578.0283">has manager</text><text fill="#000000" font-family="sans-serif" font-size="13" lengthAdjust="spacing" textLength="7" x="479.7554" y="554.8485">1</text><text fill="#000000" font-family="sans-serif" font-size="13" lengthAdjust="spacing" textLength="7" x="471.5829" y="600.6244">1</text></g><!--link AgendaController to Organization--><g id="link_AgendaController_Organization"><path codeLine="55" d="M488.71,194.57 C432.14,250.57 362,320 362,320 C362,320 362,424 362,424 C362,424 386,533 386,533 C386,533 425.0494,577.2617 451.6094,607.3517 " fill="none" id="AgendaController-to-Organization" style="stroke:#181818;stroke-width:1.0;"/><polygon fill="#181818" points="455.58,611.85,452.623,602.4555,452.2712,608.1014,446.6253,607.7496,455.58,611.85" style="stroke:#181818;stroke-width:1.0;"/><text fill="#000000" font-family="sans-serif" font-size="13" lengthAdjust="spacing" textLength="7" x="474.1004" y="216.762">1</text></g><!--link Repositories to Repositories--><g id="link_Repositories_Repositories"><path codeLine="56" d="M738.13,358.83 C759.24,361.24 773,365.63 773,372 C773,378.37 765.2013,382.0794 744.0913,384.4894 " fill="none" id="Repositories-to-Repositories" style="stroke:#181818;stroke-width:1.0;"/><polygon fill="#181818" points="738.13,385.17,747.5256,388.1233,743.0977,384.6029,746.6182,380.175,738.13,385.17" style="stroke:#181818;stroke-width:1.0;"/><text fill="#000000" font-family="sans-serif" font-size="13" lengthAdjust="spacing" textLength="49" x="779" y="377.5283">instance</text></g><!--link Organization to Entry--><g id="link_Organization_Entry"><path codeLine="57" d="M466.41,660.09 C460.49,674.37 454,690 454,690 C454,690 454,709 454,709 C454,709 455.1398,743.1633 456.0298,769.8233 " fill="none" id="Organization-to-Entry" style="stroke:#181818;stroke-width:1.0;"/><polygon fill="#181818" points="456.23,775.82,459.9275,766.6916,456.0632,770.8228,451.9319,766.9585,456.23,775.82" style="stroke:#181818;stroke-width:1.0;"/><text fill="#000000" font-family="sans-serif" font-size="13" lengthAdjust="spacing" textLength="25" x="455" y="705.0283">date</text><text fill="#000000" font-family="sans-serif" font-size="13" lengthAdjust="spacing" textLength="7" x="456.2193" y="682.0976">1</text><text fill="#000000" font-family="sans-serif" font-size="13" lengthAdjust="spacing" textLength="7" x="448.1892" y="764.918">1</text></g><!--link Organization to ToDoList--><g id="link_Organization_ToDoList"><path codeLine="58" d="M490.49,660.18 C503.64,681.23 521,709 521,709 C521,709 533.6095,718.7821 554.8895,735.2921 " fill="none" id="Organization-to-ToDoList" style="stroke:#181818;stroke-width:1.0;"/><polygon fill="#181818" points="559.63,738.97,554.9711,730.2927,555.6795,735.9051,550.0672,736.6135,559.63,738.97" style="stroke:#181818;stroke-width:1.0;"/><text fill="#000000" font-family="sans-serif" font-size="13" lengthAdjust="spacing" textLength="88" x="522" y="705.0283">has information</text><text fill="#000000" font-family="sans-serif" font-size="13" lengthAdjust="spacing" textLength="7" x="486.1688" y="682.2095">1</text><text fill="#000000" font-family="sans-serif" font-size="13" lengthAdjust="spacing" textLength="7" x="543.2794" y="727.9477">1</text></g><!--SRC=[bLJRRjim37tNLn1zIOhKmVQQ5G62THW231lGh1_0semZL9OyISQG1lltKN9ioutJONbmJF4Syl1YpToBr3LQhA0oskG7Qoe2RniIWwV6_0LBslcZ8h2KUzIbIW7kW8NvBNK9UrGkzIYfoHzhWjgeOp34RC9fh3SYOUKAdTjuR-LpuscR6xsJhmGVX9Wfsdlm1gmi3nuA6UH8eqMam4_pOBv9vqz2BBht-QrObEItsh7kdEQtiEfnOe55yKLxUvp79r1uCY4ux-FH6fYSnFfpJhKfIHVuj3s9J6D5AzYnN5r-4fbZhMpoamsqX2ieJFEiWbbQ8htZXZBYQ__EQX-fvFXaXyEdBMVBBFrgoFa7z9YOtpbZOcuuIJ1Tyrp97bkp7Z_4Yzf7uZyRBj0eHPRx1VoRK35WcFzlpARn1-wXp35CvP5guwGtt5YyuZW7vHuFyGPl7DQK8x8oPbrB69dNd6rEUr78l9qXX87UdOS6OO9tYOXbtCKmP1Yh6zhRPvBaJgtKqLdNIdYxbobeWFnVPteLFso9Mhx6sa_TsiQTPajq-mlBzSKwSEYyDyI5TycKL2d3RIfyvCkoTV-vCL25FxEF7rh0zgxxZAyGdLreUHCjWjPmy_5cLDyP9Bd-wUF8o2QOhEc03YhKVCLD5DlnKivbXUd12kHvfYCj8mNjRSCN0_ftK5rpMebIxusjMW5_0G00]--></g></svg>