<?xml version="1.0" encoding="us-ascii" standalone="no"?><svg xmlns="http://www.w3.org/2000/svg" xmlns:xlink="http://www.w3.org/1999/xlink" contentStyleType="text/css" height="918px" preserveAspectRatio="none" style="width:1658px;height:918px;background:#FFFFFF;" version="1.1" viewBox="0 0 1658 918" width="1658px" zoomAndPan="magnify"><defs/><g><rect fill="#FFFFFF" height="724.0234" style="stroke:#181818;stroke-width:1.0;" width="10" x="75" y="93.6211"/><rect fill="#FFFFFF" height="700.7324" style="stroke:#181818;stroke-width:1.0;" width="10" x="421" y="116.9121"/><rect fill="#FFFFFF" height="594.5293" style="stroke:#181818;stroke-width:1.0;" width="10" x="616" y="191.8242"/><rect fill="#FFFFFF" height="93.873" style="stroke:#181818;stroke-width:1.0;" width="10" x="783" y="661.1895"/><rect fill="#FFFFFF" height="31.291" style="stroke:#181818;stroke-width:1.0;" width="10" x="874" y="223.1152"/><rect fill="#FFFFFF" height="31.291" style="stroke:#181818;stroke-width:1.0;" width="10" x="977" y="285.6973"/><rect fill="#FFFFFF" height="31.291" style="stroke:#181818;stroke-width:1.0;" width="10" x="977" y="473.4434"/><rect fill="#FFFFFF" height="93.873" style="stroke:#181818;stroke-width:1.0;" width="10" x="1115" y="348.2793"/><rect fill="#FFFFFF" height="93.873" style="stroke:#181818;stroke-width:1.0;" width="10" x="1288" y="536.0254"/><rect fill="#FFFFFF" height="31.291" style="stroke:#181818;stroke-width:1.0;" width="10" x="1428.5" y="379.5703"/><rect fill="#FFFFFF" height="31.291" style="stroke:#181818;stroke-width:1.0;" width="10" x="1535" y="567.3164"/><rect fill="#FFFFFF" height="31.291" style="stroke:#181818;stroke-width:1.0;" width="10" x="1620" y="692.4805"/><line style="stroke:#181818;stroke-width:0.5;stroke-dasharray:5.0,5.0;" x1="80" x2="80" y1="83.6211" y2="835.6445"/><line style="stroke:#181818;stroke-width:0.5;stroke-dasharray:5.0,5.0;" x1="426" x2="426" y1="83.6211" y2="835.6445"/><line style="stroke:#181818;stroke-width:0.5;stroke-dasharray:5.0,5.0;" x1="621" x2="621" y1="156.7227" y2="835.6445"/><line style="stroke:#181818;stroke-width:0.5;stroke-dasharray:5.0,5.0;" x1="787.5" x2="787.5" y1="83.6211" y2="835.6445"/><line style="stroke:#181818;stroke-width:0.5;stroke-dasharray:5.0,5.0;" x1="878.5" x2="878.5" y1="83.6211" y2="835.6445"/><line style="stroke:#181818;stroke-width:0.5;stroke-dasharray:5.0,5.0;" x1="981.5" x2="981.5" y1="83.6211" y2="835.6445"/><line style="stroke:#181818;stroke-width:0.5;stroke-dasharray:5.0,5.0;" x1="1119.5" x2="1119.5" y1="83.6211" y2="835.6445"/><line style="stroke:#181818;stroke-width:0.5;stroke-dasharray:5.0,5.0;" x1="1292.5" x2="1292.5" y1="83.6211" y2="835.6445"/><line style="stroke:#181818;stroke-width:0.5;stroke-dasharray:5.0,5.0;" x1="1433.5" x2="1433.5" y1="83.6211" y2="835.6445"/><line style="stroke:#181818;stroke-width:0.5;stroke-dasharray:5.0,5.0;" x1="1539.5" x2="1539.5" y1="83.6211" y2="835.6445"/><line style="stroke:#181818;stroke-width:0.5;stroke-dasharray:5.0,5.0;" x1="1624.5" x2="1624.5" y1="83.6211" y2="835.6445"/><text fill="#000000" font-family="sans-serif" font-size="14" lengthAdjust="spacing" textLength="144" x="5" y="80.1074">Green Space Manager</text><ellipse cx="80" cy="13.5" fill="#E3E3E3" rx="8" ry="8" style="stroke:#181818;stroke-width:0.5;"/><path d="M80,21.5 L80,48.5 M67,29.5 L93,29.5 M80,48.5 L67,63.5 M80,48.5 L93,63.5 " fill="none" style="stroke:#181818;stroke-width:0.5;"/><text fill="#000000" font-family="sans-serif" font-size="14" lengthAdjust="spacing" textLength="144" x="5" y="849.752">Green Space Manager</text><ellipse cx="80" cy="861.7656" fill="#E3E3E3" rx="8" ry="8" style="stroke:#181818;stroke-width:0.5;"/><path d="M80,869.7656 L80,896.7656 M67,877.7656 L93,877.7656 M80,896.7656 L67,911.7656 M80,896.7656 L93,911.7656 " fill="none" style="stroke:#181818;stroke-width:0.5;"/><rect fill="#E3E3E3" height="32.6211" rx="2.5" ry="2.5" style="stroke:#181818;stroke-width:0.5;" width="132" x="360" y="50"/><text fill="#000000" font-family="sans-serif" font-size="14" lengthAdjust="spacing" textLength="118" x="367" y="72.1074">:GreenSpaceListUI</text><rect fill="#E3E3E3" height="32.6211" rx="2.5" ry="2.5" style="stroke:#181818;stroke-width:0.5;" width="132" x="360" y="834.6445"/><text fill="#000000" font-family="sans-serif" font-size="14" lengthAdjust="spacing" textLength="118" x="367" y="856.752">:GreenSpaceListUI</text><rect fill="#E3E3E3" height="32.6211" rx="2.5" ry="2.5" style="stroke:#181818;stroke-width:0.5;" width="182" x="530" y="834.6445"/><text fill="#000000" font-family="sans-serif" font-size="14" lengthAdjust="spacing" textLength="168" x="537" y="856.752">:GreenSpaceListController</text><rect fill="#E3E3E3" height="32.6211" rx="2.5" ry="2.5" style="stroke:#181818;stroke-width:0.5;" width="69" x="753.5" y="50"/><text fill="#000000" font-family="sans-serif" font-size="14" lengthAdjust="spacing" textLength="55" x="760.5" y="72.1074">Interface</text><rect fill="#E3E3E3" height="32.6211" rx="2.5" ry="2.5" style="stroke:#181818;stroke-width:0.5;" width="69" x="753.5" y="834.6445"/><text fill="#000000" font-family="sans-serif" font-size="14" lengthAdjust="spacing" textLength="55" x="760.5" y="856.752">Interface</text><rect fill="#E3E3E3" height="32.6211" rx="2.5" ry="2.5" style="stroke:#181818;stroke-width:0.5;" width="93" x="832.5" y="50"/><text fill="#000000" font-family="sans-serif" font-size="14" lengthAdjust="spacing" textLength="79" x="839.5" y="72.1074">Repositories</text><rect fill="#E3E3E3" height="32.6211" rx="2.5" ry="2.5" style="stroke:#181818;stroke-width:0.5;" width="93" x="832.5" y="834.6445"/><text fill="#000000" font-family="sans-serif" font-size="14" lengthAdjust="spacing" textLength="79" x="839.5" y="856.752">Repositories</text><rect fill="#E3E3E3" height="51.2422" rx="2.5" ry="2.5" style="stroke:#181818;stroke-width:0.5;" width="93" x="935.5" y="31.3789"/><text fill="#000000" font-family="sans-serif" font-size="14" lengthAdjust="spacing" textLength="78" x="943" y="53.4863">repositories:</text><text fill="#000000" font-family="sans-serif" font-size="14" lengthAdjust="spacing" textLength="79" x="942.5" y="72.1074">Repositories</text><rect fill="#E3E3E3" height="51.2422" rx="2.5" ry="2.5" style="stroke:#181818;stroke-width:0.5;" width="93" x="935.5" y="834.6445"/><text fill="#000000" font-family="sans-serif" font-size="14" lengthAdjust="spacing" textLength="78" x="943" y="856.752">repositories:</text><text fill="#000000" font-family="sans-serif" font-size="14" lengthAdjust="spacing" textLength="79" x="942.5" y="875.373">Repositories</text><rect fill="#E3E3E3" height="51.2422" rx="2.5" ry="2.5" style="stroke:#181818;stroke-width:0.5;" width="163" x="1038.5" y="31.3789"/><text fill="#000000" font-family="sans-serif" font-size="14" lengthAdjust="spacing" textLength="149" x="1045.5" y="53.4863">organizationRepository:</text><text fill="#000000" font-family="sans-serif" font-size="14" lengthAdjust="spacing" textLength="148" x="1046" y="72.1074">OrganizationRepository</text><rect fill="#E3E3E3" height="51.2422" rx="2.5" ry="2.5" style="stroke:#181818;stroke-width:0.5;" width="163" x="1038.5" y="834.6445"/><text fill="#000000" font-family="sans-serif" font-size="14" lengthAdjust="spacing" textLength="149" x="1045.5" y="856.752">organizationRepository:</text><text fill="#000000" font-family="sans-serif" font-size="14" lengthAdjust="spacing" textLength="148" x="1046" y="875.373">OrganizationRepository</text><rect fill="#E3E3E3" height="51.2422" rx="2.5" ry="2.5" style="stroke:#181818;stroke-width:0.5;" width="163" x="1211.5" y="31.3789"/><text fill="#000000" font-family="sans-serif" font-size="14" lengthAdjust="spacing" textLength="149" x="1218.5" y="53.4863">greenSpaceRepository:</text><text fill="#000000" font-family="sans-serif" font-size="14" lengthAdjust="spacing" textLength="148" x="1219" y="72.1074">GreenSpaceRepository</text><rect fill="#E3E3E3" height="51.2422" rx="2.5" ry="2.5" style="stroke:#181818;stroke-width:0.5;" width="163" x="1211.5" y="834.6445"/><text fill="#000000" font-family="sans-serif" font-size="14" lengthAdjust="spacing" textLength="149" x="1218.5" y="856.752">greenSpaceRepository:</text><text fill="#000000" font-family="sans-serif" font-size="14" lengthAdjust="spacing" textLength="148" x="1219" y="875.373">GreenSpaceRepository</text><rect fill="#E3E3E3" height="51.2422" rx="2.5" ry="2.5" style="stroke:#181818;stroke-width:0.5;" width="98" x="1384.5" y="31.3789"/><text fill="#000000" font-family="sans-serif" font-size="14" lengthAdjust="spacing" textLength="84" x="1391.5" y="53.4863">Organization:</text><text fill="#000000" font-family="sans-serif" font-size="14" lengthAdjust="spacing" textLength="77" x="1395" y="72.1074">organization</text><rect fill="#E3E3E3" height="51.2422" rx="2.5" ry="2.5" style="stroke:#181818;stroke-width:0.5;" width="98" x="1384.5" y="834.6445"/><text fill="#000000" font-family="sans-serif" font-size="14" lengthAdjust="spacing" textLength="84" x="1391.5" y="856.752">Organization:</text><text fill="#000000" font-family="sans-serif" font-size="14" lengthAdjust="spacing" textLength="77" x="1395" y="875.373">organization</text><rect fill="#E3E3E3" height="51.2422" rx="2.5" ry="2.5" style="stroke:#181818;stroke-width:0.5;" width="95" x="1492.5" y="31.3789"/><text fill="#000000" font-family="sans-serif" font-size="14" lengthAdjust="spacing" textLength="81" x="1499.5" y="53.4863">greenSpace:</text><text fill="#000000" font-family="sans-serif" font-size="14" lengthAdjust="spacing" textLength="77" x="1501.5" y="72.1074">greenSpace</text><rect fill="#E3E3E3" height="51.2422" rx="2.5" ry="2.5" style="stroke:#181818;stroke-width:0.5;" width="95" x="1492.5" y="834.6445"/><text fill="#000000" font-family="sans-serif" font-size="14" lengthAdjust="spacing" textLength="81" x="1499.5" y="856.752">greenSpace:</text><text fill="#000000" font-family="sans-serif" font-size="14" lengthAdjust="spacing" textLength="77" x="1501.5" y="875.373">greenSpace</text><rect fill="#E3E3E3" height="32.6211" rx="2.5" ry="2.5" style="stroke:#181818;stroke-width:0.5;" width="55" x="1597.5" y="50"/><text fill="#000000" font-family="sans-serif" font-size="14" lengthAdjust="spacing" textLength="41" x="1604.5" y="72.1074">Config</text><rect fill="#E3E3E3" height="32.6211" rx="2.5" ry="2.5" style="stroke:#181818;stroke-width:0.5;" width="55" x="1597.5" y="834.6445"/><text fill="#000000" font-family="sans-serif" font-size="14" lengthAdjust="spacing" textLength="41" x="1604.5" y="856.752">Config</text><rect fill="#FFFFFF" height="724.0234" style="stroke:#181818;stroke-width:1.0;" width="10" x="75" y="93.6211"/><rect fill="#FFFFFF" height="700.7324" style="stroke:#181818;stroke-width:1.0;" width="10" x="421" y="116.9121"/><rect fill="#FFFFFF" height="594.5293" style="stroke:#181818;stroke-width:1.0;" width="10" x="616" y="191.8242"/><rect fill="#FFFFFF" height="93.873" style="stroke:#181818;stroke-width:1.0;" width="10" x="783" y="661.1895"/><rect fill="#FFFFFF" height="31.291" style="stroke:#181818;stroke-width:1.0;" width="10" x="874" y="223.1152"/><rect fill="#FFFFFF" height="31.291" style="stroke:#181818;stroke-width:1.0;" width="10" x="977" y="285.6973"/><rect fill="#FFFFFF" height="31.291" style="stroke:#181818;stroke-width:1.0;" width="10" x="977" y="473.4434"/><rect fill="#FFFFFF" height="93.873" style="stroke:#181818;stroke-width:1.0;" width="10" x="1115" y="348.2793"/><rect fill="#FFFFFF" height="93.873" style="stroke:#181818;stroke-width:1.0;" width="10" x="1288" y="536.0254"/><rect fill="#FFFFFF" height="31.291" style="stroke:#181818;stroke-width:1.0;" width="10" x="1428.5" y="379.5703"/><rect fill="#FFFFFF" height="31.291" style="stroke:#181818;stroke-width:1.0;" width="10" x="1535" y="567.3164"/><rect fill="#FFFFFF" height="31.291" style="stroke:#181818;stroke-width:1.0;" width="10" x="1620" y="692.4805"/><polygon fill="#181818" points="409,112.9121,419,116.9121,409,120.9121,413,116.9121" style="stroke:#181818;stroke-width:1.0;"/><line style="stroke:#181818;stroke-width:1.0;" x1="85" x2="415" y1="116.9121" y2="116.9121"/><text fill="#000000" font-family="sans-serif" font-size="13" font-weight="bold" lengthAdjust="spacing" textLength="7" x="92" y="111.6494">1</text><text fill="#000000" font-family="sans-serif" font-size="13" lengthAdjust="spacing" textLength="240" x="103" y="111.6494">Request to list all managed green spaces</text><polygon fill="#181818" points="518,144.2031,528,148.2031,518,152.2031,522,148.2031" style="stroke:#181818;stroke-width:1.0;"/><line style="stroke:#181818;stroke-width:1.0;" x1="431" x2="524" y1="148.2031" y2="148.2031"/><text fill="#000000" font-family="sans-serif" font-size="13" font-weight="bold" lengthAdjust="spacing" textLength="7" x="438" y="142.9404">2</text><text fill="#000000" font-family="sans-serif" font-size="13" lengthAdjust="spacing" textLength="36" x="449" y="142.9404">create</text><rect fill="#E3E3E3" height="32.6211" rx="2.5" ry="2.5" style="stroke:#181818;stroke-width:0.5;" width="182" x="530" y="124.9121"/><text fill="#000000" font-family="sans-serif" font-size="14" lengthAdjust="spacing" textLength="168" x="537" y="147.0195">:GreenSpaceListController</text><polygon fill="#181818" points="604,187.8242,614,191.8242,604,195.8242,608,191.8242" style="stroke:#181818;stroke-width:1.0;"/><line style="stroke:#181818;stroke-width:1.0;" x1="431" x2="610" y1="191.8242" y2="191.8242"/><text fill="#000000" font-family="sans-serif" font-size="13" font-weight="bold" lengthAdjust="spacing" textLength="7" x="438" y="186.5615">3</text><text fill="#000000" font-family="sans-serif" font-size="13" lengthAdjust="spacing" textLength="155" x="449" y="186.5615">getGreenSpacesByName()</text><polygon fill="#181818" points="862,219.1152,872,223.1152,862,227.1152,866,223.1152" style="stroke:#181818;stroke-width:1.0;"/><line style="stroke:#181818;stroke-width:1.0;" x1="626" x2="868" y1="223.1152" y2="223.1152"/><text fill="#000000" font-family="sans-serif" font-size="13" font-weight="bold" lengthAdjust="spacing" textLength="7" x="633" y="217.8525">4</text><text fill="#000000" font-family="sans-serif" font-size="13" lengthAdjust="spacing" textLength="75" x="644" y="217.8525">getInstance()</text><polygon fill="#181818" points="637,250.4063,627,254.4063,637,258.4063,633,254.4063" style="stroke:#181818;stroke-width:1.0;"/><line style="stroke:#181818;stroke-width:1.0;stroke-dasharray:2.0,2.0;" x1="631" x2="878" y1="254.4063" y2="254.4063"/><text fill="#000000" font-family="sans-serif" font-size="13" font-weight="bold" lengthAdjust="spacing" textLength="7" x="643" y="249.1436">5</text><text fill="#000000" font-family="sans-serif" font-size="13" lengthAdjust="spacing" textLength="67" x="654" y="249.1436">repositories</text><polygon fill="#181818" points="965,281.6973,975,285.6973,965,289.6973,969,285.6973" style="stroke:#181818;stroke-width:1.0;"/><line style="stroke:#181818;stroke-width:1.0;" x1="626" x2="971" y1="285.6973" y2="285.6973"/><text fill="#000000" font-family="sans-serif" font-size="13" font-weight="bold" lengthAdjust="spacing" textLength="7" x="633" y="280.4346">6</text><text fill="#000000" font-family="sans-serif" font-size="13" lengthAdjust="spacing" textLength="110" x="644" y="280.4346">getManagerName()</text><polygon fill="#181818" points="637,312.9883,627,316.9883,637,320.9883,633,316.9883" style="stroke:#181818;stroke-width:1.0;"/><line style="stroke:#181818;stroke-width:1.0;stroke-dasharray:2.0,2.0;" x1="631" x2="981" y1="316.9883" y2="316.9883"/><text fill="#000000" font-family="sans-serif" font-size="13" font-weight="bold" lengthAdjust="spacing" textLength="7" x="643" y="311.7256">7</text><text fill="#000000" font-family="sans-serif" font-size="13" lengthAdjust="spacing" textLength="84" x="654" y="311.7256">ManagerName</text><polygon fill="#181818" points="1103,344.2793,1113,348.2793,1103,352.2793,1107,348.2793" style="stroke:#181818;stroke-width:1.0;"/><line style="stroke:#181818;stroke-width:1.0;" x1="626" x2="1109" y1="348.2793" y2="348.2793"/><text fill="#000000" font-family="sans-serif" font-size="13" font-weight="bold" lengthAdjust="spacing" textLength="7" x="633" y="343.0166">8</text><text fill="#000000" font-family="sans-serif" font-size="13" lengthAdjust="spacing" textLength="110" x="644" y="343.0166">getManagerName()</text><polygon fill="#181818" points="1416.5,375.5703,1426.5,379.5703,1416.5,383.5703,1420.5,379.5703" style="stroke:#181818;stroke-width:1.0;"/><line style="stroke:#181818;stroke-width:1.0;" x1="1125" x2="1422.5" y1="379.5703" y2="379.5703"/><text fill="#000000" font-family="sans-serif" font-size="13" font-weight="bold" lengthAdjust="spacing" textLength="7" x="1132" y="374.3076">9</text><text fill="#000000" font-family="sans-serif" font-size="13" lengthAdjust="spacing" textLength="110" x="1143" y="374.3076">getManagerName()</text><polygon fill="#181818" points="1136,406.8613,1126,410.8613,1136,414.8613,1132,410.8613" style="stroke:#181818;stroke-width:1.0;"/><line style="stroke:#181818;stroke-width:1.0;stroke-dasharray:2.0,2.0;" x1="1130" x2="1432.5" y1="410.8613" y2="410.8613"/><text fill="#000000" font-family="sans-serif" font-size="13" font-weight="bold" lengthAdjust="spacing" textLength="14" x="1142" y="405.5986">10</text><text fill="#000000" font-family="sans-serif" font-size="13" lengthAdjust="spacing" textLength="84" x="1160" y="405.5986">ManagerName</text><polygon fill="#181818" points="637,438.1523,627,442.1523,637,446.1523,633,442.1523" style="stroke:#181818;stroke-width:1.0;"/><line style="stroke:#181818;stroke-width:1.0;" x1="631" x2="1119" y1="442.1523" y2="442.1523"/><text fill="#000000" font-family="sans-serif" font-size="13" font-weight="bold" lengthAdjust="spacing" textLength="14" x="643" y="436.8896">11</text><text fill="#000000" font-family="sans-serif" font-size="13" lengthAdjust="spacing" textLength="84" x="661" y="436.8896">ManagerName</text><polygon fill="#181818" points="965,469.4434,975,473.4434,965,477.4434,969,473.4434" style="stroke:#181818;stroke-width:1.0;"/><line style="stroke:#181818;stroke-width:1.0;" x1="626" x2="971" y1="473.4434" y2="473.4434"/><text fill="#000000" font-family="sans-serif" font-size="13" font-weight="bold" lengthAdjust="spacing" textLength="14" x="633" y="468.1807">12</text><text fill="#000000" font-family="sans-serif" font-size="13" lengthAdjust="spacing" textLength="105" x="651" y="468.1807">getGreenSpaces()</text><polygon fill="#181818" points="637,500.7344,627,504.7344,637,508.7344,633,504.7344" style="stroke:#181818;stroke-width:1.0;"/><line style="stroke:#181818;stroke-width:1.0;stroke-dasharray:2.0,2.0;" x1="631" x2="981" y1="504.7344" y2="504.7344"/><text fill="#000000" font-family="sans-serif" font-size="13" font-weight="bold" lengthAdjust="spacing" textLength="14" x="643" y="499.4717">13</text><text fill="#000000" font-family="sans-serif" font-size="13" lengthAdjust="spacing" textLength="79" x="661" y="499.4717">GreenSpaces</text><polygon fill="#181818" points="1276,532.0254,1286,536.0254,1276,540.0254,1280,536.0254" style="stroke:#181818;stroke-width:1.0;"/><line style="stroke:#181818;stroke-width:1.0;" x1="626" x2="1282" y1="536.0254" y2="536.0254"/><text fill="#000000" font-family="sans-serif" font-size="13" font-weight="bold" lengthAdjust="spacing" textLength="14" x="633" y="530.7627">14</text><text fill="#000000" font-family="sans-serif" font-size="13" lengthAdjust="spacing" textLength="105" x="651" y="530.7627">getGreenSpaces()</text><polygon fill="#181818" points="1523,563.3164,1533,567.3164,1523,571.3164,1527,567.3164" style="stroke:#181818;stroke-width:1.0;"/><line style="stroke:#181818;stroke-width:1.0;" x1="1298" x2="1529" y1="567.3164" y2="567.3164"/><text fill="#000000" font-family="sans-serif" font-size="13" font-weight="bold" lengthAdjust="spacing" textLength="14" x="1305" y="562.0537">15</text><text fill="#000000" font-family="sans-serif" font-size="13" lengthAdjust="spacing" textLength="98" x="1323" y="562.0537">getGreenSpace()</text><polygon fill="#181818" points="1309,594.6074,1299,598.6074,1309,602.6074,1305,598.6074" style="stroke:#181818;stroke-width:1.0;"/><line style="stroke:#181818;stroke-width:1.0;stroke-dasharray:2.0,2.0;" x1="1303" x2="1539" y1="598.6074" y2="598.6074"/><text fill="#000000" font-family="sans-serif" font-size="13" font-weight="bold" lengthAdjust="spacing" textLength="14" x="1315" y="593.3447">16</text><text fill="#000000" font-family="sans-serif" font-size="13" lengthAdjust="spacing" textLength="69" x="1333" y="593.3447">greenSpace</text><polygon fill="#181818" points="637,625.8984,627,629.8984,637,633.8984,633,629.8984" style="stroke:#181818;stroke-width:1.0;"/><line style="stroke:#181818;stroke-width:1.0;stroke-dasharray:2.0,2.0;" x1="631" x2="1292" y1="629.8984" y2="629.8984"/><text fill="#000000" font-family="sans-serif" font-size="13" font-weight="bold" lengthAdjust="spacing" textLength="14" x="643" y="624.6357">17</text><text fill="#000000" font-family="sans-serif" font-size="13" lengthAdjust="spacing" textLength="76" x="661" y="624.6357">greenSpaces</text><polygon fill="#181818" points="771,657.1895,781,661.1895,771,665.1895,775,661.1895" style="stroke:#181818;stroke-width:1.0;"/><line style="stroke:#181818;stroke-width:1.0;stroke-dasharray:2.0,2.0;" x1="626" x2="777" y1="661.1895" y2="661.1895"/><text fill="#000000" font-family="sans-serif" font-size="13" font-weight="bold" lengthAdjust="spacing" textLength="14" x="633" y="655.9268">18</text><text fill="#000000" font-family="sans-serif" font-size="13" lengthAdjust="spacing" textLength="109" x="651" y="655.9268">sortGreenSpaces()</text><polygon fill="#181818" points="1608,688.4805,1618,692.4805,1608,696.4805,1612,692.4805" style="stroke:#181818;stroke-width:1.0;"/><line style="stroke:#181818;stroke-width:1.0;" x1="793" x2="1614" y1="692.4805" y2="692.4805"/><text fill="#000000" font-family="sans-serif" font-size="13" font-weight="bold" lengthAdjust="spacing" textLength="14" x="800" y="687.2178">19</text><text fill="#000000" font-family="sans-serif" font-size="13" lengthAdjust="spacing" textLength="122" x="818" y="687.2178">getSortingAlgorithm()</text><polygon fill="#181818" points="804,719.7715,794,723.7715,804,727.7715,800,723.7715" style="stroke:#181818;stroke-width:1.0;"/><line style="stroke:#181818;stroke-width:1.0;stroke-dasharray:2.0,2.0;" x1="798" x2="1624" y1="723.7715" y2="723.7715"/><text fill="#000000" font-family="sans-serif" font-size="13" font-weight="bold" lengthAdjust="spacing" textLength="14" x="810" y="718.5088">20</text><text fill="#000000" font-family="sans-serif" font-size="13" lengthAdjust="spacing" textLength="94" x="828" y="718.5088">sortingAlgorithm</text><polygon fill="#181818" points="637,751.0625,627,755.0625,637,759.0625,633,755.0625" style="stroke:#181818;stroke-width:1.0;"/><line style="stroke:#181818;stroke-width:1.0;stroke-dasharray:2.0,2.0;" x1="631" x2="787" y1="755.0625" y2="755.0625"/><text fill="#000000" font-family="sans-serif" font-size="13" font-weight="bold" lengthAdjust="spacing" textLength="14" x="643" y="749.7998">21</text><text fill="#000000" font-family="sans-serif" font-size="13" lengthAdjust="spacing" textLength="115" x="661" y="749.7998">sortedGreenSpaces</text><polygon fill="#181818" points="442,782.3535,432,786.3535,442,790.3535,438,786.3535" style="stroke:#181818;stroke-width:1.0;"/><line style="stroke:#181818;stroke-width:1.0;stroke-dasharray:2.0,2.0;" x1="436" x2="620" y1="786.3535" y2="786.3535"/><text fill="#000000" font-family="sans-serif" font-size="13" font-weight="bold" lengthAdjust="spacing" textLength="14" x="448" y="781.0908">22</text><text fill="#000000" font-family="sans-serif" font-size="13" lengthAdjust="spacing" textLength="126" x="466" y="781.0908">greenSpacesByName</text><polygon fill="#181818" points="91,813.6445,81,817.6445,91,821.6445,87,817.6445" style="stroke:#181818;stroke-width:1.0;"/><line style="stroke:#181818;stroke-width:1.0;stroke-dasharray:2.0,2.0;" x1="85" x2="425" y1="817.6445" y2="817.6445"/><text fill="#000000" font-family="sans-serif" font-size="13" font-weight="bold" lengthAdjust="spacing" textLength="14" x="97" y="812.3818">23</text><text fill="#000000" font-family="sans-serif" font-size="13" lengthAdjust="spacing" textLength="294" x="115" y="812.3818">Retrieve list of green spaces managed by the GSM</text><!--SRC=[hPR1RXiX48RlFCN8bxQH_08-L6fpi2mbhHGtjrxmUhoBiWikuBJkqtTW7HRMi5v5vM3PC7ppCpCmDYz27hdc7NHAgghHgaEm-eJCX9KZhrvuZLjxRX4qLfRBkeqDJCFtwhUGDHnuQv0nVh9AdheTQiO-D6AFS53AxjGVnYkhD2pM6b72biW8ZrmINI-06rXl7nanhQZ4aKiBYvMtz8OFmjZdZJTxtanQtIjfjMhR2_J-nzD3Qh-H5lM1hFrw-9KQFU5H6K5o1HflHnEfXOuiLZzbRaEOI7SgNNCf_d8hrB3jJ8plsGLFoo-bt3h48Q6kCzDzl3CBAJ7sIgHOk2VGH4a2cGy_HkxIFPImWwZxPFclp1MAUEKMVKam-e3bPyexh2YglqveB5W5BIKRUDj2vsje3zuV6EV1C0Oq0eTgna-uGHoYkRgukoDYfP4iSikqMACTP9klvs-ymu-VWctW-oeBqsvu084ej3rd8mtTdIhUdY1SWIKhRhZToq5EN7E9xHxBd4X9sDnBkbo-qQ76gWQFENa3Cj8PWITa5i1lUlCbFrjvuSPSdQ7WXWHGTT_obdXqj-5grGq7MawTg1IlKSoo3ihwvoTZJgpAPHJTaFzRHX7u_MMKU-Lcwyu-aLVwiouIrsE7KsKKlPFPQegeoudp3PI9YbgNhVA7Yfx6sycv7Rq-IGGDRPZ8HkavkHawzvNsWURq-gRIPs1BQFghygMjgM9iqqtbuQqPvN9mOUQKn_Yfq9VmaVOXs0wC-ndteH2K46VVHEjnIsCvVKbBSrtH5HkrOjU4BTstL-nRi3eadJUquzqPRDEty16Qkd5S9MJm3m00]--></g></svg>