<?xml version="1.0" encoding="us-ascii" standalone="no"?><svg xmlns="http://www.w3.org/2000/svg" xmlns:xlink="http://www.w3.org/1999/xlink" contentStyleType="text/css" height="403px" preserveAspectRatio="none" style="width:714px;height:403px;background:#FFFFFF;" version="1.1" viewBox="0 0 714 403" width="714px" zoomAndPan="magnify"><defs/><g><rect fill="#FFFFFF" height="209.0371" style="stroke:#181818;stroke-width:1.0;" width="10" x="75" y="93.6211"/><rect fill="#FFFFFF" height="185.7461" style="stroke:#181818;stroke-width:1.0;" width="10" x="414" y="116.9121"/><rect fill="#FFFFFF" height="79.543" style="stroke:#181818;stroke-width:1.0;" width="10" x="609" y="191.8242"/><line style="stroke:#181818;stroke-width:0.5;stroke-dasharray:5.0,5.0;" x1="80" x2="80" y1="83.6211" y2="320.6582"/><line style="stroke:#181818;stroke-width:0.5;stroke-dasharray:5.0,5.0;" x1="419" x2="419" y1="83.6211" y2="320.6582"/><line style="stroke:#181818;stroke-width:0.5;stroke-dasharray:5.0,5.0;" x1="614" x2="614" y1="156.7227" y2="320.6582"/><text fill="#000000" font-family="sans-serif" font-size="14" lengthAdjust="spacing" textLength="144" x="5" y="80.1074">Green Space Manager</text><ellipse cx="80" cy="13.5" fill="#E3E3E3" rx="8" ry="8" style="stroke:#181818;stroke-width:0.5;"/><path d="M80,21.5 L80,48.5 M67,29.5 L93,29.5 M80,48.5 L67,63.5 M80,48.5 L93,63.5 " fill="none" style="stroke:#181818;stroke-width:0.5;"/><text fill="#000000" font-family="sans-serif" font-size="14" lengthAdjust="spacing" textLength="144" x="5" y="334.7656">Green Space Manager</text><ellipse cx="80" cy="346.7793" fill="#E3E3E3" rx="8" ry="8" style="stroke:#181818;stroke-width:0.5;"/><path d="M80,354.7793 L80,381.7793 M67,362.7793 L93,362.7793 M80,381.7793 L67,396.7793 M80,381.7793 L93,396.7793 " fill="none" style="stroke:#181818;stroke-width:0.5;"/><rect fill="#E3E3E3" height="32.6211" rx="2.5" ry="2.5" style="stroke:#181818;stroke-width:0.5;" width="132" x="353" y="50"/><text fill="#000000" font-family="sans-serif" font-size="14" lengthAdjust="spacing" textLength="118" x="360" y="72.1074">:GreenSpaceListUI</text><rect fill="#E3E3E3" height="32.6211" rx="2.5" ry="2.5" style="stroke:#181818;stroke-width:0.5;" width="132" x="353" y="319.6582"/><text fill="#000000" font-family="sans-serif" font-size="14" lengthAdjust="spacing" textLength="118" x="360" y="341.7656">:GreenSpaceListUI</text><rect fill="#E3E3E3" height="32.6211" rx="2.5" ry="2.5" style="stroke:#181818;stroke-width:0.5;" width="182" x="523" y="319.6582"/><text fill="#000000" font-family="sans-serif" font-size="14" lengthAdjust="spacing" textLength="168" x="530" y="341.7656">:GreenSpaceListController</text><rect fill="#FFFFFF" height="209.0371" style="stroke:#181818;stroke-width:1.0;" width="10" x="75" y="93.6211"/><rect fill="#FFFFFF" height="185.7461" style="stroke:#181818;stroke-width:1.0;" width="10" x="414" y="116.9121"/><rect fill="#FFFFFF" height="79.543" style="stroke:#181818;stroke-width:1.0;" width="10" x="609" y="191.8242"/><polygon fill="#181818" points="402,112.9121,412,116.9121,402,120.9121,406,116.9121" style="stroke:#181818;stroke-width:1.0;"/><line style="stroke:#181818;stroke-width:1.0;" x1="85" x2="408" y1="116.9121" y2="116.9121"/><text fill="#000000" font-family="sans-serif" font-size="13" font-weight="bold" lengthAdjust="spacing" textLength="7" x="92" y="111.6494">1</text><text fill="#000000" font-family="sans-serif" font-size="13" lengthAdjust="spacing" textLength="240" x="103" y="111.6494">Request to list all managed green spaces</text><polygon fill="#181818" points="511,144.2031,521,148.2031,511,152.2031,515,148.2031" style="stroke:#181818;stroke-width:1.0;"/><line style="stroke:#181818;stroke-width:1.0;" x1="424" x2="517" y1="148.2031" y2="148.2031"/><text fill="#000000" font-family="sans-serif" font-size="13" font-weight="bold" lengthAdjust="spacing" textLength="7" x="431" y="142.9404">2</text><text fill="#000000" font-family="sans-serif" font-size="13" lengthAdjust="spacing" textLength="36" x="442" y="142.9404">create</text><rect fill="#E3E3E3" height="32.6211" rx="2.5" ry="2.5" style="stroke:#181818;stroke-width:0.5;" width="182" x="523" y="124.9121"/><text fill="#000000" font-family="sans-serif" font-size="14" lengthAdjust="spacing" textLength="168" x="530" y="147.0195">:GreenSpaceListController</text><polygon fill="#181818" points="597,187.8242,607,191.8242,597,195.8242,601,191.8242" style="stroke:#181818;stroke-width:1.0;"/><line style="stroke:#181818;stroke-width:1.0;" x1="424" x2="603" y1="191.8242" y2="191.8242"/><text fill="#000000" font-family="sans-serif" font-size="13" font-weight="bold" lengthAdjust="spacing" textLength="7" x="431" y="186.5615">3</text><text fill="#000000" font-family="sans-serif" font-size="13" lengthAdjust="spacing" textLength="155" x="442" y="186.5615">getGreenSpacesByName()</text><rect fill="none" height="43.252" style="stroke:#000000;stroke-width:1.5;" width="188" x="520" y="199.8242"/><path d="M520,199.8242 L582,199.8242 L582,208.8242 L572,218.8242 L520,218.8242 L520,199.8242 " fill="#EEEEEE" style="stroke:#000000;stroke-width:2.0;"/><text fill="#000000" font-family="sans-serif" font-size="13" font-weight="bold" lengthAdjust="spacing" textLength="17" x="533" y="215.8525">ref</text><text fill="#000000" font-family="sans-serif" font-size="12" lengthAdjust="spacing" textLength="148" x="540" y="235.7734">Get GreenSpaces by name</text><polygon fill="#181818" points="435,267.3672,425,271.3672,435,275.3672,431,271.3672" style="stroke:#181818;stroke-width:1.0;"/><line style="stroke:#181818;stroke-width:1.0;stroke-dasharray:2.0,2.0;" x1="429" x2="613" y1="271.3672" y2="271.3672"/><text fill="#000000" font-family="sans-serif" font-size="13" font-weight="bold" lengthAdjust="spacing" textLength="7" x="441" y="266.1045">4</text><text fill="#000000" font-family="sans-serif" font-size="13" lengthAdjust="spacing" textLength="126" x="452" y="266.1045">greenSpacesByName</text><polygon fill="#181818" points="91,298.6582,81,302.6582,91,306.6582,87,302.6582" style="stroke:#181818;stroke-width:1.0;"/><line style="stroke:#181818;stroke-width:1.0;stroke-dasharray:2.0,2.0;" x1="85" x2="418" y1="302.6582" y2="302.6582"/><text fill="#000000" font-family="sans-serif" font-size="13" font-weight="bold" lengthAdjust="spacing" textLength="7" x="97" y="297.3955">5</text><text fill="#000000" font-family="sans-serif" font-size="13" lengthAdjust="spacing" textLength="294" x="108" y="297.3955">Retrieve list of green spaces managed by the GSM</text><!--SRC=[VP71Ri8m38RlUGgBopOaNe333kE0a803Z0SmhTj6f35BN3RUVawwTGLjyo5IuZ-V__o99-lF6B25bZqNJU2MG4979WwTCnOdh6alLqSGg13qjHiBOeCblrjVGuKkaZ7O2VkkFL8mvg6n9K75B4V-C5W81vWi0v67lP89DkYL7YQ04PRxZL6csCAUqGjCvbcPXMiRvR3AiiFgNzM2lGHsxWkwUDsjJPfiBoYKPnXTOFQi89Z3ZjuwYWB2uFGse7FGPbCbrDbeJEHe36WD73MH3r8fHsbfq7Ign2AGAdvhQxCc-R4RNwvRREdnQT0E_DusZ2fG1NoXqBVWhfOaC0B3yGfUqJSwykKjCdkQVITHt_iQj2NzuIizJQ-dF5EI4YnTgC-HgvluXapLc3JzFzoXDTBHBWa-0G00]--></g></svg>