<?xml version="1.0" encoding="us-ascii" standalone="no"?><svg xmlns="http://www.w3.org/2000/svg" xmlns:xlink="http://www.w3.org/1999/xlink" contentStyleType="text/css" height="613px" preserveAspectRatio="none" style="width:1264px;height:613px;background:#FFFFFF;" version="1.1" viewBox="0 0 1264 613" width="1264px" zoomAndPan="magnify"><defs/><g><!--class GreenSpaceListUI--><g id="elem_GreenSpaceListUI"><rect codeLine="11" fill="#F1F1F1" height="159.7266" id="GreenSpaceListUI" rx="2.5" ry="2.5" style="stroke:#181818;stroke-width:0.5;" width="354" x="7" y="7"/><ellipse cx="122.75" cy="23" fill="#ADD1B2" rx="11" ry="11" style="stroke:#181818;stroke-width:1.0;"/><path d="M125.5156,18.875 Q125.6719,18.6563 125.8594,18.5469 Q126.0469,18.4375 126.2656,18.4375 Q126.6406,18.4375 126.875,18.7031 Q127.1094,18.9531 127.1094,19.5625 L127.1094,21.0156 Q127.1094,21.625 126.875,21.8906 Q126.6406,22.1563 126.2656,22.1563 Q125.9219,22.1563 125.7188,21.9531 Q125.5156,21.7656 125.4063,21.25 Q125.3594,20.8906 125.1719,20.7031 Q124.8438,20.3281 124.2344,20.1094 Q123.625,19.8906 123,19.8906 Q122.2344,19.8906 121.5938,20.2188 Q120.9688,20.5469 120.4688,21.2969 Q119.9844,22.0469 119.9844,23.0781 L119.9844,24.1719 Q119.9844,25.4063 120.875,26.2344 Q121.7656,27.0469 123.3594,27.0469 Q124.2969,27.0469 124.9531,26.7969 Q125.3438,26.6406 125.7656,26.2031 Q126.0313,25.9375 126.1719,25.8594 Q126.3281,25.7813 126.5313,25.7813 Q126.8594,25.7813 127.1094,26.0469 Q127.375,26.2969 127.375,26.6406 Q127.375,26.9844 127.0313,27.3906 Q126.5313,27.9688 125.7344,28.2969 Q124.6563,28.75 123.3594,28.75 Q121.8438,28.75 120.6406,28.125 Q119.6563,27.625 118.9688,26.5625 Q118.2813,25.4844 118.2813,24.2031 L118.2813,23.0469 Q118.2813,21.7188 118.8906,20.5781 Q119.5156,19.4219 120.6094,18.8125 Q121.7031,18.1875 122.9375,18.1875 Q123.6719,18.1875 124.3125,18.3594 Q124.9688,18.5156 125.5156,18.875 Z " fill="#000000"/><text fill="#000000" font-family="sans-serif" font-size="14" lengthAdjust="spacing" textLength="114" x="143.25" y="28.7969">GreenSpaceListUI</text><line style="stroke:#181818;stroke-width:0.5;" x1="8" x2="360" y1="39" y2="39"/><text fill="#000000" font-family="sans-serif" font-size="14" lengthAdjust="spacing" textLength="142" x="13" y="58.1074">-managerName: String</text><text fill="#000000" font-family="sans-serif" font-size="14" lengthAdjust="spacing" textLength="306" x="13" y="76.7285">-greenSpaceRepository: GreenSpaceRepository</text><text fill="#000000" font-family="sans-serif" font-size="14" lengthAdjust="spacing" textLength="342" x="13" y="95.3496">-greenSpaceListController: GreenSpaceListController;</text><line style="stroke:#181818;stroke-width:0.5;" x1="8" x2="360" y1="102.8633" y2="102.8633"/><text fill="#000000" font-family="sans-serif" font-size="14" lengthAdjust="spacing" textLength="132" x="13" y="121.9707">+GreenSpaceListUI()</text><text fill="#000000" font-family="sans-serif" font-size="14" lengthAdjust="spacing" textLength="119" x="13" y="140.5918">-listGreenSpaces()</text><text fill="#000000" font-family="sans-serif" font-size="14" lengthAdjust="spacing" textLength="126" x="13" y="159.2129">-sortGreenSpaces()</text></g><!--class GreenSpaceListController--><g id="elem_GreenSpaceListController"><rect codeLine="20" fill="#F1F1F1" height="159.7266" id="GreenSpaceListController" rx="2.5" ry="2.5" style="stroke:#181818;stroke-width:0.5;" width="331" x="396.5" y="7"/><ellipse cx="475.75" cy="23" fill="#ADD1B2" rx="11" ry="11" style="stroke:#181818;stroke-width:1.0;"/><path d="M478.5156,18.875 Q478.6719,18.6563 478.8594,18.5469 Q479.0469,18.4375 479.2656,18.4375 Q479.6406,18.4375 479.875,18.7031 Q480.1094,18.9531 480.1094,19.5625 L480.1094,21.0156 Q480.1094,21.625 479.875,21.8906 Q479.6406,22.1563 479.2656,22.1563 Q478.9219,22.1563 478.7188,21.9531 Q478.5156,21.7656 478.4063,21.25 Q478.3594,20.8906 478.1719,20.7031 Q477.8438,20.3281 477.2344,20.1094 Q476.625,19.8906 476,19.8906 Q475.2344,19.8906 474.5938,20.2188 Q473.9688,20.5469 473.4688,21.2969 Q472.9844,22.0469 472.9844,23.0781 L472.9844,24.1719 Q472.9844,25.4063 473.875,26.2344 Q474.7656,27.0469 476.3594,27.0469 Q477.2969,27.0469 477.9531,26.7969 Q478.3438,26.6406 478.7656,26.2031 Q479.0313,25.9375 479.1719,25.8594 Q479.3281,25.7813 479.5313,25.7813 Q479.8594,25.7813 480.1094,26.0469 Q480.375,26.2969 480.375,26.6406 Q480.375,26.9844 480.0313,27.3906 Q479.5313,27.9688 478.7344,28.2969 Q477.6563,28.75 476.3594,28.75 Q474.8438,28.75 473.6406,28.125 Q472.6563,27.625 471.9688,26.5625 Q471.2813,25.4844 471.2813,24.2031 L471.2813,23.0469 Q471.2813,21.7188 471.8906,20.5781 Q472.5156,19.4219 473.6094,18.8125 Q474.7031,18.1875 475.9375,18.1875 Q476.6719,18.1875 477.3125,18.3594 Q477.9688,18.5156 478.5156,18.875 Z " fill="#000000"/><text fill="#000000" font-family="sans-serif" font-size="14" lengthAdjust="spacing" textLength="164" x="496.25" y="28.7969">GreenSpaceListController</text><line style="stroke:#181818;stroke-width:0.5;" x1="397.5" x2="726.5" y1="39" y2="39"/><text fill="#000000" font-family="sans-serif" font-size="14" lengthAdjust="spacing" textLength="306" x="402.5" y="58.1074">-greenSpaceRepository: GreenSpaceRepository</text><text fill="#000000" font-family="sans-serif" font-size="14" lengthAdjust="spacing" textLength="170" x="402.5" y="76.7285">-organization: Organization</text><text fill="#000000" font-family="sans-serif" font-size="14" lengthAdjust="spacing" textLength="166" x="402.5" y="95.3496">-repositories: Repositories</text><line style="stroke:#181818;stroke-width:0.5;" x1="397.5" x2="726.5" y1="102.8633" y2="102.8633"/><text fill="#000000" font-family="sans-serif" font-size="14" lengthAdjust="spacing" textLength="319" x="402.5" y="121.9707">+GreenSpaceListController(managerName: String)</text><text fill="#000000" font-family="sans-serif" font-size="14" lengthAdjust="spacing" textLength="183" x="402.5" y="140.5918">-getGreenSpaceRepository()</text><text fill="#000000" font-family="sans-serif" font-size="14" lengthAdjust="spacing" textLength="139" x="402.5" y="159.2129">-getSortingAlgorithm()</text></g><!--class Organization--><g id="elem_Organization"><rect codeLine="29" fill="#F1F1F1" height="85.2422" id="Organization" rx="2.5" ry="2.5" style="stroke:#181818;stroke-width:0.5;" width="234" x="445" y="246"/><ellipse cx="517.75" cy="262" fill="#ADD1B2" rx="11" ry="11" style="stroke:#181818;stroke-width:1.0;"/><path d="M520.5156,257.875 Q520.6719,257.6563 520.8594,257.5469 Q521.0469,257.4375 521.2656,257.4375 Q521.6406,257.4375 521.875,257.7031 Q522.1094,257.9531 522.1094,258.5625 L522.1094,260.0156 Q522.1094,260.625 521.875,260.8906 Q521.6406,261.1563 521.2656,261.1563 Q520.9219,261.1563 520.7188,260.9531 Q520.5156,260.7656 520.4063,260.25 Q520.3594,259.8906 520.1719,259.7031 Q519.8438,259.3281 519.2344,259.1094 Q518.625,258.8906 518,258.8906 Q517.2344,258.8906 516.5938,259.2188 Q515.9688,259.5469 515.4688,260.2969 Q514.9844,261.0469 514.9844,262.0781 L514.9844,263.1719 Q514.9844,264.4063 515.875,265.2344 Q516.7656,266.0469 518.3594,266.0469 Q519.2969,266.0469 519.9531,265.7969 Q520.3438,265.6406 520.7656,265.2031 Q521.0313,264.9375 521.1719,264.8594 Q521.3281,264.7813 521.5313,264.7813 Q521.8594,264.7813 522.1094,265.0469 Q522.375,265.2969 522.375,265.6406 Q522.375,265.9844 522.0313,266.3906 Q521.5313,266.9688 520.7344,267.2969 Q519.6563,267.75 518.3594,267.75 Q516.8438,267.75 515.6406,267.125 Q514.6563,266.625 513.9688,265.5625 Q513.2813,264.4844 513.2813,263.2031 L513.2813,262.0469 Q513.2813,260.7188 513.8906,259.5781 Q514.5156,258.4219 515.6094,257.8125 Q516.7031,257.1875 517.9375,257.1875 Q518.6719,257.1875 519.3125,257.3594 Q519.9688,257.5156 520.5156,257.875 Z " fill="#000000"/><text fill="#000000" font-family="sans-serif" font-size="14" lengthAdjust="spacing" textLength="80" x="538.25" y="267.7969">Organization</text><line style="stroke:#181818;stroke-width:0.5;" x1="446" x2="678" y1="278" y2="278"/><text fill="#000000" font-family="sans-serif" font-size="14" lengthAdjust="spacing" textLength="114" x="451" y="297.1074">-userName: String</text><text fill="#000000" font-family="sans-serif" font-size="14" lengthAdjust="spacing" textLength="222" x="451" y="315.7285">-GreenSpaces : List&lt;GreenSpace&gt;</text><line style="stroke:#181818;stroke-width:0.5;" x1="446" x2="678" y1="323.2422" y2="323.2422"/></g><!--class GreenSpace--><g id="elem_GreenSpace"><rect codeLine="34" fill="#F1F1F1" height="196.9688" id="GreenSpace" rx="2.5" ry="2.5" style="stroke:#181818;stroke-width:0.5;" width="489" x="317.5" y="410"/><ellipse cx="517.75" cy="426" fill="#ADD1B2" rx="11" ry="11" style="stroke:#181818;stroke-width:1.0;"/><path d="M520.5156,421.875 Q520.6719,421.6563 520.8594,421.5469 Q521.0469,421.4375 521.2656,421.4375 Q521.6406,421.4375 521.875,421.7031 Q522.1094,421.9531 522.1094,422.5625 L522.1094,424.0156 Q522.1094,424.625 521.875,424.8906 Q521.6406,425.1563 521.2656,425.1563 Q520.9219,425.1563 520.7188,424.9531 Q520.5156,424.7656 520.4063,424.25 Q520.3594,423.8906 520.1719,423.7031 Q519.8438,423.3281 519.2344,423.1094 Q518.625,422.8906 518,422.8906 Q517.2344,422.8906 516.5938,423.2188 Q515.9688,423.5469 515.4688,424.2969 Q514.9844,425.0469 514.9844,426.0781 L514.9844,427.1719 Q514.9844,428.4063 515.875,429.2344 Q516.7656,430.0469 518.3594,430.0469 Q519.2969,430.0469 519.9531,429.7969 Q520.3438,429.6406 520.7656,429.2031 Q521.0313,428.9375 521.1719,428.8594 Q521.3281,428.7813 521.5313,428.7813 Q521.8594,428.7813 522.1094,429.0469 Q522.375,429.2969 522.375,429.6406 Q522.375,429.9844 522.0313,430.3906 Q521.5313,430.9688 520.7344,431.2969 Q519.6563,431.75 518.3594,431.75 Q516.8438,431.75 515.6406,431.125 Q514.6563,430.625 513.9688,429.5625 Q513.2813,428.4844 513.2813,427.2031 L513.2813,426.0469 Q513.2813,424.7188 513.8906,423.5781 Q514.5156,422.4219 515.6094,421.8125 Q516.7031,421.1875 517.9375,421.1875 Q518.6719,421.1875 519.3125,421.3594 Q519.9688,421.5156 520.5156,421.875 Z " fill="#000000"/><text fill="#000000" font-family="sans-serif" font-size="14" lengthAdjust="spacing" textLength="80" x="538.25" y="431.7969">GreenSpace</text><line style="stroke:#181818;stroke-width:0.5;" x1="318.5" x2="805.5" y1="442" y2="442"/><text fill="#000000" font-family="sans-serif" font-size="14" lengthAdjust="spacing" textLength="85" x="323.5" y="461.1074">-name: String</text><text fill="#000000" font-family="sans-serif" font-size="14" lengthAdjust="spacing" textLength="85" x="323.5" y="479.7285">-area: double</text><text fill="#000000" font-family="sans-serif" font-size="14" lengthAdjust="spacing" textLength="63" x="323.5" y="498.3496">-size: Size</text><text fill="#000000" font-family="sans-serif" font-size="14" lengthAdjust="spacing" textLength="142" x="323.5" y="516.9707">-managerName: String</text><line style="stroke:#181818;stroke-width:0.5;" x1="318.5" x2="805.5" y1="524.4844" y2="524.4844"/><text fill="#000000" font-family="sans-serif" font-size="14" lengthAdjust="spacing" textLength="477" x="323.5" y="543.5918">+GreenSpace(name: String, area: double, size: Size, managerName: String)</text><text fill="#000000" font-family="sans-serif" font-size="14" lengthAdjust="spacing" textLength="74" x="323.5" y="562.2129">+getName()</text><text fill="#000000" font-family="sans-serif" font-size="14" lengthAdjust="spacing" textLength="130" x="323.5" y="580.834">+getManagerName()</text><text fill="#000000" font-family="sans-serif" font-size="14" lengthAdjust="spacing" textLength="68" x="323.5" y="599.4551">+getArea()</text></g><!--class Repositories--><g id="elem_Repositories"><rect codeLine="45" fill="#F1F1F1" height="122.4844" id="Repositories" rx="2.5" ry="2.5" style="stroke:#181818;stroke-width:0.5;" width="198" x="831" y="26"/><ellipse cx="886.25" cy="42" fill="#ADD1B2" rx="11" ry="11" style="stroke:#181818;stroke-width:1.0;"/><path d="M889.0156,37.875 Q889.1719,37.6563 889.3594,37.5469 Q889.5469,37.4375 889.7656,37.4375 Q890.1406,37.4375 890.375,37.7031 Q890.6094,37.9531 890.6094,38.5625 L890.6094,40.0156 Q890.6094,40.625 890.375,40.8906 Q890.1406,41.1563 889.7656,41.1563 Q889.4219,41.1563 889.2188,40.9531 Q889.0156,40.7656 888.9063,40.25 Q888.8594,39.8906 888.6719,39.7031 Q888.3438,39.3281 887.7344,39.1094 Q887.125,38.8906 886.5,38.8906 Q885.7344,38.8906 885.0938,39.2188 Q884.4688,39.5469 883.9688,40.2969 Q883.4844,41.0469 883.4844,42.0781 L883.4844,43.1719 Q883.4844,44.4063 884.375,45.2344 Q885.2656,46.0469 886.8594,46.0469 Q887.7969,46.0469 888.4531,45.7969 Q888.8438,45.6406 889.2656,45.2031 Q889.5313,44.9375 889.6719,44.8594 Q889.8281,44.7813 890.0313,44.7813 Q890.3594,44.7813 890.6094,45.0469 Q890.875,45.2969 890.875,45.6406 Q890.875,45.9844 890.5313,46.3906 Q890.0313,46.9688 889.2344,47.2969 Q888.1563,47.75 886.8594,47.75 Q885.3438,47.75 884.1406,47.125 Q883.1563,46.625 882.4688,45.5625 Q881.7813,44.4844 881.7813,43.2031 L881.7813,42.0469 Q881.7813,40.7188 882.3906,39.5781 Q883.0156,38.4219 884.1094,37.8125 Q885.2031,37.1875 886.4375,37.1875 Q887.1719,37.1875 887.8125,37.3594 Q888.4688,37.5156 889.0156,37.875 Z " fill="#000000"/><text fill="#000000" font-family="sans-serif" font-size="14" lengthAdjust="spacing" textLength="79" x="906.75" y="47.7969">Repositories</text><line style="stroke:#181818;stroke-width:0.5;" x1="832" x2="1028" y1="58" y2="58"/><line style="stroke:#181818;stroke-width:0.5;" x1="832" x2="1028" y1="66" y2="66"/><text fill="#000000" font-family="sans-serif" font-size="14" lengthAdjust="spacing" textLength="94" x="837" y="85.1074">-Repositories()</text><text fill="#000000" font-family="sans-serif" font-size="14" lengthAdjust="spacing" textLength="182" x="837" y="103.7285">+getInstance() : Repositories</text><text fill="#000000" font-family="sans-serif" font-size="14" lengthAdjust="spacing" textLength="186" x="837" y="122.3496">+getGreenSpaceRepository()</text><text fill="#000000" font-family="sans-serif" font-size="14" lengthAdjust="spacing" textLength="186" x="837" y="140.9707">+getOrganizationRepository()</text></g><!--class GreenSpaceRepository--><g id="elem_GreenSpaceRepository"><rect codeLine="52" fill="#F1F1F1" height="85.2422" id="GreenSpaceRepository" rx="2.5" ry="2.5" style="stroke:#181818;stroke-width:0.5;" width="267" x="990.5" y="246"/><ellipse cx="1045.75" cy="262" fill="#ADD1B2" rx="11" ry="11" style="stroke:#181818;stroke-width:1.0;"/><path d="M1048.5156,257.875 Q1048.6719,257.6563 1048.8594,257.5469 Q1049.0469,257.4375 1049.2656,257.4375 Q1049.6406,257.4375 1049.875,257.7031 Q1050.1094,257.9531 1050.1094,258.5625 L1050.1094,260.0156 Q1050.1094,260.625 1049.875,260.8906 Q1049.6406,261.1563 1049.2656,261.1563 Q1048.9219,261.1563 1048.7188,260.9531 Q1048.5156,260.7656 1048.4063,260.25 Q1048.3594,259.8906 1048.1719,259.7031 Q1047.8438,259.3281 1047.2344,259.1094 Q1046.625,258.8906 1046,258.8906 Q1045.2344,258.8906 1044.5938,259.2188 Q1043.9688,259.5469 1043.4688,260.2969 Q1042.9844,261.0469 1042.9844,262.0781 L1042.9844,263.1719 Q1042.9844,264.4063 1043.875,265.2344 Q1044.7656,266.0469 1046.3594,266.0469 Q1047.2969,266.0469 1047.9531,265.7969 Q1048.3438,265.6406 1048.7656,265.2031 Q1049.0313,264.9375 1049.1719,264.8594 Q1049.3281,264.7813 1049.5313,264.7813 Q1049.8594,264.7813 1050.1094,265.0469 Q1050.375,265.2969 1050.375,265.6406 Q1050.375,265.9844 1050.0313,266.3906 Q1049.5313,266.9688 1048.7344,267.2969 Q1047.6563,267.75 1046.3594,267.75 Q1044.8438,267.75 1043.6406,267.125 Q1042.6563,266.625 1041.9688,265.5625 Q1041.2813,264.4844 1041.2813,263.2031 L1041.2813,262.0469 Q1041.2813,260.7188 1041.8906,259.5781 Q1042.5156,258.4219 1043.6094,257.8125 Q1044.7031,257.1875 1045.9375,257.1875 Q1046.6719,257.1875 1047.3125,257.3594 Q1047.9688,257.5156 1048.5156,257.875 Z " fill="#000000"/><text fill="#000000" font-family="sans-serif" font-size="14" lengthAdjust="spacing" textLength="148" x="1066.25" y="267.7969">GreenSpaceRepository</text><line style="stroke:#181818;stroke-width:0.5;" x1="991.5" x2="1256.5" y1="278" y2="278"/><text fill="#000000" font-family="sans-serif" font-size="14" lengthAdjust="spacing" textLength="222" x="996.5" y="297.1074">-GreenSpaces : List&lt;GreenSpace&gt;</text><line style="stroke:#181818;stroke-width:0.5;" x1="991.5" x2="1256.5" y1="304.6211" y2="304.6211"/><text fill="#000000" font-family="sans-serif" font-size="14" lengthAdjust="spacing" textLength="255" x="996.5" y="323.7285">+getGreenSpaces() : List&lt;GreenSpace&gt;</text></g><!--class OrganizationRepository--><g id="elem_OrganizationRepository"><rect codeLine="57" fill="#F1F1F1" height="66.6211" id="OrganizationRepository" rx="2.5" ry="2.5" style="stroke:#181818;stroke-width:0.5;" width="180" x="775" y="255"/><ellipse cx="790" cy="271" fill="#ADD1B2" rx="11" ry="11" style="stroke:#181818;stroke-width:1.0;"/><path d="M792.7656,266.875 Q792.9219,266.6563 793.1094,266.5469 Q793.2969,266.4375 793.5156,266.4375 Q793.8906,266.4375 794.125,266.7031 Q794.3594,266.9531 794.3594,267.5625 L794.3594,269.0156 Q794.3594,269.625 794.125,269.8906 Q793.8906,270.1563 793.5156,270.1563 Q793.1719,270.1563 792.9688,269.9531 Q792.7656,269.7656 792.6563,269.25 Q792.6094,268.8906 792.4219,268.7031 Q792.0938,268.3281 791.4844,268.1094 Q790.875,267.8906 790.25,267.8906 Q789.4844,267.8906 788.8438,268.2188 Q788.2188,268.5469 787.7188,269.2969 Q787.2344,270.0469 787.2344,271.0781 L787.2344,272.1719 Q787.2344,273.4063 788.125,274.2344 Q789.0156,275.0469 790.6094,275.0469 Q791.5469,275.0469 792.2031,274.7969 Q792.5938,274.6406 793.0156,274.2031 Q793.2813,273.9375 793.4219,273.8594 Q793.5781,273.7813 793.7813,273.7813 Q794.1094,273.7813 794.3594,274.0469 Q794.625,274.2969 794.625,274.6406 Q794.625,274.9844 794.2813,275.3906 Q793.7813,275.9688 792.9844,276.2969 Q791.9063,276.75 790.6094,276.75 Q789.0938,276.75 787.8906,276.125 Q786.9063,275.625 786.2188,274.5625 Q785.5313,273.4844 785.5313,272.2031 L785.5313,271.0469 Q785.5313,269.7188 786.1406,268.5781 Q786.7656,267.4219 787.8594,266.8125 Q788.9531,266.1875 790.1875,266.1875 Q790.9219,266.1875 791.5625,266.3594 Q792.2188,266.5156 792.7656,266.875 Z " fill="#000000"/><text fill="#000000" font-family="sans-serif" font-size="14" lengthAdjust="spacing" textLength="148" x="804" y="276.7969">OrganizationRepository</text><line style="stroke:#181818;stroke-width:0.5;" x1="776" x2="954" y1="287" y2="287"/><line style="stroke:#181818;stroke-width:0.5;" x1="776" x2="954" y1="295" y2="295"/><text fill="#000000" font-family="sans-serif" font-size="14" lengthAdjust="spacing" textLength="103" x="781" y="314.1074">+getUserName()</text></g><!--link GreenSpaceListUI to GreenSpaceListController--><g id="link_GreenSpaceListUI_GreenSpaceListController"><path codeLine="62" d="M361.25,87 C372.97,87 379.25,87 390.39,87 " fill="none" id="GreenSpaceListUI-to-GreenSpaceListController" style="stroke:#181818;stroke-width:1.0;stroke-dasharray:7.0,7.0;"/><polygon fill="#181818" points="396.39,87,387.39,83,391.39,87,387.39,91,396.39,87" style="stroke:#181818;stroke-width:1.0;"/></g><!--link GreenSpaceListController to Organization--><g id="link_GreenSpaceListController_Organization"><path codeLine="63" d="M562,167.13 C562,194 562,216.96 562,239.74 " fill="none" id="GreenSpaceListController-to-Organization" style="stroke:#181818;stroke-width:1.0;stroke-dasharray:7.0,7.0;"/><polygon fill="#181818" points="562,245.74,566,236.74,562,240.74,558,236.74,562,245.74" style="stroke:#181818;stroke-width:1.0;"/></g><!--link Organization to GreenSpace--><g id="link_Organization_GreenSpace"><path codeLine="64" d="M562,331.02 C562,353.38 562,375.98 562,403.63 " fill="none" id="Organization-to-GreenSpace" style="stroke:#181818;stroke-width:1.0;"/><polygon fill="#181818" points="562,409.63,566,400.63,562,404.63,558,400.63,562,409.63" style="stroke:#181818;stroke-width:1.0;"/><text fill="#000000" font-family="sans-serif" font-size="13" lengthAdjust="spacing" textLength="69" x="563" y="376.0283">greenSpace</text><text fill="#000000" font-family="sans-serif" font-size="13" lengthAdjust="spacing" textLength="7" x="554.4422" y="353.1835">1</text><text fill="#000000" font-family="sans-serif" font-size="13" lengthAdjust="spacing" textLength="20" x="541.2656" y="398.7852">1..*</text></g><!--link GreenSpaceListController to Repositories--><g id="link_GreenSpaceListController_Repositories"><path codeLine="65" d="M727.7,87 C762.9,87 793,87 824.78,87 " fill="none" id="GreenSpaceListController-to-Repositories" style="stroke:#181818;stroke-width:1.0;stroke-dasharray:7.0,7.0;"/><polygon fill="#181818" points="830.78,87,821.78,83,825.78,87,821.78,91,830.78,87" style="stroke:#181818;stroke-width:1.0;"/><text fill="#000000" font-family="sans-serif" font-size="13" lengthAdjust="spacing" textLength="67" x="745.75" y="80.0283">repositories</text></g><!--link Repositories to GreenSpaceRepository--><g id="link_Repositories_GreenSpaceRepository"><path codeLine="66" d="M988.47,148.13 C1019.15,179.68 1051.7871,213.2385 1079.3071,241.5385 " fill="none" id="Repositories-to-GreenSpaceRepository" style="stroke:#181818;stroke-width:1.0;"/><polygon fill="#181818" points="1083.49,245.84,1080.0832,236.5991,1080.0042,242.2554,1074.3479,242.1764,1083.49,245.84" style="stroke:#181818;stroke-width:1.0;"/><text fill="#000000" font-family="sans-serif" font-size="13" lengthAdjust="spacing" textLength="131" x="1051" y="212.0283">greenSpaceRepository</text><text fill="#000000" font-family="sans-serif" font-size="13" lengthAdjust="spacing" textLength="7" x="988.1695" y="170.6327">1</text><text fill="#000000" font-family="sans-serif" font-size="13" lengthAdjust="spacing" textLength="7" x="1069.4759" y="234.7186">1</text></g><!--reverse link Organization to GreenSpaceRepository--><g id="link_Organization_GreenSpaceRepository"><path codeLine="67" d="M662.6766,243.4691 C703.9266,225.0091 737.5,210 737.5,210 C737.5,210 808.5,210 808.5,210 C808.5,210 973,246 973,246 C973,246 979.72,247.89 990.32,250.88 " fill="none" id="Organization-backto-GreenSpaceRepository" style="stroke:#181818;stroke-width:1.0;"/><polygon fill="#181818" points="657.2,245.92,667.0488,245.8948,661.7638,243.8776,663.781,238.5926,657.2,245.92" style="stroke:#181818;stroke-width:1.0;"/><text fill="#000000" font-family="sans-serif" font-size="13" lengthAdjust="spacing" textLength="69" x="738.5" y="212.0283">greenSpace</text><text fill="#000000" font-family="sans-serif" font-size="13" lengthAdjust="spacing" textLength="7" x="664.8147" y="234.8113">1</text><text fill="#000000" font-family="sans-serif" font-size="13" lengthAdjust="spacing" textLength="7" x="975.3893" y="245.2434">1</text></g><!--link Repositories to OrganizationRepository--><g id="link_Repositories_OrganizationRepository"><path codeLine="68" d="M910.41,148.13 C899.01,183.12 886.94,220.1756 877.53,249.0356 " fill="none" id="Repositories-to-OrganizationRepository" style="stroke:#181818;stroke-width:1.0;"/><polygon fill="#181818" points="875.67,254.74,882.2629,247.4233,877.22,249.9863,874.657,244.9434,875.67,254.74" style="stroke:#181818;stroke-width:1.0;"/><text fill="#000000" font-family="sans-serif" font-size="13" lengthAdjust="spacing" textLength="132" x="894" y="212.0283">organizationRepository</text><text fill="#000000" font-family="sans-serif" font-size="13" lengthAdjust="spacing" textLength="7" x="900.5959" y="170.6327">1</text><text fill="#000000" font-family="sans-serif" font-size="13" lengthAdjust="spacing" textLength="7" x="870.0368" y="243.7764">1</text></g><!--reverse link Organization to OrganizationRepository--><g id="link_Organization_OrganizationRepository"><path codeLine="69" d="M685.15,288.5 C716.96,288.5 744.9,288.5 774.95,288.5 " fill="none" id="Organization-backto-OrganizationRepository" style="stroke:#181818;stroke-width:1.0;"/><polygon fill="#181818" points="679.15,288.5,688.15,292.5,684.15,288.5,688.15,284.5,679.15,288.5" style="stroke:#181818;stroke-width:1.0;"/><text fill="#000000" font-family="sans-serif" font-size="13" lengthAdjust="spacing" textLength="59" x="697.5" y="281.5283">userName</text><text fill="#000000" font-family="sans-serif" font-size="13" lengthAdjust="spacing" textLength="7" x="686.8791" y="284.9854">1</text><text fill="#000000" font-family="sans-serif" font-size="13" lengthAdjust="spacing" textLength="7" x="759.9105" y="284.8266">1</text></g><!--link Repositories to Repositories--><g id="link_Repositories_Repositories"><path codeLine="70" d="M1029.05,65.69 C1049.4,67.97 1064,75.07 1064,87 C1064,98.93 1055.3627,105.3619 1035.0127,107.6419 " fill="none" id="Repositories-to-Repositories" style="stroke:#181818;stroke-width:1.0;"/><polygon fill="#181818" points="1029.05,108.31,1038.4394,111.283,1034.0189,107.7533,1037.5487,103.3328,1029.05,108.31" style="stroke:#181818;stroke-width:1.0;"/><text fill="#000000" font-family="sans-serif" font-size="13" lengthAdjust="spacing" textLength="75" x="1070" y="92.5283">getInstance()</text><text fill="#000000" font-family="sans-serif" font-size="13" lengthAdjust="spacing" textLength="7" x="1036.9015" y="60.4286">1</text><text fill="#000000" font-family="sans-serif" font-size="13" lengthAdjust="spacing" textLength="7" x="1036.9015" y="106.3117">1</text></g><!--SRC=[dLJRQYCn37ttLuYyPBgviFlgBO7GXoMm5-ZG3t0JTMBgiGVROKd3_ljgCfbQatfAQHuIf2CT7KbMfk5PsqPvLKFjhDlklQiHeZ-WI4YZji-gmZ8U3OB7RLIsCZmWxDNE_TMsWYTb0aUCjXYF3KBZpB4rn3G3EX-TO5bReq9On-Zruo7YPkjigLyGlWenDVWK8Jhmkjf7sEbMZdPMY7CE_F28jYJ1-5E7-B0v2Q3FebQM6l2_LOqIIkArLGTKh_7tsBYWe_D7oLYIzpg-vRzpDdfd37fvLJaXty-9isjXnKr7QCXAMEZTWKOoTF_BjvWAdJxNaVELilf5jLEKy8TP7UxxU8r1mZspSeqbEKLcvfVcAemvFKM2IsgVujUceafnN_F-kSHBpt08kUMohWD8QFNT9jSgDzAUqBubKnwLX9qxFDBRxro1NYL5qVV5CVREPgn4mRdd0zevOvp3w01dG2DgtGMpVwLexbuJFPyUNs3VBFVnt8qDTEga-0PocuVtztZ6-R864PdP9_pqiVrbL8Iprl5Dv_MS4jL3U9qX9OdhiuNbQlG0nHW0IyeQN1OtOF9j0el5YdwNooyJHY_JBR_3lHgiHW8_MC4XLcYI7Rk4t9_7Mx6tYr4Au1pZrVDhaE2o_b45OpJztq56G5T_u9V3jox-0m00]--></g></svg>