<?xml version="1.0" encoding="us-ascii" standalone="no"?><svg xmlns="http://www.w3.org/2000/svg" xmlns:xlink="http://www.w3.org/1999/xlink" contentStyleType="text/css" height="403px" preserveAspectRatio="none" style="width:716px;height:403px;background:#FFFFFF;" version="1.1" viewBox="0 0 716 403" width="716px" zoomAndPan="magnify"><defs/><g><rect fill="#FFFFFF" height="209.0371" style="stroke:#181818;stroke-width:1.0;" width="10" x="74" y="93.6211"/><rect fill="#FFFFFF" height="185.7461" style="stroke:#181818;stroke-width:1.0;" width="10" x="354" y="116.9121"/><rect fill="#FFFFFF" height="79.543" style="stroke:#181818;stroke-width:1.0;" width="10" x="581" y="191.8242"/><line style="stroke:#181818;stroke-width:0.5;stroke-dasharray:5.0,5.0;" x1="79" x2="79" y1="83.6211" y2="320.6582"/><line style="stroke:#181818;stroke-width:0.5;stroke-dasharray:5.0,5.0;" x1="359" x2="359" y1="83.6211" y2="320.6582"/><line style="stroke:#181818;stroke-width:0.5;stroke-dasharray:5.0,5.0;" x1="586" x2="586" y1="156.7227" y2="320.6582"/><text fill="#000000" font-family="sans-serif" font-size="14" lengthAdjust="spacing" textLength="142" x="5" y="80.1074">Vehicle Fleet Manager</text><ellipse cx="79" cy="13.5" fill="#E3E3E3" rx="8" ry="8" style="stroke:#181818;stroke-width:0.5;"/><path d="M79,21.5 L79,48.5 M66,29.5 L92,29.5 M79,48.5 L66,63.5 M79,48.5 L92,63.5 " fill="none" style="stroke:#181818;stroke-width:0.5;"/><text fill="#000000" font-family="sans-serif" font-size="14" lengthAdjust="spacing" textLength="142" x="5" y="334.7656">Vehicle Fleet Manager</text><ellipse cx="79" cy="346.7793" fill="#E3E3E3" rx="8" ry="8" style="stroke:#181818;stroke-width:0.5;"/><path d="M79,354.7793 L79,381.7793 M66,362.7793 L92,362.7793 M79,381.7793 L66,396.7793 M79,381.7793 L92,396.7793 " fill="none" style="stroke:#181818;stroke-width:0.5;"/><rect fill="#E3E3E3" height="32.6211" rx="2.5" ry="2.5" style="stroke:#181818;stroke-width:0.5;" width="192" x="263" y="50"/><text fill="#000000" font-family="sans-serif" font-size="14" lengthAdjust="spacing" textLength="178" x="270" y="72.1074">:VehiclesNeedingCheckUpUI</text><rect fill="#E3E3E3" height="32.6211" rx="2.5" ry="2.5" style="stroke:#181818;stroke-width:0.5;" width="192" x="263" y="319.6582"/><text fill="#000000" font-family="sans-serif" font-size="14" lengthAdjust="spacing" textLength="178" x="270" y="341.7656">:VehiclesNeedingCheckUpUI</text><rect fill="#E3E3E3" height="32.6211" rx="2.5" ry="2.5" style="stroke:#181818;stroke-width:0.5;" width="242" x="465" y="319.6582"/><text fill="#000000" font-family="sans-serif" font-size="14" lengthAdjust="spacing" textLength="228" x="472" y="341.7656">:VehiclesNeedingCheckUpController</text><rect fill="#FFFFFF" height="209.0371" style="stroke:#181818;stroke-width:1.0;" width="10" x="74" y="93.6211"/><rect fill="#FFFFFF" height="185.7461" style="stroke:#181818;stroke-width:1.0;" width="10" x="354" y="116.9121"/><rect fill="#FFFFFF" height="79.543" style="stroke:#181818;stroke-width:1.0;" width="10" x="581" y="191.8242"/><polygon fill="#181818" points="342,112.9121,352,116.9121,342,120.9121,346,116.9121" style="stroke:#181818;stroke-width:1.0;"/><line style="stroke:#181818;stroke-width:1.0;" x1="84" x2="348" y1="116.9121" y2="116.9121"/><text fill="#000000" font-family="sans-serif" font-size="13" font-weight="bold" lengthAdjust="spacing" textLength="7" x="91" y="111.6494">1</text><text fill="#000000" font-family="sans-serif" font-size="13" lengthAdjust="spacing" textLength="240" x="102" y="111.6494">Request to list vehicles needing check-up</text><polygon fill="#181818" points="453,144.2031,463,148.2031,453,152.2031,457,148.2031" style="stroke:#181818;stroke-width:1.0;"/><line style="stroke:#181818;stroke-width:1.0;" x1="364" x2="459" y1="148.2031" y2="148.2031"/><text fill="#000000" font-family="sans-serif" font-size="13" font-weight="bold" lengthAdjust="spacing" textLength="7" x="371" y="142.9404">2</text><text fill="#000000" font-family="sans-serif" font-size="13" lengthAdjust="spacing" textLength="36" x="382" y="142.9404">create</text><rect fill="#E3E3E3" height="32.6211" rx="2.5" ry="2.5" style="stroke:#181818;stroke-width:0.5;" width="242" x="465" y="124.9121"/><text fill="#000000" font-family="sans-serif" font-size="14" lengthAdjust="spacing" textLength="228" x="472" y="147.0195">:VehiclesNeedingCheckUpController</text><polygon fill="#181818" points="569,187.8242,579,191.8242,569,195.8242,573,191.8242" style="stroke:#181818;stroke-width:1.0;"/><line style="stroke:#181818;stroke-width:1.0;" x1="364" x2="575" y1="191.8242" y2="191.8242"/><text fill="#000000" font-family="sans-serif" font-size="13" font-weight="bold" lengthAdjust="spacing" textLength="7" x="371" y="186.5615">3</text><text fill="#000000" font-family="sans-serif" font-size="13" lengthAdjust="spacing" textLength="176" x="382" y="186.5615">getVehiclesNeedingCheckUp()</text><rect fill="none" height="43.252" style="stroke:#000000;stroke-width:1.5;" width="248" x="462" y="199.8242"/><path d="M462,199.8242 L524,199.8242 L524,208.8242 L514,218.8242 L462,218.8242 L462,199.8242 " fill="#EEEEEE" style="stroke:#000000;stroke-width:2.0;"/><text fill="#000000" font-family="sans-serif" font-size="13" font-weight="bold" lengthAdjust="spacing" textLength="17" x="475" y="215.8525">ref</text><text fill="#000000" font-family="sans-serif" font-size="12" lengthAdjust="spacing" textLength="69" x="551.5" y="235.7734">Get Vehicles</text><polygon fill="#181818" points="375,267.3672,365,271.3672,375,275.3672,371,271.3672" style="stroke:#181818;stroke-width:1.0;"/><line style="stroke:#181818;stroke-width:1.0;stroke-dasharray:2.0,2.0;" x1="369" x2="585" y1="271.3672" y2="271.3672"/><text fill="#000000" font-family="sans-serif" font-size="13" font-weight="bold" lengthAdjust="spacing" textLength="7" x="381" y="266.1045">4</text><text fill="#000000" font-family="sans-serif" font-size="13" lengthAdjust="spacing" textLength="150" x="392" y="266.1045">VehiclesNeedingCheckUp</text><polygon fill="#181818" points="90,298.6582,80,302.6582,90,306.6582,86,302.6582" style="stroke:#181818;stroke-width:1.0;"/><line style="stroke:#181818;stroke-width:1.0;stroke-dasharray:2.0,2.0;" x1="84" x2="358" y1="302.6582" y2="302.6582"/><text fill="#000000" font-family="sans-serif" font-size="13" font-weight="bold" lengthAdjust="spacing" textLength="7" x="96" y="297.3955">5</text><text fill="#000000" font-family="sans-serif" font-size="13" lengthAdjust="spacing" textLength="230" x="107" y="297.3955">Shows list of vehicles needing check-up</text><!--SRC=[ZP71Ri8m38RlUGgBopOaNe33BaXCI8C33EuXTTkeQTmbBcnlFwU5qWDiyo5LuZ-V__oDbVMD3hg6cZoPCb2DmA555OTEeqsb2zpnjqC8Q5Zxmeq5iTGPdQql8DSkebAwPV9jVSIWr5DfCuISY8_qfRHX2Z0vO6cDq9OEaM6jlV3317I4mtAjXChMs4PxXidyeeqRn4ncB4eqrRxPhphvVlKlzO8y1tBkCcJniNrNoOizQSPkff85Pgy2X3biyRF5oC04pihtT862xwbW4dRMDag1r00IDzr1AW49BasQJWLf0ehYNbkQ1V9ztyyljni1Sw0JXjuz_59lakcLzr28FhknXnVqoOnrdSNPDPdxDeSB6JuWfUSA8uKyXrr9vzWdI_bVuOwGATxHDlss7m00]--></g></svg>