<?xml version="1.0" encoding="us-ascii" standalone="no"?><svg xmlns="http://www.w3.org/2000/svg" xmlns:xlink="http://www.w3.org/1999/xlink" contentStyleType="text/css" height="1034px" preserveAspectRatio="none" style="width:846px;height:1034px;background:#FFFFFF;" version="1.1" viewBox="0 0 846 1034" width="846px" zoomAndPan="magnify"><defs/><g><!--class PostponeEntryUI--><g id="elem_PostponeEntryUI"><rect codeLine="11" fill="#F1F1F1" height="234.2109" id="PostponeEntryUI" rx="2.5" ry="2.5" style="stroke:#181818;stroke-width:0.5;" width="182" x="7" y="7"/><ellipse cx="42.25" cy="23" fill="#ADD1B2" rx="11" ry="11" style="stroke:#181818;stroke-width:1.0;"/><path d="M45.0156,18.875 Q45.1719,18.6563 45.3594,18.5469 Q45.5469,18.4375 45.7656,18.4375 Q46.1406,18.4375 46.375,18.7031 Q46.6094,18.9531 46.6094,19.5625 L46.6094,21.0156 Q46.6094,21.625 46.375,21.8906 Q46.1406,22.1563 45.7656,22.1563 Q45.4219,22.1563 45.2188,21.9531 Q45.0156,21.7656 44.9063,21.25 Q44.8594,20.8906 44.6719,20.7031 Q44.3438,20.3281 43.7344,20.1094 Q43.125,19.8906 42.5,19.8906 Q41.7344,19.8906 41.0938,20.2188 Q40.4688,20.5469 39.9688,21.2969 Q39.4844,22.0469 39.4844,23.0781 L39.4844,24.1719 Q39.4844,25.4063 40.375,26.2344 Q41.2656,27.0469 42.8594,27.0469 Q43.7969,27.0469 44.4531,26.7969 Q44.8438,26.6406 45.2656,26.2031 Q45.5313,25.9375 45.6719,25.8594 Q45.8281,25.7813 46.0313,25.7813 Q46.3594,25.7813 46.6094,26.0469 Q46.875,26.2969 46.875,26.6406 Q46.875,26.9844 46.5313,27.3906 Q46.0313,27.9688 45.2344,28.2969 Q44.1563,28.75 42.8594,28.75 Q41.3438,28.75 40.1406,28.125 Q39.1563,27.625 38.4688,26.5625 Q37.7813,25.4844 37.7813,24.2031 L37.7813,23.0469 Q37.7813,21.7188 38.3906,20.5781 Q39.0156,19.4219 40.1094,18.8125 Q41.2031,18.1875 42.4375,18.1875 Q43.1719,18.1875 43.8125,18.3594 Q44.4688,18.5156 45.0156,18.875 Z " fill="#000000"/><text fill="#000000" font-family="sans-serif" font-size="14" lengthAdjust="spacing" textLength="105" x="60.75" y="28.7969">PostponeEntryUI</text><line style="stroke:#181818;stroke-width:0.5;" x1="8" x2="188" y1="39" y2="39"/><text fill="#000000" font-family="sans-serif" font-size="14" lengthAdjust="spacing" textLength="89" x="13" y="58.1074">-name: String;</text><text fill="#000000" font-family="sans-serif" font-size="14" lengthAdjust="spacing" textLength="67" x="13" y="76.7285">-size: Size;</text><text fill="#000000" font-family="sans-serif" font-size="14" lengthAdjust="spacing" textLength="89" x="13" y="95.3496">-area: double;</text><text fill="#000000" font-family="sans-serif" font-size="14" lengthAdjust="spacing" textLength="170" x="13" y="113.9707">-greenSpace: GreenSpace</text><line style="stroke:#181818;stroke-width:0.5;" x1="8" x2="188" y1="121.4844" y2="121.4844"/><text fill="#000000" font-family="sans-serif" font-size="14" lengthAdjust="spacing" textLength="163" x="13" y="140.5918">+RegisterGreenSpaceUI()</text><text fill="#000000" font-family="sans-serif" font-size="14" lengthAdjust="spacing" textLength="93" x="13" y="159.2129">-requestData()</text><text fill="#000000" font-family="sans-serif" font-size="14" lengthAdjust="spacing" textLength="99" x="13" y="177.834">-requestName()</text><text fill="#000000" font-family="sans-serif" font-size="14" lengthAdjust="spacing" textLength="93" x="13" y="196.4551">-requestArea()</text><text fill="#000000" font-family="sans-serif" font-size="14" lengthAdjust="spacing" textLength="86" x="13" y="215.0762">-submitData()</text><text fill="#000000" font-family="sans-serif" font-size="14" lengthAdjust="spacing" textLength="123" x="13" y="233.6973">-printGreenSpace()</text></g><!--class AgendaController--><g id="elem_AgendaController"><rect codeLine="25" fill="#F1F1F1" height="141.1055" id="AgendaController" rx="2.5" ry="2.5" style="stroke:#181818;stroke-width:0.5;" width="560" x="279" y="53.5"/><ellipse cx="499.25" cy="69.5" fill="#ADD1B2" rx="11" ry="11" style="stroke:#181818;stroke-width:1.0;"/><path d="M502.0156,65.375 Q502.1719,65.1563 502.3594,65.0469 Q502.5469,64.9375 502.7656,64.9375 Q503.1406,64.9375 503.375,65.2031 Q503.6094,65.4531 503.6094,66.0625 L503.6094,67.5156 Q503.6094,68.125 503.375,68.3906 Q503.1406,68.6563 502.7656,68.6563 Q502.4219,68.6563 502.2188,68.4531 Q502.0156,68.2656 501.9063,67.75 Q501.8594,67.3906 501.6719,67.2031 Q501.3438,66.8281 500.7344,66.6094 Q500.125,66.3906 499.5,66.3906 Q498.7344,66.3906 498.0938,66.7188 Q497.4688,67.0469 496.9688,67.7969 Q496.4844,68.5469 496.4844,69.5781 L496.4844,70.6719 Q496.4844,71.9063 497.375,72.7344 Q498.2656,73.5469 499.8594,73.5469 Q500.7969,73.5469 501.4531,73.2969 Q501.8438,73.1406 502.2656,72.7031 Q502.5313,72.4375 502.6719,72.3594 Q502.8281,72.2813 503.0313,72.2813 Q503.3594,72.2813 503.6094,72.5469 Q503.875,72.7969 503.875,73.1406 Q503.875,73.4844 503.5313,73.8906 Q503.0313,74.4688 502.2344,74.7969 Q501.1563,75.25 499.8594,75.25 Q498.3438,75.25 497.1406,74.625 Q496.1563,74.125 495.4688,73.0625 Q494.7813,71.9844 494.7813,70.7031 L494.7813,69.5469 Q494.7813,68.2188 495.3906,67.0781 Q496.0156,65.9219 497.1094,65.3125 Q498.2031,64.6875 499.4375,64.6875 Q500.1719,64.6875 500.8125,64.8594 Q501.4688,65.0156 502.0156,65.375 Z " fill="#000000"/><text fill="#000000" font-family="sans-serif" font-size="14" lengthAdjust="spacing" textLength="111" x="519.75" y="75.2969">AgendaController</text><line style="stroke:#181818;stroke-width:0.5;" x1="280" x2="838" y1="85.5" y2="85.5"/><line style="stroke:#181818;stroke-width:0.5;" x1="280" x2="838" y1="93.5" y2="93.5"/><text fill="#000000" font-family="sans-serif" font-size="14" lengthAdjust="spacing" textLength="213" x="285" y="112.6074">+RegisterGreenSpaceController()</text><text fill="#000000" font-family="sans-serif" font-size="14" lengthAdjust="spacing" textLength="532" x="285" y="131.2285">+RegisterGreenSpaceController(AuthenticationRepository authenticationRepository)</text><text fill="#000000" font-family="sans-serif" font-size="14" lengthAdjust="spacing" textLength="346" x="285" y="149.8496">+getGreenSpaceRepository() : GreenSpaceRepository</text><text fill="#000000" font-family="sans-serif" font-size="14" lengthAdjust="spacing" textLength="363" x="285" y="168.4707">-getAuthenticationRepository() : AuthenticationRepository</text><text fill="#000000" font-family="sans-serif" font-size="14" lengthAdjust="spacing" textLength="548" x="285" y="187.0918">+registerGreenSpace(String name, double area, GreenSpace.Size size ) : GreenSpace</text></g><!--class Repositories--><g id="elem_Repositories"><rect codeLine="34" fill="#F1F1F1" height="103.8633" id="Repositories" rx="2.5" ry="2.5" style="stroke:#181818;stroke-width:0.5;" width="358" x="170" y="320"/><ellipse cx="305.25" cy="336" fill="#ADD1B2" rx="11" ry="11" style="stroke:#181818;stroke-width:1.0;"/><path d="M308.0156,331.875 Q308.1719,331.6563 308.3594,331.5469 Q308.5469,331.4375 308.7656,331.4375 Q309.1406,331.4375 309.375,331.7031 Q309.6094,331.9531 309.6094,332.5625 L309.6094,334.0156 Q309.6094,334.625 309.375,334.8906 Q309.1406,335.1563 308.7656,335.1563 Q308.4219,335.1563 308.2188,334.9531 Q308.0156,334.7656 307.9063,334.25 Q307.8594,333.8906 307.6719,333.7031 Q307.3438,333.3281 306.7344,333.1094 Q306.125,332.8906 305.5,332.8906 Q304.7344,332.8906 304.0938,333.2188 Q303.4688,333.5469 302.9688,334.2969 Q302.4844,335.0469 302.4844,336.0781 L302.4844,337.1719 Q302.4844,338.4063 303.375,339.2344 Q304.2656,340.0469 305.8594,340.0469 Q306.7969,340.0469 307.4531,339.7969 Q307.8438,339.6406 308.2656,339.2031 Q308.5313,338.9375 308.6719,338.8594 Q308.8281,338.7813 309.0313,338.7813 Q309.3594,338.7813 309.6094,339.0469 Q309.875,339.2969 309.875,339.6406 Q309.875,339.9844 309.5313,340.3906 Q309.0313,340.9688 308.2344,341.2969 Q307.1563,341.75 305.8594,341.75 Q304.3438,341.75 303.1406,341.125 Q302.1563,340.625 301.4688,339.5625 Q300.7813,338.4844 300.7813,337.2031 L300.7813,336.0469 Q300.7813,334.7188 301.3906,333.5781 Q302.0156,332.4219 303.1094,331.8125 Q304.2031,331.1875 305.4375,331.1875 Q306.1719,331.1875 306.8125,331.3594 Q307.4688,331.5156 308.0156,331.875 Z " fill="#000000"/><text fill="#000000" font-family="sans-serif" font-size="14" lengthAdjust="spacing" textLength="79" x="325.75" y="341.7969">Repositories</text><line style="stroke:#181818;stroke-width:0.5;" x1="171" x2="527" y1="352" y2="352"/><line style="stroke:#181818;stroke-width:0.5;" x1="171" x2="527" y1="360" y2="360"/><text fill="#000000" font-family="sans-serif" font-size="14" lengthAdjust="spacing" textLength="94" x="176" y="379.1074">-Repositories()</text><text fill="#000000" font-family="sans-serif" font-size="14" lengthAdjust="spacing" textLength="182" x="176" y="397.7285">+getInstance() : Repositories</text><text fill="#000000" font-family="sans-serif" font-size="14" lengthAdjust="spacing" textLength="346" x="176" y="416.3496">+getGreenSpaceRepository() : GreenSpaceRepository</text></g><!--class Organization--><g id="elem_Organization"><rect codeLine="47" fill="#F1F1F1" height="48" id="Organization" rx="2.5" ry="2.5" style="stroke:#181818;stroke-width:0.5;" width="112" x="508" y="612"/><ellipse cx="523" cy="628" fill="#ADD1B2" rx="11" ry="11" style="stroke:#181818;stroke-width:1.0;"/><path d="M525.7656,623.875 Q525.9219,623.6563 526.1094,623.5469 Q526.2969,623.4375 526.5156,623.4375 Q526.8906,623.4375 527.125,623.7031 Q527.3594,623.9531 527.3594,624.5625 L527.3594,626.0156 Q527.3594,626.625 527.125,626.8906 Q526.8906,627.1563 526.5156,627.1563 Q526.1719,627.1563 525.9688,626.9531 Q525.7656,626.7656 525.6563,626.25 Q525.6094,625.8906 525.4219,625.7031 Q525.0938,625.3281 524.4844,625.1094 Q523.875,624.8906 523.25,624.8906 Q522.4844,624.8906 521.8438,625.2188 Q521.2188,625.5469 520.7188,626.2969 Q520.2344,627.0469 520.2344,628.0781 L520.2344,629.1719 Q520.2344,630.4063 521.125,631.2344 Q522.0156,632.0469 523.6094,632.0469 Q524.5469,632.0469 525.2031,631.7969 Q525.5938,631.6406 526.0156,631.2031 Q526.2813,630.9375 526.4219,630.8594 Q526.5781,630.7813 526.7813,630.7813 Q527.1094,630.7813 527.3594,631.0469 Q527.625,631.2969 527.625,631.6406 Q527.625,631.9844 527.2813,632.3906 Q526.7813,632.9688 525.9844,633.2969 Q524.9063,633.75 523.6094,633.75 Q522.0938,633.75 520.8906,633.125 Q519.9063,632.625 519.2188,631.5625 Q518.5313,630.4844 518.5313,629.2031 L518.5313,628.0469 Q518.5313,626.7188 519.1406,625.5781 Q519.7656,624.4219 520.8594,623.8125 Q521.9531,623.1875 523.1875,623.1875 Q523.9219,623.1875 524.5625,623.3594 Q525.2188,623.5156 525.7656,623.875 Z " fill="#000000"/><text fill="#000000" font-family="sans-serif" font-size="14" lengthAdjust="spacing" textLength="80" x="537" y="633.7969">Organization</text><line style="stroke:#181818;stroke-width:0.5;" x1="509" x2="619" y1="644" y2="644"/><line style="stroke:#181818;stroke-width:0.5;" x1="509" x2="619" y1="652" y2="652"/></g><!--class AgendaRepository--><g id="elem_AgendaRepository"><rect codeLine="49" fill="#F1F1F1" height="196.9688" id="AgendaRepository" rx="2.5" ry="2.5" style="stroke:#181818;stroke-width:0.5;" width="349" x="174.5" y="721"/><ellipse cx="286.25" cy="737" fill="#ADD1B2" rx="11" ry="11" style="stroke:#181818;stroke-width:1.0;"/><path d="M289.0156,732.875 Q289.1719,732.6563 289.3594,732.5469 Q289.5469,732.4375 289.7656,732.4375 Q290.1406,732.4375 290.375,732.7031 Q290.6094,732.9531 290.6094,733.5625 L290.6094,735.0156 Q290.6094,735.625 290.375,735.8906 Q290.1406,736.1563 289.7656,736.1563 Q289.4219,736.1563 289.2188,735.9531 Q289.0156,735.7656 288.9063,735.25 Q288.8594,734.8906 288.6719,734.7031 Q288.3438,734.3281 287.7344,734.1094 Q287.125,733.8906 286.5,733.8906 Q285.7344,733.8906 285.0938,734.2188 Q284.4688,734.5469 283.9688,735.2969 Q283.4844,736.0469 283.4844,737.0781 L283.4844,738.1719 Q283.4844,739.4063 284.375,740.2344 Q285.2656,741.0469 286.8594,741.0469 Q287.7969,741.0469 288.4531,740.7969 Q288.8438,740.6406 289.2656,740.2031 Q289.5313,739.9375 289.6719,739.8594 Q289.8281,739.7813 290.0313,739.7813 Q290.3594,739.7813 290.6094,740.0469 Q290.875,740.2969 290.875,740.6406 Q290.875,740.9844 290.5313,741.3906 Q290.0313,741.9688 289.2344,742.2969 Q288.1563,742.75 286.8594,742.75 Q285.3438,742.75 284.1406,742.125 Q283.1563,741.625 282.4688,740.5625 Q281.7813,739.4844 281.7813,738.2031 L281.7813,737.0469 Q281.7813,735.7188 282.3906,734.5781 Q283.0156,733.4219 284.1094,732.8125 Q285.2031,732.1875 286.4375,732.1875 Q287.1719,732.1875 287.8125,732.3594 Q288.4688,732.5156 289.0156,732.875 Z " fill="#000000"/><text fill="#000000" font-family="sans-serif" font-size="14" lengthAdjust="spacing" textLength="117" x="306.75" y="742.7969">AgendaRepository</text><line style="stroke:#181818;stroke-width:0.5;" x1="175.5" x2="522.5" y1="753" y2="753"/><text fill="#000000" font-family="sans-serif" font-size="14" lengthAdjust="spacing" textLength="85" x="180.5" y="772.1074">-name: String</text><text fill="#000000" font-family="sans-serif" font-size="14" lengthAdjust="spacing" textLength="85" x="180.5" y="790.7285">-area: double</text><text fill="#000000" font-family="sans-serif" font-size="14" lengthAdjust="spacing" textLength="63" x="180.5" y="809.3496">-size: Size</text><line style="stroke:#181818;stroke-width:0.5;" x1="175.5" x2="522.5" y1="816.8633" y2="816.8633"/><text fill="#000000" font-family="sans-serif" font-size="14" lengthAdjust="spacing" textLength="320" x="180.5" y="835.9707">+GreenSpace(String name, double area, Size size)</text><text fill="#000000" font-family="sans-serif" font-size="14" lengthAdjust="spacing" textLength="337" x="180.5" y="854.5918">+validateGreenSpaceName(String greenSpaceName)</text><text fill="#000000" font-family="sans-serif" font-size="14" lengthAdjust="spacing" textLength="119" x="180.5" y="873.2129">+getName(): String</text><text fill="#000000" font-family="sans-serif" font-size="14" lengthAdjust="spacing" textLength="113" x="180.5" y="891.834">+equals(Object o)</text><text fill="#000000" font-family="sans-serif" font-size="14" lengthAdjust="spacing" textLength="116" x="180.5" y="910.4551">+toString() : String</text></g><!--class OrganizationRepositiry--><g id="elem_OrganizationRepositiry"><rect fill="#F1F1F1" height="48" id="OrganizationRepositiry" rx="2.5" ry="2.5" style="stroke:#181818;stroke-width:0.5;" width="175" x="417.5" y="485"/><ellipse cx="432.5" cy="501" fill="#ADD1B2" rx="11" ry="11" style="stroke:#181818;stroke-width:1.0;"/><path d="M435.2656,496.875 Q435.4219,496.6563 435.6094,496.5469 Q435.7969,496.4375 436.0156,496.4375 Q436.3906,496.4375 436.625,496.7031 Q436.8594,496.9531 436.8594,497.5625 L436.8594,499.0156 Q436.8594,499.625 436.625,499.8906 Q436.3906,500.1563 436.0156,500.1563 Q435.6719,500.1563 435.4688,499.9531 Q435.2656,499.7656 435.1563,499.25 Q435.1094,498.8906 434.9219,498.7031 Q434.5938,498.3281 433.9844,498.1094 Q433.375,497.8906 432.75,497.8906 Q431.9844,497.8906 431.3438,498.2188 Q430.7188,498.5469 430.2188,499.2969 Q429.7344,500.0469 429.7344,501.0781 L429.7344,502.1719 Q429.7344,503.4063 430.625,504.2344 Q431.5156,505.0469 433.1094,505.0469 Q434.0469,505.0469 434.7031,504.7969 Q435.0938,504.6406 435.5156,504.2031 Q435.7813,503.9375 435.9219,503.8594 Q436.0781,503.7813 436.2813,503.7813 Q436.6094,503.7813 436.8594,504.0469 Q437.125,504.2969 437.125,504.6406 Q437.125,504.9844 436.7813,505.3906 Q436.2813,505.9688 435.4844,506.2969 Q434.4063,506.75 433.1094,506.75 Q431.5938,506.75 430.3906,506.125 Q429.4063,505.625 428.7188,504.5625 Q428.0313,503.4844 428.0313,502.2031 L428.0313,501.0469 Q428.0313,499.7188 428.6406,498.5781 Q429.2656,497.4219 430.3594,496.8125 Q431.4531,496.1875 432.6875,496.1875 Q433.4219,496.1875 434.0625,496.3594 Q434.7188,496.5156 435.2656,496.875 Z " fill="#000000"/><text fill="#000000" font-family="sans-serif" font-size="14" lengthAdjust="spacing" textLength="143" x="446.5" y="506.7969">OrganizationRepositiry</text><line style="stroke:#181818;stroke-width:0.5;" x1="418.5" x2="591.5" y1="517" y2="517"/><line style="stroke:#181818;stroke-width:0.5;" x1="418.5" x2="591.5" y1="525" y2="525"/></g><!--class Entry--><g id="elem_Entry"><rect fill="#F1F1F1" height="48" id="Entry" rx="2.5" ry="2.5" style="stroke:#181818;stroke-width:0.5;" width="65" x="438.5" y="979"/><ellipse cx="453.5" cy="995" fill="#ADD1B2" rx="11" ry="11" style="stroke:#181818;stroke-width:1.0;"/><path d="M456.2656,990.875 Q456.4219,990.6563 456.6094,990.5469 Q456.7969,990.4375 457.0156,990.4375 Q457.3906,990.4375 457.625,990.7031 Q457.8594,990.9531 457.8594,991.5625 L457.8594,993.0156 Q457.8594,993.625 457.625,993.8906 Q457.3906,994.1563 457.0156,994.1563 Q456.6719,994.1563 456.4688,993.9531 Q456.2656,993.7656 456.1563,993.25 Q456.1094,992.8906 455.9219,992.7031 Q455.5938,992.3281 454.9844,992.1094 Q454.375,991.8906 453.75,991.8906 Q452.9844,991.8906 452.3438,992.2188 Q451.7188,992.5469 451.2188,993.2969 Q450.7344,994.0469 450.7344,995.0781 L450.7344,996.1719 Q450.7344,997.4063 451.625,998.2344 Q452.5156,999.0469 454.1094,999.0469 Q455.0469,999.0469 455.7031,998.7969 Q456.0938,998.6406 456.5156,998.2031 Q456.7813,997.9375 456.9219,997.8594 Q457.0781,997.7813 457.2813,997.7813 Q457.6094,997.7813 457.8594,998.0469 Q458.125,998.2969 458.125,998.6406 Q458.125,998.9844 457.7813,999.3906 Q457.2813,999.9688 456.4844,1000.2969 Q455.4063,1000.75 454.1094,1000.75 Q452.5938,1000.75 451.3906,1000.125 Q450.4063,999.625 449.7188,998.5625 Q449.0313,997.4844 449.0313,996.2031 L449.0313,995.0469 Q449.0313,993.7188 449.6406,992.5781 Q450.2656,991.4219 451.3594,990.8125 Q452.4531,990.1875 453.6875,990.1875 Q454.4219,990.1875 455.0625,990.3594 Q455.7188,990.5156 456.2656,990.875 Z " fill="#000000"/><text fill="#000000" font-family="sans-serif" font-size="14" lengthAdjust="spacing" textLength="33" x="467.5" y="1000.7969">Entry</text><line style="stroke:#181818;stroke-width:0.5;" x1="439.5" x2="502.5" y1="1011" y2="1011"/><line style="stroke:#181818;stroke-width:0.5;" x1="439.5" x2="502.5" y1="1019" y2="1019"/></g><!--link PostponeEntryUI to AgendaController--><g id="link_PostponeEntryUI_AgendaController"><path codeLine="61" d="M189.08,124 C215.84,124 240.63,124 272.76,124 " fill="none" id="PostponeEntryUI-to-AgendaController" style="stroke:#181818;stroke-width:1.0;stroke-dasharray:7.0,7.0;"/><polygon fill="#181818" points="278.76,124,269.76,120,273.76,124,269.76,128,278.76,124" style="stroke:#181818;stroke-width:1.0;"/><text fill="#000000" font-family="sans-serif" font-size="13" lengthAdjust="spacing" textLength="53" x="207.5" y="117.0283">controller</text></g><!--link AgendaController to Repositories--><g id="link_AgendaController_Repositories"><path codeLine="62" d="M499.66,194.51 C465.7,234.29 427.7256,278.7767 396.7456,315.0667 " fill="none" id="AgendaController-to-Repositories" style="stroke:#181818;stroke-width:1.0;stroke-dasharray:7.0,7.0;"/><polygon fill="#181818" points="392.85,319.63,401.7357,315.3821,396.0964,315.8272,395.6512,310.1879,392.85,319.63" style="stroke:#181818;stroke-width:1.0;"/><text fill="#000000" font-family="sans-serif" font-size="13" lengthAdjust="spacing" textLength="67" x="431" y="286.0283">repositories</text></g><!--link Repositories to Repositories--><g id="link_Repositories_Repositories"><path codeLine="64" d="M528.13,358.83 C549.24,361.24 563,365.63 563,372 C563,378.37 555.2013,382.0794 534.0913,384.4894 " fill="none" id="Repositories-to-Repositories" style="stroke:#181818;stroke-width:1.0;"/><polygon fill="#181818" points="528.13,385.17,537.5256,388.1233,533.0977,384.6029,536.6182,380.175,528.13,385.17" style="stroke:#181818;stroke-width:1.0;"/><text fill="#000000" font-family="sans-serif" font-size="13" lengthAdjust="spacing" textLength="49" x="569" y="377.5283">instance</text></g><!--link Repositories to OrganizationRepositiry--><g id="link_Repositories_OrganizationRepositiry"><path codeLine="65" d="M407.98,424.04 C432.14,444.94 454.3525,464.1744 473.6325,480.8544 " fill="none" id="Repositories-to-OrganizationRepositiry" style="stroke:#181818;stroke-width:1.0;"/><polygon fill="#181818" points="478.17,484.78,473.9808,475.8665,474.3887,481.5086,468.7466,481.9166,478.17,484.78" style="stroke:#181818;stroke-width:1.0;"/><text fill="#000000" font-family="sans-serif" font-size="13" lengthAdjust="spacing" textLength="7" x="463.7771" y="473.8683">1</text></g><!--link OrganizationRepositiry to Organization--><g id="link_OrganizationRepositiry_Organization"><path codeLine="66" d="M515.96,533.22 C526.56,555.67 539.9585,584.0743 550.5385,606.4843 " fill="none" id="OrganizationRepositiry-to-Organization" style="stroke:#181818;stroke-width:1.0;"/><polygon fill="#181818" points="553.1,611.91,552.8748,602.0637,550.9654,607.3886,545.6405,605.4791,553.1,611.91" style="stroke:#181818;stroke-width:1.0;"/><text fill="#000000" font-family="sans-serif" font-size="13" lengthAdjust="spacing" textLength="75" x="539" y="578.0283">has manager</text><text fill="#000000" font-family="sans-serif" font-size="13" lengthAdjust="spacing" textLength="7" x="510.6851" y="554.8485">1</text><text fill="#000000" font-family="sans-serif" font-size="13" lengthAdjust="spacing" textLength="7" x="542.41" y="600.6244">1</text></g><!--link AgendaController to Organization--><g id="link_AgendaController_Organization"><path codeLine="68" d="M582.55,194.57 C601.5,250.57 625,320 625,320 C625,320 625,424 625,424 C625,424 623,582 623,582 C623,582 610.074,593.6209 594.174,607.9009 " fill="none" id="AgendaController-to-Organization" style="stroke:#181818;stroke-width:1.0;"/><polygon fill="#181818" points="589.71,611.91,599.0787,608.8723,593.43,608.5691,593.7332,602.9203,589.71,611.91" style="stroke:#181818;stroke-width:1.0;"/><text fill="#000000" font-family="sans-serif" font-size="13" lengthAdjust="spacing" textLength="7" x="577.6177" y="216.762">1</text></g><!--link Organization to Entry--><g id="link_Organization_Entry"><path codeLine="69" d="M562.08,660.47 C556.55,728.01 541,918 541,918 C541,918 515.0513,949.1408 494.3413,973.9908 " fill="none" id="Organization-to-Entry" style="stroke:#181818;stroke-width:1.0;"/><polygon fill="#181818" points="490.5,978.6,499.3347,974.2471,493.7011,974.759,493.1891,969.1254,490.5,978.6" style="stroke:#181818;stroke-width:1.0;"/><text fill="#000000" font-family="sans-serif" font-size="13" lengthAdjust="spacing" textLength="86" x="557" y="825.0283">postpone entry</text><text fill="#000000" font-family="sans-serif" font-size="13" lengthAdjust="spacing" textLength="7" x="553.8266" y="682.1563">1</text><text fill="#000000" font-family="sans-serif" font-size="13" lengthAdjust="spacing" textLength="20" x="472.8156" y="967.6444">1..*</text></g><!--link Repositories to AgendaRepository--><g id="link_Repositories_AgendaRepository"><path codeLine="70" d="M349,424.1 C349,496.21 349,623.21 349,714.68 " fill="none" id="Repositories-to-AgendaRepository" style="stroke:#181818;stroke-width:1.0;"/><polygon fill="#181818" points="349,720.68,353,711.68,349,715.68,345,711.68,349,720.68" style="stroke:#181818;stroke-width:1.0;"/><text fill="#000000" font-family="sans-serif" font-size="13" lengthAdjust="spacing" textLength="7" x="341.743" y="709.8388">1</text></g><!--link AgendaRepository to Entry--><g id="link_AgendaRepository_Entry"><path codeLine="71" d="M414.64,918.16 C429.87,940.81 441.3622,957.9108 451.9922,973.7208 " fill="none" id="AgendaRepository-to-Entry" style="stroke:#181818;stroke-width:1.0;"/><polygon fill="#181818" points="455.34,978.7,453.6378,968.9994,452.5502,974.5507,446.9988,973.4631,455.34,978.7" style="stroke:#181818;stroke-width:1.0;"/><text fill="#000000" font-family="sans-serif" font-size="13" lengthAdjust="spacing" textLength="7" x="412.2034" y="940.0697">1</text><text fill="#000000" font-family="sans-serif" font-size="13" lengthAdjust="spacing" textLength="7" x="443.6697" y="967.7688">1</text></g><!--link Organization to AgendaRepository--><g id="link_Organization_AgendaRepository"><path codeLine="72" d="M536.33,660.36 C517.62,676.15 496.0944,694.3192 469.3044,716.9392 " fill="none" id="Organization-to-AgendaRepository" style="stroke:#181818;stroke-width:1.0;"/><polygon fill="#181818" points="464.72,720.81,474.1772,718.06,468.5403,717.5843,469.0161,711.9475,464.72,720.81" style="stroke:#181818;stroke-width:1.0;"/><text fill="#000000" font-family="sans-serif" font-size="13" lengthAdjust="spacing" textLength="7" x="522.1219" y="682.0208">1</text><text fill="#000000" font-family="sans-serif" font-size="13" lengthAdjust="spacing" textLength="7" x="466.3118" y="709.6439">1</text></g><!--SRC=[bLLVRzem47_tfpZn4ZeQjBso2WbrquGqhLDHFu19hi5hOcUsiucYVVUTan3Ra6Wh3uYx-ztVtvr9p8kGDTUyWaf9bHsqgX2iRf1vIysp5rxWpXvB18sPvR8eGu0vy5pz5hA0PrwQq58AYVPO8zIgF3g19ID6fQrYWLTMScCsrcgnRonkCoLtuXNXFMD9YSyMh08jYeE5NBXoX9ACjJxmNHbRAucVfTN7f-s9fP9Nk88TnPB5HvOQ2aGYVPF0DV8LvAhPbquiDABSKRU4-3ByPcpnY8Km5hLNFctdDopL-BD1OpznomFn6sKCn0qbSQ9fzfKOi3NLOtqyKlqvzx0fKERyNb4BgYnHdnW3-enKuJ7a_s_Cfh47b5Pat8ti4MjbX5Nw27p2q0SjCAZKM-St4Cx96rglbBoc4hQUKyOkfxvgPDvn28xGsvuqS0pU1aKisqLn94DSdH_la4cWENMbHhhpA84Qs4f3o-xeeM0Xo4FUDXcg8kdA63DJEOcBEnwJSYOT6r5PKmmaiE1v7ipF_mI_wLspoU8hJVlE8zPnQsueoJ311rrmALvRtauNQnirusORtb-d2Q-kq_YZx5VzlrWVgEu9-yLBaNEBthczn3v04MdzPdVN6bMueCEbTsp-iFz1hmke7cnLXscdtiEf-uid1vRhgmicV3O8xCgw99TmkGYkmrrB8cDAJwrCrp3xC1ldFaQdSUmLY7vvs6JKaDyU92ZkkBhrI4SygOi3Dr1nIVyTcYLZjKuwNm_fZ8nGKJuVQxbyDuEM3ogYxla1T8hhwJYtozrbbugeq3RoLEwHO7y1]--></g></svg>