<?xml version="1.0" encoding="us-ascii" standalone="no"?><svg xmlns="http://www.w3.org/2000/svg" xmlns:xlink="http://www.w3.org/1999/xlink" contentStyleType="text/css" height="1250px" preserveAspectRatio="none" style="width:945px;height:1250px;background:#FFFFFF;" version="1.1" viewBox="0 0 945 1250" width="945px" zoomAndPan="magnify"><defs/><g><!--class Outside_User--><g id="elem_Outside_User"><rect codeLine="9" fill="#F1F1F1" height="92.4844" id="Outside_User" rx="2.5" ry="2.5" style="stroke:#181818;stroke-width:0.5;" width="92" x="763" y="26"/><text fill="#000000" font-family="sans-serif" font-size="14" lengthAdjust="spacing" textLength="86" x="766" y="46.1074">Outside_User</text><line style="stroke:#181818;stroke-width:0.5;" x1="764" x2="854" y1="54.6211" y2="54.6211"/><text fill="#000000" font-family="sans-serif" font-size="14" lengthAdjust="spacing" textLength="35" x="769" y="73.7285">name</text><text fill="#000000" font-family="sans-serif" font-size="14" lengthAdjust="spacing" textLength="33" x="769" y="92.3496">email</text><text fill="#000000" font-family="sans-serif" font-size="14" lengthAdjust="spacing" textLength="60" x="769" y="110.9707">password</text></g><!--class Portal--><g id="elem_Portal"><rect codeLine="14" fill="#F1F1F1" height="55.2422" id="Portal" rx="2.5" ry="2.5" style="stroke:#181818;stroke-width:0.5;" width="97" x="689.5" y="225.5"/><text fill="#000000" font-family="sans-serif" font-size="14" lengthAdjust="spacing" textLength="37" x="719.5" y="245.6074">Portal</text><line style="stroke:#181818;stroke-width:0.5;" x1="690.5" x2="785.5" y1="254.1211" y2="254.1211"/><text fill="#000000" font-family="sans-serif" font-size="14" lengthAdjust="spacing" textLength="85" x="695.5" y="273.2285">task category</text></g><!--class Malfunctions--><g id="elem_Malfunctions"><rect codeLine="17" fill="#F1F1F1" height="36.6211" id="Malfunctions" rx="2.5" ry="2.5" style="stroke:#181818;stroke-width:0.5;" width="85" x="565.5" y="378"/><text fill="#000000" font-family="sans-serif" font-size="14" lengthAdjust="spacing" textLength="79" x="568.5" y="398.1074">Malfunctions</text><line style="stroke:#181818;stroke-width:0.5;" x1="566.5" x2="649.5" y1="406.6211" y2="406.6211"/></g><!--class Flaws--><g id="elem_Flaws"><rect codeLine="18" fill="#F1F1F1" height="36.6211" id="Flaws" rx="2.5" ry="2.5" style="stroke:#181818;stroke-width:0.5;" width="42" x="795" y="378"/><text fill="#000000" font-family="sans-serif" font-size="14" lengthAdjust="spacing" textLength="36" x="798" y="398.1074">Flaws</text><line style="stroke:#181818;stroke-width:0.5;" x1="796" x2="836" y1="406.6211" y2="406.6211"/></g><!--class Comments--><g id="elem_Comments"><rect codeLine="19" fill="#F1F1F1" height="36.6211" id="Comments" rx="2.5" ry="2.5" style="stroke:#181818;stroke-width:0.5;" width="73" x="685.5" y="378"/><text fill="#000000" font-family="sans-serif" font-size="14" lengthAdjust="spacing" textLength="67" x="688.5" y="398.1074">Comments</text><line style="stroke:#181818;stroke-width:0.5;" x1="686.5" x2="757.5" y1="406.6211" y2="406.6211"/></g><!--class Schedule--><g id="elem_Schedule"><rect codeLine="20" fill="#F1F1F1" height="55.2422" id="Schedule" rx="2.5" ry="2.5" style="stroke:#181818;stroke-width:0.5;" width="65" x="572.5" y="730"/><text fill="#000000" font-family="sans-serif" font-size="14" lengthAdjust="spacing" textLength="59" x="575.5" y="750.1074">Schedule</text><line style="stroke:#181818;stroke-width:0.5;" x1="573.5" x2="636.5" y1="758.6211" y2="758.6211"/><text fill="#000000" font-family="sans-serif" font-size="14" lengthAdjust="spacing" textLength="33" x="578.5" y="777.7285">tasks</text></g><!--class Garden--><g id="elem_Garden"><rect codeLine="23" fill="#F1F1F1" height="55.2422" id="Garden" rx="2.5" ry="2.5" style="stroke:#181818;stroke-width:0.5;" width="81" x="590.5" y="1188"/><text fill="#000000" font-family="sans-serif" font-size="14" lengthAdjust="spacing" textLength="48" x="607" y="1208.1074">Garden</text><line style="stroke:#181818;stroke-width:0.5;" x1="591.5" x2="670.5" y1="1216.6211" y2="1216.6211"/><text fill="#000000" font-family="sans-serif" font-size="14" lengthAdjust="spacing" textLength="69" x="596.5" y="1235.7285">description</text></g><!--class Medium_Sized--><g id="elem_Medium_Sized"><rect codeLine="26" fill="#F1F1F1" height="55.2422" id="Medium_Sized" rx="2.5" ry="2.5" style="stroke:#181818;stroke-width:0.5;" width="97" x="706.5" y="1188"/><text fill="#000000" font-family="sans-serif" font-size="14" lengthAdjust="spacing" textLength="91" x="709.5" y="1208.1074">Medium_Sized</text><line style="stroke:#181818;stroke-width:0.5;" x1="707.5" x2="802.5" y1="1216.6211" y2="1216.6211"/><text fill="#000000" font-family="sans-serif" font-size="14" lengthAdjust="spacing" textLength="69" x="712.5" y="1235.7285">description</text></g><!--class Large_Sized--><g id="elem_Large_Sized"><rect codeLine="29" fill="#F1F1F1" height="55.2422" id="Large_Sized" rx="2.5" ry="2.5" style="stroke:#181818;stroke-width:0.5;" width="85" x="838.5" y="1188"/><text fill="#000000" font-family="sans-serif" font-size="14" lengthAdjust="spacing" textLength="79" x="841.5" y="1208.1074">Large_Sized</text><line style="stroke:#181818;stroke-width:0.5;" x1="839.5" x2="922.5" y1="1216.6211" y2="1216.6211"/><text fill="#000000" font-family="sans-serif" font-size="14" lengthAdjust="spacing" textLength="69" x="844.5" y="1235.7285">description</text></g><!--class Vehicles_Machines_Equipment--><g id="elem_Vehicles_Machines_Equipment"><rect codeLine="32" fill="#F1F1F1" height="55.2422" id="Vehicles_Machines_Equipment" rx="2.5" ry="2.5" style="stroke:#181818;stroke-width:0.5;" width="202" x="7" y="1054"/><text fill="#000000" font-family="sans-serif" font-size="14" lengthAdjust="spacing" textLength="196" x="10" y="1074.1074">Vehicles_Machines_Equipment</text><line style="stroke:#181818;stroke-width:0.5;" x1="8" x2="208" y1="1082.6211" y2="1082.6211"/><text fill="#000000" font-family="sans-serif" font-size="14" lengthAdjust="spacing" textLength="69" x="13" y="1101.7285">description</text></g><!--class FM--><g id="elem_FM"><rect codeLine="35" fill="#F1F1F1" height="36.6211" id="FM" rx="2.5" ry="2.5" style="stroke:#181818;stroke-width:0.5;" width="26" x="326" y="1063"/><text fill="#000000" font-family="sans-serif" font-size="14" lengthAdjust="spacing" textLength="20" x="329" y="1083.1074">FM</text><line style="stroke:#181818;stroke-width:0.5;" x1="327" x2="351" y1="1091.6211" y2="1091.6211"/></g><!--class HRM--><g id="elem_HRM"><rect codeLine="37" fill="#F1F1F1" height="36.6211" id="HRM" rx="2.5" ry="2.5" style="stroke:#181818;stroke-width:0.5;" width="36" x="397" y="1063"/><text fill="#000000" font-family="sans-serif" font-size="14" lengthAdjust="spacing" textLength="30" x="400" y="1083.1074">HRM</text><line style="stroke:#181818;stroke-width:0.5;" x1="398" x2="432" y1="1091.6211" y2="1091.6211"/></g><!--class GSM--><g id="elem_GSM"><rect codeLine="39" fill="#F1F1F1" height="36.6211" id="GSM" rx="2.5" ry="2.5" style="stroke:#181818;stroke-width:0.5;" width="37" x="472.5" y="1063"/><text fill="#000000" font-family="sans-serif" font-size="14" lengthAdjust="spacing" textLength="31" x="475.5" y="1083.1074">GSM</text><line style="stroke:#181818;stroke-width:0.5;" x1="473.5" x2="508.5" y1="1091.6211" y2="1091.6211"/></g><!--class Green_Spaces--><g id="elem_Green_Spaces"><rect codeLine="41" fill="#F1F1F1" height="36.6211" id="Green_Spaces" rx="2.5" ry="2.5" style="stroke:#181818;stroke-width:0.5;" width="101" x="704.5" y="1063"/><text fill="#000000" font-family="sans-serif" font-size="14" lengthAdjust="spacing" textLength="95" x="707.5" y="1083.1074">Green_Spaces</text><line style="stroke:#181818;stroke-width:0.5;" x1="705.5" x2="804.5" y1="1091.6211" y2="1091.6211"/></g><!--class Team--><g id="elem_Team"><rect codeLine="44" fill="#F1F1F1" height="55.2422" id="Team" rx="2.5" ry="2.5" style="stroke:#181818;stroke-width:0.5;" width="94" x="196" y="369"/><text fill="#000000" font-family="sans-serif" font-size="14" lengthAdjust="spacing" textLength="36" x="225" y="389.1074">Team</text><line style="stroke:#181818;stroke-width:0.5;" x1="197" x2="289" y1="397.6211" y2="397.6211"/><text fill="#000000" font-family="sans-serif" font-size="14" lengthAdjust="spacing" textLength="82" x="202" y="416.7285">collaborators</text></g><!--class Collaborators--><g id="elem_Collaborators"><rect codeLine="48" fill="#F1F1F1" height="73.8633" id="Collaborators" rx="2.5" ry="2.5" style="stroke:#181818;stroke-width:0.5;" width="96" x="256" y="216"/><text fill="#000000" font-family="sans-serif" font-size="14" lengthAdjust="spacing" textLength="85" x="261.5" y="236.1074">Collaborators</text><line style="stroke:#181818;stroke-width:0.5;" x1="257" x2="351" y1="244.6211" y2="244.6211"/><text fill="#000000" font-family="sans-serif" font-size="14" lengthAdjust="spacing" textLength="84" x="262" y="263.7285">competences</text><text fill="#000000" font-family="sans-serif" font-size="14" lengthAdjust="spacing" textLength="66" x="262" y="282.3496">profession</text></g><!--class Employees--><g id="elem_Employees"><rect codeLine="52" fill="#F1F1F1" height="129.7266" id="Employees" rx="2.5" ry="2.5" style="stroke:#181818;stroke-width:0.5;" width="101" x="253.5" y="7"/><text fill="#000000" font-family="sans-serif" font-size="14" lengthAdjust="spacing" textLength="69" x="269.5" y="27.1074">Employees</text><line style="stroke:#181818;stroke-width:0.5;" x1="254.5" x2="353.5" y1="35.6211" y2="35.6211"/><text fill="#000000" font-family="sans-serif" font-size="14" lengthAdjust="spacing" textLength="35" x="259.5" y="54.7285">name</text><text fill="#000000" font-family="sans-serif" font-size="14" lengthAdjust="spacing" textLength="68" x="259.5" y="73.3496">vatNumber</text><text fill="#000000" font-family="sans-serif" font-size="14" lengthAdjust="spacing" textLength="47" x="259.5" y="91.9707">website</text><text fill="#000000" font-family="sans-serif" font-size="14" lengthAdjust="spacing" textLength="89" x="259.5" y="110.5918">phoneNumber</text><text fill="#000000" font-family="sans-serif" font-size="14" lengthAdjust="spacing" textLength="33" x="259.5" y="129.2129">email</text></g><!--class Task--><g id="elem_Task"><rect codeLine="60" fill="#F1F1F1" height="148.3477" id="Task" rx="2.5" ry="2.5" style="stroke:#181818;stroke-width:0.5;" width="100" x="630" y="503"/><text fill="#000000" font-family="sans-serif" font-size="14" lengthAdjust="spacing" textLength="31" x="664.5" y="523.1074">Task</text><line style="stroke:#181818;stroke-width:0.5;" x1="631" x2="729" y1="531.6211" y2="531.6211"/><text fill="#000000" font-family="sans-serif" font-size="14" lengthAdjust="spacing" textLength="61" x="636" y="550.7285">reference</text><text fill="#000000" font-family="sans-serif" font-size="14" lengthAdjust="spacing" textLength="69" x="636" y="569.3496">description</text><text fill="#000000" font-family="sans-serif" font-size="14" lengthAdjust="spacing" textLength="82" x="636" y="587.9707">informalDesc</text><text fill="#000000" font-family="sans-serif" font-size="14" lengthAdjust="spacing" textLength="88" x="636" y="606.5918">technicalDesc</text><text fill="#000000" font-family="sans-serif" font-size="14" lengthAdjust="spacing" textLength="52" x="636" y="625.2129">duration</text><text fill="#000000" font-family="sans-serif" font-size="14" lengthAdjust="spacing" textLength="26" x="636" y="643.834">cost</text></g><!--class Managers--><g id="elem_Managers"><rect codeLine="68" fill="#F1F1F1" height="111.1055" id="Managers" rx="2.5" ry="2.5" style="stroke:#181818;stroke-width:0.5;" width="69" x="380.5" y="864"/><text fill="#000000" font-family="sans-serif" font-size="14" lengthAdjust="spacing" textLength="63" x="383.5" y="884.1074">Managers</text><line style="stroke:#181818;stroke-width:0.5;" x1="381.5" x2="448.5" y1="892.6211" y2="892.6211"/><text fill="#000000" font-family="sans-serif" font-size="14" lengthAdjust="spacing" textLength="35" x="386.5" y="911.7285">name</text><text fill="#000000" font-family="sans-serif" font-size="14" lengthAdjust="spacing" textLength="33" x="386.5" y="930.3496">email</text><text fill="#000000" font-family="sans-serif" font-size="14" lengthAdjust="spacing" textLength="49" x="386.5" y="948.9707">position</text><text fill="#000000" font-family="sans-serif" font-size="14" lengthAdjust="spacing" textLength="40" x="386.5" y="967.5918">phone</text></g><!--class Organization--><g id="elem_Organization"><rect codeLine="74" fill="#F1F1F1" height="36.6211" id="Organization" rx="2.5" ry="2.5" style="stroke:#181818;stroke-width:0.5;" width="86" x="23" y="53.5"/><text fill="#000000" font-family="sans-serif" font-size="14" lengthAdjust="spacing" textLength="80" x="26" y="73.6074">Organization</text><line style="stroke:#181818;stroke-width:0.5;" x1="24" x2="108" y1="82.1211" y2="82.1211"/></g><!--link Organization to Employees--><g id="link_Organization_Employees"><path codeLine="78" d="M109.1,72 C149.69,72 210.5,72 253.38,72 " fill="none" id="Organization-Employees" style="stroke:#181818;stroke-width:1.0;"/><polygon fill="#000000" points="173.25,59.6455,164.2049,56.7066,164.2049,62.5844,173.25,59.6455" style="stroke:#000000;stroke-width:1.0;"/><text fill="#000000" font-family="sans-serif" font-size="13" lengthAdjust="spacing" textLength="21" x="177.25" y="65.0283">has</text><text fill="#000000" font-family="sans-serif" font-size="13" lengthAdjust="spacing" textLength="7" x="117.1094" y="67.625">1</text><text fill="#000000" font-family="sans-serif" font-size="13" lengthAdjust="spacing" textLength="20" x="225.6131" y="67.9754">1..*</text></g><!--link Organization to Vehicles_Machines_Equipment--><g id="link_Organization_Vehicles_Machines_Equipment"><path codeLine="79" d="M58.13,90.64 C44.75,122.29 19,191.11 19,252 C19,252 19,252 19,920.5 C19,972.79 55.75,1023.94 82.02,1053.83 " fill="none" id="Organization-Vehicles_Machines_Equipment" style="stroke:#181818;stroke-width:1.0;"/><polygon fill="#000000" points="24.124,582.144,26.8377,573.0288,20.9617,573.1745,24.124,582.144" style="stroke:#000000;stroke-width:1.0;"/><text fill="#000000" font-family="sans-serif" font-size="13" lengthAdjust="spacing" textLength="21" x="33" y="582.5283">has</text><text fill="#000000" font-family="sans-serif" font-size="13" lengthAdjust="spacing" textLength="7" x="48.0743" y="112.0522">1</text><text fill="#000000" font-family="sans-serif" font-size="13" lengthAdjust="spacing" textLength="20" x="54.1494" y="1042.9515">1..*</text></g><!--link Employees to Collaborators--><g id="link_Employees_Collaborators"><path codeLine="80" d="M304,137.12 C304,163.6 304,193.32 304,215.89 " fill="none" id="Employees-Collaborators" style="stroke:#181818;stroke-width:1.0;"/><polygon fill="#000000" points="309,181.6455,311.9389,172.6004,306.0611,172.6004,309,181.6455" style="stroke:#000000;stroke-width:1.0;"/><text fill="#000000" font-family="sans-serif" font-size="13" lengthAdjust="spacing" textLength="18" x="318" y="182.0283">are</text><text fill="#000000" font-family="sans-serif" font-size="13" lengthAdjust="spacing" textLength="7" x="296.6391" y="158.7695">1</text><text fill="#000000" font-family="sans-serif" font-size="13" lengthAdjust="spacing" textLength="5" x="298.5547" y="204.8321">*</text></g><!--link Employees to Managers--><g id="link_Employees_Managers"><path codeLine="81" d="M354.66,91.29 C415.65,116.95 510,169.92 510,252 C510,252 510,252 510,464.5 C510,611.26 461.85,779.16 434.11,863.71 " fill="none" id="Employees-Managers" style="stroke:#181818;stroke-width:1.0;"/><polygon fill="#000000" points="515.5116,468.6193,517.5096,459.3209,511.6626,459.9224,515.5116,468.6193" style="stroke:#000000;stroke-width:1.0;"/><text fill="#000000" font-family="sans-serif" font-size="13" lengthAdjust="spacing" textLength="18" x="524" y="469.0283">are</text><text fill="#000000" font-family="sans-serif" font-size="13" lengthAdjust="spacing" textLength="7" x="362.6148" y="89.9446">1</text><text fill="#000000" font-family="sans-serif" font-size="13" lengthAdjust="spacing" textLength="5" x="431.1343" y="852.9143">*</text></g><!--link Managers to GSM--><g id="link_Managers_GSM"><path codeLine="82" d="M440.94,975.12 C455.48,1005.71 472.64,1041.84 482.62,1062.86 " fill="none" id="Managers-GSM" style="stroke:#181818;stroke-width:1.0;"/><polygon fill="#000000" points="469.1454,1019.1618,467.9189,1009.7307,462.6097,1012.2528,469.1454,1019.1618" style="stroke:#000000;stroke-width:1.0;"/><text fill="#000000" font-family="sans-serif" font-size="13" lengthAdjust="spacing" textLength="21" x="476" y="1020.0283">has</text><text fill="#000000" font-family="sans-serif" font-size="13" lengthAdjust="spacing" textLength="7" x="436.6749" y="996.9743">1</text><text fill="#000000" font-family="sans-serif" font-size="13" lengthAdjust="spacing" textLength="7" x="471.9818" y="1051.6793">1</text></g><!--link Managers to HRM--><g id="link_Managers_HRM"><path codeLine="83" d="M412.29,975.02 C411.81,990.82 411.58,1008.1 412,1024 C412.35,1037.06 413.14,1051.8 413.83,1062.95 " fill="none" id="Managers-HRM" style="stroke:#181818;stroke-width:1.0;"/><polygon fill="#000000" points="417.0876,1019.6447,419.8676,1010.5496,413.9907,1010.6525,417.0876,1019.6447" style="stroke:#000000;stroke-width:1.0;"/><text fill="#000000" font-family="sans-serif" font-size="13" lengthAdjust="spacing" textLength="21" x="426" y="1020.0283">has</text><text fill="#000000" font-family="sans-serif" font-size="13" lengthAdjust="spacing" textLength="7" x="404.4943" y="997.2628">1</text><text fill="#000000" font-family="sans-serif" font-size="13" lengthAdjust="spacing" textLength="7" x="405.3998" y="1051.7968">1</text></g><!--link Managers to FM--><g id="link_Managers_FM"><path codeLine="84" d="M382.19,975.28 C376.84,985.04 371.56,995.21 367,1005 C358.03,1024.26 349.84,1047.27 344.67,1062.78 " fill="none" id="Managers-FM" style="stroke:#181818;stroke-width:1.0;"/><polygon fill="#000000" points="370.0295,1019.2409,376.2952,1012.086,370.8931,1009.7696,370.0295,1019.2409" style="stroke:#000000;stroke-width:1.0;"/><text fill="#000000" font-family="sans-serif" font-size="13" lengthAdjust="spacing" textLength="21" x="381" y="1020.0283">has</text><text fill="#000000" font-family="sans-serif" font-size="13" lengthAdjust="spacing" textLength="7" x="370.7647" y="997.1538">1</text><text fill="#000000" font-family="sans-serif" font-size="13" lengthAdjust="spacing" textLength="7" x="338.3346" y="1051.5748">1</text></g><!--link Managers to Team--><g id="link_Managers_Team"><path codeLine="85" d="M380.38,893.78 C360.68,878.35 336.69,857.07 320,834 C281.97,781.42 277.15,763.1 262,700 C238.11,600.48 239.55,477.57 241.63,424.26 " fill="none" id="Managers-Team" style="stroke:#181818;stroke-width:1.0;"/><polygon fill="#000000" points="265.583,685.8505,265.3279,695.3576,270.9648,693.6919,265.583,685.8505" style="stroke:#000000;stroke-width:1.0;"/><text fill="#000000" font-family="sans-serif" font-size="13" lengthAdjust="spacing" textLength="43" x="276" y="696.0283">creates</text><text fill="#000000" font-family="sans-serif" font-size="13" lengthAdjust="spacing" textLength="7" x="365.5178" y="883.7696">1</text><text fill="#000000" font-family="sans-serif" font-size="13" lengthAdjust="spacing" textLength="20" x="219.1428" y="446.2255">1..*</text></g><!--link Managers to Green_Spaces--><g id="link_Managers_Green_Spaces"><path codeLine="86" d="M449.76,940.69 C488.09,962.56 551.91,997.84 609,1024 C640.5,1038.44 676.84,1052.51 705.38,1063 " fill="none" id="Managers-Green_Spaces" style="stroke:#181818;stroke-width:1.0;"/><polygon fill="#000000" points="618.5103,1016.8036,611.6196,1010.2485,609.0826,1015.5506,618.5103,1016.8036" style="stroke:#000000;stroke-width:1.0;"/><text fill="#000000" font-family="sans-serif" font-size="13" lengthAdjust="spacing" textLength="53" x="623" y="1020.0283">manages</text><text fill="#000000" font-family="sans-serif" font-size="13" lengthAdjust="spacing" textLength="7" x="457.6511" y="940.3548">1</text><text fill="#000000" font-family="sans-serif" font-size="13" lengthAdjust="spacing" textLength="20" x="676.6233" y="1056.1119">1..*</text></g><!--link Managers to Collaborators--><g id="link_Managers_Collaborators"><path codeLine="87" d="M407.09,863.73 C388.6,736.53 342.52,424.03 321,320 C318.99,310.27 316.46,299.82 313.98,290.16 " fill="none" id="Managers-Collaborators" style="stroke:#181818;stroke-width:1.0;"/><polygon fill="#000000" points="379.1988,572.2101,377.7472,581.6092,383.5491,580.6674,379.1988,572.2101" style="stroke:#000000;stroke-width:1.0;"/><text fill="#000000" font-family="sans-serif" font-size="13" lengthAdjust="spacing" textLength="93" x="389" y="582.5283">hire and register</text><text fill="#000000" font-family="sans-serif" font-size="13" lengthAdjust="spacing" textLength="7" x="398.6994" y="852.9367">1</text><text fill="#000000" font-family="sans-serif" font-size="13" lengthAdjust="spacing" textLength="5" x="310.2189" y="311.7862">*</text></g><!--link Managers to Vehicles_Machines_Equipment--><g id="link_Managers_Vehicles_Machines_Equipment"><path codeLine="88" d="M380.38,938.54 C326.36,966.7 221.72,1021.23 159.04,1053.9 " fill="none" id="Managers-Vehicles_Machines_Equipment" style="stroke:#181818;stroke-width:1.0;"/><polygon fill="#000000" points="253.5661,1016.9564,262.9454,1015.3821,260.2288,1010.1697,253.5661,1016.9564" style="stroke:#000000;stroke-width:1.0;"/><text fill="#000000" font-family="sans-serif" font-size="13" lengthAdjust="spacing" textLength="42" x="267" y="1020.0283">choose</text><text fill="#000000" font-family="sans-serif" font-size="13" lengthAdjust="spacing" textLength="7" x="365.5178" y="937.7613">1</text><text fill="#000000" font-family="sans-serif" font-size="13" lengthAdjust="spacing" textLength="5" x="165.2649" y="1042.5858">*</text></g><!--link Vehicles_Machines_Equipment to Team--><g id="link_Vehicles_Machines_Equipment_Team"><path codeLine="89" d="M108,1053.89 C108,1022.14 108,967.44 108,920.5 C108,576 108,576 108,576 C108,511.5 164.76,455.6 204.68,424.26 " fill="none" id="Vehicles_Machines_Equipment-Team" style="stroke:#181818;stroke-width:1.0;"/><polygon fill="#000000" points="113.7589,752.7034,109.4812,761.1977,115.291,762.0898,113.7589,752.7034" style="stroke:#000000;stroke-width:1.0;"/><text fill="#000000" font-family="sans-serif" font-size="13" lengthAdjust="spacing" textLength="91" x="122" y="763.0283">are attributed to</text><text fill="#000000" font-family="sans-serif" font-size="13" lengthAdjust="spacing" textLength="5" x="102.4219" y="1042.5735">*</text><text fill="#000000" font-family="sans-serif" font-size="13" lengthAdjust="spacing" textLength="7" x="188.5319" y="446.2255">1</text></g><!--link Schedule to Managers--><g id="link_Schedule_Managers"><path codeLine="90" d="M577.46,785.35 C562.04,800.06 542.3,818.43 524,834 C499.74,854.63 471.27,876.64 449.51,893.01 " fill="none" id="Schedule-Managers" style="stroke:#181818;stroke-width:1.0;"/><polygon fill="#000000" points="545.1742,827.8647,553.9873,824.2899,550.203,819.7924,545.1742,827.8647" style="stroke:#000000;stroke-width:1.0;"/><text fill="#000000" font-family="sans-serif" font-size="13" lengthAdjust="spacing" textLength="85" x="558" y="830.0283">is managed by</text><text fill="#000000" font-family="sans-serif" font-size="13" lengthAdjust="spacing" textLength="7" x="563.67" y="807.3352">1</text></g><!--link Green_Spaces to Garden--><g id="link_Green_Spaces_Garden"><path codeLine="91" d="M738.53,1100.03 C717.45,1122.47 680.72,1161.58 656.13,1187.75 " fill="none" id="Green_Spaces-Garden" style="stroke:#181818;stroke-width:1.0;"/><polygon fill="#000000" points="701.5767,1152.2898,709.9116,1147.7094,705.6274,1143.685,701.5767,1152.2898" style="stroke:#000000;stroke-width:1.0;"/><text fill="#000000" font-family="sans-serif" font-size="13" lengthAdjust="spacing" textLength="21" x="714" y="1154.0283">has</text><text fill="#000000" font-family="sans-serif" font-size="13" lengthAdjust="spacing" textLength="7" x="725.9134" y="1121.7547">1</text><text fill="#000000" font-family="sans-serif" font-size="13" lengthAdjust="spacing" textLength="5" x="656.0803" y="1176.854">*</text></g><!--link Green_Spaces to Medium_Sized--><g id="link_Green_Spaces_Medium_Sized"><path codeLine="92" d="M755,1100.03 C755,1122.47 755,1161.58 755,1187.75 " fill="none" id="Green_Spaces-Medium_Sized" style="stroke:#181818;stroke-width:1.0;"/><polygon fill="#000000" points="760,1153.6455,762.9389,1144.6004,757.0611,1144.6004,760,1153.6455" style="stroke:#000000;stroke-width:1.0;"/><text fill="#000000" font-family="sans-serif" font-size="13" lengthAdjust="spacing" textLength="21" x="769" y="1154.0283">has</text><text fill="#000000" font-family="sans-serif" font-size="13" lengthAdjust="spacing" textLength="7" x="747.0156" y="1121.7547">1</text><text fill="#000000" font-family="sans-serif" font-size="13" lengthAdjust="spacing" textLength="5" x="749.4531" y="1176.854">*</text></g><!--link Green_Spaces to Large_Sized--><g id="link_Green_Spaces_Large_Sized"><path codeLine="93" d="M771.73,1100.03 C793.15,1122.47 830.48,1161.58 855.46,1187.75 " fill="none" id="Green_Spaces-Large_Sized" style="stroke:#181818;stroke-width:1.0;"/><polygon fill="#000000" points="833.4523,1152.2623,829.3329,1143.6902,825.0811,1147.7487,833.4523,1152.2623" style="stroke:#000000;stroke-width:1.0;"/><text fill="#000000" font-family="sans-serif" font-size="13" lengthAdjust="spacing" textLength="21" x="839" y="1154.0283">has</text><text fill="#000000" font-family="sans-serif" font-size="13" lengthAdjust="spacing" textLength="7" x="768.4509" y="1121.7547">1</text><text fill="#000000" font-family="sans-serif" font-size="13" lengthAdjust="spacing" textLength="5" x="844.3263" y="1176.854">*</text></g><!--link Green_Spaces to Task--><g id="link_Green_Spaces_Task"><path codeLine="94" d="M758.29,1062.99 C765.8,1020.34 782.54,907.72 769,815 C760.02,753.5 751.31,739.01 729,681 C725.23,671.2 720.93,661.05 716.46,651.1 " fill="none" id="Green_Spaces-Task" style="stroke:#181818;stroke-width:1.0;"/><polygon fill="#000000" points="775.4948,819.6711,773.4848,828.9668,779.3326,828.373,775.4948,819.6711" style="stroke:#000000;stroke-width:1.0;"/><text fill="#000000" font-family="sans-serif" font-size="13" lengthAdjust="spacing" textLength="56" x="785" y="830.0283">originates</text><text fill="#000000" font-family="sans-serif" font-size="13" lengthAdjust="spacing" textLength="20" x="736.2351" y="1051.8491">1..*</text><text fill="#000000" font-family="sans-serif" font-size="13" lengthAdjust="spacing" textLength="5" x="714.8029" y="673.2565">*</text></g><!--link Task to Green_Spaces--><g id="link_Task_Green_Spaces"><path codeLine="97" d="M681.23,651.18 C682.9,702.57 686.83,772.78 696,834 C709.04,921.04 737.71,1022.53 749.64,1062.77 " fill="none" id="Task-Green_Spaces" style="stroke:#181818;stroke-width:1.0;"/><polygon fill="#000000" points="701.8198,829.5778,703.2359,820.1733,697.4376,821.137,701.8198,829.5778" style="stroke:#000000;stroke-width:1.0;"/><text fill="#000000" font-family="sans-serif" font-size="13" lengthAdjust="spacing" textLength="50" x="710" y="830.0283">solved in</text><text fill="#000000" font-family="sans-serif" font-size="13" lengthAdjust="spacing" textLength="20" x="660.3667" y="673.3443">1..*</text><text fill="#000000" font-family="sans-serif" font-size="13" lengthAdjust="spacing" textLength="7" x="740.0374" y="1051.8979">1</text></g><!--link Collaborators to Team--><g id="link_Collaborators_Team"><path codeLine="95" d="M284.24,290.24 C279.33,299.8 274.26,310.19 270,320 C263.07,335.96 256.47,354.34 251.53,368.96 " fill="none" id="Collaborators-Team" style="stroke:#181818;stroke-width:1.0;"/><polygon fill="#000000" points="273.0814,334.2628,279.2661,327.0378,273.8382,324.7824,273.0814,334.2628" style="stroke:#000000;stroke-width:1.0;"/><text fill="#000000" font-family="sans-serif" font-size="13" lengthAdjust="spacing" textLength="32" x="284" y="335.0283">make</text><text fill="#000000" font-family="sans-serif" font-size="13" lengthAdjust="spacing" textLength="20" x="259.311" y="311.8794">2..*</text><text fill="#000000" font-family="sans-serif" font-size="13" lengthAdjust="spacing" textLength="7" x="245.6932" y="357.6597">1</text></g><!--link Team to Task--><g id="link_Team_Task"><path codeLine="96" d="M290.24,422.09 C320.65,437.51 361.22,457.38 398,473 C477.87,506.93 573.14,540.3 629.98,559.48 " fill="none" id="Team-Task" style="stroke:#181818;stroke-width:1.0;"/><polygon fill="#000000" points="398.3647,461.771,405.6482,467.8866,407.8519,462.4374,398.3647,461.771" style="stroke:#000000;stroke-width:1.0;"/><text fill="#000000" font-family="sans-serif" font-size="13" lengthAdjust="spacing" textLength="54" x="412" y="469.0283">attributed</text><text fill="#000000" font-family="sans-serif" font-size="13" lengthAdjust="spacing" textLength="7" x="298.0096" y="421.739">1</text><text fill="#000000" font-family="sans-serif" font-size="13" lengthAdjust="spacing" textLength="20" x="601.9148" y="553.0081">1..*</text></g><!--link Task to Schedule--><g id="link_Task_Schedule"><path codeLine="98" d="M632.46,651.28 C627.39,661.02 622.72,671.08 619,681 C613.15,696.6 609.67,714.97 607.65,729.68 " fill="none" id="Task-Schedule" style="stroke:#181818;stroke-width:1.0;"/><polygon fill="#000000" points="622.4915,695.4125,628.0224,687.6756,622.4185,685.9022,622.4915,695.4125" style="stroke:#000000;stroke-width:1.0;"/><text fill="#000000" font-family="sans-serif" font-size="13" lengthAdjust="spacing" textLength="43" x="633" y="696.0283">goes to</text><text fill="#000000" font-family="sans-serif" font-size="13" lengthAdjust="spacing" textLength="5" x="622.5342" y="673.4542">*</text><text fill="#000000" font-family="sans-serif" font-size="13" lengthAdjust="spacing" textLength="7" x="600.4641" y="718.7687">1</text></g><!--link Portal to Malfunctions--><g id="link_Portal_Malfunctions"><path codeLine="99" d="M689.48,278.92 C672.11,289.7 653.51,303.62 640,320 C625.87,337.14 617.08,361.42 612.37,377.78 " fill="none" id="Portal-Malfunctions" style="stroke:#181818;stroke-width:1.0;"/><polygon fill="#000000" points="641.9249,333.588,649.8052,328.2635,645.1705,324.6484,641.9249,333.588" style="stroke:#000000;stroke-width:1.0;"/><text fill="#000000" font-family="sans-serif" font-size="13" lengthAdjust="spacing" textLength="47" x="654" y="335.0283">receives</text><text fill="#000000" font-family="sans-serif" font-size="13" lengthAdjust="spacing" textLength="7" x="674.5144" y="278.6195">1</text><text fill="#000000" font-family="sans-serif" font-size="13" lengthAdjust="spacing" textLength="5" x="607.9427" y="366.5748">*</text></g><!--link Portal to Flaws--><g id="link_Portal_Flaws"><path codeLine="100" d="M754.83,280.69 C762.17,292.6 770.73,306.87 778,320 C788.8,339.51 800.17,362.47 807.63,377.9 " fill="none" id="Portal-Flaws" style="stroke:#181818;stroke-width:1.0;"/><polygon fill="#000000" points="794.3865,334.0392,792.6519,324.6882,787.4867,327.4936,794.3865,334.0392" style="stroke:#000000;stroke-width:1.0;"/><text fill="#000000" font-family="sans-serif" font-size="13" lengthAdjust="spacing" textLength="47" x="801" y="335.0283">receives</text><text fill="#000000" font-family="sans-serif" font-size="13" lengthAdjust="spacing" textLength="7" x="750.7459" y="302.6402">1</text><text fill="#000000" font-family="sans-serif" font-size="13" lengthAdjust="spacing" textLength="5" x="799.3011" y="366.7315">*</text></g><!--link Portal to Comments--><g id="link_Portal_Comments"><path codeLine="101" d="M724.88,280.61 C719.78,292.38 714.55,306.57 712,320 C708.28,339.61 712.42,362.36 716.45,377.71 " fill="none" id="Portal-Comments" style="stroke:#181818;stroke-width:1.0;"/><polygon fill="#000000" points="716.5675,334.6268,720.2778,325.8698,714.422,325.3614,716.5675,334.6268" style="stroke:#000000;stroke-width:1.0;"/><text fill="#000000" font-family="sans-serif" font-size="13" lengthAdjust="spacing" textLength="47" x="726" y="335.0283">receives</text><text fill="#000000" font-family="sans-serif" font-size="13" lengthAdjust="spacing" textLength="7" x="714.0366" y="302.9944">1</text><text fill="#000000" font-family="sans-serif" font-size="13" lengthAdjust="spacing" textLength="5" x="709.0853" y="366.8203">*</text></g><!--link Outside_User to Portal--><g id="link_Outside_User_Portal"><path codeLine="102" d="M791.08,118.17 C777.65,152.04 759.72,197.23 748.52,225.47 " fill="none" id="Outside_User-Portal" style="stroke:#181818;stroke-width:1.0;"/><polygon fill="#000000" points="774.1565,181.2932,780.2233,173.969,774.7596,171.8018,774.1565,181.2932" style="stroke:#000000;stroke-width:1.0;"/><text fill="#000000" font-family="sans-serif" font-size="13" lengthAdjust="spacing" textLength="55" x="785" y="182.0283">reports to</text><text fill="#000000" font-family="sans-serif" font-size="13" lengthAdjust="spacing" textLength="7" x="780.8001" y="140.5549">1</text><text fill="#000000" font-family="sans-serif" font-size="13" lengthAdjust="spacing" textLength="7" x="743.1434" y="214.172">1</text></g><!--link Outside_User to Green_Spaces--><g id="link_Outside_User_Green_Spaces"><path codeLine="103" d="M847.9,118.29 C873.39,152.64 902,202.27 902,252 C902,252 902,252 902,920.5 C902,986.89 832.52,1037.62 789.09,1062.84 " fill="none" id="Outside_User-Green_Spaces" style="stroke:#181818;stroke-width:1.0;"/><polygon fill="#000000" points="906.6893,582.1358,910.1846,573.2909,904.3181,572.9256,906.6893,582.1358" style="stroke:#000000;stroke-width:1.0;"/><text fill="#000000" font-family="sans-serif" font-size="13" lengthAdjust="spacing" textLength="21" x="916" y="582.5283">use</text><text fill="#000000" font-family="sans-serif" font-size="13" lengthAdjust="spacing" textLength="5" x="848.2462" y="140.3514">*</text><text fill="#000000" font-family="sans-serif" font-size="13" lengthAdjust="spacing" textLength="20" x="776.4676" y="1051.6532">1..*</text></g><!--link Malfunctions to Task--><g id="link_Malfunctions_Task"><path codeLine="104" d="M615.17,415.27 C623.42,435.73 637.5,470.65 650.44,502.72 " fill="none" id="Malfunctions-Task" style="stroke:#181818;stroke-width:1.0;"/><polygon fill="#000000" points="643.8702,468.2826,643.2126,458.7948,637.7614,460.9933,643.8702,468.2826" style="stroke:#000000;stroke-width:1.0;"/><text fill="#000000" font-family="sans-serif" font-size="13" lengthAdjust="spacing" textLength="43" x="651" y="469.0283">creates</text><text fill="#000000" font-family="sans-serif" font-size="13" lengthAdjust="spacing" textLength="5" x="611.4251" y="436.7172">*</text><text fill="#000000" font-family="sans-serif" font-size="13" lengthAdjust="spacing" textLength="5" x="642.3843" y="491.8557">*</text></g><!--link Flaws to Task--><g id="link_Flaws_Task"><path codeLine="105" d="M802.46,415.27 C785.67,437.31 756.07,476.15 730.19,510.13 " fill="none" id="Flaws-Task" style="stroke:#181818;stroke-width:1.0;"/><polygon fill="#000000" points="773.9699,467.6228,781.7892,462.2089,777.1136,458.6468,773.9699,467.6228" style="stroke:#000000;stroke-width:1.0;"/><text fill="#000000" font-family="sans-serif" font-size="13" lengthAdjust="spacing" textLength="43" x="786" y="469.0283">creates</text><text fill="#000000" font-family="sans-serif" font-size="13" lengthAdjust="spacing" textLength="5" x="793.1493" y="436.7172">*</text><text fill="#000000" font-family="sans-serif" font-size="13" lengthAdjust="spacing" textLength="5" x="737.9288" y="496.0842">*</text></g><!--SRC=[XLLBRzim3BxxLn2v52YmOjtH60eCMziDMDTXwNOD59cnXUZXINA3DDX_dnwHB2TDweCXaHyfyYCbcZMJFT54W51IqKuhWM3rW9N9cfxGDMbnRhSSGIErHBQy19YED6h3P0ihmWrM5wEACubssoCeRJjLNN1SMR0AD6ix2mtpxfYIXJFAYJ6VhDLiELZyHfMSinU4zrN76WJAD7LdXxL0vx8nLR20ny4Q9rtyDgXt5RXF4e5XWO8m7bQzGswKRgf_UwkVBYx28zuIimPABBPARpFYWV3L84EKPfU4Tvninjrd9GHAEmhcjCDcu3ZwDTdVFT4DogXfq53D-i10FWyRDeY5JxevZVfET8jlWVvWnnnRPl50QESAOHQtVmVM-rXF6zqzxFBwwwzYSpylDnfHBkQkDT3igYn-GYAYQweu9qkbYLNQ9v-fAiG9ANgqA9sdM2EjLcXC6TEjwBdQ8XeugEmpiJy6iKGTTXjS6cQZfk-Kn48NUo37yUHh7PrfNA7snnzHulTChfGMX7znybXDf9raj90qWqiduQaojkWTwIwEFWgxQ4Zb8aws8UPi_AXR8jbBS1qehae9pAvdyCxzhwukPmL1DNJ4mCqHDa7Fz4Go7Ps5CvobEs5Ik1g8nbF8d7H2PK42NSzSBwNJNj6wjZkZlJkZz1dw7go1QdGt-H2LGMN_rY02v3NmvUmWySuzMK1auzgcPSQYVjNeBCkqKyfuOiwW0fCntvYFfvAaLx7nJ-XDbPwPb7-AemPczZariDmwP9bkKQhu5YKwIz2aeCMBz1QsU9TEG4E_xj7-5jPkDB2MoNsr9dJ3x8E7Zpo0hzNQS-TtqxBx6rsN77siWYogem-Orjqe_ko0J7g70PjPpzpMq2eNMI0yJeiYtt8ur7us8diEQHmXmyGu3qbZP88gnrfn2VQ32posTyjzW5FqPK7FDF71n8ivHk_HCOnObF7-XCYpittLe4ICtty0]--></g></svg>