<?xml version="1.0" encoding="us-ascii" standalone="no"?><svg xmlns="http://www.w3.org/2000/svg" xmlns:xlink="http://www.w3.org/1999/xlink" contentStyleType="text/css" height="2080px" preserveAspectRatio="none" style="width:1090px;height:2080px;background:#FFFFFF;" version="1.1" viewBox="0 0 1090 2080" width="1090.7px" zoomAndPan="magnify"><defs/><g><!--class Portal--><g id="elem_Portal"><rect codeLine="15" fill="#F1F1F1" height="96.0223" id="Portal" rx="3.25" ry="3.25" style="stroke:#181818;stroke-width:0.65;" width="118.3" x="387.2565" y="231.4"/><text fill="#000000" font-family="sans-serif" font-size="18.2" lengthAdjust="spacing" textLength="48.1" x="422.3565" y="257.5396">Portal</text><line style="stroke:#181818;stroke-width:0.65;" x1="388.5565" x2="504.2565" y1="268.6074" y2="268.6074"/><text fill="#000000" font-family="sans-serif" font-size="18.2" lengthAdjust="spacing" textLength="83.2" x="395.0565" y="293.4471">comments</text><text fill="#000000" font-family="sans-serif" font-size="18.2" lengthAdjust="spacing" textLength="102.7" x="395.0565" y="317.6545">malfunctions</text></g><!--class Agenda--><g id="elem_Agenda"><rect codeLine="19" fill="#F1F1F1" height="71.8148" id="Agenda" rx="3.25" ry="3.25" style="stroke:#181818;stroke-width:0.65;" width="71.5" x="487.3565" y="629.85"/><text fill="#000000" font-family="sans-serif" font-size="18.2" lengthAdjust="spacing" textLength="63.7" x="491.2565" y="655.9896">Agenda</text><line style="stroke:#181818;stroke-width:0.65;" x1="488.6565" x2="557.5565" y1="667.0574" y2="667.0574"/><text fill="#000000" font-family="sans-serif" font-size="18.2" lengthAdjust="spacing" textLength="42.9" x="495.1565" y="691.8971">tasks</text></g><!--class Garden--><g id="elem_Garden"><rect codeLine="22" fill="#F1F1F1" height="71.8148" id="Garden" rx="3.25" ry="3.25" style="stroke:#181818;stroke-width:0.65;" width="105.3" x="109.0565" y="1999.4"/><text fill="#000000" font-family="sans-serif" font-size="18.2" lengthAdjust="spacing" textLength="62.4" x="130.5065" y="2025.5396">Garden</text><line style="stroke:#181818;stroke-width:0.65;" x1="110.3565" x2="213.0565" y1="2036.6074" y2="2036.6074"/><text fill="#000000" font-family="sans-serif" font-size="18.2" lengthAdjust="spacing" textLength="89.7" x="116.8565" y="2061.4471">description</text></g><!--class Medium_Sized--><g id="elem_Medium_Sized"><rect codeLine="25" fill="#F1F1F1" height="71.8148" id="Medium_Sized" rx="3.25" ry="3.25" style="stroke:#181818;stroke-width:0.65;" width="126.1" x="259.8565" y="1999.4"/><text fill="#000000" font-family="sans-serif" font-size="18.2" lengthAdjust="spacing" textLength="118.3" x="263.7565" y="2025.5396">Medium_Sized</text><line style="stroke:#181818;stroke-width:0.65;" x1="261.1565" x2="384.6565" y1="2036.6074" y2="2036.6074"/><text fill="#000000" font-family="sans-serif" font-size="18.2" lengthAdjust="spacing" textLength="89.7" x="267.6565" y="2061.4471">description</text></g><!--class Large_Sized--><g id="elem_Large_Sized"><rect codeLine="28" fill="#F1F1F1" height="71.8148" id="Large_Sized" rx="3.25" ry="3.25" style="stroke:#181818;stroke-width:0.65;" width="110.5" x="431.4565" y="1999.4"/><text fill="#000000" font-family="sans-serif" font-size="18.2" lengthAdjust="spacing" textLength="102.7" x="435.3565" y="2025.5396">Large_Sized</text><line style="stroke:#181818;stroke-width:0.65;" x1="432.7565" x2="540.6565" y1="2036.6074" y2="2036.6074"/><text fill="#000000" font-family="sans-serif" font-size="18.2" lengthAdjust="spacing" textLength="89.7" x="439.2565" y="2061.4471">description</text></g><!--class Vehicles_Machines_Equipment--><g id="elem_Vehicles_Machines_Equipment"><rect codeLine="31" fill="#F1F1F1" height="71.8148" id="Vehicles_Machines_Equipment" rx="3.25" ry="3.25" style="stroke:#181818;stroke-width:0.65;" width="262.6" x="819.5065" y="1160.25"/><text fill="#000000" font-family="sans-serif" font-size="18.2" lengthAdjust="spacing" textLength="254.8" x="823.4065" y="1186.3896">Vehicles_Machines_Equipment</text><line style="stroke:#181818;stroke-width:0.65;" x1="820.8065" x2="1080.8065" y1="1197.4574" y2="1197.4574"/><text fill="#000000" font-family="sans-serif" font-size="18.2" lengthAdjust="spacing" textLength="89.7" x="827.3065" y="1222.2971">description</text></g><!--class FM--><g id="elem_FM"><rect codeLine="34" fill="#F1F1F1" height="47.6074" id="FM" rx="3.25" ry="3.25" style="stroke:#181818;stroke-width:0.65;" width="33.8" x="553.0065" y="1171.95"/><text fill="#000000" font-family="sans-serif" font-size="18.2" lengthAdjust="spacing" textLength="26" x="556.9065" y="1198.0896">FM</text><line style="stroke:#181818;stroke-width:0.65;" x1="554.3065" x2="585.5065" y1="1209.1574" y2="1209.1574"/></g><!--class HRM--><g id="elem_HRM"><rect codeLine="36" fill="#F1F1F1" height="47.6074" id="HRM" rx="3.25" ry="3.25" style="stroke:#181818;stroke-width:0.65;" width="46.8" x="632.3065" y="1171.95"/><text fill="#000000" font-family="sans-serif" font-size="18.2" lengthAdjust="spacing" textLength="39" x="636.2065" y="1198.0896">HRM</text><line style="stroke:#181818;stroke-width:0.65;" x1="633.6065" x2="677.8065" y1="1209.1574" y2="1209.1574"/></g><!--class GSM--><g id="elem_GSM"><rect codeLine="38" fill="#F1F1F1" height="47.6074" id="GSM" rx="3.25" ry="3.25" style="stroke:#181818;stroke-width:0.65;" width="48.1" x="725.2565" y="1171.95"/><text fill="#000000" font-family="sans-serif" font-size="18.2" lengthAdjust="spacing" textLength="40.3" x="729.1565" y="1198.0896">GSM</text><line style="stroke:#181818;stroke-width:0.65;" x1="726.5565" x2="772.0565" y1="1209.1574" y2="1209.1574"/></g><!--class Green_Spaces--><g id="elem_Green_Spaces"><rect codeLine="40" fill="#F1F1F1" height="47.6074" id="Green_Spaces" rx="3.25" ry="3.25" style="stroke:#181818;stroke-width:0.65;" width="131.3" x="257.2565" y="1848.6"/><text fill="#000000" font-family="sans-serif" font-size="18.2" lengthAdjust="spacing" textLength="123.5" x="261.1565" y="1874.7396">Green_Spaces</text><line style="stroke:#181818;stroke-width:0.65;" x1="258.5565" x2="387.2565" y1="1885.8074" y2="1885.8074"/></g><!--class Team--><g id="elem_Team"><rect codeLine="43" fill="#F1F1F1" height="71.8148" id="Team" rx="3.25" ry="3.25" style="stroke:#181818;stroke-width:0.65;" width="126.1" x="419.7565" y="1394.9"/><text fill="#000000" font-family="sans-serif" font-size="18.2" lengthAdjust="spacing" textLength="46.8" x="459.4065" y="1421.0396">Team</text><line style="stroke:#181818;stroke-width:0.65;" x1="421.0565" x2="544.5565" y1="1432.1074" y2="1432.1074"/><text fill="#000000" font-family="sans-serif" font-size="18.2" lengthAdjust="spacing" textLength="110.5" x="427.5565" y="1456.9471">Collaborators</text></g><!--class Collaborators--><g id="elem_Collaborators"><rect codeLine="47" fill="#F1F1F1" height="192.852" id="Collaborators" rx="3.25" ry="3.25" style="stroke:#181818;stroke-width:0.65;" width="139.1" x="75.2565" y="1099.8"/><text fill="#000000" font-family="sans-serif" font-size="18.2" lengthAdjust="spacing" textLength="110.5" x="89.5565" y="1125.9396">Collaborators</text><line style="stroke:#181818;stroke-width:0.65;" x1="76.5565" x2="213.0565" y1="1137.0074" y2="1137.0074"/><text fill="#000000" font-family="sans-serif" font-size="18.2" lengthAdjust="spacing" textLength="45.5" x="83.0565" y="1161.8471">name</text><text fill="#000000" font-family="sans-serif" font-size="18.2" lengthAdjust="spacing" textLength="72.8" x="83.0565" y="1186.0545">birthdate</text><text fill="#000000" font-family="sans-serif" font-size="18.2" lengthAdjust="spacing" textLength="123.5" x="83.0565" y="1210.2619">admission date</text><text fill="#000000" font-family="sans-serif" font-size="18.2" lengthAdjust="spacing" textLength="66.3" x="83.0565" y="1234.4693">address</text><text fill="#000000" font-family="sans-serif" font-size="18.2" lengthAdjust="spacing" textLength="92.3" x="83.0565" y="1258.6768">ID doc type</text><text fill="#000000" font-family="sans-serif" font-size="18.2" lengthAdjust="spacing" textLength="84.5" x="83.0565" y="1282.8842">ID number</text></g><!--class Employees--><g id="elem_Employees"><rect codeLine="56" fill="#F1F1F1" height="168.6445" id="Employees" rx="3.25" ry="3.25" style="stroke:#181818;stroke-width:0.65;" width="131.3" x="310.5565" y="581.1"/><text fill="#000000" font-family="sans-serif" font-size="18.2" lengthAdjust="spacing" textLength="89.7" x="331.3565" y="607.2396">Employees</text><line style="stroke:#181818;stroke-width:0.65;" x1="311.8565" x2="440.5565" y1="618.3074" y2="618.3074"/><text fill="#000000" font-family="sans-serif" font-size="18.2" lengthAdjust="spacing" textLength="45.5" x="318.3565" y="643.1471">name</text><text fill="#000000" font-family="sans-serif" font-size="18.2" lengthAdjust="spacing" textLength="88.4" x="318.3565" y="667.3545">vatNumber</text><text fill="#000000" font-family="sans-serif" font-size="18.2" lengthAdjust="spacing" textLength="61.1" x="318.3565" y="691.5619">website</text><text fill="#000000" font-family="sans-serif" font-size="18.2" lengthAdjust="spacing" textLength="115.7" x="318.3565" y="715.7693">phoneNumber</text><text fill="#000000" font-family="sans-serif" font-size="18.2" lengthAdjust="spacing" textLength="42.9" x="318.3565" y="739.9768">email</text></g><!--class Task--><g id="elem_Task"><rect codeLine="64" fill="#F1F1F1" height="192.852" id="Task" rx="3.25" ry="3.25" style="stroke:#181818;stroke-width:0.65;" width="130" x="385.3065" y="1561.3"/><text fill="#000000" font-family="sans-serif" font-size="18.2" lengthAdjust="spacing" textLength="40.3" x="430.1565" y="1587.4396">Task</text><line style="stroke:#181818;stroke-width:0.65;" x1="386.6065" x2="514.0065" y1="1598.5074" y2="1598.5074"/><text fill="#000000" font-family="sans-serif" font-size="18.2" lengthAdjust="spacing" textLength="79.3" x="393.1065" y="1623.3471">reference</text><text fill="#000000" font-family="sans-serif" font-size="18.2" lengthAdjust="spacing" textLength="89.7" x="393.1065" y="1647.5545">description</text><text fill="#000000" font-family="sans-serif" font-size="18.2" lengthAdjust="spacing" textLength="106.6" x="393.1065" y="1671.7619">informalDesc</text><text fill="#000000" font-family="sans-serif" font-size="18.2" lengthAdjust="spacing" textLength="114.4" x="393.1065" y="1695.9693">technicalDesc</text><text fill="#000000" font-family="sans-serif" font-size="18.2" lengthAdjust="spacing" textLength="67.6" x="393.1065" y="1720.1768">duration</text><text fill="#000000" font-family="sans-serif" font-size="18.2" lengthAdjust="spacing" textLength="33.8" x="393.1065" y="1744.3842">cost</text></g><!--class Managers--><g id="elem_Managers"><rect codeLine="72" fill="#F1F1F1" height="144.4371" id="Managers" rx="3.25" ry="3.25" style="stroke:#181818;stroke-width:0.65;" width="89.7" x="419.7565" y="852.8"/><text fill="#000000" font-family="sans-serif" font-size="18.2" lengthAdjust="spacing" textLength="81.9" x="423.6565" y="878.9396">Managers</text><line style="stroke:#181818;stroke-width:0.65;" x1="421.0565" x2="508.1565" y1="890.0074" y2="890.0074"/><text fill="#000000" font-family="sans-serif" font-size="18.2" lengthAdjust="spacing" textLength="45.5" x="427.5565" y="914.8471">name</text><text fill="#000000" font-family="sans-serif" font-size="18.2" lengthAdjust="spacing" textLength="42.9" x="427.5565" y="939.0545">email</text><text fill="#000000" font-family="sans-serif" font-size="18.2" lengthAdjust="spacing" textLength="63.7" x="427.5565" y="963.2619">position</text><text fill="#000000" font-family="sans-serif" font-size="18.2" lengthAdjust="spacing" textLength="52" x="427.5565" y="987.4693">phone</text></g><!--class User--><g id="elem_User"><rect codeLine="78" fill="#F1F1F1" height="120.2297" id="User" rx="3.25" ry="3.25" style="stroke:#181818;stroke-width:0.65;" width="93.6" x="194.2065" y="9.1"/><text fill="#000000" font-family="sans-serif" font-size="18.2" lengthAdjust="spacing" textLength="37.7" x="222.1565" y="35.2396">User</text><line style="stroke:#181818;stroke-width:0.65;" x1="195.5065" x2="286.5065" y1="46.3074" y2="46.3074"/><text fill="#000000" font-family="sans-serif" font-size="18.2" lengthAdjust="spacing" textLength="45.5" x="202.0065" y="71.1471">name</text><text fill="#000000" font-family="sans-serif" font-size="18.2" lengthAdjust="spacing" textLength="42.9" x="202.0065" y="95.3545">email</text><text fill="#000000" font-family="sans-serif" font-size="18.2" lengthAdjust="spacing" textLength="78" x="202.0065" y="119.5619">password</text></g><!--class Organization--><g id="elem_Organization"><rect codeLine="83" fill="#F1F1F1" height="47.6074" id="Organization" rx="3.25" ry="3.25" style="stroke:#181818;stroke-width:0.65;" width="111.8" x="417.8065" y="430.3"/><text fill="#000000" font-family="sans-serif" font-size="18.2" lengthAdjust="spacing" textLength="104" x="421.7065" y="456.4396">Organization</text><line style="stroke:#181818;stroke-width:0.65;" x1="419.1065" x2="528.3065" y1="467.5074" y2="467.5074"/></g><!--link Organization to Employees--><g id="link_Organization_Employees"><path codeLine="88" d="M456.1825,478.907 C448.2005,490.165 439.0095,504.088 432.1065,517.4 C421.7455,537.381 412.2555,559.754 404.1565,580.879 " fill="none" id="Organization-Employees" style="stroke:#181818;stroke-width:1.3;"/><polygon fill="#000000" points="435.6525,535.7291,444.3997,526.9913,437.5931,523.5186,435.6525,535.7291" style="stroke:#000000;stroke-width:1.3;"/><text fill="#000000" font-family="sans-serif" font-size="16.9" lengthAdjust="spacing" textLength="27.3" x="450.3065" y="536.9368">has</text><text fill="#000000" font-family="sans-serif" font-size="16.9" lengthAdjust="spacing" textLength="9.1" x="441.4261" y="506.3797">1</text><text fill="#000000" font-family="sans-serif" font-size="16.9" lengthAdjust="spacing" textLength="26" x="379.7917" y="566.581">0..*</text></g><!--link Employees to Collaborators--><g id="link_Employees_Collaborators"><path codeLine="89" d="M322.2045,750.126 C277.2765,822.874 214.8115,932.763 177.3065,1036.1 C170.0135,1056.185 164.1895,1078.311 159.6005,1099.514 " fill="none" id="Employees-Collaborators" style="stroke:#181818;stroke-width:1.3;"/><polygon fill="#000000" points="264.2639,931.0322,272.6892,921.9836,265.7615,918.7595,264.2639,931.0322" style="stroke:#000000;stroke-width:1.3;"/><text fill="#000000" font-family="sans-serif" font-size="16.9" lengthAdjust="spacing" textLength="23.4" x="278.7065" y="932.1368">are</text><text fill="#000000" font-family="sans-serif" font-size="16.9" lengthAdjust="spacing" textLength="9.1" x="307.0664" y="778.2569">1</text><text fill="#000000" font-family="sans-serif" font-size="16.9" lengthAdjust="spacing" textLength="26" x="133.7771" y="1085.0616">0..*</text></g><!--link Employees to Managers--><g id="link_Employees_Managers"><path codeLine="91" d="M404.9105,750.256 C416.2985,783.354 429.2725,821.015 440.2055,852.761 " fill="none" id="Employees-Managers" style="stroke:#181818;stroke-width:1.3;"/><polygon fill="#000000" points="435.5227,807.785,435.307,795.4232,428.0821,797.9109,435.5227,807.785" style="stroke:#000000;stroke-width:1.3;"/><text fill="#000000" font-family="sans-serif" font-size="16.9" lengthAdjust="spacing" textLength="23.4" x="445.1065" y="808.6368">are</text><text fill="#000000" font-family="sans-serif" font-size="16.9" lengthAdjust="spacing" textLength="9.1" x="398.3014" y="778.4003">1</text><text fill="#000000" font-family="sans-serif" font-size="16.9" lengthAdjust="spacing" textLength="6.5" x="430.1627" y="838.2483">*</text></g><!--link Collaborators to Team--><g id="link_Collaborators_Team"><path codeLine="93" d="M214.4605,1252.615 C255.1115,1284.088 307.8655,1323.543 356.7065,1355.9 C376.9865,1369.329 399.7885,1383.018 420.3675,1394.874 " fill="none" id="Collaborators-Team" style="stroke:#181818;stroke-width:1.3;"/><polygon fill="#000000" points="368.5543,1347.4339,361.0518,1337.6067,356.7084,1343.8934,368.5543,1347.4339" style="stroke:#000000;stroke-width:1.3;"/><text fill="#000000" font-family="sans-serif" font-size="16.9" lengthAdjust="spacing" textLength="41.6" x="374.9065" y="1350.7368">make</text></g><!--link Team to Task--><g id="link_Team_Task"><path codeLine="94" d="M477.8015,1466.504 C474.1355,1491.802 468.9615,1527.461 464.0995,1561.04 " fill="none" id="Team-Task" style="stroke:#181818;stroke-width:1.3;"/><polygon fill="#000000" points="476.6742,1520.2828,482.1419,1509.1938,474.5797,1508.0977,476.6742,1520.2828" style="stroke:#000000;stroke-width:1.3;"/></g><!--link Task to Green_Spaces--><g id="link_Task_Green_Spaces"><path codeLine="95" d="M393.3145,1753.882 C372.3845,1788.813 350.4665,1825.369 336.7515,1848.249 " fill="none" id="Task-Green_Spaces" style="stroke:#181818;stroke-width:1.3;"/><polygon fill="#000000" points="371.5648,1806.7252,380.8871,1798.6038,374.333,1794.6753,371.5648,1806.7252" style="stroke:#000000;stroke-width:1.3;"/></g><!--link Managers to GSM--><g id="link_Managers_GSM"><path codeLine="96" d="M509.7685,948.48 C548.2225,968.539 603.8625,1000.337 646.6065,1036.1 C675.4925,1060.267 681.5765,1068.483 702.5065,1099.8 C718.0285,1123.018 731.6135,1152.112 740.0895,1171.937 " fill="none" id="Managers-GSM" style="stroke:#181818;stroke-width:1.3;"/><polygon fill="#000000" points="683.7717,1053.1653,677.9927,1042.2353,672.6719,1047.7196,683.7717,1053.1653" style="stroke:#000000;stroke-width:1.3;"/><text fill="#000000" font-family="sans-serif" font-size="16.9" lengthAdjust="spacing" textLength="27.3" x="690.8065" y="1055.6368">has</text></g><!--link Managers to HRM--><g id="link_Managers_HRM"><path codeLine="97" d="M509.9115,966.615 C530.7115,986.401 554.9045,1011.283 573.8065,1036.1 C593.5665,1062.048 595.0615,1070.927 610.2065,1099.8 C622.9335,1124.071 636.3755,1152.476 645.3065,1171.846 " fill="none" id="Managers-HRM" style="stroke:#181818;stroke-width:1.3;"/><polygon fill="#000000" points="599.4859,1054.0648,596.1998,1042.1458,589.8216,1046.3536,599.4859,1054.0648" style="stroke:#000000;stroke-width:1.3;"/><text fill="#000000" font-family="sans-serif" font-size="16.9" lengthAdjust="spacing" textLength="27.3" x="607.6065" y="1055.6368">has</text></g><!--link Managers to FM--><g id="link_Managers_FM"><path codeLine="98" d="M492.4135,997.139 C515.0725,1054.924 545.7135,1133.028 560.7805,1171.43 " fill="none" id="Managers-FM" style="stroke:#181818;stroke-width:1.3;"/><polygon fill="#000000" points="525.4801,1054.6903,524.743,1042.3485,517.6295,1045.1389,525.4801,1054.6903" style="stroke:#000000;stroke-width:1.3;"/><text fill="#000000" font-family="sans-serif" font-size="16.9" lengthAdjust="spacing" textLength="27.3" x="534.8065" y="1055.6368">has</text></g><!--link Managers to Team--><g id="link_Managers_Team"><path codeLine="99" d="M457.6905,997.282 C451.6975,1071.148 445.4445,1190.059 455.5065,1292.2 C458.9775,1327.469 467.3755,1367.119 473.9405,1394.679 " fill="none" id="Managers-Team" style="stroke:#181818;stroke-width:1.3;"/><polygon fill="#000000" points="462.2721,1202.6837,465.6091,1190.7788,457.9743,1191.091,462.2721,1202.6837" style="stroke:#000000;stroke-width:1.3;"/><text fill="#000000" font-family="sans-serif" font-size="16.9" lengthAdjust="spacing" textLength="55.9" x="473.7065" y="1203.1868">creates</text></g><!--link Managers to Green_Spaces--><g id="link_Managers_Green_Spaces"><path codeLine="100" d="M431.3395,997.217 C395.7325,1076.673 340.7295,1210.183 313.8065,1331.2 C270.2045,1527.123 305.8635,1772.94 318.7335,1848.327 " fill="none" id="Managers-Green_Spaces" style="stroke:#181818;stroke-width:1.3;"/><polygon fill="#000000" points="307.754,1437.283,313.0839,1426.1271,305.5087,1425.1249,307.754,1437.283" style="stroke:#000000;stroke-width:1.3;"/><text fill="#000000" font-family="sans-serif" font-size="16.9" lengthAdjust="spacing" textLength="68.9" x="320.3065" y="1437.8368">manages</text></g><!--link Green_Spaces to Garden--><g id="link_Green_Spaces_Garden"><path codeLine="101" d="M299.8055,1896.856 C272.8175,1923.636 227.8895,1968.2 196.6375,1999.205 " fill="none" id="Green_Spaces-Garden" style="stroke:#181818;stroke-width:1.3;"/><polygon fill="#000000" points="259.7921,1952.817,270.8305,1947.2479,265.4489,1941.8233,259.7921,1952.817" style="stroke:#000000;stroke-width:1.3;"/><text fill="#000000" font-family="sans-serif" font-size="16.9" lengthAdjust="spacing" textLength="27.3" x="276.1065" y="1955.2368">has</text></g><!--link Green_Spaces to Medium_Sized--><g id="link_Green_Spaces_Medium_Sized"><path codeLine="102" d="M322.9065,1896.856 C322.9065,1923.636 322.9065,1968.2 322.9065,1999.205 " fill="none" id="Green_Spaces-Medium_Sized" style="stroke:#181818;stroke-width:1.3;"/><polygon fill="#000000" points="329.4065,1954.7392,333.2271,1942.9805,325.5859,1942.9805,329.4065,1954.7392" style="stroke:#000000;stroke-width:1.3;"/><text fill="#000000" font-family="sans-serif" font-size="16.9" lengthAdjust="spacing" textLength="27.3" x="341.1065" y="1955.2368">has</text></g><!--link Green_Spaces to Large_Sized--><g id="link_Green_Spaces_Large_Sized"><path codeLine="103" d="M346.3715,1896.856 C373.8015,1923.636 419.4575,1968.2 451.2165,1999.205 " fill="none" id="Green_Spaces-Large_Sized" style="stroke:#181818;stroke-width:1.3;"/><polygon fill="#000000" points="421.1578,1952.7797,415.4124,1941.8319,410.0748,1947.2997,421.1578,1952.7797" style="stroke:#000000;stroke-width:1.3;"/><text fill="#000000" font-family="sans-serif" font-size="16.9" lengthAdjust="spacing" textLength="27.3" x="428.2065" y="1955.2368">has</text></g><!--link Vehicles_Machines_Equipment to Team--><g id="link_Vehicles_Machines_Equipment_Team"><path codeLine="104" d="M898.5075,1231.867 C869.0235,1250.73 831.1545,1273.883 796.1065,1292.2 C711.9055,1336.192 610.5705,1378.767 546.4155,1404.507 " fill="none" id="Vehicles_Machines_Equipment-Team" style="stroke:#181818;stroke-width:1.3;"/><polygon fill="#000000" points="712.2703,1346.6008,724.5101,1344.8545,721.1461,1337.9936,712.2703,1346.6008" style="stroke:#000000;stroke-width:1.3;"/><text fill="#000000" font-family="sans-serif" font-size="16.9" lengthAdjust="spacing" textLength="118.3" x="729.8065" y="1350.7368">are attributed to</text></g><!--link Managers to Collaborators--><g id="link_Managers_Collaborators"><path codeLine="105" d="M419.3665,934.024 C362.0105,946.14 263.5355,974.818 204.6065,1036.1 C187.6805,1053.702 175.4345,1076.569 166.6335,1099.423 " fill="none" id="Managers-Collaborators" style="stroke:#181818;stroke-width:1.3;"/><polygon fill="#000000" points="205.6677,1052.1985,217.5988,1048.9564,213.4145,1042.5627,205.6677,1052.1985" style="stroke:#000000;stroke-width:1.3;"/><text fill="#000000" font-family="sans-serif" font-size="16.9" lengthAdjust="spacing" textLength="120.9" x="222.8065" y="1055.6368">hire and register</text></g><!--link Organization to Vehicles_Machines_Equipment--><g id="link_Organization_Vehicles_Machines_Equipment"><path codeLine="106" d="M507.3115,478.543 C521.6245,489.294 537.8745,502.918 550.4065,517.4 C739.4785,735.852 889.4335,1055.639 935.8565,1160.224 " fill="none" id="Organization-Vehicles_Machines_Equipment" style="stroke:#181818;stroke-width:1.3;"/><polygon fill="#000000" points="764.466,807.1421,761.4423,795.1538,754.9732,799.2206,764.466,807.1421" style="stroke:#000000;stroke-width:1.3;"/><text fill="#000000" font-family="sans-serif" font-size="16.9" lengthAdjust="spacing" textLength="33.8" x="772.7065" y="808.6368">have</text></g><!--link Managers to Vehicles_Machines_Equipment--><g id="link_Managers_Vehicles_Machines_Equipment"><path codeLine="107" d="M509.6905,941.33 C563.6535,960.193 655.9795,995.046 729.8065,1036.1 C795.8465,1072.825 865.6565,1125.605 908.7385,1160.016 " fill="none" id="Managers-Vehicles_Machines_Equipment" style="stroke:#181818;stroke-width:1.3;"/><polygon fill="#000000" points="779.7067,1051.763,771.2311,1042.7615,767.5589,1049.4624,779.7067,1051.763" style="stroke:#000000;stroke-width:1.3;"/><text fill="#000000" font-family="sans-serif" font-size="16.9" lengthAdjust="spacing" textLength="54.6" x="785.7065" y="1055.6368">choose</text></g><!--link Organization to Agenda--><g id="link_Organization_Agenda"><path codeLine="108" d="M479.1795,478.777 C487.8505,515.385 504.7765,586.898 514.9035,629.642 " fill="none" id="Organization-Agenda" style="stroke:#181818;stroke-width:1.3;"/><polygon fill="#000000" points="501.2043,536.2642,502.2126,523.9417,494.777,525.7024,501.2043,536.2642" style="stroke:#000000;stroke-width:1.3;"/><text fill="#000000" font-family="sans-serif" font-size="16.9" lengthAdjust="spacing" textLength="27.3" x="511.4065" y="536.9368">has</text></g><!--link Agenda to Managers--><g id="link_Agenda_Managers"><path codeLine="109" d="M515.2155,701.532 C506.4535,739.986 492.0625,803.14 480.8695,852.293 " fill="none" id="Agenda-Managers" style="stroke:#181818;stroke-width:1.3;"/><polygon fill="#000000" points="498.2627,807.9768,504.5998,797.3606,497.1495,795.6633,498.2627,807.9768" style="stroke:#000000;stroke-width:1.3;"/><text fill="#000000" font-family="sans-serif" font-size="16.9" lengthAdjust="spacing" textLength="31.2" x="511.4065" y="808.6368">help</text></g><!--link Portal to Organization--><g id="link_Portal_Organization"><path codeLine="110" d="M453.8685,327.873 C459.1335,361.14 465.9715,404.274 470.0925,430.248 " fill="none" id="Portal-Organization" style="stroke:#181818;stroke-width:1.3;"/><polygon fill="#000000" points="469.5239,385.559,471.457,373.3474,463.9099,374.5434,469.5239,385.559" style="stroke:#000000;stroke-width:1.3;"/><text fill="#000000" font-family="sans-serif" font-size="16.9" lengthAdjust="spacing" textLength="52" x="480.2065" y="386.1368">reports</text></g><!--link User to Portal--><g id="link_User_Portal"><path codeLine="111" d="M288.1315,117.923 C321.6455,151.866 366.4695,197.249 399.8535,231.062 " fill="none" id="User-Portal" style="stroke:#181818;stroke-width:1.3;"/><polygon fill="#000000" points="367.7737,184.8642,362.2302,173.8129,356.7931,179.1819,367.7737,184.8642" style="stroke:#000000;stroke-width:1.3;"/><text fill="#000000" font-family="sans-serif" font-size="16.9" lengthAdjust="spacing" textLength="36.4" x="374.9065" y="187.2368">uses</text></g><!--link User to Managers--><g id="link_User_Managers"><path codeLine="112" d="M241.0065,128.921 C241.0065,170.586 241.0065,227.825 241.0065,278.2 C241.0065,278.2 241.0065,278.2 241.0065,666.9 C241.0065,774.475 354.0155,858.858 419.3535,898.664 " fill="none" id="User-Managers" style="stroke:#181818;stroke-width:1.3;"/><polygon fill="#000000" points="246.0394,448.2069,244.9715,460.5244,252.4155,458.7997,246.0394,448.2069" style="stroke:#000000;stroke-width:1.3;"/><text fill="#000000" font-family="sans-serif" font-size="16.9" lengthAdjust="spacing" textLength="27.3" x="259.2065" y="461.5368">has</text></g><!--link User to Collaborators--><g id="link_User_Collaborators"><path codeLine="113" d="M193.8685,89.154 C128.6085,118.885 18.7065,183.066 18.7065,278.2 C18.7065,278.2 18.7065,278.2 18.7065,926.25 C18.7065,987.779 46.1885,1050.361 75.4905,1099.605 " fill="none" id="User-Collaborators" style="stroke:#181818;stroke-width:1.3;"/><polygon fill="#000000" points="25.9629,523.4833,20.8,534.7175,28.3893,535.6066,25.9629,523.4833" style="stroke:#000000;stroke-width:1.3;"/><text fill="#000000" font-family="sans-serif" font-size="16.9" lengthAdjust="spacing" textLength="27.3" x="36.9065" y="536.9368">has</text></g><!--SRC=[XLLDRzim3BtxLn2vP1lGehq6Gu6YNokmRCFIxHem4cCBiIHFKbgamVxxA3bsv3JDV3B9fySdafByIfa67MhGrbXHEQi9WbjJuVj8WsA59St2fYPm90AQiiu1la9fNvGfOOcrfsAy3zNAKDWq1DQ5oXRZcfO1WWMdoYg0L95EMPEHYHgzlmx1gSKwqAEmPgPU2IwAIaa2ePpWtEbV4rDANnJZe09BkxKQbO6fbLIpCn71Znh3qZeDss8CS2R92wUQb7FyjzXXM1pMsmBu4rPhCi4dGsEzN9kaq1ST-hea8x551_IhVUG1dIJJHl94NNnAKgtrFEv7le_wYgwa_u5-KwMu47u-HL5nZVtyxizQDL7w-ulkfzl-_ylFp7YOvOOZClCPTvtyjkZTJuIwfRwnTOqBwp1O5pU_0mpSBTAWflIpKDn-YQ6rK6hbFIk3p2KTURzhWGae0YYpjF11suNYvgAHGDpV-cF2FDw2j0BYQ7MsMUi5kLxldMvgko7oSA3b6SEt5Xgj5rfujHFHLDPG5alvzXjyucRlo1mjoP4HzARMqOx27S_EBVlRCI5H6IKoZrnpdJgyi3xiXmGD7pRtHdOh9icqhBXRcpJtYtzvSYSMCkJ5Ejd3lxiIZNfDIbAhn_rn6LsEuEmCHfz60nHCe4BF-o-L3rm22LV75zrmPqlhDhn0qZ9EA2C7J0aCeulpSuRlkzKck2hsdW5mC6KJG4THGMfDJ1kpNsPq4n2EM8g4nUOjQIkrhtXFby4uwsLF6ylB814y98q3CH4K3mdJQ5n5dcH5RrGtWUY9V-p9prWAz1fYS3RjYf2x-SGUSzyVzSRKtTuFOyFaEaKY9lSdNBhEElR3Q7wPlOV9hh8ESkBYskkERS3k2P3nlHZku608AkNQ2w8RoyDHuoKdyaPfptIGuYHULDPwEfAbVHkwlRPMAjQEcIDKDnngdvmOoYacl8E68t5nEieSRv4JM7lAtHaZv_hS-mzBau95yGy0]--></g></svg>