<?xml version="1.0" encoding="us-ascii" standalone="no"?><svg xmlns="http://www.w3.org/2000/svg" xmlns:xlink="http://www.w3.org/1999/xlink" contentStyleType="text/css" height="875px" preserveAspectRatio="none" style="width:661px;height:874px;background:#FFFFFF;" version="1.1" viewBox="0 0 661 874" width="661.5px" zoomAndPan="magnify"><defs/><g><!--class Outside_User--><g id="elem_Outside_User"><rect codeLine="9" fill="#F1F1F1" height="64.7391" id="Outside_User" rx="1.75" ry="1.75" style="stroke:#181818;stroke-width:0.3499999999999999;" width="64.4" x="534.1" y="18.2"/><text fill="#000000" font-family="sans-serif" font-size="9.8" lengthAdjust="spacing" textLength="60.2" x="536.2" y="32.2752">Outside_User</text><line style="stroke:#181818;stroke-width:0.3499999999999999;" x1="534.8" x2="597.8" y1="38.2348" y2="38.2348"/><text fill="#000000" font-family="sans-serif" font-size="9.8" lengthAdjust="spacing" textLength="24.5" x="538.3" y="51.61">name</text><text fill="#000000" font-family="sans-serif" font-size="9.8" lengthAdjust="spacing" textLength="23.1" x="538.3" y="64.6447">email</text><text fill="#000000" font-family="sans-serif" font-size="9.8" lengthAdjust="spacing" textLength="42" x="538.3" y="77.6795">password</text></g><!--class Portal--><g id="elem_Portal"><rect codeLine="14" fill="#F1F1F1" height="38.6695" id="Portal" rx="1.75" ry="1.75" style="stroke:#181818;stroke-width:0.3499999999999999;" width="67.9" x="482.65" y="157.85"/><text fill="#000000" font-family="sans-serif" font-size="9.8" lengthAdjust="spacing" textLength="25.9" x="503.65" y="171.9252">Portal</text><line style="stroke:#181818;stroke-width:0.3499999999999999;" x1="483.35" x2="549.85" y1="177.8848" y2="177.8848"/><text fill="#000000" font-family="sans-serif" font-size="9.8" lengthAdjust="spacing" textLength="59.5" x="486.85" y="191.26">task category</text></g><!--class Malfunctions--><g id="elem_Malfunctions"><rect codeLine="17" fill="#F1F1F1" height="25.6348" id="Malfunctions" rx="1.75" ry="1.75" style="stroke:#181818;stroke-width:0.3499999999999999;" width="59.5" x="395.85" y="264.6"/><text fill="#000000" font-family="sans-serif" font-size="9.8" lengthAdjust="spacing" textLength="55.3" x="397.95" y="278.6752">Malfunctions</text><line style="stroke:#181818;stroke-width:0.3499999999999999;" x1="396.55" x2="454.65" y1="284.6348" y2="284.6348"/></g><!--class Flaws--><g id="elem_Flaws"><rect codeLine="18" fill="#F1F1F1" height="25.6348" id="Flaws" rx="1.75" ry="1.75" style="stroke:#181818;stroke-width:0.3499999999999999;" width="29.4" x="556.5" y="264.6"/><text fill="#000000" font-family="sans-serif" font-size="9.8" lengthAdjust="spacing" textLength="25.2" x="558.6" y="278.6752">Flaws</text><line style="stroke:#181818;stroke-width:0.3499999999999999;" x1="557.2" x2="585.2" y1="284.6348" y2="284.6348"/></g><!--class Comments--><g id="elem_Comments"><rect codeLine="19" fill="#F1F1F1" height="25.6348" id="Comments" rx="1.75" ry="1.75" style="stroke:#181818;stroke-width:0.3499999999999999;" width="51.1" x="479.85" y="264.6"/><text fill="#000000" font-family="sans-serif" font-size="9.8" lengthAdjust="spacing" textLength="46.9" x="481.95" y="278.6752">Comments</text><line style="stroke:#181818;stroke-width:0.3499999999999999;" x1="480.55" x2="530.25" y1="284.6348" y2="284.6348"/></g><!--class Schedule--><g id="elem_Schedule"><rect codeLine="20" fill="#F1F1F1" height="38.6695" id="Schedule" rx="1.75" ry="1.75" style="stroke:#181818;stroke-width:0.3499999999999999;" width="45.5" x="400.75" y="511"/><text fill="#000000" font-family="sans-serif" font-size="9.8" lengthAdjust="spacing" textLength="41.3" x="402.85" y="525.0752">Schedule</text><line style="stroke:#181818;stroke-width:0.3499999999999999;" x1="401.45" x2="445.55" y1="531.0348" y2="531.0348"/><text fill="#000000" font-family="sans-serif" font-size="9.8" lengthAdjust="spacing" textLength="23.1" x="404.95" y="544.41">tasks</text></g><!--class Garden--><g id="elem_Garden"><rect codeLine="23" fill="#F1F1F1" height="38.6695" id="Garden" rx="1.75" ry="1.75" style="stroke:#181818;stroke-width:0.3499999999999999;" width="56.7" x="413.35" y="831.6"/><text fill="#000000" font-family="sans-serif" font-size="9.8" lengthAdjust="spacing" textLength="33.6" x="424.9" y="845.6752">Garden</text><line style="stroke:#181818;stroke-width:0.3499999999999999;" x1="414.05" x2="469.35" y1="851.6348" y2="851.6348"/><text fill="#000000" font-family="sans-serif" font-size="9.8" lengthAdjust="spacing" textLength="48.3" x="417.55" y="865.01">description</text></g><!--class Medium_Sized--><g id="elem_Medium_Sized"><rect codeLine="26" fill="#F1F1F1" height="38.6695" id="Medium_Sized" rx="1.75" ry="1.75" style="stroke:#181818;stroke-width:0.3499999999999999;" width="67.9" x="494.55" y="831.6"/><text fill="#000000" font-family="sans-serif" font-size="9.8" lengthAdjust="spacing" textLength="63.7" x="496.65" y="845.6752">Medium_Sized</text><line style="stroke:#181818;stroke-width:0.3499999999999999;" x1="495.25" x2="561.75" y1="851.6348" y2="851.6348"/><text fill="#000000" font-family="sans-serif" font-size="9.8" lengthAdjust="spacing" textLength="48.3" x="498.75" y="865.01">description</text></g><!--class Large_Sized--><g id="elem_Large_Sized"><rect codeLine="29" fill="#F1F1F1" height="38.6695" id="Large_Sized" rx="1.75" ry="1.75" style="stroke:#181818;stroke-width:0.3499999999999999;" width="59.5" x="586.95" y="831.6"/><text fill="#000000" font-family="sans-serif" font-size="9.8" lengthAdjust="spacing" textLength="55.3" x="589.05" y="845.6752">Large_Sized</text><line style="stroke:#181818;stroke-width:0.3499999999999999;" x1="587.65" x2="645.75" y1="851.6348" y2="851.6348"/><text fill="#000000" font-family="sans-serif" font-size="9.8" lengthAdjust="spacing" textLength="48.3" x="591.15" y="865.01">description</text></g><!--class Vehicles_Machines_Equipment--><g id="elem_Vehicles_Machines_Equipment"><rect codeLine="32" fill="#F1F1F1" height="38.6695" id="Vehicles_Machines_Equipment" rx="1.75" ry="1.75" style="stroke:#181818;stroke-width:0.3499999999999999;" width="141.4" x="4.9" y="737.8"/><text fill="#000000" font-family="sans-serif" font-size="9.8" lengthAdjust="spacing" textLength="137.2" x="7" y="751.8752">Vehicles_Machines_Equipment</text><line style="stroke:#181818;stroke-width:0.3499999999999999;" x1="5.6" x2="145.6" y1="757.8348" y2="757.8348"/><text fill="#000000" font-family="sans-serif" font-size="9.8" lengthAdjust="spacing" textLength="48.3" x="9.1" y="771.21">description</text></g><!--class FM--><g id="elem_FM"><rect codeLine="35" fill="#F1F1F1" height="25.6348" id="FM" rx="1.75" ry="1.75" style="stroke:#181818;stroke-width:0.3499999999999999;" width="18.2" x="228.2" y="744.1"/><text fill="#000000" font-family="sans-serif" font-size="9.8" lengthAdjust="spacing" textLength="14" x="230.3" y="758.1752">FM</text><line style="stroke:#181818;stroke-width:0.3499999999999999;" x1="228.9" x2="245.7" y1="764.1348" y2="764.1348"/></g><!--class HRM--><g id="elem_HRM"><rect codeLine="37" fill="#F1F1F1" height="25.6348" id="HRM" rx="1.75" ry="1.75" style="stroke:#181818;stroke-width:0.3499999999999999;" width="25.2" x="277.9" y="744.1"/><text fill="#000000" font-family="sans-serif" font-size="9.8" lengthAdjust="spacing" textLength="21" x="280" y="758.1752">HRM</text><line style="stroke:#181818;stroke-width:0.3499999999999999;" x1="278.6" x2="302.4" y1="764.1348" y2="764.1348"/></g><!--class GSM--><g id="elem_GSM"><rect codeLine="39" fill="#F1F1F1" height="25.6348" id="GSM" rx="1.75" ry="1.75" style="stroke:#181818;stroke-width:0.3499999999999999;" width="25.9" x="330.75" y="744.1"/><text fill="#000000" font-family="sans-serif" font-size="9.8" lengthAdjust="spacing" textLength="21.7" x="332.85" y="758.1752">GSM</text><line style="stroke:#181818;stroke-width:0.3499999999999999;" x1="331.45" x2="355.95" y1="764.1348" y2="764.1348"/></g><!--class Green_Spaces--><g id="elem_Green_Spaces"><rect codeLine="41" fill="#F1F1F1" height="25.6348" id="Green_Spaces" rx="1.75" ry="1.75" style="stroke:#181818;stroke-width:0.3499999999999999;" width="70.7" x="493.15" y="744.1"/><text fill="#000000" font-family="sans-serif" font-size="9.8" lengthAdjust="spacing" textLength="66.5" x="495.25" y="758.1752">Green_Spaces</text><line style="stroke:#181818;stroke-width:0.3499999999999999;" x1="493.85" x2="563.15" y1="764.1348" y2="764.1348"/></g><!--class Team--><g id="elem_Team"><rect codeLine="44" fill="#F1F1F1" height="38.6695" id="Team" rx="1.75" ry="1.75" style="stroke:#181818;stroke-width:0.3499999999999999;" width="65.8" x="137.2" y="258.3"/><text fill="#000000" font-family="sans-serif" font-size="9.8" lengthAdjust="spacing" textLength="25.2" x="157.5" y="272.3752">Team</text><line style="stroke:#181818;stroke-width:0.3499999999999999;" x1="137.9" x2="202.3" y1="278.3348" y2="278.3348"/><text fill="#000000" font-family="sans-serif" font-size="9.8" lengthAdjust="spacing" textLength="57.4" x="141.4" y="291.71">collaborators</text></g><!--class Collaborators--><g id="elem_Collaborators"><rect codeLine="48" fill="#F1F1F1" height="51.7043" id="Collaborators" rx="1.75" ry="1.75" style="stroke:#181818;stroke-width:0.3499999999999999;" width="67.2" x="179.2" y="151.2"/><text fill="#000000" font-family="sans-serif" font-size="9.8" lengthAdjust="spacing" textLength="59.5" x="183.05" y="165.2752">Collaborators</text><line style="stroke:#181818;stroke-width:0.3499999999999999;" x1="179.9" x2="245.7" y1="171.2348" y2="171.2348"/><text fill="#000000" font-family="sans-serif" font-size="9.8" lengthAdjust="spacing" textLength="58.8" x="183.4" y="184.61">competences</text><text fill="#000000" font-family="sans-serif" font-size="9.8" lengthAdjust="spacing" textLength="46.2" x="183.4" y="197.6447">profession</text></g><!--class Employees--><g id="elem_Employees"><rect codeLine="52" fill="#F1F1F1" height="90.8086" id="Employees" rx="1.75" ry="1.75" style="stroke:#181818;stroke-width:0.3499999999999999;" width="70.7" x="177.45" y="4.9"/><text fill="#000000" font-family="sans-serif" font-size="9.8" lengthAdjust="spacing" textLength="48.3" x="188.65" y="18.9752">Employees</text><line style="stroke:#181818;stroke-width:0.3499999999999999;" x1="178.15" x2="247.45" y1="24.9348" y2="24.9348"/><text fill="#000000" font-family="sans-serif" font-size="9.8" lengthAdjust="spacing" textLength="24.5" x="181.65" y="38.31">name</text><text fill="#000000" font-family="sans-serif" font-size="9.8" lengthAdjust="spacing" textLength="47.6" x="181.65" y="51.3447">vatNumber</text><text fill="#000000" font-family="sans-serif" font-size="9.8" lengthAdjust="spacing" textLength="32.9" x="181.65" y="64.3795">website</text><text fill="#000000" font-family="sans-serif" font-size="9.8" lengthAdjust="spacing" textLength="62.3" x="181.65" y="77.4143">phoneNumber</text><text fill="#000000" font-family="sans-serif" font-size="9.8" lengthAdjust="spacing" textLength="23.1" x="181.65" y="90.449">email</text></g><!--class Task--><g id="elem_Task"><rect codeLine="60" fill="#F1F1F1" height="103.8434" id="Task" rx="1.75" ry="1.75" style="stroke:#181818;stroke-width:0.3499999999999999;" width="70" x="441" y="352.1"/><text fill="#000000" font-family="sans-serif" font-size="9.8" lengthAdjust="spacing" textLength="21.7" x="465.15" y="366.1752">Task</text><line style="stroke:#181818;stroke-width:0.3499999999999999;" x1="441.7" x2="510.3" y1="372.1348" y2="372.1348"/><text fill="#000000" font-family="sans-serif" font-size="9.8" lengthAdjust="spacing" textLength="42.7" x="445.2" y="385.51">reference</text><text fill="#000000" font-family="sans-serif" font-size="9.8" lengthAdjust="spacing" textLength="48.3" x="445.2" y="398.5447">description</text><text fill="#000000" font-family="sans-serif" font-size="9.8" lengthAdjust="spacing" textLength="57.4" x="445.2" y="411.5795">informalDesc</text><text fill="#000000" font-family="sans-serif" font-size="9.8" lengthAdjust="spacing" textLength="61.6" x="445.2" y="424.6143">technicalDesc</text><text fill="#000000" font-family="sans-serif" font-size="9.8" lengthAdjust="spacing" textLength="36.4" x="445.2" y="437.649">duration</text><text fill="#000000" font-family="sans-serif" font-size="9.8" lengthAdjust="spacing" textLength="18.2" x="445.2" y="450.6838">cost</text></g><!--class Managers--><g id="elem_Managers"><rect codeLine="68" fill="#F1F1F1" height="77.7738" id="Managers" rx="1.75" ry="1.75" style="stroke:#181818;stroke-width:0.3499999999999999;" width="48.3" x="266.35" y="604.8"/><text fill="#000000" font-family="sans-serif" font-size="9.8" lengthAdjust="spacing" textLength="44.1" x="268.45" y="618.8752">Managers</text><line style="stroke:#181818;stroke-width:0.3499999999999999;" x1="267.05" x2="313.95" y1="624.8348" y2="624.8348"/><text fill="#000000" font-family="sans-serif" font-size="9.8" lengthAdjust="spacing" textLength="24.5" x="270.55" y="638.21">name</text><text fill="#000000" font-family="sans-serif" font-size="9.8" lengthAdjust="spacing" textLength="23.1" x="270.55" y="651.2447">email</text><text fill="#000000" font-family="sans-serif" font-size="9.8" lengthAdjust="spacing" textLength="34.3" x="270.55" y="664.2795">position</text><text fill="#000000" font-family="sans-serif" font-size="9.8" lengthAdjust="spacing" textLength="28" x="270.55" y="677.3143">phone</text></g><!--class Organization--><g id="elem_Organization"><rect codeLine="74" fill="#F1F1F1" height="25.6348" id="Organization" rx="1.75" ry="1.75" style="stroke:#181818;stroke-width:0.3499999999999999;" width="60.2" x="16.1" y="37.45"/><text fill="#000000" font-family="sans-serif" font-size="9.8" lengthAdjust="spacing" textLength="56" x="18.2" y="51.5252">Organization</text><line style="stroke:#181818;stroke-width:0.3499999999999999;" x1="16.8" x2="75.6" y1="57.4848" y2="57.4848"/></g><!--link Organization to Employees--><g id="link_Organization_Employees"><path codeLine="78" d="M76.37,50.4 C104.783,50.4 147.35,50.4 177.366,50.4 " fill="none" id="Organization-Employees" style="stroke:#181818;stroke-width:0.6999999999999998;"/><polygon fill="#000000" points="121.275,41.7519,114.9434,39.6946,114.9434,43.8091,121.275,41.7519" style="stroke:#000000;stroke-width:0.6999999999999998;"/><text fill="#000000" font-family="sans-serif" font-size="9.1" lengthAdjust="spacing" textLength="14.7" x="124.075" y="45.5198">has</text><text fill="#000000" font-family="sans-serif" font-size="9.1" lengthAdjust="spacing" textLength="4.9" x="81.9766" y="47.3375">1</text><text fill="#000000" font-family="sans-serif" font-size="9.1" lengthAdjust="spacing" textLength="14" x="157.9291" y="47.5828">1..*</text></g><!--link Organization to Vehicles_Machines_Equipment--><g id="link_Organization_Vehicles_Machines_Equipment"><path codeLine="79" d="M40.691,63.448 C31.325,85.603 13.3,133.777 13.3,176.4 C13.3,176.4 13.3,176.4 13.3,644.35 C13.3,680.953 39.025,716.758 57.414,737.681 " fill="none" id="Organization-Vehicles_Machines_Equipment" style="stroke:#181818;stroke-width:0.6999999999999998;"/><polygon fill="#000000" points="16.8868,407.5008,18.7864,401.1202,14.6732,401.2222,16.8868,407.5008" style="stroke:#000000;stroke-width:0.6999999999999998;"/><text fill="#000000" font-family="sans-serif" font-size="9.1" lengthAdjust="spacing" textLength="14.7" x="23.1" y="407.7698">has</text><text fill="#000000" font-family="sans-serif" font-size="9.1" lengthAdjust="spacing" textLength="4.9" x="33.652" y="78.4366">1</text><text fill="#000000" font-family="sans-serif" font-size="9.1" lengthAdjust="spacing" textLength="14" x="37.9046" y="730.066">1..*</text></g><!--link Employees to Collaborators--><g id="link_Employees_Collaborators"><path codeLine="80" d="M212.8,95.984 C212.8,114.52 212.8,135.324 212.8,151.123 " fill="none" id="Employees-Collaborators" style="stroke:#181818;stroke-width:0.6999999999999998;"/><polygon fill="#000000" points="216.3,127.1519,218.3572,120.8203,214.2428,120.8203,216.3,127.1519" style="stroke:#000000;stroke-width:0.6999999999999998;"/><text fill="#000000" font-family="sans-serif" font-size="9.1" lengthAdjust="spacing" textLength="12.6" x="222.6" y="127.4198">are</text><text fill="#000000" font-family="sans-serif" font-size="9.1" lengthAdjust="spacing" textLength="4.9" x="207.6473" y="111.1386">1</text><text fill="#000000" font-family="sans-serif" font-size="9.1" lengthAdjust="spacing" textLength="3.5" x="208.9883" y="143.3825">*</text></g><!--link Employees to Managers--><g id="link_Employees_Managers"><path codeLine="81" d="M248.262,63.903 C290.955,81.865 357,118.944 357,176.4 C357,176.4 357,176.4 357,325.15 C357,427.882 323.295,545.412 303.877,604.597 " fill="none" id="Employees-Managers" style="stroke:#181818;stroke-width:0.6999999999999998;"/><polygon fill="#000000" points="360.8581,328.0335,362.2567,321.5247,358.1638,321.9457,360.8581,328.0335" style="stroke:#000000;stroke-width:0.6999999999999998;"/><text fill="#000000" font-family="sans-serif" font-size="9.1" lengthAdjust="spacing" textLength="12.6" x="366.8" y="328.3198">are</text><text fill="#000000" font-family="sans-serif" font-size="9.1" lengthAdjust="spacing" textLength="4.9" x="253.8303" y="62.9612">1</text><text fill="#000000" font-family="sans-serif" font-size="9.1" lengthAdjust="spacing" textLength="3.5" x="301.794" y="597.04">*</text></g><!--link Managers to GSM--><g id="link_Managers_GSM"><path codeLine="82" d="M308.658,682.584 C318.836,703.997 330.848,729.288 337.834,744.002 " fill="none" id="Managers-GSM" style="stroke:#181818;stroke-width:0.6999999999999998;"/><polygon fill="#000000" points="328.4018,713.4133,327.5433,706.8115,323.8268,708.5769,328.4018,713.4133" style="stroke:#000000;stroke-width:0.6999999999999998;"/><text fill="#000000" font-family="sans-serif" font-size="9.1" lengthAdjust="spacing" textLength="14.7" x="333.2" y="714.0198">has</text><text fill="#000000" font-family="sans-serif" font-size="9.1" lengthAdjust="spacing" textLength="4.9" x="305.6724" y="697.882">1</text><text fill="#000000" font-family="sans-serif" font-size="9.1" lengthAdjust="spacing" textLength="4.9" x="330.3872" y="736.1755">1</text></g><!--link Managers to HRM--><g id="link_Managers_HRM"><path codeLine="83" d="M288.603,682.514 C288.267,693.574 288.106,705.67 288.4,716.8 C288.645,725.942 289.198,736.26 289.681,744.065 " fill="none" id="Managers-HRM" style="stroke:#181818;stroke-width:0.6999999999999998;"/><polygon fill="#000000" points="291.9613,713.7513,293.9073,707.3847,289.7935,707.4568,291.9613,713.7513" style="stroke:#000000;stroke-width:0.6999999999999998;"/><text fill="#000000" font-family="sans-serif" font-size="9.1" lengthAdjust="spacing" textLength="14.7" x="298.2" y="714.0198">has</text><text fill="#000000" font-family="sans-serif" font-size="9.1" lengthAdjust="spacing" textLength="4.9" x="283.146" y="698.0839">1</text><text fill="#000000" font-family="sans-serif" font-size="9.1" lengthAdjust="spacing" textLength="4.9" x="283.7799" y="736.2578">1</text></g><!--link Managers to FM--><g id="link_Managers_FM"><path codeLine="84" d="M267.533,682.696 C263.788,689.528 260.092,696.647 256.9,703.5 C250.621,716.982 244.888,733.089 241.269,743.946 " fill="none" id="Managers-FM" style="stroke:#181818;stroke-width:0.6999999999999998;"/><polygon fill="#000000" points="259.0207,713.4686,263.4067,708.4602,259.6252,706.8387,259.0207,713.4686" style="stroke:#000000;stroke-width:0.6999999999999998;"/><text fill="#000000" font-family="sans-serif" font-size="9.1" lengthAdjust="spacing" textLength="14.7" x="266.7" y="714.0198">has</text><text fill="#000000" font-family="sans-serif" font-size="9.1" lengthAdjust="spacing" textLength="4.9" x="259.5353" y="698.0076">1</text><text fill="#000000" font-family="sans-serif" font-size="9.1" lengthAdjust="spacing" textLength="4.9" x="236.8342" y="736.1023">1</text></g><!--link Managers to Team--><g id="link_Managers_Team"><path codeLine="85" d="M266.266,625.646 C252.476,614.845 235.683,599.949 224,583.8 C197.379,546.994 194.005,534.17 183.4,490 C166.677,420.336 167.685,334.299 169.141,296.982 " fill="none" id="Managers-Team" style="stroke:#181818;stroke-width:0.6999999999999998;"/><polygon fill="#000000" points="185.9081,480.0953,185.7296,486.7503,189.6754,485.5843,185.9081,480.0953" style="stroke:#000000;stroke-width:0.6999999999999998;"/><text fill="#000000" font-family="sans-serif" font-size="9.1" lengthAdjust="spacing" textLength="30.1" x="193.2" y="487.2198">creates</text><text fill="#000000" font-family="sans-serif" font-size="9.1" lengthAdjust="spacing" textLength="4.9" x="255.8624" y="618.6387">1</text><text fill="#000000" font-family="sans-serif" font-size="9.1" lengthAdjust="spacing" textLength="14" x="153.4" y="312.3579">1..*</text></g><!--link Managers to Green_Spaces--><g id="link_Managers_Green_Spaces"><path codeLine="86" d="M314.832,658.483 C341.663,673.792 386.337,698.488 426.3,716.8 C448.35,726.908 473.788,736.757 493.766,744.1 " fill="none" id="Managers-Green_Spaces" style="stroke:#181818;stroke-width:0.6999999999999998;"/><polygon fill="#000000" points="432.9572,711.7625,428.1337,707.1739,426.3578,710.8855,432.9572,711.7625" style="stroke:#000000;stroke-width:0.6999999999999998;"/><text fill="#000000" font-family="sans-serif" font-size="9.1" lengthAdjust="spacing" textLength="37.1" x="436.1" y="714.0198">manages</text><text fill="#000000" font-family="sans-serif" font-size="9.1" lengthAdjust="spacing" textLength="4.9" x="320.3558" y="658.2483">1</text><text fill="#000000" font-family="sans-serif" font-size="9.1" lengthAdjust="spacing" textLength="14" x="473.6363" y="739.2783">1..*</text></g><!--link Managers to Collaborators--><g id="link_Managers_Collaborators"><path codeLine="87" d="M284.963,604.611 C272.02,515.571 239.764,296.821 224.7,224 C223.293,217.189 221.522,209.874 219.786,203.112 " fill="none" id="Managers-Collaborators" style="stroke:#181818;stroke-width:0.6999999999999998;"/><polygon fill="#000000" points="265.4392,400.5471,264.4231,407.1265,268.4844,406.4672,265.4392,400.5471" style="stroke:#000000;stroke-width:0.6999999999999998;"/><text fill="#000000" font-family="sans-serif" font-size="9.1" lengthAdjust="spacing" textLength="65.1" x="272.3" y="407.7698">hire and register</text><text fill="#000000" font-family="sans-serif" font-size="9.1" lengthAdjust="spacing" textLength="4.9" x="279.0896" y="597.0557">1</text><text fill="#000000" font-family="sans-serif" font-size="9.1" lengthAdjust="spacing" textLength="3.5" x="217.1532" y="218.2503">*</text></g><!--link Managers to Vehicles_Machines_Equipment--><g id="link_Managers_Vehicles_Machines_Equipment"><path codeLine="88" d="M266.266,656.978 C228.452,676.69 155.204,714.861 111.328,737.73 " fill="none" id="Managers-Vehicles_Machines_Equipment" style="stroke:#181818;stroke-width:0.6999999999999998;"/><polygon fill="#000000" points="177.4963,711.8695,184.0618,710.7675,182.1602,707.1188,177.4963,711.8695" style="stroke:#000000;stroke-width:0.6999999999999998;"/><text fill="#000000" font-family="sans-serif" font-size="9.1" lengthAdjust="spacing" textLength="29.4" x="186.9" y="714.0198">choose</text><text fill="#000000" font-family="sans-serif" font-size="9.1" lengthAdjust="spacing" textLength="4.9" x="255.8624" y="656.4329">1</text><text fill="#000000" font-family="sans-serif" font-size="9.1" lengthAdjust="spacing" textLength="3.5" x="115.6854" y="729.8101">*</text></g><!--link Vehicles_Machines_Equipment to Team--><g id="link_Vehicles_Machines_Equipment_Team"><path codeLine="89" d="M75.6,737.723 C75.6,715.498 75.6,677.208 75.6,644.35 C75.6,403.2 75.6,403.2 75.6,403.2 C75.6,358.05 115.332,318.92 143.276,296.982 " fill="none" id="Vehicles_Machines_Equipment-Team" style="stroke:#181818;stroke-width:0.6999999999999998;"/><polygon fill="#000000" points="79.6312,526.8924,76.6368,532.8384,80.7037,533.4628,79.6312,526.8924" style="stroke:#000000;stroke-width:0.6999999999999998;"/><text fill="#000000" font-family="sans-serif" font-size="9.1" lengthAdjust="spacing" textLength="63.7" x="85.4" y="534.1198">are attributed to</text><text fill="#000000" font-family="sans-serif" font-size="9.1" lengthAdjust="spacing" textLength="3.5" x="71.6953" y="729.8015">*</text><text fill="#000000" font-family="sans-serif" font-size="9.1" lengthAdjust="spacing" textLength="4.9" x="131.9723" y="312.3579">1</text></g><!--link Schedule to Managers--><g id="link_Schedule_Managers"><path codeLine="90" d="M404.222,549.745 C393.428,560.042 379.61,572.901 366.8,583.8 C349.818,598.241 329.889,613.648 314.657,625.107 " fill="none" id="Schedule-Managers" style="stroke:#181818;stroke-width:0.6999999999999998;"/><polygon fill="#000000" points="381.6219,579.5053,387.7911,577.003,385.1421,573.8547,381.6219,579.5053" style="stroke:#000000;stroke-width:0.6999999999999998;"/><text fill="#000000" font-family="sans-serif" font-size="9.1" lengthAdjust="spacing" textLength="59.5" x="390.6" y="581.0198">is managed by</text><text fill="#000000" font-family="sans-serif" font-size="9.1" lengthAdjust="spacing" textLength="4.9" x="394.569" y="565.1347">1</text></g><!--link Green_Spaces to Garden--><g id="link_Green_Spaces_Garden"><path codeLine="91" d="M516.971,770.021 C502.215,785.729 476.504,813.106 459.291,831.425 " fill="none" id="Green_Spaces-Garden" style="stroke:#181818;stroke-width:0.6999999999999998;"/><polygon fill="#000000" points="491.1037,806.6029,496.9381,803.3966,493.9392,800.5795,491.1037,806.6029" style="stroke:#000000;stroke-width:0.6999999999999998;"/><text fill="#000000" font-family="sans-serif" font-size="9.1" lengthAdjust="spacing" textLength="14.7" x="499.8" y="807.8198">has</text><text fill="#000000" font-family="sans-serif" font-size="9.1" lengthAdjust="spacing" textLength="4.9" x="508.1394" y="785.2283">1</text><text fill="#000000" font-family="sans-serif" font-size="9.1" lengthAdjust="spacing" textLength="3.5" x="459.2562" y="823.7978">*</text></g><!--link Green_Spaces to Medium_Sized--><g id="link_Green_Spaces_Medium_Sized"><path codeLine="92" d="M528.5,770.021 C528.5,785.729 528.5,813.106 528.5,831.425 " fill="none" id="Green_Spaces-Medium_Sized" style="stroke:#181818;stroke-width:0.6999999999999998;"/><polygon fill="#000000" points="532,807.5519,534.0572,801.2203,529.9428,801.2203,532,807.5519" style="stroke:#000000;stroke-width:0.6999999999999998;"/><text fill="#000000" font-family="sans-serif" font-size="9.1" lengthAdjust="spacing" textLength="14.7" x="538.3" y="807.8198">has</text><text fill="#000000" font-family="sans-serif" font-size="9.1" lengthAdjust="spacing" textLength="4.9" x="522.9109" y="785.2283">1</text><text fill="#000000" font-family="sans-serif" font-size="9.1" lengthAdjust="spacing" textLength="3.5" x="524.6172" y="823.7978">*</text></g><!--link Green_Spaces to Large_Sized--><g id="link_Green_Spaces_Large_Sized"><path codeLine="93" d="M540.211,770.021 C555.205,785.729 581.336,813.106 598.822,831.425 " fill="none" id="Green_Spaces-Large_Sized" style="stroke:#181818;stroke-width:0.6999999999999998;"/><polygon fill="#000000" points="583.4166,806.5836,580.5331,800.5831,577.5568,803.4241,583.4166,806.5836" style="stroke:#000000;stroke-width:0.6999999999999998;"/><text fill="#000000" font-family="sans-serif" font-size="9.1" lengthAdjust="spacing" textLength="14.7" x="587.3" y="807.8198">has</text><text fill="#000000" font-family="sans-serif" font-size="9.1" lengthAdjust="spacing" textLength="4.9" x="537.9157" y="785.2283">1</text><text fill="#000000" font-family="sans-serif" font-size="9.1" lengthAdjust="spacing" textLength="3.5" x="591.0284" y="823.7978">*</text></g><!--link Green_Spaces to Task--><g id="link_Green_Spaces_Task"><path codeLine="94" d="M530.803,744.093 C536.06,714.238 547.778,635.404 538.3,570.5 C532.014,527.45 525.917,517.307 510.3,476.7 C507.661,469.84 504.651,462.735 501.522,455.77 " fill="none" id="Green_Spaces-Task" style="stroke:#181818;stroke-width:0.6999999999999998;"/><polygon fill="#000000" points="542.8464,573.7698,541.4394,580.2768,545.5328,579.8611,542.8464,573.7698" style="stroke:#000000;stroke-width:0.6999999999999998;"/><text fill="#000000" font-family="sans-serif" font-size="9.1" lengthAdjust="spacing" textLength="39.2" x="549.5" y="581.0198">originates</text><text fill="#000000" font-family="sans-serif" font-size="9.1" lengthAdjust="spacing" textLength="14" x="515.3645" y="736.2944">1..*</text><text fill="#000000" font-family="sans-serif" font-size="9.1" lengthAdjust="spacing" textLength="3.5" x="500.3621" y="471.2795">*</text></g><!--link Task to Green_Spaces--><g id="link_Task_Green_Spaces"><path codeLine="97" d="M476.861,455.826 C478.03,491.799 480.781,540.946 487.2,583.8 C496.328,644.728 516.397,715.771 524.748,743.939 " fill="none" id="Task-Green_Spaces" style="stroke:#181818;stroke-width:0.6999999999999998;"/><polygon fill="#000000" points="491.2739,580.7045,492.2651,574.1213,488.2063,574.7959,491.2739,580.7045" style="stroke:#000000;stroke-width:0.6999999999999998;"/><text fill="#000000" font-family="sans-serif" font-size="9.1" lengthAdjust="spacing" textLength="35" x="497" y="581.0198">solved in</text><text fill="#000000" font-family="sans-serif" font-size="9.1" lengthAdjust="spacing" textLength="14" x="462.2567" y="471.341">1..*</text><text fill="#000000" font-family="sans-serif" font-size="9.1" lengthAdjust="spacing" textLength="4.9" x="518.0262" y="736.3285">1</text></g><!--link Collaborators to Team--><g id="link_Collaborators_Team"><path codeLine="95" d="M198.968,203.168 C195.531,209.86 191.982,217.133 189,224 C184.149,235.172 179.529,248.038 176.071,258.272 " fill="none" id="Collaborators-Team" style="stroke:#181818;stroke-width:0.6999999999999998;"/><polygon fill="#000000" points="191.157,233.9839,195.4863,228.9264,191.6867,227.3476,191.157,233.9839" style="stroke:#000000;stroke-width:0.6999999999999998;"/><text fill="#000000" font-family="sans-serif" font-size="9.1" lengthAdjust="spacing" textLength="22.4" x="198.8" y="234.5198">make</text><text fill="#000000" font-family="sans-serif" font-size="9.1" lengthAdjust="spacing" textLength="14" x="181.5177" y="218.3156">2..*</text><text fill="#000000" font-family="sans-serif" font-size="9.1" lengthAdjust="spacing" textLength="4.9" x="171.9852" y="250.3618">1</text></g><!--link Team to Task--><g id="link_Team_Task"><path codeLine="96" d="M203.168,295.463 C224.455,306.257 252.854,320.166 278.6,331.1 C334.509,354.851 401.198,378.21 440.986,391.636 " fill="none" id="Team-Task" style="stroke:#181818;stroke-width:0.6999999999999998;"/><polygon fill="#000000" points="278.8553,323.2397,283.9538,327.5206,285.4963,323.7062,278.8553,323.2397" style="stroke:#000000;stroke-width:0.6999999999999998;"/><text fill="#000000" font-family="sans-serif" font-size="9.1" lengthAdjust="spacing" textLength="37.8" x="288.4" y="328.3198">attributed</text><text fill="#000000" font-family="sans-serif" font-size="9.1" lengthAdjust="spacing" textLength="4.9" x="208.6067" y="295.2173">1</text><text fill="#000000" font-family="sans-serif" font-size="9.1" lengthAdjust="spacing" textLength="14" x="421.3404" y="387.1057">1..*</text></g><!--link Task to Schedule--><g id="link_Task_Schedule"><path codeLine="98" d="M442.722,455.896 C439.173,462.714 435.904,469.756 433.3,476.7 C429.205,487.62 426.769,500.479 425.355,510.776 " fill="none" id="Task-Schedule" style="stroke:#181818;stroke-width:0.6999999999999998;"/><polygon fill="#000000" points="435.744,486.7888,439.6157,481.3729,435.6929,480.1316,435.744,486.7888" style="stroke:#000000;stroke-width:0.6999999999999998;"/><text fill="#000000" font-family="sans-serif" font-size="9.1" lengthAdjust="spacing" textLength="30.1" x="443.1" y="487.2198">goes to</text><text fill="#000000" font-family="sans-serif" font-size="9.1" lengthAdjust="spacing" textLength="3.5" x="435.7739" y="471.4179">*</text><text fill="#000000" font-family="sans-serif" font-size="9.1" lengthAdjust="spacing" textLength="4.9" x="420.3248" y="503.1381">1</text></g><!--link Portal to Malfunctions--><g id="link_Portal_Malfunctions"><path codeLine="99" d="M482.636,195.244 C470.477,202.79 457.457,212.534 448,224 C438.109,235.998 431.956,252.994 428.659,264.446 " fill="none" id="Portal-Malfunctions" style="stroke:#181818;stroke-width:0.6999999999999998;"/><polygon fill="#000000" points="449.3474,233.5116,454.8636,229.7844,451.6193,227.2539,449.3474,233.5116" style="stroke:#000000;stroke-width:0.6999999999999998;"/><text fill="#000000" font-family="sans-serif" font-size="9.1" lengthAdjust="spacing" textLength="32.9" x="457.8" y="234.5198">receives</text><text fill="#000000" font-family="sans-serif" font-size="9.1" lengthAdjust="spacing" textLength="4.9" x="472.1601" y="195.0336">1</text><text fill="#000000" font-family="sans-serif" font-size="9.1" lengthAdjust="spacing" textLength="3.5" x="425.5599" y="256.6023">*</text></g><!--link Portal to Flaws--><g id="link_Portal_Flaws"><path codeLine="100" d="M528.381,196.483 C533.519,204.82 539.511,214.809 544.6,224 C552.16,237.657 560.119,253.729 565.341,264.53 " fill="none" id="Portal-Flaws" style="stroke:#181818;stroke-width:0.6999999999999998;"/><polygon fill="#000000" points="556.0705,233.8275,554.8563,227.2817,551.2407,229.2456,556.0705,233.8275" style="stroke:#000000;stroke-width:0.6999999999999998;"/><text fill="#000000" font-family="sans-serif" font-size="9.1" lengthAdjust="spacing" textLength="32.9" x="560.7" y="234.5198">receives</text><text fill="#000000" font-family="sans-serif" font-size="9.1" lengthAdjust="spacing" textLength="4.9" x="525.5222" y="211.8482">1</text><text fill="#000000" font-family="sans-serif" font-size="9.1" lengthAdjust="spacing" textLength="3.5" x="559.5107" y="256.7121">*</text></g><!--link Portal to Comments--><g id="link_Portal_Comments"><path codeLine="101" d="M507.416,196.427 C503.846,204.666 500.185,214.599 498.4,224 C495.796,237.727 498.694,253.652 501.515,264.397 " fill="none" id="Portal-Comments" style="stroke:#181818;stroke-width:0.6999999999999998;"/><polygon fill="#000000" points="501.5973,234.2387,504.1944,228.1088,500.0954,227.753,501.5973,234.2387" style="stroke:#000000;stroke-width:0.6999999999999998;"/><text fill="#000000" font-family="sans-serif" font-size="9.1" lengthAdjust="spacing" textLength="32.9" x="508.2" y="234.5198">receives</text><text fill="#000000" font-family="sans-serif" font-size="9.1" lengthAdjust="spacing" textLength="4.9" x="499.8256" y="212.0961">1</text><text fill="#000000" font-family="sans-serif" font-size="9.1" lengthAdjust="spacing" textLength="3.5" x="496.3597" y="256.7742">*</text></g><!--link Outside_User to Portal--><g id="link_Outside_User_Portal"><path codeLine="102" d="M553.756,82.719 C544.355,106.428 531.804,138.061 523.964,157.829 " fill="none" id="Outside_User-Portal" style="stroke:#181818;stroke-width:0.6999999999999998;"/><polygon fill="#000000" points="541.9095,126.9053,546.1563,121.7783,542.3317,120.2613,541.9095,126.9053" style="stroke:#000000;stroke-width:0.6999999999999998;"/><text fill="#000000" font-family="sans-serif" font-size="9.1" lengthAdjust="spacing" textLength="38.5" x="549.5" y="127.4198">reports to</text><text fill="#000000" font-family="sans-serif" font-size="9.1" lengthAdjust="spacing" textLength="4.9" x="546.56" y="98.3884">1</text><text fill="#000000" font-family="sans-serif" font-size="9.1" lengthAdjust="spacing" textLength="4.9" x="520.2004" y="149.9204">1</text></g><!--link Outside_User to Green_Spaces--><g id="link_Outside_User_Green_Spaces"><path codeLine="103" d="M593.53,82.803 C611.373,106.848 631.4,141.589 631.4,176.4 C631.4,176.4 631.4,176.4 631.4,644.35 C631.4,690.823 582.764,726.334 552.363,743.988 " fill="none" id="Outside_User-Green_Spaces" style="stroke:#181818;stroke-width:0.6999999999999998;"/><polygon fill="#000000" points="634.6825,407.4951,637.1292,401.3036,633.0227,401.0479,634.6825,407.4951" style="stroke:#000000;stroke-width:0.6999999999999998;"/><text fill="#000000" font-family="sans-serif" font-size="9.1" lengthAdjust="spacing" textLength="14.7" x="641.2" y="407.7698">use</text><text fill="#000000" font-family="sans-serif" font-size="9.1" lengthAdjust="spacing" textLength="3.5" x="593.7724" y="98.246">*</text><text fill="#000000" font-family="sans-serif" font-size="9.1" lengthAdjust="spacing" textLength="14" x="543.5273" y="736.1572">1..*</text></g><!--link Malfunctions to Task--><g id="link_Malfunctions_Task"><path codeLine="104" d="M430.619,290.689 C436.394,305.011 446.25,329.455 455.308,351.904 " fill="none" id="Malfunctions-Task" style="stroke:#181818;stroke-width:0.6999999999999998;"/><polygon fill="#000000" points="450.7091,327.7978,450.2488,321.1563,446.433,322.6953,450.7091,327.7978" style="stroke:#000000;stroke-width:0.6999999999999998;"/><text fill="#000000" font-family="sans-serif" font-size="9.1" lengthAdjust="spacing" textLength="30.1" x="455.7" y="328.3198">creates</text><text fill="#000000" font-family="sans-serif" font-size="9.1" lengthAdjust="spacing" textLength="3.5" x="427.9975" y="305.702">*</text><text fill="#000000" font-family="sans-serif" font-size="9.1" lengthAdjust="spacing" textLength="3.5" x="449.669" y="344.299">*</text></g><!--link Flaws to Task--><g id="link_Flaws_Task"><path codeLine="105" d="M561.722,290.689 C549.969,306.117 529.249,333.305 511.133,357.091 " fill="none" id="Flaws-Task" style="stroke:#181818;stroke-width:0.6999999999999998;"/><polygon fill="#000000" points="541.7789,327.3359,547.2524,323.5462,543.9795,321.0528,541.7789,327.3359" style="stroke:#000000;stroke-width:0.6999999999999998;"/><text fill="#000000" font-family="sans-serif" font-size="9.1" lengthAdjust="spacing" textLength="30.1" x="550.2" y="328.3198">creates</text><text fill="#000000" font-family="sans-serif" font-size="9.1" lengthAdjust="spacing" textLength="3.5" x="555.2045" y="305.702">*</text><text fill="#000000" font-family="sans-serif" font-size="9.1" lengthAdjust="spacing" textLength="3.5" x="516.5502" y="347.2589">*</text></g><!--SRC=[XLLBRzim3BxxLn2v52YmOjtH60eCMziDMDTXwNOD59cnXUZXINA3DDX_dnwHB2TDweCXaHyfyYCbcZMJFT54W51IqKuhWM3rW9N9cfxGDMbnRhSSGIErHBQy19YED6h3P0ihmWrM5wEACubssoCeRJjLNN1SMR0AD6ix2mtpxfYIXJFAYJ6VhDLiELZyHfMSinU4zrN76WJAD7LdXxL0vx8nLR20ny4Q9rtyDgXt5RXF4e5XWO8m7bQzGswKRgf_UwkVBYx28zuIimPABBPARpFYWV3L84EKPfU4Tvninjrd9GHAEmhcjCDcu3ZwDTdVFT4DogXfq53D-i10FWyRDeY5JxevZVfET8jlWVvWnnnRPl50QESAOHQtVmVM-rXF6zqzxFBwwwzYSpylDnfHBkQkDT3igYn-GYAYQweu9qkbYLNQ9v-fAiG9ANgqA9sdM2EjLcXC6TEjwBdQ8XeugEmpiJy6iKGTTXjS6cQZfk-Kn48NUo37yUHh7PrfNA7snnzHulTChfGMX7znybXDf9raj90qWqiduQaojkWTwIwEFWgxQ4Zb8aws8UPi_AXR8jbBS1qehae9pAvdyCxzhwukPmL1DNJ4mCqHDa7Fz4Go7Ps5CvobEs5Ik1g8nbF8d7H2PK42NSzSBwNJNj6wjZkZlJkZz1dw7go1QdGt-H2LGMN_rY02v3NmvUmWySuzMK1auzgcPSQYVjNeBCkqKyfuOiwW0fCntvYFfvAaLx7nJ-XDbPwPb7-AemPczZariDmwP9bkKQhu5YKwIz2aeCMBz1QsU9TEG4E_xj7-5jPkDB2MoNsr9dJ3x8E7Zpo0hzNQS-TtqxBx6rsN77siWYogem-Orjqe_ko0J7g70PjPpzpMq2eNMI0yJeiYtt8ur7us8diEQHmXmyGu3qbZP88gnrfn2VQ32posTyjzW5FqPK7FDF71n8ivHk_HCOnObF7-XCYpittLe4ICtty0]--></g></svg>