<?xml version="1.0" encoding="us-ascii" standalone="no"?><svg xmlns="http://www.w3.org/2000/svg" xmlns:xlink="http://www.w3.org/1999/xlink" contentStyleType="text/css" height="1250px" preserveAspectRatio="none" style="width:1168px;height:1250px;background:#FFFFFF;" version="1.1" viewBox="0 0 1168 1250" width="1168px" zoomAndPan="magnify"><defs/><g><!--class Outside_User--><g id="elem_Outside_User"><rect codeLine="9" fill="#F1F1F1" height="92.4844" id="Outside_User" rx="2.5" ry="2.5" style="stroke:#181818;stroke-width:0.5;" width="92" x="981.096" y="26"/><text fill="#000000" font-family="sans-serif" font-size="14" lengthAdjust="spacing" textLength="86" x="984.096" y="46.1074">Outside_User</text><line style="stroke:#181818;stroke-width:0.5;" x1="982.096" x2="1072.096" y1="54.6211" y2="54.6211"/><text fill="#000000" font-family="sans-serif" font-size="14" lengthAdjust="spacing" textLength="35" x="987.096" y="73.7285">name</text><text fill="#000000" font-family="sans-serif" font-size="14" lengthAdjust="spacing" textLength="33" x="987.096" y="92.3496">email</text><text fill="#000000" font-family="sans-serif" font-size="14" lengthAdjust="spacing" textLength="60" x="987.096" y="110.9707">password</text></g><!--class Portal--><g id="elem_Portal"><rect codeLine="14" fill="#F1F1F1" height="55.2422" id="Portal" rx="2.5" ry="2.5" style="stroke:#181818;stroke-width:0.5;" width="97" x="904.596" y="225.5"/><text fill="#000000" font-family="sans-serif" font-size="14" lengthAdjust="spacing" textLength="37" x="934.596" y="245.6074">Portal</text><line style="stroke:#181818;stroke-width:0.5;" x1="905.596" x2="1000.596" y1="254.1211" y2="254.1211"/><text fill="#000000" font-family="sans-serif" font-size="14" lengthAdjust="spacing" textLength="85" x="910.596" y="273.2285">task category</text></g><!--class Malfunctions--><g id="elem_Malfunctions"><rect codeLine="17" fill="#F1F1F1" height="36.6211" id="Malfunctions" rx="2.5" ry="2.5" style="stroke:#181818;stroke-width:0.5;" width="85" x="878.596" y="378"/><text fill="#000000" font-family="sans-serif" font-size="14" lengthAdjust="spacing" textLength="79" x="881.596" y="398.1074">Malfunctions</text><line style="stroke:#181818;stroke-width:0.5;" x1="879.596" x2="962.596" y1="406.6211" y2="406.6211"/></g><!--class Flaws--><g id="elem_Flaws"><rect codeLine="18" fill="#F1F1F1" height="36.6211" id="Flaws" rx="2.5" ry="2.5" style="stroke:#181818;stroke-width:0.5;" width="42" x="801.096" y="378"/><text fill="#000000" font-family="sans-serif" font-size="14" lengthAdjust="spacing" textLength="36" x="804.096" y="398.1074">Flaws</text><line style="stroke:#181818;stroke-width:0.5;" x1="802.096" x2="842.096" y1="406.6211" y2="406.6211"/></g><!--class Comments--><g id="elem_Comments"><rect codeLine="19" fill="#F1F1F1" height="36.6211" id="Comments" rx="2.5" ry="2.5" style="stroke:#181818;stroke-width:0.5;" width="73" x="998.596" y="378"/><text fill="#000000" font-family="sans-serif" font-size="14" lengthAdjust="spacing" textLength="67" x="1001.596" y="398.1074">Comments</text><line style="stroke:#181818;stroke-width:0.5;" x1="999.596" x2="1070.596" y1="406.6211" y2="406.6211"/></g><!--class Schedule--><g id="elem_Schedule"><rect codeLine="20" fill="#F1F1F1" height="55.2422" id="Schedule" rx="2.5" ry="2.5" style="stroke:#181818;stroke-width:0.5;" width="65" x="794.596" y="730"/><text fill="#000000" font-family="sans-serif" font-size="14" lengthAdjust="spacing" textLength="59" x="797.596" y="750.1074">Schedule</text><line style="stroke:#181818;stroke-width:0.5;" x1="795.596" x2="858.596" y1="758.6211" y2="758.6211"/><text fill="#000000" font-family="sans-serif" font-size="14" lengthAdjust="spacing" textLength="33" x="800.596" y="777.7285">tasks</text></g><!--class Garden--><g id="elem_Garden"><rect codeLine="23" fill="#F1F1F1" height="55.2422" id="Garden" rx="2.5" ry="2.5" style="stroke:#181818;stroke-width:0.5;" width="81" x="814.596" y="1188"/><text fill="#000000" font-family="sans-serif" font-size="14" lengthAdjust="spacing" textLength="48" x="831.096" y="1208.1074">Garden</text><line style="stroke:#181818;stroke-width:0.5;" x1="815.596" x2="894.596" y1="1216.6211" y2="1216.6211"/><text fill="#000000" font-family="sans-serif" font-size="14" lengthAdjust="spacing" textLength="69" x="820.596" y="1235.7285">description</text></g><!--class Medium_Sized--><g id="elem_Medium_Sized"><rect codeLine="26" fill="#F1F1F1" height="55.2422" id="Medium_Sized" rx="2.5" ry="2.5" style="stroke:#181818;stroke-width:0.5;" width="97" x="930.596" y="1188"/><text fill="#000000" font-family="sans-serif" font-size="14" lengthAdjust="spacing" textLength="91" x="933.596" y="1208.1074">Medium_Sized</text><line style="stroke:#181818;stroke-width:0.5;" x1="931.596" x2="1026.596" y1="1216.6211" y2="1216.6211"/><text fill="#000000" font-family="sans-serif" font-size="14" lengthAdjust="spacing" textLength="69" x="936.596" y="1235.7285">description</text></g><!--class Large_Sized--><g id="elem_Large_Sized"><rect codeLine="29" fill="#F1F1F1" height="55.2422" id="Large_Sized" rx="2.5" ry="2.5" style="stroke:#181818;stroke-width:0.5;" width="85" x="1062.596" y="1188"/><text fill="#000000" font-family="sans-serif" font-size="14" lengthAdjust="spacing" textLength="79" x="1065.596" y="1208.1074">Large_Sized</text><line style="stroke:#181818;stroke-width:0.5;" x1="1063.596" x2="1146.596" y1="1216.6211" y2="1216.6211"/><text fill="#000000" font-family="sans-serif" font-size="14" lengthAdjust="spacing" textLength="69" x="1068.596" y="1235.7285">description</text></g><!--class Vehicles_Machines_Equipment--><g id="elem_Vehicles_Machines_Equipment"><rect codeLine="32" fill="#F1F1F1" height="55.2422" id="Vehicles_Machines_Equipment" rx="2.5" ry="2.5" style="stroke:#181818;stroke-width:0.5;" width="202" x="11.096" y="1054"/><text fill="#000000" font-family="sans-serif" font-size="14" lengthAdjust="spacing" textLength="196" x="14.096" y="1074.1074">Vehicles_Machines_Equipment</text><line style="stroke:#181818;stroke-width:0.5;" x1="12.096" x2="212.096" y1="1082.6211" y2="1082.6211"/><text fill="#000000" font-family="sans-serif" font-size="14" lengthAdjust="spacing" textLength="69" x="17.096" y="1101.7285">description</text></g><!--class VFM--><g id="elem_VFM"><rect codeLine="35" fill="#F1F1F1" height="36.6211" id="VFM" rx="2.5" ry="2.5" style="stroke:#181818;stroke-width:0.5;" width="35" x="595.596" y="1063"/><text fill="#000000" font-family="sans-serif" font-size="14" lengthAdjust="spacing" textLength="29" x="598.596" y="1083.1074">VFM</text><line style="stroke:#181818;stroke-width:0.5;" x1="596.596" x2="629.596" y1="1091.6211" y2="1091.6211"/></g><!--class HRM--><g id="elem_HRM"><rect codeLine="36" fill="#F1F1F1" height="36.6211" id="HRM" rx="2.5" ry="2.5" style="stroke:#181818;stroke-width:0.5;" width="36" x="666.096" y="1063"/><text fill="#000000" font-family="sans-serif" font-size="14" lengthAdjust="spacing" textLength="30" x="669.096" y="1083.1074">HRM</text><line style="stroke:#181818;stroke-width:0.5;" x1="667.096" x2="701.096" y1="1091.6211" y2="1091.6211"/></g><!--class GSM--><g id="elem_GSM"><rect codeLine="37" fill="#F1F1F1" height="36.6211" id="GSM" rx="2.5" ry="2.5" style="stroke:#181818;stroke-width:0.5;" width="37" x="741.596" y="1063"/><text fill="#000000" font-family="sans-serif" font-size="14" lengthAdjust="spacing" textLength="31" x="744.596" y="1083.1074">GSM</text><line style="stroke:#181818;stroke-width:0.5;" x1="742.596" x2="777.596" y1="1091.6211" y2="1091.6211"/></g><!--class Green_Spaces--><g id="elem_Green_Spaces"><rect codeLine="38" fill="#F1F1F1" height="36.6211" id="Green_Spaces" rx="2.5" ry="2.5" style="stroke:#181818;stroke-width:0.5;" width="101" x="928.596" y="1063"/><text fill="#000000" font-family="sans-serif" font-size="14" lengthAdjust="spacing" textLength="95" x="931.596" y="1083.1074">Green_Spaces</text><line style="stroke:#181818;stroke-width:0.5;" x1="929.596" x2="1028.596" y1="1091.6211" y2="1091.6211"/></g><!--class Team--><g id="elem_Team"><rect codeLine="41" fill="#F1F1F1" height="55.2422" id="Team" rx="2.5" ry="2.5" style="stroke:#181818;stroke-width:0.5;" width="94" x="470.096" y="369"/><text fill="#000000" font-family="sans-serif" font-size="14" lengthAdjust="spacing" textLength="36" x="499.096" y="389.1074">Team</text><line style="stroke:#181818;stroke-width:0.5;" x1="471.096" x2="563.096" y1="397.6211" y2="397.6211"/><text fill="#000000" font-family="sans-serif" font-size="14" lengthAdjust="spacing" textLength="82" x="476.096" y="416.7285">collaborators</text></g><!--class Collaborators--><g id="elem_Collaborators"><rect codeLine="45" fill="#F1F1F1" height="73.8633" id="Collaborators" rx="2.5" ry="2.5" style="stroke:#181818;stroke-width:0.5;" width="91" x="234.596" y="216"/><text fill="#000000" font-family="sans-serif" font-size="14" lengthAdjust="spacing" textLength="85" x="237.596" y="236.1074">Collaborators</text><line style="stroke:#181818;stroke-width:0.5;" x1="235.596" x2="324.596" y1="244.6211" y2="244.6211"/><text fill="#000000" font-family="sans-serif" font-size="14" lengthAdjust="spacing" textLength="23" x="240.596" y="263.7285">skill</text><text fill="#000000" font-family="sans-serif" font-size="14" lengthAdjust="spacing" textLength="66" x="240.596" y="282.3496">profession</text></g><!--class Employees--><g id="elem_Employees"><rect codeLine="49" fill="#F1F1F1" height="129.7266" id="Employees" rx="2.5" ry="2.5" style="stroke:#181818;stroke-width:0.5;" width="101" x="229.596" y="7"/><text fill="#000000" font-family="sans-serif" font-size="14" lengthAdjust="spacing" textLength="69" x="245.596" y="27.1074">Employees</text><line style="stroke:#181818;stroke-width:0.5;" x1="230.596" x2="329.596" y1="35.6211" y2="35.6211"/><text fill="#000000" font-family="sans-serif" font-size="14" lengthAdjust="spacing" textLength="35" x="235.596" y="54.7285">name</text><text fill="#000000" font-family="sans-serif" font-size="14" lengthAdjust="spacing" textLength="68" x="235.596" y="73.3496">vatNumber</text><text fill="#000000" font-family="sans-serif" font-size="14" lengthAdjust="spacing" textLength="47" x="235.596" y="91.9707">website</text><text fill="#000000" font-family="sans-serif" font-size="14" lengthAdjust="spacing" textLength="89" x="235.596" y="110.5918">phoneNumber</text><text fill="#000000" font-family="sans-serif" font-size="14" lengthAdjust="spacing" textLength="33" x="235.596" y="129.2129">email</text></g><!--class Task--><g id="elem_Task"><rect codeLine="57" fill="#F1F1F1" height="148.3477" id="Task" rx="2.5" ry="2.5" style="stroke:#181818;stroke-width:0.5;" width="100" x="826.096" y="503"/><text fill="#000000" font-family="sans-serif" font-size="14" lengthAdjust="spacing" textLength="31" x="860.596" y="523.1074">Task</text><line style="stroke:#181818;stroke-width:0.5;" x1="827.096" x2="925.096" y1="531.6211" y2="531.6211"/><text fill="#000000" font-family="sans-serif" font-size="14" lengthAdjust="spacing" textLength="61" x="832.096" y="550.7285">reference</text><text fill="#000000" font-family="sans-serif" font-size="14" lengthAdjust="spacing" textLength="69" x="832.096" y="569.3496">description</text><text fill="#000000" font-family="sans-serif" font-size="14" lengthAdjust="spacing" textLength="82" x="832.096" y="587.9707">informalDesc</text><text fill="#000000" font-family="sans-serif" font-size="14" lengthAdjust="spacing" textLength="88" x="832.096" y="606.5918">technicalDesc</text><text fill="#000000" font-family="sans-serif" font-size="14" lengthAdjust="spacing" textLength="52" x="832.096" y="625.2129">duration</text><text fill="#000000" font-family="sans-serif" font-size="14" lengthAdjust="spacing" textLength="26" x="832.096" y="643.834">cost</text></g><!--class Managers--><g id="elem_Managers"><rect codeLine="65" fill="#F1F1F1" height="111.1055" id="Managers" rx="2.5" ry="2.5" style="stroke:#181818;stroke-width:0.5;" width="69" x="551.596" y="864"/><text fill="#000000" font-family="sans-serif" font-size="14" lengthAdjust="spacing" textLength="63" x="554.596" y="884.1074">Managers</text><line style="stroke:#181818;stroke-width:0.5;" x1="552.596" x2="619.596" y1="892.6211" y2="892.6211"/><text fill="#000000" font-family="sans-serif" font-size="14" lengthAdjust="spacing" textLength="35" x="557.596" y="911.7285">name</text><text fill="#000000" font-family="sans-serif" font-size="14" lengthAdjust="spacing" textLength="33" x="557.596" y="930.3496">email</text><text fill="#000000" font-family="sans-serif" font-size="14" lengthAdjust="spacing" textLength="49" x="557.596" y="948.9707">position</text><text fill="#000000" font-family="sans-serif" font-size="14" lengthAdjust="spacing" textLength="40" x="557.596" y="967.5918">phone</text></g><!--class Organization--><g id="elem_Organization"><rect codeLine="71" fill="#F1F1F1" height="36.6211" id="Organization" rx="2.5" ry="2.5" style="stroke:#181818;stroke-width:0.5;" width="86" x="8.096" y="53.5"/><text fill="#000000" font-family="sans-serif" font-size="14" lengthAdjust="spacing" textLength="80" x="11.096" y="73.6074">Organization</text><line style="stroke:#181818;stroke-width:0.5;" x1="9.096" x2="93.096" y1="82.1211" y2="82.1211"/></g><!--class CheckUp--><g id="elem_CheckUp"><rect codeLine="72" fill="#F1F1F1" height="55.2422" id="CheckUp" rx="2.5" ry="2.5" style="stroke:#181818;stroke-width:0.5;" width="63" x="163.596" y="1188"/><text fill="#000000" font-family="sans-serif" font-size="14" lengthAdjust="spacing" textLength="57" x="166.596" y="1208.1074">CheckUp</text><line style="stroke:#181818;stroke-width:0.5;" x1="164.596" x2="225.596" y1="1216.6211" y2="1216.6211"/><text fill="#000000" font-family="sans-serif" font-size="14" lengthAdjust="spacing" textLength="28" x="169.596" y="1235.7285">date</text></g><!--class Skill--><g id="elem_Skill"><rect codeLine="75" fill="#F1F1F1" height="36.6211" id="Skill" rx="2.5" ry="2.5" style="stroke:#181818;stroke-width:0.5;" width="31" x="306.596" y="1063"/><text fill="#000000" font-family="sans-serif" font-size="14" lengthAdjust="spacing" textLength="25" x="309.596" y="1083.1074">Skill</text><line style="stroke:#181818;stroke-width:0.5;" x1="307.596" x2="336.596" y1="1091.6211" y2="1091.6211"/></g><!--class Jobs--><g id="elem_Jobs"><rect codeLine="76" fill="#F1F1F1" height="36.6211" id="Jobs" rx="2.5" ry="2.5" style="stroke:#181818;stroke-width:0.5;" width="35" x="388.596" y="1063"/><text fill="#000000" font-family="sans-serif" font-size="14" lengthAdjust="spacing" textLength="29" x="391.596" y="1083.1074">Jobs</text><line style="stroke:#181818;stroke-width:0.5;" x1="389.596" x2="422.596" y1="1091.6211" y2="1091.6211"/></g><!--link Organization to Employees--><g id="link_Organization_Employees"><path codeLine="78" d="M94.166,72 C132.516,72 188.666,72 229.216,72 " fill="none" id="Organization-Employees" style="stroke:#181818;stroke-width:1.0;"/><polygon fill="#000000" points="153.846,59.6455,144.8009,56.7066,144.8009,62.5844,153.846,59.6455" style="stroke:#000000;stroke-width:1.0;"/><text fill="#000000" font-family="sans-serif" font-size="13" lengthAdjust="spacing" textLength="21" x="157.846" y="65.0283">has</text><text fill="#000000" font-family="sans-serif" font-size="13" lengthAdjust="spacing" textLength="7" x="102.1702" y="67.625">1</text><text fill="#000000" font-family="sans-serif" font-size="13" lengthAdjust="spacing" textLength="20" x="201.4157" y="67.9754">1..*</text></g><!--link Organization to Vehicles_Machines_Equipment--><g id="link_Organization_Vehicles_Machines_Equipment"><path codeLine="79" d="M44.986,90.54 C34.476,122.31 14.096,191.71 14.096,252 C14.096,252 14.096,252 14.096,920.5 C14.096,973.76 54.066,1024.25 82.956,1053.79 " fill="none" id="Organization-Vehicles_Machines_Equipment" style="stroke:#181818;stroke-width:1.0;"/><polygon fill="#000000" points="19.2929,582.1416,21.8733,572.9878,16,573.2193,19.2929,582.1416" style="stroke:#000000;stroke-width:1.0;"/><text fill="#000000" font-family="sans-serif" font-size="13" lengthAdjust="spacing" textLength="21" x="28.096" y="582.5283">has</text><text fill="#000000" font-family="sans-serif" font-size="13" lengthAdjust="spacing" textLength="7" x="35.2832" y="112.2675">1</text><text fill="#000000" font-family="sans-serif" font-size="13" lengthAdjust="spacing" textLength="20" x="54.3941" y="1042.9027">1..*</text></g><!--link Employees to Collaborators--><g id="link_Employees_Collaborators"><path codeLine="80" d="M280.096,137.12 C280.096,163.6 280.096,193.32 280.096,215.89 " fill="none" id="Employees-Collaborators" style="stroke:#181818;stroke-width:1.0;"/><polygon fill="#000000" points="285.096,181.6455,288.0349,172.6004,282.157,172.6004,285.096,181.6455" style="stroke:#000000;stroke-width:1.0;"/><text fill="#000000" font-family="sans-serif" font-size="13" lengthAdjust="spacing" textLength="18" x="294.096" y="182.0283">are</text><text fill="#000000" font-family="sans-serif" font-size="13" lengthAdjust="spacing" textLength="7" x="272.735" y="158.7695">1</text><text fill="#000000" font-family="sans-serif" font-size="13" lengthAdjust="spacing" textLength="5" x="274.6507" y="204.8321">*</text></g><!--link Employees to Managers--><g id="link_Employees_Managers"><path codeLine="81" d="M330.936,82.18 C448.096,104.78 727.096,167.46 727.096,252 C727.096,252 727.096,252 727.096,758.5 C727.096,822.55 662.706,873.1 620.946,899.15 " fill="none" id="Employees-Managers" style="stroke:#181818;stroke-width:1.0;"/><polygon fill="#000000" points="733.7686,468.3574,733.5124,458.8503,727.9732,460.8166,733.7686,468.3574" style="stroke:#000000;stroke-width:1.0;"/><text fill="#000000" font-family="sans-serif" font-size="13" lengthAdjust="spacing" textLength="18" x="741.096" y="469.0283">are</text><text fill="#000000" font-family="sans-serif" font-size="13" lengthAdjust="spacing" textLength="7" x="338.5775" y="79.4843">1</text><text fill="#000000" font-family="sans-serif" font-size="13" lengthAdjust="spacing" textLength="5" x="628.6494" y="890.2471">*</text></g><!--link Managers to GSM--><g id="link_Managers_GSM"><path codeLine="82" d="M620.856,942.75 C644.436,958.66 675.656,981.37 700.096,1005 C718.756,1023.04 736.816,1046.91 748.156,1062.94 " fill="none" id="Managers-GSM" style="stroke:#181818;stroke-width:1.0;"/><polygon fill="#000000" points="724.7316,1018.0781,720.1723,1009.7316,716.1371,1014.0055,724.7316,1018.0781" style="stroke:#000000;stroke-width:1.0;"/><text fill="#000000" font-family="sans-serif" font-size="13" lengthAdjust="spacing" textLength="21" x="730.096" y="1020.0283">has</text><text fill="#000000" font-family="sans-serif" font-size="13" lengthAdjust="spacing" textLength="7" x="628.7471" y="942.8396">1</text><text fill="#000000" font-family="sans-serif" font-size="13" lengthAdjust="spacing" textLength="7" x="736.4275" y="1051.7838">1</text></g><!--link Managers to HRM--><g id="link_Managers_HRM"><path codeLine="83" d="M620.616,967.58 C628.946,979.58 637.606,992.59 645.096,1005 C656.686,1024.2 668.266,1047.21 675.756,1062.75 " fill="none" id="Managers-HRM" style="stroke:#181818;stroke-width:1.0;"/><polygon fill="#000000" points="663.6026,1018.9718,661.611,1009.6721,656.5252,1012.6188,663.6026,1018.9718" style="stroke:#000000;stroke-width:1.0;"/><text fill="#000000" font-family="sans-serif" font-size="13" lengthAdjust="spacing" textLength="21" x="670.096" y="1020.0283">has</text><text fill="#000000" font-family="sans-serif" font-size="13" lengthAdjust="spacing" textLength="7" x="628.4576" y="972.7908">1</text><text fill="#000000" font-family="sans-serif" font-size="13" lengthAdjust="spacing" textLength="7" x="665.278" y="1051.872">1</text></g><!--link Managers to VFM--><g id="link_Managers_VFM"><path codeLine="84" d="M595.316,975.12 C600.476,1005.71 606.576,1041.84 610.116,1062.86 " fill="none" id="Managers-VFM" style="stroke:#181818;stroke-width:1.0;"/><polygon fill="#000000" points="608.9276,1019.5759,610.3211,1010.1679,604.5252,1011.1456,608.9276,1019.5759" style="stroke:#000000;stroke-width:1.0;"/><text fill="#000000" font-family="sans-serif" font-size="13" lengthAdjust="spacing" textLength="21" x="617.096" y="1020.0283">has</text><text fill="#000000" font-family="sans-serif" font-size="13" lengthAdjust="spacing" textLength="7" x="589.0131" y="996.9743">1</text><text fill="#000000" font-family="sans-serif" font-size="13" lengthAdjust="spacing" textLength="7" x="601.1315" y="1051.6793">1</text></g><!--link Managers to Team--><g id="link_Managers_Team"><path codeLine="85" d="M578.876,863.99 C564.206,753.25 531.406,505.55 520.616,424.05 " fill="none" id="Managers-Team" style="stroke:#181818;stroke-width:1.0;"/><polygon fill="#000000" points="562.4396,685.6888,560.7135,695.0414,566.5405,694.2698,562.4396,685.6888" style="stroke:#000000;stroke-width:1.0;"/><text fill="#000000" font-family="sans-serif" font-size="13" lengthAdjust="spacing" textLength="43" x="572.096" y="696.0283">creates</text><text fill="#000000" font-family="sans-serif" font-size="13" lengthAdjust="spacing" textLength="7" x="570.5025" y="852.8289">1</text><text fill="#000000" font-family="sans-serif" font-size="13" lengthAdjust="spacing" textLength="20" x="523.7425" y="446.4205">1..*</text></g><!--link Managers to Green_Spaces--><g id="link_Managers_Green_Spaces"><path codeLine="86" d="M620.736,935.37 C668.406,955.75 756.976,993.33 833.096,1024 C866.246,1037.36 903.866,1051.9 932.616,1062.89 " fill="none" id="Managers-Green_Spaces" style="stroke:#181818;stroke-width:1.0;"/><polygon fill="#000000" points="842.7241,1016.5378,835.464,1010.3943,833.2395,1015.8349,842.7241,1016.5378" style="stroke:#000000;stroke-width:1.0;"/><text fill="#000000" font-family="sans-serif" font-size="13" lengthAdjust="spacing" textLength="53" x="847.096" y="1020.0283">manages</text><text fill="#000000" font-family="sans-serif" font-size="13" lengthAdjust="spacing" textLength="7" x="628.6023" y="933.9375">1</text><text fill="#000000" font-family="sans-serif" font-size="13" lengthAdjust="spacing" textLength="20" x="900.261" y="1054.0613">1..*</text></g><!--link Managers to Collaborators--><g id="link_Managers_Collaborators"><path codeLine="87" d="M551.516,914.5 C478.056,903.86 313.096,867.82 313.096,758.5 C313.096,395.5 313.096,395.5 313.096,395.5 C313.096,358.92 302.506,318.39 293.326,290.11 " fill="none" id="Managers-Collaborators" style="stroke:#181818;stroke-width:1.0;"/><polygon fill="#000000" points="316.1853,572.525,316.9258,582.0067,322.3576,579.7606,316.1853,572.525" style="stroke:#000000;stroke-width:1.0;"/><text fill="#000000" font-family="sans-serif" font-size="13" lengthAdjust="spacing" textLength="93" x="327.096" y="582.5283">hire and register</text><text fill="#000000" font-family="sans-serif" font-size="13" lengthAdjust="spacing" textLength="7" x="536.662" y="908.7631">1</text><text fill="#000000" font-family="sans-serif" font-size="13" lengthAdjust="spacing" textLength="5" x="290.1702" y="312.0143">*</text></g><!--link Managers to Vehicles_Machines_Equipment--><g id="link_Managers_Vehicles_Machines_Equipment"><path codeLine="88" d="M551.326,931.48 C513.066,943.3 449.626,962.13 394.096,975 C321.056,991.92 297.776,977.34 228.096,1005 C197.946,1016.97 167.336,1037.31 145.136,1053.87 " fill="none" id="Managers-Vehicles_Machines_Equipment" style="stroke:#181818;stroke-width:1.0;"/><polygon fill="#000000" points="228.3086,1016.088,237.8169,1016.2925,236.1212,1010.6645,228.3086,1016.088" style="stroke:#000000;stroke-width:1.0;"/><text fill="#000000" font-family="sans-serif" font-size="13" lengthAdjust="spacing" textLength="114" x="242.096" y="1020.0283">choose and register</text><text fill="#000000" font-family="sans-serif" font-size="13" lengthAdjust="spacing" textLength="7" x="536.4328" y="949.7515">1</text><text fill="#000000" font-family="sans-serif" font-size="13" lengthAdjust="spacing" textLength="5" x="147.1983" y="1042.5489">*</text></g><!--link Managers to Skill--><g id="link_Managers_Skill"><path codeLine="89" d="M551.326,929.43 C508.856,941.53 436.246,966.19 384.096,1005 C362.596,1021 344.016,1046.01 332.946,1062.81 " fill="none" id="Managers-Skill" style="stroke:#181818;stroke-width:1.0;"/><polygon fill="#000000" points="384.8289,1017.2517,394.08,1015.0452,391.0162,1010.0289,384.8289,1017.2517" style="stroke:#000000;stroke-width:1.0;"/><text fill="#000000" font-family="sans-serif" font-size="13" lengthAdjust="spacing" textLength="43" x="398.096" y="1020.0283">register</text><text fill="#000000" font-family="sans-serif" font-size="13" lengthAdjust="spacing" textLength="7" x="536.4328" y="926.7724">1</text><text fill="#000000" font-family="sans-serif" font-size="13" lengthAdjust="spacing" textLength="20" x="313.2063" y="1051.614">1..*</text></g><!--link Managers to Jobs--><g id="link_Managers_Jobs"><path codeLine="90" d="M551.556,941.07 C526.456,956.89 492.416,980.17 466.096,1005 C447.226,1022.81 429.206,1046.73 417.926,1062.83 " fill="none" id="Managers-Jobs" style="stroke:#181818;stroke-width:1.0;"/><polygon fill="#000000" points="467.4001,1018.0131,476.0654,1014.0935,472.1066,1009.7487,467.4001,1018.0131" style="stroke:#000000;stroke-width:1.0;"/><text fill="#000000" font-family="sans-serif" font-size="13" lengthAdjust="spacing" textLength="43" x="480.096" y="1020.0283">register</text><text fill="#000000" font-family="sans-serif" font-size="13" lengthAdjust="spacing" textLength="7" x="536.7102" y="961.3194">1</text><text fill="#000000" font-family="sans-serif" font-size="13" lengthAdjust="spacing" textLength="20" x="398.4864" y="1051.6401">1..*</text></g><!--link Skill to Collaborators--><g id="link_Skill_Collaborators"><path codeLine="91" d="M306.346,1077.13 C256.136,1065.37 103.096,1021.27 103.096,920.5 C103.096,395.5 103.096,395.5 103.096,395.5 C103.096,328.23 182.066,287.69 234.516,268.19 " fill="none" id="Skill-Collaborators" style="stroke:#181818;stroke-width:1.0;"/><polygon fill="#000000" points="107.6537,685.6651,105.5263,694.9347,111.3812,694.4148,107.6537,685.6651" style="stroke:#000000;stroke-width:1.0;"/><text fill="#000000" font-family="sans-serif" font-size="13" lengthAdjust="spacing" textLength="69" x="117.096" y="696.0283">attributed to</text><text fill="#000000" font-family="sans-serif" font-size="13" lengthAdjust="spacing" textLength="20" x="278.46" y="1070.3195">1..*</text><text fill="#000000" font-family="sans-serif" font-size="13" lengthAdjust="spacing" textLength="7" x="219.6938" y="266.3186">1</text></g><!--link Jobs to Collaborators--><g id="link_Jobs_Collaborators"><path codeLine="92" d="M388.546,1063.39 C378.366,1052.76 365.866,1038.42 357.096,1024 C276.526,891.59 257.286,852.22 228.096,700 C199.176,549.18 245.556,366.37 268.476,290.12 " fill="none" id="Jobs-Collaborators" style="stroke:#181818;stroke-width:1.0;"/><polygon fill="#000000" points="232.3288,685.7047,230.8125,695.0936,236.6208,694.1918,232.3288,685.7047" style="stroke:#000000;stroke-width:1.0;"/><text fill="#000000" font-family="sans-serif" font-size="13" lengthAdjust="spacing" textLength="44" x="242.096" y="696.0283">given to</text><text fill="#000000" font-family="sans-serif" font-size="13" lengthAdjust="spacing" textLength="7" x="374.5732" y="1051.7147">1</text><text fill="#000000" font-family="sans-serif" font-size="13" lengthAdjust="spacing" textLength="7" x="258.8772" y="312.026">1</text></g><!--link Vehicles_Machines_Equipment to Team--><g id="link_Vehicles_Machines_Equipment_Team"><path codeLine="93" d="M136.376,1053.82 C194.176,989.14 341.606,817.03 429.096,651 C470.256,572.9 498.696,471.52 510.696,424.12 " fill="none" id="Vehicles_Machines_Equipment-Team" style="stroke:#181818;stroke-width:1.0;"/><polygon fill="#000000" points="389.6509,753.3475,382.5027,759.6209,387.5553,762.6244,389.6509,753.3475" style="stroke:#000000;stroke-width:1.0;"/><text fill="#000000" font-family="sans-serif" font-size="13" lengthAdjust="spacing" textLength="91" x="396.096" y="763.0283">are attributed to</text><text fill="#000000" font-family="sans-serif" font-size="13" lengthAdjust="spacing" textLength="5" x="136.1403" y="1042.9393">*</text><text fill="#000000" font-family="sans-serif" font-size="13" lengthAdjust="spacing" textLength="7" x="501.5303" y="446.0549">1</text></g><!--link Vehicles_Machines_Equipment to CheckUp--><g id="link_Vehicles_Machines_Equipment_CheckUp"><path codeLine="94" d="M104.616,1109.17 C101.876,1124.35 101.126,1143.22 109.096,1158 C120.546,1179.22 143.836,1193.78 163.296,1202.79 " fill="none" id="Vehicles_Machines_Equipment-CheckUp" style="stroke:#181818;stroke-width:1.0;"/><polygon fill="#000000" points="116.7514,1152.8821,114.4379,1143.6572,109.4575,1146.7789,116.7514,1152.8821" style="stroke:#000000;stroke-width:1.0;"/><text fill="#000000" font-family="sans-serif" font-size="13" lengthAdjust="spacing" textLength="28" x="123.096" y="1154.0283">need</text><text fill="#000000" font-family="sans-serif" font-size="13" lengthAdjust="spacing" textLength="5" x="97.4328" y="1131.1158">*</text><text fill="#000000" font-family="sans-serif" font-size="13" lengthAdjust="spacing" textLength="7" x="148.5741" y="1195.184">1</text></g><!--link CheckUp to Vehicles_Machines_Equipment--><g id="link_CheckUp_Vehicles_Machines_Equipment"><path codeLine="112" d="M182.886,1187.98 C175.716,1173.19 166.116,1154.66 156.096,1139 C149.596,1128.84 141.706,1118.27 134.406,1109.06 " fill="none" id="CheckUp-Vehicles_Machines_Equipment" style="stroke:#181818;stroke-width:1.0;"/><polygon fill="#000000" points="169.4789,1144.3851,171.7091,1153.6305,176.7174,1150.5539,169.4789,1144.3851" style="stroke:#000000;stroke-width:1.0;"/><text fill="#000000" font-family="sans-serif" font-size="13" lengthAdjust="spacing" textLength="21" x="181.096" y="1154.0283">has</text><text fill="#000000" font-family="sans-serif" font-size="13" lengthAdjust="spacing" textLength="7" x="172.253" y="1176.6843">1</text><text fill="#000000" font-family="sans-serif" font-size="13" lengthAdjust="spacing" textLength="7" x="131.7558" y="1131.4328">1</text></g><!--link Schedule to Managers--><g id="link_Schedule_Managers"><path codeLine="95" d="M802.366,785.24 C787.306,800.63 767.146,819.69 747.096,834 C706.376,863.07 654.356,888.53 620.646,903.71 " fill="none" id="Schedule-Managers" style="stroke:#181818;stroke-width:1.0;"/><polygon fill="#000000" points="770.9075,827.3762,780.0896,824.8983,776.8795,819.9744,770.9075,827.3762" style="stroke:#000000;stroke-width:1.0;"/><text fill="#000000" font-family="sans-serif" font-size="13" lengthAdjust="spacing" textLength="85" x="784.096" y="830.0283">is managed by</text><text fill="#000000" font-family="sans-serif" font-size="13" lengthAdjust="spacing" textLength="7" x="789.1907" y="807.2012">1</text></g><!--link Green_Spaces to Garden--><g id="link_Green_Spaces_Garden"><path codeLine="96" d="M962.626,1100.03 C941.546,1122.47 904.816,1161.58 880.226,1187.75 " fill="none" id="Green_Spaces-Garden" style="stroke:#181818;stroke-width:1.0;"/><polygon fill="#000000" points="925.6727,1152.2898,934.0076,1147.7094,929.7234,1143.685,925.6727,1152.2898" style="stroke:#000000;stroke-width:1.0;"/><text fill="#000000" font-family="sans-serif" font-size="13" lengthAdjust="spacing" textLength="21" x="938.096" y="1154.0283">has</text><text fill="#000000" font-family="sans-serif" font-size="13" lengthAdjust="spacing" textLength="7" x="950.0094" y="1121.7547">1</text><text fill="#000000" font-family="sans-serif" font-size="13" lengthAdjust="spacing" textLength="5" x="880.1763" y="1176.854">*</text></g><!--link Green_Spaces to Medium_Sized--><g id="link_Green_Spaces_Medium_Sized"><path codeLine="97" d="M979.096,1100.03 C979.096,1122.47 979.096,1161.58 979.096,1187.75 " fill="none" id="Green_Spaces-Medium_Sized" style="stroke:#181818;stroke-width:1.0;"/><polygon fill="#000000" points="984.096,1153.6455,987.0349,1144.6004,981.157,1144.6004,984.096,1153.6455" style="stroke:#000000;stroke-width:1.0;"/><text fill="#000000" font-family="sans-serif" font-size="13" lengthAdjust="spacing" textLength="21" x="993.096" y="1154.0283">has</text><text fill="#000000" font-family="sans-serif" font-size="13" lengthAdjust="spacing" textLength="7" x="971.1116" y="1121.7547">1</text><text fill="#000000" font-family="sans-serif" font-size="13" lengthAdjust="spacing" textLength="5" x="973.5491" y="1176.854">*</text></g><!--link Green_Spaces to Large_Sized--><g id="link_Green_Spaces_Large_Sized"><path codeLine="98" d="M995.826,1100.03 C1017.246,1122.47 1054.576,1161.58 1079.556,1187.75 " fill="none" id="Green_Spaces-Large_Sized" style="stroke:#181818;stroke-width:1.0;"/><polygon fill="#000000" points="1057.5483,1152.2623,1053.4289,1143.6902,1049.1771,1147.7487,1057.5483,1152.2623" style="stroke:#000000;stroke-width:1.0;"/><text fill="#000000" font-family="sans-serif" font-size="13" lengthAdjust="spacing" textLength="21" x="1063.096" y="1154.0283">has</text><text fill="#000000" font-family="sans-serif" font-size="13" lengthAdjust="spacing" textLength="7" x="992.5469" y="1121.7547">1</text><text fill="#000000" font-family="sans-serif" font-size="13" lengthAdjust="spacing" textLength="5" x="1068.4222" y="1176.854">*</text></g><!--link Green_Spaces to Task--><g id="link_Green_Spaces_Task"><path codeLine="99" d="M982.276,1062.99 C989.526,1020.33 1005.636,907.7 992.096,815 C983.116,753.5 979.846,736.61 952.096,681 C944.906,666.58 935.686,652.07 926.176,638.68 " fill="none" id="Green_Spaces-Task" style="stroke:#181818;stroke-width:1.0;"/><polygon fill="#000000" points="998.4406,819.6886,996.7126,829.0409,1002.5397,828.2705,998.4406,819.6886" style="stroke:#000000;stroke-width:1.0;"/><text fill="#000000" font-family="sans-serif" font-size="13" lengthAdjust="spacing" textLength="56" x="1008.096" y="830.0283">originates</text><text fill="#000000" font-family="sans-serif" font-size="13" lengthAdjust="spacing" textLength="20" x="960.1873" y="1051.8491">1..*</text><text fill="#000000" font-family="sans-serif" font-size="13" lengthAdjust="spacing" textLength="5" x="934.2273" y="643.8472">*</text></g><!--link Task to Green_Spaces--><g id="link_Task_Green_Spaces"><path codeLine="102" d="M897.576,651.08 C900.036,661.08 902.306,671.25 904.096,681 C916.436,748.2 907.656,766.64 919.096,834 C933.846,920.85 962.166,1022.45 973.856,1062.74 " fill="none" id="Task-Green_Spaces" style="stroke:#181818;stroke-width:1.0;"/><polygon fill="#000000" points="925.007,829.5618,926.2487,820.1327,920.4692,821.2036,925.007,829.5618" style="stroke:#000000;stroke-width:1.0;"/><text fill="#000000" font-family="sans-serif" font-size="13" lengthAdjust="spacing" textLength="50" x="933.096" y="830.0283">solved in</text><text fill="#000000" font-family="sans-serif" font-size="13" lengthAdjust="spacing" textLength="20" x="878.7598" y="673.6215">1..*</text><text fill="#000000" font-family="sans-serif" font-size="13" lengthAdjust="spacing" textLength="7" x="964.2886" y="1051.8591">1</text></g><!--link Collaborators to Team--><g id="link_Collaborators_Team"><path codeLine="100" d="M325.796,281.28 C368.026,306.5 430.416,343.75 472.346,368.78 " fill="none" id="Collaborators-Team" style="stroke:#181818;stroke-width:1.0;"/><polygon fill="#000000" points="429.389,332.2087,423.1295,325.0485,420.1162,330.0952,429.389,332.2087" style="stroke:#000000;stroke-width:1.0;"/><text fill="#000000" font-family="sans-serif" font-size="13" lengthAdjust="spacing" textLength="32" x="434.096" y="335.0283">make</text><text fill="#000000" font-family="sans-serif" font-size="13" lengthAdjust="spacing" textLength="20" x="333.6288" y="281.12">2..*</text><text fill="#000000" font-family="sans-serif" font-size="13" lengthAdjust="spacing" textLength="7" x="455.3944" y="358.343">1</text></g><!--link Team to Task--><g id="link_Team_Task"><path codeLine="101" d="M547.296,424.35 C565.916,439.97 590.816,459.22 615.096,473 C684.366,512.31 771.616,543.42 825.626,560.77 " fill="none" id="Team-Task" style="stroke:#181818;stroke-width:1.0;"/><polygon fill="#000000" points="615.6063,461.4449,622.4348,468.0648,625.0217,462.7868,615.6063,461.4449" style="stroke:#000000;stroke-width:1.0;"/><text fill="#000000" font-family="sans-serif" font-size="13" lengthAdjust="spacing" textLength="54" x="629.096" y="469.0283">attributed</text><text fill="#000000" font-family="sans-serif" font-size="13" lengthAdjust="spacing" textLength="7" x="546.1366" y="446.3352">1</text><text fill="#000000" font-family="sans-serif" font-size="13" lengthAdjust="spacing" textLength="20" x="798.2562" y="554.7809">1..*</text></g><!--link Task to Schedule--><g id="link_Task_Schedule"><path codeLine="103" d="M850.746,651.1 C847.636,661.09 844.666,671.26 842.096,681 C837.876,697.02 834.226,715.24 831.586,729.76 " fill="none" id="Task-Schedule" style="stroke:#181818;stroke-width:1.0;"/><polygon fill="#000000" points="845.9127,695.5035,850.9087,687.4109,845.1978,686.0198,845.9127,695.5035" style="stroke:#000000;stroke-width:1.0;"/><text fill="#000000" font-family="sans-serif" font-size="13" lengthAdjust="spacing" textLength="43" x="856.096" y="696.0283">goes to</text><text fill="#000000" font-family="sans-serif" font-size="13" lengthAdjust="spacing" textLength="5" x="843.0045" y="673.2565">*</text><text fill="#000000" font-family="sans-serif" font-size="13" lengthAdjust="spacing" textLength="7" x="824.8025" y="718.8662">1</text></g><!--link Portal to Malfunctions--><g id="link_Portal_Malfunctions"><path codeLine="104" d="M942.356,280.59 C937.936,292.47 933.156,306.76 930.096,320 C925.576,339.55 923.256,362.5 922.106,377.92 " fill="none" id="Portal-Malfunctions" style="stroke:#181818;stroke-width:1.0;"/><polygon fill="#000000" points="934.0775,334.5407,938.7972,326.2839,933.0426,325.0866,934.0775,334.5407" style="stroke:#000000;stroke-width:1.0;"/><text fill="#000000" font-family="sans-serif" font-size="13" lengthAdjust="spacing" textLength="47" x="944.096" y="335.0283">receives</text><text fill="#000000" font-family="sans-serif" font-size="13" lengthAdjust="spacing" textLength="7" x="932.063" y="302.9698">1</text><text fill="#000000" font-family="sans-serif" font-size="13" lengthAdjust="spacing" textLength="5" x="916.6497" y="366.7577">*</text></g><!--link Portal to Flaws--><g id="link_Portal_Flaws"><path codeLine="105" d="M904.526,279.64 C887.566,290.38 869.456,304.09 856.096,320 C841.676,337.18 832.206,361.46 827.006,377.8 " fill="none" id="Portal-Flaws" style="stroke:#181818;stroke-width:1.0;"/><polygon fill="#000000" points="857.9971,333.5694,865.9094,328.2924,861.2966,324.6495,857.9971,333.5694" style="stroke:#000000;stroke-width:1.0;"/><text fill="#000000" font-family="sans-serif" font-size="13" lengthAdjust="spacing" textLength="47" x="870.096" y="335.0283">receives</text><text fill="#000000" font-family="sans-serif" font-size="13" lengthAdjust="spacing" textLength="7" x="889.5528" y="279.4497">1</text><text fill="#000000" font-family="sans-serif" font-size="13" lengthAdjust="spacing" textLength="5" x="822.744" y="366.6009">*</text></g><!--link Portal to Comments--><g id="link_Portal_Comments"><path codeLine="106" d="M971.296,280.59 C979.196,292.47 988.386,306.76 996.096,320 C1007.376,339.38 1019.006,362.36 1026.606,377.84 " fill="none" id="Portal-Comments" style="stroke:#181818;stroke-width:1.0;"/><polygon fill="#000000" points="1013.5679,333.9917,1011.6508,324.6764,1006.5415,327.5823,1013.5679,333.9917" style="stroke:#000000;stroke-width:1.0;"/><text fill="#000000" font-family="sans-serif" font-size="13" lengthAdjust="spacing" textLength="47" x="1020.096" y="335.0283">receives</text><text fill="#000000" font-family="sans-serif" font-size="13" lengthAdjust="spacing" textLength="7" x="967.6953" y="302.9698">1</text><text fill="#000000" font-family="sans-serif" font-size="13" lengthAdjust="spacing" textLength="5" x="1018.2403" y="366.6532">*</text></g><!--link Outside_User to Portal--><g id="link_Outside_User_Portal"><path codeLine="107" d="M1008.426,118.17 C994.426,152.04 975.736,197.23 964.066,225.47 " fill="none" id="Outside_User-Portal" style="stroke:#181818;stroke-width:1.0;"/><polygon fill="#000000" points="990.1857,181.2662,996.3574,174.0301,990.9255,171.7844,990.1857,181.2662" style="stroke:#000000;stroke-width:1.0;"/><text fill="#000000" font-family="sans-serif" font-size="13" lengthAdjust="spacing" textLength="55" x="1001.096" y="182.0283">reports to</text><text fill="#000000" font-family="sans-serif" font-size="13" lengthAdjust="spacing" textLength="7" x="998.0312" y="140.5549">1</text><text fill="#000000" font-family="sans-serif" font-size="13" lengthAdjust="spacing" textLength="7" x="958.7934" y="214.172">1</text></g><!--link Outside_User to Green_Spaces--><g id="link_Outside_User_Green_Spaces"><path codeLine="108" d="M1068.376,118.31 C1095.156,152.47 1125.096,201.87 1125.096,252 C1125.096,252 1125.096,252 1125.096,920.5 C1125.096,986.87 1055.696,1037.78 1012.596,1063 " fill="none" id="Outside_User-Green_Spaces" style="stroke:#181818;stroke-width:1.0;"/><polygon fill="#000000" points="1129.8013,582.1368,1133.2682,573.2807,1127.4006,572.9342,1129.8013,582.1368" style="stroke:#000000;stroke-width:1.0;"/><text fill="#000000" font-family="sans-serif" font-size="13" lengthAdjust="spacing" textLength="21" x="1139.096" y="582.5283">use</text><text fill="#000000" font-family="sans-serif" font-size="13" lengthAdjust="spacing" textLength="5" x="1069.0718" y="140.3743">*</text><text fill="#000000" font-family="sans-serif" font-size="13" lengthAdjust="spacing" textLength="20" x="999.7928" y="1051.8622">1..*</text></g><!--link Malfunctions to Task--><g id="link_Malfunctions_Task"><path codeLine="109" d="M916.616,415.27 C911.456,435.73 902.656,470.65 894.566,502.72 " fill="none" id="Malfunctions-Task" style="stroke:#181818;stroke-width:1.0;"/><polygon fill="#000000" points="909.8735,468.4938,914.9347,460.4417,909.2352,459.0046,909.8735,468.4938" style="stroke:#000000;stroke-width:1.0;"/><text fill="#000000" font-family="sans-serif" font-size="13" lengthAdjust="spacing" textLength="43" x="920.096" y="469.0283">creates</text><text fill="#000000" font-family="sans-serif" font-size="13" lengthAdjust="spacing" textLength="5" x="909.7401" y="436.7172">*</text><text fill="#000000" font-family="sans-serif" font-size="13" lengthAdjust="spacing" textLength="5" x="891.0881" y="491.8557">*</text></g><!--link Flaws to Task--><g id="link_Flaws_Task"><path codeLine="110" d="M824.406,415.11 C826.656,430.55 830.556,453.51 836.096,473 C838.876,482.78 842.216,492.92 845.776,502.86 " fill="none" id="Flaws-Task" style="stroke:#181818;stroke-width:1.0;"/><polygon fill="#000000" points="842.2791,468.5035,842.9943,459.0199,837.2834,460.4107,842.2791,468.5035" style="stroke:#000000;stroke-width:1.0;"/><text fill="#000000" font-family="sans-serif" font-size="13" lengthAdjust="spacing" textLength="43" x="850.096" y="469.0283">creates</text><text fill="#000000" font-family="sans-serif" font-size="13" lengthAdjust="spacing" textLength="5" x="819.3549" y="436.5142">*</text><text fill="#000000" font-family="sans-serif" font-size="13" lengthAdjust="spacing" textLength="5" x="837.5453" y="491.7507">*</text></g><!--link Managers to CheckUp--><g id="link_Managers_CheckUp"><path codeLine="111" d="M559.226,975.26 C550.236,991.55 539.556,1009.04 528.096,1024 C495.216,1066.91 486.036,1078.95 441.096,1109 C370.596,1156.15 275.596,1189.69 226.856,1205.06 " fill="none" id="Managers-CheckUp" style="stroke:#181818;stroke-width:1.0;"/><polygon fill="#000000" points="505.9833,1084.489,515.0946,1081.7624,511.7518,1076.9277,505.9833,1084.489" style="stroke:#000000;stroke-width:1.0;"/><text fill="#000000" font-family="sans-serif" font-size="13" lengthAdjust="spacing" textLength="43" x="519.096" y="1087.0283">register</text><text fill="#000000" font-family="sans-serif" font-size="13" lengthAdjust="spacing" textLength="7" x="548.5246" y="997.1313">1</text><text fill="#000000" font-family="sans-serif" font-size="13" lengthAdjust="spacing" textLength="7" x="234.5691" y="1197.9505">1</text></g><!--SRC=[ZLLDRzmW4BtxLw2zH8hKgEdHgY9LRPAsQfggc_IwOl6iZHQ32pYhJTJ_tW4CnlkLvB31p9jXvirZC6ikEwffIreb5MkqQe5OtKDXagMZR4rhcDkj0AA1MIfhaGDCGokruR8cAoeC56UZIN09Tji1KTesgZWJiBB4Ag9vtLXISHUEAva5Ou8QyybQpPUzXMzCoJb_1lA-Q7W5X77Dy6o_RW53LgRm7kI-jmPt5uy6z4j1y4_I5lm2Mig5NtM8t2XT5Vy6hr-O5nK1RwbP4qOjr4fl4-AEYbKlVPRc9MxU2BePlpwhjWLfnuqvQw3g1OnnJOftItK5CbWgC4pppZEGpeEAz-t25LqTH_sWkeRNG7-WuSYMMTnHrc0ZpEBwRyyxb-i9fvkxLCVNt-FwTfwjDO1Sp54OO5wAvFe0j0s1cHA2BfMcLcbNUY8gsmv8RBmOUgFL2ep9SxbkEw6s08RiTFI9sfzzkmJjlpQmDDm6IzSe2Pajz3vbyE1w789fM846oM2F2lVDvKhfbeelk1-w2AoHd6KxLO-5H3nJncQQaNXXz5xQcH0LPXnzVSx9-LxNLF9d7tgKM0Di_TWDRKED9lZS4PXmtzNIoR38Wv3PvOoymz-BY_DPncb96ch8rHusGa_89xgEmVmPw8adJBfS4ghX63Bn555f8u8kPwYxUDe1AohqX1MrVDpgIdIABGdJW8pkeX8eLtj9MWyv13wVxLJUu7WZL5OejPeR2_gWqqcQMQEKEHbaB2P8eNm3qAbaWlEUqHgus-rYdCYL6zzNXGkHCRs3hlaJo00yKPxNGF0FZN0Ys3teRVxnWfH40dfYHSC8ZZb69ah2pT33YYotYCpRcsappEaednmqKN0shL_3PZFx23JHZ__Sf2hnsUGrbuCw9oIJsGS77-aZJfjhTulSrrJcRkfDUlYny7l1F50urRbHuWc1NBg07fl8JjnYenLcvliKNjAitlpXT69ZWA8mXv3-DJqDYK_i19K_-PaMXqUTE6o7oo71AVeyesTQU6_291gpT-YGHcZAE2zyvYdOq3LoRABiQJMxWSDU3dl3_FqF]--></g></svg>